<?xml version="1.0" encoding="utf-8"?>
<!-- Generator: Adobe Illustrator 15.0.2, SVG Export Plug-In . SVG Version: 6.00 Build 0)  -->
<!DOCTYPE svg PUBLIC "-//W3C//DTD SVG 1.1//EN" "http://www.w3.org/Graphics/SVG/1.1/DTD/svg11.dtd">
<svg version="1.1" id="Layer_1" xmlns="http://www.w3.org/2000/svg" xmlns:xlink="http://www.w3.org/1999/xlink" x="0px" y="0px"
	 width="555.194px" height="464.203px" viewBox="0 0 555.194 464.203" enable-background="new 0 0 555.194 464.203"
	 xml:space="preserve">
<g>
	<path d="M335.911,287.566c-1.796-0.205-3.398-0.869-5.18-1.104c-2.734-0.359-0.115-2.793-0.488-3.846
		c-0.25-0.715-1.079-0.611-1.678-0.6c-0.583,0.014-1.13,0.063-1.708,0.129c-1.104,0.242-1.224-0.506-0.357-2.234
		c0.851-0.709,1.892-1.094,2.99-1.145c0.219-0.01,0.213-0.305,0.022-0.357c-1.691-0.477-4.977,0.844-5.254,2.848
		c-0.267,1.951,1.637,2.016,3.142,1.822c3.487-0.438-0.254,2.15,1.254,3.516c1.129,1.021,2.643,0.654,3.994,1.242
		c1.01,0.436,2.285,0.697,3.299,0.225C336.155,287.967,336.19,287.6,335.911,287.566z"/>
	<path d="M251.323,408.045c5.521-0.414,10.994-2.376,16.29-5.021c-0.012-0.016-0.033-0.021-0.043-0.039
		c-0.083-0.155-0.175-0.305-0.275-0.448c-0.673-0.087-1.33-0.229-1.953-0.475c-1.345-0.53-2.078-1.407-2.415-2.478
		c-0.5-0.229-0.933-0.608-1.231-1.23c-0.275-0.573-0.437-1.188-0.528-1.818c-3.807,2.41-6.646,4.923-7.441,7.496
		c1.266-4.1-5.355-5.398-6.568-1.26c-0.141,0.471-0.28,0.975-0.418,1.445c-0.297,0.994,0.049,1.918,0.654,2.625
		c-1.114,0.756-1.764,2.322-0.955,3.898c9.742,18.904,16.397,31.371,18.46,52.793c0.021,0.215-0.001,0.453,0.013,0.67
		c2.498-0.291,5.16-0.379,7.919-0.316C273.616,443.166,262.838,424.557,251.323,408.045z"/>
	<path d="M287.013,390.968c0.435-0.294,0.878-0.598,1.304-0.884c5.821-3.912,11.225-7.882,16.384-12.035
		c-1.467-1.117-2.017-3.35-1.593-5.586c-4.072,3.355-8.307,6.535-12.792,9.467c-2.139,1.393-5.353,2.94-8.993,4.608
		C283.641,387.204,285.624,388.874,287.013,390.968z"/>
	<path d="M490.318,96.368c-4.452-1.842-9.407-1.104-14.537,1.193c2.371-5.174,3.694-10.408,4.262-16.419
		c0.434-4.632,4.236-11.646-0.406-15.583c-5.888-5.01-15.563,4.862-20.779,12.263c-0.29-0.295-0.648-0.528-1.101-0.575
		c-3.206-0.303-6.291-0.008-9.277,0.752c1.729-2.834,3.665-5.535,4.899-8.631c1.271-3.139,3.935-9.415,3.601-12.687
		c-0.274-2.777,0.993-9.865-3.85-9.522c-6.825,0.465-12.208,7.688-16.758,11.93c-4.257,3.954-8.52,8.053-11.172,13.146
		c0.074-5.755-1.048-9.725-4.813-7.859c-6.714,3.358-8.807,11.38-12.581,17.626c-2.805,4.662-3.737,10.63-5.901,15.584
		c-2.391,5.486-5.224,10.531-7.118,16.232c-0.797,2.417,2.727,4.209,3.611,1.75c2.044-5.614,4.822-10.74,7.582-16.026
		c3.14-6.007,4.248-12.664,7.806-18.531c1.797-2.976,3.374-5.992,4.927-9.088c2.171-4.264,1.493,5.893,1.547,5.407
		c-0.679,6.244-2.033,12.475-3.039,18.669c-0.453,2.779,3.445,3.443,4.216,0.833c0.272-0.949,2.264-9.408,3.233-17.479
		c0.728,0.105,1.514-0.069,1.846-0.894c4.179-9.776,13.168-17.97,21.584-24.335c1.271-1.014,2.693-1.596,4.216-1.981
		c0.02,0.22-0.009,0.291,0.08,0.629c0.027,3.051-0.579,5.809-1.463,8.718c-1.264,4.09-2.362,7.758-4.864,11.349
		c-1.512,2.165-2.745,4.077-3.627,6.607c-0.096,0.299,0.039,0.525,0.024,0.796c-16.731,8.047-29.609,30.071-38.502,43.411
		c-9.595,14.419-17.534,30.351-24.772,46.62c8-18.788,17.117-41.915,15.15-60.354c-0.156-1.539-1.898-3.153-3.531-2.34
		c-14.631,7.383-19.877,29.924-27.095,43.838c-10.63,20.504-22.46,43.622-29.069,65.772c-8.418,28.206-27.414,57.497-42.791,82.487
		c-15.4,25.113-34.698,52.25-44.498,80.063c-1.94,2.422-3.927,4.805-5.63,7.363c-1.919,2.895,1.646,6.098,4.183,3.555
		c0.047-0.064,0.092-0.113,0.116-0.143c1.445-0.086,2.24-1.359,2.268-2.646c4.488-5.391,9.613-10.295,14.728-15.277
		c-4.152,5.271-8.149,10.637-12.857,15.23c-1.173,0.305-2.243,1.084-2.67,2.51c-0.131,0.438-0.259,0.863-0.378,1.281
		c-0.394-0.021-0.782-0.094-1.235,0.119c-6.414,2.869-17.328,3.878-27.211,4.534c1.134,1.287,1.619,3.088,1.369,4.679
		c1.018,0.293,1.867,0.7,2.438,1.252c7.726-0.548,15.664-1.293,22.567-4.012c1.286,0.74,2.997,0.715,3.736-0.727
		c0.505,0.262,1.067,0.357,1.738,0.178c3.652-0.974,7.408-3.115,11.075-5.691c0.633-2.234,1.919-4.575,4.087-5.622
		c0.942-0.454,2.14-0.937,3.123-0.329c0.218-0.077,0.454-0.145,0.684-0.178c2.637-2.183,5.141-4.313,7.41-6.061
		c15.463-11.875,28.604-23.92,41.526-38.457c8.51-9.555,19.558-17.902,26.464-28.775c10.783-17.018,23.85-35.404,36.786-50.807
		c23.782-28.26,43.256-59.125,65.954-88.135c2.981-3.804,5.797-7.563,8.558-11.366c-0.433,1.22,0.816,2.686,2.15,1.783
		c6.089-4.126,11.639-6.234,18.061-9.071c0.208,0.124,0.397,0.144,0.639,0.216c1.336,3.034,2.667,6.063,4.009,9.096
		c-3.152,6.518-6.934,12.685-11.3,18.512c-8.593,12.422-18.656,22.71-29.186,33.452c-19.231,19.587-33.385,44.562-52,64.909
		c-10.578,11.537-22.584,21.814-33.261,33.287c-10.743,11.557-19.4,25.092-30.138,36.791c-0.829,0.905-1.664,1.799-2.502,2.688
		c1.274-0.557,2.591-0.921,3.816-1.041c2.292-1.166,4.77-2.007,7.205-2.527c14.968-16.656,28.022-34.446,44.088-50.297
		c14.944-14.758,28.368-30.623,41.238-47.25c23.008-29.676,54.849-57.558,68.186-93.336c2.852-7.614-0.556-9.428-5.976-8.654
		c2.031-4.346,3.615-8.63,5.069-13.602c1.378-4.661,3.769-9.146,3.716-14.111c-0.035-3.922-2.987-4.808-6.404-4.266
		c3.868-6.392,7.208-12.984,8.055-19.769C491.786,97.979,491.372,96.812,490.318,96.368z M457.972,86.326
		c0.561-0.076,1.081-0.382,1.396-1.089c1.904-4.292,5.678-7.208,8.762-10.596c1.339-1.449,2.754-2.538,4.29-3.741
		c2.787-2.156,4.913,0.895,4.292,3.758c-0.871,4.051-1.062,8.729-2.244,12.653c-1.475,4.877-4.12,9.255-5.448,14.072
		c-17.104,11.716-34.517,37.195-40.679,46.67c4.959-10.035,9.542-20.302,14.987-29.958
		C449.066,107.873,454.788,97.599,457.972,86.326z M445.367,84.871c12.658-7.782,2.688,16.377,2.95,15.706
		c-2.063,5.428-6.03,10.607-8.95,15.613c-10.328,17.723-17.988,36.87-29.314,54.04c-15.809,23.965-24.558,52.906-42.192,75.657
		c-19.626,25.289-32.629,55.891-54.879,79.246c-12.421,13.049-26.123,24.762-39.773,36.486l0.036-0.037
		c10.188-13.053,20.054-26.494,30.022-39.711c18.175-24.166,29.516-52.918,47.363-77.195
		C386.477,195.904,389.848,118.951,445.367,84.871z M261.789,363.268c11.059-19.238,27.667-49.4,31.395-55.307
		c8.78-13.863,17.083-27.662,24.244-42.432c5.996-12.371,16.346-25.551,20.267-38.589c8.711-28.915,24.402-56.347,36.559-83.964
		c2.388-5.389,5.707-10.361,8.425-15.593c6.27-12.037,6.171-5.974,3.39,3.243c-4.927,16.33-10.177,32.419-13.235,49.211
		c-0.2,1.077,1.259,1.656,1.851,0.808c-4.171,9.788-8.153,19.604-12.076,29.225c-6.217,15.188-16.859,27.323-24.678,41.468
		c-9.84,17.826-20.215,36.604-32.099,53.188c-9.884,13.789-19.899,27.693-29.672,41.621
		C271.881,352.23,266.862,357.76,261.789,363.268z M406.465,222.599c-11.62,16.195-26.029,30.123-37.605,46.192
		c-10.696,14.869-20.701,30.287-31.949,44.793c-12.425,16.063-29.14,33.563-44.419,46.844c-8.69,7.543-20.984,20.232-32.934,27.637
		c4.358-5.215,8.329-10.795,12.984-15.773c12.435-13.262,27.276-25.082,40.487-37.645c26.77-25.453,41.004-60.959,63.025-90.014
		c17.463-23.013,26.062-53.333,41.852-77.661c3.841-5.914,7.114-12.206,10.255-18.58c-1.414,2.454,1.775,5.382,3.621,2.938
		c10.341-13.6,19.907-27.024,33.112-38.099c4.731-3.971,9.396-7.349,14.726-10.458c6.009-3.49-5.475,19.306-4.591,17.785
		C454.48,155.967,430.379,189.267,406.465,222.599z M485.551,125.346c-0.435,2.938-1.929,5.722-2.89,8.521
		c-2.194,6.419-3.898,12.267-7.138,18.239c-0.008,0.028,0.015,0.072-0.006,0.102c-7.727,2.611-16.533,7.587-18.738,9.186
		c5.978-8.264,11.509-16.619,16.533-25.91c2.041-3.75,4.593-7.648,7.124-11.627C483.084,122.637,486.036,122.201,485.551,125.346z"
		/>
</g>
<g>
	<path d="M69.103,218.886c1.006-1.701-0.953-4-2.154-3.141c-14.626,9.923-31.387,21.76-48.593-4.573
		C4.86,190.513-6.201,111.159,30.734,139.888c14.854,11.538,30.47,32.872,38.339,54.691c4.067,11.308,8.284,26.33,13.77,36.213
		c2.685,4.813,4.97,9.904,7.209,15.04c-13.819-6.89-24.475-11.522-34.097,4.291c-6.355,10.455-7.549,33.221,1.851,46.236
		c9.342,12.937,23.537,17.156,30.778,4.323c2.404-4.241,4.378-8.826,6.258-13.483c0.642,2.276,1.763,4.604,3.801,7.076
		c2.664,3.226,5.977,5.144,9.082,6.456c2.699,1.149,5.365-1.128,7.463-2.619c0.003,0,0.003,0,0.009-0.002
		c1.012,0.164,2.011,0.438,3.025,0.446c0.972,1.725,1.846,3.479,2.79,5.236c-7.263-2.836-16.025-2.299-20.455-1.175
		c-12.939,3.163-9.479,27.693-5.342,43.703c4.504,17.424,15.19,31.874,27.615,29.782c6.08-1.049,9.16-8.567,11.486-15.535
		c1.229-3.72,2.316-7.819,3.314-11.993c0.712,1.118,1.419,2.354,2.141,3.623c2.142,8.576,4.038,17.368,6.077,26.023
		c-5.938-2.899-14.262,2.56-18.728,5.975c-7.271,5.615-9.748,27.895-1.435,37.918c3.259,3.956,9.912,0.77,12.297-1.391
		c6.105-5.464,9.691-13.86,13.073-22.685c2.459,8.147,5.412,15.89,9.138,23.003c1.215-0.092,2.479-0.158,3.776-0.215
		c-0.007-0.083,0.007-0.156-0.028-0.244c-4.089-9.814-6.976-20.392-9.519-31.206c0.193-0.476,0.371-0.949,0.57-1.438
		c3.198-7.934,7.625-15.955,14.268-18.363c1.733-0.78,3.47-1.514,5.242-2.171c9.364,8.275,11.256,14.566,5.703,18.939
		c-5.25,6.226-13.129,6.424-18.405,12.232c-0.941,1.051-0.456,3.804,1.019,4.191c11.637,3.26,41.429-24.846,19.77-40.415
		c-9.81-7.045-21.648,5.619-26.813,13.377c-1.153,1.73-2.148,3.707-3.121,5.72c-1.66-7.537-3.289-15.108-5.051-22.6
		c4.274-0.187,8.267-2.304,12.154-3.96c8.267-3.591,10.43-14.872,6.683-27.258c-3.603-11.869-9.885-23.536-19.014-24.369
		c-7.984-0.698-13.115,7.466-9.866,18.798c-0.434,0.114-0.839,0.448-1.015,1.313c-0.036,0.186-0.07,0.367-0.116,0.537
		c-3.97-9.201-8.463-17.758-13.124-26.06c16.25-4.789,28.299-31.802,7.402-48.489c-11.501-9.191-21.987-0.872-29.059,8.678
		c-1.695-3.607-3.315-7.256-4.844-11.095c-15.646-39.258-38.973-95.58-68.942-117.123c-12.331-8.833-20.66,1.202-25.691,13.681
		c-6.511,16.122,3.133,44.618,9.241,61.92C23.426,239.463,56.675,240.237,69.103,218.886z M148.85,390.21
		c-2.097,5.49-4.014,11.179-6.228,16.266c-3.174,9.003-9.023,10.609-17.541,4.847c-0.52-5.141-0.352-10.028,0.523-14.657
		c0.948-6.309,15.579-19.851,22.146-10.691C148.11,387.399,148.467,388.8,148.85,390.21z M140.313,325.346
		c-0.018-0.322-0.172-0.572-0.257-0.884c0.641-0.313,1.203-0.792,1.78-1.247c0.45-0.36,0.442-0.991,0.284-1.592
		c-0.054-0.746-0.373-1.508-1.066-1.61c-0.159-0.016-0.324-0.045-0.472-0.03c-0.436-3.314-0.521-6.134,1.397-8.299
		c2.525-2.895,7.932-2.748,11.14,0.347c4.958,4.771,7.962,14.093,9.738,21.6c2.337,9.849-4.261,13.402-9.123,15.063
		c-1.979,0.664-3.868,1.709-5.81,2.456c-0.776,0.308-1.523,0.268-2.26,0.068c-1.432-5.477-2.973-10.917-4.825-16.156
		c-0.209-0.587-0.466-1.149-0.677-1.73C140.341,330.683,140.461,328.039,140.313,325.346z M131.842,326.3
		c0.943,2.363,1.729,4.834,2.561,7.291c-1.62,7.842-3.225,15.647-5.245,23.271c-5.438,20.444-20.511,11.666-27.577-6.868
		c-4.014-10.567-4.877-22.249-4.571-32.86c0.352-12.062,10.531-6.098,15.895-7.128c3.71-0.692,9.561-0.172,13.373,3.951
		C128.235,317.994,130.144,322.081,131.842,326.3z M109.383,257.783c3.166-1.554,6.338-3.095,9.496-4.656
		c11.227-1.867,15.466,8.544,12.716,31.289c-2.409,3.061-7.661,4.516-12.828,5.382c-4.725-8.238-9.41-16.473-13.818-25.152
		C106.325,262.281,107.662,259.866,109.383,257.783z M102.289,271.589c3.748,6.333,7.537,12.637,11.297,19.006
		c-1.844,0.246-3.546,0.479-4.878,0.699c-0.971,0.168-1.377,1.593-1.025,2.814c-1.154-0.345-2.336-0.879-3.708-1.878
		c-4.788-3.436-5.834-7.468-5.491-13.602c-0.001-0.13-0.049-0.245-0.07-0.346c1.073-2.611,2.16-5.225,3.338-7.713
		C101.943,270.896,102.098,271.243,102.289,271.589z M98.088,263.558c-7.682,14.186-12.219,53.117-34.582,31.975
		c-21.004-19.88,0.599-51.604,13.874-49.339c4.861,0.777,11.125,5.264,16.336,7.912C95.114,257.301,96.555,260.438,98.088,263.558z"
		/>
	<path d="M91.52,120.815c-9.084-15.81-18.83-29.347-30.436-19c-14.195,12.643-8.625,46.584-0.06,67.43
		c1.22,2.957,4.318,1.708,3.104-1.326c-5.135-12.787-7.813-21.879-7.302-35.525c0.555-13.639,5.201-41.788,23.585-20.694
		c7.056,8.083,12.858,22.472,16.233,33.65c8.262,27.314,3.158,50.294-8.09,67.399c-0.82,1.279,0.609,3.478,1.674,3.058
		C115.174,206.225,107.095,147.949,91.52,120.815z"/>
	<path d="M211.457,157.008c-1.239,1.138-0.032,3.805,1.341,3.989c24.189,3.276,54.991-45.41,37.727-82.307
		c-9.713-20.767-28.453-38.044-42.227-26.77c-10.447,8.557-11.981,22.263-8.097,37.379c0.551,8.689,0.911,17.192,1.015,25.529
		c-3.58-19.149-6.431-39.227-19.779-52.912c-7.403-7.604-22.394-19.763-28.246-7.538c-17.108,35.864,2.97,94.989,28.859,125.167
		c1.414,1.655,2.792-0.468,1.817-2.478c-15.589-32.205-31.757-54.785-31.115-93.095c0.131-5.682,0.703-11.155,1.72-16.418
		c4.727-28.13,26.314,2.463,32.145,11.634c6.831,10.759,9.554,31.1,13.67,44.219c0.2,0.632,0.557,0.965,0.939,1.153
		c-0.171,27.228-2.382,53.176-5.04,79.989c-1.084-3.45-2.55-6.545-5.394-9.387c-4.888-4.83-11.85-5.636-16.931-5.271
		c-11.914,0.857-18.694,12.469-20.225,28.304c-1.207,12.438,3.656,41.632,13.367,49.973c8.304,7.127,21.005,3.76,23.151-8.517
		c0.283-1.652-1.056-3.196-2.03-2.396c-5.597,4.506-10.051,11.746-18.199,6.741c-8.557-5.288-10.183-27.754-11.408-37.968
		c-1.779-14.794,4.261-24.491,12.814-28.351c3.419-1.558,7.263-1.539,11.104-0.317c7.417,2.329,9.954,7.95,12.575,16.676
		c0.038,0.145,0.151,0.196,0.207,0.327c-0.147,1.363-0.279,2.761-0.41,4.14c-0.24,0.908-0.522,1.825-0.717,2.721
		c-0.168,0.835-0.056,1.617,0.216,2.294c-2.488,24.973-3.881,50.22-7.317,74.757c-2.55,18.088-7.741,35.613-6.592,55.296
		c0.205,3.555,4.082,5.036,3.985,1.365c-0.243-8.772,0.52-17.443,1.703-26.034c0.622,1.293,1.653,2.321,3.315,2.905
		c1.583,0.549,2.402-2.384,0.938-3.952c-4.043-4.325,6.687-16.734,8.239-18.216c8.372-8.12,19.701-5.488,29.345,4.946
		c12.539,13.628,12.922,35.849,3.071,45.97c-9.086,9.331-21.475,8.603-33.318,3.279c-1.774-0.812-2.391,2.586-0.999,4.183
		c12.468,14.577,34.464,7.556,41.93-6.264c8.83-16.269,3.522-39.429-10.362-54.278c-11.765-12.542-26.333-11.353-35.141-0.86
		c-0.914,1.109-2.982,4.299-4.755,8.095c2.123-11.789,4.575-23.4,5.989-34.876c2.574-21.048,3.917-42.704,6.063-63.915
		c4.006-10.619,10.845-17.762,20.123-19.401c8.571-1.496,18.506,9.032,23.067,20.055c3.839,9.259-0.006,21.284-2.882,27.83
		c-8.253,18.795-29.404,27.061-44.42,31.704c-2.922,0.881-0.62,7.303,2.228,6.657c17.562-3.995,60.145-24.007,50.363-62.948
		c-4.628-18.403-17.01-28.486-29.307-29.479c-7.041-0.555-13.08,4.436-17.646,11.5c3.547-30.068,8.33-62.082,5.113-94.32
		c0.093,0.203,0.171,0.421,0.269,0.608c0.666,1.333,2.05,0.387,1.505-1.026c-1.015-2.638-1.937-5.598-2.733-8.693
		c-0.476-3.144-1.25-6.302-1.907-9.468c-2.781-18.542,0.033-37.94,16.202-34.138c15.828,3.717,30.301,26.467,29.425,48.3
		C248.536,134.175,226.264,143.708,211.457,157.008z"/>
	<path d="M160.852,278.818c-8.295,3.107-11.972,13.412-6.049,26.131c0.552,1.199,2.001,0.939,1.918-0.423
		c-0.578-9.47-1.665-15.258,4.729-19.18c2.908-1.795,8.204-3.831,11.611-1.498c2.26,1.553,3.023,0.194,4.66,4.156
		c0.729,1.757,1.164,3.79,1.655,5.633c1.066,3.97,4.903,2.238,3.871-1.649C178.913,275.71,169.86,275.475,160.852,278.818z"/>
	<path d="M146.004,151.029c-5.161-5.937-13.229-9.054-19.108-11.333c-12.732-4.925-20.205,11.334-20.076,27.523
		c0.108,13.764,4.375,30.161,13.788,38.644c5.015,4.527,11.273,2.247,15.898,0.917c5.397-1.548,12.423-4.009,15.763-9.941
		c0.688-1.244-0.573-3.651-1.673-3.031c-6.114,3.427-13.541,6.609-20.386,7.501c-11.682,1.484-16.389-13.836-18.027-27.807
		c-0.891-7.63,0.482-13.65,2.724-19.6c3.268-8.694,7.547-8.999,14.748-6.296c4.114,1.553,8.629,4.367,12.587,7.23
		c5.553,4.006,7.079,13.245,9.111,20.438c1.074,3.792,4.553,2.058,3.667-1.595C152.879,164.892,151.534,157.399,146.004,151.029z"/>
	<path d="M135.019,66.527c-10.787-18.252-33.337-24.671-39.44-3.349c-2.821,9.897-1.103,21.833,3.933,32.392
		c7.281,15.279,18.75,32.648,29.419,43.255c1.806,1.787,3.495-1.178,1.701-3.299c-10.244-12.069-23.072-30.802-29.436-47.095
		c-6.111-15.645-1.518-26.82,7.474-31.504c8.811-4.612,16.762,4.086,24.725,11.848C134.606,69.956,136.122,68.381,135.019,66.527z"
		/>
</g>
<g>
	<path d="M237.237,450.75c-10.676,1.91-21.026,0.855-31.67,2.578c-16.327,2.648-5.47-15.85-9.428-21.258
		c-2.669-3.68-7.26-1.658-10.679-0.551c-3.328,1.078-6.393,2.297-9.601,3.68c-5.927,3.299-7.904-0.797-5.9-12.229
		c3.668-5.537,8.982-9.545,15.217-11.725c1.239-0.434,0.694-2.121-0.492-2.098c-10.541,0.176-27.149,13.424-25.292,25.418
		c1.831,11.684,12.882,8.766,21.196,5.063c19.283-8.52,2.244,12.797,13.271,18.047c8.241,3.92,16.313-0.797,25.09,0.252
		c6.551,0.768,14.332,0.076,19.342-4.389C239.329,452.625,238.901,450.457,237.237,450.75z"/>
	<path d="M363.36,91.447c0.697-4.746,0.984-9.305,0.949-14.484c-0.018-4.86,0.984-9.844-0.492-14.584
		c-1.16-3.747-4.242-3.747-7.359-2.247c1.869-7.233,3.176-14.508,2.039-21.249c-0.17-1.04-0.902-2.039-2.039-2.162
		c-4.793-0.486-9.328,1.644-13.582,5.317c0.785-5.637,0.551-11.03-0.633-16.951c-0.914-4.562,0.715-12.372-4.863-14.81
		c-7.078-3.108-13.512,9.126-16.383,17.713c-0.363-0.199-0.773-0.319-1.219-0.234c-3.158,0.63-6.029,1.799-8.672,3.384
		c0.844-3.211,1.922-6.354,2.215-9.674c0.316-3.372,1.066-10.148-0.193-13.187c-1.061-2.581-1.881-9.735-6.422-8.016
		c-6.404,2.405-9.486,10.869-12.627,16.239c-2.941,5.01-5.848,10.16-6.926,15.8c-1.582-5.534-3.797-9.015-6.867-6.146
		c-5.467,5.145-5.168,13.43-6.99,20.496c-1.348,5.271-0.527,11.256-1.178,16.623c-0.715,5.941-1.98,11.587-2.156,17.593
		c-0.07,2.543,3.82,3.249,3.961,0.639c0.346-5.965,1.535-11.672,2.66-17.528c1.283-6.656,0.434-13.351,2.156-19.992
		c0.867-3.366,1.512-6.709,2.109-10.119c0.855-4.708,3.123,5.215,3.035,4.734c1.143,6.176,1.635,12.533,2.449,18.756
		c0.363,2.792,4.289,2.309,4.277-0.413c-0.012-0.987-0.533-9.662-1.922-17.672c0.727-0.108,1.43-0.501,1.512-1.386
		c1.195-10.564,7.453-20.994,13.688-29.508c0.926-1.336,2.121-2.303,3.469-3.108c0.082,0.205,0.076,0.281,0.258,0.58
		c0.902,2.915,1.113,5.73,1.102,8.771c-0.035,4.28-0.035,8.109-1.4,12.267c-0.826,2.508-1.459,4.693-1.576,7.371
		c-0.006,0.313,0.188,0.492,0.252,0.756c-13.717,12.513-19.729,37.307-24.416,52.638c-5.051,16.567-8.08,34.107-10.342,51.771
		c2.268-20.294,4.359-45.064-2.818-62.162c-0.592-1.43-2.725-2.476-4.055-1.228c-11.895,11.273-10.447,34.371-13.365,49.772
		c-4.295,22.693-8.988,48.234-8.959,71.35c0.035,29.435-9.75,62.947-17.303,91.301c-7.541,28.477-18.234,60.012-19.635,89.467
		c-1.163,2.877-2.382,5.73-3.278,8.672c-1.008,3.322,3.328,5.367,5.027,2.203c0.026-0.076,0.056-0.135,0.07-0.17
		c1.359-0.498,1.755-1.945,1.412-3.188c2.751-6.451,6.252-12.621,9.721-18.861c-2.464,6.24-4.752,12.527-7.942,18.281
		c-1.037,0.627-1.837,1.682-1.837,3.17c0,0.457,0,0.902,0.006,1.336c-0.384,0.094-0.776,0.135-1.148,0.469
		c-1.512,1.304-3.427,2.566-5.59,3.787c-0.211,0.303-0.426,0.587-0.638,0.846c-0.028,0.054-0.063,0.105-0.091,0.159
		c-2.067,4.589-5.384,8.348-10.039,10.555c-5.08,2.409-10.672,3.532-15.581,6.293c0.755-0.301,1.51-0.604,2.263-0.921
		c6.259-2.632,13.373-4.915,19.947-7.942c0.247-0.249,0.504-0.494,0.778-0.746c1.606-1.474,3.999-2.33,6.097-2.903
		c1.358-0.842,2.669-1.734,3.904-2.705c1.444,0.34,3.076-0.176,3.369-1.77c0.56,0.105,1.125,0.035,1.717-0.328
		c8.071-4.969,14.684-17.121,20.133-24.703c11.402-15.814,20.531-31.125,28.734-48.762c5.408-11.596,13.594-22.764,17.086-35.162
		c5.443-19.4,12.68-40.764,20.648-59.229c14.666-33.899,24.457-69.056,37.869-103.362c1.764-4.5,3.381-8.909,4.934-13.345
		c-0.064,1.292,1.553,2.338,2.572,1.09c4.646-5.701,9.357-9.313,14.695-13.875c0.234,0.059,0.422,0.023,0.674,0.023
		c2.15,2.522,4.295,5.042,6.451,7.562c-1.148,7.148-3,14.142-5.508,20.977c-4.664,14.367-11.35,27.111-18.352,40.424
		c-12.797,24.284-19.184,52.271-31.172,77.109c-6.82,14.086-15.369,27.375-22.301,41.438c-6.973,14.15-11.379,29.602-18.305,43.893
		c-6.82,14.115-14.426,27.445-24.551,39.451c-5.911,6.98-24.321,19.737-28.029,28.782c1.01,1.271,1.43,2.97,1.193,4.478
		c0.621,0.18,1.182,0.398,1.65,0.671c10.178-5.834,18.433-16.811,25.613-25.546c11.947-14.543,20.9-28.605,29.338-45.545
		c10.922-21.996,18.645-44.801,30.48-66.422c10.078-18.422,18.381-37.477,25.934-57.1c13.518-35.033,36.012-70.884,38.514-108.984
		C372.114,89.909,368.329,89.15,363.36,91.447z M322.59,36.39c0.516-0.234,0.926-0.677,1.025-1.444
		c0.592-4.658,3.369-8.534,5.35-12.665c0.867-1.772,1.91-3.223,3.035-4.816c2.051-2.865,4.963-0.554,5.191,2.367
		c0.328,4.131,1.488,8.666,1.482,12.765c-0.012,5.095-1.289,10.049-1.178,15.044c-13.02,16.134-22.383,45.539-25.564,56.385
		c1.869-11.036,3.311-22.187,5.754-33C320.247,59.587,322.778,48.103,322.59,36.39z M310.098,38.616
		c9.891-11.089,7.277,14.915,7.336,14.197c-0.416,5.792-2.73,11.892-4.09,17.525c-4.805,19.942-6.645,40.482-12.563,60.182
		c-8.262,27.495-8.332,57.729-18.691,84.586c-11.537,29.862-15.205,62.909-29.813,91.667c-8.15,16.066-17.912,31.219-27.621,46.371
		l0.023-0.047c6.012-15.428,11.602-31.137,17.355-46.658c10.471-28.365,13.078-59.162,23.203-87.545
		C285.571,161.883,266.704,87.202,310.098,38.616z M214.192,358.002c5.068-21.604,12.316-55.266,14.191-61.992
		c4.43-15.803,8.42-31.4,11.039-47.607c2.191-13.57,8.32-29.168,8.332-42.782c0.041-30.199,7.195-60.981,10.91-90.926
		c0.738-5.848,2.49-11.563,3.592-17.355c2.549-13.33,4.195-7.494,4.178,2.133c-0.029,17.057-0.439,33.976,1.453,50.938
		c0.117,1.09,1.682,1.225,2.004,0.243c-1.184,10.573-2.18,21.12-3.176,31.462c-1.594,16.333-8.303,31.014-11.73,46.811
		c-4.307,19.898-8.854,40.863-15.475,60.164c-5.508,16.043-11.109,32.238-16.471,48.387
		C220.69,344.531,217.47,351.27,214.192,358.002z M312.383,181.714c-6.48,18.85-16.283,36.328-22.758,55.046
		c-5.977,17.314-11.133,34.951-17.742,52.084c-7.289,18.949-18.275,40.512-29.098,57.621c-6.158,9.721-14.291,25.406-23.61,35.93
		c2.678-6.246,4.878-12.732,7.907-18.838c8.104-16.271,18.926-31.857,27.973-47.684c18.334-32.068,21.773-70.166,34.523-104.32
		c10.119-27.059,9.65-58.57,17.789-86.408c1.98-6.768,3.311-13.734,4.488-20.742c-0.65,2.757,3.246,4.646,4.313,1.775
		c6-15.996,11.309-31.603,20.777-46.002c3.393-5.162,6.891-9.738,11.104-14.247c4.752-5.068,0.299,20.065,0.709,18.354
		C339.243,104.101,325.719,142.919,312.383,181.714z M359.891,74.839c-0.258,6.779-0.211,12.87-1.6,19.521
		c0,0.029,0.035,0.064,0.023,0.1c-6.65,4.72-13.658,12.015-15.311,14.18c3.352-9.633,6.252-19.225,8.396-29.566
		c0.879-4.178,2.203-8.646,3.486-13.184c2.186-1.928,4.887-3.193,5.326-0.041C360.641,68.786,360.008,71.883,359.891,74.839z"/>
</g>
<g>
	<path d="M501.749,232.157c-16.414-4.392-42.307,8.715-57.988,16.923c-30.855,16.146-26.689,49.053-4.387,58.623
		c1.777,0.779,3.691-1.442,2.691-2.52c-11.672-13.183-25.49-28.229-2.791-48.527c17.811-15.919,92.244-36.834,70.158,3.231
		c-8.865,16.112-27.01,34.209-46.764,44.724c-10.24,5.438-24.016,11.493-32.68,18.152c-4.219,3.254-8.762,6.15-13.352,9.008
		c4.563-14.504,7.43-25.603-9.148-33.105c-10.961-4.951-32.959-3.263-44.049,7.654c-11.021,10.848-12.969,25.387,0.4,30.915
		c4.422,1.837,9.107,3.207,13.848,4.476c-2.086,0.918-4.152,2.319-6.221,4.643c-2.699,3.034-4.047,6.545-4.848,9.774
		c-0.703,2.809,1.873,5.151,3.613,7.034c0.002,0.003,0.002,0.003,0.004,0.008c-0.008,1.02-0.125,2.041,0.018,3.042
		c-1.51,1.177-3.063,2.261-4.607,3.413c1.646-7.524-0.162-16.102-1.895-20.332c-4.941-12.368-27.944-5.864-42.681,0.237
		c-16.037,6.64-28.311,19.005-24.471,31.002c1.903,5.867,9.565,7.958,16.587,9.377c3.747,0.742,7.837,1.3,11.986,1.758
		c-0.967,0.844-2.047,1.696-3.157,2.57c-7.904,3.193-16.052,6.173-24.048,9.274c1.902-6.224-4.559-13.751-8.492-17.727
		c-6.456-6.467-28.178-6.104-36.559,3.363c-3.311,3.714,0.726,9.877,3.149,11.958c6.139,5.336,14.717,7.816,23.674,10.041
		c-7.446,3.453-14.432,7.343-20.7,11.916c0.268,1.188,0.518,2.427,0.763,3.699c0.079-0.018,0.152-0.013,0.23-0.06
		c8.804-5.271,18.516-9.453,28.508-13.325c0.484,0.131,0.965,0.247,1.462,0.382c8.077,2.154,16.419,5.514,19.709,11.765
		c1.003,1.61,1.963,3.233,2.855,4.898c-6.55,10.282-12.301,12.943-17.313,8.014c-6.743-4.397-8.097-12.146-14.444-16.619
		c-1.146-0.797-3.713,0.029-3.867,1.533c-1.406,11.894,29.934,37.75,41.66,14.414c5.304-10.567-8.583-20.652-16.781-24.771
		c-1.829-0.92-3.872-1.651-5.944-2.357c6.98-2.589,13.997-5.15,20.918-7.834c0.81,4.194,3.429,7.867,5.59,11.494
		c4.663,7.704,15.795,8.418,27.114,3.16c10.845-5.052,21.103-12.72,20.554-21.834c-0.512-7.967-9.094-12-19.477-7.365
		c-0.174-0.414-0.553-0.772-1.408-0.837c-0.184-0.012-0.361-0.023-0.531-0.048c8.232-5.076,15.773-10.588,23.041-16.233
		c6.992,15.431,34.662,23.915,47.574,1.193c7.111-12.508-2.41-21.806-12.607-27.579c3.205-2.13,6.465-4.188,9.918-6.179
		c35.322-20.386,85.865-50.503,102.092-82.789C525.303,242.503,514.454,235.55,501.749,232.157z M290.82,406.367
		c-1.313,0.535-2.603,1.063-3.898,1.618c-5.572-1.377-11.308-2.55-16.511-4.096c-0.853-0.187-1.635-0.412-2.368-0.663
		c-0.119-0.01-0.225-0.046-0.316-0.102c-0.823-0.297-1.568-0.636-2.237-1.016c-0.049-0.019-0.1-0.028-0.148-0.048
		c-0.97-0.382-1.625-0.943-2.042-1.626c-0.385-0.397-0.733-0.814-1.015-1.267c-0.227-0.213-0.428-0.479-0.59-0.815
		c-0.674-1.404-0.726-3.046-0.496-4.605c0.186-1.933,0.834-4.111,1.976-6.554c0.558-0.134,1.114-0.256,1.668-0.37
		c0.264-0.188,0.542-0.358,0.838-0.501c0.942-0.454,2.14-0.937,3.123-0.329c0.546-0.194,1.245-0.342,1.488,0.016
		c2.372-0.229,4.711-0.289,7.01-0.147c0.589,0.014,1.259,0.143,1.983,0.368c3.192,0.062,5.954,2.059,7.736,4.75
		C291.947,395.408,295.494,401.799,290.82,406.367z M348.648,391.022c0.396,0.594,0.936,1.087,1.458,1.6
		c0.412,0.398,1.016,0.311,1.568,0.079c0.707-0.146,1.391-0.558,1.387-1.255c-0.01-0.158-0.007-0.325-0.041-0.468
		c3.112-0.85,5.803-1.289,8.16,0.331c3.148,2.128,3.805,7.48,1.313,11.037c-3.842,5.493-12.332,9.632-19.267,12.33
		c-9.097,3.548-13.477-2.515-15.786-7.103c-0.93-1.87-2.21-3.602-3.213-5.424c-0.409-0.727-0.481-1.469-0.399-2.222
		c5.039-2.104,10.026-4.309,14.775-6.796c0.532-0.28,1.032-0.604,1.559-0.887c2.565-0.157,5.117-0.373,7.677-0.857
		C348.145,391.329,348.362,391.146,348.648,391.022z M356.684,376.104c-3.582,2.44-7.219,4.839-11.01,7.046
		c-2.127,1.228-4.379,2.315-6.612,3.446c-7.756-0.609-15.475-1.212-23.08-2.243c-8.317-1.137-12.212-4.468-12.778-8.644
		c-0.483-1.748-0.218-3.944,0.835-5.784c0.081-0.142,0.266-0.362,0.511-0.609c0.079-0.158,0.163-0.315,0.249-0.473
		c0.002-0.05,0.004-0.099,0.005-0.147c0.01-0.464,0.476-1.085,1.092-1.637c2.64-3.845,7.029-7.684,12.597-10.783
		c0.324-0.18,0.656-0.341,0.983-0.514c1.803-1.406,4.06-2.427,6.148-2.808c0.94-0.367,1.887-0.717,2.841-1.041
		c1.958-0.802,3.993-1.385,5.98-1.758c4.979-1.252,10.021-2.039,14.871-2.53c11.613-1.174,7.4,9.622,9.182,14.785
		C359.708,365.984,360.075,371.823,356.684,376.104z M375.813,355.909c-0.305-0.935-1.73-1.157-2.85-0.656
		c0.16-1.182,0.498-2.416,1.252-3.896c2.588-5.157,6.299-6.699,12.229-7.134c0.123-0.017,0.227-0.078,0.32-0.112
		c2.66,0.73,5.328,1.474,7.887,2.322c-0.283,0.229-0.596,0.427-0.896,0.659c-5.518,4.497-11,9.028-16.549,13.543
		C376.694,358.848,376.221,357.198,375.813,355.909z M408.036,352.353c1.955,2.927,3.902,5.865,5.865,8.784
		c3.447,10.843-5.908,16.337-28.115,16.489c-3.291-1.991-5.459-6.99-7.055-11.979c7.201-5.7,14.4-11.36,22.07-16.806
		C403.274,349.903,405.784,350.916,408.036,352.353z M409.249,336.43c-2.857,1.782-5.652,3.601-8.418,5.506
		c-14.73-5.792-52.719-5.364-35.754-30.094c15.955-23.231,49.555-5.913,49.342,7.472
		C414.391,324.208,411.016,330.954,409.249,336.43z"/>
	<path d="M536.69,317.465c13.814-10.956,25.352-22.279,13.721-32.427c-14.215-12.414-45.93-2.64-64.646,8.438
		c-2.652,1.577-1,4.476,1.73,2.896c11.498-6.677,19.818-10.466,32.975-11.683c13.154-1.172,40.824-0.135,23.318,20.665
		c-6.705,7.981-19.643,15.52-29.859,20.259c-24.961,11.594-47.744,9.455-65.801,0.512c-1.348-0.649-3.242,1.039-2.684,2.037
		C458.311,351.57,512.981,336.254,536.69,317.465z"/>
	<path d="M395.471,405.791c-4.203-7.793-14.625-10.124-25.943-2.677c-1.066,0.695-0.604,2.094,0.689,1.84
		c8.992-1.763,14.381-3.564,19.084,2.249c2.15,2.645,4.883,7.611,3.148,11.269c-1.154,2.427,0.262,3.007-3.295,5.122
		c-1.576,0.939-3.461,1.626-5.156,2.344c-3.646,1.551-1.42,5.119,2.154,3.611C401.116,423.221,400.006,414.259,395.471,405.791z"/>
</g>
</svg>
