<?xml version="1.0" encoding="utf-8"?>
<!-- Generator: Adobe Illustrator 15.0.2, SVG Export Plug-In . SVG Version: 6.00 Build 0)  -->
<!DOCTYPE svg PUBLIC "-//W3C//DTD SVG 1.1//EN" "http://www.w3.org/Graphics/SVG/1.1/DTD/svg11.dtd">
<svg version="1.1" id="Layer_1" xmlns="http://www.w3.org/2000/svg" xmlns:xlink="http://www.w3.org/1999/xlink" x="0px" y="0px"
	 width="585.564px" height="320.378px" viewBox="0 0 585.564 320.378" enable-background="new 0 0 585.564 320.378"
	 xml:space="preserve">
<g>
	<defs>
		<rect id="SVGID_1_" x="-5.138" y="-296.089" width="595.276" height="841.89"/>
	</defs>
	<clipPath id="SVGID_2_">
		<use xlink:href="#SVGID_1_"  overflow="visible"/>
	</clipPath>
	<path clip-path="url(#SVGID_2_)" d="M583.538,28.118c-0.374-0.851-0.828-1.652-1.268-2.426c-0.581-1.023-1.13-1.989-1.455-2.993
		c-1.475-4.552-3.948-7.817-7.783-10.275c-5.023-3.228-9.651-5.969-15.418-6.8c-3.864-0.565-7.035-0.751-9.977-0.584
		c-3.037,0.163-6.078,0.31-9.118,0.457c-2.451,0.12-4.902,0.238-7.353,0.366c-1.889,0.097-3.775,0.21-5.662,0.324
		c-2.756,0.165-5.606,0.337-8.401,0.451c-4.688,0.175-8.268,0.605-11.604,1.393c-1.563,0.368-2.985,0.639-4.354,0.828
		c-1.652,0.239-3.312,0.455-4.971,0.672c-2.252,0.294-4.582,0.598-6.875,0.96c-2.271,0.36-4.557,0.786-6.771,1.199
		c-1.745,0.326-3.492,0.651-5.245,0.949c-1.85,0.316-3.743,0.589-5.575,0.852c-4.155,0.601-8.45,1.22-12.642,2.392
		c-3.14,0.881-6.44,1.481-9.634,2.063c-1.593,0.289-3.186,0.579-4.771,0.903l-3.725,0.759c-4.23,0.859-8.604,1.747-12.89,2.707
		c-2.03,0.452-4.057,0.996-6.019,1.522c-1.603,0.429-3.26,0.874-4.896,1.262c-2.844,0.676-5.696,1.313-8.548,1.952
		c-2.353,0.527-4.704,1.053-7.054,1.601c-3.073,0.72-6.141,1.484-9.259,2.261l-1.253,0.312l-0.797-6.303l-1.076-0.025
		c-0.932-0.021-1.847-0.047-2.751-0.073c-1.987-0.057-3.867-0.109-5.782-0.113c-3.645-0.01-7.289,0.006-10.936,0.022
		c-1.848,0.008-3.696,0.016-5.546,0.02c-0.714,0.002-1.426-0.003-2.137-0.01c-1.213-0.01-2.425-0.02-3.642,0.008
		c-1.232,0.032-2.466,0.088-3.699,0.145c-1.678,0.077-3.413,0.156-5.108,0.164c-4.665,0.033-9.414,0.017-14.006,0l-4.899-0.014
		c-0.962-0.001-1.926-0.011-2.891-0.022c-1.354-0.013-2.709-0.028-4.063-0.018c-1.679,0.015-3.36,0.049-5.043,0.084
		c-2.969,0.06-6.04,0.122-9.044,0.073c-2.217-0.036-4.466-0.159-6.647-0.282c-2.208-0.126-4.489-0.251-6.752-0.286
		c-5.014-0.076-10.106-0.101-15.03-0.126c-4.089-0.02-8.176-0.04-12.268-0.089c-2.19-0.023-4.425-0.097-6.584-0.168
		c-2.461-0.083-5.005-0.166-7.519-0.176c-9.486-0.04-19.12,0.01-28.437,0.059l-0.306,0.001c-1.348,0.008-2.71,0.063-4.027,0.115
		c-1.427,0.057-2.904,0.116-4.344,0.113c-4.163,0.005-8.382-0.222-12.645-0.138c-3.228,0.068-6.486,0.303-9.637,0.531l-2.575,0.182
		c-0.572,0.032-1.055,0.239-1.48,0.423c-0.144,0.062-0.292,0.127-0.448,0.184l-0.888,0.321l0.065,0.941
		c0.197,2.831,0.391,5.564,0.592,8.365c-2.571-0.854-5.028-1.668-7.485-2.482c-0.54-0.18-1.082-0.353-1.624-0.525
		c-1.291-0.411-2.511-0.799-3.705-1.283c-5.543-2.23-11.278-4.155-16.824-6.016l-0.976-0.328c-4.683-1.567-9.356-3.144-14.029-4.731
		c-1.133-0.386-2.263-0.787-3.391-1.187c-1.919-0.681-3.903-1.385-5.885-2.005c-2.968-0.937-5.947-1.843-8.926-2.75
		c-3.509-1.068-7.138-2.172-10.685-3.31c-1.443-0.462-2.894-1.039-4.298-1.595c-1.502-0.597-3.056-1.214-4.642-1.712
		c-3.325-1.053-6.69-1.895-10.431-2.81c-1.51-0.368-3.051-0.65-4.54-0.923c-0.848-0.154-1.694-0.309-2.543-0.481
		c-0.315-0.062-0.626-0.151-0.939-0.239c-0.545-0.154-1.108-0.312-1.728-0.377l-2.37-0.254c-4.065-0.438-8.269-0.891-12.422-1.197
		c-6.06-0.445-12.142-0.718-16.761-0.907c-3.905-0.157-7.685,0.583-11.346,1.307c-0.721,0.142-1.442,0.285-2.162,0.421
		c-3.018,0.568-5.968,1.547-8.821,2.493l-0.283,0.095c-3.288,1.096-6.268,2.801-9.149,4.45c-1.367,0.782-2.78,1.592-4.209,2.322
		c-0.499,0.265-0.881,0.627-1.218,0.945l-2.454,2.291c-2.289,2.132-4.656,4.336-6.936,6.557c-1.25,1.215-2.546,2.534-3.437,4.122
		c-2.921,5.202-4.937,11.067-6.165,17.93c-0.466,2.619-0.359,5.417,0.325,8.555c0.35,1.603,0.808,3.476,1.548,5.219
		c0.454,1.06,1.002,2.068,1.533,3.042c0.541,0.997,1.054,1.939,1.468,2.923c0.922,2.187,2.235,3.963,4.014,5.435
		c3.941,3.245,8.327,6.182,13.035,8.73c0.527,0.286,1.052,0.578,1.577,0.871c1.992,1.108,4.051,2.254,6.246,3.078
		c2.258,0.843,4.616,1.443,6.896,2.024c0.949,0.242,1.898,0.483,2.831,0.739c0.303,0.086,0.608,0.164,0.911,0.243
		c0.541,0.139,1.053,0.271,1.545,0.443c4.691,1.619,10.277,3.377,16.146,4.145c1.304,0.171,2.604,0.367,3.97,0.572
		c0.337,0.051,0.678,0.102,1.023,0.154c-0.124,0.577-0.25,1.121-0.425,1.605c-1.239,3.394-1.417,6.967-0.565,11.243
		c0.475,2.39,1.486,4.469,2.465,6.479c0.242,0.5,0.486,1.001,0.723,1.51c1.156,2.471,2.811,4.632,5.208,6.801
		c1.471,1.334,3.139,2.846,4.965,4.064c1.982,1.325,4.229,2.828,6.681,3.721c3.262,1.207,6.826,2.269,11.555,3.445
		c4.33,1.082,9.49,2.046,14.922,0.993c0.902-0.174,1.811-0.277,2.775-0.386c0.864-0.099,1.757-0.198,2.64-0.355l2.164-0.372
		c3.311-0.565,6.735-1.151,10.077-1.922c3.998-0.918,8.063-2.728,12.793-5.695c1.192-0.745,2.399-1.468,3.605-2.191
		c2.537-1.519,5.158-3.091,7.614-4.85c3.485-2.496,6.896-5.197,10.194-7.809c1.281-1.014,2.563-2.029,3.849-3.033
		c2.193-1.709,4.38-3.426,6.568-5.142c3.146-2.467,6.291-4.935,9.447-7.379c0.761-0.586,1.573-1.104,2.432-1.654
		c0.566-0.361,1.131-0.723,1.682-1.104c1.372-0.949,2.735-1.911,4.099-2.873c0.739-0.52,1.477-1.042,2.213-1.558l0.006,0.346
		c0.1,5.72,0.199,11.398,0.282,17.066c0.018,1.124,0.014,2.248,0.011,3.371c-0.004,1.732-0.009,3.523,0.062,5.294
		c0.083,2.066,0.212,4.161,0.338,6.187c0.118,1.915,0.237,3.83,0.319,5.743c0.088,2.144,0.134,4.291,0.179,6.437
		c0.03,1.437,0.06,2.874,0.103,4.308c0.015,0.504,0.023,1.008,0.03,1.513c0.024,1.59,0.048,3.233,0.315,4.861
		c0.431,2.632,0.027,5.113-1.269,7.803c-2.551,5.262-5.089,10.631-7.544,15.821c-1.051,2.222-2.103,4.446-3.155,6.662
		c-0.282,0.584-0.577,1.163-0.872,1.743c-0.535,1.05-1.088,2.136-1.566,3.258c-0.685,1.613-1.337,3.24-1.987,4.867
		c-0.989,2.471-2.011,5.024-3.133,7.463c-3.074,6.658-6.38,13.377-9.237,19.151c-0.621,1.253-1.24,2.509-1.858,3.765
		c-2.506,5.09-5.097,10.352-7.887,15.373l-0.471,0.845c-2.968,5.329-6.039,10.839-8.21,16.696
		c-3.112,8.389-6.102,16.974-8.994,25.275l-0.317,0.912c-0.725,2.084-1.391,4.216-2.034,6.276
		c-1.287,4.118-2.617,8.376-4.452,12.347c-0.782,1.696-1.479,3.447-2.153,5.141c-0.573,1.439-1.166,2.929-1.802,4.358
		c-0.684,1.547-1.507,3.32-2.604,4.783c-2.985,3.979-5.528,7.243-8.79,10.048c-1.807,1.548-3.425,3.368-4.769,4.943
		c-1.056,1.236-1.055,2.249-0.868,2.881c0.187,0.635,0.742,1.491,2.319,1.959c0.495,0.147,0.983,0.204,1.42,0.214
		c0.364,0.009,0.694-0.016,0.96-0.049l1.043-0.131c2.171-0.272,4.416-0.553,6.607-1.023c1.594-0.337,3.147-0.983,4.383-1.827
		c1.594-1.108,3.011-2.454,4.382-3.756l0.263-0.25c4.287-4.053,7.966-7.292,12.991-9.043c3.916-1.367,6.712-4.138,7.871-7.802
		c1.036-3.272,2.205-7.162,3.009-11.188c0.782-3.933,2.6-7.765,5.557-11.715c1.273-1.701,2.671-3.381,4.022-5.006
		c1.609-1.934,3.273-3.935,4.788-6.036c1.839-2.563,3.761-5.141,5.621-7.632c2.552-3.421,5.19-6.958,7.669-10.535
		c1.77-2.554,3.333-5.28,4.845-7.919c0.774-1.352,1.549-2.704,2.353-4.037c1.216-2.018,2.44-4.03,3.664-6.045
		c2.423-3.984,4.929-8.106,7.328-12.203c0.723-1.243,1.269-2.563,1.796-3.837c0.365-0.882,0.71-1.716,1.108-2.525
		c3.543-7.176,8.328-13.847,14.629-20.393c3.053-3.172,5.965-6.56,8.783-9.836l0.965-1.124c1.391-1.608,2.749-3.245,4.106-4.88
		c1.289-1.555,2.579-3.109,3.9-4.645c0.127-0.147,0.533-0.363,1.121-0.485c0.834-0.171,1.764-0.257,2.843-0.264
		c2.946-0.015,5.891-0.018,8.836-0.021c4.219-0.004,8.437-0.008,12.655-0.047c3.882-0.032,7.816-0.165,11.621-0.293l1.811-0.061
		c2.163-0.07,4.328-0.164,6.493-0.259c2.136-0.093,4.271-0.185,6.403-0.256c2.455-0.081,4.907-0.142,7.359-0.201
		c2.728-0.068,5.455-0.137,8.186-0.231c4.217-0.14,8.43-0.305,12.644-0.47l8.183-0.325c3.036-0.129,6.178-0.261,9.266-0.324
		c1.875-0.045,3.79-0.012,5.641,0.022c0.894,0.015,1.785,0.03,2.68,0.039l0.49,0.004c1.887,0.016,3.779,0.031,5.669,0.057
		c0.432,0.005,0.86,0.015,1.242,0.026c0.122,0.184,0.24,0.365,0.356,0.544c0.499,0.767,0.97,1.49,1.555,2.172
		c1.118,1.293,2.285,2.565,3.414,3.797c0.688,0.749,1.375,1.499,2.052,2.254c0.809,0.906,1.623,1.805,2.438,2.704
		c2.036,2.243,4.141,4.563,6.063,6.948c2.027,2.508,4.301,4.802,6.499,7.02l1.26,1.273c2.56,2.585,5.072,5.425,7.684,8.683
		c2.435,3.034,4.803,6.229,7.094,9.316c0.706,0.953,1.412,1.904,2.122,2.855c0.574,0.766,1.16,1.522,1.747,2.279
		c1.479,1.906,3.007,3.877,4.244,5.928c2.598,4.315,5.423,8.408,8.636,12.517c0.55,0.702,1.105,1.401,1.66,2.102
		c1.831,2.309,3.725,4.697,5.416,7.146c2.89,4.154,5.921,7.739,9.264,10.959c0.878,0.843,1.732,1.708,2.587,2.573
		c0.429,0.435,0.857,0.868,1.287,1.3c1.062,1.062,2.104,2.145,3.146,3.229c2.258,2.347,4.593,4.774,7.099,6.956
		c6.656,5.796,11.671,13.016,15.328,22.07c0.55,1.362,1.064,2.777,1.563,4.146c0.816,2.252,1.662,4.579,2.716,6.825
		c1.482,3.182,3.52,5.289,6.408,6.629l1.119,0.519c3.188,1.474,6.2,2.865,8.822,5.017c1.339,1.108,2.817,2.018,4.246,2.897
		l0.437,0.269c4.089,2.524,8.586,3.459,12.451,4.04c2.145,0.31,4.439-0.167,6.597-0.727c0.589-0.15,2.379-0.607,2.735-2.136
		c0.367-1.571-1.14-2.865-1.637-3.292c-0.972-0.832-2.001-1.589-2.996-2.32c-1.003-0.737-1.95-1.434-2.853-2.208
		c-4.823-4.112-9.227-8.857-13.457-14.502c-1.431-1.916-2.776-3.971-4.078-5.96c-0.503-0.767-1.005-1.534-1.513-2.296
		c-0.397-0.597-0.806-1.188-1.214-1.777c-1.059-1.53-2.059-2.976-2.873-4.533c-1.527-2.945-2.982-6.006-4.39-8.965
		c-0.683-1.438-1.367-2.876-2.059-4.306c-0.319-0.657-0.656-1.311-0.992-1.963c-0.359-0.697-0.719-1.394-1.053-2.097l-0.001-0.002
		c-1.077-2.253-2.137-4.516-3.194-6.778c-2.221-4.744-4.518-9.649-6.949-14.392l-1.143-2.225c-3.129-6.08-6.366-12.367-8.949-18.813
		c-1.099-2.716-2.211-5.096-3.397-7.276c-1.431-2.633-2.938-5.281-4.394-7.842c-1.316-2.313-2.633-4.626-3.913-6.96
		c-2.454-4.451-4.825-8.924-7.047-13.301c-0.687-1.342-1.317-2.759-1.927-4.129c-0.567-1.275-1.154-2.594-1.797-3.88
		c-2.062-4.103-4.028-7.86-6.009-11.487c-2.805-5.146-5.803-10.613-8.895-15.896c-1.121-1.935-2.368-3.812-3.575-5.629
		c-0.764-1.149-1.527-2.3-2.252-3.451c-0.214-0.349-0.713-1.167-0.714-1.73c-0.021-1.325,0.053-2.636,0.131-4.026
		c0.053-0.945,0.105-1.893,0.127-2.844l0.047-2.124c0.073-3.239,0.149-6.588,0.068-9.89c-0.05-2.182-0.179-4.385-0.304-6.517
		c-0.129-2.172-0.261-4.418-0.305-6.622c-0.022-0.944,0.119-1.913,0.27-2.938c0.139-0.955,0.282-1.941,0.297-2.957
		c0.025-2.407,0.001-4.846-0.023-7.204c-0.024-2.564-0.052-5.216-0.013-7.813c0.013-0.718-0.062-1.414-0.133-2.088
		c-0.058-0.538-0.112-1.064-0.119-1.571l2.005,1.386c3.247,2.247,6.444,4.46,9.66,6.653c0.656,0.446,1.307,0.9,1.959,1.356
		c2.033,1.418,4.134,2.885,6.376,4.083c1.153,0.614,2.34,1.176,3.487,1.72c1.854,0.877,3.771,1.785,5.521,2.909
		c2.639,1.688,5.439,3.176,8.146,4.615c1.49,0.792,2.98,1.585,4.448,2.41c0.758,0.427,1.523,0.844,2.288,1.261
		c2.393,1.304,4.866,2.653,6.999,4.282c2.754,2.105,5.213,3.713,7.737,5.062c1.612,0.868,3.2,1.894,4.735,2.886
		c0.555,0.358,1.108,0.716,1.67,1.07c2.32,1.464,4.833,2.471,7.262,3.445c0.674,0.27,1.348,0.541,2.02,0.822l1.153,0.483
		c3.391,1.425,6.896,2.901,10.763,3.282l0.702,0.071c4.647,0.466,9.456,0.95,14.268-0.42c1.023-0.293,2.057-0.56,3.092-0.826
		c1.728-0.445,3.514-0.905,5.247-1.492c2.878-0.969,6.55-2.438,9.42-5.237c2.583-2.522,4.67-4.919,6.381-7.327
		c2.996-4.207,4.505-8.981,4.612-14.595l0.007-0.342c0.083-4.377,0.169-8.888-1.312-13.283c4.774-0.687,9.707-1.402,14.246-3.394
		c3.682-1.618,7.342-3.411,10.885-5.145c1.061-0.52,2.121-1.039,3.192-1.559c1.853-0.899,3.768-1.828,5.577-2.914
		c1.32-0.791,2.61-1.653,3.858-2.486c0.92-0.615,1.84-1.23,2.781-1.823c3.306-2.107,5.698-4.171,7.533-6.495
		c1.227-1.553,2.457-3.101,3.689-4.65c3.183-4.002,6.476-8.14,9.6-12.301c0.996-1.323,1.703-3.081,2.221-5.536
		C586.171,35,584.816,31.067,583.538,28.118 M575.025,48.017c-0.995,1.211-1.99,2.422-2.955,3.652
		c-0.62,0.789-1.171,1.623-1.701,2.431c-0.376,0.57-0.752,1.142-1.151,1.691c-3.646,5.008-8.218,8.876-13.956,11.802
		c-0.002-0.002-0.004-0.004-0.007-0.006c-0.505-0.498-1.029-1.014-1.489-1.551c-6.094-7.097-13.674-12.067-22.235-17.375
		c-7.362-4.556-14.337-7.884-21.302-10.158c0.252-0.047,0.503-0.094,0.755-0.141c1.821-0.342,3.703-0.695,5.552-1.095
		c1.299-0.277,2.542-0.703,3.743-1.115l0.505-0.173c2.439-0.845,4.942-1.661,7.362-2.45c6.1-1.988,12.405-4.043,18.377-6.789
		c3.209-1.474,6.964-3.294,10.49-5.629c2.548-1.69,4.89-3.599,7.37-5.619c0.846-0.689,1.703-1.387,2.584-2.089
		c1.049,0.8,2.166,1.648,3.294,2.477c0.367,0.271,0.75,0.524,1.133,0.778c0.551,0.364,1.072,0.71,1.521,1.097
		c0.682,0.587,1.376,1.214,1.709,1.873c0.962,1.906,1.883,3.883,2.773,5.794c0.571,1.227,1.143,2.452,1.728,3.668
		c1.316,2.752,1.985,5.751,1.991,8.912c0.001,2-1.245,3.881-2.184,5.123C577.685,44.783,576.334,46.427,575.025,48.017
		 M497.339,123.552c-1.103,0.282-2.241,0.573-3.357,0.951c-2.919,0.99-6.218,1.289-10.082,0.918
		c-3.803-0.374-8.186-0.927-12.065-2.765c-0.042-0.021-0.084-0.042-0.126-0.063c5.773-7.944,7.872-15.659,6.526-24.038
		c0.751,0.162,1.492,0.322,2.226,0.482c3.121,0.678,6.068,1.318,9.075,1.838c6.797,1.18,12.472,2.06,18.557,1.787
		c2.615-0.123,5.218-0.018,7.973,0.093c0.787,0.032,1.578,0.063,2.375,0.089c-0.512,2.985-1.433,5.431-2.854,7.616
		c-2.388,3.654-5.027,6.507-8.069,8.722c-2.016,1.464-4.408,2.483-6.265,3.206C500.009,122.87,498.712,123.202,497.339,123.552
		 M465.92,120.155l-0.322-0.143c-1.148-0.511-2.239-1.158-3.393-1.844c-0.567-0.337-1.137-0.674-1.71-0.995l-9.792-5.473
		l-0.291-0.152c-0.169-0.086-0.381-0.192-0.446-0.255c-2.813-2.763-6.19-4.629-9.456-6.431c-0.576-0.318-1.152-0.635-1.725-0.959
		c-2.705-1.521-5.43-3.126-8.063-4.677c-2.558-1.506-5.201-3.063-7.84-4.551c-1.163-0.653-2.385-1.173-3.567-1.675
		c-0.964-0.41-1.875-0.797-2.761-1.252c-1.438-0.736-2.87-1.598-4.255-2.431c-0.554-0.333-1.107-0.666-1.665-0.994
		c-0.573-0.335-1.148-0.663-1.724-0.991c-1.389-0.791-2.825-1.611-4.159-2.5c-1.166-0.769-2.301-1.693-3.398-2.586
		c-0.347-0.283-0.693-0.565-1.042-0.843c-0.826-0.661-1.648-1.328-2.472-1.995c-1.281-1.04-2.563-2.08-3.878-3.11
		c-0.334-0.254-0.698-0.38-1.046-0.468l-0.024-0.782c-0.004-0.122-0.008-0.247-0.011-0.373c0.345,0.133,0.689,0.264,1.033,0.394
		c2.486,0.944,4.836,1.836,6.985,3.197c1.848,1.153,3.961,1.77,6.051,2.381l2.387,0.701c5.021,1.477,10.216,3.004,15.388,4.271
		c4.718,1.157,9.534,2.196,14.192,3.203c2.652,0.572,5.305,1.145,7.955,1.741c2.608,0.584,5.209,1.203,7.805,1.821
		c1.271,0.303,2.542,0.606,3.816,0.904c0.159,0.037,0.328,0.054,0.494,0.065l0.027,0.002c2.535,1.34,5.273,1.878,7.923,2.399
		c2.249,0.443,4.568,0.898,6.723,1.852c0.042,0.282,0.084,0.566,0.126,0.85c0.496,3.317,1.008,6.747-0.107,10.088
		c-1.357,4.061-2.639,7.896-5.441,10.939c-0.465,0.506-0.99,1.08-1.099,1.15C466.974,120.625,466.438,120.386,465.92,120.155
		 M405.351,167.562l0.386,0.722c1.758,3.281,3.573,6.675,5.25,10.046c0.754,1.519,1.473,3.098,2.17,4.626
		c0.966,2.12,1.965,4.314,3.086,6.42c1.965,3.688,4.032,7.396,6.031,10.982c1.745,3.13,3.55,6.365,5.273,9.566
		c1.695,3.144,3.283,6.419,4.82,9.587l0.924,1.905c3.22,6.582,6.405,13.16,9.47,19.553c1,2.086,1.979,4.187,2.958,6.286
		c0.767,1.646,1.535,3.292,2.315,4.937c0.241,0.508,0.515,1.003,0.789,1.498c0.265,0.479,0.529,0.959,0.761,1.453
		c1.607,3.415,3.208,6.833,4.808,10.249c1.775,3.796,3.552,7.59,5.339,11.379l0.001,0.005c0.91,1.909,2.134,4.418,3.538,6.892
		c0.403,0.707,0.921,1.288,1.422,1.849c0.318,0.355,0.619,0.691,0.867,1.035c1.054,1.467,2.09,2.946,3.125,4.427
		c2.048,2.928,4.167,5.956,6.414,8.825c3.612,4.621,8.608,10.463,15.227,14.649c0.089,0.056,0.179,0.117,0.268,0.18
		c-1.262,0.31-2.55,0.154-4.002-0.082c-5.055-0.816-9.738-2.921-14.321-6.433c-3.108-2.371-6.578-3.984-9.866-5.433
		c-2.406-1.06-3.944-2.445-4.702-4.24c-1.347-3.155-2.673-6.385-3.955-9.509l-0.524-1.274c-2.867-6.938-6.18-14.202-12.329-20.042
		c-2.955-2.796-5.836-5.79-8.622-8.685c-2.481-2.579-5.049-5.247-7.676-7.784c-2.934-2.83-6.26-6.037-9.027-9.617
		c-2.15-2.784-4.061-5.333-5.84-7.797c-1.875-2.578-3.729-5.172-5.586-7.768c-1.388-1.94-2.775-3.882-4.174-5.816l-1.459-2.021
		c-3.609-4.999-7.342-10.167-11.055-15.222c-2.773-3.766-5.292-7.154-8.023-10.488c-1.413-1.721-3.041-3.259-4.615-4.746
		l-0.863-0.817c-2.472-2.364-5.651-5.552-8.328-9.258c-1.034-1.425-2.267-2.688-3.457-3.911l-0.48-0.493
		c-4.692-4.837-8.828-10.322-12.825-15.626l-0.843-1.118c-2.191-2.899-4.59-5.695-6.909-8.4c-1.363-1.59-2.774-3.234-4.123-4.879
		c-1.105-1.337-2.183-2.753-3.224-4.123c-0.724-0.951-1.449-1.902-2.19-2.842c-1.472-1.864-3.097-3.868-4.971-6.129
		c-1.187-1.426-2.382-2.842-3.578-4.259c-1.531-1.814-3.064-3.629-4.578-5.466c-2.479-3.009-4.938-6.034-7.474-9.156l-2.067-2.541
		c7.959-4.868,15.122-9.436,21.704-15.053c4.888-4.173,9.721-8.589,14.394-12.859c1.668-1.524,3.338-3.05,5.021-4.575l1.044,1.75
		c1.469,2.462,2.911,4.882,4.375,7.294c0.76,1.245,1.535,2.479,2.312,3.714c0.88,1.4,1.76,2.8,2.618,4.223
		c1.104,1.81,2.192,3.63,3.281,5.451c1.463,2.447,2.976,4.977,4.511,7.447c0.988,1.597,2.048,3.173,3.073,4.697
		c0.871,1.295,1.742,2.59,2.576,3.903c1.319,2.095,2.621,4.259,3.88,6.35c0.604,1.004,1.208,2.006,1.814,3.005
		c0.613,1.011,1.221,2.026,1.831,3.042c1.243,2.072,2.487,4.145,3.756,6.19c1.5,2.416,3.017,4.822,4.534,7.229
		c2.69,4.27,5.474,8.683,8.101,13.075c2.036,3.423,3.934,7.028,5.769,10.515C404.111,165.225,404.728,166.395,405.351,167.562
		 M312.226,160.229c-1.848,0.033-3.695,0.066-5.542,0.136c-3.26,0.118-6.521,0.26-9.781,0.403c-2.796,0.122-5.59,0.243-8.383,0.35
		c-1.352,0.051-2.706,0.068-4.06,0.084c-1.281,0.016-2.562,0.031-3.841,0.075c-1.928,0.065-3.855,0.147-5.782,0.229
		c-2.72,0.115-5.533,0.234-8.294,0.308c-4.558,0.119-9.202,0.171-13.694,0.22l-2.788,0.032c-2.741,0.032-5.477,0.048-8.276,0.065
		l-2.46,0.017c0.103-0.104,0.209-0.209,0.317-0.317c0.274-0.271,0.543-0.541,0.793-0.826l1.077-1.229
		c2.48-2.834,5.045-5.766,7.645-8.564c4.715-5.073,9.431-9.991,13.014-13.71c6.668-6.938,12.881-14.454,18.906-21.746
		c1.077-1.309,2.089-2.685,3.067-4.017c0.518-0.705,1.036-1.411,1.565-2.107c0.208-0.273,0.44-0.53,0.671-0.781
		c5.503,2.693,11.597,3.236,18.129,1.614c0.258-0.065,0.295-0.075,0.821,0.575l0.07,0.088c0.86,1.044,1.712,2.095,2.563,3.146
		c1.382,1.704,2.811,3.467,4.259,5.176c2.014,2.376,4.045,4.738,6.077,7.102c2.601,3.024,5.29,6.152,7.898,9.26
		c0.856,1.021,1.663,2.144,2.443,3.229c0.679,0.944,1.379,1.92,2.129,2.854c1.361,1.698,2.777,3.393,4.146,5.031
		c1.317,1.578,2.637,3.156,3.926,4.76c1.756,2.172,3.447,4.351,5.236,6.657c0.3,0.388,0.602,0.776,0.904,1.166
		c-1.61,0.162-3.2,0.148-4.955-0.038c-2.224-0.232-4.47-0.14-6.64-0.05l-1.386,0.054c-2.394,0.086-4.785,0.198-7.176,0.313
		c-2.38,0.112-4.761,0.224-7.145,0.309C315.865,160.163,314.045,160.196,312.226,160.229 M128.319,299.777
		c0.523-0.9,1.063-1.832,1.466-2.861l1.49-3.813c1.939-4.964,3.946-10.097,5.77-15.207c0.897-2.519,1.67-5.107,2.417-7.611
		c0.6-2.009,1.22-4.085,1.895-6.093c1.452-4.295,3.201-9.354,5.167-14.302c2.842-7.101,5.324-12.953,7.812-18.419
		c0.845-1.849,1.91-3.674,2.939-5.438c0.744-1.277,1.514-2.597,2.211-3.941c2.579-4.97,5.027-9.908,7.515-14.95
		c2.338-4.723,4.694-9.578,7.001-14.433c1.557-3.271,3.165-6.655,4.594-10.06c4.538-10.778,8.514-19.465,12.513-27.336
		c4.544-8.913,8.66-16.947,13.033-25c1.359-2.507,2.973-4.96,4.535-7.333c0.82-1.248,1.64-2.496,2.432-3.759l2.628-4.182
		c4.065-6.464,8.267-13.149,12.34-19.76c1.854-2.996,3.683-6.07,5.453-9.043c1.464-2.459,2.928-4.918,4.419-7.359
		c0.839-1.372,1.764-2.678,2.743-4.061c0.22-0.309,0.441-0.62,0.661-0.933l4.253,3.543c2.391,1.994,4.758,3.966,7.132,5.936
		c0.685,0.563,1.383,1.113,2.083,1.663c0.743,0.584,1.487,1.17,2.217,1.775c1.268,1.048,2.529,2.104,3.789,3.161
		c2.428,2.035,4.938,4.139,7.471,6.145c2.08,1.648,4.462,3.336,7.496,5.31c2.285,1.486,4.557,2.869,6.964,4.333
		c0.705,0.429,1.414,0.861,2.126,1.296c-0.24,0.307-0.478,0.613-0.717,0.92c-1.114,1.428-2.265,2.904-3.426,4.312l-1.391,1.689
		c-3.37,4.093-6.856,8.326-10.378,12.403c-1.991,2.313-4.124,4.595-6.187,6.8c-0.73,0.782-1.46,1.563-2.185,2.346
		c-1.936,2.085-3.876,4.168-5.816,6.25c-4.087,4.388-8.313,8.925-12.435,13.423c-4.445,4.852-8.838,9.825-12.923,14.478
		c-1.85,2.106-3.671,4.241-5.492,6.377c-3.194,3.744-6.498,7.616-9.9,11.253c-6.046,6.453-10.863,13.87-14.729,22.68
		c-1.015,2.327-2.37,4.592-3.68,6.782c-0.328,0.549-0.656,1.098-0.979,1.646l-1.797,3.045c-3.386,5.738-6.886,11.671-10.469,17.412
		c-3.598,5.766-6.869,10.355-10.297,14.446c-1.578,1.888-3.026,3.909-4.427,5.863c-0.93,1.297-1.89,2.637-2.869,3.91
		c-0.982,1.276-2.04,2.543-3.065,3.771c-0.98,1.173-1.994,2.386-2.952,3.619c-3.53,4.53-5.798,9.222-6.933,14.337
		c-0.802,3.604-1.89,7.065-2.85,9.977c-0.872,2.653-2.718,4.47-5.644,5.554c-3.924,1.456-7.46,3.735-10.809,6.966
		c-1.753,1.692-3.749,3.388-6.283,5.336c-1.566,1.212-3.323,2.349-5.558,2.469c-1.184,0.065-2.357,0.231-3.502,0.415
		c1.336-1.363,2.718-2.773,4.037-4.213l0.672-0.732c2.908-3.161,5.915-6.429,8.141-10.317L128.319,299.777z M328.791,29.274
		c2.626,0.115,5.27-0.075,7.825-0.265c1.249-0.093,2.496-0.186,3.754-0.243c0.562-0.027,1.142,0.009,1.756,0.052l0.501,0.032
		c0.767,0.046,1.534,0.102,2.301,0.158c1.681,0.124,3.425,0.254,5.152,0.264c1.863,0.007,3.751-0.062,5.573-0.126
		c1.336-0.048,2.671-0.095,4.006-0.116c5.862-0.077,13.604-0.169,21.511-0.186c0.655,0.001,1.314,0.065,2.05,0.161
		c-1.217,1.4-2.354,2.705-3.513,4.008c-0.104,0.118-0.229,0.217-0.352,0.321c-0.229,0.192-0.488,0.411-0.718,0.696l-1.866,2.283
		c-2.168,2.65-4.407,5.388-6.566,8.123c-2.831,3.584-5.848,7.489-9.223,11.941c-0.946,1.251-1.866,2.525-2.784,3.798
		c-1.295,1.793-2.633,3.648-4.027,5.392c-1.574,1.964-3.398,3.798-5.283,5.656c-2.757,2.703-5.8,5.608-9.304,8.877l-0.375,0.35
		c-4.902,4.57-9.973,9.298-15.459,13.313l-1.162,0.85c-5.09,3.723-10.354,7.574-16.063,10.379c-1.895,0.92-4.117,1.552-6.429,1.827
		c-5.598,0.669-10.958-0.699-15.911-4.075c-1.337-0.916-2.777-1.659-4.171-2.377c-0.918-0.473-1.868-0.963-2.753-1.487
		c-3.698-2.184-7.022-4.939-10.113-7.575c-1.881-1.595-3.821-3.161-5.698-4.678c-1.192-0.962-2.383-1.924-3.566-2.898
		c-1.892-1.559-3.774-3.133-5.654-4.704l-2.981-2.492c-5.546-4.642-11.279-9.441-17.45-13.551c-1.751-1.163-3.408-2.629-5.01-4.047
		l-2.677-2.342c-2.969-2.585-6.042-5.259-8.924-8.004c-1.155-1.1-2.324-2.185-3.495-3.27c-3.932-3.645-7.998-7.414-11.329-11.72
		c-1.157-1.484-2.419-2.857-3.755-4.311c-0.15-0.163-0.303-0.329-0.455-0.495c4.432-0.119,8.52-0.196,12.491-0.236
		c2.282-0.021,4.566-0.011,6.849-0.001c4.678,0.022,9.515,0.044,14.282-0.227c8.968-0.519,18.092-0.323,26.931-0.121
		c0.185,0.005,0.371,0.009,0.555,0.013c3.437,0.083,6.849,0.157,10.274,0.198c2.403,0.028,4.806,0.03,7.209,0.032
		c2.898,0.002,5.896,0.006,8.841,0.056c1.711,0.025,3.423,0.038,5.135,0.052c5.294,0.04,10.765,0.083,16.091,0.483
		c4.472,0.338,8.981,0.264,13.34,0.192C321.646,29.176,325.255,29.117,328.791,29.274 M484.499,15.541
		c1.029-0.218,2.096-0.445,3.129-0.608c2.562-0.392,5.127-0.757,7.692-1.122c2.553-0.363,5.104-0.726,7.655-1.116
		c1.225-0.19,2.442-0.424,3.658-0.657c1.49-0.285,3.03-0.58,4.541-0.781c1.581-0.211,3.227-0.311,4.817-0.408
		c0.827-0.05,1.654-0.102,2.486-0.167c0.569-0.047,1.136-0.105,1.7-0.163c1.035-0.105,2.014-0.205,3.01-0.245
		c2.502-0.108,5.01-0.193,7.517-0.278c2.501-0.084,5.001-0.17,7.5-0.278c2.4-0.101,4.956-0.225,7.477-0.527
		c4.463-0.524,8.875,0.025,12.979,0.697c1.098,0.181,2.221,0.66,3.409,1.167c0.111,0.048,0.223,0.095,0.336,0.143
		c-0.891,1.005-1.907,1.795-2.97,2.619c-0.266,0.208-0.533,0.414-0.795,0.623c-5.467,4.344-11.634,7.834-18.333,10.375
		c-4.022,1.524-8.222,2.84-12.283,4.112c-1.248,0.391-2.494,0.781-3.741,1.179c-4.232,1.358-8.736,2.791-13.194,4.077
		c-1.407,0.408-2.879,0.745-4.302,1.071c-1.317,0.302-2.68,0.613-4.018,0.986c-0.92,0.259-1.802,0.6-2.655,0.93
		c-1.065,0.411-2.07,0.8-3.091,1.018c-4.251,0.899-8.933,1.77-14.73,2.741c-3.671,0.598-7.441,1.074-11.087,1.533l-0.698,0.089
		c-0.993,0.125-1.986,0.255-2.979,0.386c-3.43,0.449-6.976,0.914-10.459,1.157c-2.037,0.14-4.149,0.087-6.2,0.041
		c-1.402-0.04-2.847-0.069-4.279-0.045c-3.646,0.065-7.35,0.19-10.931,0.312c-1.536,0.052-3.073,0.105-4.612,0.152l-4.003,0.133
		c-2.81,0.094-5.618,0.188-8.419,0.272c-0.735,0.019-1.472,0.046-2.208,0.075c-1.92,0.073-3.902,0.149-5.822,0.04
		c-2.055-0.105-4.152-0.315-6.18-0.518c-1.767-0.177-3.592-0.361-5.4-0.476c-1.17-0.079-2.334-0.121-3.517-0.149
		c-0.883-0.02-1.776-0.032-2.691-0.044c-0.559-0.008-1.124-0.015-1.699-0.024l-0.169-8.098c0.331-0.097,0.658-0.193,0.984-0.289
		c0.988-0.293,1.951-0.577,2.918-0.835c2.611-0.688,5.229-1.357,7.845-2.005l5.904-1.447c6.048-1.486,12.3-3.023,18.471-4.441
		c4.743-1.09,9.604-2.078,14.304-3.033l3.673-0.749c6.078-1.26,12.154-2.491,18.241-3.711h0.002c1.096-0.22,2.189-0.448,3.284-0.676
		c4.242-0.882,8.628-1.796,13.011-2.198C481.253,16.232,482.902,15.881,484.499,15.541 M513.948,98.055
		c-3.162-0.048-6.432-0.097-9.652,0.2c-2.125,0.207-4.141-0.129-6.272-0.485c-0.782-0.13-1.566-0.26-2.353-0.363
		c-4.318-0.582-8.063-1.213-11.445-1.93c-3.58-0.761-7.209-1.65-10.719-2.509c-1.454-0.356-2.908-0.713-4.359-1.06
		c-0.068-0.017-0.132-0.049-0.197-0.075c-0.231-0.097-0.547-0.227-0.916-0.248c-2.652-0.203-5.126-1.061-7.747-1.97
		c-1.748-0.607-3.556-1.234-5.426-1.65l-6.475-1.449c-5.149-1.154-10.3-2.307-15.454-3.427l-0.562-0.123
		c-7.971-1.744-16.212-3.548-23.98-6.33c-3.906-1.402-7.784-3.17-11.534-4.881c-1.307-0.595-2.612-1.191-3.908-1.767
		c-0.112-0.058-0.314-0.288-0.341-0.311c-0.112-2.707-0.154-5.369-0.198-8.187l-0.017-0.984c2.283,0.55,4.178,1.126,5.995,1.82
		c3.013,1.16,6.162,2.014,9.207,2.841c1.312,0.356,2.624,0.711,3.926,1.092c0.448,0.13,0.893,0.275,1.335,0.42
		c0.691,0.225,1.405,0.458,2.145,0.642c2.855,0.701,5.721,1.386,8.583,2.069l7.429,1.778c2.402,0.574,4.804,1.148,7.196,1.737
		c1.298,0.318,2.593,0.647,3.888,0.977c2.214,0.563,4.503,1.145,6.773,1.663c1.313,0.301,2.647,0.539,3.939,0.769
		c1.037,0.184,2.073,0.368,3.105,0.587c1.985,0.415,4.332,0.925,6.669,1.566c0.737,0.205,1.466,0.469,2.234,0.748
		c1.034,0.375,2.104,0.763,3.226,1.003l1.469,0.317c6.87,1.485,13.973,3.02,21.011,4.296c7.165,1.3,14.726,1.746,22.465,1.318
		c1.025-0.053,2.066-0.01,3.165,0.037c0.284,0.011,0.57,0.024,0.857,0.034c1.612,3.026,2.22,6.822,1.897,11.819
		c-0.217,0.028-0.426,0.047-0.623,0.05C516.842,98.099,515.395,98.077,513.948,98.055 M400.387,48.726
		c2.427-0.166,4.813,0.044,7.34,0.267c2.703,0.239,5.497,0.487,8.341,0.23c4.173-0.384,8.466-0.464,12.618-0.542
		c2.069-0.038,4.139-0.077,6.204-0.151c1.428-0.051,2.856-0.128,4.285-0.205c1.952-0.105,3.97-0.214,5.95-0.25
		c1.16-0.023,2.366,0.035,3.528,0.09c1.088,0.053,2.214,0.11,3.332,0.098c1.966-0.016,3.9-0.098,5.949-0.184
		c0.267-0.011,0.532-0.023,0.801-0.034c-0.014,0.032-0.028,0.064-0.045,0.096c-0.699,1.466-1.424,2.982-2.201,4.416
		c-1.413,2.598-2.982,5.659-3.736,9.1c-0.545,2.503-1.249,5.028-1.928,7.469c-0.196,0.701-0.392,1.401-0.583,2.101l-6.507-1.474
		c-3.64-0.823-7.212-1.63-10.777-2.445c-1.504-0.346-3.012-0.684-4.518-1.023c-4.079-0.917-8.296-1.867-12.398-2.947
		c-5.91-1.556-11.031-3.088-15.656-4.685l-1.158-0.404c-1.772-0.621-3.607-1.263-5.506-1.738c-1.716-0.434-1.716-0.434-1.888-2.529
		c-0.14-1.637-0.29-3.28-0.443-4.958l-0.118-1.279c2.804,0.281,5.598,0.592,8.483,0.918
		C399.893,48.694,400.098,48.736,400.387,48.726 M389.042,98.783c-0.009,1.18-0.124,2.352-0.245,3.594
		c-0.136,1.394-0.277,2.835-0.254,4.288c0.038,2.119,0.172,4.253,0.302,6.317c0.14,2.232,0.286,4.541,0.306,6.799
		c0.029,3.55-0.076,7.102-0.188,10.862c-0.009,0.311-0.019,0.622-0.027,0.935c-0.817-1.32-1.593-2.576-2.349-3.837
		c-0.929-1.559-1.847-3.126-2.764-4.691c-1.6-2.729-3.254-5.55-4.943-8.297c-0.853-1.375-1.788-2.707-2.693-3.996
		c-0.809-1.15-1.645-2.339-2.4-3.533c-1.616-2.554-3.204-5.189-4.739-7.739c-0.822-1.362-1.642-2.725-2.473-4.085
		c-1.218-1.987-2.439-3.97-3.662-5.955c-2.205-3.577-4.409-7.155-6.583-10.748c-0.789-1.303-1.515-2.647-2.282-4.07
		c-0.286-0.53-0.577-1.068-0.876-1.613c0.009-0.011,0.017-0.022,0.024-0.032c0.309-0.397,0.574-0.739,0.858-1.016
		c2.689-2.644,4.903-5.686,7.043-8.629c0.973-1.335,1.978-2.716,3.007-4.03c1.818-2.329,3.608-4.679,5.397-7.029
		c2.564-3.368,5.218-6.852,7.911-10.206c1.938-2.417,4.078-4.768,6.146-7.043c0.886-0.974,1.772-1.947,2.646-2.929
		c0.164-0.186,0.332-0.369,0.505-0.555c0.065,0.819,0.115,1.567,0.11,2.298c-0.055,6.409-0.037,13.855,0.859,21.129
		c0.318,2.584,0.377,5.274,0.436,7.873c0.023,1.083,0.049,2.167,0.089,3.246l0.132,3.49c0.18,4.731,0.367,9.623,0.497,14.438
		C388.961,88.673,389.076,93.684,389.042,98.783 M213.252,52.695l0.307,0.29c6.821,6.456,14.355,12.593,22.407,18.257l-2.115,3.412
		c-1.352,2.179-2.666,4.299-3.977,6.428c-1.515,2.482-3.015,4.969-4.514,7.454l-1.924,3.187c-1.008,1.67-2.006,3.344-3.005,5.018
		c-2.026,3.398-4.121,6.91-6.25,10.319c-1.63,2.612-3.336,5.247-4.986,7.794c-1.933,2.984-3.931,6.07-5.828,9.156
		c-1.721,2.787-3.35,5.68-4.926,8.478c-0.636,1.131-1.273,2.262-1.917,3.388c-1.187-29.888-1.728-61.594-1.74-101.852
		C200.618,40.762,207.028,46.817,213.252,52.695 M518.392,81.622c-2.322,0.165-4.714,0.164-7.027,0.165
		c-1.98-0.001-4.028,0-6.057,0.101c-5.604,0.286-11.215-0.735-16.642-1.723l-1.052-0.19c-3.605-0.655-7.133-1.313-10.66-2.172
		c-5.256-1.279-10.389-2.595-15.823-3.988c-2.122-0.545-4.258-1.093-6.416-1.642c0.758-4.365,1.614-8.612,3.16-12.625
		c1.162-2.992,2.693-5.929,4.175-8.769c0.583-1.121,1.167-2.241,1.732-3.368c0.979-0.109,1.942-0.212,2.894-0.314
		c2.539-0.271,4.938-0.529,7.366-0.865c5.021-0.705,10.125-1.496,15.603-2.418c2.302-0.389,4.623-0.861,6.867-1.318
		c0.997-0.203,1.995-0.407,2.982-0.601c0.082-0.015,0.168-0.025,0.255-0.035c0.365-0.044,0.863-0.104,1.333-0.398
		c1.673-1.045,3.358-0.74,5.534,0.091c1.291,0.495,2.593,0.969,3.895,1.444c3.264,1.19,6.638,2.42,9.755,3.955
		c4.912,2.437,9.631,5.447,13.671,8.078c2.214,1.436,4.365,3.086,6.445,4.683c1.157,0.887,2.313,1.775,3.493,2.639
		c1.991,1.452,4.249,3.254,5.897,5.609c0.489,0.7,0.953,1.425,1.452,2.202l0.052,0.08c-1.972,0.908-3.949,1.811-5.928,2.715
		c-3.755,1.714-7.638,3.486-11.437,5.275C528.915,80.586,523.499,81.252,518.392,81.622 M157.805,102.022
		c-1.416,1.062-2.832,2.123-4.254,3.18c-1.149,0.859-2.283,1.741-3.419,2.623c-2.522,1.962-5.131,3.99-7.841,5.69
		c-5.922,3.705-12.048,7.537-19.212,8.893c-0.024,0.004-0.048,0.009-0.072,0.013c0.005-0.009,0.01-0.016,0.015-0.025
		c0.763-1.289,1.485-2.506,2.153-3.768l0.002-0.004c0.371-0.706,0.759-1.41,1.145-2.114c1.197-2.175,2.434-4.426,3.245-6.831
		c0.296-0.876,0.616-1.749,0.936-2.622c1.115-3.051,2.269-6.204,2.501-9.607c0.081-1.166,0.568-1.766,2.006-2.473
		c0.94-0.463,1.875-0.935,2.809-1.407c1.792-0.905,3.644-1.841,5.487-2.675c2.795-1.255,5.678-2.465,8.466-3.635
		c1.127-0.473,2.255-0.947,3.376-1.423c0.709-0.298,1.42-0.592,2.131-0.885c0.759-0.313,1.517-0.626,2.272-0.944
		c0.244-0.103,0.441-0.24,0.584-0.341c0.026-0.017,0.051-0.036,0.076-0.053c3.253-0.508,5.988-2.056,8.634-3.554
		c0.82-0.464,1.639-0.928,2.471-1.358c2.098-1.087,4.089-2.406,6.014-3.682c0.794-0.526,1.59-1.053,2.389-1.562
		c0.89-0.562,1.769-1.136,2.644-1.708l2.48-1.611c1.368-0.889,2.736-1.777,4.102-2.655c0.549-0.352,1.101-0.696,1.707-1.071
		c0.138,3.795,0.265,7.345,0.386,10.814c-0.492,0.372-0.974,0.741-1.448,1.105c-1.311,1.007-2.549,1.958-3.842,2.803
		c-5.731,3.725-10.78,7.495-15.434,11.526c-2.065,1.791-4.361,3.426-6.582,5.007c-1.104,0.785-2.206,1.571-3.29,2.379
		L157.805,102.022z M69.989,108.311c-0.196-0.081-0.659-0.847-1.106-1.587l-0.118-0.193c-0.934-1.55-1.647-3.184-2.241-5.146
		c-1.214-3.96-0.819-7.643,1.248-11.535l0.621,0.012c0.987,0.015,2.032,0.032,3.079,0.077c2.072,0.095,4.154,0.231,6.235,0.366
		l0.143,0.009c1.321,0.087,2.64,0.184,3.96,0.28c2.618,0.192,5.325,0.391,8.001,0.506c4.584,0.193,9.138-0.447,13.529-1.079
		c1.269-0.183,2.537-0.366,3.807-0.528c5.095-0.645,9.952-2.236,14.649-3.774l1.248-0.408c7.165-2.326,13.571-4.698,19.584-7.254
		c4.76-2.027,8.658-4.226,11.92-6.727c1.645-1.273,3.62-2.177,5.162-2.824c4.516-1.91,8.801-4.341,12.946-6.693
		c1.359-0.771,2.72-1.542,4.09-2.298c2.968-1.638,6.087-3.158,9.102-4.63c1.361-0.663,2.723-1.327,4.076-2.003
		c0.268-0.134,0.534-0.269,0.817-0.412l0.1,9.039c-1.292,0.784-2.582,1.563-3.868,2.338c-3.184,1.921-6.478,3.906-9.68,5.911
		c-1.254,0.786-2.476,1.65-3.656,2.485c-1.176,0.831-2.392,1.691-3.616,2.456c-2.244,1.4-4.601,2.595-6.401,3.48
		c-0.527,0.257-1.134,0.43-1.779,0.611c-0.573,0.163-1.167,0.33-1.755,0.573l-0.789,0.323c-4.533,1.863-9.221,3.787-13.776,5.819
		c-4.267,1.89-8.543,4.005-12.313,5.87c-7.051,3.466-14.643,5.991-23.211,7.72c-3.791,0.763-7.562,1.831-11.209,2.864
		c-2.244,0.636-4.565,1.293-6.854,1.869c-2.674,0.675-5.434,1.245-8.104,1.798c-1.014,0.21-2.028,0.419-3.035,0.634
		c-2.881,0.603-5.761,1.187-8.643,1.76C71.248,108.203,70.22,108.409,69.989,108.311 M50.137,82.227
		c-1.097-0.343-2.188-0.705-3.277-1.067c-1.6-0.531-3.253-1.081-4.914-1.561c-1.164-0.333-2.339-0.532-3.475-0.724
		c-0.253-0.043-0.506-0.086-0.757-0.13c-0.212-0.912-0.102-1.875,0.334-2.975c0.793-1.967,1.692-3.95,2.561-5.867
		c0.427-0.942,0.855-1.885,1.275-2.834c1.021-2.335,2.445-4.542,3.823-6.677c0.808-1.253,1.645-2.547,2.404-3.873
		c1.699-2.974,3.922-5.413,6.276-7.995c1.455-1.595,2.959-3.244,4.31-5.02c0.3-0.398,0.755-0.759,1.237-1.141
		c0.376-0.298,0.764-0.607,1.126-0.966c1.044-1.028,1.941-1.29,3.553-1.039c3.527,0.551,7.136,0.844,10.625,1.126
		c1.784,0.144,3.569,0.289,5.349,0.467c2.784,0.282,5.564,0.595,8.343,0.907c2.2,0.248,4.399,0.494,6.597,0.727
		c2.501,0.264,5.009,0.495,7.513,0.726l1.558,0.143c0.533,0.048,1.066,0.105,1.598,0.164c1.375,0.147,2.785,0.297,4.231,0.303
		c1.668-0.006,3.338-0.135,4.954-0.259c0.674-0.052,1.347-0.104,2.019-0.147l1.292-0.076c0.374-0.022,0.751-0.044,1.131-0.068
		c0.396,3.478,0.205,6.895-0.578,10.41c-0.208,0.93-0.405,1.863-0.602,2.797c-0.479,2.278-0.976,4.633-1.625,6.881
		c-1.208,4.2-2.438,7.864-3.761,11.204c-0.834,2.115-1.939,4.196-3.008,6.209c-0.318,0.596-0.635,1.193-0.944,1.788
		c-0.405,0.773-0.902,1.1-1.836,1.204c-1.979,0.224-3.97,0.531-5.895,0.828c-2.396,0.37-4.873,0.753-7.303,0.967
		c-3.03,0.275-6.189,0.102-9.244-0.066l-0.149-0.007c-1.523-0.08-3.085-0.273-4.597-0.46c-1.149-0.142-2.3-0.283-3.449-0.382
		c-1.046-0.093-2.095-0.13-3.11-0.164c-0.929-0.032-1.887-0.065-2.813-0.143c-2.733-0.225-5.46-0.534-7.535-0.78l-1.591-0.177
		c-2.162-0.239-4.397-0.487-6.554-0.862c-1.413-0.245-2.853-0.695-4.246-1.13L50.137,82.227z M12.172,65.22
		c-0.455-0.316-0.82-0.664-1.053-1.002c-2.487-3.624-5.006-7.523-6.098-11.866L5.02,52.35c-1.128-4.457-1.077-8.553,0.157-12.524
		l0.355-1.162c0.696-2.277,1.417-4.631,2.316-6.868c1.55-3.84,4.062-7.176,8.096-10.731c0.424,0.242,0.846,0.484,1.269,0.728
		c1.37,0.787,2.788,1.601,4.224,2.343c1.384,0.719,2.804,1.395,4.177,2.048c1.126,0.535,2.25,1.071,3.361,1.631
		c1.776,0.902,3.539,1.831,5.303,2.76c1.042,0.548,2.083,1.096,3.132,1.643c0.668,0.342,1.464,0.733,2.318,1.028
		c1.044,0.363,2.101,0.694,3.158,1.025c2.61,0.817,5.075,1.589,7.376,2.848c0.7,0.382,1.463,0.568,2.19,0.713
		c1.702,0.33,3.411,0.639,5.217,0.964c-5.266,5.519-10.221,10.82-14.274,17.151c-4.811,7.525-8.114,14.335-10.334,21.326
		c-0.704-0.159-1.366-0.311-1.883-0.593c-1.342-0.731-2.724-1.408-4.062-2.061c-2.89-1.414-5.621-2.749-8.083-4.636
		c-1.385-1.063-2.844-2.041-4.256-2.986C13.906,66.412,13.035,65.829,12.172,65.22 M69.786,4.736l1.544,0.107
		c5.401,0.35,11.663,0.82,17.647,1.958l0.667,0.127c6.167,1.178,12.544,2.396,18.53,4.699c3.201,1.234,6.523,2.231,9.737,3.197
		c2.568,0.771,5.225,1.568,7.78,2.477c2.951,1.045,5.979,1.991,8.906,2.906c4.897,1.529,9.961,3.112,14.731,5.187
		c1.938,0.847,3.988,1.418,5.971,1.969c1.149,0.319,2.338,0.65,3.471,1.027c4.168,1.378,8.368,2.91,12.429,4.39l0.305,0.111
		c3.999,1.46,8.107,2.78,12.079,4.058c1.21,0.389,2.42,0.778,3.63,1.171c-0.836,0.155-1.717,0.239-2.671,0.315
		c-5.083,0.415-10.18,0.745-14.05,0.986c-3.767,0.226-6.864,0.37-9.739,0.454c-1.013,0.026-2.059-0.008-3.071-0.039
		c-1.003-0.033-2.037-0.065-3.073-0.043c-0.899,0.017-1.784,0.116-2.64,0.212c-0.561,0.062-1.124,0.125-1.679,0.163
		c-0.922,0.056-1.892,0.05-2.831,0.044l-0.338-0.002c-0.124-0.003-0.246-0.029-0.37-0.05c-0.243-0.043-0.544-0.093-0.894-0.086
		c-1.709,0.066-3.42,0.139-5.131,0.213c-1.708,0.073-3.416,0.146-5.116,0.212c-0.962,0.035-2.224,0.071-3.507,0.027
		c-1.425-0.036-2.851-0.097-4.278-0.157c-2.842-0.12-5.781-0.244-8.689-0.169c-1.397,0.034-2.802,0.129-4.16,0.222
		c-2.701,0.184-5.252,0.359-7.845,0.096l-3.887-0.394c-3.853-0.392-7.704-0.784-11.561-1.143c-1.724-0.161-3.449-0.294-5.172-0.427
		c-2.052-0.158-4.174-0.322-6.246-0.533c-1.57-0.163-3.171-0.385-4.718-0.6c-1.478-0.206-3.007-0.419-4.526-0.583
		c-3.933-0.415-7.889-1.238-11.715-2.034c-1.977-0.41-4.023-0.835-6.066-1.205c-0.35-0.061-0.682-0.12-0.943-0.212
		c-1.068-0.381-2.139-0.753-3.21-1.124c-2.622-0.91-5.334-1.852-7.924-2.921c-1.389-0.573-2.696-1.347-4.078-2.166
		c-0.678-0.402-1.355-0.802-2.041-1.178c-1.136-0.623-2.19-1.172-3.22-1.678c-2.69-1.331-5.388-2.65-8.085-3.97
		c-1.548-0.756-3.095-1.514-4.643-2.273c2.957-3.093,6.809-5.647,11.776-7.805c5.069-2.205,10.568-4.347,16.435-5.094
		c4.541-0.586,8.685-0.876,12.669-0.885C63.251,4.279,66.575,4.512,69.786,4.736 M190.645,47.554
		c-0.209,0.09-0.421,0.181-0.634,0.273c-1.07,0.46-2.177,0.934-3.265,1.476c-1.735,0.854-3.408,1.776-5.111,2.725
		c-1.907,1.065-3.811,2.137-5.714,3.209c-3.931,2.213-7.996,4.501-12.028,6.691c-1.407,0.769-2.912,1.457-4.367,2.122
		c-1.172,0.535-2.384,1.089-3.563,1.692c-2.948,1.511-5.164,2.741-7.188,3.986c-5.504,3.397-9.981,5.564-14.518,7.028
		c-1.841,0.596-3.675,1.267-5.45,1.916c-1.607,0.588-3.269,1.195-4.915,1.74c-2.774,0.922-5.63,1.793-8.391,2.635
		c-0.214,0.066-0.427,0.131-0.641,0.196c5.531-13.643,9.212-25.715,9.449-38.951c0.268,0.008,0.537,0.015,0.804,0.023
		c1.553,0.044,3.088,0.086,4.623,0.088c3.532,0.009,7.064-0.007,10.595-0.022l4.233-0.017c0.227-0.001,0.455-0.016,0.681-0.034
		c0.24-0.017,0.461-0.034,0.641-0.019l0.581,0.053c2.167,0.196,4.41,0.404,6.733-0.295c0.471-0.14,1.177-0.119,1.997,0.066
		c2.308,0.498,4.515,0.234,6.649-0.022c0.669-0.079,1.337-0.159,2.002-0.215c0.972-0.075,1.95-0.069,2.986-0.064
		c0.974,0.006,1.98,0.011,2.984-0.056c1.613-0.109,3.221-0.256,4.829-0.404c2.232-0.203,4.542-0.415,6.803-0.509
		c2.886-0.118,6.1-0.25,9.328-1.128L190.645,47.554z M73.305,112.258c1.807-0.461,3.514-0.896,5.232-1.267
		c1.771-0.389,3.55-0.744,5.329-1.099c2.862-0.571,5.823-1.162,8.71-1.889c3.155-0.796,6.322-1.716,9.385-2.606
		c2.362-0.686,4.804-1.395,7.21-2.04c1.67-0.442,3.4-0.816,5.073-1.178c1.851-0.401,3.765-0.816,5.634-1.328
		c2.186-0.591,4.35-1.338,6.443-2.059c0.795-0.274,1.589-0.548,2.391-0.816c-0.293,1.253-0.574,2.444-0.892,3.586l-0.21,0.742
		c-0.473,1.69-0.963,3.437-1.653,5.022c-1.129,2.63-2.451,5.329-4.045,8.259c-0.754,1.4-1.652,2.777-2.521,4.109
		c-0.37,0.567-0.739,1.133-1.098,1.699c-0.967,1.515-2.421,2.375-4.442,2.629c-3.261,0.401-6.207,0.749-9.222,0.963
		c-2.19,0.157-4.365-0.206-6.662-0.587c-0.535-0.088-1.068-0.177-1.602-0.258c-3.151-0.484-6.238-1.504-9.224-2.491
		c-1.071-0.354-2.141-0.707-3.217-1.039c-1.371-0.424-2.791-1.14-4.105-2.067c-2.562-1.822-4.933-3.833-7.202-6.11
		C72.848,112.375,73.077,112.315,73.305,112.258"/>
</g>
</svg>
