<?xml version="1.0" encoding="utf-8"?>
<!-- Generator: Adobe Illustrator 15.0.2, SVG Export Plug-In . SVG Version: 6.00 Build 0)  -->
<!DOCTYPE svg PUBLIC "-//W3C//DTD SVG 1.1//EN" "http://www.w3.org/Graphics/SVG/1.1/DTD/svg11.dtd">
<svg version="1.1" id="Layer_1" xmlns="http://www.w3.org/2000/svg" xmlns:xlink="http://www.w3.org/1999/xlink" x="0px" y="0px"
	 width="411.271px" height="538.266px" viewBox="0 0 411.271 538.266" enable-background="new 0 0 411.271 538.266"
	 xml:space="preserve">
<text transform="matrix(1 0 0 1 -58.1763 -105.5229)"><tspan x="0" y="0" font-family="'Futura-Medium'" font-size="22">G</tspan><tspan x="13.948" y="0" font-family="'Futura-Medium'" font-size="22">i</tspan><tspan x="18.854" y="0" font-family="'Futura-Medium'" font-size="22">r</tspan><tspan x="25.981" y="0" font-family="'Futura-Medium'" font-size="22">l </tspan><tspan x="35.177" y="0" font-family="'Futura-Medium'" font-size="22">f</tspan><tspan x="41.535" y="0" font-family="'Futura-Medium'" font-size="22">r</tspan><tspan x="48.135" y="0" font-family="'Futura-Medium'" font-size="22">o</tspan><tspan x="59.883" y="0" font-family="'Futura-Medium'" font-size="22">n</tspan><tspan x="71.873" y="0" font-family="'Futura-Medium'" font-size="22">t</tspan><tspan x="78.825" y="0" font-family="'Futura-Medium'" font-size="22"> </tspan><tspan x="83.181" y="0" font-family="'Futura-Medium'" font-size="22">e</tspan><tspan x="93.388" y="0" font-family="'Futura-Medium'" font-size="22">x</tspan><tspan x="103.574" y="0" font-family="'Futura-Medium'" font-size="22">t</tspan><tspan x="110.768" y="0" font-family="'Futura-Medium'" font-size="22">r</tspan><tspan x="117.434" y="0" font-family="'Futura-Medium'" font-size="22">a </tspan><tspan x="132.085" y="0" font-family="'Futura-Medium'" font-size="22">b</tspan><tspan x="144.251" y="0" font-family="'Futura-Medium'" font-size="22">o</tspan><tspan x="156.021" y="0" font-family="'Futura-Medium'" font-size="22">l</tspan><tspan x="160.949" y="0" font-family="'Futura-Medium'" font-size="22">d</tspan></text>
<g>
	<defs>
		<rect id="SVGID_1_" x="-92.186" y="-152.069" width="595.276" height="841.89"/>
	</defs>
	<clipPath id="SVGID_2_">
		<use xlink:href="#SVGID_1_"  overflow="visible"/>
	</clipPath>
	<g clip-path="url(#SVGID_2_)">
		<path d="M410.958,437.101c-0.149-1.103-0.314-2.199-0.479-3.296c-0.119-0.799-0.238-1.597-0.354-2.396
			c-0.179-1.24-0.438-2.563-1.092-3.826c-0.197-0.392-0.364-0.823-0.54-1.282c-0.131-0.338-0.262-0.675-0.415-1.025
			c-0.488-1.075-0.986-2.161-1.516-3.234c-0.422-0.839-0.853-1.675-1.282-2.512c-0.638-1.242-1.277-2.485-1.891-3.743
			c-0.607-1.242-1.197-2.493-1.787-3.744c-0.941-1.994-1.914-4.055-2.949-6.057c-0.255-0.492-0.513-0.983-0.771-1.474
			c-0.76-1.448-1.549-2.946-2.229-4.455c-0.252-0.547-0.484-1.104-0.716-1.66c-0.383-0.92-0.779-1.872-1.272-2.798
			c-0.687-1.289-1.363-2.585-2.038-3.883c-1.516-2.911-3.085-5.923-4.779-8.816c-1.297-2.222-2.545-4.537-3.753-6.776
			c-0.587-1.089-1.175-2.178-1.768-3.26c-0.508-0.925-1.022-1.845-1.537-2.765c-0.729-1.305-1.459-2.607-2.17-3.931
			c-0.721-1.326-1.526-2.604-2.303-3.839c-0.674-1.068-1.369-2.174-1.991-3.285c-0.213-0.375-0.416-0.757-0.619-1.139
			c-0.402-0.756-0.818-1.537-1.313-2.287c-1.106-1.673-2.326-3.401-3.73-5.282c-1.045-1.395-2.022-2.923-2.988-4.664
			c-0.164-0.299-0.322-0.6-0.482-0.9c-0.503-0.948-1.023-1.928-1.688-2.858c-0.425-0.586-0.848-1.175-1.271-1.765
			c-1.801-2.511-3.663-5.108-5.775-7.491c-0.381-0.438-0.731-0.928-1.103-1.447c-0.249-0.348-0.498-0.695-0.753-1.025
			c-0.624-0.817-1.195-1.665-1.801-2.563c-1.022-1.517-2.08-3.086-3.408-4.495c-0.388-0.41-0.704-1.009-1.041-1.644l-0.258-0.482
			c-0.229-0.415-0.431-0.849-0.635-1.283c-0.392-0.839-0.799-1.705-1.379-2.504c-1.101-1.542-2-3.177-2.954-4.908l-0.538-0.975
			c-0.061-0.114-0.12-0.231-0.178-0.349c-0.151-0.301-0.304-0.603-0.496-0.895c-0.585-0.872-1.178-1.739-1.771-2.608
			c-1.125-1.649-2.289-3.355-3.384-5.057c-0.479-0.746-0.983-1.473-1.488-2.2c-0.84-1.212-1.634-2.356-2.325-3.595
			c-0.354-0.627-0.646-1.295-0.953-2.002c-0.287-0.656-0.583-1.336-0.945-2.006c-0.823-1.518-1.615-3.104-2.383-4.638
			c-0.646-1.294-1.293-2.589-1.969-3.869l-0.359-0.673c-1.178-2.211-2.293-4.299-3.004-6.587c-0.965-3.124-2.51-5.963-4.004-8.707
			l-0.28-0.515c-0.646-1.194-1.277-2.397-1.91-3.599c-1.876-3.567-3.815-7.255-6.119-10.717c-2.201-3.314-4.096-6.84-5.496-9.537
			c-0.835-1.618-1.68-3.218-2.541-4.812c-0.607-1.129-1.409-2.01-2.188-2.862c-0.478-0.524-0.93-1.021-1.325-1.567
			c-0.262-0.35-0.528-0.698-0.797-1.045c-0.253-0.328-0.506-0.656-0.773-1.014l-0.227-0.297c-0.205-0.275-0.414-0.551-0.652-0.807
			c-0.473-0.498-0.939-1-1.407-1.502c-1.269-1.36-2.579-2.766-3.951-4.086c-2.526-2.433-5.134-4.854-7.657-7.195l-2.389-2.22
			c-0.361-0.338-0.732-0.622-1.098-0.901c-0.688-0.532-1.387-1.147-2.256-1.984c-1.862-1.832-4.012-3.466-6.389-4.858
			c-0.73-0.424-1.444-0.872-2.159-1.319c-0.541-0.34-1.083-0.679-1.639-1.014l-0.448-0.266c-0.873-0.522-1.775-1.062-2.727-1.514
			c-1.598-0.771-3.437-0.847-5.469-0.222c-0.863,0.271-1.534,0.86-1.937,1.297c-0.507,0.541-0.949,1.205-1.312,1.976
			c-0.14,0.294-0.564,1.331-0.229,2.343c0.314,0.945,0.374,1.99,0.437,3.095c0.069,1.243,0.143,2.527,0.575,3.848
			c0.013,0.046,0.021,0.219-0.029,0.415c-0.238,0.92-0.164,1.76-0.1,2.501c0.023,0.257,0.046,0.513,0.052,0.763l0.041,2.086
			c0.033,1.637,0.067,3.276,0.067,4.942c0.012,1.24,0.024,2.521,0.393,3.845c0.143,0.531,0.203,1.148,0.171,1.736
			c-0.146,2.566,0.165,5.069,0.465,7.489c0.133,1.074,0.266,2.147,0.357,3.216c0.046,0.561,0.138,1.091,0.226,1.605
			c0.041,0.235,0.082,0.47,0.116,0.7c0.368,2.562,0.848,4.483,1.553,6.225c1.42,3.534,3.272,6.817,4.73,9.286
			c0.783,1.32,1.686,2.568,2.557,3.775l0.58,0.807c0.515,0.725,1.045,1.442,1.575,2.16c0.781,1.056,1.591,2.147,2.318,3.241
			c1.162,1.753,2.318,3.212,3.539,4.461c1.067,1.09,2.013,2.271,3.014,3.524c1.142,1.426,2.32,2.9,3.707,4.237
			c0.176,0.166,0.354,0.474,0.543,0.8l0.103,0.175c0.843,1.442,1.919,2.614,2.963,3.75c1.403,1.523,3.013,3.372,4.31,5.546
			c0.674,1.143,1.475,2.181,2.248,3.185c0.279,0.361,0.559,0.722,0.831,1.09c0.74,0.992,1.498,1.976,2.257,2.957l0.072,0.095
			c0.038,0.05,0.071,0.103,0.106,0.156c0.165,0.251,0.413,0.629,0.818,0.906c0.981,0.683,1.533,1.799,2.057,2.973
			c0.533,1.212,1.274,2.384,2.266,3.581c1.785,2.163,3.588,4.319,5.392,6.475l2.419,2.896c0.372,0.444,0.724,0.863,0.981,1.297
			c1.33,2.208,3.037,4.268,5.551,6.694l0.269,0.243c0.192,0.173,0.375,0.336,0.489,0.48c0.832,1.052,1.651,2.113,2.473,3.174
			l1.642,2.119c0.347,0.452,0.738,0.962,1.24,1.4c0.688,0.596,1.231,1.357,1.774,2.153c0.381,0.557,0.797,1.061,1.198,1.548
			c0.215,0.26,0.429,0.52,0.632,0.78l0.643,0.829c0.69,0.89,1.381,1.779,2.035,2.688c0.404,0.566,0.8,1.14,1.194,1.714
			c1.305,1.894,2.652,3.852,4.377,5.577c0.071,0.071,0.188,0.208,0.321,0.443c0.826,1.462,1.86,2.723,2.859,3.941
			c0.362,0.442,0.724,0.883,1.076,1.334c0.209,0.27,0.423,0.535,0.638,0.8c0.637,0.792,1.241,1.541,1.716,2.37
			c0.49,0.843,1.104,1.546,1.698,2.226c0.21,0.239,0.42,0.48,0.618,0.722c0.198,0.242,0.41,0.473,0.624,0.705
			c0.209,0.226,0.42,0.452,0.602,0.689c0.413,0.544,0.813,1.099,1.212,1.652c0.784,1.085,1.595,2.207,2.493,3.256
			c0.433,0.508,0.827,1.063,1.245,1.651c0.85,1.194,1.729,2.432,3.025,3.411c0.037,0.054,0.066,0.113,0.101,0.172
			c0.049,0.086,0.099,0.171,0.14,0.235c1.043,1.702,2.389,3.083,3.689,4.417l0.648,0.668c0.289,0.304,0.585,0.603,0.88,0.902
			c0.899,0.915,1.752,1.78,2.464,2.721c1.067,1.425,2.25,2.748,3.392,4.03c1.205,1.353,2.342,2.628,3.37,4.02
			c0.609,0.826,1.396,1.634,2.276,2.335c0.928,0.735,1.735,1.606,2.592,2.529c0.29,0.313,0.58,0.625,0.876,0.935
			c1.052,1.097,1.956,2.31,2.915,3.595c0.828,1.111,1.684,2.258,2.646,3.334c0.603,0.675,1.188,1.369,1.775,2.063
			c1.056,1.249,2.148,2.54,3.341,3.746c0.781,0.788,1.514,1.724,2.372,3.027c2.632,4.011,5.066,8.264,7.419,12.377l0.865,1.51
			c0.095,0.174,0.166,0.344,0.195,0.467c0.278,1.253,0.749,2.388,1.202,3.483c0.167,0.404,0.336,0.808,0.488,1.208
			c0.141,0.371,0.289,0.739,0.438,1.107c0.568,1.407,1.105,2.736,1.066,4.117c-0.019,0.625,0.153,1.187,0.307,1.559
			c0.693,1.653,0.845,3.463,1.005,5.379l0.033,0.397c0.039,0.513,0.108,1.025,0.179,1.538c0.101,0.749,0.197,1.454,0.186,2.114
			c-0.017,0.917,0.071,1.8,0.157,2.653c0.113,1.123,0.219,2.183,0.071,3.188c-0.258,1.673,0.284,3.151,0.775,4.493
			c0.528,1.412,1.616,2.485,2.988,2.942c0.484,0.162,0.986,0.241,1.489,0.241c0.931,0,1.868-0.273,2.703-0.809l0.253-0.161
			c0.383-0.241,0.815-0.517,1.239-0.878c0.481-0.419,0.86-0.864,1.138-1.339c1.216-2.134,1.846-4.418,2.454-6.626
			c0.139-0.502,0.276-1.006,0.438-1.563c0.079-0.317,0.09-0.612,0.103-0.922l0.227-4.747
			C411.344,441.27,411.258,439.295,410.958,437.101 M403.48,453.725c-0.071,0.095-0.178,0.202-0.295,0.315
			c-0.683-1.17-1.003-2.313-0.981-3.481c0.019-0.869,0.012-1.737,0.006-2.606l-0.028-2.106l0.006-0.279
			c0.018-0.798,0.035-1.595,0.035-2.421c-0.012-0.607-0.08-1.199-0.154-1.764c-0.104-0.718-0.214-1.435-0.325-2.152l-0.158-1.017
			c-0.009-0.06-0.01-0.124-0.014-0.186c-0.02-0.307-0.046-0.771-0.297-1.236c-0.503-0.933-0.707-2.02-0.924-3.171
			c-0.085-0.455-0.172-0.91-0.274-1.361c-0.354-1.544-0.776-3.174-1.69-4.649c-0.091-0.146-0.365-0.586-0.43-0.951
			c-0.48-2.47-1.652-4.529-2.784-6.52l-0.351-0.619c-0.818-1.455-1.658-2.895-2.499-4.333c-0.613-1.047-1.225-2.094-1.83-3.153
			c-0.375-0.647-0.784-1.258-1.18-1.849c-0.545-0.813-1.061-1.579-1.46-2.396c-0.405-0.834-1.032-1.476-1.586-2.043l-0.29-0.298
			c-3.323-3.47-4.555-4.914-7.316-8.588c-0.647-0.856-1.356-1.649-2.042-2.415l-0.526-0.589c-0.94-1.075-1.891-2.142-2.842-3.206
			l-0.222-0.254c-0.198-0.234-0.445-0.524-0.762-0.765c-1.242-0.969-2.271-2.172-3.358-3.444c-0.568-0.665-1.136-1.329-1.741-1.968
			c-2.598-2.724-4.831-5.394-6.827-8.161c-0.383-0.532-0.834-0.983-1.266-1.396c-0.242-0.227-0.488-0.453-0.733-0.677
			c-1.168-1.072-2.27-2.083-2.899-3.421c-0.247-0.503-0.631-0.966-1.22-1.464c-1.046-0.869-1.888-1.961-2.779-3.117
			c-0.394-0.509-0.786-1.019-1.2-1.515c-0.707-0.841-1.39-1.751-2.051-2.633c-1.055-1.403-2.144-2.856-3.424-4.17
			c-0.223-0.227-0.536-0.568-0.713-0.913c-1.067-2.059-2.567-3.717-4.067-5.375c-0.345-0.383-0.659-0.83-0.991-1.304
			c-0.213-0.304-0.427-0.608-0.642-0.89c-1.2-1.604-2.422-3.188-3.644-4.773c-1.985-2.581-4.041-5.248-5.956-7.938l-0.131-0.16
			c-0.949-1.004-1.784-2.098-2.667-3.254c-0.934-1.226-1.9-2.489-3.021-3.653c-1.278-1.334-2.337-2.887-3.457-4.532l-0.615-0.897
			c-0.716-1.028-1.703-2.348-2.997-3.431c-1.314-1.082-2.327-2.455-3.304-3.778c-1.21-1.651-2.525-3.227-3.797-4.748
			c-0.558-0.666-1.112-1.331-1.66-2.003l-0.81-0.986c-1.887-2.293-3.671-4.459-4.848-7.035c-0.672-1.485-1.516-2.625-2.574-3.471
			c-0.583-0.775-1.208-1.504-1.812-2.21c-1.128-1.319-2.194-2.567-2.951-4.018c-1.215-2.317-2.901-4.263-4.53-6.144l-0.24-0.277
			c-0.308-0.353-0.623-0.702-0.936-1.05c-1.03-1.144-2.004-2.225-2.763-3.414c-0.178-0.29-0.384-0.536-0.537-0.71l-1.325-1.528
			c-1.649-1.898-3.299-3.802-4.939-5.716c-0.977-1.141-1.816-2.173-2.566-3.154c-1.868-2.449-3.775-5.157-6.184-8.779
			c-1.257-1.892-2.383-3.958-3.472-5.956l-0.467-0.856c-0.326-0.584-0.604-1.212-0.897-1.877c-0.225-0.511-0.452-1.023-0.704-1.527
			c-1.018-2.019-1.456-4.204-1.777-6.275c-0.398-2.451-0.677-4.955-0.949-7.51c-0.098-0.969-0.138-1.937-0.18-2.962
			c-0.02-0.476-0.039-0.952-0.064-1.424c-0.014-0.274-0.017-0.55-0.019-0.825c-0.009-0.735-0.017-1.496-0.199-2.304
			c-0.287-1.21-0.279-2.471-0.272-3.805c0.002-0.313,0.004-0.625,0.002-0.944c-0.026-2.891-0.117-6.31-0.584-9.741
			c-0.33-2.389-0.42-4.31-0.28-6.059c0,0,0.047-0.058,0.22-0.13c0.616-0.255,1.255-0.236,1.95,0.055l0.102,0.043
			c0.453,0.193,0.922,0.391,1.194,0.621c1.34,1.135,2.783,1.885,4.403,2.685c0.468,0.226,0.968,0.566,1.535,1.043
			c0.889,0.74,1.758,1.497,2.625,2.254c0.653,0.568,1.305,1.135,1.974,1.705c0.447,0.374,0.914,0.733,1.381,1.093
			c0.303,0.234,0.604,0.467,0.896,0.702c0.158,0.127,0.319,0.251,0.479,0.375c0.39,0.3,0.759,0.585,1.025,0.897
			c1.494,1.706,3.179,3.195,4.807,4.636c0.603,0.534,1.207,1.067,1.8,1.611c3.783,3.47,6.674,6.603,9.098,9.858l0.089,0.119
			c0.307,0.413,0.622,0.841,0.997,1.248c1.652,1.811,3.134,4.043,4.528,6.82c1.005,2.012,2.151,3.945,3.259,5.816
			c0.671,1.132,1.342,2.263,1.983,3.415c0.67,1.199,1.465,2.424,2.368,3.647c0.6,0.802,1.061,1.72,1.55,2.69
			c0.365,0.728,0.743,1.48,1.197,2.212c0.329,0.531,0.624,1.082,0.922,1.635c0.306,0.569,0.613,1.139,0.948,1.689
			c0.471,0.781,0.86,1.616,1.274,2.499c0.399,0.852,0.812,1.733,1.317,2.598c1.192,2.027,2.299,4.271,3.282,6.663l0.111,0.274
			c0.194,0.469,0.375,0.911,0.482,1.324c0.498,2.001,1.39,3.805,2.182,5.333c1.099,2.139,2.224,4.262,3.348,6.384l1.268,2.395
			c0.052,0.102,0.111,0.198,0.171,0.293l0.042,0.07c0.726,2.408,2.038,4.427,3.305,6.381l1.054,1.634
			c1.221,1.907,2.482,3.878,3.858,5.756c0.935,1.272,1.723,2.648,2.556,4.104c0.339,0.59,0.678,1.182,1.027,1.771
			c0.247,0.41,0.483,0.827,0.717,1.244c0.394,0.695,0.798,1.412,1.255,2.105c1.59,2.427,2.934,4.726,4.109,7.033
			c0.46,0.894,1.021,1.675,1.517,2.346c1.248,1.659,2.461,3.341,3.674,5.025c0.522,0.726,1.046,1.45,1.564,2.166
			c0.123,0.172,0.243,0.35,0.362,0.527c0.315,0.472,0.642,0.958,1.074,1.426c1.996,2.129,3.626,4.492,5.352,6.995
			c0.53,0.77,1.061,1.536,1.596,2.29l0.097,0.139c0.182,0.257,0.354,0.499,0.45,0.703c1.104,2.369,2.575,4.481,4,6.522l0.688,0.989
			c0.4,0.578,0.804,1.152,1.209,1.728c1.335,1.9,2.717,3.864,3.901,5.87l0.938,1.592c1.308,2.217,2.616,4.436,3.903,6.663
			c0.302,0.526,0.571,1.093,0.854,1.691l0.235,0.492c0.04,0.084,0.072,0.17,0.104,0.255c0.098,0.252,0.199,0.499,0.339,0.732
			c1.375,2.305,3.167,5.356,4.831,8.531c0.71,1.347,1.493,2.662,2.25,3.932c0.64,1.073,1.3,2.185,1.9,3.29
			c1.239,2.256,2.446,4.585,3.615,6.838l1.274,2.451c0.286,0.562,0.537,1.066,0.707,1.554c0.722,2.117,1.714,4.095,2.673,6.007
			c0.771,1.537,1.499,2.988,2.1,4.508c0.164,0.416,0.351,0.823,0.538,1.23c0.128,0.277,0.256,0.558,0.381,0.854
			c0.779,1.808,1.664,3.739,2.867,5.607c1.022,1.592,2.19,3.45,3.121,5.359c1.449,3.006,2.514,5.479,3.349,7.778
			c0.454,1.26,0.682,2.629,0.92,4.079l0.164,0.978c0.664,3.689,0.907,7.536,0.72,11.433v0.003
			C406.07,449.127,405.206,451.384,403.48,453.725"/>
		<path d="M142.174,109.199l0.161,1.227v0.001c0.199,1.521,0.68,3.013,1.427,4.429c0.457,0.878,0.829,1.784,1.107,2.696
			c0.851,2.788,2.199,5.535,4.121,8.401c0.323,0.48,0.673,0.948,1.021,1.416c0.605,0.808,1.175,1.572,1.587,2.38
			c1.491,2.904,3.586,5.281,5.612,7.58c0.458,0.519,0.915,1.037,1.362,1.558c1.227,1.439,2.729,2.575,4.181,3.672l0.146,0.111
			c0.978,0.74,2.024,1.398,3.132,2.095c0.378,0.238,0.77,0.486,1.177,0.746l0.263,0.63c0.332,0.801,0.673,1.618,1.032,2.443
			c0.449,1.006,0.831,2.033,1.237,3.119c0.309,0.829,0.619,1.658,0.955,2.47c0.972,2.372,2.056,4.726,3.105,7.001
			c0.364,0.789,0.727,1.579,1.091,2.38l0.151,0.33c0.276,0.61,0.588,1.301,1.057,1.916c0.499,0.659,0.98,1.332,1.461,2.005
			c1.394,1.953,2.834,3.973,4.764,5.664c0.24,0.207,0.283,0.291,0.16,0.625c-0.156,0.405-0.217,0.8-0.266,1.118
			c-0.017,0.118-0.035,0.236-0.058,0.346c-0.206,0.925-0.626,1.824-1.072,2.777c-0.558,1.194-1.135,2.428-1.372,3.862
			c-0.024,0.078-0.151,0.277-0.234,0.409l-0.118,0.189c-0.168,0.266-0.351,0.526-0.532,0.786c-0.386,0.549-0.785,1.119-1.11,1.8
			c-0.626,1.346-1.71,2.41-2.857,3.537c-0.231,0.225-0.46,0.451-0.688,0.68c-0.748,0.755-1.605,1.422-2.514,2.128
			c-0.35,0.272-0.699,0.543-1.043,0.821l-0.235,0.194c-0.258,0.213-0.523,0.433-0.725,0.519c-1.628,0.716-3.006,1.718-4.338,2.687
			c-0.94,0.683-1.826,1.329-2.774,1.859c-1.012,0.571-1.525,1.565-1.525,2.936c-0.014,0.974,0.344,1.892,1.071,2.74
			c0.406,0.464,0.82,0.92,1.233,1.377c0.951,1.05,1.849,2.042,2.673,3.133c0.779,1.024,1.832,2.007,3.129,2.919
			c0.57,0.4,1.13,0.813,1.692,1.226c2.038,1.501,4.145,3.054,6.691,4.039c0.152,0.058,0.34,0.168,0.539,0.285
			c0.268,0.157,0.537,0.309,0.812,0.427c1.168,0.509,2.374,1.036,3.631,1.487c3.633,1.311,7.429,1.952,11.139,2.578
			c1.857,0.313,3.928,0.664,6.031,0.664c0.312,0,0.627-0.008,0.94-0.026l0.994-0.05c1.363-0.072,2.651-0.139,3.966-0.079
			c1.492,0.058,2.96-0.241,4.207-0.542c1.887-0.464,3.884-1.051,5.929-1.744c1.287-0.431,2.566-0.923,3.803-1.397
			c0.642-0.246,1.281-0.492,1.923-0.73c0.366-0.136,0.739-0.258,1.112-0.38c0.764-0.251,1.554-0.51,2.316-0.883
			c0.677-0.325,1.27-0.728,1.844-1.116c0.414-0.281,0.805-0.546,1.205-0.766c3.146-1.753,6.043-3.756,8.701-5.658
			c2.597-1.852,4.183-4.372,5.278-6.37c0.71-1.316,0.268-3.136-0.969-3.975l-1.052-0.717c-1.227-0.838-2.493-1.704-3.806-2.496
			c-1.276-0.768-2.42-1.688-3.393-2.733c-0.777-0.84-1.62-1.594-2.569-2.299c-1.622-1.223-2.706-2.409-3.409-3.74
			c-0.33-0.616-0.757-1.132-1.132-1.587l-0.165-0.201c-1.345-1.626-2.45-3.395-3.62-5.267l-0.408-0.651
			c-0.835-1.317-1.303-2.808-1.797-4.386l-0.281-0.889c-0.042-0.132-0.095-0.296,0.227-0.692c0.584-0.714,1.245-1.523,1.615-2.501
			c0.161-0.42,0.377-0.836,0.607-1.276c0.217-0.414,0.431-0.827,0.613-1.259c0.288-0.682,0.638-1.342,1.008-2.041
			c0.594-1.124,1.208-2.287,1.598-3.611c0.232-0.773,0.503-1.537,0.772-2.302c0.327-0.927,0.666-1.887,0.943-2.867
			c0.489-1.708,1.043-3.183,1.693-4.509c0.858-1.744,1.361-3.57,1.85-5.335c0.171-0.623,0.342-1.246,0.53-1.863l0.064-0.216
			l-0.001-0.226c-0.005-1.184,0.375-2.359,0.777-3.604c0.231-0.713,0.469-1.452,0.641-2.209c0.007-0.016,0.039-0.082,0.132-0.183
			c0.829-0.947,1.688-1.874,2.541-2.787c3.963-4.195,7.064-8.413,9.481-12.9c1.079-2.007,1.937-4.134,2.621-6.508
			c0.354-1.236,0.618-2.501,0.873-3.724l0.023-0.113c0.068-0.334,0.148-0.668,0.229-1.004c0.255-1.082,0.521-2.201,0.512-3.386
			c-0.003-0.734,0.027-1.47,0.056-2.206c0.085-2.178,0.172-4.428-0.479-6.7c0-0.043,0.004-0.087,0.007-0.131
			c0.014-0.213,0.021-0.427-0.006-0.688c-0.061-0.64-0.125-1.303-0.253-1.971c-0.122-0.633-0.286-1.24-0.444-1.826l-0.575-2.134
			c-0.404-1.506-0.811-3.013-1.258-4.509c-0.299-1-0.673-1.957-1.032-2.882c-0.411-1.053-0.8-2.048-1.079-3.095
			c-0.146-0.514-0.386-0.934-0.6-1.304c-0.073-0.129-0.148-0.259-0.219-0.399c-0.268-0.528-0.548-1.051-0.828-1.574
			c-0.629-1.177-1.222-2.288-1.684-3.439c-1.159-2.922-2.821-5.466-4.563-8.028c-0.388-0.574-0.792-1.138-1.194-1.702
			c-0.776-1.084-1.511-2.108-2.133-3.199c-0.131-0.228-0.255-0.46-0.379-0.693c-0.411-0.773-0.838-1.572-1.468-2.275
			c-0.822-0.936-1.472-2.008-2.161-3.143c-0.411-0.676-0.821-1.353-1.269-2.004c-2.337-3.415-3.258-7.346-3.852-10.743
			c-0.222-1.262-0.293-2.417-0.213-3.422l0.013-0.134c0.185-2.161,0.357-4.202,0.957-6.17c0.371-1.199,0.478-2.389,0.578-3.539
			c0.088-0.986,0.17-1.916,0.42-2.804c0.108-0.416,0.049-0.776,0-1.035c0.045-1.626-0.127-3.21-0.292-4.742
			c-0.11-1.019-0.216-1.981-0.262-2.956c-0.103-2.162-0.91-4.252-2.467-6.393c-1.313-1.796-2.789-3.475-4.184-5.017
			c-0.803-0.893-1.739-1.698-2.705-2.323c-2.445-1.603-5.097-2.796-7.659-3.95l-0.2-0.09c-0.905-0.412-1.745-0.605-2.51-0.584
			c-0.758,0.023-1.51,0.01-2.261-0.001c-1.144-0.018-2.332-0.036-3.548,0.066c-2.129,0.194-3.781,0.744-5.215,1.742
			c-0.273,0.187-0.532,0.365-0.754,0.442c-1.388,0.508-2.628,1.22-3.827,1.909c-0.768,0.441-1.494,0.859-2.247,1.218
			c-1.677,0.803-3.254,1.887-4.816,3.31c-0.569,0.513-1.092,1.06-1.599,1.589c-0.373,0.389-0.746,0.778-1.138,1.154
			c-1.97,1.902-2.864,4.263-3.755,6.616c-0.288,0.739-0.361,1.512-0.391,2.031l-0.054,0.968c-0.17,2.986-0.344,6.074,0.023,9.187
			c0.24,1.972,0.421,4.06-0.218,5.986c-0.18,0.518-0.191,1.009-0.201,1.403c-0.003,0.149-0.003,0.297-0.024,0.434
			c-0.043,0.273-0.08,0.55-0.116,0.826c-0.084,0.642-0.163,1.248-0.336,1.766l-0.357,1.088c-0.742,2.269-1.445,4.413-2.513,6.421
			c-2.139,4.02-4.562,8.578-7.766,12.494c-0.216,0.269-0.404,0.566-0.59,0.866c-0.107,0.172-0.213,0.347-0.323,0.495
			c-0.893,1.171-1.807,2.333-2.733,3.498c-0.175,0.22-0.367,0.429-0.558,0.637c-0.392,0.429-0.837,0.916-1.187,1.516
			c-0.644,1.12-1.486,2.122-2.38,3.183c-0.855,1.017-1.738,2.065-2.476,3.268c-1.71,1.707-2.806,3.745-3.868,5.717l-0.47,0.869
			c-0.168,0.306-0.329,0.613-0.49,0.919c-0.271,0.519-0.543,1.038-0.845,1.54c-1.244,2.037-2.183,3.813-2.728,5.862
			c-0.21,0.78-0.474,1.489-0.781,2.103c-0.947,1.873-1.376,3.828-1.79,5.719l-0.024,0.106c-0.057,0.252-0.099,0.511-0.14,0.77
			c-0.054,0.338-0.105,0.657-0.196,0.89c-0.656,1.691-0.619,3.361-0.497,4.763C141.667,105.34,141.925,107.301,142.174,109.199
			 M228.539,121.117l-0.019,0.179c-0.26,2.617-0.411,4.942-0.467,7.108c-0.075,2.823-0.466,5.696-0.844,8.474l-0.035,0.257
			c-0.034,0.266-0.142,0.587-0.257,0.928l-0.116,0.352c-0.468,1.488-0.791,3.005-0.986,4.635c-0.093,0.745-0.224,1.354-0.399,1.861
			c-0.17,0.489-0.334,0.98-0.498,1.47c-0.509,1.528-0.991,2.971-1.66,4.358c-0.566,1.191-0.957,2.476-1.27,3.511
			c-0.876,2.89-1.998,6.288-3.667,9.546c-0.215,0.402-0.371,0.794-0.522,1.174c-0.088,0.222-0.175,0.445-0.273,0.658
			c-2.106,4.501-5.648,7.27-10.829,8.464c-1.36,0.315-2.746,0.499-4.214,0.695c-0.447,0.059-0.894,0.118-1.332,0.18
			c-0.862,0.119-1.539,0.075-2.139-0.138c-1.216-0.428-2.56-0.646-4.241-0.686c-0.824-0.015-1.639-0.223-2.43-0.623
			c-0.515-0.256-1.044-0.482-1.572-0.708c-0.919-0.393-1.787-0.765-2.575-1.316c-0.643-0.45-1.248-0.874-1.754-1.388
			c-1.917-1.899-3.79-4.188-5.891-7.196c-0.35-0.508-0.665-1.09-0.912-1.688c-1.043-2.492-2.181-4.961-3.396-7.36
			c-0.358-0.718-0.696-1.396-0.883-2.056c-0.772-2.75-1.927-5.335-3.044-7.834l-0.171-0.384c-0.082-0.183-0.172-0.366-0.261-0.548
			c-0.172-0.35-0.334-0.68-0.405-0.971c-0.513-1.998-1.22-3.927-1.903-5.791c-0.269-0.733-0.537-1.465-0.794-2.201
			c-0.266-0.759-0.438-1.576-0.619-2.441c-0.079-0.377-0.159-0.753-0.245-1.126c-0.235-1-0.463-2.001-0.692-3.001
			c-0.222-0.969-0.442-1.939-0.667-2.898c-0.03-0.134-0.066-0.267-0.102-0.4c-0.036-0.129-0.076-0.257-0.09-0.367
			c-0.02-0.176-0.005-0.279,0.006-0.319c1.466-1.521,3.171-3.28,4.874-4.973c0.882-0.883,2.011-1.654,3.552-2.429
			c3.648-1.83,6.935-2.701,9.844-2.632l0.06,0.002l0.059-0.003c2.813-0.146,5.147,0.303,7.616,0.777l0.67,0.13
			c2.774,0.543,5.639,1.104,8.677,0.566c4.279,0.025,8.426-0.581,11.873-1.193c0.594-0.101,1.228-0.13,1.897-0.16
			c0.269-0.012,0.538-0.025,0.804-0.041c1.781-0.109,3.549,0.215,5.418,0.558c0.618,0.114,1.236,0.228,1.85,0.35
			c0.352,0.23,0.715,0.446,1.08,0.663c0.862,0.513,1.679,0.996,2.25,1.648c0.342,0.392,0.636,0.714,0.887,0.99
			C228.762,118.86,228.762,118.86,228.539,121.117 M232.158,198.431c1.102,0.793,2.208,1.658,3.277,2.494l0.57,0.446
			c-0.6,1.085-1.267,1.863-2.131,2.495c-2.736,2.012-5.95,4.304-9.463,6.055l-0.638,0.326c-0.872,0.449-1.696,0.873-2.563,1.093
			c-0.754,0.192-1.376,0.444-1.881,0.758c-1.579,0.948-3.318,1.571-5.159,2.23l-0.743,0.266c-3.912,1.428-6.247,1.75-11.94,1.629
			c-4.855,0.114-10.176-0.987-14.283-1.96c-1.501-0.352-2.977-0.859-4.085-1.258c-0.562-0.206-1.131-0.532-1.735-0.877l-0.326-0.187
			c-0.301-0.166-0.594-0.351-0.888-0.534c-0.528-0.33-1.074-0.672-1.679-0.95c-2.171-1.021-4.14-2.366-6.224-3.787l-0.101-0.069
			c-0.453-0.314-0.871-0.672-1.202-1.025c-1.331-1.442-2.635-2.909-3.939-4.379c0.521-0.373,1.018-0.763,1.504-1.144
			c1.033-0.811,2.01-1.578,3.112-2.103c1.171-0.552,2.145-1.346,3.086-2.113l0.577-0.467c2.102-1.666,3.831-3.319,5.285-5.05
			c1.633-1.94,2.807-3.845,3.587-5.821c0.282-0.706,0.582-1.405,0.883-2.104c0.768-1.784,1.559-3.623,2.031-5.536
			c1.673,1.054,3.484,1.668,5.071,2.131l0.21,0.066c0.403,0.129,0.908,0.31,1.497,0.277c1.368-0.039,2.728,0.177,4.163,0.668
			c0.578,0.201,1.13,0.165,1.511,0.14c3.56-0.166,7.039-0.405,10.454-1.485c1.592-0.492,3.274-1.07,4.806-2.245
			c0.022-0.017,0.047-0.034,0.072-0.051c0.091,0.21,0.17,0.414,0.226,0.612c0.452,1.601,1.138,3.061,2.093,4.465l0.004,0.005
			c0.328,0.479,0.639,0.971,0.951,1.463c0.788,1.243,1.603,2.528,2.71,3.676c0.245,0.251,0.46,0.743,0.534,0.911
			c1.173,2.643,3.17,4.393,4.777,5.622c0.962,0.737,1.969,1.558,2.81,2.567C229.927,196.825,231.056,197.637,232.158,198.431
			 M166.771,200.912c-0.014-0.016-0.028-0.033-0.042-0.048l0.037-0.023C166.771,200.861,166.772,200.885,166.771,200.912
			 M165.458,201.618L165.458,201.618l1.241-0.737l-0.316,0.281L165.458,201.618z"/>
		<path d="M382.312,417.941l-0.479-0.825l-0.005-0.01c-0.289-0.494-0.694-0.825-0.989-1.067c-0.07-0.059-0.143-0.118-0.205-0.173
			c-0.479-0.438-0.966-0.865-1.454-1.291c-0.416-0.365-0.827-0.736-1.238-1.106c-1.097-0.987-2.229-2.01-3.461-2.914
			s-2.546-1.682-3.814-2.433c-0.476-0.281-0.952-0.562-1.417-0.846c-0.358-0.22-0.726-0.421-1.093-0.62
			c-0.373-0.202-0.746-0.404-1.107-0.637c-3.692-2.358-7.712-4.345-12.284-6.067c-2.625-0.997-4.914-2.075-6.991-3.291
			c-2.458-1.448-5.044-2.634-7.546-3.781l-0.596-0.271c-1.347-0.613-2.729-1.171-4.067-1.711c-1.111-0.448-2.224-0.897-3.322-1.379
			c-2.408-1.05-4.876-2.051-7.263-3.021c-1.131-0.459-2.26-0.917-3.382-1.379c-1.567-0.653-3.172-1.271-4.721-1.869
			c-1.768-0.681-3.596-1.385-5.353-2.134c-0.883-0.38-1.78-0.652-2.648-0.914c-0.271-0.082-0.543-0.164-0.816-0.25
			c-1-0.313-2.002-0.618-3.004-0.922c-1.817-0.553-3.697-1.124-5.515-1.729c-2.139-0.721-3.908-1.265-5.568-1.717
			c-0.469-0.127-0.897-0.273-1.324-0.457c-3.146-1.308-6.294-2.617-9.424-3.941c-0.346-0.149-0.695-0.295-1.047-0.441
			c-1.222-0.511-2.377-0.994-3.438-1.611c-1.28-0.734-2.609-1.322-4.066-1.799c-0.75-0.241-1.37-0.456-1.965-0.718
			c-2.345-1.014-4.91-1.842-7.829-2.531c-0.211-0.051-0.423-0.115-0.638-0.179c-0.903-0.271-2.028-0.609-3.267-0.254
			c-0.783,0.226-1.473,0.619-2.08,0.966c-0.245,0.141-0.49,0.28-0.765,0.419c-0.128,0.068-0.262,0.129-0.394,0.19
			c-0.283,0.132-0.564,0.266-0.821,0.423c-1.765,1.07-3.332,2.08-4.632,3.607c-0.543,0.635-1.188,1.209-1.867,1.817
			c-0.263,0.234-0.525,0.467-0.781,0.704c-2.369,2.182-5.318,4.899-7.649,8.073c-1.513,2.048-3.155,4.137-4.888,6.211
			c-2.139,2.572-4.38,5.341-6.178,8.419c-1.118,1.897-2.076,3.408-3.013,4.745c-2.768,3.921-4.969,8.063-7.169,12.318
			c-1.344,2.611-2.511,4.991-3.172,7.665c-0.499,2.015-1.213,3.93-1.969,5.956c-0.217,0.585-0.434,1.169-0.643,1.747l-0.128,0.33
			c-0.08,0.199-0.158,0.398-0.23,0.608c-0.076,0.235-0.125,0.471-0.168,0.707l-0.019,0.108c-0.168,0.867,0.031,1.771,0.544,2.481
			c0.482,0.667,1.185,1.09,1.976,1.19c2.206,0.285,4.3,0.985,6.402,2.139c1.855,1.016,3.715,2.024,5.574,3.033l1.747,0.947
			c0.398,0.21,0.799,0.42,1.211,0.616c0.705,0.325,1.413,0.647,2.12,0.968c1.584,0.722,3.222,1.467,4.81,2.243
			c1.313,0.628,2.632,1.337,3.908,2.022l0.711,0.381c-0.795,0.358-1.606,0.745-2.379,1.261c-0.768,0.517-1.502,0.924-2.257,1.251
			l-0.25,0.109c-0.626,0.272-1.336,0.583-1.981,1.018c-0.968,0.651-2.087,1.125-3.162,1.581l-0.574,0.239
			c-1.867,0.778-3.799,1.583-5.654,2.511c-1.328,0.659-2.722,1.278-4.262,1.893c-1.527,0.613-3.065,1.198-4.604,1.782
			c-2.908,1.106-5.913,2.248-8.801,3.579c-0.236,0.107-0.482,0.182-0.727,0.258c-0.235,0.076-0.471,0.152-0.71,0.242l-1.651,0.633
			c-1.244,0.476-2.486,0.95-3.729,1.444c-1.471,0.59-2.938,1.206-4.414,1.824l-1.395,0.585c-0.078-0.016-0.155-0.03-0.234-0.045
			c-0.44-0.084-0.856-0.163-1.167-0.302c-2.655-1.186-5.244-2.354-7.737-3.609c-1.232-0.62-2.445-1.277-3.659-1.932
			c-2.234-1.207-4.544-2.454-6.96-3.471c-0.296-0.126-0.576-0.286-0.857-0.443c-0.253-0.143-0.507-0.283-0.763-0.409
			c-0.255-0.126-0.51-0.257-0.766-0.388c-0.71-0.365-1.444-0.742-2.225-1.047c-0.711-0.274-1.419-0.56-2.126-0.845
			c-1.953-0.788-3.973-1.602-6.064-2.215c-0.118-0.035-0.239-0.077-0.362-0.124c0.385-0.276,0.769-0.549,1.155-0.823
			c1.993-1.415,4.053-2.876,5.926-4.607c0.074-0.069,0.221-0.16,0.375-0.257c0.192-0.119,0.384-0.24,0.545-0.364l0.385-0.285
			c1.414-1.046,2.827-2.093,4.241-3.15c0.58-0.433,1.15-0.882,1.722-1.333c1.28-1.008,2.489-1.962,3.804-2.744
			c1.124-0.678,2.207-1.416,3.255-2.128c0.785-0.533,1.57-1.068,2.375-1.58c0.902-0.571,1.69-1.253,2.452-1.911
			c0.232-0.199,0.462-0.398,0.699-0.598c1.093-0.919,1.429-2.215,0.943-3.653c-1.577-4.592-3.504-9.38-6.249-15.525
			c-2.31-5.167-5.161-10.239-8.715-15.504c-0.667-0.991-1.322-1.989-1.978-2.988l-1.177-1.789c-0.072-0.11-0.139-0.225-0.207-0.339
			c-0.231-0.388-0.493-0.828-0.884-1.22l-0.773-0.792c-1.014-1.045-2.062-2.125-3.228-3.09c-0.728-0.604-1.398-1.283-2.108-2.003
			c-1.204-1.22-2.447-2.479-3.983-3.382c-0.036-0.032-0.065-0.073-0.134-0.16c-1.454-1.748-3.131-3.225-4.752-4.653
			c-0.844-0.744-1.718-1.514-2.548-2.316c-0.371-0.344-0.759-0.641-1.115-0.913l-1.813-1.35c-0.675-0.501-1.352-1.004-2.023-1.507
			c-0.931-0.702-1.886-1.299-2.921-1.828c-2.432-1.24-4.858-1.301-7.412-0.188c-2.327,1.018-4.618,2.154-6.835,3.252
			c-1.566,0.778-3.132,1.555-4.717,2.294c-2.037,0.948-4.078,1.955-6.051,2.93l-1.452,0.716c-0.585,0.289-1.174,0.572-1.763,0.854
			c-1.625,0.779-3.305,1.586-4.894,2.543c-2.192,1.317-4.482,2.424-7.246,3.68c-0.982,0.445-1.944,0.945-2.874,1.43l-0.348,0.181
			c-0.621,0.327-1.241,0.661-1.86,0.994c-2.127,1.146-4.325,2.328-6.657,3.307c-0.835,0.353-1.781,0.752-2.568,1.462
			c-0.67,0.618-1.491,1.004-2.442,1.451l-0.192,0.091c-0.277,0.133-0.564,0.248-0.849,0.364c-0.519,0.211-1.056,0.43-1.598,0.748
			c-2.003,1.192-4.137,2.063-6.397,2.984c-0.616,0.252-1.233,0.503-1.846,0.761c-0.873,0.367-1.755,0.783-2.7,1.273
			c-1.249,0.646-2.49,1.311-3.731,1.975c-2.366,1.268-4.815,2.577-7.277,3.742c-2.071,0.991-4.081,2.139-6.025,3.249
			c-0.907,0.519-1.815,1.037-2.729,1.54l-0.234,0.159c-1.742,1.441-3.752,2.467-5.88,3.552c-0.522,0.267-1.045,0.533-1.568,0.81
			c-0.999,0.53-1.955,1.122-2.879,1.692c-0.431,0.268-0.862,0.534-1.298,0.794l-0.174,0.104l-0.139,0.146
			c-0.735,0.77-1.627,1.407-2.573,2.081c-1.152,0.825-2.344,1.676-3.341,2.829c-0.143,0.159-0.469,0.343-0.785,0.521
			c-0.155,0.088-0.309,0.175-0.428,0.248c-1.608,0.932-3.287,2.003-4.681,3.521c-0.298,0.323-0.603,0.583-0.902,0.77
			c-0.731,0.447-1.263,1.015-1.732,1.515c-0.136,0.145-0.272,0.291-0.412,0.43c-1.335,1.329-2.273,2.862-3.18,4.344
			c-0.457,0.745-0.911,1.445-1.385,2.116c0.866-1.641,1.767-3.321,2.845-4.767c1.657-2.204,3.437-4.395,5.16-6.511
			c0.796-0.979,1.591-1.957,2.378-2.939c0.661-0.824,1.36-1.602,2.1-2.426c1.204-1.341,2.449-2.729,3.495-4.297
			c1.343-1.997,2.996-3.703,4.745-5.511l0.767-0.793c1.099-1.148,2.235-2.338,3.296-3.602c0.992-1.191,1.941-2.431,2.859-3.629
			c1.421-1.857,2.891-3.777,4.492-5.466c0.456-0.467,0.816-0.979,1.151-1.47c0.458-0.679,1.01-1.305,1.595-1.967l0.311-0.354
			c2.077-2.385,4.293-4.954,6.429-7.607c0.407-0.507,0.801-1.024,1.195-1.542c0.71-0.933,1.381-1.813,2.128-2.641
			c0.906-1.003,1.702-2.084,2.472-3.129c0.31-0.421,0.62-0.843,0.945-1.268c0.178-0.237,0.35-0.48,0.522-0.724
			c0.309-0.441,0.602-0.857,0.926-1.215c0.444-0.496,0.914-0.972,1.383-1.446c0.893-0.905,1.817-1.839,2.587-2.919
			c0.581-0.808,1.292-1.518,2.045-2.27c0.668-0.666,1.359-1.355,1.984-2.146c0.272-0.343,0.667-0.655,1.086-0.986
			c0.629-0.496,1.337-1.053,1.869-1.891c1.55-1.511,2.956-3.142,4.318-4.721c0.398-0.462,0.797-0.925,1.196-1.381
			c1.929-2.191,3.677-4.165,5.531-6.117c2.537-2.668,4.479-4.965,6.103-7.218c0.415-0.566,0.836-1.129,1.256-1.69
			c0.665-0.891,1.33-1.78,1.971-2.68l0.299-0.416c1.017-1.412,2.068-2.872,3.021-4.377c0.482-0.762,0.905-1.543,1.314-2.302
			c0.455-0.841,0.885-1.636,1.377-2.379c0.919-1.379,1.866-2.9,2.896-4.653c0.442-0.756,0.776-1.519,1.098-2.258
			c0.316-0.723,0.615-1.406,0.983-2.011c0.699-1.127,1.231-2.278,1.627-3.524c0.184-0.592,0.381-1.045,0.598-1.384
			c0.676-1.048,1.144-2.139,1.597-3.193l0.324-0.75c0.552-1.243,1.094-2.49,1.636-3.736c0.391-0.901,0.782-1.8,1.177-2.698
			c1.722-3.918,3.982-7.578,5.963-10.634l0.219-0.335c0.617-0.935,1.254-1.903,1.651-3.044c0.47-1.358,1.118-2.634,1.804-3.986
			c0.275-0.54,0.548-1.08,0.809-1.622c0.618-1.274,1.385-2.482,2.196-3.761c0.396-0.624,0.792-1.249,1.174-1.888
			c0.506-0.854,1.031-1.694,1.557-2.536c1.102-1.765,2.241-3.589,3.199-5.526c0.513-1.04,1.047-2.064,1.579-3.084l0.597-1.148
			c0.403-0.779,0.625-1.574,0.677-2.437c0.046-0.85,0.087-1.701,0.127-2.552c0.12-2.487,0.242-5.057,0.542-7.535
			c0.493-3.917,0.657-6.697,0.49-8.265l-0.084-3.907c-0.063-2.975-0.114-5.394-0.185-7.805l-0.016-0.883
			c-0.021-1.24-0.041-2.523-0.288-3.801c-0.196-1.057-0.317-2.117-0.446-3.239c-0.114-1.002-0.233-2.038-0.41-3.07
			c-0.109-0.635-0.214-1.27-0.319-1.904c-0.245-1.477-0.49-2.952-0.778-4.417c-0.155-0.801-0.469-1.531-0.748-2.173l-0.094-0.219
			c-0.456-1.073-1.447-1.714-2.65-1.714c-1.826,0-3.309,0.287-4.661,0.901c-2.154,0.961-3.945,2.127-5.473,3.564
			c-0.672,0.628-1.457,1.345-2.269,1.895c-1.697,1.152-3.208,2.684-4.63,4.697c-0.831,1.199-1.692,2.377-2.55,3.551l-0.408,0.559
			c-1.879,2.576-3.284,5.031-4.298,7.507l-0.374,0.913c-1.198,2.928-2.437,5.955-3.358,9.107c-0.445,1.537-1.049,3.197-1.907,5.237
			c-0.672,1.636-1.414,3.288-2.131,4.885c-0.357,0.793-0.713,1.586-1.054,2.36l-0.094,0.201c-0.215,0.462-0.459,0.986-0.594,1.609
			c-0.262,1.313-0.836,2.547-1.442,3.855l-0.269,0.581c-0.212,0.457-0.37,0.911-0.523,1.35c-0.094,0.27-0.188,0.542-0.295,0.805
			l-0.198,0.494c-0.287,0.718-0.558,1.396-0.885,2.04c-0.552,1.107-1.11,2.209-1.669,3.313c-1.587,3.134-3.227,6.375-4.686,9.651
			c-0.728,1.622-1.492,3.231-2.254,4.837c-0.513,1.081-1.027,2.162-1.529,3.248c-0.201,0.436-0.387,0.877-0.574,1.321
			c-0.271,0.644-0.527,1.252-0.825,1.825c-0.645,1.236-1.322,2.461-2,3.686c-0.453,0.821-0.906,1.643-1.353,2.47
			c-0.638,1.191-1.298,2.373-1.96,3.554c-1.354,2.421-2.754,4.924-3.949,7.517c-0.119,0.259-0.284,0.527-0.46,0.812l-0.088,0.144
			c-0.81,1.326-1.548,2.698-2.262,4.024c-0.909,1.688-1.767,3.284-2.784,4.833c-0.178,0.281-0.326,0.58-0.47,0.882
			c-0.059,0.122-0.117,0.244-0.186,0.374c-1.02,1.97-2.037,3.945-3.054,5.921l-2.215,4.297c-0.18,0.347-0.357,0.694-0.534,1.042
			c-0.456,0.895-0.885,1.74-1.368,2.56c-1.375,2.338-2.819,4.673-4.308,7.069c-0.236,0.388-0.497,0.761-0.757,1.132
			c-0.412,0.593-0.839,1.203-1.204,1.899c-0.522,1.007-1.176,1.941-1.868,2.93c-0.218,0.312-0.435,0.621-0.643,0.927
			c-0.527,0.762-1.063,1.521-1.626,2.26c-1.299,1.688-2.99,3.93-4.557,6.278c-0.892,1.331-1.9,2.651-2.874,3.928
			c-0.488,0.639-0.976,1.277-1.458,1.929l-0.08,0.107c-0.268,0.361-0.603,0.813-0.797,1.394c-0.271,0.826-0.843,1.568-1.449,2.354
			l-0.346,0.451c-0.625,0.833-1.275,1.791-2.039,3.012c-0.653,1.035-1.299,2.075-1.946,3.115c-0.925,1.488-1.85,2.979-2.797,4.453
			c-0.34,0.53-0.732,1.042-1.146,1.585c-0.302,0.396-0.603,0.789-0.894,1.202l-0.069,0.101c-0.364,0.523-0.778,1.119-1.058,1.795
			c-0.517,1.21-1.212,2.317-2.116,3.379c-0.807,0.934-1.487,1.881-2.025,2.812c-0.567,0.987-1.206,1.926-1.884,2.919
			c-1.248,1.83-2.538,3.723-3.342,5.911c-0.917,1.004-1.477,2.133-2.019,3.228c-0.142,0.286-0.284,0.57-0.434,0.856
			c-1.003,1.919-2.205,3.721-3.449,5.547c-1.384,2.023-2.649,3.785-3.865,5.388c-1.41,1.847-2.554,3.806-3.7,5.815
			c-0.377,0.662-0.779,1.31-1.18,1.957c-0.659,1.064-1.339,2.164-1.911,3.31c-0.03,0.041-0.065,0.079-0.098,0.116l-0.142,0.171
			c-1.657,2.133-2.962,4.396-4.376,6.922c-1.432,2.571-2.561,5.282-3.653,7.904c-0.297,0.714-0.594,1.427-0.897,2.138
			c-0.458,1.074-0.645,2.189-0.827,3.269c-0.076,0.448-0.151,0.896-0.243,1.313c-0.011,0.048-0.027,0.095-0.042,0.142
			c-0.065,0.202-0.123,0.404-0.148,0.586c-0.078,0.482-0.171,0.964-0.264,1.446c-0.233,1.217-0.475,2.475-0.505,3.78
			c-0.014,0.487-0.039,0.979-0.064,1.469c-0.108,2.125-0.22,4.319,0.494,6.515v0.01c-0.003,0.17,0,0.342,0.022,0.497l0.311,2.372
			c0.291,2.239,0.592,4.556,0.965,6.824c0.196,1.241,0.628,2.385,1.045,3.492l0.053,0.142c0.427,1.131,1.281,2.039,2.462,2.624
			c0.616,0.308,1.17,0.418,1.647,0.418c0.466,0,0.857-0.104,1.163-0.23c1.758-0.751,2.832-1.829,3.282-3.287
			c0.333-1.057,0.602-2.16,0.799-3.296c0.322-1.935,0.694-3.984,1.392-5.933c0.362-1.009,0.785-2.361,0.847-3.878
			c0.008-0.252,0.135-0.611,0.27-0.992l0.146-0.424c1.604-4.855,3.747-9.605,5.89-14.222c-0.312,0.959-0.597,1.919-0.873,2.864
			l-0.188,0.642c-0.393,1.298-0.553,2.623-0.658,3.752c-0.183,2.037-0.115,4.06-0.051,6.014c0.017,0.499,0.033,0.998,0.046,1.497
			c0.061,2.418,0.771,4.9,2.111,7.378c0.863,1.592,1.889,3.087,2.88,4.532l0.49,0.713c0.401,0.574,0.889,1.058,1.321,1.484
			l0.365,0.366c0.235,0.231,0.671,0.665,1.288,0.763c0.884,0.171,1.736,0.619,2.636,1.093c0.865,0.456,1.76,0.929,2.784,1.223
			c0.347,0.103,0.79,0.246,1.146,0.45c1.295,0.745,2.615,1.118,3.976,1.468c3.257,0.809,6.822,1.653,10.895,2.585
			c1.983,0.458,4.12,0.937,6.306,1.334c2.38,0.437,4.93,0.938,7.8,1.534c2.187,0.446,4.769,1.002,7.329,1.72
			c0.1,0.029,0.198,0.061,0.296,0.094c0.332,0.109,0.745,0.245,1.245,0.293c0.656,0.048,1.326,0.26,2.035,0.485
			c0.244,0.077,0.488,0.154,0.723,0.224l0.247,0.075c2.363,0.715,4.807,1.453,7.28,1.939c2.348,0.474,4.714,1.122,7.003,1.75
			l1.859,0.508c1.388,0.378,2.798,0.848,4.161,1.303c1.141,0.38,2.28,0.76,3.435,1.099c0.87,0.252,1.728,0.539,2.586,0.824
			c1.983,0.658,4.032,1.339,6.227,1.632c1.163,0.161,2.312,0.448,3.529,0.751c0.651,0.163,1.301,0.325,1.957,0.47
			c0.622,0.136,1.238,0.307,1.853,0.477c1.349,0.374,2.746,0.761,4.289,0.836c1.059,0.657,2.156,0.798,3.129,0.923
			c0.235,0.03,0.47,0.061,0.715,0.101c0.405,0.064,0.808,0.13,1.212,0.195c-0.026,0.028-0.051,0.055-0.077,0.081
			c-0.86,0.912-1.672,1.772-2.612,2.481c-0.482,0.361-0.956,0.735-1.429,1.109c-1.417,1.122-2.755,2.183-4.255,2.837
			c-0.303,0.12-0.507,0.302-0.621,0.41c-2.165,1.567-4.753,3.356-7.578,4.787c-1.025,0.525-2.023,1.103-2.988,1.66l-0.981,0.564
			c-2.548,1.452-4.546,2.795-6.287,4.222c-3.632,2.97-5.728,7.048-6.99,9.856c-0.221,0.496-0.405,1.009-0.587,1.522
			c-0.241,0.68-0.468,1.323-0.793,1.882c-0.661,1.146-0.616,2.302-0.514,3.38c0.136,1.557,1.551,2.951,3.113,3.047l0.456,0.027
			c0.766,0.047,1.634,0.101,2.495-0.102c2.548-0.577,5.494-1.313,8.229-2.745c2.195-1.156,4.57-1.813,7.085-2.509
			c0.711-0.197,1.422-0.395,2.13-0.603c1.912-0.136,3.699-0.622,5.427-1.094c0.512-0.141,1.023-0.278,1.537-0.408
			c1.957-0.497,3.918-1.058,5.815-1.6c2.325-0.665,4.729-1.353,7.155-1.926c0.704-0.16,1.58-0.36,2.313-0.925
			c0.851-0.663,1.909-1.028,3.028-1.417c0.301-0.104,0.601-0.209,0.898-0.318c0.862-0.316,1.701-0.677,2.511-1.023
			c0.361-0.155,0.723-0.31,1.091-0.462l2.645-1.109c0.272-0.111,0.543-0.221,0.814-0.33c0.64-0.257,1.275-0.512,1.906-0.81
			c1.922-0.914,3.843-1.837,5.765-2.76l2.874-1.38c0.203-0.097,0.405-0.2,0.608-0.307c0.346-0.178,0.672-0.347,0.958-0.447
			c1.949-0.658,3.718-1.611,5.428-2.533l0.832-0.446c1.861-1.001,3.808-1.948,5.689-2.862c0.658-0.319,1.316-0.64,1.965-0.96
			c0.758-0.367,1.568-0.547,2.436-0.529l0.539-0.002c0.343-0.003,0.682-0.005,1.021,0.002c0.713,0.014,1.426,0.032,2.139,0.053
			c2.363,0.062,4.81,0.128,7.24-0.004c1.841-0.1,3.748-0.045,5.592,0.007c0.767,0.021,1.532,0.043,2.291,0.055
			c0.31,0.005,0.62,0.006,0.931,0.006c1.211,0.003,2.355,0.007,3.42,0.339c0.525,0.16,1.045,0.162,1.431,0.157
			c0.154,0.001,0.306-0.003,0.469,0.013l1.283,0.114c0.636,0.06,1.27,0.118,1.897,0.165c2.655,0.208,5.351,0.625,7.959,1.029
			l1.418,0.219c1.541,0.239,3.086,0.459,4.631,0.681c2.719,0.388,5.531,0.788,8.256,1.292c2.422,0.449,4.886,0.85,7.268,1.235
			c3.087,0.502,6.278,1.021,9.389,1.649l1.641,0.327c3.951,0.779,7.684,1.517,11.185,3.259c0.189,0.09,0.393,0.159,0.598,0.223
			l0.169,0.055c1.397,0.466,2.806,1.035,4.167,1.587c2.062,0.835,4.191,1.696,6.438,2.273c0.189,0.048,0.432,0.162,0.687,0.281
			c0.201,0.094,0.401,0.186,0.62,0.272l0.551,0.223c0.431,0.175,0.863,0.349,1.292,0.491l0.496,0.168
			c3.346,1.129,6.805,2.296,10.35,3.123c1.239,0.283,2.536,0.65,3.604,1.396c0.639,0.447,1.337,0.71,1.955,0.94l0.396,0.15
			c4.631,1.79,8.903,3.47,13.065,5.135c2.926,1.167,5.956,2.136,8.884,3.071l2.085,0.67c1.135,0.372,2.263,0.557,3.37,0.557
			c0.723,0,1.437-0.078,2.139-0.236c0.983-0.216,1.892-0.971,2.43-2.02c0.533-1.039,0.612-2.161,0.216-3.081
			c-0.825-1.904-1.741-3.328-2.877-4.476c-0.473-0.481-0.934-0.974-1.395-1.466c-1.766-1.884-3.591-3.831-6.066-5.195
			c-0.085-0.046-0.156-0.115-0.232-0.178c-0.129-0.105-0.259-0.21-0.365-0.283c-0.511-0.372-1.015-0.752-1.519-1.133
			c-1.202-0.909-2.443-1.848-3.773-2.656c-2.708-1.649-5.375-3.677-8.145-6.191c-1.575-1.449-2.924-2.505-4.249-3.324
			c-1.531-0.944-2.798-2.071-3.873-3.444c-0.402-0.517-0.816-1.026-1.23-1.538c-1.128-1.387-2.192-2.697-3.031-4.175
			c-0.536-0.937-1.22-1.99-2.224-2.7c-0.852-0.603-1.597-1.349-2.385-2.139c-0.399-0.402-0.799-0.802-1.22-1.192l-0.127-0.116
			c-0.454-0.417-0.968-0.891-1.57-1.259c-2.071-1.3-4.14-2.294-6.233-2.987c0.418-0.062,0.819-0.145,1.215-0.224
			c0.56-0.112,1.089-0.22,1.596-0.253c2.04-0.14,3.994-0.582,5.882-1.007c0.513-0.116,1.024-0.231,1.543-0.342
			c0.903-0.197,1.803-0.408,2.702-0.619c2.149-0.503,4.371-1.024,6.567-1.323c0.569-0.079,1.135-0.191,1.698-0.305
			c0.972-0.197,1.881-0.397,2.796-0.36c0.622,0.014,1.119-0.136,1.542-0.256c0.128-0.037,0.256-0.073,0.347-0.094
			c0.275-0.057,0.55-0.126,0.825-0.195c0.426-0.108,0.828-0.21,1.188-0.239c2.999-0.249,5.833-1.137,8.714-2.103
			c1.684-0.565,3.39-0.95,5.195-1.358c1.214-0.273,2.47-0.557,3.712-0.899c0.912-0.256,1.836-0.455,2.816-0.666
			c0.598-0.129,1.195-0.258,1.776-0.398c1.076-0.248,2.212-0.584,3.228-1.352c0.268-0.207,0.683-0.321,1.163-0.455l0.405-0.114
			c0.76-0.224,1.524-0.43,2.292-0.637l0.76-0.205c0.992-0.271,1.975-0.581,2.958-0.891c1.031-0.325,2.097-0.662,3.138-0.936
			c4.601-1.207,9.362-2.838,14.984-5.132c1.459-0.592,2.884-1.272,4.263-1.929c0.534-0.255,1.069-0.511,1.627-0.771
			c0.244-0.119,0.472-0.261,0.698-0.404l0.224-0.142c0.34-0.199,0.676-0.402,1.011-0.604c0.762-0.461,1.479-0.896,2.229-1.271
			c2.194-1.109,4.134-2.29,5.966-3.636c1.305-0.963,2.654-1.958,4.041-2.734c1.24-0.695,2.429-1.558,3.854-2.792
			c1.156-0.994,2.481-2.177,3.575-3.643c0.604-0.813,1.305-1.568,2.047-2.369c0.423-0.456,0.846-0.912,1.255-1.385
			c2.756-3.188,5.156-6.9,7.139-11.034c0.684-1.436,1.462-3.368,1.386-5.593c-0.009-0.378,0.029-0.789,0.068-1.227
			c0.04-0.427,0.077-0.854,0.082-1.276l0.009-0.479c0.029-1.419,0.062-3.028-0.621-4.546
			C383.951,420.761,383.118,419.327,382.312,417.941 M8.272,463.053c-0.37,1.02-0.623,2.102-0.795,3.391
			c-0.133,0.938-0.26,1.705-0.395,2.395c-0.101-0.257-0.178-0.518-0.217-0.78c-0.311-2.038-0.569-4.139-0.819-6.168l-0.015-0.121
			c-0.121-0.974-0.237-1.946-0.354-2.919c-0.124-1.035-0.248-2.069-0.377-3.103c-0.021-0.172-0.061-0.347-0.103-0.519
			c-0.01-0.036-0.02-0.072-0.027-0.107c0.168-1.209,0.227-2.415,0.285-3.582c0.1-2.055,0.196-3.998,0.881-5.881
			c0.082-0.233,0.195-0.55,0.23-0.927c0.221-2.399,1.235-4.584,2.31-6.898l0.416-0.898c0.96-2.089,1.867-4.063,3.032-5.94
			c0.158-0.26,0.306-0.523,0.456-0.788c0.203-0.361,0.404-0.723,0.644-1.072c1.685-2.491,3.251-5.09,4.766-7.602
			c0.886-1.47,1.772-2.938,2.682-4.389c1.199-1.905,2.469-3.704,3.775-5.348c2.252-2.836,4.042-5.953,5.816-9.045l0.783-1.367
			c1.24-2.171,2.523-4.414,3.903-6.521c1.103-1.694,2.144-3.444,3.151-5.136c0.865-1.452,1.759-2.954,2.674-4.392
			c0.256-0.397,0.506-0.803,0.756-1.21c0.642-1.044,1.249-2.028,1.97-2.896c1.649-2.001,3.032-4.171,4.37-6.269
			c0.548-0.858,1.095-1.716,1.658-2.561c0.276-0.413,0.563-0.819,0.848-1.227c0.64-0.91,1.303-1.853,1.865-2.866
			c1.167-2.085,2.562-3.975,4.039-5.974c0.692-0.937,1.386-1.875,2.052-2.832c1.26-1.803,2.544-3.585,3.828-5.365
			c1.143-1.584,2.285-3.17,3.411-4.771c1.836-2.621,3.454-5.095,4.944-7.564c1.189-1.963,2.277-4.002,3.33-5.972l0.578-1.083
			c0.245-0.455,0.495-0.906,0.745-1.357c0.867-1.567,1.763-3.187,2.447-4.938c1.027-1.588,1.889-3.256,2.723-4.87
			c0.814-1.577,1.584-3.065,2.5-4.501c0.907-1.428,1.682-2.932,2.432-4.387c0.371-0.72,0.743-1.441,1.128-2.149
			c0.201-0.365,0.406-0.729,0.612-1.093c0.751-1.33,1.526-2.704,2.086-4.219c0.109-0.288,0.239-0.609,0.381-0.813
			c1.239-1.749,2.223-3.626,3.174-5.44c0.386-0.736,0.772-1.474,1.175-2.2c0.266-0.482,0.537-0.961,0.809-1.441
			c1.43-2.528,2.911-5.143,3.656-8.159c0.056-0.233,0.159-0.464,0.299-0.666c1.558-2.273,2.606-4.762,3.619-7.166l0.462-1.092
			c0.419-0.978,0.915-1.96,1.341-2.786c0.614-1.179,1.235-2.35,1.856-3.521c0.624-1.178,1.248-2.357,1.859-3.53
			c0.379-0.712,0.77-1.477,1.024-2.285c0.477-1.49,1.133-2.91,1.777-4.236c0.457-0.967,0.778-1.842,0.982-2.678
			c0.291-1.199,0.794-2.339,1.328-3.544l0.987-2.25c1.133-2.578,2.304-5.243,3.27-7.955c0.385-1.078,0.729-2.172,1.073-3.266
			c0.326-1.039,0.652-2.079,1.015-3.1c0.66-1.827,1.506-3.646,2.326-5.405c0.461-0.991,0.923-1.983,1.357-2.982
			c0.313-0.717,0.897-1.439,1.462-2.138l0.117-0.146c0.984-1.209,2.024-2.514,2.959-3.993c1.207-1.932,2.434-3.275,3.863-4.229
			c0.804-0.538,1.508-1.158,2.189-1.758c0.22-0.194,0.438-0.387,0.664-0.579c1.182-1.017,2.62-1.765,4.545-2.362
			c0.089-0.029,0.297-0.028,0.489-0.024c0.089,0.516,0.181,1.033,0.273,1.55c0.256,1.449,0.521,2.948,0.729,4.412
			c0.195,1.415,0.349,2.833,0.503,4.252c0.098,0.9,0.195,1.8,0.304,2.703c0.282,2.345,0.251,4.678,0.217,7.149
			c-0.018,1.373-0.038,2.793,0.003,4.2c0.016,0.627,0.044,1.255,0.073,1.883c0.057,1.302,0.112,2.531,0.067,3.77
			c-0.061,1.839-0.216,3.721-0.366,5.542l-0.138,1.696c-0.016,0.176-0.052,0.351-0.085,0.524c-0.066,0.354-0.141,0.753-0.141,1.197
			c0,1.125-0.127,2.249-0.261,3.437c-0.081,0.723-0.162,1.447-0.216,2.175c-0.094,1.306-0.432,2.516-1.027,3.692
			c-1.609,3.128-3.57,6.811-5.923,10.416c-1.471,2.257-3.339,5.274-4.744,8.603c-0.696,1.632-1.527,3.312-2.463,4.985
			c-0.726,1.276-1.519,2.553-2.286,3.786c-0.506,0.815-1.013,1.63-1.501,2.445c-0.6,0.982-1.062,1.822-1.453,2.643
			c-1.396,2.917-2.55,5.529-3.531,7.986c-0.494,1.247-1.092,2.45-1.724,3.723c-0.275,0.555-0.549,1.107-0.821,1.675
			c-0.082,0.177-0.171,0.352-0.259,0.526c-0.213,0.42-0.434,0.856-0.611,1.361c-1.1,3.213-2.78,6.098-4.557,9.154l-0.469,0.805
			c-0.368,0.629-0.769,1.238-1.169,1.847c-0.84,1.279-1.708,2.601-2.321,4.117c-0.052,0.125-0.219,0.343-0.34,0.504
			c-0.618,0.854-1.233,1.71-1.847,2.565c-1.647,2.295-3.351,4.668-5.09,6.943c-1.257,1.646-2.72,3.206-4.114,4.666
			c-1.947,2.044-4.006,4.324-6.478,7.174c-3.332,3.85-6.832,7.387-10.403,10.512c-0.55,0.48-1.168,1.073-1.59,1.831
			c-0.704,1.288-1.684,2.529-3.091,3.915c-1.953,1.941-3.584,4.105-5.22,6.335c-0.864,1.173-1.818,2.333-2.739,3.454
			c-0.803,0.976-1.633,1.983-2.425,3.027c-0.122,0.164-0.254,0.317-0.385,0.473c-0.228,0.269-0.453,0.538-0.658,0.839
			c-1.559,2.32-3.482,4.402-5.207,6.22c-0.846,0.897-1.72,1.825-2.359,3.102c-0.205,0.426-0.554,0.878-1.027,1.33
			c-1.275,1.201-2.354,2.656-3.487,4.706c-0.083,0.146-0.16,0.298-0.238,0.451c-0.094,0.188-0.238,0.472-0.313,0.543
			c-0.885,0.831-1.658,1.733-2.405,2.606c-0.845,0.986-1.643,1.919-2.562,2.715c-2.318,2.013-4.954,4.495-6.915,7.64
			c-0.42,0.665-0.887,1.229-1.36,1.644c-1.324,1.182-2.355,2.544-3.352,3.861c-0.431,0.571-0.863,1.143-1.313,1.688l-0.407,0.488
			c-1.144,1.374-2.328,2.795-3.456,4.229c-0.318,0.402-0.639,0.802-0.962,1.203c-1.213,1.511-2.469,3.075-3.566,4.746
			c-0.816,1.243-1.428,2.573-2.019,3.858c-0.222,0.481-0.443,0.963-0.674,1.437l-0.001,0.002c-0.103,0.209-0.173,0.432-0.236,0.657
			c-0.014,0.054-0.027,0.107-0.028,0.119c-1.081,1.779-1.921,3.661-2.732,5.479c-0.444,0.994-0.887,1.988-1.37,2.963
			c-0.932,1.881-1.677,3.829-2.399,5.71c-0.189,0.497-0.38,0.995-0.577,1.499l-0.081,0.211c-0.348,0.908-0.698,1.822-1.068,2.705
			c-0.722,1.688-1.215,3.285-1.507,4.889C9.198,460.127,8.798,461.6,8.272,463.053 M369.294,446.701
			c-0.746,0.567-1.441,1.289-2.06,2.13c-0.679,0.901-1.613,1.593-2.514,2.224c-2.403,1.683-4.9,3.376-7.629,5.174
			c-0.776,0.507-1.602,0.957-2.474,1.435c-0.348,0.189-0.696,0.378-1.032,0.568c-0.26,0.144-0.526,0.28-0.793,0.417
			c-0.503,0.257-1.023,0.521-1.54,0.852c-4.49,2.879-9.391,4.844-15.374,6.908c-2.321,0.808-4.742,1.489-7.083,2.147
			c-1.574,0.442-3.202,0.899-4.796,1.395l-2.554,0.794c-1.383,0.431-2.768,0.863-4.169,1.287c-0.563,0.175-1.126,0.33-1.69,0.484
			c-0.669,0.184-1.338,0.368-1.996,0.578c-2.317,0.731-4.729,1.347-7.06,1.941c-2.122,0.541-4.316,1.101-6.477,1.755
			c-0.402,0.126-0.798,0.278-1.192,0.431c-0.307,0.116-0.611,0.235-0.907,0.332l-0.172,0.054c-0.381,0.121-0.74,0.233-1.041,0.252
			c-2.913,0.216-5.769,0.785-8.528,1.336c-0.671,0.134-1.342,0.267-2.014,0.396c-0.995,0.192-1.995,0.363-2.995,0.534
			c-1.605,0.276-3.264,0.562-4.903,0.926c-0.688,0.156-1.375,0.322-2.06,0.489c-1.71,0.414-3.326,0.807-4.994,1.039
			c-0.536,0.074-1.074,0.161-1.612,0.248c-0.408,0.066-0.818,0.132-1.23,0.193c-1.153,0.169-2.306,0.333-3.456,0.497
			c-1.164,0.166-2.328,0.332-3.498,0.504c-2.915,0.435-5.838,1.017-8.663,1.578c-1.727,0.344-3.452,0.688-5.179,0.999
			c-1.511,0.269-3.017,0.568-4.521,0.868c-0.902,0.182-1.806,0.361-2.707,0.533c-3.351,0.635-6.918,1.063-10.899,1.308
			c-3.642,0.218-8.43,0.579-13.174,1.45c-1.047,0.187-2.138,0.327-3.192,0.464c-0.497,0.064-0.994,0.129-1.521,0.201
			c-0.545,0.082-1.091,0.165-1.631,0.27c-4.007,0.78-7.503,1.594-10.698,2.491c-1.126,0.323-2.326,0.579-3.487,0.824
			c-0.469,0.101-0.938,0.199-1.428,0.31c-0.192,0.046-0.386,0.087-0.579,0.128c-0.448,0.096-0.912,0.195-1.398,0.354
			c-1.486,0.488-3.039,0.896-4.542,1.289c-1.029,0.271-2.057,0.539-3.074,0.835c-1.219,0.351-2.493,0.63-3.724,0.9
			c-1.111,0.244-2.26,0.496-3.392,0.803c-0.102,0.028-0.212,0.04-0.319,0.057c-0.336,0.05-0.755,0.111-1.17,0.315
			c-1.152,0.542-2.333,0.99-3.582,1.464c-1.557,0.592-3.166,1.202-4.718,2.01c-0.856,0.443-1.727,0.863-2.6,1.286
			c-0.941,0.455-1.883,0.912-2.772,1.375c-0.076,0.037-0.156,0.066-0.234,0.098c-0.23,0.088-0.515,0.198-0.81,0.392
			c-2.163,1.421-4.504,2.45-6.982,3.538c-1.432,0.629-2.911,1.278-4.343,2.007l-0.531,0.271c-1.542,0.787-2.999,1.531-4.529,2.103
			c-1.827,0.688-3.628,1.466-5.37,2.219c-1.808,0.78-3.678,1.589-5.542,2.279l-0.147,0.055c-1.956,0.724-3.804,1.406-5.741,1.886
			c-0.67,0.165-1.287,0.396-1.882,0.62c-0.315,0.116-0.629,0.235-0.949,0.341c-3.963,1.307-8.23,2.404-13.428,3.455
			c-3.201,0.65-6.942,1.546-10.407,3.24c-1.088,0.527-2.238,1.012-3.349,1.479c-0.522,0.218-1.043,0.438-1.559,0.662
			c-0.651,0.28-1.425,0.351-2.244,0.426l-0.094,0.008c1.415-3.921,3.132-6.895,5.356-9.291c0.855-0.93,1.921-1.72,2.949-2.438
			c2.943-2.072,6.104-3.984,9.721-5.879c1.153-0.598,2.345-1.214,3.445-2.065c0.538-0.412,1.102-0.773,1.689-1.085
			c2.184-1.191,4.142-2.686,6.036-4.131l0.952-0.724c1.073-0.801,2.197-1.68,3.109-2.842c0.263-0.332,0.621-0.651,1.001-0.99
			c0.149-0.134,0.298-0.267,0.448-0.406c1.204-1.126,2.288-2.481,3.414-4.264c0.525-0.832,1.054-1.662,1.583-2.493
			c0.73-1.146,1.46-2.292,2.177-3.438c1.554-2.459,3.877-3.687,7.1-3.75c0.132-0.003,0.263-0.004,0.392-0.004
			c1.417,0,2.722,0.148,3.982,0.453c2.271,0.542,4.358,0.791,6.376,0.791c1.22-0.016,2.171-0.208,3.084-0.625
			c2.158-0.984,4.459-1.807,6.684-2.603c1.331-0.476,2.662-0.952,3.98-1.467c0.722-0.281,1.444-0.596,2.151-0.934
			c3.378-1.62,6.23-2.82,8.99-3.781c0.596-0.214,1.162-0.472,1.675-0.763c1.472-0.825,3.01-1.479,4.638-2.171
			c0.539-0.23,1.077-0.459,1.616-0.695c1.237-0.547,2.505-1.225,4.111-2.201c1.558-0.943,2.975-1.768,4.531-2.29
			c1.285-0.432,2.302-0.875,3.194-1.388c1.973-1.125,4.054-1.958,6.257-2.841l0.252-0.103c1.08-0.435,2.173-0.841,3.266-1.248
			c1.98-0.736,4.028-1.499,6.011-2.44c1.734-0.833,3.642-1.49,5.486-2.127l0.916-0.317c2.789-0.965,5.737-2.206,9.278-3.905
			c1.431-0.685,2.832-1.345,4.252-1.876c1.855-0.687,3.592-1.599,5.27-2.48c1.822-0.959,3.543-1.864,5.387-2.493
			c0.598-0.2,1.06-0.468,1.395-0.802c0.635-0.612,1.518-0.981,2.454-1.371c0.623-0.26,1.265-0.527,1.897-0.888
			c1.719-0.584,3.426-1.24,5.078-1.875c2.392-0.918,4.863-1.867,7.336-2.586c0.864-0.25,1.723-0.518,2.58-0.785
			c1.913-0.598,3.72-1.161,5.589-1.545c0.615-0.124,1.184-0.308,1.732-0.484c0.472-0.154,0.92-0.297,1.355-0.39
			c1.636-0.35,3.263-0.776,4.837-1.188c1.956-0.513,3.981-1.042,5.981-1.413c2.253-0.416,4.495-0.959,6.663-1.484
			c1.019-0.247,2.038-0.494,3.049-0.727c0.894-0.198,1.785-0.388,2.677-0.578l1.371-0.292c0.599-0.131,1.192-0.267,1.784-0.401
			c0.753-0.174,1.504-0.345,2.259-0.508c2.494-0.537,4.99-1.066,7.506-1.58c0.286-0.063,0.597-0.09,0.875-0.076
			c1.072,0.053,2.076-0.092,3.043-0.229c0.431-0.063,0.859-0.125,1.3-0.167c2.105-0.208,3.994-0.341,5.816,0.168
			c0.647,0.17,1.273,0.157,1.826,0.143l0.128-0.003c1.183,0,2.3-1.142,2.3-2.318c0.014-0.629-0.192-1.537-1.219-2.272
			c-0.439-0.329-0.928-0.433-1.261-0.482c-3.361-0.499-6.429-0.504-9.368-0.02l-0.378,0.063c-0.349,0.059-0.682,0.136-0.941,0.108
			c-2.771-0.034-5.354,0.574-7.86,1.189l-0.874,0.213c-0.65,0.158-1.299,0.316-1.945,0.449c-4.218,0.854-8.71,1.792-13.189,3.025
			c-1.053,0.298-2.146,0.483-3.306,0.681c-0.527,0.09-1.056,0.181-1.586,0.282c-2.06,0.402-4.252,0.86-6.399,1.626l-0.109,0.039
			c-0.313,0.11-0.607,0.215-0.887,0.262c-2.86,0.531-5.67,1.325-8.387,2.093c-1.257,0.354-2.514,0.71-3.782,1.042
			c-2.644,0.698-5.233,1.608-7.738,2.488l-1.188,0.417c-1.518,0.536-3.033,1.138-4.5,1.72l-1.232,0.488
			c-0.284,0.117-0.352,0.071-0.401,0.038c-2.161-1.478-4.498-2.565-6.756-3.618c-1.196-0.558-2.432-1.133-3.594-1.746
			c-0.977-0.522-1.984-0.932-2.96-1.329c-0.415-0.169-0.831-0.338-1.243-0.516l-0.133-0.055c-0.071-0.027-0.146-0.049-0.22-0.093
			c-1.527-1.001-3.136-1.836-4.691-2.645c-0.891-0.462-1.779-0.925-2.65-1.415c-1.985-1.126-3.966-2.021-6.072-2.74
			c-0.139-0.046-0.281-0.086-0.428-0.125c-0.045-0.013-0.1-0.029-0.157-0.044c0.989-3.17,1.995-6.332,3-9.494l0.36-1.128
			c0.05-0.162,0.104-0.33,0.139-0.398c0.678-1.222,1.298-2.48,1.898-3.698c0.957-1.943,1.861-3.778,2.977-5.494l0.135-0.191
			c0.156-0.22,0.354-0.495,0.508-0.838c0.703-1.565,1.672-2.988,2.697-4.494c0.535-0.787,1.07-1.574,1.567-2.379
			c0.417-0.671,0.874-1.314,1.359-1.996c0.509-0.717,1.036-1.458,1.518-2.246c0.918-1.506,1.944-2.899,2.813-4.047
			c0.41-0.526,0.762-0.961,1.138-1.364c1.02-1.082,1.76-2.061,2.346-3.102c0.216-0.396,0.454-0.746,0.711-1.039
			c0.856-0.977,1.691-1.972,2.527-2.967c2.176-2.592,4.426-5.273,6.988-7.537l0.799-0.708c1.447-1.286,2.943-2.615,4.453-3.841
			c0.761-0.617,1.685-1.107,2.664-1.626l0.676-0.361c0.038-0.018,0.173-0.043,0.317-0.028c0.934,0.112,1.627,0.245,2.262,0.439
			c1.371,0.404,2.736,0.849,4.104,1.295l1.435,0.466c0.063,0.022,0.13,0.04,0.162,0.054c1.397,0.872,2.934,1.56,4.692,2.101
			c0.976,0.3,1.919,0.673,2.918,1.067c0.394,0.154,0.785,0.311,1.159,0.452c0.047,0.02,0.097,0.036,0.155,0.057
			c1.574,0.936,3.234,1.603,4.84,2.247c0.65,0.261,1.3,0.521,1.94,0.799c2.407,1.051,4.989,1.982,7.67,2.771
			c0.942,0.282,1.861,0.607,2.835,0.951c1.251,0.441,2.544,0.898,3.888,1.253c1.087,0.283,2.149,0.643,3.275,1.022
			c1.006,0.341,2.047,0.691,3.11,0.984c2.044,0.553,3.977,1.355,6.022,2.204l0.972,0.403c0.609,0.253,1.223,0.485,1.837,0.717
			c0.484,0.183,0.968,0.365,1.447,0.559c1.017,0.412,2.044,0.8,3.069,1.188c2.195,0.831,4.271,1.616,6.363,2.671
			c0.488,0.233,0.977,0.465,1.479,0.67l2.149,0.869c2.536,1.023,5.071,2.045,7.589,3.103c0.999,0.422,1.787,0.868,2.408,1.36
			c0.761,0.606,1.567,0.969,2.279,1.288l0.253,0.114c2.116,0.966,3.841,1.787,5.433,2.588c0.685,0.341,1.373,0.674,2.062,1.006
			c0.837,0.404,1.672,0.807,2.497,1.228c1.09,0.557,2.225,0.942,3.323,1.316c0.436,0.148,0.871,0.296,1.301,0.455
			c0.146,0.054,0.299,0.099,0.451,0.142c0.084,0.024,0.17,0.042,0.233,0.069c0.971,0.543,1.945,1.077,2.919,1.611
			c3.865,2.114,7.863,4.301,11.361,7.032c1.27,0.992,2.492,2.132,3.673,3.234l0.53,0.494c0.752,0.697,1.342,1.293,1.537,2.111
			c0.187,0.732,0.661,1.272,1.012,1.673c0.567,0.652,0.834,1.363,0.841,2.251l0.019,0.835c0.02,0.895,0.04,1.739,0.004,2.571
			c-0.043,0.823-0.067,1.705,0.146,2.639c0.101,0.425,0.009,0.898-0.271,1.404l-0.205,0.377c-1.726,3.173-3.356,6.169-5.618,8.8
			c-0.486,0.574-0.94,1.17-1.398,1.769l-0.32,0.422C371.082,444.9,370.299,445.935,369.294,446.701 M274.653,500.049
			c0.655,1.34,1.578,2.394,2.47,3.412c0.59,0.675,1.146,1.312,1.598,1.997c0.828,1.257,1.828,2.367,2.796,3.439l0.607,0.676
			c0.639,0.704,1.332,1.277,2.048,1.698l0.495,0.292c0.869,0.511,1.689,0.993,2.301,1.646l0.185,0.197l0.239,0.12
			c1.152,0.575,2.123,1.477,3.153,2.433c0.499,0.464,0.999,0.928,1.519,1.357c1.624,1.353,3.234,2.657,5.091,3.727
			c2.619,1.511,5.188,3.327,7.857,5.553c1.808,1.509,3.887,3.355,5.604,5.61c0.102,0.135,0.197,0.269,0.284,0.399
			c-3.558-0.824-7.977-1.987-12.211-3.773c-1.902-0.805-3.869-1.477-5.771-2.126c-0.908-0.31-1.815-0.62-2.706-0.94l-0.304-0.107
			c-0.266-0.092-0.594-0.206-0.719-0.307c-1.677-1.336-3.559-1.981-5.381-2.604c-0.563-0.194-1.129-0.387-1.709-0.611
			c-0.52-0.197-1.11-0.422-1.755-0.546c-2.38-0.453-4.651-1.212-7.057-2.014c-0.954-0.319-1.908-0.637-2.859-0.931
			c-0.476-0.152-0.956-0.352-1.464-0.562c-0.382-0.157-0.765-0.315-1.157-0.46c-0.761-0.277-1.522-0.547-2.285-0.817
			c-0.936-0.331-1.871-0.662-2.804-1.009c-0.782-0.292-1.56-0.597-2.339-0.902c-0.603-0.236-1.206-0.474-1.824-0.708
			c-2.102-0.78-4.193-1.552-6.294-2.32c-0.287-0.106-0.582-0.195-0.876-0.282c-0.295-0.087-0.589-0.17-0.86-0.286
			c-1.5-0.655-3.043-0.958-4.355-1.167c-1.026-0.161-2.032-0.397-3.098-0.648c-0.819-0.193-1.64-0.384-2.474-0.544
			c-0.48-0.09-0.962-0.189-1.441-0.288c-1.524-0.315-3.101-0.639-4.846-0.711l-1.384-0.261c-3.401-0.641-6.796-1.279-10.191-1.957
			c-0.322-0.063-0.646-0.135-0.966-0.204c-1.183-0.258-2.405-0.524-3.824-0.524c-0.181,0-0.395,0.001-0.517-0.03
			c-1.637-0.389-3.295-0.613-4.896-0.829c-1.369-0.186-2.662-0.359-3.952-0.631c-1.867-0.388-3.704-0.739-5.649-0.76
			c-0.235-0.004-0.517-0.048-0.817-0.094c-0.207-0.032-0.414-0.064-0.635-0.089l-0.736-0.078c-0.714-0.077-1.429-0.154-2.156-0.216
			c-0.278-0.02-0.557-0.02-0.84-0.015c-0.225,0.002-0.447,0.013-0.681-0.019c-2.353-0.287-4.631-0.399-6.814-0.325
			c0.007-0.002,0.015-0.004,0.022-0.006c2.023-0.522,4.113-1.063,6.176-1.537l0.2-0.062c1.991-0.765,4.043-1.27,6.214-1.807
			c1.053-0.259,2.104-0.519,3.148-0.809c1.481-0.409,3.023-0.62,4.656-0.842c0.699-0.097,1.397-0.19,2.084-0.302
			c0.307-0.048,0.618-0.082,0.928-0.116c0.546-0.061,1.11-0.124,1.688-0.249c2.618-0.563,5.349-0.891,7.991-1.206l1.019-0.122
			c1.753-0.218,3.563-0.313,5.313-0.405c0.851-0.044,1.702-0.089,2.519-0.146l0.111,0.004c0.177,0.009,0.439,0.02,0.738-0.038
			c1.259-0.236,2.518-0.392,3.85-0.556c1.641-0.2,3.34-0.408,5.017-0.783l1.242-0.277c2.311-0.521,4.7-1.057,7.077-1.338
			c0.884-0.11,1.52-0.063,2.145,0.16c0.231,0.079,0.467,0.148,0.701,0.217c0.257,0.075,0.516,0.148,0.748,0.238
			c1.23,0.487,2.401,0.519,3.703,0.506c3.422-0.041,6.313,0.403,8.832,1.37c2.101,0.809,3.526,1.665,4.614,2.776
			c0.764,0.784,1.567,1.527,2.347,2.245c0.389,0.36,0.78,0.72,1.173,1.093L274.653,500.049z M102.983,488.561
			c-0.874-0.289-1.744-0.593-2.614-0.896c-1.525-0.532-3.101-1.082-4.691-1.548c-1.564-0.465-3.155-0.869-4.694-1.259
			c-1.322-0.335-2.646-0.67-3.956-1.045c-1.445-0.416-2.917-0.778-4.341-1.128c-2.313-0.569-4.706-1.157-6.946-1.979
			c-0.323-0.119-0.665-0.216-1.134-0.32c-0.555-0.115-1.111-0.224-1.668-0.332c-0.791-0.154-1.584-0.309-2.37-0.483
			c-1.367-0.306-2.698-0.634-3.962-0.977c-2.108-0.559-4.395-1.05-6.981-1.496l-2.061-0.363c-1.61-0.283-3.223-0.566-4.82-0.872
			c-1.192-0.237-2.377-0.515-3.561-0.793l-1.044-0.244c-0.217-0.052-0.429-0.114-0.641-0.174c-0.418-0.119-0.851-0.242-1.321-0.317
			c-1.041-0.173-2.064-0.468-3.147-0.78c-1.402-0.405-2.853-0.824-4.359-0.976c-0.065-0.011-0.216-0.074-0.449-0.186l-1.467-0.702
			c-1.675-0.801-3.408-1.629-5.072-2.507c-2.095-1.091-3.75-2.755-4.92-4.947c-0.135-0.252-0.274-0.5-0.414-0.748
			c-0.448-0.793-0.871-1.542-1.055-2.336l-0.2-0.858c-0.382-1.617-0.741-3.146-0.636-4.678c0.049-0.719,0.038-1.415,0.027-2.089
			c-0.015-0.896-0.029-1.738,0.1-2.558l0.042-0.279c0.213-1.42,0.417-2.761,0.954-3.976c0.263-0.589,0.406-1.193,0.532-1.728
			c0.068-0.29,0.136-0.582,0.227-0.87c0.845-2.668,2.208-5.078,3.996-7.877c0.241-0.378,0.503-0.743,0.765-1.108
			c0.427-0.595,0.868-1.211,1.237-1.882c0.644-1.14,1.492-2.128,2.525-2.94c0.679-0.538,1.342-1.096,2.006-1.651
			c1.385-1.162,2.694-2.261,4.141-3.198c0.674-0.438,1.288-0.927,1.884-1.399c0.251-0.199,0.502-0.399,0.767-0.603
			c0.259-0.201,0.515-0.408,0.772-0.614c0.395-0.318,0.788-0.639,1.196-0.934l0.198-0.143c2.932-2.119,5.964-4.312,9.259-5.859
			c0.536-0.256,1.03-0.546,1.506-0.827l3.115-1.835c1.708-1.012,3.419-2.025,5.135-3.024c0.494-0.285,1.014-0.538,1.534-0.791
			l0.369-0.183c0.497-0.245,0.999-0.481,1.501-0.72c1.135-0.538,2.309-1.094,3.446-1.745c3.808-2.202,7.879-4.111,11.816-5.956
			l3.753-1.771c3.071-1.453,6.244-2.955,9.292-4.603c4.902-2.642,9.979-5.177,14.889-7.629l2.979-1.49
			c1.231-0.614,2.54-1.294,3.784-2.091c1.621-1.046,3.493-1.988,5.728-2.88c2.442-0.986,4.57-2.027,6.508-3.184
			c0.735-0.438,1.505-0.813,2.321-1.21l0.399-0.194c0.611-0.294,1.225-0.581,1.84-0.868c1.132-0.53,2.264-1.06,3.382-1.628
			c1.031-0.526,2.152-0.878,3.338-1.25c0.42-0.133,0.84-0.265,1.217-0.4h0.002c0.07,0,0.278,0.056,0.44,0.099
			c1.081,0.273,1.959,0.662,2.687,1.185l1.469,1.046c1.637,1.163,3.331,2.367,4.908,3.625c1.198,0.96,2.306,2.009,3.477,3.119
			c0.388,0.368,0.777,0.735,1.169,1.101c2.098,1.946,4.195,3.914,6.288,5.887c0.095,0.089,0.183,0.188,0.272,0.286
			c0.205,0.225,0.438,0.479,0.752,0.718c2.244,1.681,3.875,3.967,5.483,6.354c0.494,0.738,1.067,1.524,1.746,2.4
			c1.484,1.928,2.648,3.783,3.592,5.736c0.066,0.14,0.134,0.271,0.245,0.438c2.291,3.225,3.814,6.79,5.425,10.565
			c0.58,1.356,1.16,2.715,1.776,4.052c0.358,0.782,0.668,1.577,0.996,2.42c0.451,1.16,0.918,2.359,1.529,3.534
			c0.299,0.566,0.487,1.258,0.687,1.99c0.07,0.253,0.138,0.505,0.21,0.75c0.028,0.091,0.023,0.131,0.023,0.131
			c-0.001,0.002-0.017,0.036-0.078,0.095c-2.14,2.003-4.593,3.673-6.926,5.216c-0.156,0.104-0.315,0.201-0.472,0.296
			c-0.325,0.201-0.646,0.401-0.952,0.635c-1.496,1.15-2.987,2.308-4.479,3.464c-1.449,1.124-2.897,2.247-4.354,3.368
			c-0.991,0.768-2.006,1.484-2.778,2.024c-2.529,1.758-5.055,3.517-7.604,5.266c-0.463,0.317-0.892,0.38-1.469,0.224
			c-0.779-0.222-1.547-0.34-2.291-0.453c-0.328-0.051-0.655-0.101-0.969-0.159l-1.116-0.209c-1.084-0.204-2.164-0.405-3.243-0.633
			l-0.131-0.029c-1.967-0.42-4-0.853-6.166-0.875c-2.628-0.009-5.333-0.42-7.717-0.781l-0.919-0.146
			c-1.611-0.257-3.276-0.522-5.009-0.522c-0.275,0-0.383-0.032-0.415-0.046c-1.958-0.73-3.961-1.027-5.898-1.315
			c-1.568-0.233-3.048-0.452-4.444-0.875c-0.59-0.192-1.183-0.272-1.759-0.274c-1.764,0.042-3.506-0.242-5.35-0.543
			c-1.409-0.229-2.866-0.468-4.356-0.553c-2.715-0.159-5.595-0.467-9.067-0.969c-0.785-0.111-1.55-0.12-2.289-0.129
			c-0.352-0.004-0.702-0.009-1.061-0.024c-0.228-0.009-0.458-0.012-0.689-0.014c-0.477-0.005-0.927-0.009-1.278-0.082
			c-2.737-0.605-5.498-0.743-8.167-0.877l-0.318-0.018c-0.83-0.043-1.66-0.082-2.49-0.121c-1.795-0.084-3.65-0.171-5.461-0.306
			c-3.021-0.218-6.047-0.131-8.972-0.046l-0.743,0.021c-1.093,0.021-1.974,0.527-2.551,1.465c-0.393,0.641-0.398,1.516-0.012,2.229
			c0.349,0.648,0.965,1.047,1.64,1.066c0.367,0.013,0.735,0.027,1.103,0.044c1.131,0.049,2.301,0.101,3.488,0.045
			c3.885-0.184,7.043-0.099,9.934,0.268c1.456,0.192,2.921,0.262,4.339,0.33c0.811,0.039,1.624,0.077,2.429,0.139
			c0.644,0.051,1.287,0.137,1.931,0.222c0.504,0.065,1.008,0.133,1.518,0.185l1.117,0.113c1.628,0.165,3.311,0.335,4.972,0.441
			c0.414,0.029,0.827,0.056,1.24,0.08c0.971,0.062,1.889,0.118,2.812,0.232c0.803,0.1,1.604,0.21,2.403,0.32
			c2.141,0.294,4.355,0.598,6.586,0.71c0.307,0.015,0.648,0.09,0.961,0.166c0.394,0.1,0.782,0.213,1.169,0.325
			c0.629,0.183,1.279,0.37,1.957,0.51c0.62,0.127,1.222,0.141,1.752,0.152c0.412,0.011,0.802,0.02,1.165,0.079
			c0.674,0.107,1.346,0.235,2.015,0.362c0.578,0.11,1.154,0.219,1.72,0.314c0.779,0.137,1.557,0.279,2.335,0.423
			c2.56,0.472,5.207,0.959,7.865,1.203c1.513,0.143,3.053,0.362,4.543,0.577c1.221,0.177,2.442,0.352,3.678,0.489l0.573,0.068
			c0.69,0.083,1.411,0.174,2.17,0.149c3.155-0.104,6.224,0.615,9.344,1.415c0.128,0.033,0.255,0.077,0.384,0.121
			c0.429,0.147,0.989,0.323,1.563,0.306c1.019-0.032,1.968,0.3,3.009,0.642c0.392,0.128,0.785,0.257,1.186,0.372
			c1.938,0.549,3.886,1.23,5.77,1.89c1.282,0.45,2.565,0.899,3.861,1.315c2.1,0.672,4.049,1.647,6.111,2.681
			c0.803,0.402,1.605,0.805,2.406,1.183c0.064,0.029,0.12,0.073,0.178,0.112c0.19,0.126,0.448,0.301,0.795,0.428
			c1.951,0.701,3.766,1.668,5.686,2.691c0.82,0.437,1.64,0.873,2.474,1.29c1.785,0.888,3.569,1.893,5.293,2.864
			c0.193,0.106,0.384,0.216,0.576,0.324c-1.891,0.904-3.75,1.888-5.555,2.843c-1.52,0.804-3.091,1.635-4.649,2.4
			c-1.357,0.669-2.753,1.235-4.23,1.836c-0.72,0.292-1.44,0.585-2.158,0.892c-0.698,0.299-1.392,0.607-2.087,0.917
			c-0.859,0.382-1.718,0.763-2.572,1.123c-0.536,0.22-1.07,0.446-1.604,0.672c-1.544,0.654-3.004,1.272-4.524,1.757
			c-2.949,0.945-5.653,2.006-8.253,3.24c-0.15-0.009-0.293-0.018-0.431-0.027c-0.516-0.033-0.974-0.056-1.433-0.054
			c-1.621,0.041-3.097-0.177-4.505-0.661c-1.998-0.676-4.228-0.812-7.016-0.425c-4.169,0.576-7.632,2.889-10.296,6.88
			c-0.341,0.515-0.659,1.05-0.979,1.587c-0.282,0.474-0.564,0.948-0.866,1.41c-0.153,0.235-0.479,0.736-0.67,0.968
			c-0.108-0.006-0.252-0.018-0.377-0.029c-0.272-0.023-0.596-0.053-0.987-0.067c-1.078-0.05-2.14-0.246-3.264-0.453
			c-0.762-0.14-1.525-0.28-2.297-0.377l-0.006-0.001c-3.136-0.383-6.294-1.101-9.35-1.795c-2.123-0.483-4.319-0.983-6.529-1.375
			c-0.792-0.135-1.594-0.4-2.444-0.68L102.983,488.561z"/>
	</g>
</g>
</svg>
