<?xml version="1.0" encoding="utf-8"?>
<!-- Generator: Adobe Illustrator 15.0.2, SVG Export Plug-In . SVG Version: 6.00 Build 0)  -->
<!DOCTYPE svg PUBLIC "-//W3C//DTD SVG 1.1//EN" "http://www.w3.org/Graphics/SVG/1.1/DTD/svg11.dtd">
<svg version="1.1" id="Layer_1" xmlns="http://www.w3.org/2000/svg" xmlns:xlink="http://www.w3.org/1999/xlink" x="0px" y="0px"
	 width="515.737px" height="538.093px" viewBox="0 0 515.737 538.093" enable-background="new 0 0 515.737 538.093"
	 xml:space="preserve">
<text transform="matrix(1 0 0 1 -5.3423 -105.5259)"><tspan x="0" y="0" font-family="'Futura-Medium'" font-size="22">G</tspan><tspan x="13.948" y="0" font-family="'Futura-Medium'" font-size="22">i</tspan><tspan x="18.854" y="0" font-family="'Futura-Medium'" font-size="22">r</tspan><tspan x="25.981" y="0" font-family="'Futura-Medium'" font-size="22">l </tspan><tspan x="35.177" y="0" font-family="'Futura-Medium'" font-size="22">b</tspan><tspan x="47.387" y="0" font-family="'Futura-Medium'" font-size="22">a</tspan><tspan x="57.661" y="0" font-family="'Futura-Medium'" font-size="22">c</tspan><tspan x="67.561" y="0" font-family="'Futura-Medium'" font-size="22">k</tspan><tspan x="77.549" y="0" font-family="'Futura-Medium'" font-size="22"> </tspan><tspan x="81.904" y="0" font-family="'Futura-Medium'" font-size="22">e</tspan><tspan x="92.112" y="0" font-family="'Futura-Medium'" font-size="22">x</tspan><tspan x="102.298" y="0" font-family="'Futura-Medium'" font-size="22">t</tspan><tspan x="109.492" y="0" font-family="'Futura-Medium'" font-size="22">r</tspan><tspan x="116.158" y="0" font-family="'Futura-Medium'" font-size="22">a</tspan><tspan x="126.454" y="0" font-family="'Futura-Medium'" font-size="22"> </tspan><tspan x="130.788" y="0" font-family="'Futura-Medium'" font-size="22">b</tspan><tspan x="142.953" y="0" font-family="'Futura-Medium'" font-size="22">o</tspan><tspan x="154.723" y="0" font-family="'Futura-Medium'" font-size="22">l</tspan><tspan x="159.651" y="0" font-family="'Futura-Medium'" font-size="22">d</tspan></text>
<g>
	<defs>
		<rect id="SVGID_1_" x="-39.341" y="-152.044" width="595.276" height="841.89"/>
	</defs>
	<clipPath id="SVGID_2_">
		<use xlink:href="#SVGID_1_"  overflow="visible"/>
	</clipPath>
	<path clip-path="url(#SVGID_2_)" d="M514.181,367.494l-0.349-0.607c-0.625-1.088-1.214-2.115-1.681-3.2
		c-1.269-2.914-3.193-5.257-4.723-6.967l-0.372-0.416c-0.579-0.646-1.126-1.257-1.592-1.903c-2.039-2.844-4.373-5.453-6.631-7.977
		c-0.99-1.109-1.98-2.216-2.945-3.341c-0.753-0.884-1.585-1.598-2.545-2.181c-1.414-0.857-2.755-2.014-3.982-3.437l-0.194-0.225
		c-0.667-0.775-1.355-1.576-2.203-2.269c-1.387-1.132-2.578-2.453-3.842-3.85c-0.377-0.418-0.754-0.835-1.133-1.245
		c-3.013-3.265-6.506-6.465-10.996-10.073l-0.946-0.752c-1.359-1.077-2.645-2.093-3.82-3.269c-0.483-0.474-1.133-1.083-1.888-1.615
		c-1.077-0.758-2.15-1.586-3.189-2.386c-1.547-1.192-3.146-2.426-4.853-3.51c-0.62-0.398-1.214-0.87-1.843-1.367
		c-0.285-0.227-0.568-0.452-0.857-0.674l-0.989-0.761c-2.063-1.596-4.194-3.246-6.768-4.392c-0.154-0.065-0.33-0.167-0.542-0.321
		c-1.416-0.995-2.828-1.996-4.241-2.999l-2.796-1.98c-2.003-1.411-4.006-2.823-6.011-4.22c-0.621-0.438-1.248-0.869-1.875-1.299
		c-0.603-0.415-1.207-0.83-1.793-1.243c-0.445-0.319-0.888-0.646-1.332-0.972c-0.767-0.565-1.533-1.129-2.311-1.664
		c-3.032-2.092-5.802-4.438-7.875-6.245c-1.627-1.423-3.335-2.795-5.073-4.075l-1.277-0.948c-2.844-2.112-5.783-4.297-8.501-6.578
		l-0.123-0.108c-0.231-0.209-0.521-0.469-0.914-0.679c-1.755-0.925-3.329-2.115-4.996-3.375c-0.812-0.613-1.622-1.226-2.444-1.801
		c-1.09-0.774-2.226-1.618-3.081-2.661c-0.395-0.479-0.863-0.804-1.276-1.091l-0.253-0.178c-3.215-2.284-6.345-4.543-9.31-7.083
		c-0.584-0.494-1.37-1.128-2.267-1.656c-2.159-1.274-4.095-2.876-5.964-4.422c-2.534-2.108-5.344-4.057-8.407-5.829
		c-0.674-0.388-1.367-0.789-1.955-1.221c-1.824-1.357-3.71-2.76-5.535-4.235c-1.659-1.335-3.442-2.512-5.303-3.499
		c-3.542-1.865-6.978-4.061-10.303-6.187c-0.609-0.39-1.21-0.801-1.81-1.212c-1.713-1.175-3.486-2.39-5.57-3.175
		c-0.223-0.085-0.525-0.34-0.609-0.409c-0.961-0.853-2.026-1.351-3.059-1.832l-0.335-0.158c-2.588-1.202-5.263-2.446-7.615-4.122
		c-0.797-0.566-1.63-0.869-2.418-1.131c-1.196-0.397-2.387-0.825-3.578-1.252c-1.215-0.438-2.429-0.874-3.658-1.281
		c-0.891-0.289-1.462-0.652-1.932-1.233c-0.615-0.738-1.274-1.28-1.953-1.608c-2.408-1.177-4.471-2.845-6.653-4.61
		c-0.544-0.439-1.088-0.88-1.634-1.308c-0.53-0.421-1.026-0.936-1.438-1.38c-1.946-2.115-3.871-4.242-5.788-6.377
		c-1.136-1.262-1.98-2.25-2.524-3.483c-0.352-0.801-0.879-1.616-1.605-2.49c-0.674-0.815-1.205-1.755-1.767-2.75
		c-0.156-0.276-0.313-0.553-0.47-0.821c-1.017-1.77-1.666-3.697-2.352-5.736c-0.327-0.973-0.667-1.981-1.053-2.978
		c-0.039-0.099-0.043-0.127-0.047-0.111c-0.026-1.409-0.307-2.731-0.576-4.009c-0.068-0.322-0.138-0.646-0.2-0.971
		c-0.116-0.581,0.034-0.976,0.513-1.333c0.968-0.732,1.741-1.58,2.488-2.399l0.428-0.469c2.729-2.953,5.196-6.161,7.581-9.264
		c0.517-0.672,1.034-1.344,1.551-2.012c1.1-1.412,2.007-2.896,2.754-4.167c0.928-1.594,1.819-3.215,2.711-4.836
		c0.449-0.818,0.899-1.634,1.35-2.442c0.107-0.192,0.209-0.391,0.309-0.591c0.165-0.328,0.322-0.637,0.48-0.827
		c0.705-0.835,1.117-1.756,1.479-2.568c0.083-0.185,0.165-0.37,0.247-0.543c1.024-2.141,1.738-4.375,2.427-6.536
		c0.154-0.482,0.31-0.964,0.468-1.449c0.358-1.109,0.621-2.323,0.801-3.707c0.287-2.184,0.672-4.524,1.172-7.134
		c0.141-0.695,0.206-1.375,0.268-2.034l0.064-0.638c0.027-0.251,0.049-0.504,0.072-0.756c0.041-0.463,0.081-0.926,0.155-1.383
		c0.464-2.848,0.509-5.061,0.15-7.166c-0.345-2.087-0.363-4.182-0.38-6.401l-0.01-1.003c0-0.776-0.001-1.543-0.042-2.324
		c-0.098-1.73-0.553-3.465-1.352-5.154c-0.271-0.579-0.539-1.158-0.806-1.737c-0.886-1.916-1.802-3.897-2.858-5.819l-0.254-0.462
		c-0.996-1.811-2.024-3.683-3.256-5.433c-0.695-0.979-1.356-1.981-2.018-2.982c-0.792-1.199-1.611-2.439-2.488-3.64
		c-0.421-0.57-0.899-1.246-1.254-1.948c-1.06-2.05-2.259-4.033-3.419-5.95c-0.432-0.712-0.862-1.422-1.28-2.13l-0.168-0.284
		c-0.206-0.345-0.4-0.671-0.541-0.982l-0.297-0.643c-1.3-2.823-2.528-5.488-2.628-8.448c-0.012-0.477-0.088-0.926-0.156-1.322
		l-0.026-0.153c-0.375-2.215-0.404-4.615-0.096-7.554c0.914-8.796,0.467-14.681-1.77-23.321c-0.474-1.824-1.132-3.532-1.962-5.077
		c-2.341-4.336-5.022-7.257-8.437-9.189c-0.513-0.294-0.956-0.605-1.309-0.922c-0.902-0.815-1.924-1.281-2.885-1.686
		c-1.147-0.491-2.315-0.807-3.444-1.113c-0.846-0.23-1.646-0.446-2.412-0.727c-1.346-0.49-2.676-0.656-3.963-0.816
		c-0.954-0.119-1.856-0.231-2.707-0.469L256.222,0l-0.457,0.169c-0.262,0.097-0.656,0.051-1.114-0.004
		c-0.519-0.061-1.107-0.131-1.759-0.032c-1.265,0.192-2.539,0.358-3.813,0.524l-1.544,0.204c-1.323,0.189-2.585,0.743-3.857,1.694
		c-0.578,0.433-1.178,0.844-1.774,1.252l-0.265,0.182c-3.135,2.148-3.779,2.706-6.265,5.43c-1.153,1.25-1.974,2.552-2.508,3.968
		l-0.375,0.963c-0.714,1.808-1.453,3.677-1.704,5.765c-0.043,0.358-0.149,0.747-0.262,1.16c-0.079,0.292-0.159,0.584-0.223,0.879
		c-0.092,0.419-0.206,0.941-0.232,1.483c-0.065,1.082-0.133,2.341-0.133,3.608c0.002,0.382-0.003,0.765-0.008,1.147
		c-0.018,1.267-0.035,2.577,0.203,3.896c0.268,1.451,0.429,2.969,0.584,4.436c0.222,2.097,0.451,4.265,0.991,6.375
		c0.003,0.016,0.009,0.069,0,0.277l-0.007,0.843c-0.009,1.302-0.019,2.532-0.179,3.754c-0.501,3.666-1.231,7.405-2.167,11.11
		c-0.613,2.389-1.374,4.653-2.268,6.737c-1.393,3.284-3.244,6.55-5.656,9.983c-1.774,2.522-3.715,5.212-5.882,7.797
		c-0.668,0.795-1.237,1.632-1.788,2.442l-0.182,0.267c-1.376,2.014-2.761,4.029-4.167,6.022c-1.364,1.932-2.372,3.912-3.078,6.054
		c-0.879,2.658-1.652,5.385-2.4,8.023l-0.608,2.135c-0.708,2.473-1.048,4.669-1.038,6.714c0.018,2.476,0.153,5.15,0.425,8.412
		c0.141,1.71,0.622,3.474,1.479,5.406c0.499,1.104,0.994,2.298,1.553,3.753c1.201,3.166,2.481,5.785,3.911,8.007
		c1.732,2.703,3.889,6.066,6.511,8.979c1.62,1.784,3.339,3.496,5,5.153c0.81,0.806,1.619,1.613,2.432,2.441
		c0.296,0.295,0.607,0.519,0.882,0.717l0.286,0.21c0.802,0.601,1.598,1.212,2.392,1.822c1.975,1.514,4.017,3.079,6.125,4.499
		c0.681,0.463,1.343,0.954,2.006,1.446c1.578,1.17,3.21,2.38,5.115,3.253c0.135,0.064,0.226,0.118,0.283,0.156
		c-0.03,0.107-0.103,0.301-0.277,0.616c-0.459,0.84-0.763,1.654-0.93,2.475c-0.095,0.444-0.208,0.881-0.321,1.318
		c-0.098,0.384-0.196,0.767-0.286,1.157c-0.206,0.918-0.456,1.815-0.721,2.766c-0.34,1.216-0.691,2.474-0.94,3.777
		c-0.401,2.147-1.031,4.424-1.981,7.162l-0.316,0.914c-0.716,2.088-1.392,4.06-2.518,5.838c-0.205,0.337-0.327,0.672-0.425,0.942
		c-0.045,0.122-0.087,0.247-0.154,0.386l-0.103,0.22c-0.221,0.476-0.429,0.927-0.673,1.307l-0.746,1.173
		c-1.092,1.722-2.221,3.502-3.391,5.188l-0.407,0.591c-0.747,1.089-1.452,2.12-2.337,2.959c-0.719,0.685-1.431,1.374-2.143,2.061
		c-0.743,0.717-1.485,1.434-2.227,2.14l-0.211,0.205c-0.063,0.062-0.125,0.131-0.189,0.187c-0.708,0.128-1.324,0.385-1.874,0.614
		c-0.549,0.228-1.024,0.425-1.492,0.465c-1.851,0.164-3.709,0.648-5.682,1.482c-0.465,0.197-0.991,0.339-1.548,0.489
		c-0.243,0.067-0.487,0.132-0.723,0.201c-0.576,0.166-1.156,0.317-1.736,0.467c-1.288,0.334-2.62,0.68-3.91,1.19
		c-2.51,0.992-5.003,2.138-7.403,3.406c-1.597,0.834-3.199,1.629-4.809,2.427l-1.515,0.753c-2.66,1.319-5.411,2.683-7.93,4.466
		c-1.329,0.944-2.65,1.902-3.97,2.859c-1.182,0.858-2.366,1.716-3.555,2.563c-0.943,0.674-2.152,1.609-3.129,2.856
		c-0.261,0.327-0.621,0.664-1.139,1.068l-0.701,0.558c-1.11,0.883-2.158,1.718-3.273,2.463c-3.881,2.6-7.465,5.52-10.759,8.287
		c-3.212,2.694-6.698,5.185-10.069,7.595c-1.98,1.415-4.028,2.879-6.013,4.377c-1.519,1.151-3.065,2.27-4.613,3.39
		c-1.127,0.815-2.255,1.633-3.378,2.464c-0.98,0.731-1.917,1.524-2.823,2.292l-0.229,0.194c-1.283,1.105-2.587,2.186-3.893,3.268
		c-1.4,1.161-2.802,2.323-4.181,3.515c-2.367,2.052-4.677,4.191-6.858,6.354c-1.855,1.819-4.077,3.949-6.505,5.943
		c-0.363,0.302-0.73,0.599-1.095,0.896c-1.38,1.121-2.806,2.279-4.104,3.626c-0.213,0.223-0.5,0.44-0.804,0.673
		c-0.182,0.137-0.364,0.277-0.536,0.418c-0.471,0.382-0.946,0.758-1.421,1.134c-1.189,0.942-2.419,1.914-3.57,2.979
		c-1.009,0.931-2.015,1.731-3.066,2.443l-1.919,1.275c-1.047,0.693-2.093,1.387-3.126,2.082c-0.45,0.297-1.066,0.704-1.567,1.294
		c-0.656,0.791-1.485,1.45-2.362,2.147c-0.527,0.419-1.051,0.837-1.548,1.285c-0.337,0.305-0.669,0.614-1,0.927
		c-0.759,0.711-1.475,1.382-2.24,1.955c-1.85,1.375-3.504,2.954-5.104,4.482c-1.065,1.02-2.167,2.072-3.31,3.04l-0.132,0.109
		c-0.282,0.222-0.706,0.556-0.935,1.113c-0.327,0.784-1.014,1.221-2.105,1.864l-0.45,0.268c-0.538,0.32-1.147,0.685-1.686,1.211
		c-0.879,0.87-1.936,1.548-3.072,2.275c-0.537,0.337-1.204,0.757-1.771,1.289c-1.479,1.369-3.086,2.673-4.641,3.936l-1.479,1.206
		c-2.758,2.259-5.608,4.596-8.229,7.137c-0.374,0.356-0.776,0.684-1.181,1.015l-3.088,2.494c-2.84,2.292-5.684,4.587-8.529,6.854
		c-1.283,1.008-2.527,2.139-3.696,3.36c-1.173,1.222-2.353,2.433-3.55,3.62c-1.374,1.354-2.75,2.703-4.125,4.049
		c-1.368,1.342-2.735,2.681-4.104,4.03c-0.309,0.308-0.622,0.666-0.957,1.09c-0.678,0.86-1.419,1.661-2.203,2.507
		c-1.04,1.124-2.116,2.286-3.046,3.609c-0.518,0.735-1.091,1.429-1.698,2.165c-0.348,0.421-0.697,0.842-1.026,1.261
		c-0.217,0.273-0.412,0.563-0.603,0.852c-0.154,0.233-0.307,0.469-0.478,0.674c-1.397,1.639-2.532,3.404-3.63,5.11
		c-1.167,1.813-1.806,3.729-2.41,6.045c-0.198,0.759-0.046,1.6,0.419,2.31c0.503,0.766,1.286,1.28,2.122,1.406
		c0.675,0.114,1.262,0.068,1.719-0.118c1.742-0.67,3.578-1.437,5.193-2.779c0.438-0.364,0.886-0.715,1.334-1.066
		c1.25-0.98,2.544-1.995,3.641-3.308c0.172-0.204,0.384-0.388,0.605-0.522c1.162-0.722,2.122-1.611,3.04-2.49
		c-0.439,0.794-0.874,1.659-1.121,2.608c-0.488,1.823,0.499,3.38,0.829,3.899c0.337,0.524,0.844,0.764,1.14,0.904
		c1.227,0.577,2.542,0.509,3.638-0.215c0.783-0.545,1.51-1.174,2.163-1.872c2.737-2.951,4.902-6.363,6.659-9.313
		c1.384-2.324,3.049-4.492,4.5-6.339c0.881-1.12,1.738-2.093,2.626-2.981c1.086-1.097,2.284-2.162,3.444-3.193l0.218-0.195
		c0.511-0.445,1.057-0.873,1.629-1.273c2.869-2.028,5.738-4.049,8.599-6.063c1.289-0.893,2.439-1.722,3.477-2.835
		c0.193-0.213,0.413-0.399,0.656-0.546c1.718-1.08,3.463-2.28,5.335-3.665c1.147-0.85,2.352-1.681,3.518-2.484l1.321-0.911
		c1.136-0.782,2.31-1.592,3.47-2.333c1.076-0.681,2.164-1.332,3.254-1.985l0.3-0.181c0.206,0.429,0.419,0.854,0.631,1.279
		c0.675,1.354,1.313,2.632,1.757,3.986c0.266,0.808,0.617,1.586,1.047,2.32c1.027,1.723,1.768,3.065,2.403,4.354
		c1.273,2.592,2.996,4.842,4.661,7.019l0.855,1.12c0.169,0.227,0.343,0.449,0.517,0.674c0.405,0.521,0.788,1.012,1.109,1.528
		c1.289,2.072,2.816,4.469,4.615,6.698c0.996,1.24,1.933,2.469,2.452,3.88c0.283,0.766,0.889,1.367,1.664,1.652
		c0.855,0.315,1.82,0.228,2.641-0.231c0.494-0.274,0.908-0.545,1.296-0.852c0.225-0.188,0.439-0.392,0.652-0.593
		c0.244-0.232,0.475-0.452,0.701-0.616c2.052-1.504,3.984-3.154,5.853-4.793c-0.223,0.757-0.38,1.51-0.469,2.265
		c-0.05,0.415-0.166,0.86-0.289,1.331c-0.091,0.344-0.18,0.689-0.265,1.105c-0.168,0.829-0.342,1.687-0.447,2.577
		c-0.453,3.872,0.252,7.603,0.933,11.208l0.064,0.338c0.056,0.297,0.151,0.604,0.291,0.935c0.263,0.597,0.512,1.203,0.761,1.808
		c0.568,1.376,1.154,2.8,1.912,4.147c0.919,1.647,1.672,3.473,2.298,5.568c0.323,1.106,0.703,2.068,1.17,2.952
		c0.261,0.482,0.504,0.972,0.746,1.459c0.332,0.668,0.664,1.333,1.033,1.982c0.267,0.468,0.53,0.939,0.795,1.412
		c0.934,1.672,1.901,3.399,3.045,5.015c0.348,0.487,0.691,0.977,1.035,1.466c1.431,2.04,2.912,4.151,4.653,6.059
		c0.527,0.586,1.003,1.24,1.505,1.933l0.163,0.225c1.746,2.361,3.797,5.093,6.037,7.605c0.621,0.698,1.159,1.47,1.729,2.289
		c0.341,0.491,0.683,0.981,1.044,1.459c0.548,0.723,1.156,1.363,1.744,1.98c0.591,0.622,1.15,1.209,1.605,1.832
		c1.078,1.495,2.241,2.94,3.366,4.34c1.553,1.929,3.158,3.923,4.507,6.025c0.266,0.405,0.594,0.713,0.858,0.96l0.208,0.199
		c1.376,1.398,2.421,2.781,3.196,4.227c0.567,1.061,1.318,1.908,1.977,2.598l0.568,0.591c1.714,1.786,3.333,3.472,4.518,5.493
		c0.264,0.458,0.595,0.798,0.887,1.099c0.105,0.11,0.213,0.22,0.323,0.349l0.47,0.532c0.395,0.444,0.79,0.891,1.153,1.342
		l0.103,0.129c0.97,1.225,1.973,2.492,3.188,3.645c0.726,0.68,1.642,1.586,2.278,2.577c0.88,1.39,1.972,2.487,3.03,3.548
		l0.529,0.534c0.619,0.627,1.163,1.203,1.542,1.896c1.088,1.985,2.549,3.682,4.35,5.043c0.976,0.728,1.613,1.373,2.073,2.105
		c0.408,0.637,0.92,1.159,1.415,1.663c0.363,0.383,0.736,0.752,1.109,1.121c0.382,0.38,0.765,0.757,1.141,1.159
		c1.818,1.916,3.13,2.945,5.617,4.411l0.76,0.446l0.761-0.446c1.75-1.028,3.589-2.297,5.622-3.882
		c0.212-0.164,0.422-0.331,0.631-0.5c0.497-0.398,0.978-0.784,1.469-1.112c0.187,0.804,0.358,1.574,0.476,2.353
		c0.116,0.744,0.19,1.494,0.267,2.287c0.07,0.711,0.139,1.422,0.24,2.127l0.049,0.354c0.262,1.883,0.534,3.831,0.951,5.741
		c0.449,2.048,0.339,4.11-0.349,6.498c-0.354,1.249-0.757,2.665-1.402,3.918c-0.756,1.48-1.368,2.872-1.869,4.247
		c-0.643,1.721-1.483,3.334-2.372,5.044c-0.447,0.859-0.893,1.718-1.31,2.58c-0.216,0.441-0.506,0.865-0.837,1.227
		c-0.244,0.265-0.485,0.534-0.726,0.804c-1.188,1.328-2.311,2.582-3.782,3.295c-0.467,0.222-0.934,0.529-1.371,0.899
		c-1.042,0.856-1.502,2.108-1.264,3.425c0.19,1.099,0.799,2.013,1.735,2.585c1.479,0.872,3.009,1.085,4.272,1.085
		c0.456,0,0.876-0.029,1.249-0.063c0.766-0.064,1.493-0.203,2.195-0.338c0.539-0.102,1.075-0.206,1.614-0.266
		c0.65-0.07,1.391,0.036,2.179,0.149c0.441,0.063,0.884,0.127,1.358,0.168c0.314,0.021,0.576-0.021,0.774-0.048
		c0.063-0.009,0.128-0.021,0.167-0.023c1.029,0.072,2.004-0.107,2.862-0.264c0.773-0.144,1.505-0.273,2.211-0.217
		c0.64,0.049,1.163-0.199,1.513-0.36l0.135-0.063c1.396-0.668,2.44-1.647,3.45-2.596l0.41-0.384
		c2.002-1.847,3.618-3.952,4.932-6.431c0.287-0.529,0.626-1.055,0.986-1.61l0.287-0.446c0.078-0.119,0.168-0.232,0.257-0.346
		c0.256-0.331,0.577-0.743,0.785-1.299c0.163-0.462,0.455-0.89,0.793-1.384c0.178-0.26,0.356-0.522,0.525-0.8
		c0.527-0.869,1.187-1.666,1.885-2.509c0.581-0.703,1.183-1.431,1.717-2.216c0.719-1.041,1.718-2.024,3.049-3
		c2.123-1.546,3.959-3.361,5.736-5.117l1.041-1.025c1.16-1.137,1.985-2.49,2.675-3.681c1.364-2.406,1.944-4.953,2.332-7.126
		c0.341-1.917,0.204-3.856-0.409-5.763c-0.594-1.851-1.611-3.354-2.682-4.847c-0.278-0.395-0.578-0.774-0.879-1.154
		c-0.422-0.532-0.819-1.034-1.138-1.566c-1-1.682-2.288-3.089-3.84-4.2c0.549,0.155,1.098,0.309,1.646,0.46
		c0.809,0.228,1.622,0.438,2.435,0.646c1.686,0.434,3.278,0.845,4.838,1.402c3.154,1.121,6.434,2.03,9.264,2.797
		c1.994,0.533,3.796,0.755,5.506,0.688c1.15-0.046,2.23,0.089,3.307,0.414c0.894,0.257,1.83,0.377,2.949,0.377
		c3.509-0.009,7.033,0,10.546-0.009c1.25,0,2.275-0.118,3.216-0.368c1.052-0.274,2.146-0.414,3.301-0.561
		c1.49-0.19,3.03-0.388,4.569-0.896l0.254-0.006c2.681-0.035,5.182-0.615,7.425-1.721c0.086-0.042,0.258-0.088,0.426-0.134
		c0.221-0.059,0.442-0.121,0.626-0.19c0.535-0.188,1.071-0.371,1.608-0.554c1.572-0.537,3.197-1.093,4.776-1.76
		c0.796-0.334,1.601-0.624,2.455-0.93c0.771-0.278,1.543-0.554,2.309-0.867c1.13-0.468,2.205-1.033,3.243-1.578
		c0.029-0.015,0.057-0.029,0.087-0.046c-1.431,1.294-2.447,2.743-3.082,4.383c-0.22,0.564-0.491,1.314-0.631,2.125
		c-0.295,1.738-0.63,3.76-0.873,5.768c-0.094,0.854-0.036,1.792,0.17,2.723c0.967,4.157,2.486,7.253,4.786,9.755
		c0.293,0.314,0.584,0.743,0.842,1.245c0.708,1.367,1.729,2.42,2.733,3.36c0.557,0.517,1.109,1.041,1.665,1.564
		c0.843,0.798,1.687,1.597,2.54,2.371c2.389,2.192,3.993,4.88,4.908,8.225l0.224,0.78c0.245,0.853,0.476,1.655,0.599,2.445
		c0.35,2.291,1.478,4.142,3.351,5.497c0.946,0.69,1.954,1.268,2.93,1.828l0.707,0.406c0.469,0.29,0.973,0.414,1.395,0.495
		c2.649,0.523,6.844,1.031,9.954,0.731c0.325-0.032,0.691-0.023,1.093-0.013l1.526,0.041c1.203,0.035,2.406,0.068,3.609,0.068
		c0.819,0,1.541-0.313,1.88-0.492c0.559-0.284,1.053-0.613,1.531-0.934l0.229-0.152c0.959-0.615,1.443-1.504,1.72-2.111
		c0.819-1.769,0.395-3.613-1.097-4.709c-0.614-0.44-1.333-0.842-2.19-1.227c-0.563-0.258-1.131-0.374-1.63-0.476l-0.213-0.044
		c-1.46-0.321-2.754-1.156-3.953-2.551c-0.32-0.376-0.613-0.824-0.923-1.299l-0.244-0.372c-0.124-0.188-0.234-0.387-0.346-0.584
		c-0.271-0.477-0.577-1.016-1.028-1.483c-0.736-0.775-1.299-1.713-1.823-3.053c-0.228-0.568-0.465-1.131-0.702-1.694
		c-0.391-0.921-0.758-1.791-1.077-2.68c-0.668-1.888-0.949-3.645-0.856-5.368c0.096-1.752,0.379-3.383,0.864-4.978
		c0.771-2.482,1.331-4.579,1.765-6.6c0.169-0.787,0.423-1.576,0.658-2.257c0.709,0.323,1.285,0.698,1.774,1.151
		c0.776,0.709,1.652,1.054,2.457,1.337c1.264,0.473,2.732-0.093,3.266-1.258c0.657-1.422,1.676-2.679,2.66-3.89
		c1.084-1.325,1.988-2.633,2.685-3.883c0.921-1.637,2.093-3.082,3.219-4.428c1.454-1.756,2.989-3.645,4.365-5.721
		c0.454-0.686,0.824-1.174,1.191-1.568c1.153-1.226,2.024-2.552,2.659-3.576c0.392-0.644,0.868-1.265,1.371-1.924l0.414-0.544
		c0.248-0.327,0.505-0.648,0.762-0.97c0.551-0.688,1.123-1.401,1.612-2.18c0.421-0.652,0.923-1.266,1.632-1.998
		c3.025-3.154,5.437-6.766,7.461-9.908c0.473-0.737,0.916-1.497,1.358-2.256c0.588-1.008,1.143-1.961,1.776-2.878
		c0.93-1.36,1.832-2.737,2.734-4.115c0.441-0.675,0.884-1.35,1.332-2.026c2.189-3.335,4.038-6.422,5.648-9.438
		c0.712-1.336,1.551-2.88,2.482-4.328c1.277-2.002,2.592-3.98,3.907-5.959c0.625-0.939,1.25-1.881,1.874-2.828
		c0.963-1.473,1.917-2.953,2.871-4.434l1.124-1.743c2.924-4.531,5.244-8.826,7.098-13.133c0.336-0.785,0.68-1.568,1.026-2.35
		c0.809-1.834,1.645-3.731,2.359-5.657c0.824-2.211,1.579-4.654,2.307-7.467c0.316-1.221,0.505-2.458,0.687-3.656
		c0.09-0.601,0.181-1.199,0.288-1.788c0.493-2.688,0.96-5.571,1.033-8.462l0.039-1.253c0.061-1.832,0.122-3.728-0.022-5.607
		l-0.04-0.551c-0.158-2.23-0.322-4.525-0.968-6.791c1.675,1.545,3.256,3.014,4.685,4.66c0.727,0.843,1.6,1.52,2.358,2.109
		c0.991,0.78,1.99,1.554,2.989,2.325c1.436,1.111,2.874,2.222,4.288,3.364l0.701,0.566c1.444,1.162,2.809,2.26,4.139,3.463
		c0.698,0.628,1.473,1.087,2.22,1.531c0.214,0.128,0.429,0.255,0.631,0.381c0.518,0.324,1.205,0.4,1.938,0.209
		c0.437-0.113,1.23-0.414,1.636-1.157c0.139-0.26,0.269-0.527,0.398-0.794c0.189-0.392,0.368-0.76,0.58-1.09
		c1.74-2.779,3.052-5.881,3.893-9.215l0.046-0.182c0.304-1.196,0.592-2.325,1.197-3.185c0.691-0.981,1.081-1.986,1.457-2.958
		l0.198-0.51c0.356-0.888,0.681-1.786,1.004-2.687c0.621-1.725,1.207-3.354,2.025-4.918c0.172-0.345,0.31-0.726,0.426-1.181
		c0.575-2.12,1.136-4.249,1.693-6.372l0.188-0.726c0.617-2.32,1.236-4.242,1.932-5.979c0.14,0.083,0.281,0.166,0.423,0.249
		c1.066,0.628,2.074,1.221,3.048,1.889c1.299,0.875,2.59,1.886,3.843,3.007c1.003,0.893,2.042,1.742,3.046,2.563
		c0.551,0.449,1.102,0.898,1.651,1.359l0.984,0.819c0.978,0.812,1.955,1.622,2.923,2.439c0.493,0.42,0.989,0.837,1.484,1.254
		c2.702,2.27,5.256,4.415,7.377,7.063c0.375,0.467,0.78,0.866,1.172,1.25c0.223,0.221,0.444,0.438,0.658,0.671
		c1.153,1.242,2.297,2.494,3.426,3.764c0.137,0.151,0.256,0.317,0.375,0.481c0.204,0.279,0.408,0.553,0.628,0.783
		c2.142,2.319,4.139,4.874,6.068,7.343l0.944,1.205c1.457,1.854,3.066,3.58,4.624,5.248l0.536,0.577
		c0.856,0.922,1.847,1.425,2.933,1.495c1.456,0.104,2.163-0.522,2.521-1.065c0.633-0.967,1.304-2.281,0.888-3.886
		c-0.08-0.306-0.169-0.611-0.27-0.913l0.824,0.807c0.267,0.262,0.535,0.52,0.806,0.775c1.006,0.959,1.955,1.866,2.629,2.931
		c0.188,0.308,0.417,0.516,0.567,0.653l0.042,0.034c0.274,0.299,0.544,0.605,0.814,0.913c0.654,0.745,1.332,1.514,2.087,2.219
		c1.184,1.111,2.474,2.177,3.834,3.168c1.074,0.782,2.424,0.916,3.609,0.357c1.19-0.563,1.98-1.741,2.062-3.087
		C515.874,372.017,515.389,369.593,514.181,367.494 M497.462,358.323c-0.7-0.635-1.421-1.263-2.137-1.874l-0.374-0.319
		c-0.472-0.402-0.94-0.797-1.398-1.182c-0.424-0.355-0.915-0.664-1.431-0.895c-1.049-0.464-2.2-0.308-3.054,0.41
		c-0.768,0.626-1.151,1.511-1.05,2.459c0.008,0.061,0.011,0.125,0.014,0.187c0.015,0.259,0.037,0.626,0.181,1.01
		c-0.285-0.328-0.585-0.652-0.9-0.97c-0.714-0.693-1.329-1.435-1.825-2.197c-1.163-1.804-2.579-3.362-3.947-4.87
		c-0.501-0.554-1.002-1.105-1.496-1.675c-0.679-0.775-1.413-1.479-2.123-2.16c-0.682-0.653-1.326-1.272-1.915-1.94
		c-1.662-1.866-3.524-3.519-5.324-5.118c-0.584-0.518-1.168-1.036-1.733-1.551c-0.617-0.574-1.28-1.041-1.921-1.493
		c-0.329-0.23-0.659-0.463-0.973-0.706c-0.676-0.521-1.309-1.097-1.978-1.708c-0.97-0.884-1.972-1.797-3.182-2.592
		c-0.938-1.46-2.28-2.379-3.472-3.196c-0.437-0.3-0.876-0.598-1.279-0.918c-0.87-0.695-1.811-1.243-2.719-1.773
		c-0.396-0.232-0.795-0.463-1.153-0.688c-0.33-0.217-0.655-0.453-0.979-0.688l-0.246-0.182c0.005-0.021,0.012-0.051,0.021-0.086
		c0.375-1.313,0.76-2.63,1.175-3.925l0.002-0.006c0.37-1.174,0.798-2.747,0.811-4.511c0.007-0.974,0.096-1.952,0.192-2.986
		c0.683,0.394,1.326,0.775,1.903,1.225c0.716,0.552,1.452,1.07,2.187,1.591c1.02,0.72,1.982,1.397,2.896,2.161
		c0.491,0.41,0.989,0.815,1.488,1.221c1.25,1.015,2.431,1.974,3.526,3.043c0.516,0.502,1.015,0.894,1.52,1.198
		c1.877,1.139,3.487,2.631,5.194,4.209l0.729,0.673c0.459,0.422,0.934,0.83,1.411,1.238c1.27,1.09,2.471,2.118,3.34,3.406
		l0.24,0.276c0.857,0.771,1.638,1.62,2.464,2.518c0.91,0.99,1.851,2.015,2.922,2.946c1.652,1.445,3.001,2.689,4.216,4.069
		c0.976,1.094,2.137,1.939,3.261,2.759l0.665,0.487c0.811,0.602,1.49,1.231,2.086,1.933l5.619,6.56l0.176,0.196
		c0.084,0.09,0.211,0.229,0.255,0.305c1.219,2.117,2.786,3.863,4.159,5.293c1.863,1.933,3.163,4.244,4.539,6.693l0.386,0.684
		c0.374,0.663,0.688,1.385,1.02,2.148c0.132,0.302,0.264,0.604,0.4,0.903c0.212,0.469,0.405,1.118,0.546,1.775
		c-0.51-0.537-1.029-1.065-1.547-1.594c-1.358-1.383-2.64-2.689-3.781-4.155c-0.724-0.926-1.574-1.7-2.396-2.45
		c-0.379-0.347-0.759-0.691-1.135-1.064c-0.38-0.367-0.747-0.75-1.112-1.132c-0.214-0.222-0.426-0.443-0.643-0.663l-0.584-0.599
		C498.649,359.464,498.078,358.876,497.462,358.323 M446.554,321.419c-0.197,0.708-0.386,1.377-0.638,2.003
		c-0.362,0.893-0.652,1.799-0.934,2.675c-0.143,0.441-0.283,0.882-0.434,1.318c-0.752,2.17-1.406,4.373-1.946,6.544
		c-0.947,3.746-2.129,7.351-3.513,10.714c-0.177,0.425-0.359,0.848-0.544,1.271c-0.5,1.151-1.016,2.341-1.382,3.565
		c-0.072,0.219-0.163,0.42-0.263,0.589c-1.118,1.914-1.762,3.951-2.386,5.92c-0.127,0.401-0.254,0.801-0.388,1.208
		c-0.874,2.716-1.844,4.795-3.007,6.47c-0.596-0.381-1.169-0.847-1.762-1.329l-0.446-0.361c-0.814-0.654-1.622-1.319-2.427-1.985
		c-1.563-1.289-3.176-2.622-4.854-3.854c-2.042-1.494-4.077-3.253-6.601-5.705c-3.088-2.998-6.257-5.941-9.419-8.745
		c-2.15-1.911-4.372-3.802-6.521-5.63c-1.055-0.896-2.125-1.808-3.194-2.728l-0.328-0.281c-0.359-0.31-0.717-0.619-1.075-0.931
		l-0.736-0.642c-0.326-0.287-0.651-0.574-0.976-0.861c-0.918-0.813-1.833-1.701-2.718-2.558c-0.545-0.528-1.09-1.056-1.644-1.575
		c-2.249-2.104-4.148-3.718-5.976-5.076c-0.923-0.689-1.833-1.462-2.712-2.211l-1.818-1.554c-3.381-2.902-6.877-5.903-10.55-8.621
		c-0.666-0.491-1.219-0.989-1.64-1.479c-1.998-2.328-4.267-4.367-6.458-6.341l-1.005-0.904c-2.687-2.43-5.73-5.182-8.383-8.111
		c-1.069-1.189-2.208-2.327-3.308-3.429c-0.623-0.623-1.247-1.247-1.859-1.882l-0.351-0.361c-1.105-1.141-2.248-2.318-3.267-3.538
		c-1.972-2.351-4.263-4.371-6.479-6.326l-0.812-0.717c-0.103-0.09-0.273-0.24-0.421-0.32c-0.824-0.538-2.357-1.539-3.765-0.859
		c-1.254,0.604-1.549,2.07-1.667,3.275c-0.135,1.342-0.398,2.66-0.678,4.055c-0.312,1.548-0.631,3.147-0.764,4.801
		c-0.013,0.15-0.091,0.385-0.173,0.631c-0.07,0.215-0.141,0.429-0.194,0.639c-0.487,1.881-0.964,3.895-1.008,6.003
		c-0.02,0.874-0.15,1.699-0.386,2.396c-0.38,1.152-0.597,2.306-0.808,3.419c-0.071,0.369-0.141,0.737-0.215,1.1
		c-0.343,1.623-0.689,3.245-1.035,4.867c-0.767,3.589-1.534,7.177-2.257,10.771c-0.621,3.041-1.243,6.016-2.01,8.958
		c-0.326,1.235-0.409,2.478-0.489,3.678c-0.036,0.538-0.071,1.075-0.133,1.62c-0.033,0.318-0.058,0.641-0.079,0.963
		c-0.05,0.703-0.099,1.367-0.261,1.934c-1.517,5.218-2.477,10.569-3.403,15.737c-0.103,0.552-0.207,1.101-0.313,1.65
		c-0.176,0.924-0.353,1.845-0.508,2.757c-0.152,0.847-0.263,1.751-0.331,2.685c-0.177,2.424-0.847,4.765-1.577,7.147
		c-0.259,0.843-0.681,1.132-0.98,1.277c-0.309,0.153-0.613,0.311-0.919,0.467c-0.734,0.377-1.428,0.734-2.135,1.016
		c-4.438,1.774-9.062,3.39-13.747,4.797c-0.938,0.285-1.896,0.504-2.911,0.736c-0.447,0.102-0.895,0.203-1.33,0.31
		c-0.147,0.035-0.295,0.06-0.443,0.087c-0.303,0.052-0.603,0.109-0.904,0.199c-3.476,1.075-7.04,1.571-9.744,1.883
		c-0.827,0.087-1.664,0.167-2.521,0.248c-0.151,0.013-0.303,0.017-0.455,0.021c-0.415,0.013-0.883,0.026-1.394,0.169
		c-1.59,0.449-3.254,0.501-5.019,0.554l-0.975,0.031c-0.472,0.021-0.941,0.016-1.413,0.012c-1.432-0.018-3.043-0.027-4.67,0.613
		c-0.036-0.001-0.077-0.005-0.126-0.007c-1.181-0.041-2.347,0.012-3.477,0.061c-1.316,0.055-2.563,0.109-3.809,0.033
		c-1-0.063-2.004-0.076-2.992-0.076c-0.344,0-0.688,0.002-1.028,0.004c-0.605,0.002-1.212,0.006-1.808-0.001l-0.313-0.005
		c-1.004-0.016-1.87-0.027-2.703-0.317c-0.726-0.245-1.447-0.258-2.084-0.271c-0.176-0.003-0.352-0.006-0.522-0.017
		c-0.38-0.021-0.768-0.024-1.154-0.021c-0.644,0.002-1.262,0-1.746-0.115c-1.306-0.328-2.645-0.378-4.363-0.161
		c-0.363,0.052-0.74,0.007-1.231-0.147c-0.763-0.235-1.531-0.457-2.299-0.68c-1.808-0.522-3.516-1.018-5.167-1.663l-0.12-0.051
		c-0.326-0.14-0.821-0.362-1.397-0.333c-1.258,0.043-2.481-0.469-3.769-1.004c-0.491-0.205-0.983-0.409-1.474-0.585
		c-2.748-1.002-5.913-2.218-8.687-3.976c-0.451-0.287-0.907-0.521-1.348-0.744c-0.638-0.324-1.245-0.633-1.77-1.082l-0.53-2.29
		c-0.509-2.196-1.032-4.456-1.543-6.705c-0.113-0.528-0.17-0.938-0.176-1.294c-0.054-2.646-0.764-5.096-1.557-7.604
		c-0.158-0.475-0.33-1.035-0.41-1.602c-0.419-2.768-1.116-5.463-1.806-7.963c-0.519-1.89-0.817-3.358-0.966-4.768
		c-0.066-0.59-0.185-1.146-0.301-1.685l-0.074-0.347c-1.123-5.207-2.363-10.75-4.053-16.247c-0.584-1.888-0.924-3.862-1.223-5.727
		l-0.145-0.935c-0.116-0.757-0.233-1.513-0.383-2.267c-0.352-1.78-0.726-3.561-1.119-5.349c-0.117-0.52-0.252-1.038-0.388-1.554
		c-0.108-0.413-0.218-0.826-0.314-1.237l-1.369-5.906c-0.035-0.146-0.065-0.295-0.095-0.442c-0.079-0.383-0.169-0.817-0.314-1.242
		c-1.111-3.354-2.051-6.935-2.873-10.946c-0.194-0.963-0.812-1.73-1.694-2.108c-0.907-0.39-1.966-0.292-2.902,0.294
		c-0.224,0.124-0.6,0.333-0.878,0.739c-0.832,1.204-1.787,2.306-2.799,3.472c-1.164,1.342-2.367,2.729-3.383,4.307
		c-0.869,1.365-1.917,2.602-3.025,3.91c-0.41,0.483-0.821,0.966-1.219,1.455c-0.31,0.377-0.625,0.748-0.94,1.119
		c-0.655,0.768-1.332,1.563-1.954,2.419c-1.519,2.092-3.312,4.062-5.045,5.969c-0.577,0.633-1.154,1.266-1.723,1.907
		c-0.233,0.263-0.474,0.517-0.714,0.772c-0.502,0.533-1.021,1.085-1.499,1.72c-1.577,2.126-3.448,4.111-5.258,6.033l-0.517,0.551
		c-1.099,1.162-2.359,2.542-3.405,4.173c-0.322,0.505-0.77,0.986-1.244,1.498c-0.153,0.165-0.306,0.329-0.455,0.494
		c-2.207,2.446-4.414,4.894-6.643,7.32c-0.551,0.604-1.171,1.228-1.943,1.954c-1.309,1.213-2.337,2.563-3.088,3.605
		c-1.106,1.539-2.378,3.027-3.607,4.468l-0.954,1.122c-0.344,0.4-0.712,0.783-1.079,1.165c-0.516,0.535-1.049,1.09-1.531,1.7
		c-1.033,1.285-2.172,2.639-3.501,3.82c-0.962,0.861-1.839,1.79-2.687,2.689c-0.536,0.566-1.071,1.135-1.625,1.68
		c-0.024,0.024-0.048,0.047-0.072,0.071l-0.323,0.313c-0.696,0.673-1.409,1.331-2.124,1.991c-0.394,0.366-0.79,0.731-1.195,1.11
		l-0.406,0.382c-0.352,0.327-0.702,0.655-1.03,1.005c-0.827,0.878-1.644,1.765-2.462,2.653c-0.914,0.991-1.828,1.982-2.753,2.961
		l-0.661,0.696c-1.35,1.421-2.74,2.886-4.163,4.267l-0.704,0.669c-0.508,0.461-1.067,0.891-1.655,1.344
		c-0.779,0.602-1.586,1.224-2.315,1.952c-1.226,1.214-2.637,2.291-4.002,3.331c-0.698,0.532-1.412,1.076-2.108,1.644
		c-0.052-0.08-0.103-0.162-0.155-0.243c-0.345-0.543-0.7-1.104-1.18-1.634c-1.944-2.142-3.479-4.547-5.105-7.093l-0.318-0.497
		c-0.552-0.851-1.147-1.675-1.765-2.447c-1.626-2.038-3.182-4.056-4.338-6.32c-0.487-0.949-1.042-1.852-1.577-2.723
		c-0.301-0.489-0.602-0.979-0.889-1.474c-0.372-0.643-0.69-1.263-0.945-1.842c-2.059-4.677-4.107-9.354-6.138-14.057
		c-0.352-0.805-0.66-1.65-0.918-2.518l-0.002-0.007c-0.618-2.037-1.2-4.092-1.78-6.138l-0.08-0.28
		c-0.163-0.587-0.044-0.78,0.145-0.991c0.247-0.283,0.47-0.588,0.69-0.895c0.217-0.303,0.421-0.587,0.625-0.795l0.195-0.197
		c1.246-1.256,2.535-2.554,3.871-3.715c1.346-1.164,2.765-2.311,4.137-3.419c0.669-0.54,1.338-1.08,2.004-1.626
		c0.347-0.285,0.698-0.567,1.049-0.851c1.065-0.857,2.168-1.746,3.18-2.719c0.82-0.776,1.739-1.509,2.803-2.24
		c0.404-0.274,0.812-0.545,1.219-0.813c0.575-0.381,1.15-0.763,1.727-1.164l0.569-0.399c0.716-0.498,1.458-1.013,2.136-1.647
		c1.231-1.152,2.593-2.231,3.911-3.272c0.477-0.377,0.954-0.754,1.417-1.128c0.899-0.714,1.825-1.509,2.757-2.366
		c1.307-1.213,2.695-2.401,4.037-3.551c1.93-1.655,3.926-3.365,5.774-5.218c0.968-0.967,1.95-1.919,2.932-2.871
		c0.618-0.599,1.235-1.198,1.849-1.8c1.244-1.226,2.459-2.26,3.71-3.159c1.129-0.807,2.182-1.706,3.2-2.577
		c0.366-0.313,0.732-0.624,1.098-0.931c0.62-0.518,1.232-1.042,1.845-1.567c1.138-0.978,2.316-1.989,3.508-2.905
		c1.891-1.449,3.868-2.881,5.78-4.263c0.811-0.587,1.623-1.175,2.431-1.766c0.084-0.061,0.172-0.113,0.26-0.167
		c0.205-0.125,0.406-0.253,0.583-0.396c2.124-1.669,4.376-3.271,6.555-4.82c2.347-1.67,4.773-3.395,7.094-5.243l1.754-1.424
		c3.678-3.067,7.305-6.043,11.244-8.722l0.193-0.157c0.8-0.765,1.708-1.429,2.669-2.133c1.492-1.091,3.034-2.22,4.221-3.762
		c0.055-0.053,0.125-0.096,0.233-0.172c1.088-0.788,2.152-1.611,3.216-2.436c2.089-1.617,4.061-3.144,6.225-4.427
		c1.619-0.954,3.346-1.835,5.017-2.687c0.66-0.337,1.319-0.674,1.984-1.02c0.235-0.124,0.472-0.242,0.708-0.359
		c0.453-0.224,0.902-0.449,1.326-0.7c2.822-1.647,5.758-2.973,9.039-4.418c1.375-0.617,2.944-1.032,4.329-1.398
		c2.113-0.56,4.236-1.093,6.36-1.627c1.592-0.4,3.183-0.8,4.758-1.208c0.493-0.122,0.869-0.108,1.307,0.055
		c0.849,0.308,1.748,0.56,2.67,0.749c1.959,0.403,3.907,1.018,5.778,1.824c0.982,0.431,1.955,0.651,2.896,0.865
		c0.549,0.124,1.068,0.241,1.571,0.397c0.236,0.071,0.44,0.086,0.625,0.1c0.44,0.036,0.882,0.089,1.326,0.14
		c1.077,0.129,2.192,0.258,3.336,0.182c0.639-0.047,1.333,0.099,2.057,0.249c0.789,0.164,1.682,0.357,2.663,0.312
		c0.705-0.035,1.45,0.055,2.237,0.151c0.674,0.081,1.37,0.166,2.099,0.181c1.417,0.03,2.878,0.159,4.291,0.284
		c0.882,0.078,1.763,0.156,2.651,0.213c0.653,0.04,1.308,0.042,1.963,0.043c1.137,0.002,2.213,0.004,3.266,0.233
		c0.367,0.068,0.692,0.052,0.93,0.038l0.118-0.007c0.638-0.054,1.274-0.114,1.91-0.173c1.34-0.126,2.727-0.256,4.078-0.324
		c1.799-0.089,3.588-0.103,5.318-0.049c3.233,0.106,6.676-0.246,10.515-1.073c0.47-0.101,0.947-0.164,1.424-0.227
		c0.343-0.046,0.685-0.092,1.014-0.147c0.654-0.103,1.299-0.227,1.947-0.364c0.342-0.072,0.681-0.154,1.021-0.237
		c0.59-0.144,1.146-0.28,1.688-0.354c2.278-0.307,4.389-0.958,6.16-1.558l1.541-0.527c1.392-0.471,2.829-0.959,4.219-1.498
		c1.098-0.415,2.392-0.932,3.687-1.625c0.942-0.512,1.997-0.909,3.114-1.329c0.365-0.139,0.736-0.278,1.111-0.425l0.745,0.219
		c2.105,0.615,4.092,1.195,5.867,2.145c0.509,0.277,1.038,0.455,1.503,0.612l0.216,0.072c1.393,0.467,2.669,1.172,3.74,1.802
		c1.369,0.802,2.793,1.496,4.17,2.167c0.628,0.305,1.256,0.611,1.885,0.929c0.188,0.094,0.38,0.179,0.572,0.263
		c0.262,0.115,0.51,0.224,0.666,0.333c1.262,0.888,2.587,1.662,3.869,2.411c1.397,0.818,2.718,1.589,3.961,2.493
		c0.96,0.703,1.971,1.319,2.95,1.915c0.48,0.293,0.962,0.585,1.438,0.89l0.641,0.405c0.785,0.495,1.525,0.962,2.259,1.481
		c0.978,0.681,1.842,1.182,2.725,1.579c3.076,1.371,5.745,3.396,8.172,5.382c2.437,1.988,4.574,3.491,6.737,4.731
		c2.379,1.353,4.814,3.048,7.662,5.335c3.06,2.462,5.698,4.428,8.296,6.182c2.079,1.413,4.116,3.019,6.086,4.573l0.452,0.357
		c1.06,0.834,2.118,1.672,3.174,2.51c4.128,3.277,8.397,6.663,12.857,9.701c1.118,0.964,2.31,1.824,3.464,2.656
		c1.422,1.024,2.764,1.994,3.979,3.142c0.2,0.187,0.444,0.401,0.793,0.613c1.524,0.845,2.862,1.976,4.279,3.173
		c0.936,0.791,1.902,1.607,2.922,2.334c0.101,0.073,0.203,0.143,0.308,0.209c0.071,0.048,0.147,0.09,0.185,0.12
		c1.484,1.785,3.306,3.044,5.068,4.26c0.835,0.577,1.624,1.121,2.316,1.668c0.16,0.143,0.338,0.256,0.522,0.364l0.091,0.054
		c1.717,1.306,3.51,2.531,5.245,3.718c2.316,1.584,4.712,3.222,6.885,5.022l0.186,0.13c2.014,1.211,3.852,2.621,5.797,4.114
		l0.815,0.625c0.527,0.4,1.094,0.662,1.594,0.892c0.273,0.126,0.551,0.25,0.811,0.405c0.887,0.526,1.749,1.047,2.538,1.631
		c0.341,0.255,0.521,0.612,0.538,1.062c0.114,3.294,0.244,7.024-1.01,10.483C446.906,320.161,446.727,320.8,446.554,321.419
		 M336.213,525.111c-0.198-0.028-0.397-0.057-0.612-0.072c-0.196-0.014-0.393-0.032-0.586-0.053c-0.446-0.045-0.948-0.097-1.5-0.068
		c-0.401,0.021-0.78,0.092-1.113,0.152c-0.347,0.065-0.683,0.117-0.885,0.109c-2.287-0.183-4.331-0.405-6.244-0.678
		c-1.392-0.202-2.625-0.822-3.668-1.839c-0.657-0.644-1.081-1.357-1.37-2.308l-0.306-1.03c-0.687-2.324-1.395-4.729-2.539-7.019
		c-0.835-1.678-2.037-3.835-3.929-5.617c-0.616-0.59-1.237-1.176-1.858-1.762c-0.925-0.873-1.85-1.747-2.765-2.631l-0.226-0.219
		c-0.512-0.491-0.996-0.955-1.377-1.457c-1.004-1.307-1.981-2.683-2.925-4.013l-0.419-0.59c-0.997-1.41-1.486-3.099-2.005-4.889
		c-0.113-0.393-0.228-0.783-0.344-1.164c-0.046-0.152-0.052-0.424-0.057-0.713c-0.003-0.156-0.007-0.316-0.016-0.477
		c0.189-2.131,0.507-4.38,1.474-6.441c0.674-1.437,1.507-2.383,2.7-3.069c1.519-0.874,2.892-1.938,4.221-2.967
		c0.451-0.35,0.903-0.701,1.372-1.051c0.148-0.113,0.293-0.233,0.434-0.356l0.826-0.739c0.136-0.118,0.277-0.235,0.426-0.346
		c0.7-0.521,1.318-1.169,1.881-1.971c0.415,0.399,0.831,0.8,1.27,1.172c1.217,1.038,2.24,2.089,3.121,3.211
		c0.896,1.149,1.955,2.229,3.331,3.399c1.395,1.187,2.784,2.452,4.126,3.678l1.143,1.041c-0.333,1.184-0.707,2.391-1.14,3.683
		c-0.269,0.804-0.498,1.66-0.704,2.617c-0.454,2.088-1.019,4.151-1.559,6.086c-0.727,2.605-0.844,5.396-0.359,8.526
		c0.197,1.296,0.538,2.434,1.048,3.488l0.151,0.304c0.217,0.433,0.422,0.843,0.54,1.221c1.174,3.866,3.464,7.021,5.678,10.07
		l0.646,0.899c0.2,0.308,0.505,0.772,1.013,1.043c0.464,0.269,0.919,0.589,1.399,0.93c0.896,0.632,1.885,1.331,3.096,1.759
		c-0.301,0.053-0.604,0.115-0.896,0.2C336.626,525.171,336.378,525.137,336.213,525.111 M322.893,473.057
		c-0.711-0.918-1.521-1.717-2.305-2.491c-0.754-0.74-1.521-1.467-2.293-2.193c-0.202-0.192-0.405-0.385-0.607-0.574
		c0.168-0.127,0.33-0.24,0.485-0.325c2.789-1.517,5.442-3.323,7.891-5.371c0.41-0.344,0.88-0.66,1.377-0.994
		c0.476-0.318,0.968-0.649,1.438-1.027l1.549-1.226c3.225-2.544,6.559-5.174,9.502-8.242c0.445-0.466,0.873-0.951,1.321-1.466
		c0.415-0.47,0.82-0.953,1.225-1.434c0.898-1.075,1.749-2.09,2.708-2.966c0.753-0.683,1.421-1.42,2.065-2.135
		c0.976-1.075,1.895-2.093,3.037-2.852c0.543-0.373,0.908-0.876,1.202-1.28l0.194-0.262c1.04-1.406,2.17-2.885,3.531-4.163
		c0.902-0.834,1.581-1.82,2.237-2.773c0.223-0.323,0.445-0.646,0.676-0.963c0.447-0.609,0.967-1.199,1.74-1.973
		c1.041-1.043,1.977-2.218,2.781-3.496c0.482-0.771,1.061-1.551,1.77-2.383l1.524-1.786c1.431-1.676,2.863-3.351,4.263-5.054
		c1.102-1.34,2.27-2.662,3.399-3.942l0.534-0.604c1.098-1.237,2.051-2.579,2.973-3.877c0.377-0.532,0.754-1.064,1.138-1.582
		c0.166-0.224,0.324-0.456,0.481-0.69c0.243-0.362,0.473-0.704,0.718-0.958c1.568-1.632,2.781-3.477,3.954-5.261
		c0.361-0.55,0.721-1.1,1.094-1.645c1.708-2.509,5.03-5.887,7.416-7.539c0.411-0.289,0.765-0.617,1.146-0.974
		c0.581-0.581,0.616-1.442,0.605-1.786c-0.021-0.678-0.256-1.231-0.712-1.631c-0.475-0.393-1.016-0.597-1.405-0.705
		c-0.717-0.187-1.368,0.09-1.573,0.176c-0.343,0.143-0.811,0.335-1.226,0.684c-3.793,3.156-6.384,5.888-8.403,8.863
		c-0.808,1.193-1.599,2.4-2.389,3.607c-0.436,0.666-0.872,1.332-1.293,1.968l-0.098,0.146c-0.081,0.119-0.192,0.282-0.271,0.352
		c-1.642,1.505-2.84,3.29-3.783,4.823c-0.221,0.347-0.523,0.703-0.854,1.091c-0.687,0.807-1.378,1.61-2.07,2.414
		c-1.397,1.625-2.797,3.252-4.164,4.902c-1.676,2.021-3.328,4.065-4.982,6.113c-0.827,1.022-1.656,2.046-2.482,3.062
		c-0.335,0.409-0.677,0.814-1.019,1.221c-0.414,0.492-0.829,0.986-1.281,1.542c-0.926,1.155-1.85,2.31-2.757,3.508
		c-0.438,0.593-0.91,1.214-1.459,1.729c-1.388,1.278-2.96,2.727-4.044,4.692c-0.174,0.313-0.533,0.649-0.913,1.008
		c-0.197,0.184-0.391,0.368-0.575,0.557c-0.602,0.622-1.207,1.241-1.811,1.859c-1.336,1.367-2.672,2.732-3.981,4.127
		c-1.177,1.246-2.394,2.535-3.458,4.013c-0.646,0.901-1.522,1.695-2.435,2.493c-3.433,2.979-6.316,5.321-9.08,7.368
		c-0.538,0.398-1.073,0.801-1.61,1.203c-2.614,1.963-5.318,3.991-8.209,5.553l-0.201,0.106c-1.547,0.836-3.146,1.698-4.63,2.801
		c-0.251,0.182-0.555,0.341-0.892,0.49l-0.346,0.148c-0.14,0.057-0.284,0.115-0.432,0.172c-2.042,0.825-4.035,1.782-5.925,2.844
		c-3.636,2.054-7.479,3.617-11.424,5.172c-1.438,0.566-2.949,1.064-4.412,1.547c-0.62,0.204-1.241,0.407-1.892,0.63
		c-0.064,0.022-0.134,0.036-0.2,0.052c-0.244,0.056-0.577,0.133-0.925,0.325c-1.296,0.72-2.808,0.964-4.408,1.22l-3.412,0.543
		c-2.335,0.369-4.673,0.738-6.999,1.139c-1.255,0.212-2.531,0.315-3.854,0.301c-1.526-0.028-3.111-0.032-4.85-0.011
		c-2.339,0.034-4.825,0.019-7.277-0.65c-0.584-0.164-1.385-0.391-2.196-0.203c-1.93,0.423-3.839-0.076-5.863-0.606l-0.942-0.242
		c-3.061-0.78-5.711-1.581-8.093-2.445c-1.107-0.407-2.23-0.664-3.316-0.913l-0.553-0.128c-2.915-0.698-5.537-1.354-8.113-2.307
		c-0.604-0.227-1.203-0.533-1.838-0.859c-0.301-0.155-0.6-0.309-0.892-0.451c-0.298-0.146-0.576-0.329-0.856-0.509
		c-0.627-0.403-1.337-0.859-2.217-1.08c-0.077-0.025-0.29-0.174-0.441-0.381c-1.285-1.755-3.093-2.741-4.337-3.328
		c-1.501-0.714-2.874-1.632-4.329-2.605c-0.584-0.39-1.168-0.779-1.764-1.158c-2.949-1.865-5.878-3.925-8.711-5.915l-0.987-0.693
		c-1.782-1.255-3.538-2.544-5.294-3.834c-0.898-0.66-1.796-1.319-2.697-1.974l-0.03-0.021c-1.03-1.374-2.308-2.371-3.545-3.336
		c-0.778-0.607-1.512-1.18-2.162-1.828c-0.708-0.698-1.49-1.268-2.247-1.819c-0.302-0.222-0.606-0.441-0.904-0.673
		c-1.268-0.975-2.735-2.121-4.084-3.368c-1.21-1.125-2.47-2.222-3.687-3.28c-1.091-0.949-2.182-1.899-3.241-2.87
		c-1.037-0.963-2.061-2-3.051-3.003c-0.484-0.49-0.967-0.979-1.453-1.463c-0.427-0.423-0.851-0.852-1.276-1.278
		c-1.069-1.08-2.176-2.196-3.316-3.242c-0.741-0.68-1.518-1.313-2.268-1.924c-0.824-0.671-1.601-1.305-2.328-1.991
		c-1.224-1.156-2.533-2.188-3.801-3.186c-1.09-0.86-2.119-1.67-3.104-2.559c-0.825-0.744-1.721-1.383-2.586-2.001
		c-0.281-0.199-0.564-0.4-0.843-0.605l-0.235-0.172c-2.665-1.949-5.42-3.964-7.79-6.269c-0.354-0.353-0.74-0.724-1.199-1.017
		c-0.968-0.646-1.868-1.383-2.821-2.163c-1.035-0.848-2.105-1.725-3.273-2.48c-0.195-0.129-0.408-0.33-0.635-0.545
		c-0.233-0.221-0.47-0.44-0.731-0.645c-0.568-0.436-1.148-0.806-1.686-1.146c-0.558-0.354-1.275-0.46-1.972-0.285
		c-0.676,0.166-1.243,0.571-1.577,1.154c-0.444,0.832-0.364,2.24,0.495,3.035l0.347,0.31c0.477,0.428,0.969,0.868,1.548,1.232
		c0.284,0.184,0.569,0.363,0.855,0.541c1.2,0.753,2.332,1.463,3.244,2.426c0.418,0.438,0.892,0.717,1.31,0.962
		c0.165,0.099,0.331,0.194,0.488,0.307c0.198,0.138,0.403,0.27,0.609,0.4c0.369,0.236,0.718,0.458,0.9,0.672
		c1.059,1.253,2.304,2.202,3.508,3.121c0.94,0.719,1.828,1.396,2.599,2.192c0.472,0.481,1.017,0.8,1.498,1.083
		c0.195,0.113,0.39,0.226,0.575,0.354c0.308,0.212,0.62,0.419,0.931,0.627c0.838,0.559,1.629,1.086,2.366,1.685
		c3.02,2.429,5.513,4.492,7.838,6.484c0.621,0.539,1.25,1.067,1.88,1.599c1.994,1.675,3.876,3.259,5.516,5.139
		c0.667,0.759,1.385,1.446,2.078,2.112c0.985,0.945,1.917,1.838,2.653,2.863c0.323,0.456,0.728,0.757,1.054,0.999l0.22,0.167
		c1.457,1.111,2.719,2.242,3.853,3.45c0.913,0.98,1.947,1.801,2.947,2.594c0.279,0.222,0.558,0.441,0.833,0.667
		c0.497,0.403,0.968,0.839,1.439,1.271c1.044,0.959,2.123,1.95,3.493,2.704c0.089,0.048,0.264,0.229,0.405,0.371
		c0.179,0.184,0.361,0.365,0.558,0.529c0.544,0.448,1.094,0.888,1.644,1.329c0.53,0.425,1.06,0.85,1.582,1.277
		c0.24,0.199,0.488,0.393,0.736,0.585c0.561,0.437,1.091,0.849,1.478,1.313c0.976,1.147,2.087,1.993,3.141,2.761l1.407,1.023
		c3.106,2.261,6.317,4.598,9.58,6.79c1.486,0.996,2.962,2.012,4.438,3.027c1.323,0.911,2.647,1.822,3.97,2.714
		c0.563,0.386,1.139,0.709,1.697,1.022c0.285,0.16,0.57,0.32,0.855,0.49c0.122,0.071,0.242,0.146,0.361,0.221
		c-1.788,2.237-3.477,3.906-5.278,5.223l-0.525,0.391c-1.346,1.003-2.616,1.95-4.034,2.653c-0.778,0.391-1.464,0.896-2.109,1.388
		c-1.489,1.156-2.898,2.126-4.316,2.971c-1.526,0.921-2.888,2.059-4.203,3.161l-0.294,0.245c-1.192,0.98-2.515,1.73-3.59,2.294
		c-0.513-0.362-0.996-0.708-1.374-1.094c-1.106-1.135-2.195-2.292-3.284-3.45l-1.535-1.628c-0.194-0.204-0.386-0.41-0.577-0.617
		c-0.469-0.506-0.953-1.029-1.494-1.524c-1.256-1.148-2.332-2.448-3.471-3.823c-0.284-0.344-0.567-0.687-0.856-1.027
		c-1.973-2.337-4.081-4.844-6.126-7.343c-0.475-0.58-0.985-1.138-1.496-1.693c-0.428-0.468-0.857-0.935-1.264-1.42
		c-1.41-1.681-2.812-3.37-4.213-5.061c-1.183-1.428-2.366-2.854-3.552-4.272c-0.334-0.403-0.739-0.873-1.218-1.316
		c-0.848-0.781-1.594-1.734-2.287-2.923l-0.067-0.112c-0.21-0.354-0.447-0.759-0.747-1.123c-1.657-2.091-3.324-4.175-4.991-6.257
		l-1.586-1.981c-0.145-0.179-0.305-0.353-0.467-0.523c-0.168-0.178-0.343-0.362-0.415-0.494c-0.781-1.386-1.742-2.596-2.672-3.765
		c-0.552-0.696-1.074-1.353-1.547-2.025l-0.076-0.111c-0.25-0.368-0.56-0.825-1.015-1.195c-1.227-1-2.149-2.321-3.126-3.721
		l-0.283-0.404c-0.204-0.28-0.437-0.598-0.754-0.928c-2.241-2.213-4.099-4.922-5.737-7.313c-0.77-1.12-1.641-2.158-2.483-3.164
		l-0.581-0.694c-2.492-2.996-5.322-6.614-7.418-10.745c-0.368-0.721-0.773-1.422-1.178-2.122c-0.345-0.596-0.69-1.191-1.007-1.798
		c-0.597-1.144-1.193-2.393-1.508-3.781c-0.473-2.067-1.407-3.967-2.169-5.392c-0.995-1.86-1.908-3.753-2.721-5.64
		c-0.254-0.576-0.359-1.307-0.47-2.081l-0.048-0.325c-0.078-0.519-0.135-1.038-0.192-1.559c-0.105-0.966-0.214-1.965-0.45-2.975
		c-0.29-1.267-0.117-2.654,0.119-4.201c0.377-2.397,0.797-4.314,1.323-6.033c0.385-1.255,1.079-2.521,1.77-3.701
		c0.955-1.628,2.038-3.237,3.086-4.796l0.328-0.488c0.772-1.129,1.834-2.061,2.958-3.049l0.373-0.327
		c0.336-0.3,0.675-0.598,1.014-0.895c1.258-1.106,2.559-2.248,3.757-3.543c1.097-1.184,2.548-2.193,4.195-2.919
		c1.563-0.69,3.631-1.552,5.781-2.114c1.231-0.328,2.318-0.491,3.352-0.491c0.506,0,0.999,0.039,1.491,0.116
		c0.551,0.085,1.173,0.184,1.834,0.133c1.805-0.126,3.597,0.278,5.484,0.705l0.406,0.092c3.932,0.879,7.991,2.214,12.777,4.204
		c0.344,0.142,0.656,0.297,0.936,0.469l2.643,1.586c2.722,1.63,5.536,3.314,8.242,5.042l0.567,0.36
		c1.722,1.101,3.504,2.238,5.11,3.522c1.246,0.988,2.565,1.889,3.842,2.761l0.923,0.634c2.873,1.999,5.822,4.262,8.767,6.722
		c1.047,0.873,2.105,1.731,3.163,2.592c0.762,0.62,1.525,1.239,2.278,1.858c1.2,0.998,2.451,2.077,3.416,3.34
		c0.773,0.991,1.729,1.705,2.482,2.22c0.719,0.487,1.701,0.551,2.63,0.168c0.936-0.387,1.595-1.131,1.765-1.999
		c0.031-0.167,0.05-0.334,0.068-0.5l0.093-0.752c0.051-0.388,0.1-0.776,0.121-1.148c0.049-0.716,0.218-1.446,0.396-2.221
		c0.259-1.123,0.527-2.284,0.487-3.595c-0.047-1.288,0.086-2.597,0.226-3.981c0.027-0.259,0.053-0.518,0.078-0.777
		c0.108,0.056,0.215,0.11,0.33,0.167c0.619,0.295,1.227,0.61,1.835,0.928c0.519,0.269,1.038,0.538,1.563,0.797
		c1.451,0.71,2.952,1.443,4.673,1.928c0.953,0.262,1.896,0.75,2.894,1.267c0.302,0.155,0.603,0.312,0.886,0.451
		c0.649,0.334,1.639,0.783,2.867,0.726c0.635-0.023,1.172,0.102,1.712,0.393c0.884,0.475,1.964,0.974,3.254,1.09
		c0.114,0.019,0.414,0.173,0.632,0.284c2.328,1.23,4.614,1.727,6.989,1.508c1.181-0.1,2.364,0.03,3.543,0.394
		c0.99,0.295,1.932,0.28,2.769,0.267l0.5-0.005c3.612,0,7.497,0.025,11.471,0.202c1.157,0.047,2.353,0.098,3.593,0.015
		c2.034-0.142,4.127-0.199,6.151-0.257c1.237-0.034,2.473-0.067,3.707-0.121l0.767-0.029c1.462-0.055,2.976-0.11,4.483-0.335
		c0.991-0.147,2.025-0.248,3.026-0.345c1.902-0.184,3.868-0.374,5.813-0.903c1.56-0.052,2.967-0.463,4.33-0.862
		c0.275-0.081,0.549-0.161,0.825-0.239c1.081-0.303,2.171-0.571,3.26-0.839c0.552-0.136,1.104-0.272,1.711-0.428
		c0.139-0.041,0.274-0.098,0.48-0.188c4.26-0.708,8.265-2.249,11.802-3.609c0.807-0.313,1.625-0.595,2.441-0.877
		c1.625-0.564,3.303-1.146,4.922-1.95c0.071,0.517,0.08,1.087,0.088,1.687c0.012,0.885,0.007,1.772,0.003,2.658
		c-0.004,0.711-0.007,1.421-0.003,2.149c0.016,0.923,0.417,1.773,1.163,2.466c0.737,0.681,2.282,0.892,3.193,0.128l0.147-0.12
		c0.251-0.201,0.594-0.475,0.842-0.907c0.441-0.756,1.14-1.31,2.078-2.008c0.312-0.232,0.622-0.468,0.931-0.705
		c0.874-0.667,1.7-1.295,2.57-1.81c1.238-0.734,2.32-1.606,3.366-2.449c0.455-0.367,0.909-0.734,1.37-1.082
		c0.694-0.523,1.412-1.015,2.128-1.506c0.777-0.534,1.556-1.069,2.305-1.636c1.496-1.13,3.084-2.207,4.619-3.249l0.819-0.558
		c2.732-1.853,5.447-3.735,8.155-5.614c0.185-0.126,0.374-0.246,0.565-0.366c0.56-0.356,1.195-0.761,1.728-1.312
		c0.877-0.893,1.977-1.609,3.032-2.299c3.621-2.338,7.25-4.656,10.88-6.974l0.142-0.091c2.153-1.367,3.956-2.364,5.676-3.141
		c0.963-0.438,1.919-0.885,2.875-1.332c0.686-0.322,1.373-0.643,2.065-0.962c1.675-0.776,3.244-1.31,4.807-1.633
		c0.649-0.136,1.293-0.302,1.935-0.47c1.101-0.286,2.14-0.558,3.188-0.655c0.29-0.027,0.582-0.083,0.871-0.142
		c0.246-0.051,0.548-0.112,0.68-0.096c0.945,0.128,1.842,0.085,2.708,0.045c0.829-0.04,1.613-0.077,2.405,0.059
		c0.593,0.098,1.168,0.192,1.717,0.328l1.478,0.532c0.239,0.119,0.491,0.218,0.748,0.314l0.61,0.248
		c3.369,1.421,3.369,1.421,6.057,4.646l0.234,0.28c0.996,1.199,1.849,2.63,2.695,4.049c0.326,0.549,0.534,1.239,0.753,2.012
		c0.451,1.634,0.915,3.572,0.925,5.569c0,0.707,0.078,1.379,0.152,2.031c0.049,0.412,0.097,0.824,0.119,1.225
		c0.077,1.54,0.151,2.995-0.145,4.413c-0.08,0.422-0.171,0.984-0.158,1.576c0.034,2.122-0.295,4.212-0.644,6.423l-0.149,0.956
		c-0.083,0.566-0.208,1.137-0.342,1.742c-0.252,1.143-0.512,2.323-0.508,3.604c-0.19,0.607-0.375,1.215-0.561,1.822
		c-0.458,1.51-0.931,3.072-1.498,4.542c-0.757,1.986-1.623,3.99-2.46,5.927c-0.37,0.855-0.737,1.709-1.107,2.584
		c-0.08,0.196-0.151,0.399-0.225,0.603c-0.098,0.28-0.191,0.546-0.299,0.747c-0.382,0.716-0.757,1.435-1.133,2.153
		c-1.261,2.419-2.565,4.918-4.079,7.187c-2.31,3.44-4.143,6.267-5.775,8.903c-1.514,2.475-2.922,4.638-4.303,6.617
		c-1.031,1.487-1.976,3.065-2.892,4.83c-2.063,4.024-4.609,7.892-7.071,11.632l-0.506,0.769c-0.899,1.362-1.761,2.748-2.623,4.133
		c-1.141,1.833-2.32,3.729-3.556,5.515c-0.412,0.591-0.817,1.187-1.224,1.781c-1.815,2.67-3.532,5.191-5.8,7.319
		c-0.6,0.571-1.061,1.207-1.506,1.822l-2.444,3.277c-2.047,2.738-4.166,5.568-6.205,8.402c-1.824,2.542-3.518,4.756-5.18,6.773
		c-1.134,1.381-2.076,2.845-2.843,4.087c-0.622,0.997-1.249,1.951-2.086,2.693c-0.36,0.326-0.58,0.709-0.741,0.989
		c-0.013,0.021-0.025,0.044-0.037,0.065c-0.114-0.062-0.254-0.149-0.361-0.218c-0.253-0.158-0.509-0.314-0.762-0.432
		c-2.939-1.388-5.358-3.515-7.919-5.766l-0.224-0.196c-0.192-0.169-0.376-0.348-0.562-0.527c-0.365-0.354-0.744-0.719-1.203-1.056
		C324.475,474.868,323.71,474.101,322.893,473.057 M195.449,532.438c-0.313,0.012-0.603,0.022-0.814-0.007
		c-1.327-0.196-2.596-0.054-3.875,0.43c-0.434,0.163-0.846,0.222-1.366,0.227c0.655-0.544,1.232-1.135,1.772-1.689
		c0.296-0.303,0.592-0.605,0.897-0.897c1.619-1.545,2.627-3.457,3.328-4.961c0.114-0.25,0.221-0.506,0.326-0.763
		c0.172-0.416,0.334-0.809,0.525-1.134c0.984-1.681,1.857-3.556,2.673-5.741c0.3-0.815,0.668-1.634,1.092-2.424
		c1.264-2.339,1.963-4.426,2.201-6.57c0.038-0.353,0.112-0.698,0.184-1.046c0.076-0.369,0.151-0.74,0.197-1.088
		c0.089-0.573,0.17-1.257,0.101-1.959l-0.024-0.256c-0.252-2.667-0.512-5.425-1.091-8.133c-0.265-1.246-0.466-2.603-0.636-4.27
		c-0.203-2.038-0.543-3.727-1.072-5.324c-0.046-0.135-0.077-0.225,0.308-0.507c0.456-0.335,0.904-0.683,1.353-1.029
		c1.289-1.001,2.506-1.947,3.9-2.556l0.18-0.078l0.153-0.122c0.509-0.404,1.025-0.799,1.542-1.193
		c1.527-1.166,3.107-2.371,4.499-3.855l0.191-0.209c0.086-0.096,0.178-0.196,0.261-0.278c0.316,0.171,0.625,0.354,0.934,0.538
		c0.368,0.218,0.736,0.435,1.115,0.638c0.704,0.375,1.412,0.741,2.12,1.107c0.897,0.465,1.793,0.929,2.684,1.41
		c2.089,1.122,3.81,2.283,5.279,3.563l0.217,0.18c0.208,0.171,0.491,0.406,0.55,0.512c0.643,1.209,1.458,2.233,2.244,3.227
		c0.414,0.521,0.829,1.043,1.215,1.592c1.465,2.079,1.974,4.289,1.556,6.753c-0.578,3.39-1.788,5.926-3.807,7.979
		c-1.646,1.664-3.354,3.206-5.078,4.58c-3.464,2.755-6.081,5.67-7.996,8.909c-0.71,1.195-1.451,2.372-2.192,3.55
		c-0.675,1.072-1.351,2.146-2.001,3.229c-1.323,2.188-3.046,4.215-5.263,6.195c-0.938,0.834-1.8,1.226-2.794,1.273
		c-1.135,0.054-2.265,0.133-3.397,0.213c-0.045,0.004-0.089,0.007-0.133,0.01l-1.5-0.034
		C195.822,532.426,195.635,532.432,195.449,532.438 M187.359,293.661c0.405,1.99,0.879,3.988,1.337,5.922
		c0.807,3.41,1.642,6.936,2.104,10.438c0.257,1.951,0.716,3.856,1.159,5.698c0.131,0.542,0.261,1.083,0.388,1.631
		c0.144,0.606,0.377,1.158,0.583,1.646c0.163,0.387,0.318,0.753,0.408,1.1c0.59,2.2,1.115,4.365,1.562,6.435
		c0.447,2.092,0.921,4.175,1.394,6.265l0.139,0.607c0.086,0.389,0.184,0.776,0.282,1.164c0.257,1.014,0.5,1.97,0.512,2.891
		c0,0.573,0.137,1.071,0.258,1.513c0.036,0.128,0.071,0.256,0.099,0.379l3.267,14.324c0.079,0.37,0.128,0.758,0.178,1.138
		l0.038,0.286c0.283,2.485,0.642,5.145,1.34,7.754c0.291,1.094,0.444,2.225,0.607,3.421c0.111,0.821,0.224,1.643,0.381,2.465
		c0.061,0.312,0.028,0.743-0.012,1.172l-0.077,0.898c-0.18,2.096-0.365,4.262-0.6,6.38c-0.06,0.532-0.165,1.066-0.291,1.613
		l-0.147-0.133c-0.887-0.801-1.776-1.604-2.673-2.39c-1.211-1.059-2.431-2.107-3.673-3.138c-0.726-0.6-1.461-1.188-2.196-1.777
		l-1.288-1.035c-0.074-0.062-0.147-0.125-0.219-0.189c-0.285-0.255-0.642-0.572-1.124-0.788c-0.883-0.399-1.663-1.041-2.488-1.719
		c-0.461-0.378-0.922-0.756-1.4-1.099c-0.896-0.649-1.799-1.291-2.703-1.934c-1.583-1.124-3.22-2.287-4.776-3.463
		c-1.322-1.011-2.724-1.883-4.079-2.727c-1.283-0.8-2.494-1.554-3.637-2.407c-0.336-0.255-0.68-0.4-0.956-0.516
		c-0.106-0.044-0.213-0.083-0.32-0.147c-0.297-0.177-0.599-0.35-0.902-0.521c-0.784-0.443-1.525-0.862-2.143-1.381
		c-2.355-1.938-5.039-3.107-7.371-4.052c-2.582-1.044-5.29-1.946-8.048-2.678l-1.037-0.278c-3.144-0.847-6.387-1.72-9.837-1.72
		c-0.288,0-0.577,0.006-0.867,0.018c-0.17,0.008-0.247,0.002-0.267-0.002c-2.976-0.598-5.715-0.023-8.44,0.855
		c0.347-0.37,0.696-0.741,1.043-1.115c0.146-0.158,0.296-0.312,0.447-0.464c0.395-0.406,0.803-0.825,1.184-1.344
		c0.583-0.819,1.284-1.557,2.025-2.335c0.27-0.285,0.542-0.57,0.807-0.86c1.277-1.387,2.93-3.241,4.406-5.291
		c1.385-1.93,2.753-3.511,4.186-4.839c1.007-0.943,2.012-2.03,3.161-3.42l0.079-0.097c1.258-1.521,2.446-2.959,3.858-4.195
		c1.026-0.907,2.316-2.164,3.194-3.846c0.18-0.341,0.5-0.706,0.839-1.092l0.705-0.8c1.115-1.27,2.27-2.58,3.439-3.817
		c0.285-0.301,0.574-0.597,0.862-0.894c1.15-1.182,2.34-2.404,3.288-3.908c0.219-0.347,0.546-0.714,0.997-1.118
		c1.247-1.109,2.287-2.368,3.292-3.584l0.5-0.602c0.393-0.469,0.79-0.934,1.187-1.398c1.331-1.555,2.706-3.165,3.916-4.934
		c0.53-0.781,1.182-1.508,1.874-2.277c0.453-0.504,0.905-1.007,1.325-1.524c0.862-1.055,1.707-2.121,2.552-3.188
		c0.744-0.939,1.487-1.878,2.241-2.806c0.5-0.615,1.032-1.231,1.565-1.835c0.101,0.328,0.194,0.656,0.277,0.985
		c0.209,0.828,0.401,1.66,0.593,2.491C186.138,289.511,186.625,291.614,187.359,293.661 M384.824,333.349l-0.429,0.019
		c-0.771,0.025-1.783,0.083-2.792,0.29c-2.101,0.434-4.216,0.935-6.269,1.421c-0.771,0.186-1.446,0.404-2.062,0.67l-1.595,0.684
		c-2.185,0.936-4.44,1.902-6.638,2.936c-2.182,1.021-3.796,1.938-5.232,2.973c-1.053,0.76-2.154,1.434-3.321,2.148
		c-0.482,0.294-0.962,0.588-1.438,0.888c-0.734,0.461-1.472,0.92-2.208,1.379c-1.616,1.006-3.233,2.013-4.832,3.052
		c-1.419,0.924-2.921,1.955-4.281,3.23c-0.582,0.54-1.263,1.147-1.975,1.535c-1.579,0.869-3.009,1.916-4.39,2.928
		c-0.678,0.496-1.357,0.992-2.047,1.464c-0.796,0.539-1.596,1.073-2.396,1.609c-1.507,1.008-3.013,2.017-4.501,3.051l-0.604,0.42
		c-1.304,0.9-2.652,1.834-3.892,2.936c-1.298,1.167-2.718,2.153-4.221,3.197c-0.691,0.48-1.384,0.961-2.07,1.463
		c-0.312,0.232-0.624,0.458-0.935,0.679c-0.077-1.226-0.144-2.395-0.151-3.578l-0.005-0.666c-0.016-2.039-0.031-3.968,0.646-5.73
		l0.525-3.413c0.277-1.918,0.553-3.836,0.819-5.754c0.027-0.196,0.042-0.394,0.055-0.591c0.015-0.188,0.027-0.38,0.051-0.466
		c0.433-1.507,0.691-3.025,0.942-4.494c0.125-0.733,0.25-1.465,0.396-2.19c0.097-0.473,0.178-0.951,0.26-1.429
		c0.197-1.163,0.383-2.262,0.8-3.245l0.092-0.304c0.184-0.951,0.388-1.899,0.591-2.847c0.557-2.589,1.131-5.265,1.275-8.043
		c0.099-2.01,0.497-4.123,1.293-6.857c0.688-2.387,1.12-4.834,1.539-7.201c0.135-0.763,0.271-1.526,0.415-2.289
		c0.151-0.813,0.288-1.63,0.424-2.447c0.229-1.354,0.462-2.758,0.765-4.098c0.401-1.782,0.762-3.546,1.181-5.66
		c0.119-0.624,0.267-1.236,0.415-1.849c0.097-0.404,0.195-0.81,0.286-1.217c0.061-0.279,0.133-0.559,0.203-0.837
		c0.205-0.809,0.417-1.642,0.46-2.533c0.103-1.854,0.479-3.772,1.146-5.858c0.171-0.523,0.277-1.092,0.305-1.659
		c0.068-1.79,0.511-3.521,0.979-5.354c0.009-0.038,0.019-0.075,0.029-0.112c1.523,1.258,3.091,2.616,4.514,4.149
		c2.393,2.582,4.889,5.131,7.303,7.597l0.927,0.945c1.467,1.495,2.949,2.977,4.433,4.461c1.156,1.154,2.312,2.31,3.473,3.485
		c1.646,1.664,3.347,3.386,5.252,4.898c0.513,0.405,1.002,0.931,1.426,1.396c2.134,2.329,4.633,4.536,8.098,7.152
		c0.65,0.496,1.274,1.031,1.936,1.597c0.316,0.272,0.633,0.542,0.948,0.808l1.899,1.6c1.237,1.046,2.478,2.094,3.732,3.13
		c0.661,0.544,1.334,1.078,2.007,1.612c0.976,0.772,1.983,1.571,2.926,2.384c2.065,1.787,3.688,3.272,5.106,4.673
		c0.573,0.565,1.203,1.188,1.887,1.82C387.119,333.259,385.958,333.305,384.824,333.349 M33.011,368.256
		c-1.063,0.631-1.714,1.529-2.287,2.321l-0.122,0.168c-0.078,0.108-0.158,0.219-0.237,0.329c-0.094-0.61-0.394-1.179-0.893-1.664
		c-0.866-0.825-2.006-1.07-3.059-0.654c-0.95,0.384-1.942,0.836-2.713,1.73c-0.63,0.719-1.403,1.329-2.221,1.977l-0.463,0.367
		c-0.596,0.471-1.368,1.105-2.061,1.848c-2.056,2.183-4.292,4.095-6.658,6.119l-0.531,0.454c-0.901,0.78-1.793,1.559-2.666,2.362
		c-0.789,0.728-1.674,1.34-2.614,1.934c0.049-0.092,0.102-0.18,0.159-0.265c0.223-0.327,0.436-0.663,0.649-0.999
		c0.302-0.479,0.587-0.929,0.906-1.351c0.687-0.92,1.367-1.849,2.046-2.776c1.73-2.361,3.518-4.805,5.411-7.066
		c2.357-2.813,4.886-5.518,7.517-8.041c1.118-1.071,2.248-2.126,3.377-3.182c2.417-2.261,4.915-4.597,7.239-7.022
		c0.126-0.127,0.273-0.237,0.417-0.35l2.313-1.812c1.895-1.479,3.789-2.957,5.659-4.471c1.726-1.395,3.433-2.866,5.084-4.289
		l4.252-3.656c1.995-1.716,3.991-3.434,6.004-5.146c0.432-0.375,0.889-0.714,1.344-1.055c0.292-0.219,0.585-0.437,0.855-0.649
		l0.284-0.215c0.453-0.341,0.921-0.691,1.356-1.137c1.433-1.46,3.144-2.574,4.955-3.755c0.582-0.38,1.164-0.758,1.732-1.146
		c0.344,1.206,0.69,2.529,1.085,4.157c0.611,2.497,1.652,4.795,2.573,6.828c0.02,0.043,0.039,0.113,0.058,0.192
		c-0.356,0.261-0.734,0.511-1.13,0.749c-1.743,1.052-3.431,2.109-4.929,3.461c-0.213,0.192-0.481,0.381-0.796,0.561
		c-2.497,1.474-4.865,3.16-7.155,4.794c-1.39,0.99-2.828,2.016-4.274,2.976c-0.689,0.464-1.484,1.016-2.208,1.672
		c-2.627,2.382-5.648,4.421-8.569,6.394l-1.016,0.687c-1.395,0.947-2.486,1.83-3.444,2.786l-0.26,0.264
		c-0.733,0.743-1.424,1.445-2.177,2.072C34.727,365.659,33.641,366.708,33.011,368.256 M244.054,174.494
		c0.137-0.651,0.274-1.304,0.417-1.952c0.068-0.306,0.132-0.569,0.225-0.811c0.139,0.034,0.277,0.066,0.414,0.098
		c0.513,0.122,1.005,0.239,1.497,0.35l0.109,0.024c0.719,0.155,1.397,0.302,1.982,0.605c0.506,0.253,1.028,0.253,1.341,0.251
		c0.062-0.001,0.119-0.001,0.182,0.004c0.199,0.011,0.4,0.014,0.602,0.017c0.296,0.004,0.578,0.007,0.78,0.047
		c3.627,0.724,7.498,0.884,12.207,0.502c0.107-0.011,0.221-0.011,0.332-0.014c0.343-0.007,0.769-0.016,1.204-0.146
		c1.581-0.449,3.205-0.689,4.923-0.943c1.889-0.278,3.84-0.567,5.756-1.156c0.113-0.034,0.295-0.069,0.573-0.074
		c0.312,1.192,0.559,2.24,0.728,3.3c0.635,3.909,1.96,7.7,3.94,11.268c1.101,1.982,2.345,4.097,3.907,6.649
		c0.617,1.02,1.343,1.923,2.033,2.747c2.828,3.375,5.443,6.272,7.991,8.857c0.645,0.655,1.37,1.3,2.288,2.034
		c1.283,1.017,2.587,1.984,3.845,2.918c0.246,0.184,0.487,0.375,0.728,0.566c0.565,0.45,1.187,0.944,1.895,1.352
		c-1.003,0.431-2.054,0.872-3.115,1.283c-0.22,0.086-0.439,0.165-0.66,0.244c-0.817,0.294-1.744,0.627-2.607,1.293
		c-0.192,0.152-0.417,0.272-0.577,0.316c-0.96,0.247-1.876,0.578-2.762,0.899c-1.11,0.401-2.157,0.78-3.232,0.979
		c-1.365,0.257-2.727,0.532-4.09,0.807c-1.764,0.358-3.53,0.715-5.301,1.03c-3.149,0.551-6.285,0.847-9.587,0.908l-1.551,0.023
		c-2.872,0.041-5.844,0.082-8.79,0.449c-0.577,0.073-1.242,0.005-1.943-0.065c-0.318-0.032-0.635-0.063-0.938-0.084
		c-0.152-0.011-0.306-0.039-0.457-0.064c-0.297-0.049-0.647-0.108-1.038-0.108c-0.112,0-0.229,0.005-0.348,0.017
		c-1.546,0.154-3.106,0.02-4.429-0.129c-1.202-0.138-2.406-0.206-3.571-0.271l-0.977-0.056c-0.319-0.016-0.635,0.003-0.952,0.025
		c-0.139,0.01-0.278,0.02-0.45,0.025c-0.166,0.006-0.335,0.025-0.503,0.045c-0.106,0.012-0.209,0.031-0.311,0.03
		c-1.025-0.313-2.014-0.388-2.971-0.46c-0.741-0.056-1.442-0.109-2.092-0.273c-1.466-0.368-2.982-0.365-4.524-0.335
		c-1.658,0.052-3.234-0.367-5.132-0.978l-1.678-0.543c-1.611-0.525-3.265-1.064-4.955-1.542c0.554-0.597,1.094-1.161,1.679-1.673
		c2.344-2.075,4.174-4.277,5.602-6.746c0.159-0.281,0.382-0.576,0.62-0.889l0.203-0.27c2.089-2.847,3.721-5.958,5.299-8.968
		l0.309-0.59c0.286-0.562,0.49-1.136,0.677-1.689c0.283-0.855,0.577-1.705,0.872-2.557c1.12-3.239,2.277-6.587,2.791-10.137
		C243.149,178.797,243.609,176.61,244.054,174.494"/>
</g>
</svg>
