<svg id="Layer_1" data-name="Layer 1" xmlns="http://www.w3.org/2000/svg" viewBox="0 0 87.87 87.53"><defs><style>.cls-1{fill-rule:evenodd;}.cls-2{fill:#fff;stroke:#fff;stroke-miterlimit:10;stroke-width:0.7px;}</style></defs><title>Almost Peggy 1 black</title><path class="cls-1" d="M464.28,299.46c0.07,4.28-1.42,8-2.84,12.46a49.72,49.72,0,0,1-2.52,6,40.35,40.35,0,0,1-3.25,6.16,24.41,24.41,0,0,1-6.66,7c-10.07,6.25-16.53,10.18-29.61,10.13-12.59,0-24.29-4.94-30.82-12.75-1.26-1.5-2.34-3.31-3.62-4.76-2.64-3-4.63-5.15-6.47-9.89-3-7.69-2.2-18.71-.57-27.59,1.17-6.36,4.55-11.53,8.18-16.17,2.34-3,5.86-5.62,9.51-8.18,4-2.83,7.3-5,12.56-6.66,1.68-.54,3.17-0.71,5.14-1.14,5.33-1.16,11.51.53,16.36,1.52s9.94,2.12,14.46,4.76a36.56,36.56,0,0,1,3.42,2.66,40.14,40.14,0,0,1,8.56,9.32c2.47,3.81,9,11.08,8.17,27.11h0Z" transform="translate(-376.47 -253.69)"/><path class="cls-2" d="M391.47,290.16a0.39,0.39,0,0,1,0-.18,0.23,0.23,0,0,1,.06-0.12,11.89,11.89,0,0,0,.18-1.35q0.13-1,.45-4.41c0.21-2.25.39-4,.54-5.25l0.06-.57,0.15-1.14c0.09-.81.27-2,0.42-2.82,0-.24.09-0.42,0.12-0.57l0.09-.18a0.33,0.33,0,0,1,.57-0.09,0.79,0.79,0,0,1,.21.48,0.11,0.11,0,0,0,0,.09,0.23,0.23,0,0,1,0,.12,19.22,19.22,0,0,1,.42,3.63q0,1.08.09,1.62a20.7,20.7,0,0,1,.12,2.28,67.26,67.26,0,0,0,.51,7.23l0.87,7.23a0.24,0.24,0,1,1-.48.06q-0.13-1.44-.72-6.21a16.43,16.43,0,0,0-1.71.18,7.61,7.61,0,0,1-1.53.12l-0.36,2.19c-0.27,1.62-.42,2.91-0.48,3.87a0.24,0.24,0,0,1-.48,0c0.06-.87.24-2.19,0.51-4ZM395,289a62.16,62.16,0,0,1-.54-7.29,19.65,19.65,0,0,0-.12-2.22c0-.39-0.06-1-0.09-1.68a18.17,18.17,0,0,0-.42-3.51,0.52,0.52,0,0,0,0-.18c0,0.09,0,.18-0.06.3-0.15.81-.33,2-0.42,2.79l-0.15,1.14-0.06.57c-0.33,2.49-.87,8.34-1,9.66,0,0.39-.09.81-0.15,1.26a5.78,5.78,0,0,0,1.35-.09,11.85,11.85,0,0,1,1.74-.21Z" transform="translate(-376.47 -253.69)"/><path class="cls-2" d="M402.27,292.89c0,0.66,0,1.2.06,1.62,0,0.27,0,.45.06,0.57a0.59,0.59,0,0,0,.06.21l0.09,0,0.36,0.09,1,0.09c1.23,0.09,1.86.12,1.92,0.12a0.25,0.25,0,0,1-.12.48s-2.37-.12-2.94-0.21a1.48,1.48,0,0,1-.72-0.3,1.9,1.9,0,0,1-.24-1c0-.39-0.06-1-0.06-1.65v-1.71a8.91,8.91,0,0,0,0-1.11c-0.15-2.07-.15-4.2-0.09-7.2,0-1.47,0-2.55,0-3.24,0-.39,0-1-0.06-1.89a19.2,19.2,0,0,1,.12-4.29,0.24,0.24,0,0,1,.48.06,18.2,18.2,0,0,0-.12,4.17c0,0.87.06,1.53,0.06,1.95,0,0.69,0,1.77,0,3.24-0.06,3-.06,5.1.09,7.14a10.31,10.31,0,0,1,0,1.17v1.71Z" transform="translate(-376.47 -253.69)"/><path class="cls-2" d="M412,275V274.2l0-.12a0.27,0.27,0,0,1,0-.18v-0.06a0.26,0.26,0,0,1,.21-0.15,0.18,0.18,0,0,1,.18.09l0.06,0.06a5.36,5.36,0,0,1,.39,1.56c0.06,0.63.12,1.47,0.21,2.55l0.09,1.41a30.56,30.56,0,0,0,.21,3.06c0.75,4.59,1.29,7.62,1.62,9.12,0.12,0.6.3,1.62,0.57,3.09l0,0.06a32.44,32.44,0,0,1,.36-3.36l0.48-3.87,0.33-3.12c0.06-.57.21-1.47,0.48-2.76s0.39-2.1.45-2.73a16,16,0,0,1,.48-2.34,13.75,13.75,0,0,0,.39-2.28v-0.06a0.18,0.18,0,0,1,0-.12,0.39,0.39,0,0,1,.12-0.42,0.28,0.28,0,0,1,.39,0,0.61,0.61,0,0,1,.15.42,5.38,5.38,0,0,1,.06.75c0,0.27,0,.57,0,0.9a6.85,6.85,0,0,0,0,.69c0,0.36,0,.93,0,1.68s0,1.44,0,2a16.31,16.31,0,0,1-.09,1.71,51,51,0,0,0,0,10.26c0,0.57.21,1.89,0.24,2.22,0.09,0.87.15,1.62,0.15,2.22a0.24,0.24,0,1,1-.48,0c0-.57-0.06-1.32-0.15-2.19,0-.27-0.21-1.62-0.24-2.19a52.22,52.22,0,0,1,0-10.38,15.72,15.72,0,0,0,.09-1.68c0-.57,0-1.26,0-2s0-1.29,0-1.68v-0.12l-0.09.33a14.1,14.1,0,0,0-.45,2.31,26.66,26.66,0,0,1-.45,2.76c-0.27,1.29-.42,2.22-0.48,2.73l-0.33,3.12-0.48,3.87a37.12,37.12,0,0,0-.42,4.32,0.68,0.68,0,0,0,0,.21v0.27a0.48,0.48,0,0,1-.15.48,0.36,0.36,0,0,1-.42-0.06v-0.06a0.06,0.06,0,0,1,0-.06,0.14,0.14,0,0,1,0-.12,2.57,2.57,0,0,1-.09-0.39l-0.21-1.26c-0.27-1.47-.45-2.49-0.6-3.06q-0.5-2.3-1.62-9.18c-0.09-.63-0.15-1.86-0.21-3.09L412.59,278l-0.15-1.92a3.24,3.24,0,0,0,0,.57c0,0.3-.09,1.17-0.18,2.58-0.09,1.05-.12,1.89-0.12,2.52,0,1.2,0,3,0,5.37s-0.06,4.17-.06,5.37c0,0.27,0,.72,0,1.32a11.92,11.92,0,0,0,.09,2.85,0.25,0.25,0,0,1-.48.12,13.44,13.44,0,0,1-.09-3c0-.63,0-1,0-1.29,0-1.2,0-3,.06-5.37s0-4.17,0-5.37c0-.63,0-1.5.12-2.58q0.18-2.3.18-2.52Z" transform="translate(-376.47 -253.69)"/><path class="cls-2" d="M425.13,281.49c0-.39.06-1.14,0-2.19a8.86,8.86,0,0,1,.84-4.68,2.05,2.05,0,0,1,2.64-.63,1.9,1.9,0,0,1,.9,1.14,8.49,8.49,0,0,1,.27,2.7c0,0.51-.12,2.1-0.12,2.7,0,1.56.09,5.43,0.12,6.15a61.37,61.37,0,0,1-.18,6.15,5,5,0,0,1-.69,2.07,2.61,2.61,0,0,1-1.59,1.11c-1.29.21-1.89-1.08-2.22-2.88a26.58,26.58,0,0,1-.24-4,0.18,0.18,0,0,1,0-.12C424.92,285.81,425,283.29,425.13,281.49ZM426.21,295a1.07,1.07,0,0,0,1.77.24,1.54,1.54,0,0,0,.54-0.54,4.17,4.17,0,0,0,.63-1.89,60.22,60.22,0,0,0,.18-6.09c0-.72-0.12-4.59-0.12-6.15,0-.6.09-2.19,0.12-2.7,0-2.19-.24-3.42-1.44-3.6s-1.89.84-2.16,2.91a11.16,11.16,0,0,0-.09,2.16c0,1.08,0,1.83,0,2.25-0.15,1.8-.21,4.59-0.21,8.4a0.18,0.18,0,0,1,0,.12A11.23,11.23,0,0,0,426.21,295Z" transform="translate(-376.47 -253.69)"/><path class="cls-2" d="M436.95,283.44l-0.39-.66-0.3-.6c-0.18-.33-0.3-0.54-0.36-0.69l-0.3-.66a3.52,3.52,0,0,1-.24-0.75l-0.21-.75a7.81,7.81,0,0,1-.24-1.68,6.09,6.09,0,0,1,.15-2.22,3,3,0,0,1,1.74-1.59c2-.81,2.85.87,3,2.7a19,19,0,0,0,.18,2.22,0.24,0.24,0,0,1-.48.06,19.39,19.39,0,0,1-.18-2.22c-0.15-1.68-.78-2.94-2.34-2.34a2.8,2.8,0,0,0-1.5,1.35,6.16,6.16,0,0,0-.09,2,10.51,10.51,0,0,0,.21,1.59l0.18,0.72a4,4,0,0,0,.3.69l0.27,0.63a9.79,9.79,0,0,0,.63,1.26l0.36,0.66a6.66,6.66,0,0,0,.36.63c1.35,2.37,2.07,4.17,1.86,6.84a19.9,19.9,0,0,1-.87,5,1.52,1.52,0,0,1-1.68.93c-1.23-.06-2-0.9-2.25-2.49a14.27,14.27,0,0,1-.09-2.64v-0.87a0.24,0.24,0,1,1,.48,0v0.9a13,13,0,0,0,.09,2.52c0.24,1.35.84,2.07,1.77,2.1a1.14,1.14,0,0,0,1.26-.63c0.72-1.8,1.11-6.33.51-8.25a18.44,18.44,0,0,0-1.47-3.21Z" transform="translate(-376.47 -253.69)"/><path class="cls-2" d="M447.3,296.37a0.24,0.24,0,1,1-.48,0V274.23a19.41,19.41,0,0,0-2.4.06,0.24,0.24,0,1,1-.06-0.48,22.59,22.59,0,0,1,2.58-.06,0.22,0.22,0,0,1,.15,0,0.18,0.18,0,0,1,.12,0l2.43,0.06a0.24,0.24,0,1,1,0,.48c-0.27,0-1.05,0-2.34,0v22.11Z" transform="translate(-376.47 -253.69)"/><path class="cls-2" d="M397.72,304a0.23,0.23,0,0,1,.06-0.15,2.27,2.27,0,0,1,1.14-.21,3.53,3.53,0,0,1,1.08.06c1.23,0.36,1.89,2.7,2,5.55,0.12,2.64-.15,5.37-0.84,6.18a2.62,2.62,0,0,1-1.62.84,8.33,8.33,0,0,1-.9.12,5.55,5.55,0,0,0-.72.09c0,1.11,0,2.49,0,4.14,0,0.36,0,1,.06,1.83a18.36,18.36,0,0,1-.12,4.2,0.24,0.24,0,0,1-.48-0.06,17.61,17.61,0,0,0,.12-4.11c0-.84-0.06-1.47-0.06-1.86q0-7.33.27-11.52,0-.27,0-2.7V304Zm0.48,2.4c0,1.65,0,2.55,0,2.76-0.12,2-.21,4.29-0.24,6.84,0.15,0,.36,0,0.66-0.06a3,3,0,0,0,2.22-.81c0.54-.69.84-3.24,0.72-5.85a16.35,16.35,0,0,0-.54-3.45,2.25,2.25,0,0,0-1.14-1.65,5.24,5.24,0,0,0-1.53,0,0.23,0.23,0,0,0-.15,0v2.22Z" transform="translate(-376.47 -253.69)"/><path class="cls-2" d="M408.31,325.65a2.51,2.51,0,0,0-.42,0,0.18,0.18,0,0,0-.12,0h0s0,0,0,0h-0.06l-0.09-.09a7.62,7.62,0,0,1-.36-2.94c0-1.35,0-3.09.06-5.19,0-.84.09-1.74,0.12-2.7v-0.09a0.11,0.11,0,0,1,0-.09c0.12-2.34.24-4.29,0.36-5.88,0-.27,0-2.25-0.06-2.49,0-.6,0-1.08,0-1.44a1.23,1.23,0,0,1,.27-0.93,3.81,3.81,0,0,1,1.92-.36,8.79,8.79,0,0,1,1.95.09,0.24,0.24,0,0,1-.06.48,8.09,8.09,0,0,0-1.89-.09l-1.05.09a1.35,1.35,0,0,0-.57.15l0,0.15c0,0.12,0,.27-0.06.48s0,0.78,0,1.38c0,0.24.09,2.19,0.06,2.55q-0.18,2.29-.36,5.67h2.85a0.24,0.24,0,1,1,0,.48h-2.88l-0.12,2.58c-0.09,2.07-.09,3.78-0.06,5.13l0.09,1.83a3.6,3.6,0,0,0,.15.81h0a2.14,2.14,0,0,1,.39,0l1.23,0.06a24.15,24.15,0,0,1,2.55.24,0.24,0.24,0,0,1-.06.48,23.36,23.36,0,0,0-2.52-.24Z" transform="translate(-376.47 -253.69)"/><path class="cls-2" d="M421.51,314.94a2.33,2.33,0,0,1,.9.15,0.57,0.57,0,0,1,.21.33c0,0.12,0,.27.06,0.48a9.67,9.67,0,0,1,.09,1.44c0,2.79-.3,6.27-1.11,8-0.51,1-1.2,1.56-2.13,1.08-1.47-.75-2-3.81-2-8.1,0-1.47,0-3.27.09-5.34,0.09-2.25.15-3.51,0.15-3.75,0-1.11,0-2,.09-2.64a4,4,0,0,1,.75-2.52,2.46,2.46,0,0,1,1.89-.51c2.43,0.12,2.37,3.3,1.92,6.3a0.24,0.24,0,1,1-.48-0.06c0.45-3,.39-5.67-1.44-5.76a2.16,2.16,0,0,0-1.59.39,4.32,4.32,0,0,0-.57,2.19q-0.09.94-.09,2.61c0,0.24-.06,1.5-0.15,3.78a49.13,49.13,0,0,0,.33,10.29c0.3,1.47.75,2.37,1.38,2.7s1.05,0,1.44-.87c0.81-1.59,1.11-5.1,1.08-7.74,0-.57,0-1-0.06-1.41a3.2,3.2,0,0,0-.09-0.42,0.37,0.37,0,0,1-.27-0.06,1.94,1.94,0,0,0-.33-0.06h-0.42a2.13,2.13,0,0,1-.39,0,0.24,0.24,0,0,1,0-.48,2.09,2.09,0,0,0,.36,0h0.42Z" transform="translate(-376.47 -253.69)"/><path class="cls-2" d="M432,314.94a2.33,2.33,0,0,1,.9.15,0.57,0.57,0,0,1,.21.33c0,0.12,0,.27.06,0.48a9.67,9.67,0,0,1,.09,1.44c0,2.79-.3,6.27-1.11,8-0.51,1-1.2,1.56-2.13,1.08-1.47-.75-2-3.81-2-8.1,0-1.47,0-3.27.09-5.34,0.09-2.25.15-3.51,0.15-3.75,0-1.11,0-2,.09-2.64a4,4,0,0,1,.75-2.52,2.46,2.46,0,0,1,1.89-.51c2.43,0.12,2.37,3.3,1.92,6.3a0.24,0.24,0,1,1-.48-0.06c0.45-3,.39-5.67-1.44-5.76a2.16,2.16,0,0,0-1.59.39,4.32,4.32,0,0,0-.57,2.19q-0.09.94-.09,2.61c0,0.24-.06,1.5-0.15,3.78a49.13,49.13,0,0,0,.33,10.29c0.3,1.47.75,2.37,1.38,2.7s1.05,0,1.44-.87c0.81-1.59,1.11-5.1,1.08-7.74,0-.57,0-1-0.06-1.41a3.2,3.2,0,0,0-.09-0.42,0.37,0.37,0,0,1-.27-0.06,1.94,1.94,0,0,0-.33-0.06h-0.42a2.13,2.13,0,0,1-.39,0,0.24,0.24,0,0,1,0-.48,2.1,2.1,0,0,0,.36,0H432Z" transform="translate(-376.47 -253.69)"/><path class="cls-2" d="M441,315.48a0.68,0.68,0,0,1-.09-0.15q-0.49-1.84-1.35-5.58c-0.57-2.49-1.05-4.32-1.38-5.55a0.25,0.25,0,1,1,.48-0.12c0.33,1.23.75,3,1.32,5.34s1,4,1.23,5.1c1-3.84,1.8-7.29,2.37-10.32a0.24,0.24,0,0,1,.48.06c-0.57,3.24-1.44,6.93-2.58,11.1a0.06,0.06,0,0,0,0,.06,0.18,0.18,0,0,1,0,.12c0,1.23,0,3.09-.12,5.58s-0.12,4.35-.12,5.58a0.24,0.24,0,1,1-.48,0c0-1.23,0-3.09.12-5.58s0.12-4.35.12-5.58v-0.06Z" transform="translate(-376.47 -253.69)"/></svg>