<?xml version="1.0" encoding="utf-8"?>
<!-- Generator: Adobe Illustrator 15.0.2, SVG Export Plug-In . SVG Version: 6.00 Build 0)  -->
<!DOCTYPE svg PUBLIC "-//W3C//DTD SVG 1.1//EN" "http://www.w3.org/Graphics/SVG/1.1/DTD/svg11.dtd">
<svg version="1.1" id="Layer_1" xmlns="http://www.w3.org/2000/svg" xmlns:xlink="http://www.w3.org/1999/xlink" x="0px" y="0px"
	 width="390.636px" height="634.938px" viewBox="0 0 390.636 634.938" enable-background="new 0 0 390.636 634.938"
	 xml:space="preserve">
<text transform="matrix(1 0 0 1 -67.7642 -57.0981)"><tspan x="0" y="0" font-family="'Futura-Medium'" font-size="22">D</tspan><tspan x="14.234" y="0" font-family="'Futura-Medium'" font-size="22">o</tspan><tspan x="25.959" y="0" font-family="'Futura-Medium'" font-size="22">g</tspan><tspan x="37.971" y="0" font-family="'Futura-Medium'" font-size="22">/</tspan><tspan x="45.077" y="0" font-family="'Futura-Medium'" font-size="22">fi</tspan><tspan x="56.671" y="0" font-family="'Futura-Medium'" font-size="22">s</tspan><tspan x="65.207" y="0" font-family="'Futura-Medium'" font-size="22">h </tspan><tspan x="81.464" y="0" font-family="'Futura-Medium'" font-size="22">e</tspan><tspan x="91.672" y="0" font-family="'Futura-Medium'" font-size="22">x</tspan><tspan x="101.858" y="0" font-family="'Futura-Medium'" font-size="22">t</tspan><tspan x="109.052" y="0" font-family="'Futura-Medium'" font-size="22">r</tspan><tspan x="115.696" y="0" font-family="'Futura-Medium'" font-size="22">a</tspan><tspan x="125.97" y="0" font-family="'Futura-Medium'" font-size="22"> </tspan><tspan x="130.326" y="0" font-family="'Futura-Medium'" font-size="22">b</tspan><tspan x="142.491" y="0" font-family="'Futura-Medium'" font-size="22">o</tspan><tspan x="154.261" y="0" font-family="'Futura-Medium'" font-size="22">l</tspan><tspan x="159.189" y="0" font-family="'Futura-Medium'" font-size="22">d</tspan></text>
<g>
	<defs>
		<rect id="SVGID_1_" x="-101.904" y="-103.662" width="595.276" height="841.89"/>
	</defs>
	<clipPath id="SVGID_2_">
		<use xlink:href="#SVGID_1_"  overflow="visible"/>
	</clipPath>
	<path clip-path="url(#SVGID_2_)" d="M73.975,89.803c-0.3-0.206-0.611-0.381-0.927-0.557l-0.271-0.152
		c-2.562-1.453-7.701-1.052-10.187,0.336c-0.305,0.168-0.724,0.396-1.09,0.796c-0.421,0.468-0.743,0.963-0.946,1.447
		c-0.336,0.761-0.353,1.591-0.05,2.337c0.319,0.78,0.95,1.392,1.752,1.712c0.956,0.402,1.881,0.442,2.697,0.478
		c0.386,0.018,0.752,0.034,1.075,0.088l0.133,0.023l0.134-0.002c2.455-0.032,4.826-0.459,7.049-1.269
		c1.313-0.467,1.714-1.771,1.844-2.192C75.51,91.815,74.972,90.474,73.975,89.803"/>
	<path clip-path="url(#SVGID_2_)" d="M390.624,319.809c-0.102-3.751-0.062-7.556-0.01-10.763l0.008-0.179
		c0.017-0.323,0.037-0.725-0.057-1.133c-0.188-0.896-0.149-1.859-0.108-2.878c0.041-1.023,0.083-2.077-0.09-3.18
		c0.256-1.69-0.033-3.254-0.313-4.768l-0.106-0.583c-0.04-0.205-0.088-0.412-0.139-0.62c-0.086-0.362-0.168-0.704-0.164-0.936
		c0.041-1.53-0.159-2.996-0.353-4.414c-0.114-0.835-0.221-1.624-0.282-2.419c-0.129-1.696-0.408-3.421-0.857-5.28
		c-0.149-0.613-0.268-1.234-0.388-1.856c-0.288-1.509-0.589-3.068-1.272-4.557c-0.02-0.071-0.025-0.146-0.036-0.222
		c-0.022-0.153-0.046-0.305-0.08-0.456c-0.114-0.498-0.223-0.998-0.331-1.499c-0.252-1.163-0.514-2.367-0.846-3.552l-0.059-0.208
		c-0.921-3.274-1.871-6.659-2.938-9.955c-0.28-0.875-0.608-1.73-0.925-2.557c-0.623-1.626-1.211-3.161-1.446-4.769
		c-0.069-0.497-0.298-0.878-0.449-1.13c-0.033-0.055-0.067-0.109-0.128-0.229c-0.066-0.124-0.139-0.246-0.211-0.369
		c-0.113-0.192-0.221-0.373-0.263-0.504c-0.148-0.452-0.292-0.906-0.436-1.359c-0.586-1.857-1.192-3.774-2.12-5.6
		c-0.44-1.519-0.94-3.03-1.425-4.493c-0.648-1.958-1.319-3.983-1.832-5.992c-0.668-2.613-1.475-4.866-2.468-6.891
		c-1.875-3.808-3.24-7.022-4.296-10.11c-0.174-0.513-0.396-1.117-0.725-1.709c-1.232-2.246-2.486-4.472-3.744-6.7
		c-0.313-0.56-0.633-1.119-0.954-1.679c-0.314-0.551-0.629-1.101-0.942-1.66c-0.293-0.516-0.571-1.039-0.853-1.563
		c-0.524-0.981-1.066-1.995-1.693-2.963c-0.699-1.079-1.451-2.124-2.179-3.135c-1.08-1.501-2.1-2.92-2.969-4.44
		c-0.227-0.406-0.52-0.708-0.755-0.951l-0.071-0.074c-1.182-1.259-2.324-2.614-3.43-3.925c-0.724-0.858-1.446-1.717-2.186-2.557
		c-0.261-0.298-0.518-0.605-0.776-0.912c-1.318-1.573-2.812-3.353-5.072-4.315c-0.067-0.073-0.172-0.219-0.245-0.319l-0.103-0.141
		c-0.776-1.045-1.694-1.904-2.417-2.545l-0.271-0.233c-0.267-0.225-0.518-0.437-0.658-0.627c-1.349-1.83-3.111-3.405-5.384-4.813
		c-0.773-0.482-1.5-1.085-2.269-1.722l-0.1-0.083c-1.096-0.922-2.188-1.855-3.281-2.788c-1.098-0.937-2.195-1.875-3.292-2.796
		c-0.323-0.275-0.66-0.484-0.957-0.668c-0.155-0.096-0.31-0.191-0.47-0.305c-0.4-0.282-0.806-0.555-1.213-0.826
		c-0.992-0.662-1.929-1.288-2.739-2.047c-0.593-0.563-1.243-0.984-1.871-1.39l-0.397-0.26c-6.062-4.045-8.12-5.735-13.096-9.817
		c-0.966-0.793-2.04-1.674-3.267-2.674c-0.219-0.18-0.451-0.345-0.683-0.511c-0.131-0.092-0.261-0.184-0.399-0.291
		c-1.415-1.058-2.827-2.121-4.239-3.183c-2.161-1.627-4.323-3.254-6.497-4.871c-1.604-1.189-3.228-2.345-4.85-3.499l-1.993-1.419
		c-2.24-1.591-4.356-3.093-6.188-4.977c-0.482-0.491-1.028-0.861-1.509-1.187c-0.16-0.109-0.319-0.217-0.466-0.322
		c-0.225-0.166-0.46-0.321-0.694-0.476c-0.361-0.239-0.702-0.465-0.962-0.715c-1.076-1.019-2.253-1.869-3.389-2.69
		c-0.513-0.372-1.027-0.744-1.531-1.131c-1.166-0.892-2.296-1.773-3.308-2.746c-1.372-1.329-2.84-2.55-4.259-3.731l-0.894-0.744
		c-0.498-0.415-1-0.827-1.503-1.239c-1.113-0.914-2.266-1.861-3.346-2.824l-0.453-0.411c-1.387-1.254-2.821-2.552-4.576-3.533
		c-0.343-0.191-0.698-0.511-1.075-0.848c-0.234-0.21-0.468-0.418-0.711-0.614c-0.513-0.411-1.001-0.853-1.488-1.294
		c-1.06-0.957-2.151-1.944-3.512-2.69c-0.792-0.826-1.686-1.425-2.551-2.005c-0.61-0.409-1.186-0.796-1.686-1.236
		c-2.099-1.845-4.145-3.656-6.119-5.533c-0.449-0.425-0.914-0.835-1.378-1.246c-1.109-0.978-2.157-1.902-2.949-3.011
		c-0.189-0.268-0.401-0.452-0.556-0.588l-0.114-0.101c-0.35-0.321-0.703-0.638-1.056-0.953c-0.766-0.684-1.489-1.33-2.169-2.022
		c-0.807-0.822-1.557-1.682-2.351-2.593l-0.805-0.919c-0.567-0.643-1.124-1.296-1.684-1.951c-0.402-0.473-0.809-0.948-1.216-1.417
		c-0.259-0.299-0.534-0.59-0.81-0.881c-0.512-0.538-0.994-1.046-1.31-1.571c-0.622-1.037-1.446-1.766-2.174-2.41
		c-0.24-0.212-0.479-0.423-0.709-0.645c-1.9-1.843-3.74-3.663-5.343-5.681c-1.146-1.428-2.398-2.831-3.729-4.172
		c-0.818-0.818-1.508-1.821-2.173-2.786c-1.652-2.421-3.146-4.311-4.701-5.947l-0.551-0.577c-1.359-1.423-2.644-2.765-3.685-4.3
		c-1.25-1.851-2.825-3.698-4.954-5.814l-0.714-0.706c-1.282-1.261-2.493-2.452-3.536-3.807c-0.558-0.722-1.219-1.31-1.86-1.878
		l-0.135-0.121c-0.344-0.309-0.703-0.603-1.061-0.896c-0.47-0.383-0.912-0.745-1.308-1.135c-0.874-0.863-1.861-1.581-2.943-2.14
		c-1.264-0.642-2.299-1.196-3.158-1.981c-0.405-0.376-0.937-0.693-1.593-0.946c-0.711-0.267-1.414-0.558-2.117-0.848
		c-1.979-0.816-4.025-1.661-6.292-2.047c-0.501-0.085-1.02-0.231-1.568-0.387c-0.822-0.233-1.672-0.474-2.603-0.549
		c-1.122-0.089-2.214-0.355-3.368-0.637l-0.784-0.189c-0.333-0.077-0.661-0.165-0.989-0.252c-0.716-0.191-1.456-0.388-2.272-0.495
		c-0.842-0.106-1.72-0.413-2.649-0.738l-0.109-0.039c-0.521-0.183-0.71-0.452-0.82-0.67c-1.841-3.65-3.847-6.614-6.132-9.06
		c-0.318-0.339-0.626-0.689-0.936-1.039c-1.365-1.546-2.906-3.292-5.283-4.172c-1.426-1.317-3.092-1.975-4.704-2.611l-0.423-0.168
		c-0.827-0.326-1.693-0.715-2.804-1.258c-2.747-1.364-5.686-2.221-8.733-2.548c-2.607-0.285-4.999,0.12-7.309,1.237
		c-2.055,0.98-4.044,1.989-5.801,3.561c-0.11,0.102-0.31,0.216-0.522,0.336c-0.226,0.129-0.451,0.26-0.656,0.404l-0.774,0.53
		c-0.898,0.612-1.827,1.245-2.695,1.965c-1.003,0.827-1.856,1.469-2.676,2.012c-1.568,1.022-2.861,2.28-3.845,3.74
		c-0.369,0.549-0.833,1.138-1.467,1.862c-1.571,1.805-2.947,3.473-3.876,5.589c-0.092,0.205-0.269,0.446-0.455,0.702
		c-0.18,0.246-0.359,0.493-0.512,0.75c-2.473,4.109-3.59,8.044-3.414,12.018c0.013,0.344,0.007,0.688-0.004,1.023
		c-0.618,0.097-1.236,0.183-1.854,0.275l-0.001-0.005l-1.488,0.226l-0.153,0.021c-0.136,0.019-0.273,0.04-0.426,0.055
		c-0.05,0.006-0.093,0.015-0.142,0.021l-0.76,0.101l0.001,0.007c-1.208,0.19-2.251,0.459-3.213,0.839
		c-2.756,1.107-5.186,2.592-7.227,4.419c-0.937,0.847-1.828,1.746-2.689,2.615c-0.407,0.411-0.815,0.823-1.223,1.224
		c-2.235,2.182-3.916,4.697-5.443,7.082c-1.445,2.242-2.654,4.815-3.803,8.09c-0.351,0.99-0.757,1.996-1.147,2.969
		c-0.627,1.557-1.275,3.167-1.768,4.849c-0.433,1.467-0.973,2.889-1.545,4.396c-0.347,0.912-0.692,1.825-1.015,2.75l-0.106,0.309
		c-0.495,1.434-1.007,2.919-1.324,4.467c-0.78,3.781-2.131,7.337-3.685,11.256c-0.473,1.189-1.084,2.323-1.73,3.524l-0.485,0.905
		c-0.803,1.531-1.665,3.154-2.575,4.695c-0.511,0.87-1.047,1.723-1.583,2.577c-0.7,1.114-1.425,2.267-2.088,3.446
		c-1.343,2.371-2.783,4.431-4.398,6.296c-1.212,1.396-2.097,2.635-2.783,3.893c-0.287,0.527-0.568,0.926-0.86,1.224
		c-1.031,1.062-1.985,2.305-2.906,3.784c-0.344,0.535-0.796,1.002-1.385,1.432c-0.254,0.185-0.51,0.368-0.767,0.552
		c-0.905,0.642-1.839,1.306-2.673,2.124c-1.194,1.163-2.473,2.197-3.826,3.292c-0.822,0.664-1.642,1.328-2.455,2.033
		c-0.351,0.312-0.874,0.749-1.385,0.936c-1.131,0.431-2.16,0.984-3.155,1.519c-0.601,0.322-1.202,0.645-1.826,0.938
		c-1.795,0.853-3.198,2.126-4.442,3.37c-1.64,1.625-1.735,3.824-0.243,5.744c0.349,0.444,0.721,0.839,1.082,1.221
		c0.289,0.306,0.578,0.611,0.849,0.946c0.79,0.957,1.784,1.675,3.128,2.26c0.54,0.236,1.065,0.496,1.589,0.756l0.63,0.311
		c0.61,0.304,1.556,0.69,2.691,0.538c0.146-0.016,0.363,0,0.596,0.018c0.142,0.012,0.283,0.024,0.427,0.031
		c1.697,0.075,2.057,0.031,3.495-0.68l0.527,0.07c0.808,0.112,1.57,0.217,2.358,0.277c0.522,0.041,1.053,0.038,1.579,0.038
		c0.724-0.005,1.423-0.006,2.009,0.127c1.161,0.27,2.114-0.028,2.882-0.266c0.429-0.134,0.812-0.255,1.097-0.228
		c0.451,0.035,0.867-0.033,1.227-0.11c0.332,0.304,0.706,0.63,1.158,0.889c0.434,0.253,0.86,0.386,1.235,0.502
		c0.232,0.071,0.45,0.139,0.59,0.215c0.993,0.532,1.961,0.61,2.747,0.674c0.519,0.039,1.042,0.046,1.564,0.053
		c0.29,0.004,0.58,0.008,0.868,0.019h0.003c0.618,0.023,1.343,0.073,2.045,0.268c0.88,0.241,1.812,0.141,2.527,0.025
		c1.867-0.295,4.039-0.762,5.992-1.997c0.853-0.544,1.826-0.998,3.163-1.474c1.335-0.482,2.751-1.04,4.056-1.843
		c2.84-1.744,5.593-3.486,8.05-5.627c1.773-1.546,3.723-2.963,5.608-4.333c0.554-0.402,1.107-0.804,1.654-1.208
		c1.786-1.309,3.762-2.274,5.855-3.297c0.985-0.481,1.972-0.963,2.943-1.485c0.134-0.073,0.363-0.138,0.604-0.206
		c0.244-0.069,0.488-0.141,0.735-0.234c0.659-0.257,1.321-0.509,1.983-0.76c1.614-0.613,3.284-1.247,4.911-1.967l0.475-0.211
		c2.872-1.276,5.586-2.482,8.501-3.168c0.639-0.146,1.208-0.368,1.759-0.584c0.265-0.102,0.529-0.206,0.796-0.296l0.105-0.036
		c0.765-0.265,1.49-0.516,2.232-0.707c0.013-0.003,0.023-0.006,0.035-0.009v0.002c0.065,0.149,0.136,0.299,0.207,0.449
		c0.101,0.209,0.237,0.496,0.25,0.598c0.175,1.645,0.874,3.029,1.54,4.175c0.249,0.421,0.477,0.858,0.705,1.297
		c0.777,1.489,1.658,3.178,3.335,4.32c0.056,0.054,0.177,0.246,0.22,0.315c0.767,1.224,1.756,2.137,2.712,3.021
		c0.57,0.526,1.109,1.025,1.545,1.527c0.27,0.334,0.726,0.759,1.357,0.892c0.372,0.081,0.723,0.372,1.168,0.74
		c0.301,0.249,0.642,0.533,1.036,0.778l0.289,0.186c0.401,0.264,0.854,0.562,1.431,0.75l0.517,0.165
		c1.709,0.546,3.475,1.111,5.366,1.288c2.123,0.2,4.438,0.353,7.075,0.466c1.913,0.08,3.703-0.213,5.337-0.882
		c1.323-0.545,2.541-1.243,3.72-1.918c0.96-0.55,1.867-1.071,2.814-1.506l0.233-0.107l0.993-0.953
		c1.113-1.062,2.26-2.154,3.302-3.407c0.026,0.033,0.053,0.066,0.08,0.099c0.551,0.687,1.123,1.397,1.813,2.031
		c0.912,0.836,1.523,1.647,1.923,2.551c0.491,1.111,1.225,1.992,1.878,2.739c1.37,1.545,2.717,3.177,4.018,4.756l0.265,0.321
		c0.229,0.277,0.391,0.524,0.489,0.738c0.896,2.007,2.262,3.682,3.471,5.095l0.118,0.137c0.762,0.889,1.481,1.728,1.987,2.65
		c0.325,0.611,0.733,1.134,1.091,1.566c1.965,2.362,3.567,5.092,4.981,7.501c0.608,1.036,1.192,2.088,1.776,3.139
		c1.376,2.475,2.799,5.036,4.564,7.421c0.378,0.496,0.692,1.102,0.971,1.661c0.331,0.689,0.637,1.388,0.923,2.039
		c0.111,0.254,0.219,0.501,0.324,0.738l0.379,4.653c0.054,0.672,0.114,1.343,0.174,2.016c0.126,1.413,0.256,2.875,0.323,4.308
		c0.07,1.391,0.08,2.826,0.091,4.213c0.004,0.602,0.009,1.204,0.018,1.81l0.025,1.03c0.033,1.245,0.066,2.42-0.031,3.605
		c-0.091,1.273-0.16,2.758,0.17,4.256c0.425,1.953,0.529,4.094,0.321,6.542c-0.221,2.554-0.258,5.23-0.113,8.179
		c0.073,1.578,0.238,3.176,0.387,4.548c0.269,2.544,0.559,5.088,0.85,7.635l0.096,0.82c0.399,3.425,0.812,6.966,0.795,10.458
		l-0.005,0.57c-0.011,0.91-0.024,1.941,0.214,2.948c0.407,1.76,0.456,3.566,0.507,5.479l0.024,0.886
		c0.012,0.476,0.051,0.953,0.09,1.431c0.064,0.771,0.126,1.5,0.042,2.157c-0.151,1.194,0.038,2.287,0.205,3.251
		c0.069,0.4,0.14,0.798,0.18,1.19c0.029,0.312,0.062,0.718,0.052,1.09c-0.016,0.709-0.043,1.417-0.069,2.124
		c-0.048,1.303-0.098,2.651-0.091,3.995c0.007,0.869,0.004,1.738,0.002,2.605c-0.01,2.857-0.018,5.81,0.329,8.755
		c0.273,2.238,0.401,4.683,0.39,7.478c0,5.439,0,10.878-0.01,16.32v0.22c0.001,0.649,0.002,1.262-0.061,1.851
		c-0.524,4.905-0.717,8.704-0.629,12.311c0.017,0.845,0.011,1.738-0.148,2.518c-0.164,0.779-0.205,1.518-0.245,2.23
		c-0.015,0.271-0.029,0.543-0.052,0.802c-0.186,2.028-0.229,4.066-0.271,6.038c-0.051,2.399-0.104,4.879-0.422,7.275
		c-0.313,2.385-0.436,4.805-0.553,7.145c-0.048,0.95-0.095,1.898-0.156,2.845c-0.021,0.333-0.051,0.667-0.08,1.001
		c-0.087,0.988-0.177,2.01-0.075,3.064c0.13,1.296,0.13,2.597,0.131,3.975c0.001,1.859,0.002,3.78,0.341,5.704
		c0.083,0.494,0.041,1.086-0.004,1.712l-0.035,0.519c-0.075,1.402-0.164,2.896-0.333,4.37l-0.078,0.784
		c-0.103,1.074-0.2,2.089-0.512,2.946c-0.616,1.707-1.523,3.387-2.393,4.95c-0.377,0.665-0.959,1.061-1.728,1.176
		c-1.44,0.216-2.821,0.679-4.09,1.369c-0.586,0.312-2.359,1.25-2.68,3.493c-0.781,2.03-0.404,4.028,1.122,5.939
		c0.102,0.129,0.212,0.248,0.322,0.367c0.077,0.084,0.158,0.164,0.227,0.266c0.944,1.396,2.414,2.213,4.126,2.297
		c0.43,0.024,0.86,0.089,1.291,0.148c1.098,0.157,2.334,0.334,3.65,0.003c0.715,0.078,1.402,0.031,2.015-0.013
		c0.806-0.057,1.506-0.105,2.128,0.127c0.567,0.203,1.272,0.21,1.91,0.012c0.617-0.201,1.348-0.192,2.114-0.187
		c0.441,0.005,0.885,0.006,1.313-0.021c0.636-0.035,1.188-0.102,1.669-0.196c-0.873,1.038-1.821,1.915-3.003,2.526
		c-0.938,0.486-1.855,1-2.771,1.516c-1.012,0.567-2.056,1.155-3.092,1.676c-1.405,0.703-2.326,1.786-3.073,2.739
		c-1.154,1.454-1.337,3.171-0.547,5.093c0.515,1.277,1.57,2.039,2.804,2.039c1.671,0.018,3.344,0.001,5.022-0.02l0.144-0.001
		c0.237-0.005,0.479-0.028,0.723-0.055c0.22-0.026,0.474-0.053,0.585-0.035c2.205,0.363,4.341,0.188,6.408,0.019
		c0.631-0.054,1.261-0.105,1.893-0.142c1.594-0.092,3.008-0.823,4.095-2.117c0.628-0.754,1.13-1.597,1.529-2.566
		c0.12-0.282,0.235-0.566,0.35-0.851c0.533-1.312,1.036-2.552,1.893-3.518l0.146-0.167l0.093-0.203
		c0.256-0.554,0.529-1.102,0.804-1.651c0.688-1.375,1.398-2.798,1.837-4.363l0.068-0.243c0.337-1.191,0.653-2.314,1.209-3.284
		c0.387-0.652,0.545-1.365,0.665-2c0.102-0.568,0.186-1.14,0.27-1.712c0.133-0.911,0.258-1.769,0.457-2.618
		c0.207-0.911,0.365-1.827,0.516-2.714c0.293-1.709,0.569-3.325,1.176-4.847c0.193-0.487,0.226-0.957,0.251-1.335
		c0.008-0.103,0.014-0.203,0.023-0.293c0.179-1.444,0.472-2.574,0.92-3.548c0.281-0.602,0.472-1.287,0.551-1.978
		c0.117-0.973,0.356-1.936,0.609-2.955c0.104-0.42,0.208-0.839,0.307-1.269c0.071-0.321,0.157-0.642,0.244-0.96
		c0.311-1.147,0.659-2.442,0.418-3.904c0.018-0.065,0.041-0.131,0.063-0.198c0.063-0.199,0.124-0.399,0.162-0.591
		c0.093-0.476,0.197-0.952,0.301-1.426c0.265-1.207,0.537-2.455,0.66-3.745c0.198-2.108,0.41-3.727,0.684-5.25
		c0.146-0.819,0.162-1.611,0.181-2.377c0.015-0.637,0.028-1.238,0.116-1.805c0.076-0.522,0.229-1.066,0.389-1.644
		c0.218-0.785,0.443-1.597,0.521-2.476c0.141-1.5,0.476-2.981,0.837-4.5l0.048-0.205c0.359-1.541,0.73-3.134,0.752-4.83
		c0.01-0.919,0.029-1.838,0.051-2.756c0.046-2.054,0.093-4.174,0.009-6.279l-0.021-0.47c-0.115-2.809-0.224-5.462,0.284-8.089
		c0.06-0.311,0.081-0.645,0.065-0.987c-0.067-1.52,0.078-3.037,0.231-4.645l0.053-0.558c0.063-0.66,0.11-1.322,0.157-1.985
		c0.127-1.772,0.246-3.446,0.654-5.07l0.045-0.361c0.005-1.567,0.34-3.12,0.696-4.763c0.368-1.703,0.749-3.465,0.764-5.339
		c0.003-0.077,0.075-0.299,0.123-0.445c0.091-0.279,0.177-0.561,0.224-0.836c0.22-1.236,0.492-2.497,0.757-3.717
		c0.494-2.288,1.008-4.654,1.22-7.072c0.065-0.687,0.259-1.418,0.628-2.375c0.982-2.562,2.037-5.632,2.42-8.981
		c0.301-2.685,0.911-5.281,1.807-7.693c0.266-0.679,0.417-1.387,0.441-2.042c0.025-0.591,0.211-1.218,0.409-1.881l0.168-0.572
		c0.05-0.182,0.115-0.361,0.177-0.539c0.161-0.459,0.345-0.98,0.393-1.58c0.106-1.331,0.57-2.597,1.232-4.082
		c0.761-1.685,1.388-3.545,1.92-5.691c0.234-0.954,0.565-1.926,0.891-2.87c0.121,0.058,0.244,0.114,0.366,0.17
		c0.62,0.283,1.154,0.528,1.459,0.921c0.481,0.622,0.979,1.233,1.478,1.845c0.858,1.056,1.671,2.054,2.405,3.111
		c1.181,1.706,2.28,3.536,3.344,5.306l0.488,0.812c0.016,0.026,0.032,0.069,0.043,0.107c-0.694,2.123-0.175,4.115,1.51,5.773
		c0.04,0.047,0.127,0.212,0.185,0.321c0.089,0.169,0.181,0.338,0.284,0.499c0.646,1.005,1.297,2.006,1.948,3.008
		c0.625,0.964,1.25,1.927,1.865,2.884l0.623,0.969c0.604,0.934,1.176,1.816,1.678,2.735c0.438,0.806,0.834,1.624,1.251,2.491
		c0.467,0.971,0.951,1.974,1.498,2.945c0.522,0.932,0.922,1.934,1.344,2.995c0.338,0.846,0.687,1.72,1.111,2.58
		c0.195,1.079,0.634,2.027,1.023,2.871c0.255,0.551,0.495,1.071,0.658,1.592c0.34,1.077,0.75,2.126,1.146,3.139
		c0.186,0.474,0.371,0.947,0.546,1.413c0.066,0.187,0.127,0.372,0.187,0.558l0.098,0.301c0.279,0.84,0.511,1.69,0.753,2.59
		c0.493,1.82,1.003,3.701,1.947,5.503c0.042,0.081,0.088,0.36,0.118,0.543c0.037,0.224,0.076,0.449,0.134,0.682
		c0.15,0.573,0.271,1.153,0.391,1.733c0.225,1.097,0.46,2.232,0.891,3.365c0.401,1.043,0.766,2.094,1.131,3.147
		c0.188,0.54,0.375,1.079,0.568,1.622l0.522,1.449c0.546,1.513,1.094,3.027,1.619,4.536c0.107,0.316,0.166,0.707,0.229,1.121
		l0.027,0.186c0.265,1.693,0.665,3.21,1.225,4.629c0.278,0.727,0.485,1.365,0.63,1.942c0.196,0.814,0.384,1.63,0.573,2.447
		c0.646,2.8,1.314,5.693,2.256,8.435c0.014,0.047,0.021,0.1,0.026,0.117l0.375,2.397c0.319,2.035,0.641,4.07,0.933,6.101l0.071,0.52
		c0.198,1.467,0.403,2.981,0.979,4.504c0.189,0.479,0.29,1.006,0.326,1.678c0.02,0.603,0.066,1.398,0.261,2.202
		c0.258,1.071,0.345,2.188,0.438,3.373c0.086,1.104,0.175,2.247,0.412,3.4c0.024,1.679,0.216,3.334,0.398,4.938
		c0.225,1.953,0.438,3.798,0.37,5.672c-0.021,0.63,0.121,1.19,0.245,1.686c0.043,0.173,0.087,0.347,0.12,0.517
		c0.356,1.913,0.695,3.975,0.755,6.094l0.008,0.322c0.058,2.264,0.117,4.604,0.588,6.92c0.064,0.331,0.089,0.638,0.076,0.898
		c-0.066,1.112-0.028,2.208,0.008,3.27c0.062,1.771,0.118,3.445-0.294,5.046l-0.047,0.354c-0.036,2.892-0.149,6-0.347,9.509
		c-0.101,1.838-0.252,3.811-0.688,5.777c-0.443,2.013-0.924,4.394-1.13,6.806c-0.207,2.416-0.594,4.573-1.184,6.594
		c-0.221,0.743-0.485,1.729-0.585,2.784c-0.242,2.788-0.831,5.554-1.319,7.651c-0.527,2.285-1.01,4.614-1.479,6.866
		c-0.826,3.984-1.683,8.104-2.797,12.044c-0.073,0.246-0.111,0.499-0.158,0.854c-0.315,2.294-0.867,4.51-1.452,6.855
		c-0.169,0.675-0.338,1.352-0.498,2.021c-0.404,1.645-0.814,3.122-1.254,4.516c-0.26,0.823-0.538,1.637-0.817,2.452
		c-0.757,2.215-1.541,4.506-1.916,6.911c-0.021,0.066-0.056,0.13-0.104,0.229c-0.53,1.13-0.853,2.282-1.163,3.396
		c-0.101,0.354-0.199,0.709-0.303,1.054c-0.336,1.091-0.702,2.167-1.068,3.247l-0.429,1.261c-0.188,0.555-0.388,1.106-0.588,1.658
		c-0.417,1.154-0.849,2.346-1.18,3.576c-0.672,2.498-1.509,5.01-2.32,7.439c-0.745,2.232-1.515,4.539-2.167,6.865
		c-0.129,0.464-0.336,0.926-0.603,1.343c-0.66,1.048-1.014,2.12-1.375,3.309c-0.374,1.213-0.842,2.434-1.294,3.617
		c-0.369,0.959-0.747,1.945-1.076,2.932c-4.547,1.862-9.246,3.792-13.126,7.424c0.043-0.038,0.075-0.058,0.079-0.061l0.813,1.252
		h-0.001l-0.911-1.172c-0.013,0.012-0.025,0.023-0.039,0.035c0.014-0.013,0.026-0.024,0.039-0.036l-0.009-0.012
		c-1.882,1.143-3.627,2.471-5.313,3.754c-1.803,1.372-3.504,2.667-5.354,3.758c-0.337,0.191-0.77,0.465-1.138,0.866
		c-0.512,0.569-1.242,0.983-2.016,1.42l-0.21,0.119c-0.357,0.203-0.726,0.395-1.094,0.584c-0.896,0.467-1.826,0.946-2.672,1.612
		c-1.432,1.124-2.989,2.017-4.637,2.964c-0.475,0.273-0.949,0.545-1.421,0.825c-0.454,0.267-0.912,0.527-1.371,0.786
		c-1.034,0.584-2.103,1.187-3.119,1.896c-2.935,2.067-6.103,3.83-9.165,5.535c-1.13,0.628-2.273,1.233-3.417,1.837
		c-1.655,0.876-3.367,1.781-5.03,2.755c-0.66,0.394-1.329,0.768-1.998,1.143l-1.033,0.582c-2.801,1.581-5.579,3.277-8.264,5.047
		l-0.227,0.151c-1.007,0.668-2.049,1.358-3.025,2.195c-1.078,0.918-2.283,1.837-3.68,2.809c-2.673,1.848-4.735,4.209-6.23,6.057
		c-0.724,0.888-1.186,1.939-1.594,2.867l-0.123,0.277c-0.954,2.134-1.011,4.205-0.158,6.181l0.077,0.174
		c0.212,0.48,0.476,1.078,1.046,1.635c0.318,0.303,0.62,0.649,0.94,1.016c0.242,0.276,0.484,0.555,0.743,0.826
		c1.165,1.215,2.661,2.112,4.205,2.527l0.311,0.086c1.346,0.371,2.738,0.753,4.179,0.98l0.911,0.139
		c1.242,0.185,2.416,0.361,3.539,0.735c0.675,0.221,1.369,0.263,2.014,0.273l0.264,0.005c1.246,0.027,2.423,0.052,3.545,0.306
		c0.956,0.225,1.905,0.141,2.741,0.067l0.256-0.021c0.275-0.02,0.547-0.058,0.82-0.098c0.4-0.058,0.745-0.107,1.038-0.059
		c0.925,0.155,2.017,0.284,3.074,0.061c1.498-0.302,2.987-0.294,4.646-0.301h0.138c0.347,0,0.695-0.031,1.041-0.063
		c0.202-0.021,0.405-0.039,0.631-0.048c0.326-0.02,0.654-0.04,0.981-0.063c0.935-0.063,1.812-0.124,2.682-0.077
		c1.243,0.063,2.574,0.096,3.932-0.232c0.894-0.228,1.561-0.265,2.117-0.121c1.738,0.438,3.331,0.149,4.523-0.15
		c1.015-0.255,2.063-0.359,3.226-0.459c2.593-0.211,5.111-0.726,7.445-1.251c1.614-0.361,3.292-0.647,4.917-0.924
		c0.64-0.11,1.281-0.219,1.924-0.334c1.018-0.186,2.152-0.24,3.472-0.168l0.286,0.015c1.481,0.081,3.013,0.166,4.591-0.313
		c0.42,0.156,0.832,0.259,1.205,0.35c0.566,0.14,1.058,0.261,1.38,0.523c0.883,0.719,1.893,1.597,2.707,2.66
		c1.04,1.355,1.71,2.938,2.305,4.434c0.059,0.151,0.115,0.308,0.171,0.465c0.215,0.6,0.459,1.28,0.913,1.902
		c1.496,2.055,2.549,4.34,3.666,6.759c0.492,1.069,0.986,2.137,1.517,3.183c0.479,0.948,0.916,1.971,1.339,2.959l0.613,1.418
		c0.61,1.399,1.24,2.847,1.804,4.283c0.866,2.171,1.67,4.121,2.745,5.996l0.121,0.209c0.434,0.749,0.843,1.457,1.17,2.188
		c0.938,2.075,2.005,3.97,3.271,5.796c0.64,0.91,1.258,1.837,1.876,2.765c0.382,0.573,0.763,1.145,1.154,1.722
		c0.271,0.396,0.607,0.853,1.045,1.246c2.101,1.885,4.362,3.865,6.896,5.537c1.193,0.786,2.432,1.195,3.599,1.195
		c0.109,0,0.22-0.003,0.326-0.011c1.531-0.093,2.916-0.164,4.323-0.107c0.041,0.002,0.08,0.002,0.121,0.002
		c1.212,0,2.275-0.574,2.86-1.547c0.509-0.841,1.212-1.604,2.224-2.403c0.958-0.765,1.611-1.782,1.89-2.934l0.207-0.822
		c0.396-1.544,0.804-3.142,0.776-4.875l-0.006-0.622c-0.015-1.455-0.029-2.828,0.259-4.14c0.125-0.561,0.062-1.068,0.011-1.477
		l-0.031-0.265c-0.031-0.34-0.075-0.681-0.119-1.022c-0.061-0.476-0.123-0.954-0.146-1.45c-0.031-0.543-0.04-1.087-0.049-1.63
		c-0.03-1.644-0.061-3.343-0.615-5.041c-0.009-0.062-0.001-0.242,0.005-0.363c0.008-0.173,0.016-0.346,0.011-0.528
		c-0.063-2.021-0.787-6.978-1.333-9.134c-0.054-0.216-0.11-0.433-0.169-0.649c-0.177-0.663-0.345-1.289-0.368-1.859
		c-0.058-1.432-0.368-2.756-0.671-4.038l-0.146-0.626c-0.273-1.198-0.474-2.457-0.666-3.675c-0.118-0.741-0.235-1.482-0.37-2.222
		c-0.249-1.36-0.315-2.764-0.386-4.25c-0.037-0.762-0.073-1.523-0.135-2.274c-0.106-1.388-0.231-2.769-0.355-4.148l-0.116-1.289
		c-0.021-0.243-0.051-0.484-0.08-0.726c-0.043-0.37-0.088-0.739-0.104-1.121c-0.061-1.123-0.103-2.246-0.145-3.373l-0.064-1.723
		c-0.127-2.906-0.312-5.749-1.163-8.565c-0.04-0.135-0.056-0.388-0.069-0.608c-0.083-1.425-0.183-2.849-0.285-4.271
		c-0.193-2.764-0.396-5.62-0.462-8.411c-0.011-0.53-0.078-1.022-0.145-1.5c-0.074-0.542-0.145-1.054-0.102-1.497
		c0.009-0.093,0.363-0.416,0.533-0.57c0.424-0.385,0.939-0.853,1.267-1.553c0.512-0.62,0.978-1.261,1.43-1.884
		c0.744-1.025,1.445-1.993,2.3-2.809c2.205-2.137,3.98-4.014,5.461-6.215c0.151-0.218,0.376-0.449,0.616-0.695
		c0.193-0.198,0.387-0.399,0.559-0.601c0.779-0.89,1.549-1.802,2.292-2.706c0.387-0.462,0.763-0.928,1.138-1.392
		c0.551-0.687,1.102-1.37,1.682-2.034c1.86-2.132,3.746-4.252,5.626-6.363l1.146-1.288c0.663-0.747,1.339-1.483,2.012-2.218
		l0.548-0.598c2.643-2.865,5.413-6.013,7.772-9.644c0.241-0.38,0.555-0.751,0.887-1.145c0.131-0.157,0.264-0.314,0.398-0.481
		c2.508-3.126,5.154-6.479,7.525-10.099c0.478-0.729,0.949-1.464,1.42-2.199c1.443-2.251,2.935-4.577,4.582-6.714
		c1.415-1.832,2.688-3.739,4.083-5.859c0.311-0.471,0.612-0.947,0.911-1.427c0.766-1.22,1.49-2.372,2.38-3.375l0.202-0.228
		l0.098-0.289c0.661-1.967,2.054-3.536,3.527-5.196l0.497-0.56c1.699-1.929,3.291-3.964,4.83-5.934
		c0.736-0.943,1.474-1.888,2.219-2.813c0.441-0.545,1.004-1.279,1.42-2.113c0.911-1.778,2.12-3.509,3.81-5.451
		c0.899-1.038,1.52-2.028,1.945-3.106c0.514-1.264,1.176-2.49,1.97-3.651c0.831-1.219,1.593-2.487,2.326-3.711l0.422-0.704
		c2.212-3.698,3.864-6.794,5.201-9.743c0.614-1.364,1.182-2.762,1.732-4.114c0.515-1.271,1.047-2.582,1.609-3.843
		c0.52-1.168,0.95-2.362,1.366-3.518c0.56-1.551,1.086-3.016,1.805-4.4l0.11-0.276c0.284-0.987,0.578-1.973,0.872-2.958
		c0.673-2.256,1.368-4.589,1.935-6.936c0.416-1.727,0.883-3.555,1.596-5.259c1.213-2.889,2.103-5.872,2.642-8.863
		c0.402-2.201,0.874-4.437,1.33-6.599c0.559-2.655,1.138-5.4,1.605-8.146c0.098-0.6,0.245-1.268,0.448-2.037
		c1.518-5.697,2.388-11.5,3.217-17.434c0.043-0.304,0.09-0.607,0.137-0.913c0.15-0.974,0.307-1.98,0.355-3.019
		c0.113-2.411,0.178-4.859,0.237-7.227l0.063-2.355c0.008-0.195,0.004-0.392-0.004-0.586c-0.005-0.136-0.013-0.338-0.004-0.386
		c0.394-1.51,0.448-2.994,0.501-4.431c0.031-0.847,0.061-1.647,0.157-2.439c0.114-0.964,0.114-1.94-0.002-2.92
		c-0.089-0.687-0.1-1.413-0.032-2.231C390.563,322.295,390.657,321.065,390.624,319.809 M347.65,448.895
		c-0.155,0.263-0.351,0.528-0.568,0.77c-1.077,1.194-1.917,2.463-2.591,3.537c-0.422,0.663-0.916,1.315-1.48,1.957
		c-0.016-0.346-0.026-0.691-0.035-1.035l-0.001-0.01c-0.029-0.94-0.025-1.884-0.021-2.827l0.002-0.947l-0.001-2.797
		c-0.002-2.725-0.004-5.453,0.009-8.182l0.572-0.001c1.655,0.001,3.304-0.003,4.95,0.03c1.608,0.032,3.219,0.109,4.829,0.187
		l0.45,0.022c-0.219,0.563-0.458,1.082-0.787,1.501C351.102,443.432,349.36,445.979,347.65,448.895 M309.328,501.405
		c-0.198,0.265-0.391,0.535-0.585,0.803c-0.572,0.796-1.112,1.547-1.739,2.16c-0.351,0.346-0.706,0.689-1.061,1.031
		c-1.218,1.172-2.472,2.381-3.571,3.704c-0.48-0.012-0.97-0.017-1.462,0.031c-0.373,0.027-0.701,0.109-0.99,0.183
		c-0.194,0.048-0.395,0.098-0.485,0.102l-0.916,0.022c-1.556,0.039-3.16,0.077-4.705-0.029c-0.807-0.047-1.563-0.007-2.292,0.03
		l-0.387,0.019c-1.291,0.062-2.567,0.053-3.92,0.041l-0.476-0.003c-0.235-0.002-0.565-0.005-0.829-0.018
		c-0.009-0.275-0.007-0.614-0.005-0.798c0.019-2.034-0.01-4.094-0.039-6.084c-0.034-2.4-0.069-4.883-0.021-7.306
		c0.012-0.491,0.058-0.98,0.103-1.444c0.164-0.021,0.371-0.021,0.648-0.021l0.188,0.001c0.477,0.003,0.953,0.021,1.43,0.037
		c0.907,0.033,1.847,0.067,2.794,0.011c2.336-0.132,4.562-0.104,6.804,0.077c1.695,0.141,3.398,0.114,5.045,0.089
		c0.908-0.013,1.816-0.025,2.724-0.013c1.359,0.022,2.723,0.085,4.098,0.15l0.124,0.006c0.006,0.444,0.006,0.891,0.006,1.338
		c0.001,0.902,0.003,1.804,0.038,2.708c0.015,0.334-0.09,0.722-0.21,1.173C309.486,499.97,309.303,500.653,309.328,501.405
		 M285.752,518.643c-0.068-0.87-0.133-1.692-0.063-2.482l0.001-0.015c0.032-0.433,0.09-0.886,0.167-1.331
		c0.029-0.003,0.057-0.005,0.082-0.005c3.863-0.012,7.729-0.012,11.58,0.016c-0.563,0.666-1.125,1.328-1.703,1.962
		c-0.942,1.014-1.706,1.899-2.419,3.001c-0.061,0.093-0.116,0.197-0.138,0.232c-1.162,0.792-1.972,1.85-2.686,2.784
		c-0.261,0.343-0.523,0.685-0.803,1.015c-1.248,1.471-2.572,2.931-3.877,4.357l-0.01-0.751c-0.025-2.175-0.055-4.423-0.029-6.628
		C285.864,520.055,285.807,519.336,285.752,518.643 M272.692,623.995c-0.438-0.46-0.85-0.893-1.158-1.341
		c-0.745-1.092-1.468-2.196-2.193-3.302c-0.374-0.572-0.749-1.146-1.128-1.716c-0.019-0.032-0.041-0.064-0.063-0.099
		c-0.579-1.759-1.509-3.267-2.408-4.727c-0.71-1.152-1.38-2.238-1.86-3.406c-0.218-0.528-0.457-1.045-0.696-1.562
		c-0.466-1.007-0.905-1.956-1.17-2.962c-0.301-1.126-0.878-2.144-1.387-3.043l-0.107-0.191c-0.795-1.395-1.352-2.597-1.757-3.798
		c-0.443-1.282-1.063-2.437-1.663-3.552c-0.219-0.406-0.438-0.813-0.648-1.229c-0.394-0.773-0.756-1.56-1.119-2.347
		c-0.611-1.326-1.243-2.698-2.024-4.015c-0.187-0.315-0.383-0.629-0.58-0.94c-0.604-0.955-1.173-1.858-1.36-2.831l-0.046-0.239
		l-0.119-0.213c-1.566-2.786-3.17-4.826-5.046-6.417c-1.212-1.032-2.574-1.632-3.975-2.249c-0.856-0.38-1.765-0.277-2.116-0.216
		c-2.046,0.359-4.11,0.344-6.297,0.32l-0.45-0.004c-2.646-0.007-5.228,0.518-7.62,1.104c-3.146,0.77-6.371,1.354-9.874,1.791
		c-0.359,0.048-0.716,0.106-1.072,0.167c-0.371,0.062-0.741,0.125-1.13,0.173l-0.479,0.07c-0.524,0.08-1.022,0.152-1.42,0.122
		c-1.519-0.132-2.986-0.009-4.405,0.109c-1.049,0.088-2.034,0.181-3.031,0.155c-0.556-0.002-1.088,0.047-1.597,0.102
		c-0.251,0.027-0.503,0.055-0.749,0.07c-0.208,0.014-0.42,0.038-0.634,0.063c-0.328,0.038-0.673,0.076-0.868,0.035
		c-2.096-0.433-4.058-0.167-5.957,0.09c-0.592,0.079-1.185,0.159-1.78,0.217c-0.197,0.018-0.397,0.053-0.597,0.09
		c-0.135,0.025-0.334,0.072-0.407,0.057c-1.682-0.126-3.334-0.063-4.924-0.003c-1.372,0.04-2.778-0.115-4.205-0.299
		c-1.313-0.171-2.661-0.426-3.965-0.673l-0.981-0.186c-1.243-0.226-2.477-0.474-3.721-0.741c-0.55-0.115-1.111-0.277-1.731-0.459
		c-1.206-0.358-2.214-1.152-3.172-2.499c-0.338-0.481-0.42-0.921-0.27-1.484c0.582-2.295,1.423-3.854,2.731-5.055
		c1.261-1.159,2.783-2.504,4.524-3.688l0.342-0.234c1.994-1.366,4.056-2.778,5.936-4.433c0.447-0.391,0.89-0.715,1.306-0.957
		c1.192-0.68,2.368-1.407,3.504-2.11c2.408-1.488,4.68-2.895,7.173-3.949l0.118-0.043c0.177-0.062,0.418-0.145,0.726-0.334
		c1.978-1.322,4.14-2.478,6.23-3.592c1.679-0.896,3.415-1.822,5.076-2.844c0.835-0.509,1.653-1.04,2.472-1.57
		c0.791-0.515,1.583-1.027,2.389-1.521c1.438-0.877,2.893-1.727,4.348-2.578c0.745-0.435,1.49-0.872,2.218-1.301l0.199-0.112
		c0.132-0.073,0.264-0.147,0.411-0.237c0.984-0.617,1.972-1.232,2.961-1.847c2.323-1.444,4.726-2.938,7.06-4.467
		c1.7-1.103,3.214-2.256,4.498-3.425c1.533-1.385,3.194-2.522,5.213-3.87c1.271-0.857,2.52-1.765,3.684-2.62
		c1.242-0.903,2.646-1.582,4.215-2.309c0.777-0.358,1.68-0.713,2.828-1.114c0.4-0.137,0.772-0.209,1.075-0.209
		c1.422,0,2.799-0.191,4.131-0.375l0.5-0.07c2.064-0.278,3.579-0.167,4.927,0.372c0.598,0.233,1.188,0.41,1.766,0.533
		c0.703,0.141,1.417,0.257,2.127,0.373c0.259,0.042,0.517,0.083,0.774,0.127c1.003,0.602,2.041,1.098,3.047,1.58
		c1.304,0.623,2.537,1.212,3.644,1.995l0.215,0.146c0.134,0.092,0.334,0.228,0.372,0.27c0.222,0.331,0.449,0.657,0.679,0.982
		c0.768,1.098,1.494,2.134,1.856,3.302c0.221,0.71,0.511,1.384,0.759,1.935c0.778,1.781,1.5,3.53,1.771,5.371l0.066,0.431
		c0.162,1.063,0.33,2.162,0.701,3.254l0.189,0.532c0.308,0.852,0.597,1.655,0.672,2.452c0.028,0.291,0.08,0.58,0.136,0.868
		c0.041,0.218,0.088,0.436,0.101,0.652c0.05,0.946,0.09,1.896,0.131,2.843c0.054,1.287,0.108,2.573,0.19,3.868
		c0.026,0.398,0.051,0.799,0.074,1.198c0.09,1.532,0.185,3.117,0.476,4.672c0.161,0.916,0.26,1.84,0.363,2.815
		c0.146,1.377,0.297,2.801,0.646,4.229c0.144,0.586,0.199,1.282,0.167,2.147c-0.068,2.923,0.136,6.006,0.607,9.174
		c0.122,0.79,0.181,1.616,0.235,2.411c0.075,1.114,0.146,2.227,0.216,3.339c0.069,1.117,0.141,2.235,0.216,3.356
		c0.027,0.4,0.095,0.803,0.163,1.205l0.033,0.195c0.267,1.604,0.583,3.216,0.89,4.774c0.397,2.025,0.809,4.118,1.105,6.174
		l0.073,0.291c0.532,1.494,0.723,3.081,0.924,4.762c0.138,1.149,0.281,2.339,0.541,3.521c0.042,0.192,0.048,0.462,0.054,0.749
		c0.005,0.213,0.011,0.425,0.026,0.631c0.023,0.324,0.039,0.648,0.053,0.973c0.052,1.114,0.105,2.268,0.467,3.462
		c0.089,0.297,0.098,0.718,0.098,1.153l-0.005,2.433c-0.003,2.968-0.005,6.034-0.075,9.047c-0.081,3.479-1.069,5.687-3.285,7.294
		l-3.402,0.132c-0.28-0.012-0.589-0.096-0.916-0.315l-0.672-0.446c-1.237-0.818-2.405-1.592-3.306-2.626
		c-0.326-0.372-0.666-0.686-0.996-0.986c-0.218-0.202-0.439-0.402-0.644-0.618L272.692,623.995z M259.973,497.371
		c0.348-1.148,0.697-2.304,1.056-3.449c0.024-0.078,0.045-0.135,0.062-0.172c0.038-0.005,0.092-0.011,0.166-0.013
		c0.014,0.096,0.02,0.188,0.02,0.275c0.009,4.889,0.009,9.777,0.009,14.654c-0.005,0.284-0.01,0.575-0.035,0.825
		c-0.056-0.001-0.123-0.003-0.202-0.003c-1.775,0.01-3.546,0.017-5.32,0.004c0.111-0.515,0.278-1.048,0.509-1.629l0.287-0.706
		c0.696-1.714,1.419-3.489,2.062-5.265c0.336-0.921,0.606-1.856,0.866-2.761c0.121-0.42,0.243-0.84,0.37-1.26L259.973,497.371z
		 M266.25,480.053c-0.105-1.261,0.182-2.498,0.479-3.548c0.395-1.401,0.771-2.808,1.147-4.213c0.312-1.161,0.622-2.322,0.946-3.493
		c0.054-0.197,0.133-0.411,0.234-0.639c0.068-0.019,0.138-0.038,0.206-0.057c0.558-0.156,1.084-0.305,1.521-0.305
		c0.671,0,1.341-0.017,2.011-0.033c1.865-0.049,3.625-0.09,5.358,0.229c0.829,0.153,1.643,0.2,2.43,0.245
		c0.129,0.008,0.257,0.016,0.386,0.024l-0.004,0.208c-0.015,2.925-0.035,5.849-0.056,8.771c-0.02,2.927-0.039,5.854-0.054,8.773
		c-0.006,0.536-0.003,1.072,0,1.609c0.002,0.381,0.004,0.764,0.003,1.139c-0.175,0.017-0.348,0.034-0.523,0.034l-3.196,0.002
		c-3.189,0.003-6.382,0.005-9.573-0.012c-0.425,0-0.859-0.035-1.302-0.082c-0.03-2.21-0.04-4.411-0.049-6.622
		c0-0.216,0.015-0.43,0.027-0.646C266.268,481.019,266.296,480.54,266.25,480.053 M272.506,456.796v-0.003
		c0.553-1.927,1.097-4.008,1.321-6.181c0.131-1.283,0.382-2.556,0.745-3.786c0.532-1.788,0.942-3.689,1.257-5.825
		c0.091-0.634,0.258-1.275,0.435-1.957l0.096-0.365c0.012-0.051,0.045-0.182,0.324-0.208c0.265-0.024,0.527-0.052,0.777-0.052
		c0.686,0.007,1.369,0.022,2.058,0.036l1.115,0.024c0.137,0.003,0.242,0.008,0.325,0.014c0.008,0.104,0.015,0.245,0.016,0.435
		c0.013,2.623,0.01,5.245,0.005,7.869l-0.005,15.122c0,0.292-0.011,0.579-0.024,0.901l-1.138,0.001
		c-2.309,0-4.618,0.002-6.931-0.032c-0.562-0.006-1.148-0.089-1.771-0.176l-0.235-0.033
		C271.412,460.649,271.95,458.719,272.506,456.796 M213.857,290.35c0,0.024-0.009,0.106-0.081,0.349
		c-0.696,2.386-1.069,4.67-1.14,6.988c-0.008,0.27-0.082,0.604-0.159,0.958c-0.082,0.372-0.161,0.747-0.201,1.117
		c-0.232,2.061-0.498,4.508-0.724,7.002c-0.046,0.469,0.036,0.87,0.102,1.193c0.021,0.106,0.047,0.211,0.053,0.282
		c0.066,1.401,0.104,2.767-0.162,4.085c-0.274,1.374-0.271,2.74-0.27,4.059l0.001,0.372c-0.011,3.657,0.006,7.429,0.049,11.534
		c0.017,1.2-0.165,2.438-0.588,4.007c-1.1,4.063-1.882,8.559-2.395,13.751c-0.179,1.887-0.399,3.772-0.621,5.657l-0.189,1.629
		c-0.039,0.328-0.079,0.668-0.154,0.878c-0.611,1.659-0.918,3.4-0.913,5.225c-0.354,1.243-0.609,2.502-0.856,3.72
		c-0.36,1.766-0.698,3.435-1.312,5.023c-0.352,0.909-0.59,1.826-0.727,2.811c-0.113,0.834-0.334,1.673-0.569,2.563l-0.098,0.374
		c-0.531,2.063-0.936,4.168-1.235,6.439c-0.237,1.825-0.534,3.747-1.305,5.415c-0.248,0.518-0.413,1.048-0.559,1.516l-0.061,0.194
		c-0.783,2.506-1.887,4.971-3.381,7.544c-0.414,0.722-0.742,1.467-1.061,2.188c-0.198,0.453-0.398,0.905-0.623,1.354
		c-0.284,0.578-0.599,1.18-0.977,1.687c-0.375,0.502-0.804,0.761-1.368,0.815c-0.965,0.104-1.93,0.23-2.894,0.355
		c-0.621,0.081-1.243,0.162-1.824,0.232c-0.018,0.001-0.038,0.003-0.056,0.005c-0.901-0.359-1.784-0.492-2.636-0.492
		c-0.744,0-1.463,0.102-2.147,0.24c0.717-0.473,1.426-0.905,2.187-1.234c1.158-0.506,2.379-1.172,3.829-2.088
		c0.84-0.52,1.547-1.151,2.232-1.764l0.219-0.196c0.282-0.251,0.491-0.527,0.658-0.749c0.084-0.109,0.209-0.275,0.239-0.303
		c2.139-1.436,2.963-3.64,3.567-5.594c0.203-0.658,0.428-1.311,0.653-1.965c0.613-1.791,1.25-3.644,1.495-5.673
		c0.052-0.487,0.291-1.043,0.566-1.69c0.823-1.911,1.022-3.854,1.109-5.504c0.016-0.288,0.039-0.576,0.063-0.865
		c0.058-0.689,0.116-1.403,0.077-2.158c-0.064-1.159,0.102-2.353,0.497-3.552c0.525-1.611,0.624-3.202,0.719-4.739
		c0.071-1.148,0.139-2.233,0.377-3.267l0.101-0.431l-0.151-0.417c-0.273-0.76-0.148-1.623-0.005-2.622
		c0.155-1.069,0.331-2.28,0.015-3.543c-0.017-0.112,0.052-0.447,0.096-0.668c0.047-0.236,0.094-0.471,0.123-0.701
		c0.11-0.89,0.23-1.779,0.351-2.668c0.317-2.36,0.647-4.799,0.816-7.239c0.072-0.977,0.138-2.02,0.071-3.076
		c-0.158-2.496-0.198-5.135-0.117-7.837c0.02-0.654,0.021-1.311,0.021-1.967c0-0.625-0.001-1.249,0.02-1.88
		c0.016-0.637,0.048-1.275,0.079-1.912c0.026-0.529,0.053-1.058,0.07-1.58c0.05-1.291,0.081-2.573,0.102-3.87
		c0.013-1.139,0.037-2.281,0.059-3.422c0.058-2.878,0.117-5.854,0.03-8.793c-0.051-1.637,0.081-3.255,0.22-4.966
		c0.12-1.48,0.245-3.009,0.24-4.552c-0.006-2.165-0.047-4.326-0.088-6.489l-0.052-2.79l-0.038-0.318
		c-0.447-1.902-0.41-3.861-0.371-5.935c0.007-0.448,0.015-0.894,0.019-1.335c0.047-3.982-0.142-7.297-0.595-10.436l-0.07-0.473
		c-0.201-1.362-0.41-2.77-0.487-4.135c-0.095-1.643-0.398-3.228-0.691-4.761c-0.128-0.668-0.255-1.335-0.366-2.01
		c-0.088-0.527-0.18-1.054-0.273-1.58c-0.196-1.119-0.401-2.276-0.549-3.408c-0.201-1.527-0.455-3.062-0.702-4.545
		c-0.201-1.222-0.404-2.444-0.581-3.674l-0.099-0.685c-0.474-3.282-0.922-6.382-0.886-9.556c0.02-1.26-0.066-2.582-0.262-4.041
		c-0.099-0.74-0.186-1.481-0.272-2.222c-0.26-2.216-0.529-4.508-1.089-6.769c-0.372-1.516-0.527-3.171-0.676-4.772l-0.037-0.384
		c-0.297-3.342-0.752-7.268-1.863-11.106c-0.089-1.579-0.551-2.999-0.998-4.374c-0.308-0.95-0.6-1.848-0.759-2.778
		c-0.102-0.539-0.24-1.113-0.538-1.65c-0.764-1.395-1.405-2.833-2.083-4.355c-0.848-1.904-1.726-3.872-2.862-5.737
		c-2.54-4.155-4.779-8.454-6.854-12.497c-0.913-1.796-1.95-3.697-3.331-5.412c-0.242-0.304-0.45-0.708-0.671-1.134
		c-0.102-0.199-0.205-0.397-0.314-0.593c-0.196-0.353-0.386-0.709-0.575-1.066c-0.684-1.284-1.39-2.612-2.412-3.807
		c-0.212-0.247-0.399-0.675-0.545-1.011c-1.02-2.37-2.478-4.352-4.143-6.516c-0.679-0.877-1.336-1.775-1.992-2.674
		c-0.469-0.642-0.937-1.284-1.402-1.903c-0.241-0.328-0.499-0.639-0.757-0.949c-0.159-0.191-0.319-0.382-0.47-0.575
		c-0.17-0.22-0.35-0.436-0.528-0.652c-0.405-0.487-0.787-0.947-1.002-1.391c-1.435-3.022-3.613-5.409-5.721-7.718l-0.461-0.506
		c-0.826-0.912-1.551-1.747-2.059-2.73c-0.56-1.085-1.323-2.032-1.996-2.865c-0.984-1.221-2.001-2.418-3.02-3.613l-0.693-0.815
		c-0.07-0.081-0.156-0.183-0.09-0.545l0.027-0.181c0.121-0.42,0.258-0.837,0.394-1.253c0.34-1.037,0.691-2.109,0.832-3.255
		c0.07-0.537,0.125-1.075,0.179-1.614c0.084-0.843,0.165-1.639,0.311-2.434c0.402-2.303,0.279-4.606,0.087-6.746
		c-0.185-2.154-0.483-4.431-0.885-6.758c-0.219-1.315-0.263-2.661-0.289-3.914c-0.023-1.677-0.165-3.21-0.433-4.68
		c-0.518-2.939-0.499-5.97,0.059-9.018c0.265-1.492,0.715-2.833,1.368-4.087c0.504-0.946,0.857-1.827,1.077-2.691
		c0.366-1.415,0.7-2.837,1.034-4.258c0.298-1.27,0.597-2.541,0.92-3.816c0.346-1.4,0.411-2.768,0.473-4.089
		c0.015-0.277,0.022-0.554,0.029-0.832c0.011-0.456,0.022-0.887,0.073-1.299c0.212-1.863,0.031-3.784-0.587-6.232
		c-0.372-1.454-0.856-2.884-1.323-4.267l-0.363-1.076c-0.533-1.582-1.084-3.217-1.709-4.817c-0.931-2.405-1.285-5.103-1.11-8.501
		l0.052-1.256c0.061-1.615,0.12-3.14,0.316-4.661c0.23-1.705,0.164-3.566-0.204-5.847c-0.131-0.859-0.26-1.721-0.39-2.596
		l-0.101-0.679c0.397,0.064,0.802,0.146,1.189,0.259c2.569,0.769,5.17,1.199,7.387,1.52c0.76,0.103,1.341,0.24,1.803,0.421
		c1.085,0.446,2.191,0.648,3.141,0.788c0.88,0.123,1.545,0.407,2.092,0.895c0.753,0.67,1.607,1.05,2.361,1.385
		c0.255,0.114,0.511,0.227,0.77,0.358c1.396,0.692,2.806,1.445,4.168,2.173c0.522,0.279,1.045,0.559,1.567,0.835
		c0.454,0.401,0.915,0.794,1.375,1.186c1.513,1.29,2.942,2.508,4.115,3.991c0.529,0.657,1.126,1.401,1.826,2.066
		c1.985,1.859,3.782,3.9,5.125,5.471l0.226,0.262c0.322,0.372,0.627,0.723,0.858,1.072c1.263,1.936,2.852,3.793,4.999,5.844
		c1.043,0.998,2.342,2.365,3.148,4.093c0.626,1.336,1.599,2.599,2.885,3.748c1.313,1.182,2.452,2.51,3.659,3.918
		c0.806,0.937,1.638,1.908,2.522,2.825c0.258,0.27,0.501,0.557,0.746,0.845c0.379,0.448,0.772,0.911,1.23,1.342
		c2.729,2.603,5.359,5.487,7.824,8.572c1.269,1.585,2.69,3.023,4.064,4.413c0.644,0.651,1.287,1.302,1.925,1.977
		c0.155,0.164,0.321,0.322,0.488,0.48c0.264,0.251,0.514,0.487,0.636,0.672c0.64,1.018,1.468,1.722,2.336,2.416
		c0.565,0.449,1.1,0.977,1.498,1.381c1.661,1.707,3.536,3.447,5.793,5.368c0.511,0.438,0.995,0.852,1.37,1.306
		c0.766,0.921,1.725,1.684,2.927,2.329c0.109,0.059,0.224,0.116,0.34,0.172c0.116,0.058,0.294,0.144,0.32,0.159
		c1.004,1.164,2.191,1.997,3.34,2.803c0.457,0.32,0.915,0.642,1.347,0.976c0.688,0.541,1.415,1.128,2.082,1.767
		c1.131,1.078,2.36,2.035,3.768,2.934c1.217,0.765,2.338,1.681,3.419,2.791c1.074,1.115,2.376,2.213,3.863,3.264
		c1.147,0.812,2.184,1.732,3.073,2.731c0.735,0.827,1.575,1.593,2.571,2.344c0.938,0.704,1.876,1.401,2.813,2.098
		c1.114,0.828,2.227,1.654,3.336,2.492c0.73,0.548,1.508,1.167,2.444,1.945c4.321,3.583,7.937,6.423,11.352,8.921l0.188,0.147
		c0.226,0.178,0.455,0.356,0.719,0.515c1.87,1.115,3.564,2.444,5.359,3.85c0.739,0.579,1.478,1.158,2.23,1.723
		c0.809,0.606,1.637,1.193,2.464,1.778l1.197,0.854c1.236,0.879,2.287,1.76,3.209,2.689c1.321,1.342,2.853,2.418,4.333,3.458
		l0.123,0.087c3.235,2.275,6.461,4.712,9.866,7.455c0.34,0.272,0.702,0.509,1.067,0.744c0.194,0.127,0.39,0.253,0.573,0.382
		c1.948,1.402,3.896,2.813,5.846,4.225l0.354,0.257c0.084,0.061,0.16,0.132,0.238,0.201c0.174,0.154,0.349,0.305,0.569,0.455
		c0.367,0.24,0.738,0.478,1.108,0.715c1.671,1.069,3.249,2.079,4.604,3.402c1.399,1.368,2.922,2.606,4.395,3.803
		c0.431,0.35,0.86,0.698,1.285,1.05c0.458,0.379,0.939,0.729,1.42,1.08c0.387,0.28,0.774,0.561,1.133,0.85
		c0.285,0.237,0.6,0.513,0.759,0.773c0.694,1.123,1.596,2.095,2.76,2.973c0.795,0.595,1.299,1.161,1.626,1.82
		c0.288,0.597,0.701,1.039,1.064,1.43c0.114,0.123,0.229,0.245,0.354,0.39c0.09,0.106,0.095,0.135,0.043,0.267
		c-0.551,1.429-1.166,2.933-2.077,4.262l-0.345,0.503c-1.57,2.29-3.053,4.454-5.02,6.295c-0.12,0.12-0.252,0.26-0.352,0.396
		l-0.059,0.083c-1.288,1.999-3.038,3.598-4.892,5.289l-0.517,0.473c-0.967,0.894-2.202,2.113-3.206,3.62
		c-0.177,0.268-0.488,0.552-0.817,0.853l-0.255,0.236c-1.321,1.22-2.653,2.434-3.983,3.648l-1.474,1.353
		c-0.261,0.249-0.507,0.483-0.722,0.62c-0.923,0.578-1.723,1.254-2.495,1.906c-0.302,0.255-0.603,0.509-0.912,0.758
		c-0.429,0.347-0.854,0.701-1.278,1.055c-1.528,1.277-2.973,2.483-4.627,3.354l-0.234,0.152c-1.328,1.056-2.734,2.08-4.093,3.071
		c-1.954,1.424-3.976,2.898-5.864,4.529c-1.559,1.345-2.957,2.263-4.405,2.889c-0.515,0.222-0.967,0.513-1.367,0.77
		c-0.152,0.099-0.304,0.197-0.448,0.283c-0.271,0.16-0.541,0.329-0.81,0.498c-0.45,0.283-0.875,0.551-1.289,0.757
		c-1.894,0.927-3.67,2.023-5.4,3.09l-0.395,0.256c-0.286,0.188-0.557,0.367-0.796,0.477c-1.729,0.786-3.415,1.674-5.047,2.533
		c-1.521,0.8-3.095,1.628-4.663,2.352c-2.01,0.932-3.893,1.625-5.749,2.119c-0.814,0.213-1.618,0.464-2.423,0.716
		c-0.845,0.264-1.643,0.514-2.458,0.721c-2.366,0.602-4.56,1.015-6.7,1.263c-0.577,0.066-1.153,0.161-1.729,0.255
		c-0.478,0.079-0.957,0.159-1.429,0.217c-0.19,0.023-0.249-0.022-0.321-0.112c-1.425-1.865-2.672-3.791-3.7-5.426
		c-0.728-1.16-1.541-2.394-2.595-3.597c-0.713-0.806-1.45-1.64-1.973-2.502c-1.756-2.908-4.601-3.572-7.429-3.858
		c-1.514-0.14-2.854,0.673-3.528,2.085l-0.082,0.163c-0.188,0.369-0.399,0.788-0.527,1.264c-0.316,1.112-0.627,2.228-0.936,3.345
		c-0.373,1.341-0.745,2.683-1.128,4.01c-0.134,0.444-0.326,0.901-0.53,1.383l-0.23,0.552c-1.021,2.471-2.016,5.154-2.382,8.012
		c-0.318,2.501-1.003,4.883-1.798,7.518c-0.479,1.596-0.801,3.105-0.983,4.617c-0.27,2.302-0.768,4.292-1.523,6.085
		c-0.591,1.411-0.967,2.733-1.151,4.034c-0.19,1.32-0.391,2.683-0.655,4.012c-0.098,0.484-0.224,0.962-0.349,1.44
		c-0.199,0.761-0.405,1.549-0.519,2.388c-0.126,0.962-0.332,1.907-0.549,2.907c-0.124,0.568-0.247,1.136-0.356,1.704
		c-0.053,0.278-0.122,0.554-0.189,0.831C213.962,288.181,213.712,289.209,213.857,290.35 M185.606,386.279
		c-1.485,0.237-2.887,0.459-4.264,0.146c-0.696-0.155-1.4-0.205-2.088-0.205c-0.639,0-1.264,0.043-1.853,0.083
		c-0.771,0.062-1.572-0.017-2.416-0.096c-0.282-0.025-0.563-0.053-0.84-0.073c-0.917-0.074-1.558-0.54-2.015-1.469l-1.345,0.663
		l1.35-0.737c-0.004,0.012-0.025,0.051-0.021,0.043c0.117-0.066,0.291-0.168,0.34-0.183c0.915-0.172,1.699-0.506,2.458-0.83
		c0.345-0.146,0.69-0.294,1.042-0.419c1.541-0.545,2.715-1.478,3.493-2.784c1.044-1.775,1.98-3.417,2.867-5.025
		c0.309-0.572,0.504-1.222,0.547-1.835c0.085-1.295,0.209-2.588,0.333-3.881c0.283-2.938,0.574-5.977,0.41-9.015
		c-0.002-0.08,0.002-0.162,0.005-0.243c0.008-0.262,0.02-0.588-0.049-0.944c-0.373-2.008-0.331-4.041-0.287-6.195
		c0.018-0.934,0.037-1.87,0.022-2.817c-0.013-0.508,0.036-1.043,0.088-1.609c0.024-0.267,0.049-0.532,0.068-0.81
		c0.012-0.188,0.033-0.378,0.052-0.566c0.049-0.457,0.104-0.977,0.069-1.497l-0.019-0.416c-0.064-1.247-0.122-2.425,0.233-3.506
		c0.149-0.476,0.168-0.986,0.052-1.451c-0.295-1.152-0.064-2.327,0.203-3.688l0.139-0.723c0.128-0.703,0.102-1.388,0.08-1.994
		c-0.007-0.172-0.014-0.344-0.016-0.514c-0.05-3.617-0.051-7.148,0.464-10.578c0.478-3.193,0.575-5.667,0.317-8.03
		c-0.105-0.929-0.072-1.653,0.102-2.27c0.355-1.242,0.366-2.42,0.378-3.582c0-1.045,0.055-2.13,0.107-3.18
		c0.042-0.844,0.085-1.686,0.103-2.525c0.022-0.997,0.036-1.995,0.05-2.994c0.023-1.649,0.047-3.298,0.107-4.929
		c0.031-0.641-0.005-1.17-0.112-1.674c-0.342-1.551-0.275-3.168-0.206-4.88l0.03-0.788c0.032-0.813-0.001-1.615-0.042-2.375
		c-0.021-0.344-0.059-0.685-0.098-1.026c-0.094-0.841-0.175-1.567,0.028-2.241c0.264-0.886,0.12-1.798-0.077-2.662
		c-0.249-1.06-0.291-2.145-0.3-3.146c0-0.709-0.046-1.411-0.09-2.091c-0.019-0.286-0.038-0.572-0.053-0.849l-0.033-0.598
		c-0.024-0.405-0.052-0.812-0.046-1.203c0.028-1.054,0.062-2.11,0.096-3.165c0.056-1.715,0.11-3.43,0.136-5.141
		c0.021-1.398-0.072-2.792-0.164-3.966c-0.036-0.464-0.103-0.928-0.171-1.391c-0.088-0.59-0.17-1.148-0.165-1.693l0.03-2.818
		c0.044-2.73-0.176-5.216-0.676-7.616c-0.052-0.24-0.073-0.536-0.064-0.904c0.01-0.489,0.042-0.978,0.072-1.469
		c0.102-1.643,0.207-3.339-0.314-5.105c0.059-1.803-0.172-3.548-0.397-5.237c-0.116-0.879-0.233-1.757-0.307-2.633
		c-0.051-0.652-0.158-1.269-0.261-1.865c-0.144-0.833-0.281-1.619-0.244-2.394c0.042-1.024-0.042-2.023-0.121-2.989
		c-0.044-0.53-0.087-1.062-0.109-1.58c-0.031-0.984-0.14-1.987-0.333-3.065c-0.246-1.391-0.252-2.826-0.016-4.265
		c0.553-3.38,0.538-6.182-0.046-8.818c-0.102-0.458-0.098-1.008-0.095-1.591l0.001-0.322c-0.004-0.797,0.006-1.593,0.015-2.391
		c0.014-1.13,0.028-2.261,0.004-3.399c-0.06-2.39-0.139-4.781-0.221-7.191c0.033,0.058,0.067,0.117,0.101,0.175l0.253,0.425
		c0.448,0.752,0.899,1.508,1.317,2.279c0.279,0.519,0.552,1.115,0.854,1.859c0.113,0.287,0.208,0.584,0.304,0.88
		c0.17,0.529,0.345,1.077,0.61,1.619c0.879,1.832,1.464,3.441,1.843,5.064c0.176,0.752,0.389,1.496,0.602,2.242
		c0.289,1.008,0.563,1.96,0.744,2.937c0.085,0.446,0.215,0.857,0.332,1.219c0.073,0.23,0.147,0.459,0.201,0.681l0.032,0.135
		c0.439,1.884,0.855,3.665,0.829,5.492c-0.022,1.534,0.223,3.048,0.439,4.38c0.146,0.911,0.336,1.808,0.52,2.677
		c0.165,0.777,0.33,1.553,0.46,2.327l0.026,0.161c0.411,2.511,0.835,5.109,1.134,7.66c0.182,1.561,0.236,3.115,0.292,4.759
		l0.029,0.851c0.042,0.993,0.138,1.982,0.231,2.936c0.094,0.962,0.182,1.873,0.22,2.79c0.075,1.919,0.471,3.839,0.886,5.628
		c0.619,2.679,0.786,5.211,0.51,7.746c-0.223,2.13-0.315,3.907-0.287,5.589c0.035,2.48-0.191,5.02-0.411,7.476
		c-0.086,0.97-0.173,1.941-0.244,2.906l-0.04,0.473c-0.044,0.514-0.087,1.026-0.095,1.556c-0.014,2.526-0.019,5.053-0.022,7.577
		l-0.008,3.595c-0.003,0.271,0.003,0.545,0.008,0.819c0.012,0.641,0.025,1.246-0.085,1.753c-0.497,2.319-0.334,4.559-0.178,6.725
		l0.027,0.378c0.213,3.157,0.307,6.042,0.287,8.813c-0.005,0.469-0.068,0.963-0.135,1.485c-0.04,0.307-0.079,0.612-0.108,0.921
		c-0.013,0.131-0.032,0.263-0.051,0.394c-0.061,0.435-0.138,0.976-0.048,1.553c0.161,1.047,0.037,2.141-0.095,3.3l-0.085,0.776
		c-0.314,3.162-0.671,7.343-0.637,11.656c0.01,0.521-0.014,0.95-0.075,1.356c-0.407,2.813-0.48,5.651-0.55,8.396
		c-0.016,0.657-0.033,1.313-0.054,1.951c-0.008,0.174-0.007,0.351-0.005,0.528c0.002,0.199,0.004,0.405-0.019,0.524
		c-0.271,1.392-0.338,2.764-0.404,4.092c-0.041,0.83-0.079,1.613-0.165,2.398c-0.124,1.188-0.315,2.353-0.518,3.587
		c-0.128,0.783-0.256,1.564-0.365,2.342l-0.096,0.627c-0.155,1.001-0.316,2.037-0.288,3.123c0.084,3.034-0.373,5.978-0.856,9.094
		l-0.028,0.171c-0.364,2.332-0.547,4.802-0.557,7.553c0,0.138,0.007,0.276,0.016,0.415c0.005,0.09,0.017,0.178,0.014,0.233
		c-0.304,1.485-0.398,2.962-0.488,4.393c-0.052,0.805-0.103,1.609-0.192,2.398l-0.033,0.271c-0.14,1.142-0.299,2.438-0.036,3.704
		c0.151,0.729-0.066,1.412-0.342,2.275c-0.099,0.311-0.197,0.62-0.283,0.943C186.375,386.155,185.991,386.217,185.606,386.279
		 M192.875,379.335c-0.005-0.554,0.071-1.133,0.152-1.743c0.056-0.431,0.112-0.858,0.145-1.291c0.051-0.687,0.143-1.369,0.233-2.053
		c0.179-1.339,0.364-2.722,0.278-4.17c-0.083-1.374,0.018-2.738,0.126-4.183l0.074-1.047c0.054-0.902,0.177-1.795,0.307-2.74
		c0.147-1.073,0.299-2.182,0.344-3.319c0.128-3.167,0.546-6.331,0.896-8.73l0.181-1.184c0.266-1.73,0.543-3.521,0.585-5.338
		c0.03-1.236,0.142-2.458,0.26-3.751c0.169-1.854,0.344-3.77,0.258-5.719c0.094-0.479,0.16-0.953,0.207-1.424
		c0.003,0.044,0.007,0.084,0.011,0.123c0.007,0.061,0.015,0.124,0.016,0.221l0.14,6.042c0.003,0.246,0.012,0.491,0.021,0.736
		c0.016,0.483,0.031,0.941,0.005,1.351c-0.063,0.756-0.144,1.509-0.224,2.261c-0.102,0.945-0.2,1.889-0.269,2.838
		c-0.077,1.107-0.267,2.203-0.468,3.365c-0.22,1.265-0.446,2.57-0.524,3.932l-0.014,0.255c-0.041,0.707-0.086,1.507,0.124,2.371
		c0.121,0.509,0.097,1.081-0.074,1.845l-0.053,0.23c-0.202,0.854-0.43,1.819-0.279,2.835c0.183,1.236-0.006,2.49-0.205,3.818
		l-0.075,0.504c-0.035,0.242-0.081,0.483-0.126,0.724c-0.097,0.515-0.196,1.048-0.228,1.621c-0.058,1.05-0.192,2.088-0.334,3.187
		c-0.203,1.57-0.412,3.195-0.387,4.883c0.002,0.079-0.059,0.31-0.099,0.46c-0.039,0.147-0.077,0.294-0.108,0.443
		c-0.157,0.729-0.362,1.455-0.579,2.221c-0.124,0.44-0.25,0.885-0.369,1.337C192.854,379.958,192.878,379.654,192.875,379.335
		 M197.483,320.506c0.021,0.112,0.021,0.233-0.002,0.344c-0.034,0.146-0.063,0.295-0.087,0.44c-0.005-0.017-0.009-0.036-0.013-0.053
		c-0.069-0.333-0.035-0.799,0.015-1.321C197.419,320.112,197.448,320.309,197.483,320.506 M196.998,331.568
		c0.027-0.537,0.038-1.067,0.05-1.59c0.022-0.993,0.043-1.94,0.162-2.86c0.003,0.288,0.009,0.578,0.015,0.867
		C197.251,329.254,197.278,330.455,196.998,331.568 M374.604,256.585c0.448,0.996,0.871,1.979,1.257,2.914
		c0.271,0.692,0.528,1.388,0.785,2.082l0.427,1.155c0.066,0.184,0.144,0.367,0.222,0.55c0.096,0.227,0.205,0.483,0.218,0.588
		c0.162,1.656,0.665,3.156,1.152,4.607c0.24,0.716,0.467,1.392,0.651,2.073c0.431,1.625,0.821,3.268,1.212,4.905l0.206,0.866
		c-2.657,0.336-5.46,0.439-8.532,0.308c-0.015-2.375-0.025-4.749-0.034-7.131l-0.003-1.453h0.011l-0.001-3.787
		c-0.003-2.211-0.005-4.419,0.012-6.643c0-0.399,0.013-0.743,0.042-1.043C373.041,256.563,373.846,256.571,374.604,256.585
		 M372.331,250.901c-0.035-0.574-0.065-1.14-0.094-1.69c0.209,0.561,0.418,1.12,0.627,1.68c-0.102,0.003-0.201,0.006-0.298,0.008
		L372.331,250.901z M384.5,331.608c-0.155,1.089-0.188,2.168-0.22,3.212c-0.014,0.457-0.028,0.914-0.052,1.377l-0.019,0.448
		c-0.008,0.245-0.015,0.481-0.036,0.716c-4.185,0.536-8.499,0.47-12.382,0.4c-0.027-0.633-0.052-1.231-0.027-1.815
		c0.116-3.103,0.078-6.233,0.041-9.261c-0.026-2.213-0.055-4.502-0.021-6.742c0.021-1.373,0.031-2.746,0.039-4.118
		c0.011-1.784,0.022-3.565,0.061-5.331c1.256-0.041,2.512-0.074,3.767-0.107l1.294-0.035v0.097l3.424-0.002
		c1.274-0.003,2.549-0.005,3.826,0.002c0.239,0,0.473,0.02,0.708,0.04c0.02,0.226,0.034,0.454,0.043,0.682
		c0.035,0.818,0.022,1.636,0.011,2.502c-0.021,1.563-0.043,3.176,0.216,4.82c-0.207,2.025-0.233,4.059-0.262,6.026
		C384.877,326.969,384.846,329.281,384.5,331.608 M366.437,374.355c-0.064,2.174-0.049,4.369-0.033,6.493
		c0.015,1.948,0.03,3.965-0.019,5.944l-0.004,0.255c-0.079,4.475-0.157,8.958-0.246,13.462c0,0.052,0,0.098-0.001,0.139
		c-0.275,0.035-0.577,0.041-0.869,0.041c-7.454,0-14.9-0.02-22.356-0.039l-0.053-5.988c-0.011-0.876-0.036-1.754-0.063-2.631
		c-0.056-1.83-0.113-3.722,0-5.54c0.101-1.605,0.045-3.201-0.008-4.743c-0.052-1.542-0.103-2.999-0.012-4.467
		c0.091-1.472,0.095-2.962,0.093-4.412c0.605,0.001,1.164,0.011,1.709,0.038c2.431,0.115,4.818,0.193,7.25-0.098
		c0.318-0.038,0.641-0.068,0.864-0.037c1.341,0.206,2.637,0.17,3.892,0.133c0.662-0.018,1.322-0.036,1.995-0.017l0.862,0.025
		c1.651,0.055,3.36,0.108,5.101-0.14c0.131-0.019,0.199-0.011,0.199-0.011c0.551,0.082,1.007,0.125,1.386,0.159
		c0.104,0.011,0.217,0.021,0.322,0.031C366.464,373.382,366.445,374.028,366.437,374.355 M366.427,358.592
		c0.002,2.265,0.005,4.528-0.002,6.775c-0.01,0.67-0.044,1.368-0.105,2.139l-0.011,0.145c-0.008,0.095-0.016,0.2-0.023,0.299
		c-0.1-0.008-0.22-0.021-0.366-0.039c-1.022-0.127-2.037-0.14-3.023-0.14h-0.409l-19.102-0.021c-0.155,0-0.319-0.007-0.487-0.021
		c-0.009-0.239-0.019-0.48-0.027-0.719c-0.041-1.063-0.079-2.067-0.065-3.066l0.014-0.521c0.03-1.242,0.063-2.526-0.128-3.857
		c-0.183-1.316-0.128-2.688-0.071-4.141l0.025-0.643c0.075-1.847,0.13-3.518-0.006-5.259c-0.031-0.384,0.018-0.822,0.071-1.284
		c0.078-0.687,0.168-1.466,0.025-2.316c-0.12-0.713-0.136-1.473-0.153-2.276c-0.005-0.231-0.01-0.461-0.016-0.692
		c1.088-0.088,2.189-0.133,3.481-0.174c0.616-0.017,1.232-0.015,1.852-0.01c0.438,0.003,0.877,0.006,1.298,0l17.21-0.04
		c0.062,0.35,0.107,0.682,0.107,0.99c0,3.319-0.022,6.647-0.049,9.97h-0.041L366.427,358.592z M342.544,263.75
		c-0.001-0.058-0.004-0.117-0.011-0.117h-0.001c0.51-1.875,0.266-3.717,0.051-5.328c-0.059-0.481,0.051-0.961,0.202-1.548
		l1.085-0.043c3.828-0.148,7.443-0.29,10.475-0.245l4.375-0.002c2.586-0.002,4.946-0.004,7.314,0.002
		c0.399,0,0.804,0.032,1.209,0.063c0.001,0.03,0.001,0.062,0.001,0.097c0,0.609,0.007,1.218,0.014,1.826
		c0.021,1.967,0.042,3.825-0.152,5.676c-0.096,0.834-0.071,1.642-0.049,2.422c0.013,0.404,0.025,0.808,0.018,1.224
		c-0.009,1.157-0.049,2.314-0.089,3.48l-0.023,0.831c-0.044,1.612-0.09,3.275-0.162,4.864c-0.689,0.144-1.451,0.158-2.343,0.158
		c-4.687-0.009-9.385-0.001-14.085,0.008l-1.044,0.003c-1.374,0.008-2.795,0.016-4.235,0.199c-0.685,0.083-1.43,0.042-2.217-0.002
		c-0.103-0.005-0.207-0.011-0.31-0.017c0.006-0.182,0.016-0.36,0.036-0.53c0.179-1.396,0.212-2.9,0.099-4.73
		c-0.049-0.86,0.017-1.755,0.087-2.701c0.031-0.426,0.063-0.851,0.084-1.279c0.036-0.755-0.103-1.442-0.227-2.047
		c-0.121-0.596-0.228-1.11-0.141-1.587C342.542,264.208,342.546,263.98,342.544,263.75 M353.904,305.752
		c-2.488,0.151-5.039,0.169-7.504,0.187c-0.775,0.006-1.548,0.011-2.328,0.02c-0.474,0.009-0.958-0.002-1.44-0.017
		c-0.018-2.161-0.026-4.329-0.036-6.493c0-0.279,0.011-0.559,0.019-0.839c0.02-0.59,0.039-1.201-0.012-1.82
		c-0.088-1.207-0.074-2.483,0.037-3.892l0.047-0.451c0.091-0.849,0.203-1.9-0.198-2.995c-0.001-0.025,0.002-0.069,0.014-0.111
		c0.439-1.764,0.311-3.436,0.186-5.054c-0.035-0.465-0.072-0.929-0.094-1.401c-0.008-0.165,0.007-0.342,0.044-0.522
		c0.817-0.042,1.635-0.061,2.449-0.081l0.596-0.015c2.675-0.083,5.342-0.16,8.013-0.236v0.066l4.122-0.051
		c3.024-0.038,6.047-0.076,9.068-0.094v0.314l-0.003,1.95c-0.01,6.598-0.02,13.188-0.037,19.763c-0.007,0.5-0.013,1.011-0.046,1.499
		c-0.149,0.02-0.29,0.031-0.413,0.03c-1.212-0.014-2.424,0.014-3.597,0.043c-0.927,0.023-1.851,0.047-2.774,0.047
		C357.543,305.599,355.659,305.646,353.904,305.752 M342.555,342.568c-0.003,0.021-0.009,0.045-0.018,0.068l-1.482,0.063
		L342.555,342.568z M366.84,312.069c-0.006,0.415-0.014,0.884-0.016,1.415l-0.005,1.274c-0.009,2.133-0.02,4.266,0.005,6.398
		c0.032,2.621,0.009,5.213-0.02,7.629c-0.005,0.565-0.041,1.128-0.075,1.693c-0.031,0.484-0.061,0.971-0.074,1.451
		c-0.048,1.449-0.083,3.009-0.008,4.588c0.027,0.544,0.014,0.903-0.059,1.163c-2.315,0.142-6.642,0.165-8.608,0.031
		c-0.472-0.029-0.938-0.039-1.366-0.039c-0.224,0-0.438,0.004-0.636,0.007l-13.094,0.062v-0.099
		c0.001-0.535,0.002-1.088-0.085-1.665c-0.055-0.381-0.044-0.816-0.03-1.277c0.02-0.827,0.045-1.761-0.29-2.745
		c-0.001-0.084,0.025-0.254,0.082-0.507c0.45-2.075,0.363-4.124,0.218-5.852c-0.204-2.486-0.12-4.941-0.031-7.542
		c0.05-1.434,0.101-2.916,0.097-4.386c0-1.057-0.031-1.879-0.105-2.672c0.052-0.011,0.115-0.022,0.19-0.034
		c0.522-0.075,1.121-0.085,1.692-0.094l0.95-0.005c1.481-0.01,2.962-0.02,4.452,0.005c3.711,0.053,7.459-0.141,11.082-0.329
		l1.463-0.075c0.375-0.018,0.741-0.034,1.111-0.027c0.787,0.023,1.443,0.02,1.995,0.02c0.409,0,0.854-0.002,1.161,0.015
		C366.86,310.856,366.849,311.469,366.84,312.069 M367.912,235.64c-0.676,1.848-0.646,3.745-0.616,5.647
		c0.051,2.719,0.014,5.5-0.021,8.189l-0.019,1.342c-0.002,0.12-0.005,0.216-0.01,0.296c-0.048,0.002-0.101,0.004-0.164,0.005
		c-0.753,0.012-1.507,0.014-2.262,0.017c-1.167,0.004-2.336,0.008-3.505,0.044c-1.482,0.051-2.966,0.087-4.449,0.124
		c-2.296,0.058-4.671,0.116-7.007,0.227c-1.832,0.081-3.725,0.047-5.555,0.015l-1.429-0.02c-0.027-0.275-0.037-0.57-0.048-0.886
		c-0.015-0.493-0.032-1.004-0.125-1.562c-0.045-0.256-0.029-0.599-0.011-0.964l0.012-0.285c0.196-4.802,0.192-8.487-0.011-11.948
		v-0.007c-0.031-0.478,0.036-1.029,0.103-1.554c0.971-0.056,1.974-0.111,2.973-0.111c7.189-0.012,14.392,0,21.671,0.014
		c0.008,0.021,0.018,0.046,0.028,0.075c0.146,0.397,0.272,0.799,0.41,1.234L367.912,235.64z M309.968,485.228
		c0.053,0.888-0.021,1.809-0.098,2.784c-0.018,0.246-0.038,0.493-0.055,0.739c-0.521,0.02-1.041,0.039-1.563,0.061
		c-3.776,0.15-7.643,0.105-11.45,0.058c-1.488-0.019-2.979-0.038-4.471-0.049c-0.528-0.003-1.057-0.004-1.586-0.004
		c-0.244,0-0.487,0.001-0.731,0.001c-1.237,0-2.484,0.002-3.75-0.019c-0.089,0-0.185-0.01-0.281-0.025
		c-0.045-0.332-0.079-0.678-0.079-1.011c-0.011-2.62-0.012-5.239-0.014-7.859l-0.006-5.244c0-2.028,0-4.045,0.011-6.073v-0.007
		c0-0.106,0.008-0.214,0.019-0.318c0.427-0.03,0.852-0.062,1.285-0.062c2.41-0.008,4.823-0.006,7.233-0.002l2.122,0.001v0.172
		l1.491,0.009c3.298,0.021,6.606,0.04,9.901,0.07c0.632,0.007,1.263,0.043,1.895,0.082l0.072,6.095
		c0.007,0.612,0.027,1.225,0.045,1.835c0.038,1.211,0.074,2.356,0.019,3.509C309.878,482.046,309.876,483.667,309.968,485.228
		 M281.236,343.013c0.008,0.115,0.009,0.227,0.009,0.32c0.008,2.746,0.01,5.492,0.011,8.235c-0.24-2.009-0.535-4.207-0.905-6.771
		c-0.075-0.532-0.108-1.085-0.143-1.669c-0.001-0.026-0.003-0.055-0.004-0.082C280.549,343.032,280.896,343.021,281.236,343.013
		 M263.669,260.642c-0.118-0.635-0.073-1.373-0.024-2.155c0.01-0.185,0.021-0.37,0.03-0.556c0.485-0.023,0.978-0.036,1.478-0.032
		c4.664,0.038,9.689-0.048,15.342-0.261l0.242-0.008c0.216-0.008,0.384-0.011,0.51-0.006c0.008,0.158,0.016,0.317,0.024,0.476
		c0.047,0.942,0.094,1.916,0.094,2.869c0,4.266-0.024,8.53-0.049,12.801l-0.021,3.456c-0.007,0.315-0.013,0.618-0.043,0.893
		c-0.451,0.019-0.903,0.041-1.354,0.063c-1.471,0.071-2.991,0.149-4.45,0.117c-3.462-0.078-6.351-0.122-9.374,0.083
		c-0.615,0.044-1.278,0.001-1.93-0.043l-0.054-3.544c-0.024-1.786-0.051-3.573-0.086-5.351c-0.01-0.563-0.055-1.133-0.101-1.698
		l-0.023-0.284c-0.013-0.182-0.039-0.369-0.066-0.555c-0.021-0.131-0.051-0.331-0.045-0.393
		C264.064,264.487,264.03,262.566,263.669,260.642 M337.556,387.063c-0.003,2.472-0.005,4.945-0.001,7.417
		c0,0.701,0.023,1.405,0.048,2.107c0.025,0.783,0.053,1.566,0.043,2.346c-0.007,0.509-0.08,1.038-0.171,1.591
		c-0.532,0.065-1.074,0.116-1.598,0.116l-0.997,0.01c-1.474,0.015-2.868,0.033-4.233-0.12c-0.382-0.044-0.75-0.06-1.111-0.06
		c-0.448,0-0.883,0.023-1.308,0.048c-0.618,0.034-1.201,0.063-1.753,0.018c-0.946-0.082-1.881-0.09-2.783-0.099
		c-0.376-0.004-0.753-0.007-1.13-0.018l-1.068-0.03c-0.916-0.029-1.865-0.064-2.817-0.038l-0.202,0.005
		c-1.084,0.027-2.111,0.054-3.083-0.044c-0.096-0.013-0.192-0.021-0.288-0.028c-0.012-0.165-0.023-0.329-0.034-0.494
		c-0.063-0.891-0.121-1.733-0.114-2.567v-0.008c0.008-2.514,0.049-5.026,0.09-7.54l0.051-3.305l-0.068-1.52h-0.012l0.07-11.261
		c0-0.256,0-0.517,0.019-0.758c0.628-0.053,1.315-0.084,2.125-0.092c2.142-0.037,4.342,0.018,6.468,0.067
		c3.008,0.068,6.122,0.14,9.223-0.021c0.188-0.011,0.44,0.024,0.712,0.062c0.333,0.047,0.708,0.09,1.125,0.092
		c0.275-0.004,0.553-0.017,0.827-0.029c0.72-0.032,1.361-0.059,1.927,0.071c0.097,0.592,0.075,1.242,0.055,1.92
		c-0.012,0.35-0.022,0.701-0.02,1.045C337.564,379.652,337.559,383.357,337.556,387.063 M334.511,434.16
		c-0.398-0.014-0.799-0.04-1.199-0.064c-0.684-0.044-1.367-0.086-2.039-0.086c-2.133-0.011-4.268-0.013-6.401-0.013
		c-1.067,0-2.135,0-3.202,0.001l-3.822,0.006c-0.501,0.006-1.004,0.014-1.509-0.021c-0.281-0.021-0.533-0.034-0.76-0.044
		c-0.138-0.008-0.293-0.017-0.432-0.025c-0.02-0.374-0.015-0.89-0.012-1.136c0.027-4.46,0.003-8.991-0.021-13.372
		c-0.01-2.047-0.022-4.094-0.028-6.144l-0.012-1.936c-0.011-1.691-0.022-3.386-0.008-5.088c0-0.182,0.03-0.389,0.075-0.604
		c0.131-0.018,0.254-0.024,0.366-0.024c7.14-0.01,14.277-0.01,21.418,0c0.192,0,0.382,0.019,0.57,0.042
		c0.031,0.468,0.06,0.935,0.06,1.396l0.02,26.87c0,0.098-0.001,0.195-0.003,0.293C336.545,434.201,335.522,434.185,334.511,434.16
		 M310.175,407.845c0.003,0.813,0.009,1.629,0.016,2.442c0.016,2.228,0.032,4.528-0.026,6.776c-0.072,2.966-0.048,5.967-0.025,8.868
		c0.019,2.329,0.037,4.735,0.007,7.083c-0.008,0.293-0.02,0.59-0.041,0.894c-0.39,0.029-0.775,0.054-1.152,0.062
		c-0.772,0.006-1.548,0.004-2.324,0.002l-1.174-0.002l-0.302,0.005c-0.137,0.004-0.274,0.015-0.407-0.005
		c-1.926-0.313-3.847-0.385-5.734-0.385c-0.788,0-1.568,0.014-2.343,0.025c-1.188,0.017-2.418,0.04-3.611,0.009
		c-1.246-0.025-2.498-0.027-3.748-0.027c-1.097-0.003-2.193-0.004-3.29-0.021c-0.037,0-0.073-0.001-0.104-0.002
		c-0.005-0.083-0.008-0.183-0.01-0.305c-0.02-1.108-0.022-2.221-0.024-3.33l-0.006-9.204h0.021l-0.002-5.659
		c-0.003-2.769-0.006-5.536,0.002-8.291c0.007-0.524,0.034-1.047,0.067-1.564c0.209-0.019,0.421-0.034,0.646-0.026
		c3.136,0.099,6.349-0.071,9.471,0.215c0.469,0.046,0.902,0,1.281-0.042c0.164-0.018,0.327-0.037,0.491-0.042
		c0.346-0.013,0.692-0.031,1.041-0.048c1.5-0.076,2.915-0.15,4.265,0.185c0.733,0.18,1.446,0.154,2.072,0.131l0.237-0.009
		c0.369-0.009,0.739-0.044,1.11-0.079c0.358-0.034,0.716-0.069,1.091-0.069l0.726-0.01c0.672-0.009,1.359-0.016,1.75,0.017
		c0.032,0.359,0.031,0.973,0.03,1.571L310.175,407.845z M281.729,278.1c-0.018,0.001-0.034,0.001-0.052,0.002
		c0.017-0.001,0.032-0.002,0.048-0.002H281.729z M292.644,235.494c0.999-0.181,2.005-0.316,3.001-0.402
		c0.882-0.081,1.701-0.067,2.509,0.043c0.497,0.066,0.952,0.032,1.353,0.002c0.156-0.012,0.313-0.024,0.462-0.027l9.874-0.151h0.001
		c0.171,1.805,0.33,4.076,0.215,6.333c-0.094,1.612-0.119,2.965-0.083,4.252c0.051,2.095,0.079,4.19,0.095,6.344
		c-0.867,0.063-1.792,0.122-2.717,0.131c-3.974,0.06-7.945,0.111-11.917,0.163l-9.035,0.134c-0.012-0.122-0.022-0.244-0.032-0.367
		c-0.083-0.96-0.16-1.867-0.174-2.765c-0.029-2.874-0.06-5.847,0.317-8.72l0.001-0.005c0.089-0.689,0.12-1.364,0.154-2.079
		c0.006-0.119,0.012-0.239,0.019-0.36l0.43-0.346c0.768-0.62,1.464-1.183,2.189-1.718c0.588-0.432,0.955-0.443,1.268-0.395
		C291.18,235.657,291.857,235.636,292.644,235.494 M337.166,367.729l-1.033,0.007c-2.799,0.019-5.692,0.039-8.523-0.007
		l-0.502-0.008c-1.326-0.021-2.675-0.04-4.032-0.04c-1.172,0-2.352,0.015-3.526,0.059c-1.271,0.038-2.549-0.028-3.898-0.099
		l-0.635-0.037v-0.002c-0.005-0.413,0-0.827,0.006-1.24c0.005-0.437,0.009-0.873,0.005-1.31l-0.03-2.174
		c-0.025-1.825-0.051-3.649-0.051-5.479c0-0.774,0.024-1.549,0.048-2.324c0.039-1.24,0.078-2.521,0.021-3.809
		c-0.082-1.675-0.036-3.398,0.006-5.063c0.018-0.73,0.037-1.463,0.047-2.214c0-0.339,0.022-0.679,0.046-1.019
		c1.559-0.138,3.165-0.116,4.733-0.102c0.176,0,0.349,0.023,0.52,0.041c0.358,0.039,0.762,0.085,1.221,0.042
		c1.984-0.186,3.955-0.124,6.045-0.054c2.189,0.069,4.451,0.143,6.741-0.1c0.758-0.082,1.59-0.016,2.472,0.058
		c0.226,0.018,0.448,0.037,0.678,0.053c0.021,0.691,0.034,1.38,0.034,2.07l0.001,13.114c0.003,2.873,0.005,5.751-0.011,8.636
		c0,0.306-0.033,0.633-0.082,0.975C337.358,367.722,337.258,367.729,337.166,367.729 M310.078,400.261
		c-0.294,0.026-0.588,0.049-0.883,0.049c-7.459,0-14.918,0-22.37-0.011c-0.264,0-0.524-0.014-0.797-0.033
		c-0.059-0.525-0.113-1.021-0.113-1.495c0.011-8.629,0.03-17.258,0.051-25.881c0-0.07,0.003-0.145,0.009-0.218
		c0.068-0.007,0.145-0.012,0.228-0.014c0.622-0.028,1.244-0.035,1.868-0.042c1.188-0.012,2.416-0.026,3.68-0.179
		c0.346-0.046,0.801,0.015,1.279,0.08c0.433,0.057,0.879,0.117,1.364,0.122c2.361,0.02,4.729,0.021,7.095,0.023l3.457,0.006
		c1.598,0,3.194,0.011,4.749,0.02c0.098,0.004,0.197,0.012,0.298,0.022c-0.051,2.658,0.036,5.327,0.12,7.914
		c0.06,1.82,0.122,3.701,0.133,5.516c-0.05,3.829-0.109,7.667-0.17,11.506c-0.005,0.527-0.002,1.056,0,1.586
		C310.077,399.576,310.079,399.921,310.078,400.261 M286.195,262.563c-0.002-1.356-0.004-2.706,0.01-4.074
		c0-0.328,0.019-0.604,0.061-0.849c0.204-0.03,0.434-0.03,0.538-0.03c1.681-0.021,3.37-0.021,5.061-0.021h0.041l0.839,0.003
		c1.883,0.008,3.835,0.017,5.813-0.35c0.117-0.022,0.235-0.043,0.354-0.043c3.646,0.01,7.292,0.028,10.922,0.047
		c0.008,0.085,0.013,0.174,0.013,0.27c0.052,2.9,0.096,5.802,0.139,8.703l-0.019,11.553c-1.078,0.026-2.163,0.036-3.241,0.046
		l-6.238,0.031c-3.093,0.013-6.186,0.026-9.295,0.05c-0.409,0.006-0.791,0.061-1.129,0.11c-0.255,0.036-0.508,0.076-0.762,0.08
		c-0.926,0.016-1.992,0.024-3.091-0.024c-0.02-0.225-0.023-0.467-0.023-0.705l0.009-13.431V262.563z M309.07,367.613
		c-1.829,0.105-3.56,0.204-5.292,0.042c-0.933-0.088-1.847-0.054-2.731-0.024c-0.312,0.013-0.625,0.024-0.942,0.028l-1.631,0.039
		c-3.084,0.078-6.275,0.159-9.376-0.142c-0.642-0.063-1.271-0.072-1.887-0.072c-0.17,0-0.34,0.001-0.508,0.002
		c-0.231,0.001-0.462,0.002-0.7,0.001c-0.021-0.19-0.037-0.379-0.037-0.571c-0.011-6.499-0.021-12.998-0.021-19.497
		c0-1.433,0.044-2.875,0.087-4.31l0.004-0.132c0.3-0.01,0.594-0.016,0.894-0.008c2.729,0.043,5.49-0.027,8.16-0.1l2.423-0.061
		c0.397-0.005,0.779,0.01,1.166,0.024l0.354,0.015c3.067,0.109,6.24,0.224,9.394,0.018c0.4-0.027,0.869,0.028,1.36,0.087
		c0.031,0.003,0.06,0.007,0.09,0.011c0.006,0.729,0.021,1.455,0.036,2.184c0.031,1.493,0.063,3.037,0.004,4.543
		c-0.042,1.27-0.013,2.542,0.017,3.771c0.002,0.063,0.004,0.124,0.006,0.188h-0.113l0.079,3.894c0.046,2.187,0.092,4.368,0.122,6.56
		c0.017,1.143-0.01,2.318-0.036,3.459C309.682,367.577,309.375,367.596,309.07,367.613 M308.771,337.789
		c-1.039,0.004-2.076,0.003-3.111,0.003c-1.733-0.001-3.468-0.002-5.193,0.018c-0.855,0.005-1.71,0.038-2.564,0.07
		c-0.95,0.037-1.905,0.063-2.852,0.069c-2.291-0.007-4.582-0.056-6.873-0.104l-2.124-0.044c-0.041-0.314-0.072-0.615-0.078-0.904
		c-0.03-1.368-0.03-2.747-0.03-4.11l0.011-3.229c0.007-3.113,0.015-6.333,0.089-9.489l0.018-0.631
		c0.055-2.119,0.112-4.31-0.009-6.504c-0.016-0.264,0.014-0.569,0.047-0.895c0.116-0.014,0.234-0.029,0.358-0.029
		c1.07-0.01,2.133,0,3.197-0.01l2.656-0.014c3.113-0.016,6.334-0.031,9.52-0.157c0.484-0.021,0.969-0.059,1.453-0.097
		c0.883-0.07,1.716-0.134,2.508-0.094c1.093,0.06,2.171,0.03,3.211,0.001l0.701-0.019c0.068,0,0.125,0.001,0.174,0.002
		c0.123,0.877,0.164,1.846,0.128,3.006c-0.063,2.274-0.084,4.548-0.104,6.821l-0.018,1.806c-0.008,0.459-0.005,0.919-0.002,1.302
		l0.002,0.424l0.021,0.256c0.219,1.261,0.171,2.431,0.121,3.67c-0.02,0.455-0.037,0.906-0.042,1.357
		c-0.019,1.45-0.022,2.898-0.026,4.346c-0.003,1.052-0.006,2.104-0.012,3.125C309.581,337.771,309.192,337.789,308.771,337.789
		 M310.058,306.542c-0.378,0.065-0.799,0.101-1.254,0.108c-1.402,0.018-2.806,0.015-4.201,0.017
		c-0.831-0.001-1.661-0.002-2.495,0.003l-0.955-0.001c-1.585-0.01-3.217-0.012-4.879,0.316c-1.294-0.047-2.573,0.005-3.813,0.054
		c-1.265,0.051-2.46,0.097-3.645,0.053c-0.652-0.031-1.304-0.04-1.956-0.049c-0.233-0.003-0.465-0.006-0.699-0.01
		c-0.008-0.094-0.015-0.188-0.015-0.283l0.04-21.99c0.007-0.533,0.029-1.072,0.057-1.608c0.025-0.001,0.049-0.002,0.075-0.002
		l11.49-0.079c0.698-0.006,1.396-0.023,2.094-0.039c1.767-0.041,3.437-0.081,5.127,0.044c0.674,0.049,1.304-0.009,1.915-0.065
		c0.271-0.024,0.542-0.05,0.805-0.062c0.722-0.031,1.445-0.061,2.168-0.083c0.009,1.46,0.008,2.927-0.002,4.391l-0.007,3.07
		c-0.008,4.087-0.019,8.167-0.003,12.244c0,0.565,0.063,1.091,0.124,1.6c0.041,0.335,0.082,0.671,0.097,1.001l0.009,0.188
		C310.155,305.83,310.175,306.277,310.058,306.542 M337.556,327.726c0.003,2.947,0.005,5.894-0.011,8.854
		c0,0.467-0.018,0.858-0.055,1.177c-0.237,0.021-0.499,0.024-0.768,0.024c-7.028,0.009-14.047,0.009-21.068,0
		c-0.169,0-0.339-0.007-0.517-0.02c-0.066-1.003-0.126-2.057-0.144-3.089c-0.033-1.328-0.049-2.658-0.063-3.987l-0.026-2.035
		c0-0.182-0.011-0.365-0.024-0.545c-0.009-0.121-0.02-0.24-0.018-0.33c0.248-5.013,0.18-9.951,0.082-14.085
		c0-0.085,0.009-0.172,0.017-0.258c0.009-0.102,0.018-0.203,0.022-0.303l0.021-0.423c0.022-0.394,0.044-0.823,0.075-1.117
		c0.32-0.016,0.801-0.015,1.272-0.01l0.203,0.001c1.959,0.012,3.926-0.006,5.888-0.023c1.228-0.012,2.456-0.023,3.686-0.026
		c1.901-0.007,3.816-0.1,5.669-0.19c1.204-0.059,2.407-0.116,3.612-0.152c0.628-0.023,1.263,0.03,1.944,0.083
		c0.054,0.004,0.108,0.008,0.163,0.011l0.006,0.226c0.015,0.697,0.031,1.394,0.031,2.095c0.01,3.219,0.011,6.444,0.011,9.666h-0.011
		L337.556,327.726z M329.93,306.162l-3.287,0.077c-0.725,0.017-1.447,0.027-2.171,0.036c-1.092,0.014-2.185,0.029-3.277,0.065
		c-1.104,0.036-2.209,0.095-3.313,0.153c-0.709,0.038-1.417,0.076-2.128,0.108c-0.21,0.01-0.423-0.009-0.635-0.029
		c-0.03-0.326-0.053-0.639-0.053-0.945c-0.025-2.947-0.036-5.888-0.05-9.411l-0.011-2.893l-0.008-0.145
		c-0.144-1.43-0.087-3.288-0.025-5.256c0.053-1.671,0.105-3.397,0.056-5.167c1.831-0.027,3.652-0.036,5.472-0.046l3.192-0.008
		c2.237-0.004,4.475-0.008,6.704-0.022c0.596,0,1.214-0.055,1.822-0.159c1.682-0.277,3.419-0.242,5.318-0.153
		c0.025,0.823,0.04,1.644,0.049,2.453l0.002,6.069c0.002,4.047,0.005,8.096-0.002,12.137c-0.008,0.86-0.049,1.726-0.09,2.593
		l-0.014,0.317c-0.323,0.03-0.646,0.057-0.978,0.064C334.314,306.061,332.122,306.111,329.93,306.162 M330.205,277.429
		c-2.341,0-4.681,0.005-7.022,0.011c-2.339,0.005-4.679,0.009-7.018,0.009c-0.395,0-0.795-0.026-1.192-0.058
		c0.001-0.053,0.002-0.107,0.003-0.159c0.006-0.275,0.011-0.549,0.011-0.829l-0.016-2.16c-0.011-1.399-0.022-2.8-0.016-4.197
		c0.008-1.698,0.031-3.401,0.055-5.106l0.025-1.886c0.021-1.266,0.031-2.54,0.04-3.845l-0.002-0.549
		c-0.002-0.342-0.004-0.683,0.002-1.023c0.003-0.19,0.009-0.336,0.016-0.448c0.079-0.004,0.176-0.008,0.291-0.01
		c0.868-0.016,1.735-0.025,2.604-0.036c0.832-0.01,1.665-0.02,2.501-0.033c1.322-0.027,2.646-0.062,3.968-0.097l3.532-0.091v-0.102
		h9.568c0.01,0.255,0.016,0.513,0.021,0.766l0.01,2.004c0.028,5.707,0.059,11.607-0.05,17.404c-0.003,0.141-0.009,0.276-0.021,0.404
		c-0.104,0.011-0.207,0.019-0.304,0.021C334.867,277.429,332.532,277.419,330.205,277.429 M332.646,251.574
		c-1.474,0.005-2.946,0.01-4.423,0.025c-0.526,0.008-1.053,0.052-1.578,0.097c-0.241,0.02-0.48,0.041-0.721,0.056l-0.694,0.097
		h-10.135c-0.012-0.181-0.021-0.36-0.021-0.54c0-5.318,0-10.626,0.021-15.944v-0.005c0-0.197,0.03-0.393,0.061-0.588
		c0.748-0.012,1.497-0.026,2.247-0.039c1.833-0.034,3.666-0.067,5.504-0.074c3.939-0.028,7.882,0.002,11.798-0.03
		c0.848,0,1.682-0.054,2.489-0.106c0.115-0.008,0.232-0.015,0.351-0.023c0.006,0.067,0.01,0.132,0.011,0.197l0.021,1.045
		c0.035,1.729,0.072,3.516,0.038,5.256c-0.044,2.092-0.04,4.206-0.036,6.25c0.002,1.218,0.004,2.435-0.004,3.661
		c0,0.2-0.023,0.412-0.056,0.621c-0.124,0.012-0.247,0.019-0.369,0.019C335.65,251.565,334.148,251.57,332.646,251.574
		 M336.081,209.688c0.52-0.014,1.038-0.027,1.556-0.038c-0.073,0.975-0.013,1.91,0.048,2.819c0.054,0.843,0.105,1.638,0.047,2.404
		l-0.021,0.256l0.067,0.248c0.112,0.424,0.061,0.947,0.001,1.55c-0.08,0.802-0.168,1.699,0.1,2.661l-0.049,0.649
		c-0.082,1.076-0.163,2.151-0.203,3.237c-0.025,0.822,0.022,1.621,0.068,2.394l0.035,0.616c0.054,0.875-0.074,1.781-0.213,2.738
		c-0.217,0.025-0.426,0.038-0.629,0.038c-2.542,0.03-5.094,0.039-7.651,0.03c-3.192,0-6.359,0.169-9.333,0.343
		c-1.382,0.085-2.826,0.069-4.222,0.057l-0.609-0.006c0.047-3.455,0.097-6.911,0.183-10.363c0.018-0.594,0.104-1.232,0.259-1.889
		c0.146-0.604,0.402-1.057,0.785-1.39c0.859-0.746,1.707-1.5,2.557-2.255l4.994-4.453c1.909,0.357,3.791,0.387,5.618,0.416
		l0.576,0.01C332.079,209.789,334.11,209.736,336.081,209.688 M309.93,228.769l-0.029,0.953c-1.563,0.047-3.119,0.084-4.431,0.116
		l-1.752,0.044c-2.319,0.104-4.112,0.17-5.73,0.152c0.493-0.395,0.98-0.769,1.486-1.111c1.441-0.965,2.651-1.889,3.703-2.827
		c1.259-1.129,2.52-2.026,3.857-2.744c0.978-0.526,1.926-1.126,2.833-1.795c0.063,1.107,0.116,2.18,0.127,3.269
		C310.019,226.125,309.973,227.468,309.93,228.769 M281.355,252.217c-0.472,0.044-0.933,0.099-1.386,0.153
		c-1.274,0.153-2.479,0.297-3.634,0.153c-0.687-0.094-1.328-0.005-1.891,0.071c-0.284,0.039-0.567,0.082-0.839,0.085
		c-3.181,0.02-6.366,0.01-9.558,0.001l-0.313-0.001c-0.031,0-0.062,0.001-0.092,0.001c-0.078-0.626-0.118-1.243-0.118-1.841
		c0-0.634,0.048-1.278,0.096-1.901l0.013-0.178c0.093-0.041,0.236-0.082,0.488-0.146c0.185-0.045,0.366-0.092,0.545-0.151
		l0.351-0.116c2.237-0.742,4.552-1.509,6.696-2.707c1.313-0.731,2.706-1.402,4.056-2.053c1.884-0.909,3.825-1.846,5.675-2.997
		c0.001,3.475,0.012,7.032,0.09,10.539C281.539,251.438,281.458,251.801,281.355,252.217 M337.725,204.161
		c-0.337,0.015-0.674,0.028-1.01,0.028h-8.261c1.535-1.4,2.877-2.905,4.004-4.493c1.971-1.996,3.618-4.232,5.19-6.434
		c0.005,0.177,0.011,0.353,0.016,0.53c0.02,0.813,0.028,1.626,0.036,2.441c0.017,1.492,0.034,3.035,0.106,4.561
		C337.861,201.872,337.834,202.977,337.725,204.161 M310.035,463.021l-0.033,0.408l-2.958-0.019
		c-5.706-0.032-11.605-0.064-17.398-0.142c-0.938-0.014-1.893-0.138-2.902-0.27c-0.268-0.035-0.535-0.069-0.806-0.103
		c-0.022-0.666-0.041-1.332-0.041-1.998v-0.004c-0.008-2.272-0.005-4.542-0.002-6.814l0.002-14.602c0-0.323,0.006-0.641,0.026-1.003
		l0.956-0.01c1.414-0.017,2.744-0.03,4.085,0.05c5.026,0.307,10.375,0.437,17.402,0.392c0.666-0.003,1.339-0.007,1.712,0.032
		c0.044,0.43,0.022,1.25,0.009,1.779c-0.051,1.909-0.05,3.84-0.049,5.706c0,0.767,0,1.531-0.003,2.293
		c-0.009,1.299-0.014,2.596-0.02,3.894c-0.005,1.357-0.01,2.715-0.021,4.077l-0.006,0.591c-0.011,1.198-0.024,2.437,0.104,3.691
		C310.153,461.605,310.095,462.293,310.035,463.021 M248.624,252.093c0.737-0.201,1.434-0.387,2.077-0.427
		c2.099-0.121,4.06-0.623,5.957-1.108l0.835-0.212c0.271-0.066,0.572-0.104,0.895-0.126c0.286,0.858,0.385,1.675,0.297,2.462
		c-0.105,0.009-0.216,0.015-0.328,0.017c-0.983,0.013-1.961,0.011-2.931,0.012v-0.032l-2.965,0.004
		c-1.198,0.003-2.395,0.008-3.574,0.001c-0.01-0.009-0.042-0.051-0.077-0.138C248.75,252.396,248.689,252.243,248.624,252.093
		 M280.946,494.096c0.009,0.305,0.009,0.6,0.009,0.899c-0.004,1.671-0.01,3.342-0.018,5.013c-0.012,2.472-0.022,4.941-0.022,7.411
		c0,0.709-0.081,1.392-0.248,2.067c-0.948,0.095-1.903,0.094-2.896,0.093c-0.484,0.001-0.968,0-1.452,0.01
		c-1.945,0.051-3.951,0.012-5.89-0.026c-0.886-0.018-1.772-0.033-2.667-0.043c-0.34-0.008-0.687-0.017-1.072-0.036
		c-0.036-0.421-0.058-0.842-0.065-1.258c-0.03-1.875-0.088-3.75-0.145-5.625c-0.09-2.908-0.183-5.914-0.164-8.868
		c0.315-0.03,0.648-0.033,0.969-0.033h10.84c1.025,0,1.952,0.018,2.805,0.209C280.937,493.978,280.944,494.041,280.946,494.096
		 M280.625,527.014c-0.57-1.282-1.223-2.507-1.864-3.706c-0.206-0.389-0.413-0.776-0.614-1.162c-1.604-3.071-4.126-5.333-7.72-6.92
		c-0.361-0.158-0.728-0.313-1.094-0.468c-0.146-0.061-0.292-0.122-0.438-0.185c0.604-0.019,1.179-0.013,1.7,0.103l0.262,0.057
		l0.263-0.036c1.749-0.243,3.514-0.132,5.38-0.018c1.303,0.078,2.651,0.161,4.012,0.119c0.043-0.001,0.083-0.002,0.12-0.002
		l0.063,0.501c0.105,0.849,0.207,1.65,0.164,2.437c-0.05,0.954-0.03,1.896-0.012,2.808c0.01,0.467,0.019,0.934,0.019,1.398
		l0.005,0.535c0.009,0.524,0.016,1.021-0.051,1.438C280.668,524.772,280.53,525.84,280.625,527.014 M322.294,463.552l-4.496-0.013
		c-0.87-0.008-1.74-0.022-2.609-0.039c-0.04-0.33-0.074-0.643-0.074-0.938c-0.015-2.96-0.012-5.914-0.01-8.867l-0.012-4.98
		c-0.002-1.347-0.005-2.694,0.002-4.031c0.018-1.899,0.052-3.796,0.087-5.683c0.351,0,0.702-0.004,1.054-0.007
		c1.343-0.013,2.613-0.024,3.858,0.107c1.321,0.142,2.615,0.128,3.868,0.112c0.896-0.013,1.744-0.021,2.604,0.024
		c1.42,0.067,2.854,0.059,4.239,0.052c0.737-0.005,1.473-0.009,2.221-0.001c1.482,0,2.966,0.01,4.433,0.03
		c0.009,0.001,0.019,0.001,0.027,0.001c0.041,0.359,0.06,0.687,0.06,0.995c0.019,4.648,0.031,10.145,0,15.646
		c-0.013,1.169-0.089,2.376-0.162,3.543c-0.038,0.607-0.076,1.214-0.105,1.811c-0.036,0.639-0.336,1.194-1.059,1.946
		c-0.029,0.008-0.068,0.016-0.116,0.021l-0.462,0.065c-0.768,0.108-1.492,0.212-2.192,0.212
		C329.735,463.572,326.011,463.563,322.294,463.552 M383.141,305.093c-1.021,0.114-1.997,0.219-2.96,0.216l-0.88-0.005
		c-2.146-0.013-4.369-0.026-6.604,0.195c-0.213,0.021-0.484,0.002-0.771-0.023c-0.004-0.064-0.007-0.128-0.011-0.192
		c-0.031-0.566-0.061-1.1-0.033-1.59c0.247-3.536,0.272-6.987,0.265-10.212c-0.026-1.358-0.02-2.741-0.013-4.14
		c0.014-2.483,0.025-5.049-0.137-7.625l0.292-0.012c0.169-0.009,0.424-0.02,0.534,0.007c1.751,0.449,3.656,0.529,5.66,0.241
		c0.685-0.102,1.401-0.049,2.16,0.006c0.466,0.034,0.93,0.067,1.398,0.071c0.061,0,0.098,0.005,0.116,0.003
		c0.021,0.042,0.057,0.136,0.085,0.313c0.141,0.928,0.332,1.845,0.517,2.73c0.353,1.69,0.686,3.287,0.686,4.903l0.036,0.325
		c0.394,1.775,0.543,3.577,0.7,5.486c0.097,1.165,0.196,2.37,0.356,3.561c0.181,1.403,0.215,2.822,0.251,4.324
		c0.01,0.415,0.021,0.83,0.034,1.249C384.25,304.969,383.69,305.031,383.141,305.093 M365.068,228.559
		c-1.591,0.03-3.222,0.03-4.757,0.03c-3.151-0.009-6.113,0.108-9.022,0.365c-1.402,0.119-2.814,0.1-4.308,0.079
		c-0.434-0.005-0.866-0.012-1.297-0.014c-0.132-0.001-0.26-0.001-0.384-0.001c-0.396,0-0.753,0.003-1.073,0.007
		c-0.494,0.003-0.999,0.008-1.331-0.008c-0.021-0.33-0.019-0.824-0.018-1.308c0.001-0.412,0.003-0.882-0.004-1.413
		c-0.006-0.659-0.029-1.318-0.054-1.975c-0.019-0.514-0.037-1.028-0.045-1.523l-0.008-0.757c-0.015-1.11-0.028-2.16,0.07-3.2
		c0.109-1.156,0.082-2.299,0.056-3.404l-0.02-0.898c-0.011-0.836-0.038-1.672-0.063-2.507c-0.022-0.655-0.042-1.31-0.056-1.959
		c-0.004-0.209-0.002-0.373,0.014-0.509c1.615-0.099,3.279-0.042,5.025,0.019l1.43,0.045c0.775,0.022,1.552,0.058,2.322,0.093
		c1.543,0.07,3.135,0.144,4.69,0.1c0.521,0.516,0.856,1.155,1.233,1.874l0.279,0.525c1.108,2.02,1.991,3.706,2.783,5.311
		c0.519,1.035,1.054,2.104,1.34,3.232c0.295,1.146,0.772,2.207,1.233,3.232c0.126,0.28,0.252,0.56,0.373,0.839
		c0.411,0.954,0.839,1.904,1.267,2.857c0.13,0.288,0.26,0.577,0.39,0.867C365.112,228.559,365.089,228.559,365.068,228.559
		 M352.902,203.753c-0.017,0.001-0.033,0.003-0.048,0.004c-1.245,0.118-2.414,0.223-3.58,0.203l-0.406-0.011
		c-1.486-0.041-3.021-0.082-4.621,0.181c-0.33,0.057-0.773,0.006-1.243-0.046c-0.022-0.003-0.047-0.006-0.069-0.008v-0.016
		c-0.034-0.866-0.069-1.734-0.069-2.601c0-3.516,0.01-7.021,0.04-10.534c0.002-0.186,0.007-0.372,0.014-0.558
		c0.636,0.64,1.271,1.282,1.902,1.919c2.074,2.128,3.942,4.611,5.718,7.596c0.459,0.765,0.926,1.525,1.392,2.284
		C352.254,202.694,352.578,203.221,352.902,203.753 M253.655,258.034c1.706-0.11,3.319-0.212,4.954-0.115
		c0.002,0.584,0.002,1.17,0.002,1.755c0,0.746,0,1.491,0.004,2.232c0.014,2.605,0.035,5.207,0.056,7.808v0.019
		c-0.217-0.418-0.435-0.831-0.652-1.242c-0.36-0.677-0.719-1.355-1.062-2.032c-0.168-0.337-0.347-0.667-0.528-0.996
		c-0.361-0.663-0.704-1.289-0.918-1.941c-0.232-0.711-0.643-1.292-1.004-1.805l-0.146-0.207c-0.729-1.062-1.481-2.191-2.16-3.388
		C252.686,258.096,253.169,258.065,253.655,258.034 M265.494,283.439c5.11-0.03,10.218-0.05,15.355-0.07l0.343-0.012
		c0.011-0.001,0.023-0.002,0.036-0.002c0.03,0.475,0.057,0.951,0.057,1.42c-0.02,6.5-0.04,12.999-0.069,19.494l0.006,1.294
		c0.004,0.502,0.009,1.004,0.007,1.498c-3.607,0.246-6.673,0.301-9.754-0.182c-0.315-0.051-0.321-0.072-0.402-0.313
		c-0.342-1.055-0.703-2.104-1.064-3.154c-1.138-3.311-2.214-6.438-2.763-9.767c-0.204-1.24-0.691-2.39-1.135-3.379
		c-0.984-2.157-1.723-4.415-2.198-6.722C264.416,283.463,264.955,283.447,265.494,283.439 M273.272,312.319l0.016,0.001
		c0.916,0.022,1.811-0.024,2.678-0.068c1.146-0.059,2.226-0.112,3.277-0.019c0.575,0.055,1.13,0.017,1.622-0.014
		c0.121-0.008,0.242-0.017,0.362-0.023c0.038,0.388,0.058,0.804,0.058,1.257c0.011,3.839,0.011,7.677,0.011,11.517l0.011,0.813
		l-0.13,11.916c-0.445,0.048-0.908,0.087-1.343,0.071c-0.349-0.006-0.528-0.03-0.614-0.048c-0.047-0.101-0.128-0.323-0.245-0.821
		c-0.317-1.323-0.55-2.434-0.654-3.554c-0.201-2.248-0.784-4.371-1.417-6.535c-0.862-2.892-1.523-5.336-1.947-7.865
		c-0.18-1.094-0.525-2.115-0.858-3.102c-0.153-0.455-0.308-0.909-0.438-1.355c-0.199-0.702-0.391-1.404-0.575-2.117
		C273.16,312.346,273.23,312.325,273.272,312.319 M277.966,431.798l0.152-0.643c0.32-1.346,0.637-2.688,0.94-4.04
		c0.454-2.034,0.733-3.631,0.905-5.171c0.132-1.122,0.332-2.226,0.544-3.396c0.172-0.948,0.351-1.928,0.486-2.91v3.86l-0.004,10.212
		c-0.005,0.864-0.008,1.729,0.004,2.595c0.01,0.563-0.003,0.914-0.021,1.129c-0.116,0.009-0.246,0.016-0.363,0.022
		c-0.273,0.018-0.582,0.035-0.991,0.075c-0.064,0.009-0.129,0.023-0.191,0.017c-0.565-0.093-1.047-0.146-1.451-0.192
		c-0.106-0.012-0.221-0.025-0.33-0.038C277.728,432.829,277.885,432.151,277.966,431.798 M323.089,483.003l-0.683,1.021
		c-0.95,1.418-1.903,2.84-2.886,4.274c-0.068,0.103-0.157,0.19-0.275,0.316c-0.453,0.019-0.901,0.039-1.346,0.059
		c-0.836,0.037-1.661,0.073-2.497,0.098l-0.003-0.647c-0.001-0.518-0.002-1.038-0.015-1.551l-0.102-5.293
		c-0.053-2.685-0.106-5.369-0.148-8.046c-0.01-0.878-0.021-1.786,0.111-2.607v-0.005c0.086-0.545,0.032-1.047-0.015-1.49
		c-0.022-0.196-0.053-0.478-0.042-0.628c0.179-0.052,0.67-0.006,0.946,0.023c0.373,0.036,0.794,0.079,1.235,0.05
		c2.168-0.124,4.519-0.154,7.198-0.087c0.936,0.016,1.875,0.109,2.869,0.206c0.713,0.07,1.425,0.139,2.141,0.182
		c0.984,0.057,1.971,0.081,2.96,0.107c0.035,0.001,0.071,0.002,0.108,0.003c-1.739,2.747-3.537,5.574-5.537,8.162
		c-1.036,1.333-1.964,2.746-2.863,4.112C323.866,481.842,323.485,482.422,323.089,483.003 M345.927,434.407
		c-0.868-0.007-1.737-0.015-2.611-0.018c-0.124,0-0.248-0.004-0.405-0.015c-0.016-0.423-0.015-0.84-0.015-1.261
		c-0.003-0.909,0.001-1.818,0.005-2.727c0.007-1.947,0.016-3.961-0.046-5.951c-0.061-2.095-0.041-4.237-0.023-6.309
		c0.016-1.72,0.03-3.438,0.004-5.156c-0.014-1.097,0.014-2.191,0.041-3.286c0.032-1.313,0.067-2.666,0.029-4.02
		c0.373-0.039,0.692-0.056,0.992-0.056c7.04-0.011,14.079-0.011,21.117-0.011c0.365,0,0.738,0.009,1.11,0.023
		c0.009,1.46,0.009,2.918,0.009,4.376c0,1.496,0,2.992,0.012,4.496c0.007,0.677-0.216,1.357-0.438,1.944
		c-2.485,6.711-5.332,12.378-8.711,17.337l-0.152,0.229c-1.113,0.29-2.229,0.318-3.399,0.349l-0.582,0.016
		C350.562,434.447,348.205,434.427,345.927,434.407 M375.924,386.692c-0.267,0.907-0.519,1.764-0.817,2.63l-0.361,1.042
		c-0.89,2.57-1.812,5.228-2.323,8.008c-0.024,0.135-0.08,0.265-0.129,0.396c-0.096,0.258-0.185,0.517-0.251,0.817
		c-0.037,0.189-0.07,0.364-0.26,0.507l-0.021-1.103c-0.026-1.57-0.055-3.141-0.108-4.71c-0.014-0.417-0.017-0.835-0.019-1.254
		c-0.007-1.095-0.014-2.228-0.211-3.394c-0.065-0.395-0.038-0.882-0.008-1.396l0.028-0.528c0.08-2.465,0.168-4.92,0.257-7.382
		l0.033-0.883l-0.025-1.554h-0.055c0.001-1.088,0.003-2.178,0.01-3.271c0-0.632,0.021-1.167,0.064-1.649
		c2.21,0,4.42,0.01,6.626,0.05c0.214,0.004,0.43,0.026,0.635,0.066c-0.401,1.717-0.756,3.462-1.101,5.151
		c-0.546,2.685-1.111,5.462-1.861,8.108L375.924,386.692z M382.067,357.2c-0.206,0.906-0.418,1.842-0.506,2.854
		c-0.099,1.173-0.402,2.359-0.725,3.617c-0.099,0.387-0.196,0.771-0.29,1.157c-0.176,0.737-0.399,1.47-0.66,2.32
		c-0.043,0.14-0.087,0.284-0.132,0.431c-0.223,0.064-0.412,0.114-0.546,0.122c-1.845,0.108-3.696,0.18-5.543,0.253L372.537,368
		c-0.291,0.017-0.527-0.022-0.748-0.112c-0.158-1.052-0.144-2.171-0.13-3.347c0.005-0.469,0.011-0.939,0.006-1.409v-0.004
		c-0.04-2.863-0.002-5.785,0.035-8.611c0.018-1.379,0.036-2.759,0.045-4.134c0.013-1.365,0.014-2.73,0.015-4.098l0.006-2.636
		c0-0.329,0-0.646,0.024-0.918c0.031-0.001,0.068-0.002,0.111-0.002l2.339-0.012c2.263-0.012,4.606-0.026,6.898,0.012
		c0.729,0.012,1.478,0.12,2.269,0.233c0.209,0.03,0.418,0.062,0.627,0.09c0.11,0.633,0.009,1.349-0.097,2.103l-0.05,0.347
		c-0.181,1.363-0.399,2.725-0.617,4.083c-0.284,1.765-0.577,3.587-0.784,5.407C382.404,355.715,382.24,356.438,382.067,357.2
		 M71.923,127.469l-0.985,0.522c-0.306,0.161-0.604,0.334-0.901,0.508c-0.431,0.252-0.839,0.491-1.226,0.655
		c-1.909,0.791-3.58,1.932-4.967,2.948l-0.317,0.233c-0.936,0.69-1.904,1.403-2.808,2.203c-1.859,1.651-3.951,3.124-5.975,4.549
		c-1.207,0.851-2.456,1.731-3.663,2.652c-0.757,0.581-1.691,0.965-2.681,1.372c-0.268,0.11-0.536,0.22-0.801,0.335
		c-2.21,0.285-4.048,1.271-5.827,2.226l-0.679,0.362c-0.831,0.44-1.594,0.658-2.318,0.665c-0.98,0-2.02-0.036-3.09-0.107
		c-0.039-0.002-0.077-0.005-0.116-0.008c0.538-0.282,1.067-0.572,1.589-0.857c0.789-0.432,1.578-0.863,2.377-1.261
		c1.367-0.671,2.409-1.365,3.264-2.173c0.715-0.656,1.561-1.185,2.607-1.774c1.492-0.833,2.954-1.744,4.367-2.625
		c0.561-0.351,1.123-0.7,1.64-1.019c0.275-0.155,0.447-0.349,0.478-0.396c0.551-0.482,0.905-1.242,0.947-2.037
		c0.038-0.72-0.18-1.374-0.603-1.831c-0.902-0.993-2.593-1.227-3.727-0.485c-0.29,0.182-0.65,0.409-0.966,0.725
		c-0.638,0.628-1.442,1.074-2.292,1.545c-1.826,1.007-4.2,2.387-6.359,4.138c-0.941,0.762-1.885,1.33-2.886,1.734l-0.348,0.15
		c-1.088,0.482-1.871,0.856-2.498,1.155c-2.078,0.992-2.248,1.073-7.166,1.792l-0.144,0.027c-0.215,0.038-0.431,0.079-0.634,0.139
		c-2.226,0.665-4.486,0.435-6.59,0.089c-0.37-0.063-0.748-0.098-1.126-0.133c-0.619-0.057-1.084-0.107-1.461-0.242
		c-0.153-2.256-0.593-4.394-1.295-6.316c-0.008-0.042-0.011-0.085-0.016-0.128c-0.007-0.056-0.014-0.111-0.023-0.171
		c2.633-1.883,5.026-4.051,7.343-6.15c1.348-1.222,2.741-2.485,4.145-3.656c0.544-0.452,1.003-0.942,1.368-1.464
		c0.556-0.808,1.172-1.617,1.766-2.399c1.076-1.411,2.186-2.87,3.094-4.495c0.183-0.322,0.451-0.64,0.787-1.023
		c0.83-0.956,1.551-1.971,2.249-2.953c0.233-0.327,0.465-0.654,0.697-0.973c2.595-3.534,4.721-7.132,7.232-11.469
		c1.298-2.251,2.503-4.588,3.668-6.848l0.714-1.381c0.447-0.865,0.94-1.896,1.214-2.989c0.406-1.637,0.949-3.216,1.524-4.889
		c0.607-1.766,1.235-3.591,1.682-5.485c0.605-2.625,1.559-5.188,2.405-7.383c0.349-0.894,0.646-1.805,0.934-2.687
		c0.376-1.149,0.73-2.235,1.185-3.28c0.622-1.433,1.186-2.9,1.73-4.318c0.757-1.974,1.542-4.015,2.473-5.924
		c0.5-1.029,1.055-1.983,1.646-2.829c1.902-2.691,4.266-5.771,7.369-8.205c0.899-0.703,1.865-1.434,2.923-1.972
		c1.054-0.533,2.099-1.075,3.147-1.619c0.896-0.469,1.874-0.778,2.988-0.946c0.91-0.132,1.887-0.164,3.071-0.09
		c0.006,0.027,0.012,0.062,0.017,0.107c0.116,0.947,0.222,1.893,0.329,2.838l0.195,1.702c0.041,0.336,0.092,0.755,0.257,1.188
		c0.732,1.898,1.117,3.888,1.524,5.994c0.159,0.826,0.319,1.651,0.501,2.475c0.294,1.308,0.489,2.62,0.695,4.009
		c0.077,0.519,0.156,1.039,0.234,1.53c0.01,0.08,0.011,0.185,0.001,0.299c-0.044,0.495-0.078,0.991-0.113,1.488
		c-0.081,1.195-0.158,2.323-0.373,3.407c-0.191,0.94-0.356,1.887-0.521,2.834c-0.351,2.008-0.682,3.905-1.255,5.769
		c-0.371,1.223-0.413,2.439-0.425,3.57c-0.079,4.935,1.122,9.81,3.572,14.492c0.826,1.572,1.794,2.999,2.88,4.242
		c1.012,1.155,1.909,2.398,2.811,3.674l0.615,0.866c0.849,1.191,1.65,2.316,2.309,3.506c1.626,2.945,3.092,5.865,3.174,9.191
		c0.014,0.59,0.065,1.181,0.12,1.808c0.004,0.043,0.006,0.087,0.01,0.13c-1.963,1.522-3.993,2.426-6.33,2.827
		c-0.831,0.14-1.586,0.454-2.253,0.73l-0.453,0.186c-1.792,0.715-3.582,1.437-5.372,2.16c-1.764,0.713-3.53,1.425-5.303,2.132
		c-0.419,0.17-0.847,0.316-1.275,0.464c-0.684,0.236-1.392,0.479-2.082,0.805C74.309,126.198,73.097,126.844,71.923,127.469"/>
</g>
</svg>
