<?xml version="1.0" encoding="utf-8"?>
<!-- Generator: Adobe Illustrator 15.0.2, SVG Export Plug-In . SVG Version: 6.00 Build 0)  -->
<!DOCTYPE svg PUBLIC "-//W3C//DTD SVG 1.1//EN" "http://www.w3.org/Graphics/SVG/1.1/DTD/svg11.dtd">
<svg version="1.1" id="Layer_1" xmlns="http://www.w3.org/2000/svg" xmlns:xlink="http://www.w3.org/1999/xlink" x="0px" y="0px"
	 width="505.307px" height="597.935px" viewBox="0 0 505.307 597.935" enable-background="new 0 0 505.307 597.935"
	 xml:space="preserve">
<g>
	<defs>
		<rect id="SVGID_1_" x="-52.42" y="-123.988" width="595.276" height="841.89"/>
	</defs>
	<clipPath id="SVGID_2_">
		<use xlink:href="#SVGID_1_"  overflow="visible"/>
	</clipPath>
	<g clip-path="url(#SVGID_2_)">
		<path d="M272.283,162.951c-0.832,1.249-0.961,2.423-0.419,3.81c0.301,0.765,0.588,1.538,0.874,2.313
			c0.678,1.829,1.379,3.721,2.275,5.514c1.29,2.604,2.884,5.641,4.929,8.437c1.439,1.982,3.036,3.869,4.581,5.693
			c1.145,1.349,2.325,2.745,3.422,4.157c1.429,1.838,3.088,2.709,5.19,2.713c0.151,0.001,0.305-0.004,0.461-0.012l0.666-0.037
			l0.34-0.573c0.082-0.137,0.174-0.283,0.27-0.435c0.224-0.354,0.466-0.742,0.679-1.156c0.732-1.479,1.458-2.964,2.183-4.449
			c0.635-1.305,1.273-2.611,1.919-3.92c0.197-0.405,0.42-0.798,0.64-1.191c0.283-0.501,0.574-1.018,0.83-1.576
			c0.678-1.487,1.334-2.983,1.991-4.479c1.305-2.971,2.655-6.045,4.136-8.97c2.265-4.465,4.843-8.885,7.337-13.16l0.197-0.339
			c1.704-2.923,3.486-5.876,5.208-8.732c1.586-2.628,3.172-5.256,4.726-7.903c0.754-1.284,1.428-2.619,2.08-3.911
			c0.512-1.016,1.043-2.067,1.601-3.068c1.543-2.778,3.104-5.547,4.665-8.316c2.042-3.621,4.154-7.366,6.19-11.075
			c0.755-1.379,1.424-2.811,2.071-4.195c0.678-1.45,1.377-2.948,2.16-4.345c3.459-6.152,7.159-12.683,11.02-18.977
			c0.938-1.536,2.093-2.935,3.314-4.416c0.766-0.927,1.557-1.886,2.289-2.881c2.052-2.78,4.069-5.582,6.088-8.386
			c1.239-1.721,2.479-3.443,3.728-5.161c3.509-4.83,7.027-9.66,10.565-14.459l0.133-0.18c1.346-1.819,2.734-3.701,4.219-5.415
			c3.053-3.523,6.378-7.25,10.164-11.394c3.364-3.694,7.489-7.852,12.56-10.693c2.137-1.195,3.947-2.119,5.828-2.741
			c2.716-0.896,5.546-1.512,8.195-2.043c3.129-0.62,6.326-1.191,9.42-1.743c1.863-0.333,3.728-0.666,5.592-1.012
			c0.782-0.145,1.548-0.37,2.192-0.57l1.08-0.327c1.157-0.348,2.354-0.707,3.521-1.164c1.775-0.698,3.662-1.531,5.771-2.546
			c1.568-0.759,2.271-1.869,2.092-3.285c-0.263-2.273-1.618-3.183-2.713-3.548c-0.218-0.071-0.433-0.154-0.648-0.235
			c-0.549-0.208-1.17-0.444-1.846-0.54c-0.845-0.121-1.694-0.191-2.517-0.258c-1.389-0.114-2.701-0.222-3.933-0.556
			c-4.184-1.132-8.386-0.988-12.447-0.849l-0.289,0.01c-1.331,0.041-2.641-0.066-4.03-0.179c-1.469-0.121-2.985-0.245-4.55-0.18
			c-4.808,0.199-9.028,1.64-12.903,4.406c-3.621,2.589-6.63,4.83-9.534,7.35c-7.634,6.571-15.603,12.991-23.076,18.95l-1.165,0.93
			c-5.784,4.616-11.766,9.389-16.987,14.908c-1.239,1.313-2.498,2.61-3.756,3.907c-2.486,2.565-5.056,5.217-7.46,7.953
			c-2.429,2.763-4.725,5.699-6.946,8.539c-0.84,1.075-1.681,2.15-2.529,3.219c-0.732,0.923-1.473,1.842-2.21,2.76
			c-1.936,2.407-3.936,4.897-5.801,7.441c-1.938,2.638-3.85,5.359-5.697,7.99c-1.978,2.814-4.022,5.725-6.097,8.53
			c-1.282,1.736-2.637,3.471-3.946,5.15c-2.457,3.147-4.997,6.401-7.231,9.861c-1.992,3.084-4.359,6.038-6.646,8.894
			c-1.052,1.311-2.101,2.622-3.125,3.955l-0.673,0.876c-0.785,1.023-1.6,2.082-2.356,3.17l-0.938,1.338
			c-1.544,2.204-3.141,4.483-4.588,6.815c-1.325,2.129-2.441,4.357-3.564,6.641c-2.828,5.743-5.38,11.03-7.805,16.164
			c-0.281,0.599-0.413,1.235-0.53,1.796C272.604,162.112,272.494,162.633,272.283,162.951 M324.629,90.127
			c0.159-0.215,0.3-0.447,0.438-0.68c0.102-0.171,0.201-0.344,0.33-0.513c0.946-1.259,1.888-2.524,2.831-3.788
			c2.438-3.273,4.962-6.658,7.513-9.919l1.071-1.367c3.408-4.358,6.931-8.864,10.625-13.071c5.024-5.701,9.684-10.627,14.246-15.06
			c2.144-2.083,4.586-3.979,6.946-5.812c1.219-0.946,2.479-1.924,3.694-2.926c2.349-1.931,4.686-3.878,7.022-5.824
			c2.322-1.934,4.644-3.867,6.972-5.784c1.574-1.288,3.164-2.558,4.754-3.827c2.982-2.38,6.065-4.841,8.993-7.401
			c3.271-2.876,6.857-5.323,10.245-7.54c2.245-1.465,4.661-2.173,7.21-2.08c1.63,0.054,3.298,0.166,4.912,0.274
			c1.299,0.087,2.599,0.174,3.892,0.234c0.801,0.041,1.582,0.009,2.34-0.022c0.439-0.017,0.877-0.036,1.32-0.038
			c0.453-0.006,0.909-0.024,1.364-0.042c1.037-0.043,2.017-0.082,2.953,0.041c3.446,0.445,6.928,1.04,10.29,1.614
			c0.134,0.023,0.273,0.064,0.423,0.117c-0.654,0.505-1.375,0.791-2.082,1.017c-4.112,1.302-8.162,2.494-12.489,2.786
			c-1.97,0.127-3.88,0.665-5.728,1.186c-0.555,0.157-1.108,0.313-1.66,0.457c-1.063,0.276-2.13,0.541-3.198,0.806
			c-3.235,0.804-6.579,1.635-9.787,2.779c-2.329,0.833-4.444,2.17-6.491,3.464c-0.474,0.299-0.946,0.599-1.42,0.89
			c-3.726,2.288-6.696,5.414-9.568,8.438c-0.927,0.974-1.854,1.949-2.803,2.894c-1.996,1.979-3.809,4.166-5.563,6.28l-0.652,0.785
			c-2.031,2.439-3.986,4.933-5.983,7.491l-1.219,1.571c-2.202,2.838-4.479,5.773-6.652,8.717c-0.854,1.162-1.653,2.374-2.427,3.544
			c-0.823,1.247-1.674,2.536-2.57,3.734c-1.9,2.522-3.828,5.023-5.756,7.524c-2.218,2.876-4.51,5.85-6.724,8.814
			c-0.81,1.087-1.475,2.258-2.117,3.392c-0.468,0.827-0.91,1.607-1.407,2.362c-4.181,6.384-7.79,13.202-11.281,19.796l-0.915,1.727
			c-1.224,2.309-2.42,4.675-3.578,6.961c-1.63,3.221-3.315,6.551-5.088,9.752c-1.837,3.33-3.832,6.659-5.762,9.877
			c-1.368,2.283-2.782,4.644-4.135,6.993c-1.581,2.755-3.141,5.58-4.647,8.314c-1.313,2.38-2.625,4.76-3.969,7.124
			c-1.174,2.069-2.425,4.151-3.633,6.165c-0.613,1.023-1.229,2.046-1.825,3.055c-0.362,0.589-0.709,1.17-1.002,1.816l-0.211,0.478
			c-2.962,6.689-6.022,13.606-9.573,20.137c-0.356,0.666-0.673,1.345-1.002,2.063c-0.706-0.569-1.368-1.113-1.854-1.718
			c-2.942-3.646-5.459-6.916-7.687-9.994c-2.674-3.7-4.717-7.81-6.069-12.209c-0.147-0.494-0.097-1.27,0.133-2.025
			c2.147-6.889,5.561-13.303,8.871-19.282c2.485-4.479,4.646-8.19,7.108-11.737c1.831-2.633,3.876-5.202,5.853-7.688
			c1.159-1.454,2.316-2.91,3.442-4.386c1.203-1.575,2.38-3.203,3.516-4.778c0.76-1.051,1.52-2.103,2.289-3.143
			c1.267-1.701,2.537-3.399,3.811-5.097c1.779-2.378,3.562-4.756,5.326-7.142C319.454,97.186,322.042,93.658,324.629,90.127"/>
		<path d="M503.447,585.651c-1.703-1.245-3.36-2.144-4.934-2.667c-6.799-2.231-12.362-5.425-17.005-9.766l-1.017-0.941
			c-1.433-1.324-2.914-2.693-4.233-4.13c-1.228-1.337-2.412-2.779-3.558-4.174c-0.696-0.85-1.395-1.698-2.108-2.535
			c-0.951-1.115-1.914-2.222-2.878-3.328c-1.339-1.536-2.679-3.073-3.984-4.635c-0.709-0.852-1.404-1.758-2.077-2.634
			c-1.05-1.367-2.135-2.781-3.346-4.093c-1.365-1.461-2.567-2.802-3.431-4.423l-1.314-2.458c-3.676-6.874-7.477-13.98-11.38-20.885
			c-1.659-2.939-3.514-5.804-5.308-8.574c-0.827-1.279-1.654-2.557-2.465-3.842l-1.765-2.814c-1.528-2.431-3.056-4.861-4.555-7.306
			c-0.938-1.54-1.853-3.094-2.765-4.646c-1.059-1.8-2.115-3.597-3.208-5.372c-1.243-2.017-2.509-4.02-3.774-6.021
			c-1.413-2.235-2.825-4.469-4.207-6.724c-0.405-0.661-0.75-1.374-1.113-2.129c-0.366-0.759-0.744-1.542-1.201-2.298
			c-1.443-2.396-2.907-4.781-4.371-7.167c-2.124-3.464-4.32-7.045-6.414-10.596c-0.884-1.501-1.687-3.112-2.464-4.67
			c-0.726-1.459-1.478-2.966-2.308-4.415c-1.608-2.815-3.283-5.649-4.904-8.39c-2.172-3.671-4.418-7.467-6.516-11.252
			c-2.862-5.153-6.181-10.085-9.392-14.855c-0.973-1.445-1.946-2.892-2.907-4.345c-0.718-1.081-1.451-2.149-2.187-3.217
			c-1.352-1.967-2.751-4-3.982-6.059c-3.521-5.895-7.333-12.133-11.82-17.895c-0.265-0.338-0.506-0.732-0.76-1.15
			c-0.113-0.188-0.229-0.376-0.346-0.56c-0.298-0.472-0.59-0.946-0.881-1.421c-0.662-1.079-1.347-2.194-2.107-3.254
			c-2.885-4.037-5.878-8.155-9.155-12.587c-0.693-0.937-1.429-1.846-2.142-2.725c-0.678-0.837-1.355-1.673-2.001-2.54
			c-0.749-1-1.466-2.026-2.181-3.051c-1.236-1.771-2.514-3.599-3.953-5.285c-6.896-8.065-12.837-15.386-18.156-22.385
			c-2.962-3.884-6.205-6.906-9.921-9.241c0,0-0.574-0.245-1.332,0.001c-0.197,0.063-0.509,0.339-0.759,0.516
			c-0.434,0.307-0.845,0.596-1.238,0.756c-4.486,1.781-8.026,4.844-11.45,7.805c-0.8,0.69-1.599,1.381-2.409,2.056
			c-0.537,0.447-0.992,0.964-1.326,1.36l-1.705,2.005c-2.08,2.444-4.23,4.971-6.301,7.506c-2.357,2.89-4.437,5.535-6.015,8.632
			c-0.679,1.338-1.385,2.661-2.09,3.983c-0.492,0.926-0.985,1.85-1.47,2.779l-1.665,3.198c-1.664,3.192-3.385,6.494-5.021,9.775
			c-0.452,0.908-0.821,1.848-1.179,2.756c-0.4,1.021-0.778,1.985-1.261,2.894c-1.51,2.861-1.216,5.406,0.874,7.563v0.001
			c2.013,2.072,4.08,4.015,6.147,5.775c1.013,0.859,2.088,1.646,3.129,2.406c1.154,0.845,2.245,1.642,3.268,2.537
			c5.835,5.086,10.662,9.366,15.214,14.271c4.315,4.649,8.86,9.216,13.257,13.631c1.509,1.517,3.019,3.033,4.519,4.553
			c0.786,0.8,1.608,1.569,2.404,2.314c0.648,0.605,1.299,1.213,1.931,1.839c1.025,1.011,2.031,2.041,3.035,3.07
			c0.597,0.611,1.192,1.224,1.797,1.833c0.323,0.324,0.662,0.634,1.001,0.943c0.31,0.282,0.62,0.564,0.908,0.854
			c3.99,4.068,8.487,7.388,13.134,10.711c3.352,2.387,6.89,4.958,10.086,7.816c1.863,1.66,3.661,3.491,5.399,5.264
			c1.885,1.922,3.836,3.908,5.904,5.719c3.024,2.652,5.736,5.771,8.533,9.817c1.651,2.396,3.849,5.54,6.2,8.595
			c1.452,1.896,3.016,3.744,4.528,5.531c0.53,0.627,1.062,1.254,1.589,1.884c0.692,0.829,1.382,1.661,2.073,2.494
			c1.877,2.266,3.817,4.607,5.798,6.848c1.271,1.44,2.61,2.841,3.907,4.195c1.188,1.239,2.414,2.522,3.572,3.818
			c2.981,3.322,5.979,6.738,8.877,10.042c1.466,1.671,2.934,3.343,4.403,5.01l2.369,2.685c2.744,3.11,5.488,6.223,8.264,9.307
			c4.431,4.913,8.411,8.551,12.526,11.444c1.451,1.018,2.855,2.197,4.215,3.338c0.558,0.469,1.118,0.939,1.681,1.399
			c0.338,0.276,0.661,0.577,0.986,0.876c0.68,0.63,1.385,1.279,2.23,1.777c3.138,1.865,6.033,4.213,8.61,6.979
			c0.79,0.845,1.385,1.986,1.929,3.09c0.931,1.859,1.596,3.406,2.094,4.869c0.314,0.923,0.563,1.864,0.823,2.862
			c0.326,1.237,0.664,2.519,1.139,3.756l0.077,0.202c0.986,2.571,2.007,5.232,3.524,7.588c2.019,3.115,5.396,4.656,8.43,5.751
			c1.3,0.475,2.625,0.907,3.907,1.325c1.32,0.431,2.688,0.876,4.008,1.362c1.018,0.37,1.996,0.813,3.033,1.282
			c0.729,0.33,1.458,0.66,2.197,0.962c3.498,1.427,6.248,2.949,8.652,4.785c1.337,1.024,2.91,1.82,4.435,2.241
			c1.658,0.455,3.346,0.683,5.062,0.687c2.871,0.006,5.814-0.618,8.796-1.872c1.692-0.711,3.48-1.492,5.089-2.53
			c1.621-1.049,1.984-2.195,2.007-2.976C505.326,587.964,505.021,586.792,503.447,585.651 M293.669,402.041
			c-0.894-0.91-1.759-1.902-2.595-2.863c-1.076-1.237-2.188-2.516-3.413-3.682c-4.065-3.854-8.562-7.968-14.153-12.949
			c-0.983-0.871-2.044-1.64-3.069-2.383c-0.928-0.673-1.804-1.308-2.626-2.011c-1.129-0.972-2.168-2.027-3.267-3.146
			c-0.479-0.484-0.955-0.97-1.444-1.451l-1.819-1.781c0.388-0.98,0.765-1.967,1.142-2.956c1.023-2.683,2.082-5.458,3.354-8.04
			c2.418-4.885,5.206-10.046,9.042-16.733c1.3-2.274,2.971-4.641,5.106-7.235l0.807-0.985c2.6-3.171,5.287-6.451,8.267-9.259
			c3.74-3.52,7.971-7.5,13.877-9.163c0.672,0.298,1.299,1.034,1.959,1.808c0.361,0.424,0.735,0.863,1.149,1.272
			c1.997,1.984,3.834,4.115,5.523,6.123c0.549,0.649,1.038,1.359,1.555,2.111c0.472,0.688,0.961,1.397,1.512,2.078
			c1.02,1.248,2.065,2.476,3.111,3.703c1.306,1.532,2.656,3.116,3.921,4.71c2.648,3.326,5.299,6.746,7.862,10.053
			c1.147,1.481,2.297,2.964,3.448,4.441c0.679,0.872,1.361,1.738,2.044,2.604c1.407,1.783,2.861,3.629,4.234,5.48
			c1.158,1.547,2.285,3.173,3.374,4.745c0.613,0.886,1.228,1.772,1.848,2.646c0.264,0.375,0.545,0.733,0.827,1.093
			c0.302,0.382,0.603,0.763,0.872,1.168c0.758,1.131,1.497,2.281,2.237,3.43l1.666,2.594c0.551,0.868,1.104,1.738,1.678,2.599
			c1.732,2.585,3.469,5.169,5.204,7.753c1.822,2.713,3.646,5.426,5.462,8.14c0.875,1.307,1.707,2.686,2.514,4.019
			c1.474,2.441,2.998,4.967,4.899,7.261c1.049,1.262,1.911,2.677,2.825,4.175c0.382,0.629,0.766,1.257,1.163,1.873
			c0.521,0.807,1.047,1.613,1.573,2.419c1.405,2.152,2.859,4.376,4.18,6.61c0.928,1.573,1.861,3.145,2.795,4.717
			c3.396,5.715,6.907,11.625,10.038,17.597c3.324,6.332,6.86,12.429,9.882,17.559c0.415,0.698,0.832,1.396,1.251,2.092
			c0.688,1.144,1.374,2.288,2.044,3.449c0.781,1.337,1.551,2.684,2.32,4.028c0.651,1.142,1.304,2.282,1.963,3.417l0.168,0.29
			c0.892,1.533,1.816,3.119,2.785,4.657c1.367,2.162,2.749,4.318,4.13,6.473c1.848,2.885,3.696,5.77,5.512,8.668
			c0.771,1.242,1.508,2.548,2.22,3.812c0.786,1.395,1.602,2.837,2.479,4.229c1.901,3.009,3.887,6.029,5.807,8.95
			c0.94,1.431,1.881,2.86,2.82,4.303c0.393,0.591,0.79,1.232,1.222,1.969l1.064,1.788c1.173,1.961,2.384,3.989,3.513,6.016
			c1.354,2.409,2.688,4.887,3.978,7.282l1.382,2.561c0.771,1.433,1.542,2.868,2.311,4.307l2.143,3.975
			c0.554,1.009,1.107,2.018,1.628,3.035c0.938,1.846,2.336,3.211,3.687,4.529c0.9,0.878,1.749,1.705,2.449,2.652
			c1.332,1.797,2.834,3.474,4.287,5.095c0.696,0.778,1.393,1.557,2.077,2.353l0.078,0.089c1.046,1.206,2.128,2.452,3.149,3.71
			c0.573,0.703,1.132,1.42,1.692,2.138c1.038,1.329,2.11,2.703,3.278,3.984c1.42,1.559,3.056,2.916,4.638,4.227l0.087,0.073
			c4.203,3.496,7.906,6.021,11.65,7.943c1.316,0.68,2.697,1.229,4.034,1.759c0.935,0.372,1.9,0.755,2.813,1.173
			c0.814,0.372,1.614,0.841,2.456,1.339c-0.608,0.39-1.305,0.618-2.065,0.868c-0.337,0.112-0.671,0.224-0.995,0.345
			c-4.814,1.831-8.729,1.978-12.321,0.458c-0.779-0.327-1.522-0.824-2.31-1.351c-0.669-0.448-1.36-0.91-2.116-1.292
			c-1.463-0.74-2.965-1.442-4.419-2.121c-1.6-0.747-3.253-1.519-4.831-2.333c-3.015-1.558-6.13-2.69-9.265-3.372
			c-5.424-1.168-8.847-4.598-10.774-10.799c-1.646-5.233-3.154-9.404-4.747-13.13c-0.839-1.94-2.306-3.515-3.724-5.036l-0.387-0.416
			c-1.796-1.94-3.947-3.383-6.027-4.778c-1.132-0.759-2.304-1.545-3.37-2.384c-1.064-0.839-2.146-1.659-3.227-2.479
			c-2.173-1.646-4.419-3.349-6.455-5.182c-3.87-3.48-7.751-7.279-11.533-11.294c-2.089-2.206-4.099-4.576-6.043-6.867
			c-1.267-1.494-2.535-2.988-3.835-4.454c-5.216-5.886-10.074-11.31-14.853-16.581c-5.726-6.329-10-11.279-13.862-16.051
			c-3.271-4.026-6.372-8.288-9.372-12.409c-1.299-1.786-2.599-3.571-3.916-5.347c-1.473-1.979-3.249-3.716-4.968-5.396
			c-0.458-0.447-0.916-0.895-1.402-1.381c-3.051-3.043-6.203-6.188-9.436-9.153c-3.297-3.02-6.104-5.405-8.836-7.508
			c-1.866-1.434-3.823-2.788-5.716-4.099c-1.527-1.056-3.106-2.147-4.615-3.268c-1.727-1.28-3.363-2.809-4.738-4.137
			c-2.269-2.184-4.529-4.453-6.716-6.647l-5.19-5.202C302.805,411.269,298.176,406.631,293.669,402.041"/>
		<path d="M265.805,161.034l0.453-0.76l-0.567-0.68c-0.559-0.668-1.087-1.34-1.605-1.999c-1.2-1.525-2.334-2.966-3.709-4.245
			c-2.385-2.219-3.647-5.095-4.572-7.62c-0.867-2.34-1.442-4.882-1.998-7.341c-0.167-0.734-0.333-1.469-0.506-2.198
			c-0.094-0.399-0.065-0.916,0.069-1.2c0.44-0.942,1.042-1.903,1.734-2.782c2.677-3.379,4.865-7.301,6.694-11.998
			c0.047-0.126,0.091-0.261,0.136-0.4c0.034-0.103,0.08-0.248,0.118-0.34c1.512-0.99,2.406-2.356,3.271-3.678
			c0.417-0.637,0.811-1.237,1.254-1.767c2.027-2.387,2.941-5.173,3.825-7.868l0.364-1.104c0.665-1.976,1.036-4.035,1.396-6.025
			c0.179-0.987,0.356-1.975,0.57-2.95c1.174-5.336,0.316-10.57-0.515-15.635c-0.932-5.595-2.901-10.985-5.853-16.021
			c-1.927-3.281-3.623-6.801-5.262-10.204c-0.679-1.407-1.357-2.816-2.056-4.218c-1.233-2.462-1.593-5.169-1.07-8.045
			c0.932-5.03,1.805-10.41,1.352-16.013c-0.277-3.532-1.048-7.507-4.647-10.202c-2.099-1.57-4.392-2.914-6.353-4.019
			c-2.512-1.427-4.974-2.173-7.311-2.217c-1.84-0.049-3.777-0.036-5.448,0.68c-2.878,1.236-5.913,2.72-8.61,5.188
			c-6.157,5.624-8.518,11.843-7.216,19.011c1.173,6.463-0.026,12.733-3.562,18.633c-1.247,2.064-2.702,4.087-4.109,6.042
			c-0.703,0.976-1.406,1.952-2.088,2.937c-3.329,4.797-5.493,8.922-6.81,12.987l-0.291,0.898c-0.993,3.064-2.021,6.232-2.229,9.591
			c-0.199,3.255-0.208,5.89-0.026,8.288c0.418,5.785,3.096,10.771,5.385,14.473l0.282,0.454c0.769,1.242,1.564,2.527,2.624,3.621
			c2.599,2.676,5.358,5.217,7.473,7.133l0.467,0.42c2.057,1.849,3.999,3.596,5.135,6.143c1.44,3.279,3.208,5.766,5.402,7.6
			c1.095,0.92,2.259,1.904,3.404,2.931c0.598,0.536,0.828,0.789,0.862,1.314c0.274,4.188-0.111,7.349-1.25,10.248l-0.35,0.894
			c-1.694,4.331-3.294,8.422-6.18,11.895c-0.443,0.539-0.774,1.115-1.095,1.672l-0.169,0.292c-1.425,2.407-0.934,4.855,1.279,6.384
			c4.719,3.299,10.188,4.645,14.919,5.525c0.322,0.061,0.646,0.128,0.969,0.196c1.018,0.212,2.069,0.431,3.172,0.433
			c0.022,0,0.045,0,0.067,0c4.18-0.046,8.309-1.259,12.992-3.814C260.33,169.231,263.049,165.665,265.805,161.034 M229.021,167.018
			c-0.739-0.368-1.474-0.806-2.324-1.312c-0.105-0.063-0.21-0.126-0.317-0.189l2.476-3.536c0.079-0.109,0.165-0.215,0.249-0.32
			c0.226-0.283,0.482-0.603,0.675-0.986l0.486-0.932c2.165-4.143,4.405-8.428,5.476-13.204c0.29-1.324,0.366-2.669,0.438-3.971
			l0.028-0.47c0.041-0.671,0.043-1.338,0.035-2.031c4.655,1.663,8.952,1.279,13.052-1.157c0.223,0.815,0.433,1.593,0.58,2.375
			c0.977,5.025,2.63,9.221,5.054,12.829c0.733,1.089,1.568,2.096,2.376,3.068c0.461,0.554,0.921,1.108,1.363,1.679
			c0.555,0.714,1.081,1.446,1.611,2.184l0.19,0.263c-2.037,2.637-3.909,4.785-6.578,6.3c-4.884,2.791-9.682,3.614-14.662,2.512
			l-0.523-0.117C235.429,169.272,232.039,168.517,229.021,167.018 M217.928,102.502c2.674-2.005,5.646-3.079,8.833-3.19
			c2.138-0.077,4.337-0.053,6.464-0.031c0.94,0.011,1.88,0.021,2.818,0.023l1.25,0.003l0.001-0.092
			c0.557,0.008,1.116,0.021,1.674,0.033c2.287,0.049,4.65,0.099,6.992-0.098c2.682-0.222,5.276-1.03,7.241-1.709
			c1.999-0.696,4.053-0.577,6.231-0.447l0.133,0.008c1.393,0.083,2.786,0.475,4.335,0.94c0.316,0.095,0.401,0.12,0.25,0.732
			c-1.379,5.533-2.934,11.407-5.409,17.038c-0.4,0.914-0.766,1.842-1.132,2.77c-0.413,1.052-0.84,2.139-1.309,3.162
			c-1.146,2.469-2.547,5.293-4.682,7.545c-0.694,0.732-1.204,1.548-1.697,2.337c-0.548,0.875-1.064,1.702-1.782,2.338
			c-2.303,2.032-5.017,2.7-8.534,2.114c-2.795-0.463-4.983-2.222-7.3-4.084l-0.14-0.112c-3.139-2.537-5.047-5.904-7.068-9.468
			c-0.437-0.77-0.874-1.541-1.324-2.303c-2.484-4.216-4.559-8.914-6.531-14.794C216.646,103.463,216.646,103.463,217.928,102.502"/>
		<path d="M43.488,10.704c0.176,0.078,0.351,0.156,0.515,0.236c1.121,0.554,2.279,1.034,3.4,1.498c0.555,0.23,1.11,0.46,1.664,0.7
			l4.667,2.014c4.299,1.857,8.596,3.713,12.903,5.537c3.561,1.509,6.223,3.273,8.139,5.397c1.886,2.082,3.594,4.435,5.245,6.711
			c0.691,0.953,1.384,1.907,2.095,2.852c0.209,0.276,0.402,0.564,0.594,0.852c0.253,0.377,0.506,0.752,0.78,1.102
			c1.076,1.382,2.172,2.751,3.268,4.119c2.202,2.75,4.479,5.594,6.531,8.497c1.418,2.006,2.711,4.176,3.961,6.276
			c1.114,1.871,2.266,3.806,3.521,5.652c2.548,3.742,5.262,7.454,7.887,11.042c0.916,1.253,1.832,2.505,2.742,3.761
			c1.285,1.77,2.584,3.53,3.882,5.29c2.024,2.74,4.115,5.575,6.109,8.398c2.511,3.56,5.088,7.388,8.357,12.41
			c0.939,1.443,1.818,2.982,2.667,4.471c0.502,0.879,1.004,1.758,1.521,2.625c1.075,1.81,2.156,3.618,3.237,5.425
			c1.333,2.228,2.665,4.454,3.987,6.691c0.97,1.629,1.926,3.267,2.883,4.904c1.39,2.38,2.827,4.842,4.287,7.242
			c1.639,2.693,3.353,5.403,5.012,8.023c0.915,1.447,1.831,2.894,2.739,4.346c0.652,1.042,1.324,2.074,1.998,3.106
			c1.513,2.322,3.078,4.723,4.339,7.187c3.169,6.173,7.456,11.61,11.602,16.868l0.329,0.418c2.058,2.625,4.245,5.204,6.358,7.697
			c0.69,0.814,1.38,1.627,2.067,2.445c0.548,0.65,1.13,1.277,1.714,1.905c1.061,1.14,2.063,2.218,2.841,3.419
			c2.065,3.185,4.831,5.605,7.507,7.945l0.46,0.402c0.748,0.657,1.555,1.292,2.514,1.294c0.078,0,0.157-0.004,0.236-0.013
			c0.961-0.101,1.642-0.771,2.367-1.746c2.346-3.145,4.646-6.54,6.833-10.096c2.433-3.935,4.07-8.536,4.871-13.675
			c0.203-1.302,0.311-2.618,0.416-3.89c0.119-1.437,0.231-2.794,0.466-4.139c0.292-1.629,0.03-3.119-0.822-4.686
			c-3.997-7.408-9.225-14.004-14.279-20.031l-1.688-2.013c-3.126-3.733-6.359-7.592-9.631-11.323
			c-2.054-2.337-4.013-4.844-5.91-7.27c-2.851-3.648-5.799-7.42-9.176-10.769c-0.063-0.064-0.13-0.126-0.197-0.187
			c-0.041-0.037-0.085-0.074-0.071-0.033c-0.922-1.759-2.242-3.12-3.519-4.435c-0.913-0.94-1.776-1.828-2.477-2.833
			c-0.832-1.192-1.745-2.335-2.627-3.441c-0.875-1.094-1.779-2.227-2.577-3.378c-1.238-1.778-2.454-3.63-3.629-5.419
			c-1.618-2.466-3.291-5.014-5.07-7.444c-2.351-3.212-4.956-6.281-7.475-9.25l-1.176-1.388c-0.788-0.931-1.573-1.865-2.358-2.799
			c-3.257-3.874-6.623-7.88-10.142-11.643c-4.438-4.757-9.062-9.469-13.533-14.025c-1.874-1.91-3.748-3.819-5.611-5.735
			c-1.178-1.213-2.339-2.426-3.503-3.643l-1.122-1.172c-0.51-0.531-1.029-1.056-1.55-1.58c-1.068-1.079-2.173-2.195-3.163-3.349
			c-3.047-3.548-6.089-7.214-9.032-10.759L91.9,16.38c-0.701-0.843-1.389-1.701-2.077-2.56c-1.136-1.416-2.31-2.881-3.547-4.277
			c-1.833-2.044-3.911-4.362-7.67-4.37c-2.303-0.005-4.667-0.172-6.953-0.334c-1.935-0.136-3.936-0.278-5.919-0.324
			c-3.921-0.093-7.899-0.08-11.748-0.072c-1.26,0.004-2.519,0.007-3.779,0.007l0.001-0.239l-1.25-0.003
			c-0.391,0-0.782-0.006-1.175-0.012c-0.886-0.012-1.802-0.026-2.714,0.016c-1.736,0.078-3.171,0.607-3.937,1.451
			c-0.429,0.473-0.639,1.033-0.608,1.629C40.661,9.452,42.363,10.205,43.488,10.704 M52.736,8.847l2.412,0.046
			c3.674,0.069,7.472,0.141,11.209,0.273c2.55,0.087,5.147,0.224,7.66,0.357c1.502,0.079,3.002,0.158,4.505,0.228
			c1.415,0.065,2.59,0.762,3.929,2.332c2.567,3.018,5.141,6.122,7.63,9.123c1.278,1.542,2.557,3.084,3.843,4.625
			c0.476,0.568,0.949,1.139,1.421,1.711c1.396,1.687,2.838,3.432,4.354,5.076c3.911,4.239,7.83,8.332,11.483,12.125
			c1.78,1.846,3.575,3.676,5.371,5.506c2.449,2.497,4.981,5.078,7.424,7.654c3.271,3.446,7.107,7.539,10.768,11.773
			c3.946,4.543,7.75,9.236,10.95,13.227c4.164,5.177,7.842,9.896,10.69,15.231c0.852,1.591,1.993,2.993,3.097,4.35
			c0.519,0.638,1.039,1.277,1.527,1.935c1.995,2.685,4.276,5.151,6.482,7.535c2.411,2.608,4.904,5.305,6.975,8.246
			c2.073,2.957,4.491,5.708,6.829,8.369c1.198,1.363,2.436,2.773,3.604,4.184c1.067,1.288,2.125,2.636,3.147,3.941
			c1.021,1.302,2.042,2.604,3.092,3.876c1.149,1.403,2.363,2.783,3.536,4.118c0.552,0.629,1.106,1.257,1.653,1.89
			c3.065,3.542,6.235,7.205,8.507,11.469c0.321,0.603,0.762,1.1,1.15,1.539c0.154,0.174,0.309,0.348,0.448,0.521
			c1.079,1.365,1.631,2.84,1.793,4.781c0.386,4.717-0.439,9.586-2.675,15.787c-1.277,3.54-3.073,6.781-5.334,9.635
			c-0.369,0.463-0.693,0.944-1.006,1.41c-0.314,0.467-0.609,0.906-0.941,1.318c-0.288,0.362-0.619,0.703-1.018,1.1
			c-0.82-0.914-1.707-1.689-2.572-2.447c-1.399-1.223-2.719-2.378-3.505-3.946c-0.411-0.803-0.967-1.613-1.652-2.41
			c-1.134-1.316-2.288-2.616-3.44-3.916c-2.131-2.403-4.332-4.887-6.355-7.419c-3.699-4.635-7.181-9.39-11.027-14.683
			c-0.564-0.77-1.005-1.655-1.472-2.592c-0.35-0.702-0.712-1.428-1.143-2.131c-1.786-2.896-3.588-5.786-5.392-8.676
			c-2.292-3.672-4.584-7.345-6.843-11.037c-2.904-4.743-5.792-9.622-8.585-14.341l-0.96-1.622c-1.013-1.716-2.002-3.446-2.989-5.176
			c-1.793-3.141-3.648-6.389-5.632-9.5c-0.956-1.498-1.897-3.009-2.837-4.52c-3.154-5.066-6.415-10.305-10.274-15.074
			c-3.032-3.73-5.93-7.549-8.616-11.353c-0.675-0.952-1.351-1.903-2.028-2.853c-3.59-5.037-7.302-10.245-10.505-15.677
			c-2.331-3.957-5.122-7.706-7.821-11.332c-0.806-1.082-1.611-2.165-2.406-3.254c-0.825-1.126-1.679-2.23-2.534-3.334
			c-1.826-2.358-3.713-4.796-5.229-7.402c-0.556-0.956-1.281-1.752-1.981-2.522c-0.556-0.611-1.082-1.189-1.486-1.801
			c-3.135-4.798-7.973-7.043-12.31-8.791c-4.175-1.688-8.491-3.435-12.633-5.334c-1.395-0.643-2.771-1.38-4.186-2.168
			C51.477,8.831,52.106,8.836,52.736,8.847"/>
		<path d="M230.646,366.873c-2.304-7.283-5.955-13.857-8.878-18.771c-1.984-3.343-4.19-6.606-6.324-9.762
			c-0.653-0.967-1.307-1.933-1.954-2.901c-0.922-1.383-1.913-2.733-2.871-4.039c-0.35-0.475-0.698-0.952-1.048-1.433
			c-0.496-0.681-0.986-1.367-1.476-2.056c-1.26-1.769-2.563-3.598-3.99-5.304c-1.223-1.454-2.593-2.789-3.917-4.081
			c-0.558-0.543-1.114-1.085-1.662-1.638c-2.186-2.196-3.789-2.29-6.117-0.374c-0.312,0.25-0.544,0.526-0.748,0.771
			c-0.068,0.083-0.138,0.166-0.206,0.242c-1.727,1.896-3.47,3.777-5.213,5.659c-3.933,4.25-8,8.642-11.825,13.135
			c-1.287,1.51-2.583,3.012-3.88,4.515c-3.338,3.866-6.789,7.864-10.016,11.962c-5.339,6.768-12.238,15.83-18.248,25.904
			c-3.164,5.313-6.668,10.565-10.056,15.645c-1.147,1.719-2.293,3.436-3.428,5.159c-1.144,1.731-2.351,3.473-3.519,5.155
			c-1.294,1.864-2.632,3.793-3.898,5.733c-2.247,3.44-4.629,7.16-6.825,11.042c-1.495,2.633-2.947,5.344-4.351,7.966
			c-1.478,2.759-3.006,5.614-4.581,8.369c-1.623,2.825-3.397,5.644-5.113,8.37c-0.918,1.457-1.835,2.914-2.736,4.381
			c-0.794,1.291-1.577,2.593-2.36,3.896c-0.777,1.294-1.555,2.588-2.347,3.875c-0.88,1.435-1.778,2.859-2.676,4.285
			c-0.8,1.271-1.6,2.539-2.393,3.824c-0.469,0.769-0.92,1.548-1.371,2.327c-0.727,1.257-1.48,2.558-2.293,3.769
			c-1.458,2.168-2.998,4.349-4.486,6.456c-0.967,1.369-1.934,2.738-2.887,4.114c-3.143,4.541-5.665,9.319-7.716,13.393
			c-2.168,4.284-4.51,8.582-6.773,12.737c-1.015,1.862-2.03,3.726-3.032,5.592c-0.277,0.512-0.52,1.032-0.767,1.562l-0.096,0.204
			c-0.686,1.448-1.359,2.898-2.033,4.351c-1.409,3.038-2.866,6.181-4.41,9.202c-1.407,2.751-2.981,5.496-4.503,8.15
			c-0.665,1.161-1.332,2.322-1.989,3.493c-0.604,1.074-1.206,2.151-1.807,3.23c-1.462,2.624-2.976,5.338-4.505,7.964
			c-0.77,1.313-1.602,2.63-2.406,3.906c-1.25,1.985-2.544,4.038-3.672,6.157c-1.658,3.12-3.621,6.132-6.004,9.208
			c-2.908,3.751-6.208,7.141-9.803,10.072c-1.22,0.991-2.774,1.905-4.622,2.718c-4.231,1.863-8.022,4.377-11.495,6.82
			c-1.157,0.825-1.548,1.856-1.194,3.158c0.404,1.464,1.281,2.295,2.611,2.472c1.254,0.162,2.516,0.333,3.362,0.454l0.133,0.021
			l0.135-0.01c0.355-0.026,0.662-0.039,0.938-0.052c0.572-0.024,1.067-0.046,1.573-0.16c2.939-0.636,5.863-0.889,8.959-1.157
			l1.532-0.134c5.212-0.459,9.952-2.465,14.091-5.964c2.79-2.361,6.091-5.014,9.976-6.594c3.038-1.229,6.904-3.106,9.874-6.728
			c2.893-3.557,4.569-7.353,5.124-11.608c0.72-5.577,2.189-9.716,4.626-13.029c3.134-4.252,6.719-8.071,10.126-11.567
			c2.281-2.351,4.714-4.645,7.068-6.861c2.152-2.031,4.38-4.13,6.503-6.283c0.511-0.518,1.029-1.03,1.546-1.544
			c2.189-2.168,4.453-4.41,6.265-7.137c0.974-1.472,2.273-2.749,3.648-4.101c0.795-0.781,1.617-1.59,2.377-2.444
			c3.967-4.446,7.947-9.009,11.797-13.422l1.003-1.151c0.86-0.982,1.737-1.95,2.614-2.917c3.108-3.424,6.323-6.964,8.654-11.275
			c1.108-2.049,2.284-4.116,3.423-6.114c1.416-2.488,2.881-5.062,4.243-7.649c1.712-3.235,4.494-5.948,7.184-8.57
			c0.474-0.464,0.948-0.925,1.415-1.39c1.257-1.251,2.668-2.332,4.161-3.476c0.617-0.474,1.235-0.946,1.838-1.43
			c1.837-1.467,3.587-3.068,5.279-4.618c2.785-2.554,5.664-5.192,8.921-7.182c0.202-0.125,0.35-0.271,0.52-0.436l2.482-2.117
			c1.968-1.674,3.934-3.347,5.874-5.054c3.198-2.802,7.412-6.507,11.645-10.337c1.952-1.762,3.901-3.583,5.785-5.346
			c1.113-1.041,2.225-2.081,3.345-3.114c2.026-1.872,4.058-3.737,6.089-5.604c3.082-2.832,6.165-5.666,9.234-8.516
			c1.132-1.053,2.239-2.135,3.347-3.218c1.048-1.024,2.096-2.051,3.164-3.046c1.139-1.051,2.299-2.082,3.461-3.11
			c1.614-1.434,3.283-2.914,4.872-4.438c1.307-1.252,2.52-2.605,3.694-3.916c0.523-0.586,1.048-1.17,1.578-1.744
			c0.508-0.544,1.011-1.092,1.514-1.641c1.138-1.239,2.316-2.523,3.521-3.729c1.248-1.259,1.682-2.675,1.291-4.201
			C231.949,371.432,231.359,369.119,230.646,366.873 M201.35,401.101c-1.482,1.525-3.016,3.104-4.592,4.563
			c-2.99,2.772-6.094,5.527-9.095,8.191c-1.948,1.729-3.897,3.459-5.832,5.208c-1.217,1.1-2.411,2.226-3.606,3.352
			c-1.176,1.109-2.352,2.219-3.551,3.305c-4.429,4.024-8.508,7.679-12.471,11.17c-1.189,1.049-2.512,2.067-4.042,3.113
			c-3.189,2.164-6.227,4.654-9.026,7.401c-2.225,2.169-4.776,4.135-7.244,6.036l-0.563,0.434c-3.301,2.559-6.418,5.638-9.533,9.417
			c-0.192,0.235-0.415,0.448-0.635,0.662c-0.157,0.153-0.314,0.308-0.461,0.46c-1.349,1.404-2.699,3.002-3.434,5.185
			c-0.965,2.893-2.515,5.463-4.154,8.184c-0.871,1.443-1.77,2.936-2.566,4.468c-2.147,4.117-5.345,7.521-8.438,10.815
			c-4.467,4.764-8.802,9.764-12.995,14.598c-1.262,1.458-2.526,2.915-3.796,4.369c-6.697,7.684-13.02,14.244-19.329,20.062
			c-4.453,4.103-8.659,8.592-12.728,12.932l-1.538,1.641c-1.973,2.104-3.313,4.684-4.515,7.146c-1.655,3.372-2.353,6.93-3.029,10.37
			c-0.18,0.916-0.361,1.834-0.559,2.748c-1.294,5.992-4.917,10.058-11.076,12.433c-3.105,1.197-5.652,2.654-7.784,4.454l-0.31,0.26
			c-1.786,1.506-3.634,3.063-5.602,4.229c-3.696,2.185-6.993,3.27-10.37,3.413c-2.739,0.104-5.521,0.482-8.266,1.122
			c-0.927,0.215-1.86,0.32-2.87,0.317c-0.004,0-0.009,0-0.013,0l0.685-0.413c2.106-1.272,4.284-2.59,6.528-3.56
			c4.367-1.887,7.632-4.843,10.511-7.758c3.292-3.334,6.016-6.535,8.332-9.789c0.175-0.248,0.354-0.494,0.533-0.739
			c0.483-0.664,0.983-1.351,1.419-2.093l2.329-3.948c3.621-6.134,7.365-12.477,10.958-18.768c1.015-1.771,1.944-3.612,2.843-5.393
			c1.174-2.326,2.387-4.729,3.777-6.938c1.936-3.079,3.465-6.364,4.945-9.54c0.773-1.659,1.572-3.374,2.412-5.022
			c1.986-3.901,4.059-7.844,6.063-11.657c0.813-1.547,1.627-3.094,2.437-4.643l1.355-2.602c1.396-2.686,2.84-5.463,4.301-8.163
			c1.001-1.864,1.877-3.32,2.756-4.582c1.118-1.61,2.266-3.199,3.415-4.788c1.394-1.931,2.837-3.927,4.201-5.932
			c0.885-1.286,1.675-2.642,2.439-3.953c0.508-0.873,1.017-1.745,1.553-2.6c1.001-1.586,2.016-3.164,3.031-4.741
			c1.416-2.201,2.881-4.477,4.282-6.746c0.711-1.161,1.355-2.364,1.977-3.526c0.591-1.103,1.2-2.24,1.853-3.314
			c0.809-1.343,1.686-2.687,2.534-3.988c0.982-1.505,1.997-3.062,2.929-4.647c0.973-1.644,1.86-3.355,2.719-5.009
			c0.514-0.991,1.028-1.981,1.563-2.966c0.542-1.007,1.108-1.997,1.674-2.986c0.458-0.805,0.918-1.608,1.365-2.422
			c0.458-0.839,0.897-1.689,1.338-2.54c0.776-1.501,1.58-3.055,2.465-4.494c1.727-2.799,3.566-5.6,5.345-8.311
			c0.723-1.102,1.446-2.203,2.172-3.322c0.028-0.037,0.064-0.071,0.098-0.106c0.122-0.13,0.24-0.261,0.343-0.41
			c1.154-1.705,2.317-3.402,3.481-5.1c2.577-3.759,5.24-7.645,7.75-11.549c2.157-3.356,4.274-6.802,6.322-10.136
			c2.169-3.532,4.414-7.187,6.702-10.727c2.091-3.241,4.485-6.397,6.8-9.453l0.98-1.292c3.366-4.442,6.53-8.487,9.67-12.365
			c1.296-1.596,2.722-3.154,4.1-4.662c0.632-0.691,1.264-1.383,1.889-2.082l1.764-1.989c1.622-1.83,3.244-3.657,4.893-5.501
			c2.281-2.553,4.64-5.195,6.989-7.753c2.032-2.2,4.113-4.403,6.184-6.544c0.294-0.305,0.654-0.578,1.068-0.891
			c0.542,0.511,1.086,1.005,1.625,1.495c1.849,1.685,3.597,3.273,4.964,5.214c1.179,1.678,2.451,3.311,3.682,4.89
			c1.037,1.332,2.11,2.708,3.108,4.089c1.471,2.036,2.892,4.179,4.266,6.252l1.907,2.867c0.884,1.324,1.799,2.695,2.602,4.078
			c3.553,6.085,7.478,13.384,9.66,21.379c0.097,0.345,0.219,0.686,0.343,1.024c0.071,0.198,0.143,0.396,0.211,0.607
			c0.088,0.261,0.212,0.539,0.338,0.815c0.089,0.196,0.231,0.51,0.273,0.673c-0.264,0.67-0.771,1.327-1.306,2.021l-0.379,0.495
			c-0.222,0.287-0.529,0.563-0.855,0.855c-0.187,0.168-0.374,0.338-0.547,0.506c-1.608,1.551-3.106,3.225-4.555,4.844
			c-2.278,2.546-4.633,5.179-7.389,7.273c-2.891,2.192-5.533,4.662-7.991,7.003C203.98,398.393,202.643,399.77,201.35,401.101"/>
	</g>
</g>
</svg>
