<?xml version="1.0" encoding="utf-8"?>
<!-- Generator: Adobe Illustrator 15.0.2, SVG Export Plug-In . SVG Version: 6.00 Build 0)  -->
<!DOCTYPE svg PUBLIC "-//W3C//DTD SVG 1.1//EN" "http://www.w3.org/Graphics/SVG/1.1/DTD/svg11.dtd">
<svg version="1.1" id="Layer_1" xmlns="http://www.w3.org/2000/svg" xmlns:xlink="http://www.w3.org/1999/xlink" x="0px" y="0px"
	 width="243.345px" height="254.122px" viewBox="0 0 243.345 254.122" enable-background="new 0 0 243.345 254.122"
	 xml:space="preserve">
<path d="M222.808,152.394c-0.544-5.576-2.802-14.719-8.335-17.896c2.694-3.97,0.981-9.881-0.713-14.061
	c-1.596-3.931-4.866-10.977-9.305-13.525c1.211-4.94-0.627-9.688-3.993-13.738c-3.169-3.813-7.645-8.178-12.503-10.342
	c0.869-4.752-3.027-11.872-4.987-14.845c-2.499-3.791-6.638-8.165-11.337-7.935c-7.148-7.709-17.061-12.011-27.628-11.909
	c-8.864,0.084-22.761,5.736-25.231,15.418c-1.722,0.157-3.572,1.083-4.938,1.681c-3.516,1.543-6.763,3.849-9.518,6.506
	c-2.263,2.183-6.628,7.88-6.138,12.031c-5.362,1.913-9.679,6.43-12.533,11.226c-2.177,3.657-4.169,10.513-1.564,14.566
	c0.004,0.066-0.005,0.134,0.013,0.196c-3.609,1.937-6.197,7.117-7.873,10.43c-1.823,3.604-2.23,8.362-0.785,12.249
	c-6.729,0.551-7.997,13.043-7.755,17.841c0.284,5.57,1.844,12.566,5.225,17.701c-0.049,0.241-0.036,0.488,0.042,0.728
	c-5.442,3.876-3.207,15.308-1.467,20.295c1.955,5.606,6.005,12.128,11.067,16.43c0.046,0.318,0.213,0.622,0.58,0.823
	c0.481,0.264,0.972,0.496,1.462,0.734c0.533,0.369,1.072,0.723,1.624,1.034c-0.273,4.919,3.886,11.405,6.266,15.384
	c2.434,4.064,6.603,9.196,11.473,10.726c3.156,4.112,8.894,5.648,13.721,6.768c2.55,0.591,5.142,1.011,7.752,1.326
	c5.231,7.944,17.914,11.261,26.777,11.837c11.997,0.778,19.216-7.893,27.866-14.446c0.243-0.184,0.419-0.397,0.546-0.626
	c2.504-1.178,4.841-2.657,6.965-4.473c5.417-1.244,11.62-8.814,14.537-11.994c4.646-5.061,8.95-11.012,8.033-18.074
	c5.654-0.646,8.861-11.12,10.17-15.458c1.67-5.532,2.606-14.011-1.181-19.063C223.059,166.334,223.167,156.114,222.808,152.394z
	 M130.549,56.863c3.984-2.634,8.751-3.701,13.458-3.851c8.229-0.26,16.178,3.273,22.16,8.78c-5.534,3.003-11.593,3.412-18.074,3.727
	c-4.076,0.197-8.164,0.486-12.244,0.525c-4.513,0.043-8.931-0.765-13.38-1.237C125.185,62.199,127.227,59.063,130.549,56.863z
	 M103.355,79.716c1.284-2.567,3.594-4.537,5.851-6.217c2.2-1.639,4.523-3.032,7.017-4.177c1.411-0.647,3.193-0.827,4.563-1.598
	c9.559,2.697,20.069,2.555,29.858,2.089c4.957-0.236,14.85-0.343,19.146-4.573c1.07,0.451,2.235-0.108,2.872-1.058
	c0.295,0.045,0.595,0.119,0.906,0.269c2.396,1.146,4.15,3.637,5.551,5.79c1.585,2.436,2.762,5.089,3.601,7.866
	c0.483,1.598,0.458,3.128,0.514,4.676c-0.271,0.457-0.318,0.999-0.046,1.472c-5.149,3.09-9.687,5.937-15.903,7.541
	c-7.521,1.942-15.454,2.266-23.187,2.03c-14.236-0.433-28.134-3.7-41.058-9.563c-0.066-0.116-0.132-0.232-0.216-0.336
	C102.668,82.555,102.556,81.321,103.355,79.716z M89.351,97.17c2.531-4.542,6.835-7.846,11.729-9.388
	c12.905,7.689,29.811,10.284,44.474,10.874c8.172,0.329,16.397-0.434,24.31-2.519c4.47-1.177,9.816-3.109,13.968-6.087
	c-0.624-1.444,0.68-3.513,2.522-2.707c0.138,0.06,0.276,0.124,0.415,0.185c0.086-0.09,0.178-0.175,0.262-0.267
	c0.495,0.352,1.008,0.717,1.528,1.091c4.557,2.188,8.997,5.106,10.953,9.918c0.356,0.877,0.546,1.725,0.61,2.541
	c0.506,1.678,0.55,3.432-0.071,5.256c-0.787,0.23-1.561,0.49-2.327,0.765c-1.124,1.093-2.558,1.958-4.159,2.517
	c-2.166,0.755-4.395,1.37-6.649,1.917c-4.318,1.44-8.874,2.188-13.367,2.787c-0.107,0.014-0.217,0.025-0.324,0.039
	c-0.606,0.124-1.214,0.246-1.814,0.375c-8.267,1.781-16.519,3.333-24.921,3.694c-8.588,2.939-18.885,2.699-27.173-0.758
	c-0.704-0.293-1.062-0.826-1.166-1.402c-10.467-1.022-20.806-3.152-30.556-6.943c-0.172-1.546-0.59-3.037-0.611-4.639
	C86.945,101.859,88.143,99.338,89.351,97.17z M85.351,111.65c1.123-1.37,2.99-0.67,3.517,0.55
	c17.216,7.002,35.129,9.346,53.815,9.024c10.281-0.178,20.662-1.231,30.864-2.476c4.623-0.563,9.18-1.415,13.667-2.671
	c5.089-1.425,9.571-4.369,14.652-5.835c0.164,0.016,0.329,0.016,0.49-0.01c5.622,5.542,11.806,14.418,8.295,22.058
	c-0.256,0.048-0.516,0.152-0.77,0.327c-5.175,3.592-11.781,5.659-18.444,7.034c-6.103,2.228-12.262,4.236-18.782,4.922
	c-10.894,1.147-21.887,0.664-32.82,0.668c-18.153,0.008-39.859,0.54-55.65-9.94c-1.563-0.567-3.125-1.16-4.681-1.805
	c-0.011-0.073-0.021-0.144-0.031-0.217c-0.319-0.276-0.545-0.684-0.582-1.251C78.405,124.525,80.574,117.48,85.351,111.65z
	 M76.599,190.016c-1.66-3.453-2.536-7.253-2.63-11.069c-0.064-2.766,1.267-4.947,1.985-7.339c0.189,0.169,0.371,0.346,0.568,0.503
	c0.476,0.381,0.98,0.514,1.443,0.475c6.378,3.364,14.346,4.008,21.21,5.344c2.95,0.572,9.763,3.1,14.9,3.142
	c-1.37,3.767-2.047,7.769-1.923,11.633c0.176,5.513,2.089,10.923,5.275,15.312c-9.772,0.374-19.156-0.916-28.655-2.945
	C83.41,200.916,79.608,196.274,76.599,190.016z M129.929,201.456c6.292,1.827,14.114,1.599,19.443,2.648
	c0.375,0.074,0.685,0.238,0.944,0.445c0.508-0.369,1.004-0.754,1.478-1.16c-0.354,0.506-0.735,1.008-1.138,1.508
	c0.609,0.789,0.601,1.96-0.296,2.759c-3.44,3.064-7.292,4.679-11.141,5.133c-1.51,0.373-3.084,0.537-4.712,0.428
	c-3.942-0.263-7.301-1.968-9.993-4.491c-5.751-4.276-9.491-11.441-8.463-19.784c0.105-0.855,0.622-1.361,1.248-1.569
	c0.004-0.025,0.006-0.051,0.01-0.076c0.001,0.023,0.007,0.047,0.009,0.07c1.244-0.4,2.91,0.386,2.701,2.085
	c-0.099,0.806-0.133,1.593-0.13,2.367C122.196,196.666,125.759,199.508,129.929,201.456z M156.656,249.41
	c-5.138,1.21-10.771,0.407-15.726-1.104c-3.997-1.22-7.099-3.422-10.369-5.577c3.159,0.233,6.324,0.367,9.461,0.479
	c9.105,0.33,19.933,0.971,29.816-0.862C165.805,245.642,161.84,248.189,156.656,249.41z M204.008,212.765
	c-1.34,2.873-3.938,5.457-6.03,7.821c-2.187,2.47-4.577,4.743-7.083,6.886c-1.366,1.168-3.087,1.984-4.576,3.018
	c-0.267,0.023-0.54,0.099-0.807,0.238c-0.546,0.286-1.086,0.551-1.627,0.823c-6.019,7.57-18.262,9.317-28.317,9.126
	c-7.109-0.136-14.113-0.964-21.067-2.132c-8.823-0.186-18.233-0.893-25.625-5.21c-0.41-0.087-0.819-0.176-1.229-0.262
	c-0.983-0.207-1.5-0.946-1.619-1.734c-1.7-1.446-3.67-2.574-5.338-4.108c-2.184-2.007-3.79-4.542-5.244-7.097
	c-1.677-2.953-2.54-7.423-4.335-10.697c9.519,2.617,19.911,1.997,29.635,2.756c0.159,0.012,0.307,0.004,0.446-0.015
	c3.638,3.229,8.188,5.361,13.316,5.712c5.271,0.359,11.039-2.126,15.835-6.074c3.952,0.463,8.185,0.039,12.061-0.02
	c6.258-0.098,12.505-0.414,18.732-1.027c7.656-0.753,16.844-1.842,24.644-4.858C205.444,208.245,205.055,210.522,204.008,212.765z
	 M215.966,187.425c-0.629,28.134-41.479,18.079-58.635,23.207c-1.809,0.541-3.146-1.333-2.716-2.642
	c-0.11,0-0.221-0.004-0.331-0.003c4.755-5.441,7.628-12.304,6.315-18.436c-0.119-0.557-0.494-0.914-0.947-1.115
	c-0.066-2.373-0.658-4.832-1.532-7.199c8.742,1.973,19.131,0.841,27.559-0.297c5.822-0.786,11.529-2.029,17.16-3.696
	c4.16-1.231,9.168-2.679,12.863-5.259c1.934,4.645,1.273,9.493-0.03,14.31C215.861,186.609,215.976,186.984,215.966,187.425z
	 M214.07,168.358c-4.183,1.239-8.186,3.43-12.372,4.74c-5.029,1.574-10.21,2.587-15.398,3.442
	c-5.613,0.924-11.27,1.313-16.948,1.477c-4.268,0.124-8.554-0.43-12.806-0.407c-1.017-2.03-2.177-3.906-3.302-5.49
	c-4.079-5.741-10.062-9.274-17.145-8.983c-8.788,0.36-15.681,5.837-19.774,13.057c-2.105-0.008-4.386,0.396-6.395,0.094
	c-3.773-0.566-7.457-1.695-11.208-2.397c-7.082-1.325-13.954-2.306-20.358-5.417c-3.758-4.889-5.655-10.753-6.243-16.905
	c-0.327-3.441,0.103-6.928,1.203-10.193c0.772-2.285,2.669-3.543,3.917-5.322c20.061,11.501,45.131,11.626,67.55,11.773
	c12.021,0.078,24.116-0.124,36.045-1.775c8.781-1.217,20.667-2.612,28.712-7.699c0.311-0.639,0.908-1.133,1.67-1.155
	c0.192-0.146,0.397-0.281,0.584-0.433c0.162,0.232,0.31,0.46,0.467,0.691c5.106,2.198,6.594,9.38,7.076,14.315
	c0.504,5.155,0.888,11.93-2.407,16.324C216.126,169.177,214.869,169.032,214.07,168.358z"/>
<path d="M133.645,207.462c0.367-0.019,0.732-0.038,1.09-0.07c-1.039-0.317-2.054-0.659-3.052-1.021
	C132.31,206.771,132.958,207.144,133.645,207.462z"/>
<path d="M67.734,29.186c-0.005-0.022-0.006-0.043-0.013-0.067c-0.703-2.189-2.561-4.142-4.173-5.704
	c-1.693-1.639-3.946-2.998-6.364-2.373c-3.861,0.995-3.78,5.769-1.808,8.583c-0.931,0.563-1.745,1.248-2.359,2.07
	c-1.406,0.744-1.582,2.125-1.203,3.441c-0.007,0.209-0.032,0.409-0.02,0.624c0.034,0.619,0.413,1.022,0.889,1.173
	c0.144,0.208,0.295,0.402,0.451,0.575c0.867,0.955,2.144,1.563,3.422,1.98c-0.778,0.819-1.396,1.737-1.799,2.828
	c-0.999,2.706,0.567,5.352,3.25,6.148c2.509,0.745,5.136-1.205,6.929-2.679c1.9-1.563,4.28-3.993,4.494-6.551
	c0.017-0.197,0.001-0.375-0.032-0.545c0.016-0.011,0.034-0.021,0.049-0.032C73.338,35.791,71.078,31.293,67.734,29.186z
	 M57.333,24.792c0.909-0.72,2.065-0.47,2.811,0.324c0.216,0.23,0.389,0.478,0.557,0.743c0.801,0.332,1.323,1.248,1.211,2.106
	c-0.146,1.127-1.151,1.805-2.238,1.729c-0.721-0.05-1.449-0.44-1.886-1.022c-0.268-0.357-0.47-0.742-0.778-1.07
	C56.263,26.806,56.533,25.425,57.333,24.792z M62.895,43.207c-0.006,0-0.007,0-0.013,0.001c-0.076,0.055-0.153,0.106-0.224,0.167
	c-0.282,0.244-0.547,0.504-0.811,0.767c-0.735,0.733-2.046,0.479-2.706-0.218c-0.082,0.014-0.106-0.014-0.084-0.085
	c-0.006-0.007-0.015-0.013-0.021-0.021c-0.736-0.929-0.447-2.042,0.324-2.811c0.824-0.823,1.779-1.687,3.006-1.767
	c1.087-0.071,2.095,0.583,2.247,1.719C64.751,41.984,63.983,43.136,62.895,43.207z M66.431,37.802
	c-3.667-0.002-6.957-0.459-9.725-3.083c-1.006-0.955-1.164-2.884,0.414-3.445c3.721-1.322,6.91-0.359,10.314,1.338
	c0.989,0.493,1.274,1.464,1.096,2.318C68.896,36.105,68.1,37.804,66.431,37.802z"/>
<path d="M97.777,9.916c-0.945-3.347-5.256-4.569-7.801-2.336c-0.249,0.219-0.495,0.474-0.735,0.756
	c-0.096-0.331-0.189-0.664-0.299-0.988c-1.204-3.579-4.087-8.033-8.448-7.259C75.982,0.887,73.429,5.72,75.05,9.87
	c0.081,0.207,0.188,0.41,0.283,0.615c-2.679,0.551-5.979,3.259-5.08,6.316c0.774,2.633,3.596,3.776,5.958,4.575
	c2.144,0.724,6.364,1.984,8.39,0.514c0.338-0.245,0.573-0.578,0.751-0.935c0.07,0.045,0.132,0.101,0.212,0.136
	c2.848,1.262,6.277-1.386,8.392-3.1C96.372,16.036,98.711,13.222,97.777,9.916z M79.992,17.215
	c-1.522-0.281-3.017-0.725-4.373-1.479c0.151-0.096,0.308-0.188,0.461-0.279c1.512-0.916,3.714,1.323,5.308,1.909
	C80.907,17.335,80.433,17.298,79.992,17.215z M85.856,14.716c-0.082,0.144-0.189,0.258-0.306,0.359
	c-0.003,0.046,0.001,0.095-0.003,0.141c-0.03-0.02-0.067-0.037-0.099-0.057c-0.545,0.389-1.341,0.404-1.945,0.216
	c-2.284-0.711-4.56-2.102-5.273-4.528c-0.449-1.525-0.219-3.018,0.379-4.394c-0.667-0.962-0.607-2.396,0.808-2.882
	c2.922-1.003,6.342-0.347,7.392,2.952C87.697,9.313,87.29,12.189,85.856,14.716z M93.327,11.672
	c-0.437,1.087-1.39,1.946-2.388,2.655c0.444-0.795,0.823-1.638,1.269-2.471C92.688,10.963,93.777,10.565,93.327,11.672z"/>
<path d="M243.326,89.501c-0.087-1.025-0.503-2.132-1.15-3.063c1.074-1.344,1.417-3.016,0.31-4.91
	c-3.321-5.684-12.741-6.316-18.158-3.739c-0.432,0.205-0.661,0.661-0.702,1.137c-0.046,0.073-0.1,0.142-0.135,0.22
	c-0.841,0.156-1.673,0.784-1.981,1.555c-1.066,2.665,0.316,7.142,1.044,9.748c0.758,2.734,2.478,6.925,6.004,6.567
	c1.152-0.118,2.12-0.553,2.9-1.192c0.729,1.005,1.796,1.737,3.139,1.918c2.369,0.321,4.525-0.67,6.229-2.282
	C242.397,93.969,243.509,91.702,243.326,89.501z M229.406,90.876c-0.079,0.308-0.328,0.549-0.564,0.751
	c-0.106,0.229-0.228,0.458-0.364,0.689c0.014,0.009,0.015,0.019,0.03,0.028c-0.011-0.006-0.021-0.018-0.032-0.024
	c-0.02,0.033-0.031,0.065-0.052,0.099c-0.753,1.238-3.012,0.982-3.444-0.414c-0.73-2.355-0.817-4.669-0.819-7.117
	c0-1.091,1.263-1.856,2.239-1.729c0.029,0.004,0.053,0.014,0.082,0.019c0.025-0.005,0.048-0.015,0.075-0.018
	c0.993-0.133,2.219,0.627,2.247,1.719c0.032,1.282,0.468,2.466,0.572,3.729c0.016,0.186,0.003,0.355,0.003,0.533
	C229.516,89.71,229.554,90.294,229.406,90.876z M239.121,90.28c-0.021,0.119-0.229,0.739-0.195,0.693
	c-0.279,0.626-0.608,1.078-0.895,1.398c-0.551,0.614-0.7,0.705-1.355,1.075c-0.451,0.254-0.116,0.097-0.601,0.247
	c-0.121,0.035-0.244,0.065-0.37,0.091c-0.021,0.005-0.026,0.007-0.041,0.011c-0.028-0.003-0.074-0.004-0.165,0
	c-0.538,0.022-0.039,0.065-0.559-0.08c-0.036-0.012-0.057-0.02-0.083-0.028c-0.167-0.08-0.33-0.166-0.487-0.262
	c-0.038-0.023-0.083-0.064-0.123-0.092c-1.109-0.442-1.467-1.574-1.835-2.679c-0.345-1.034-0.005-2.171,1.06-2.622
	c0.759-0.322,1.763-0.103,2.309,0.532c0.188,0.017,0.38,0.052,0.573,0.13c0.358,0.145,0.673,0.413,0.9,0.742
	c0.511-0.155,1.021-0.332,1.519-0.552c0.061,0.089,0.212,0.333,0.214,0.301c0.055,0.18,0.135,0.617,0.151,0.618
	c0.002,0.089,0.008,0.18,0.002,0.27c0,0.052,0,0.077,0.004,0.107C239.135,90.21,239.129,90.232,239.121,90.28z M240.161,81.837
	c-0.735,1.707-1.846,3.166-3.859,3.13c-0.333-0.006-0.66-0.064-0.982-0.15c-0.791,0.165-1.602,0.268-2.371,0.468
	c-0.163,0.042-0.311,0.097-0.449,0.159c-0.443-0.827-0.962-1.614-1.511-2.38c-1.028-0.035-1.946-0.59-2.097-1.711
	c-0.132-0.985,0.627-2.23,1.72-2.247c2.677-0.042,5.292-0.589,7.95-0.001C239.78,79.374,240.707,80.569,240.161,81.837z"/>
<path d="M100.763,36.705c-1.44-1.655-3.133-1.865-4.75-1.276c-0.675-0.911-1.591-1.659-2.534-2.068
	c-2.026-0.877-4.53-0.548-6.446,0.465c-2.072,1.099-3.7,2.826-4.153,5.173c-0.257,1.331,0.096,2.575,0.815,3.587
	c-0.855,0.535-1.577,1.313-2.057,2.367c-1.466,3.228,1.954,6.196,4.304,7.788c2.236,1.521,6.037,4.262,8.902,4.104
	c0.83-0.045,1.69-0.633,2.106-1.38c0.085-0.008,0.168-0.037,0.252-0.057c0.464,0.113,0.97,0.042,1.302-0.302
	C102.677,50.796,105.088,41.668,100.763,36.705z M86.909,39.404c0.033-0.084,0.047-0.128,0.052-0.156
	c0.01-0.013,0.014-0.019,0.024-0.036c0.064-0.111,0.133-0.218,0.204-0.321c0.298-0.411,0.042-0.144,0.427-0.49
	c0.561-0.502,0.694-0.615,1.451-0.941c0.396-0.168,0.929-0.336,1.61-0.4c-0.054,0.018,0.6,0.019,0.72,0.037
	c0.049,0.007,0.071,0.008,0.103,0.011c0.027,0.013,0.051,0.021,0.1,0.037c0.087,0.024,0.172,0.059,0.256,0.089
	c-0.005,0.017,0.384,0.232,0.537,0.341c-0.031-0.008,0.151,0.213,0.216,0.299c-1.227,1.341-2.177,2.948-2.572,4.316
	c-0.865-0.322-1.79-0.499-2.708-0.521c-0.198-0.395-0.362-0.772-0.429-1.074c-0.041-0.18-0.07-0.362-0.093-0.545V39.96
	C86.834,39.421,86.716,39.907,86.909,39.404z M93.54,52.108c-0.38,0.941-1.634,1.606-2.604,1.105
	c-3.076-1.587-6.227-4.178-5.16-8.009c0.293-1.052,1.678-1.479,2.604-1.105c1.095,0.442,1.397,1.555,1.105,2.604
	c-0.006,0.021-0.003,0.042-0.007,0.063c0.632,0.424,1.188,0.993,1.673,1.558c0.235,0.273,0.451,0.563,0.674,0.846
	c0.247,0.144,0.462,0.259,0.609,0.335C93.402,50.004,93.976,51.028,93.54,52.108z M96.162,48.136
	c0.033-0.047,0.055-0.092,0.086-0.139c-0.729-1.077-1.497-2.135-2.385-3.081c0.104-0.111,0.201-0.234,0.293-0.375
	c0.6-0.915,1.054-1.959,1.696-2.856c-0.39-1.864,2.179-3.556,3.48-1.705c2.425,3.449,2.469,7.086,0.037,10.546
	C97.882,52.644,94.682,50.241,96.162,48.136z"/>
<path d="M225.915,16.496c-3.772-1.423-7.715-2.426-11.68-3.127c-1.22-0.215-2.724-0.578-4.162-0.629
	c-0.028-0.045-0.052-0.092-0.089-0.139c-0.125-0.16-0.264-0.305-0.395-0.457c-0.008-0.971-0.677-1.898-1.987-1.836
	c-4.163-3.061-10.107-3.527-14.79-1.35c-7.078,3.294-8.253,11.767-5.421,18.315c0.123,0.285,0.327,0.479,0.562,0.592
	c-2.13,3.674-3.524,7.835-4.559,11.919c-1.74,6.864-1.291,15.499,6.586,17.926c6.544,2.018,10.282-4.197,11.772-11.663
	c1.542,1.65,3.807,2.93,5.478,3.924c3.328,1.98,7.715,3.748,11.657,3.254c0.306-0.039,0.583-0.12,0.868-0.189
	c0.604,1.056,1.891,1.954,2.706,2.592c1.156,0.903,2.709,0.087,2.688-1.349c-0.017-1.064-0.14-2.11-0.309-3.16
	c-0.098-0.611-0.167-1.269-0.405-1.817c2.221-4.018,2.032-10.131,0.952-13.812c-0.032-0.113-0.096-0.263-0.172-0.426
	c5.509,0.762,12.092,0.386,13.828-5.394C241.122,22.757,230.678,18.292,225.915,16.496z M194.901,12.15
	c2.139-0.891,4.244-0.903,6.236-0.367c-1.771,0.67-3.481,1.516-5.079,2.455c-2.279,1.341-5.172,3.552-6.751,6.149
	C189.518,16.921,190.723,13.89,194.901,12.15z M191.488,56.216c-6.553-1.49-6.608-7.751-5.354-13.296
	c1.375-6.076,3.512-13.09,7.508-18.03c1.346-1.664,3.968,0.21,2.846,1.891c0.229,0.42,0.437,0.851,0.622,1.272
	c-0.048,0.366,0.021,0.764,0.274,1.162c0.11,0.176,0.213,0.383,0.313,0.602c0.346,0.226,0.627,0.568,0.755,1.051
	C199.803,35.968,201.934,58.592,191.488,56.216z M199.985,26.227c-0.005-0.012-0.012-0.024-0.017-0.037
	c-1.057-2.122-3.14-5.391-5.925-4.728c-0.079,0.019-0.153,0.051-0.224,0.091c-0.067,0.006-0.133,0.013-0.199,0.021
	c1.103-1.306,2.27-2.533,3.898-3.6c2.637-1.73,5.563-2.748,8.6-3.425c-0.004,0.011,0.003,0.025,0,0.037
	c-1.366,1.18-2.146,3.128-2.548,4.779c-0.319,1.315-0.121,3.327,0.728,4.679c-0.534,0.185-1.044,0.441-1.567,0.703
	C201.847,25.188,200.743,25.589,199.985,26.227z M202.517,38.333c0.009-2.035-0.132-3.984-0.414-5.72
	c0.005-0.135,0.006-0.27-0.001-0.409c0.387-0.256,0.999-0.325,1.381-0.587c0.434-0.3,0.884-0.575,1.306-0.892
	c0.865-0.647,1.799-1.198,2.781-1.65c0.032-0.014,0.057-0.032,0.086-0.047c1.372,1.008,3.044,1.865,4.781,2.585
	c-1.641,0.379-3.254,1.236-4.525,2.052c-1.177,0.755-2.279,1.692-3.313,2.709C203.85,36.97,203.145,37.625,202.517,38.333z
	 M221.886,43.251c-0.654,6.483-5.091,6.798-9.704,4.991c1.485-1.217,2.81-2.728,4.394-3.8c1.646-1.113,3.644-1.671,5.405-2.542
	C221.962,42.357,221.931,42.81,221.886,43.251z M220.632,37.645c-0.346-0.206-0.694-0.373-1.043-0.52
	c-2.127,0.577-4.086,1.538-5.964,2.775c-2.188,1.442-4.89,3.414-6.392,5.578c-0.023,0.033-0.033,0.072-0.053,0.107
	c-1.381-0.919-2.637-1.903-3.651-2.819c0.074-0.045,0.149-0.09,0.224-0.15c0.516-0.421,1.011-0.864,1.506-1.307
	c-0.463-0.532-0.609-1.3-0.035-2.018c4.311-5.386,11.167-8.134,17.457-4.38C224.581,36.044,222.508,38.765,220.632,37.645z
	 M222.228,30.842c-5.429-1.115-12.126-3.237-15.067-8.239c-0.041-0.067-0.084-0.122-0.127-0.178
	c-0.295-0.751-0.571-1.507-0.376-2.477c0.265-1.324,1.315-2.3,2.082-3.396c1.127,0.086,2.345-0.05,3.367,0.058
	c2.788,0.292,5.55,0.908,8.26,1.594c4.621,1.17,13.626,3.46,15.189,8.748C237.509,33.565,225.196,31.452,222.228,30.842z"/>
<path d="M59.708,113.396c-0.397-4.527-0.857-10.648-2.439-15.692c0.288-0.172,0.544-0.425,0.724-0.789
	c3.155-6.401,2.29-13.571-4.624-16.877c-4.387-2.096-14.19-2.286-17.49,2.347c-9.94-1.081-19.97-0.276-28.2,6.085
	c-6.241,4.826-11.336,13.681-4.213,20.227c3.581,3.291,8.646,2.617,13.218,1.022c-0.252,2.319-0.123,4.77-0.043,6.598
	c0.147,3.407,1.196,7.382,3.684,9.939c-0.244,0.627-0.482,1.256-0.765,1.869c-0.57,1.24-1.223,2.438-1.781,3.684
	c-0.892,1.98,1.419,4.099,3.128,2.415c1.472-1.453,3.13-2.843,4.426-4.453c0.201-0.252,0.338-0.51,0.423-0.765
	c5.139,1.028,11.958-0.312,15.575-3.879c3.04,4.703,8.253,8.591,13.516,5.745C60.69,127.714,60.2,118.979,59.708,113.396z
	 M23.963,123.348c-2.068-1.697-2.63-4.589-2.794-7.256c1.403,1.733,3.02,3.247,4.024,4.137c1.615,1.427,3.961,3.156,6.428,4.102
	C29.015,124.996,26.04,125.05,23.963,123.348z M38.752,120.399c-0.566-0.713-1.492-1.151-2.607-0.897
	c-3.314,0.751-6.325-1.67-8.719-3.731c-1.372-1.181-2.622-2.525-3.672-4c-0.708-0.994-1.182-2.342-2.018-3.264
	c0.033-0.319,0.056-0.635,0.067-0.948c0.339-0.162,0.665-0.322,0.981-0.477c0.111-0.054,0.217-0.118,0.327-0.173
	c1.294,2.241,3.529,4.189,5.332,5.68c2.84,2.347,6.185,4.24,9.926,4.422c0.151,0.892,0.325,1.761,0.521,2.601
	c0.043,0.191,0.093,0.385,0.149,0.581C38.941,120.258,38.849,120.33,38.752,120.399z M37.658,105.395
	c-0.083,2.108-0.055,4.222,0.089,6.283c-4.405-0.374-7.385-4.034-10.431-7.091c1.713-1.023,3.387-2.112,5.042-3.22
	C33.522,103.284,35.512,104.815,37.658,105.395z M36.216,98.818c0.849-0.56,1.699-1.153,2.455-1.817
	c-0.224,1.038-0.403,2.102-0.555,3.177c-0.258-0.118-0.514-0.249-0.78-0.421C36.936,99.497,36.571,99.163,36.216,98.818z
	 M53.912,124.967c-1.109,2.568-3.635,1.924-5.72,0.88c-4.114-2.058-5.307-7.572-5.791-11.689
	c-0.902-7.632,1.383-14.884,1.399-22.405c0.004-2.099-2.714-2.185-3.413-0.461c-0.186,0.451-0.354,0.915-0.519,1.384
	c-0.121-0.032-0.254-0.048-0.396-0.038c-3.666,0.287-7.151,3.835-10.128,5.757c-3.025,1.954-6.181,3.855-9.495,5.354
	c-0.417-0.017-0.837,0.13-1.175,0.5c-0.007,0.008-0.013,0.017-0.021,0.024c-0.037,0.016-0.075,0.029-0.112,0.044
	c-3.299,4.488-7.774,7.717-12.31,3.708c-4.638-4.1-3.12-8.479,0.412-11.921c1.158-1.504,2.648-2.827,3.964-3.837
	c8.511-6.537,19.229-5.895,29.328-4.461c2.574,0.366,3.934-2.869,2.4-4.183c2.368-0.634,4.754-0.432,7.114,0.127
	c4.724,1.119,5.896,4.745,5.285,8.68c-1.331-1.183-4.09-0.612-3.821,1.544C52.113,103.576,58.083,115.32,53.912,124.967z"/>
</svg>
