<?xml version="1.0" encoding="utf-8"?>
<!-- Generator: Adobe Illustrator 15.0.2, SVG Export Plug-In . SVG Version: 6.00 Build 0)  -->
<!DOCTYPE svg PUBLIC "-//W3C//DTD SVG 1.1//EN" "http://www.w3.org/Graphics/SVG/1.1/DTD/svg11.dtd">
<svg version="1.1" id="Layer_1" xmlns="http://www.w3.org/2000/svg" xmlns:xlink="http://www.w3.org/1999/xlink" x="0px" y="0px"
	 width="468.002px" height="482.721px" viewBox="0 0.001 468.002 482.721" enable-background="new 0 0.001 468.002 482.721"
	 xml:space="preserve">
<g>
	<g>
		<g>
			<path d="M264.452,103.647c-0.228-0.651-0.395-1.317-0.5-2c-0.203-0.963,0.168-2.153,0.898-3.423
				c0.201-12.942-1.357-26.328-4.084-39.898c-1.766-8.824-15.227-5.086-13.461,3.707c7.398,36.817,5.656,71.388-21.637,98.665
				c-0.082,3.759-1.996,7.367-5.269,8.994c1.019,4.616,7.276,8.199,11.929,3.946c21.687-19.792,30.779-43.699,32.297-69.574
				C264.561,103.941,264.5,103.805,264.452,103.647z"/>
		</g>
		<g>
			<path d="M256.883,107.706c-41.616-9.578-59.476-52.492-97.679-67.086c-42.781-16.34-82.32-8.801-122.773,10.574
				c-3.18,1.516-4.648,6.664-2.508,9.547c34.579,46.743,122.501,82.237,169.42,34.375c0.08-0.615,0.55-1.029,1.292-1.192
				c0.037-0.203,0.102-0.401,0.222-0.586c1.665-2.564,8.667,1.916,10.075,2.846c0.031,0.021,0.053,0.035,0.082,0.054
				c0.218,0.111,0.385,0.195,0.499,0.253c0.886,0.4,1.773,0.794,2.663,1.188c2.392,1.06,4.796,2.125,7.118,3.332
				c2.291,1.192,4.513,2.503,6.631,3.951c5.244,2.136,10.615,5.111,14.08,9.454c1.613,2.021,2.125,3.789,1.914,5.365
				c1.718,0.506,3.457,0.981,5.248,1.394C261.931,123.186,265.649,109.729,256.883,107.706z M193.262,94.093
				c-1.949,3.312-5.407,6.02-8.44,7.831c-14.495,8.652-33.645,7.154-49.7,4.618c-18.821-2.973-36.218-9.465-52.462-19.373
				c-9.958-6.074-23.349-13.222-30.298-23.531c-1.11-1.178-1.896-2.403-2.1-3.624c-0.095-0.195-0.179-0.395-0.27-0.593
				c-0.809-0.709-1.201-1.418-0.953-2.057c2.26-5.813,10.639-7.75,16.016-8.991c6.879-1.588,13.866-2.363,20.827-3.473
				c22.379-3.567,46.604-7.434,68.42,1.085c9.214,3.598,17.742,8.585,25.361,14.917c5.897,4.901,12.404,10.975,15.418,18.197
				C197.931,85.924,196.68,90.777,193.262,94.093z"/>
		</g>
		<g>
			<path d="M436.446,3.124c-35.805-7.457-69.047-1.609-99.961,18.063c-14.271,9.076-24.588,25.726-35.113,41.764
				c-1.613,6.146-3.992,12.164-7.58,17.335c-2.885,4.159-6.531,7.991-10.44,11.202c-1.795,1.474-3.615,2.917-5.447,4.345
				c-0.153,0.12-3.999,3.69-2.163,1.616c-1.062,1.199-9.904,10.696-11.287,6.2c-0.229-0.651-0.396-1.317-0.5-2
				c-0.012-0.051-0.014-0.106-0.021-0.159c-2.479,1.004-5.068,1.78-7.799,2.279c-8.858,1.621-5.094,15.07,3.712,13.457
				c16.646-3.041,28.192-14.186,37.823-27.169c31.147,4.512,64.565,4.051,93.574-9.667c32.508-15.375,34.492-36.906,49.359-67.008
				C442.485,9.584,441.118,4.108,436.446,3.124z M426.868,15.771c-7.297,7.819-7.923,19.507-12.582,28.879
				c-0.006,0.027,0,0.045-0.007,0.073c-2.907,13.08-14.765,22.209-25.804,28.523c-10.329,5.907-22.24,10.223-34.131,11.45
				c-13.693,1.414-28.387,2.199-42.141,0.792c-2.625-0.269-8.529-0.828-9.437-4.101c-0.861-3.106,0.616-6.005,2.623-8.551
				c1.478-5.35,4.225-10.151,7.707-14.535c6.339-14.346,16.687-26.25,31.448-34.394c18.504-10.206,39.347-12.441,60.09-11.899
				c1.184-0.452,2.367-0.733,3.496-0.742c6.433-0.046,12.863-0.406,19.248,0.572C429.504,12.166,427.42,15.178,426.868,15.771z"/>
		</g>
		<g>
			<path d="M333.728,232.088c-15.147-39.098-43.733-82.191-88.578-87.125c-2.724-0.303-4.603,0.791-5.655,2.479
				c-0.211-0.193-0.437-0.38-0.681-0.558c-41.227-30.004-93.672-12.934-136.305,5.305c-48.25,20.629-78.539,55.039-94.523,104.915
				c-28.094,87.711,20.789,163.108,102.039,196.655c83.273,34.392,173.492,24.688,218.031-60.438
				C353.681,344.323,353.383,282.846,333.728,232.088z M332.188,355.58c-1.079,3.974-1.514,8.15-2.523,12.156
				c-1.36,5.398-3.021,10.843-5.494,15.857c-1.051,2.896-2.271,5.799-3.569,8.773c-2.252,5.155-4.718,10.751-8.521,14.974
				c-4.061,4.505-8.47,8.765-12.867,12.938c-8.555,8.118-17.541,15.716-27.588,21.938c-9.062,5.611-18.586,11.074-29.293,12.56
				c-9.049,4.852-19.91,6.875-29.874,7.458c-8.481,0.496-17.05,0.236-25.524-0.275c-3.934-0.238-8.409,0.17-12.242-0.76
				c-3.546-0.86-7.014-2.251-10.667-2.488c-0.067-0.004-0.128-0.017-0.195-0.021c-4.88-0.326-9.831-1.437-13.999-2.675
				c-13.66-4.059-25.97-11.211-39.357-15.98c-10.57-3.768-21.656-6.752-31.837-11.509c-9.886-4.619-18.009-10.897-25.247-19.041
				c-7.319-8.235-14.041-16.706-19.688-26.188C28.47,374.511,23.275,364.568,21.1,354.5c-0.286-1.323-0.224-2.642,0.105-3.89
				c0.01-0.053,0.025-0.101,0.035-0.15c-0.549-1.907-1.001-3.893-1.517-5.96c-1.435-5.755-4.457-12.548-3.902-18.938
				c-2.531-8.855-2.211-19.188-3.164-27.585c-0.833-7.348-2.168-14.481-0.965-21.904c1.169-7.217,3.542-14.071,5.649-21.045
				c2.138-7.072,4.108-14.17,7.947-20.553c3.395-5.645,8.038-10.591,10.958-16.502c0.036-0.072,0.077-0.134,0.114-0.205
				c1.087-2.339,2.354-4.629,3.861-6.869c7.018-10.427,14.736-20.5,24.075-28.982c8.882-8.067,19.349-13.922,29.911-19.485
				c11.78-6.205,23.445-11.149,36.371-14.436c11.678-2.97,23.463-6.173,35.514-7.174c11.568-0.96,22.014,0.272,33.313,2.432
				c8.349,1.596,18.476,3.1,23.914,10.379c2.883,1.551,5.706,3.312,8.455,5.313c3.655,2.663,7.229,0.935,8.973-2.109
				c1.08,1.091,2.547,1.873,4.402,2.078c2.521,0.278,4.977,0.716,7.377,1.286c2.359-0.918,5.116-0.936,7.78-0.162
				c8.962,2.604,16.838,8.432,23.539,14.779c6.161,5.836,13.331,11.97,18.176,18.99c3.705,5.37,6.522,11.176,9.022,17.139
				c4.746,3.706,5.986,10.056,7.842,15.494c2.408,7.062,6.982,13.283,9.543,20.388c4.234,11.76,8.705,23.495,6.886,35.077
				c1.47,19.111,6.323,38.503,2.104,57.349C336.165,344.85,333.688,350.06,332.188,355.58z"/>
		</g>
	</g>
	<path d="M286.743,335.284c-3.225,0-3.225,5,0,5S289.967,335.284,286.743,335.284z"/>
	<path d="M240.743,397.284c-3.225,0-3.225,5,0,5S243.967,397.284,240.743,397.284z"/>
	<path d="M180.743,383.284c-3.224,0-3.224,5,0,5C183.967,388.284,183.967,383.284,180.743,383.284z"/>
	<path d="M168.743,427.284c-3.224,0-3.224,5,0,5C171.967,432.284,171.967,427.284,168.743,427.284z"/>
	<path d="M222.743,437.284c-3.224,0-3.224,5,0,5C225.967,442.284,225.967,437.284,222.743,437.284z"/>
	<path d="M262.743,423.284c-3.225,0-3.225,5,0,5S265.967,423.284,262.743,423.284z"/>
	<path d="M272.743,406.784c-6.447,0-6.447,10,0,10C279.191,416.784,279.191,406.784,272.743,406.784z"/>
	<path d="M208.743,414.784c-6.449,0-6.449,10,0,10C215.192,424.784,215.192,414.784,208.743,414.784z"/>
	<path d="M276.743,272.784c-6.447,0-6.447,10,0,10C283.191,282.784,283.191,272.784,276.743,272.784z"/>
	<path d="M240.743,336.784c-6.447,0-6.447,10,0,10C247.191,346.784,247.191,336.784,240.743,336.784z"/>
	<path d="M274.743,356.784c-6.447,0-6.447,10,0,10C281.191,366.784,281.191,356.784,274.743,356.784z"/>
	<path d="M308.743,386.784c-6.447,0-6.447,10,0,10C315.191,396.784,315.191,386.784,308.743,386.784z"/>
	<path d="M74.743,182.784c-6.449,0-6.449,10,0,10C81.192,192.784,81.192,182.784,74.743,182.784z"/>
	<path d="M34.743,242.784c-6.449,0-6.449,10,0,10C41.192,252.784,41.192,242.784,34.743,242.784z"/>
	<path d="M72.743,208.784c-6.449,0-6.449,10,0,10C79.192,218.784,79.192,208.784,72.743,208.784z"/>
</g>
<g>
	<g>
		<g>
			<path d="M463.344,299.72c-12.312-48.412-49.588-89.583-93.42-111.868c-26.663-13.551-60.464-23.717-89.823-15.716
				c1.912,1.619,3.612,3.51,5.17,5.498c0.819,0.889,1.612,1.796,2.384,2.72c4.677-0.85,9.5-1.063,14.175-0.936
				c7.664,0.209,16.187,0.01,23.68,1.81c5.729,1.377,11.127,3.583,16.405,6.086c5.428-0.37,10.091,3.153,14.619,5.692
				c5.879,3.297,12.707,4.723,18.715,7.958c9.94,5.355,20.025,10.552,25.786,19.44c12.514,11.968,27.473,22.083,36.001,37.303
				c2.531,4.521,4.007,9.52,6.326,14.138c1.671,3.322,3.898,6.395,5.634,9.697c2.341,4.451,4.507,9.115,5.867,13.979
				c1.04,2.583,1.97,5.271,2.89,8.055c1.595,4.826,3.311,10.077,3.299,15.21c-0.015,5.479-0.412,11.004-0.853,16.464
				c-0.859,10.62-2.322,21.151-5.329,31.395c-2.711,9.241-5.824,18.66-12.131,26.116c-3.161,8.722-9.247,16.633-15.598,23.035
				c-5.406,5.449-11.328,10.442-17.337,15.209c-2.79,2.213-5.555,5.187-8.693,6.874c-2.904,1.56-6.076,2.716-8.677,4.759
				c-0.047,0.037-0.096,0.067-0.145,0.104c-3.478,2.723-7.479,4.962-11.028,6.645c-11.638,5.508-24.232,8.123-36.113,12.989
				c-9.384,3.842-18.641,8.521-28.358,11.461c-9.436,2.855-18.686,3.531-28.467,2.421c-9.891-1.125-19.521-2.768-29.037-5.74
				c-8.818-2.752-18.31-6.307-25.845-11.766c-0.169-0.123-0.322-0.26-0.479-0.395c-0.48,0.159-1.014,0.237-1.581,0.249
				c-4.932,1.606-10.114,1.985-15.256,2.633c38.435,24.86,88.436,27.784,136.996,10.64
				C429.879,444.783,484.719,383.84,463.344,299.72z"/>
		</g>
	</g>
	<path d="M406.998,355.049c-2.169,1.946,0.847,5.31,3.015,3.362C412.182,356.467,409.167,353.104,406.998,355.049z"/>
	<path d="M358.192,381.821c-2.168,1.945,0.847,5.308,3.016,3.363C363.377,383.24,360.362,379.877,358.192,381.821z"/>
	<path d="M376.655,418.654c-2.169,1.945,0.847,5.308,3.016,3.363S378.825,416.71,376.655,418.654z"/>
	<path d="M419.011,392.811c-2.168,1.944,0.848,5.308,3.016,3.362C424.196,394.229,421.181,390.865,419.011,392.811z"/>
	<path d="M396.025,386.121c-4.339,3.889,1.692,10.615,6.03,6.726C406.394,388.957,400.363,382.231,396.025,386.121z"/>
	<path d="M165.97,310.897c-4.338,3.891,1.692,10.617,6.031,6.726C176.339,313.734,170.309,307.008,165.97,310.897z"/>
	<path d="M175.247,375.381c-4.338,3.89,1.692,10.615,6.031,6.727C185.616,378.216,179.585,371.49,175.247,375.381z"/>
	<path d="M180.304,329.592c-4.338,3.891,1.692,10.616,6.031,6.726C190.673,332.428,184.643,325.702,180.304,329.592z"/>
</g>
</svg>
