<?xml version="1.0" encoding="utf-8"?>
<!-- Generator: Adobe Illustrator 19.0.0, SVG Export Plug-In . SVG Version: 6.00 Build 0)  -->
<svg version="1.1" id="Layer_1" xmlns="http://www.w3.org/2000/svg" xmlns:xlink="http://www.w3.org/1999/xlink" x="0px" y="0px"
	 viewBox="-260.4 474.9 305.9 315.8" style="enable-background:new -260.4 474.9 305.9 315.8;" xml:space="preserve">
<style type="text/css">
	.st0{fill:#010101;}
	.st1{fill:#010101;stroke:#000000;stroke-width:2;stroke-miterlimit:10;}
	.st2{fill:#010101;stroke:#000000;stroke-width:3;stroke-miterlimit:10;}
	.st3{fill:none;}
</style>
<path class="st0" d="M-35.9,611.6c-0.5-1.1-1-2.3-1.5-3.4c0.4,1.1,0.7,2.2,1.1,3.3C-36.1,611.5-36,611.5-35.9,611.6z"/>
<path class="st0" d="M-189.7,767.2c1.9,1.5,3.9,2.9,6,4.1C-185.7,770-187.7,768.6-189.7,767.2z"/>
<path class="st0" d="M-129.7,783.5c11.5-0.2,23.3-2.2,33.7-7c1.4-0.6,2.8-1.3,4.1-2.1C-102.9,779.7-116.5,781.6-129.7,783.5z"/>
<path class="st0" d="M-51.9,584.8c-0.7-0.9-0.6-1.9-0.1-2.6c-1.5-8-4.5-11.7-8.6-14.9c1.3,2,2.7,4,3.4,6.2c0.2,0.5,0.2,1,0.2,1.4
	c0.2,0.5,0.3,0.9,0.3,1.4c0.2,0.3,0.3,0.7,0.4,1.1c2.6,11.4,1.1,24.4-7.8,32.9c-7.4,7-18.4,8.1-28.1,8.6c-5.4,0.3-10.8,0.3-16.2,0.5
	c-2.6,0.1-5.1,0.4-7.7,0.7c13.4,2.5,26.9,3.7,39.8,1.5c4-0.7,24.9-12.3,25.1-23.9c0.1-5-0.1-9.1-0.5-12.6
	C-51.6,585.2-51.8,585-51.9,584.8z"/>
<path class="st0" d="M-196.5,574.9c1.6-0.4,3.3,0,4.8,0.6c0-2-1.2-4.1-3.9-4.1c-3,0-4.3,2.7-3.7,5
	C-198.5,575.7-197.6,575.1-196.5,574.9z"/>
<path class="st0" d="M-163.7,603.6c1.2-0.2,2.4,0.1,3.5,0.5c0.1-2.1-1.2-4.2-3.9-4.2c-3.5,0-4.6,3.7-3.4,6.1
	C-166.5,604.7-165.3,603.8-163.7,603.6z"/>
<path class="st0" d="M-173.1,503.5c0.5-1.6,2-2.6,3.6-3c0.1,0,0.1,0,0.2,0c-0.5-1.4-1.7-2.6-3.6-2.6c-5.1,0-5.1,7.8-0.2,8
	C-173.4,505.1-173.4,504.3-173.1,503.5z"/>
<path class="st1" d="M-92.1,619.1c-5.4,0.3-10.8,0.3-16.2,0.5c-5.7,0.3-11.4,1.4-17.1,1.7c-12.8,0.8-25.5-0.2-38.3-1.4
	c-0.2,0.4-0.6,0.8-1.2,0.9c-10.9,2.2-20.8-3.6-31.5-3.9c-0.9,0-1.5-0.6-1.8-1.3c-5.7-1.4-12.7-2.1-16.3-7.2c-1.4-2-1.9-4.2-1.8-6.5
	c0-0.5,0-1,0-1.6c-0.4-0.3-0.7-0.6-1.1-1c-1.1-0.8-2.2-1.8-3.2-2.9c0,0.3-0.1,0.6-0.2,0.8c0.2,0.9,0.3,1.8,0.3,2.8
	c0.1,3.1-0.1,5.2,1.4,8.1c0.8,1.6,1.7,3.1,2.7,4.5c1,0.7,2,1.4,3.2,2c18.2,9.8,41.1,7.8,61.3,10c19.8,2.2,43.1,0.9,62.4-3.7
	c2.6-0.6,5.4-1.7,8.1-3.1C-85,618.6-88.6,618.9-92.1,619.1z"/>
<g>
	<path class="st2" d="M28.3,596.2c-14-9.6-46.4-7-61.2-0.3c-2.4-4.7-5.1-9.2-8.5-13.8s-7.3-8.8-11.1-13.1c-0.5-0.6-0.8-0.9-1.1-1.2
		c-1.9-3.9-4.8-7.3-8.3-10.4c-0.7,2-1.2,4-1.1,6c1.5,3.4,4.6,6.6,5.8,10.2c0.2,0.5,0.2,1,0.2,1.4c0.2,0.5,0.3,0.9,0.4,1.4
		c0.2,0.3,0.3,0.7,0.4,1.1c1.3,5.6,1.6,11.6,0.5,17.2c2-2.7,3.5-5.8,4.3-9.3c-0.2-0.2-0.4-0.5-0.5-0.7c-1.6-2,1.2-4.8,2.8-2.8
		c13.4,16.7,24.3,38.6,23.2,60.6c0.2,0.2,0.3,0.5,0.3,0.8c1.2,7.9-0.9,15.2-2.9,22.6c0,0.2,0,0.4,0,0.6c-0.3,12.5-3.5,24-8,35.6
		c-2.3,5.9-4.9,12.5-9.4,17.1c-0.2,0.9-0.7,1.8-1.7,2.6c-11.5,9.1-23.4,17.5-36.8,23.6c-12.7,5.7-26,9.1-39.8,10.8
		c-15,1.9-30.7,3.1-45.8,1.3c-7.5-0.9-15.3-2.1-22.6-4.3c-5.8-1.7-10.5-6.6-16.4-7.6c-1.1-0.2-2-0.7-2.6-1.3
		c-8.5-3.2-15.9-7.8-22.6-14.8c-8.9-9.4-15.3-20.2-18.2-32.9c-2.8-12.5-2.8-25.4-2.8-38.1c0-7.6,0.2-15.2,1.5-22.7
		c0.9-5.4,2.4-10.7,3.5-16.1c1.2-6.2,2.4-14.7,5.8-21.1c0.2-2.7,1.7-5.2,3.9-7.1c0.1-0.3,0.2-0.6,0.4-0.9c0.7-1.5,2-2.6,3.4-3.6
		c1.9-1.4,4.5-0.6,6.1,0.9c1.8,0.6,3.6,1.1,5.4,1.6c0,0,0-0.1-0.1-0.1c-0.2-0.6-0.4-1.2-0.5-1.8c-0.2,0-0.4,0-0.6,0
		c0-1.1,0-2.2,0.2-3.3c-0.7-0.5-1.5-1-2.2-1.5c-2.3-1.7-4.1-3.8-5.4-6.2c-3.5,3.6-6.3,8-8.7,12.6h-0.1c-0.6,1.4-1.3,2.8-2,4.2
		c-0.7,1.8-1.5,3.6-2.4,5.3c-1.3,3-2.6,5.9-3.9,8.6c-12.1,24.5-11,65-5.8,91c5.7,28.7,28.1,47.1,54.9,57.1
		c2,28.6,40.3,35.7,64.1,35.3c33.1-0.5,75.6-8.6,75.2-48.5c0-0.8-0.4-1.3-0.8-1.7c16.1-10.9,28.4-26.2,34.6-47.4
		c1.1,0.7,4.1-1.3,6.3-2c11.1-3.4,22.7-4.4,33.8-8.5c18.3-6.8,28.8-16.9,32.6-37.4C47.6,625.9,45.8,608.1,28.3,596.2z M-66,748.4
		c-1.7,13.4-12.9,23.4-24.2,29.7c-12.3,6.8-27,9.4-40.9,9.4c-12.9,0.1-26.3-2.3-38.6-6.1c-11.8-3.6-23.6-9.4-30.5-20
		c-0.7-1-0.2-2,0.6-2.6c-1-1.2-0.8-1.9,1.2-1.6c0.2,0,0.4-0.1,0.6-0.2c22.3,7.5,47.1,9.4,67.8,6.5c22.2-3.1,43.4-9,60.9-19.2
		c1.2-0.8,3.2-0.3,3.2,1.5c0,0.5,0,1.1-0.1,1.6C-66,747.8-66,748.1-66,748.4z M32.6,658.3c-8,21.1-38.6,24.1-59.4,27.5
		c0.2-0.9,0.5-1.8,0.6-2.7c0.8-4.4,1.6-9,2.2-13.6c0.1,0.3,0.3,0.5,0.5,0.8c0-1,0.6-2,1.9-1.8c10,1.1,22.9-0.1,32.1-5.2
		c0-0.1,0.1-0.2,0.2-0.3c5.7-8.2,10.4-17.1,2.6-25.6c-7.7-8.4-19.7-12.9-30.8-9.9c-0.9,0.2-1.6-0.1-2-0.6l-0.1,0.1
		c-0.8,0.8-1.8,0.7-2.5,0.2c-0.3,0.1-0.5,0.3-0.8,0.4c-0.6-4.6-1.5-9.2-2.8-13.6c-1.6-5.3-3.4-10-5.5-14.5c1.2-1.3,5-2,9.9-2.4
		c0.2-0.8,0.8-1.4,1.8-1.5c10-0.9,20.1-2,30.1-0.2c4.5,0.8,8.8,2.4,12.7,4.5c5.1,1.8,8.8,4.7,11.3,8.4c0.5,0.4,0.9,0.9,1.4,1.4
		c0.6,0.6,0.7,1.3,0.5,1.9C42.7,624.9,37.5,645.4,32.6,658.3z M-22.4,631.3c0.5,0.1,1,0,1.5-0.4c0,0,0,0,0,0.1
		c4.6-2.9,14.8-0.1,19.8,0.6c9.4,1.2,13.1,6.1,14.5,15.4c3,20.5-21.5,17.8-34.6,17.6c-0.9,0-1.5,0.4-2,0.9
		C-21.9,654.2-21.3,642.6-22.4,631.3z"/>
	<path class="st2" d="M-75,606c5.2-2.4,8.1-6.9,9.3-12.1c-1.2,1-2.4,1.8-3.7,2.6c-4.6,2.9-9.3,6-14.1,8.5c-2.8,1.5-5.9,2.6-9,3.5
		c-0.4,0.3-0.8,0.5-1.3,0.7C-87.4,609.1-80.8,608.6-75,606z"/>
	<path class="st2" d="M-186.5,586.4c-5.2,0-5.2,8,0,8C-181.3,594.4-181.3,586.4-186.5,586.4z"/>
	<path class="st2" d="M-146,493.4c-5.2,0-5.2,8,0,8C-140.8,501.4-140.8,493.4-146,493.4z"/>
	<path class="st2" d="M-153.9,523.9c0.7-1.8,2.4-2.7,4.2-3.3c-0.3-1.7-1.6-3.1-3.8-3.1c-4.9,0-5.1,7.2-0.8,7.9
		C-154.2,524.8-154.1,524.3-153.9,523.9z"/>
	<path class="st2" d="M-158,502.4c-5.2,0-5.2,8,0,8C-152.8,510.4-152.8,502.4-158,502.4z"/>
	<path class="st2" d="M-176,514.4c-5.2,0-5.2,8,0,8C-170.8,522.4-170.8,514.4-176,514.4z"/>
	<path class="st2" d="M-65.9,579.7c-0.2-0.3-0.3-0.7-0.4-1c-0.2-0.1-0.5-0.3-0.7-0.5c-0.4-0.3-0.7-0.5-1-0.8c-5.1,0.1-5.1,8,0.1,8
		c1.3,0,2.2-0.5,2.8-1.2c-0.1-1.4-0.4-2.7-0.6-4C-65.9,580.1-65.9,579.9-65.9,579.7z"/>
	<path class="st2" d="M-84.5,569.9c-5.2,0-5.2,8,0,8C-79.3,577.9-79.4,569.9-84.5,569.9z"/>
	<path class="st2" d="M-85.4,555.4c1-0.8,2.1-1.3,3.2-1.5c-0.2-1.8-1.5-3.5-3.8-3.5c-4.6,0-5.1,6.4-1.5,7.7
		C-87,557.1-86.3,556.2-85.4,555.4z"/>
	<path class="st2" d="M-112.4,569.6c1.1-2.5,3.5-3.9,6.3-3.5c-0.1-1.9-1.4-3.7-3.8-3.7C-114.2,562.4-115,567.6-112.4,569.6z"/>
	<path class="st2" d="M-51.5,540.4c-0.8-20.6-6.7-40.8-18.9-39.1c-16.9,2.2-22.1-23-38.9-25c-11-1.3-17.5-2.1-22.7,14
		c-6-16.5-18.3-19.6-28-9.9c-7,7-15.9-7.7-23.8,0c-5.3,5.2-23,34.3-27.2,33.9c-9.9-1.1-27.8,23.2-31.6,40.2
		c-2.1,9.5,1.4,18,6.7,24.9c3.2,4.1,7,7.6,10.7,10.4c1.4,0.4,2.8,0.9,4.2,1.4c1.1,0.4,1.5,1.4,1.3,2.3l0,0l0,0
		c-0.1,0.6-0.5,1.2-1,1.5c0.1,0.7,0.2,1.4,0,2.1c1.1,1.7,2.1,3.5,2.9,5.2c0,0,0,0.1,0.1,0.2c-0.1-0.2-0.1-0.3-0.2-0.5
		c0.5,0.3,1,0.6,1.4,0.8c0-0.2,0-0.4,0-0.6c-0.2-1.8,0.4-3.8,1.8-5.9c0.8-2.1,1.4-4.2,0.4-5.9c-2.1-0.8-4.8-2-5.3-2.2
		c-3.1-1.5-6-3-8.7-5.1c-9.7-7.4-10.4-21.2-7.3-32.1c2.6-9.3,7.2-20,15.3-25.8c1.3-2.2,3.5-4.1,6.3-5.6c3-1.7,6.2-2.8,8.9-5.1
		c2.9-2.5,4.6-5.9,6.6-9c5.4-8.2,17.9-27.5,30-20.2c0.8,0.5,1.4,1.1,1.8,1.8c0.2,0,0.4,0,0.6,0c4.6,0,7.3-1.6,10.7-3.5
		c0-0.5,0.1-1,0.5-1.4c4.1-5.1,8.4-3.5,11.8-0.1c1,0.7,1.8,1.7,2.5,3c0,0.1,0.1,0.2,0.1,0.3c0.3,0.5,0.6,1,0.9,1.5
		c2.2,3.8,4,7.8,6.3,11.6c0.5,0.8,0.9,1.5,1.3,2.1c2.1-8.4,6-16.2,13.3-19.6c7.2-3.3,15.5-0.1,21.1,4.9c4.1,3.7,6.8,8.6,10.6,12.6
		c4,4.2,8.9,4.9,14.4,5.2c1.3,0.1,1.9,1.1,1.9,2.2c1.8,0.1,3.6,0.5,5.1,1.6c2.2,1.6,3.4,4,4.3,6.5c2.8,3.6,4,8.4,4.4,13.4
		c0.3,0.9,0.7,1.8,1,2.6c0.5,0.3,0.9,0.8,0.8,1.7c0,0.2-0.1,0.4-0.1,0.5c0.6,2.2,1,4.4,1,6.9c-0.1,6.6-3.1,12.2-7.2,17.1
		c-1,2.4-1.7,4.9-1.6,7.4c0.2,0.5,0.4,0.9,0.7,1.4C-56.6,560.2-51,554-51.5,540.4z"/>
</g>
<polyline class="st3" points="-248.1,601.6 -255.2,618.6 -258.4,632.9 -259.8,645.2 -260.4,674.1 -257.2,695.9 -255.3,704.1 
	-251.3,714.5 -243.3,727.2 -235.6,735.5 -229.9,740.3 -224.7,744 -215.7,749.3 -210.9,751.7 -201.7,755.6 -201.7,760.4 
	-200.6,763.2 -198.5,767.2 -194.7,772.6 -190.4,776.8 -183.7,781.3 -174.6,785.4 -167.9,787.5 -160.1,789.1 -149,790.5 -125,790.5 
	-120,789.8 -110.8,788.5 -100.8,786.3 -93.9,784.1 -83.5,779.3 -77.4,775.2 -72.4,770.5 -68,764.6 -64.6,757.2 -63,750.4 -62.4,744 
	-62.4,742.4 -63.2,740.6 -56.3,735.5 -51,731.2 -44.6,723.9 -40.8,718.8 -35.6,710.5 -32.1,703.2 -28.6,693.3 -22.3,691.3 
	-15.7,689.5 -3.1,686.8 11.5,682.8 21.2,678.5 28,674.1 34.7,667.5 40.6,657.4 43.6,647.6 44.9,640 44.9,621.9 43.7,616.5 
	40.9,609.9 36.1,602.9 30.7,597.9 24.2,593.9 18,591.8 10.3,590.4 4,589.9 -3.2,589.9 -10.2,590.4 -16.2,590.4 -20.9,592.1 
	-28,593.9 -32.2,594.4 -37.3,588 -41.4,582 -45.9,576.4 -51,570.6 -54.5,566 -58.2,561 -55.4,557.3 -52.7,551.5 -51.5,544.9 
	-51.5,538.7 -52.2,531.4 -54.2,520.2 -57.1,511.6 -60.4,505.9 -64.3,502.4 -68.5,501.2 -70.4,501.2 -71.9,501.2 -75,501.2 
	-77,500.7 -80.6,499 -87.1,493.4 -95,484.7 -102.4,478.6 -109.3,476.3 -113.9,475.8 -118,475.7 -123,475.7 -125.5,478.5 
	-127.8,481.1 -129.7,484.3 -131.6,489.1 -135.9,482.5 -139.9,478.1 -146,474.9 -151.1,474.9 -155.8,477 -160,480.3 -164,482.3 
	-169.4,481.1 -175.1,478.7 -178.8,478.1 -182.6,479.4 -186.5,483.5 -191,489.7 -195.5,496.1 -201.3,504.1 -206.2,510.4 -211,514.2 
	-213.5,514.4 -219.3,517.4 -224.8,522.4 -229.9,528.6 -234.6,535.5 -237.4,540.6 -242.9,555.9 -243.3,563.7 -241.5,569.6 
	-238.8,575 -235.9,579.2 -239.3,584 -243.8,592.3 "/>
<path class="st3" d="M-255.2,518.4"/>
<path class="st3" d="M-25,525.3"/>
</svg>
