<?xml version="1.0" encoding="utf-8"?>
<!-- Generator: Adobe Illustrator 19.0.0, SVG Export Plug-In . SVG Version: 6.00 Build 0)  -->
<svg version="1.1" id="Layer_1" xmlns="http://www.w3.org/2000/svg" xmlns:xlink="http://www.w3.org/1999/xlink" x="0px" y="0px"
	 viewBox="104.2 37.9 667.1 670.1" style="enable-background:new 104.2 37.9 667.1 670.1;" xml:space="preserve">
<style type="text/css">
	.st0{fill:none;stroke:#000000;stroke-width:14;stroke-miterlimit:10;}
</style>
<path d="M408.2,147.7L408.2,147.7c7.4,5,18.4-2.1,23.3-8.8c4.9-6.7,0.7-14.5-5.6-16.6c-6.4-2.1-7.1,1.1-10.2,3.2
	c-3.2,2.1-8.1,1.4-14.1,6.7C395.5,137.4,403.4,144.4,408.2,147.7z M414.2,133.2c2.1,0,4.2-3.5,5.3-1.1c1.1,2.5-2.5,9.2-7.1,4.6
	C410.9,135.2,412.1,133.2,414.2,133.2z"/>
<path d="M480.9,69.1c-4.2-6.4-11.3-3.9-13.4-3.6c-2.1,0.4-1.4,0-12.7-2.8c-11.3-2.8-22.2,5-28.6,18.4c-6.4,13.4,7,23.7,14.8,27.3
	c10.2,4.6,18-3.2,29.7-12C482.3,87.5,485.2,75.5,480.9,69.1z M464.7,90.3c-7.1,6.8-14.2,12.5-19.8,7.8c-2.2,0.6-4.6,0.5-6.8-0.6
	c-4.8-2.3-7.3-8.5-4.8-13.3c1.5-2.8,3.2-5.6,5.5-7.8c2.8-2.7,5.6-4.5,9-6.3c2.2-1.2,5.6-0.7,7.8,0.3c1.5,0.7,2.9,1.9,3.9,3.2
	c0.8-0.1,1.6-0.2,2.4-0.3c7.1-1.4,7.1-5,10.2-1.8C475.3,74.8,472.8,82.6,464.7,90.3z"/>
<path d="M458.4,138.6c-6.1-0.5-6.7,3.9-4.9,8.1c1.8,4.2,8.5,8.5,13.4,7.1c4.9-1.4,8.1-4.2,5.6-7.8C470.1,142.5,463,139,458.4,138.6z
	"/>
<path d="M394.7,81.4c-10.6-6.7-27-8.9-34.6,1.8c-7.1,9.9-4.6,32.2,2.8,37.9c7.4,5.7,21.5,3.2,35-9.2
	C411.3,99.4,405.3,88.1,394.7,81.4z M397.6,99.9c-1,4.7-3.9,8.9-7.8,11.6c-1.7,1.1-3.5,2.2-5.5,2.8c-3.1,1-5.3,1.1-8.5,0.9
	c-1.9-0.1-3.9-0.7-5.5-1.7c-2.4-1.5-3.2-2.1-5-4.2c-0.9-1-1.5-2.5-2.1-3.7c-2.4-4.9-1.8-11.3-0.6-16.5c1.2-5,5.6-8.6,10.8-8.1
	c0.8-0.6,1.6-1.1,2.6-1.4c2.7-1,5.1-0.6,7.8,0.3C391.9,82.9,399.6,90.4,397.6,99.9z"/>
<path d="M631.4,574.6L631.4,574.6c-1.4-15.6-13.8-38.9-42.4-80.7c-28.6-41.8-110.5-139.4-115.1-146.2s-3.2-108.3-2.8-109.7
	c0.4-1.4,9.2-5,18-15.2c8.8-10.3-0.4-38.6-5.7-48.1c-5.3-9.6-6.4-5.3-8.8-5.3c-2.5,0-3.5-0.7-6.4-2.1c-2.8-1.4-10.6-8.8-28.6-12
	c-18-3.2-37.1,1.1-53.3,3.9c-16.2,2.8-19.8,13.4-21.9,15.9c-2.1,2.5,0,0-3.2,1.8c-3.2,1.8-8.8,9.6-9.5,25.1
	c-0.7,15.6,8.5,32.6,11.7,34.7c3.2,2.1,13.7,0.8,15.5,3.5c2.1,3.2,4.9,85.3,4.9,100.9c0,15.6-14.1,34.7-43.8,78.2
	c-29.7,43.5-84.4,116.1-94.3,139.4c-9.9,23.4-2.8,40.4,8.5,52.4c11.3,12,45.9,14.9,109.1,15.9c63.2,1.1,130.3,4.3,171.6,3.9
	c41.3-0.4,54.7-5.3,74.5-14.2C629.2,607.9,632.8,590.2,631.4,574.6z M424.7,169.4c15.5,0.7,29.3,2.1,25.4,5.3
	c-3.9,3.2-19.4,6.4-36.4,6.4c-17,0-31.1-1.4-30.7-4.3C383.5,173.3,409.2,168.7,424.7,169.4z M353.1,422.4
	c19.6-19.8,36.8-45.6,40.8-73.7c2.2-15.8,0.4-32.4-0.9-48.2c-1.3-16.3-3.1-32.5-4.2-48.8c-0.6-7.8,6.6-11.5,12.5-10.3
	c0.2-0.5,0.4-0.7,0.8-0.8c2.8-0.4,18.4,3.5,21.5-1.1c1.8-2.6,4-4.9,4.2-6.9c-8.2-0.2-16.3-0.7-24.5-1.5c-8-0.8-16.7-1.1-24.5-3.3
	c-6.9-2-12.6-5.3-15.6-12.1c-2.6-5.9-2.5-12.7-2.5-19c0-5.4,3.3-10.3,9.1-10.8c0,0,0,0,0.1,0c2.6-2.8,6.6-4.1,11.1-2.1
	c13.7,6.3,29.4,2.5,43.4-0.7c15-3.4,30.8-7.2,46.1-3.1c4.2,1.1,7.5,4.3,8.1,8.4c0.6,0.8,1.1,1.8,1.5,2.9c2.8,8.5,2.8,18.5-3.5,25.5
	c-3,3.3-6.4,5.7-10.2,7.4c-1.1,19.8-4,39.4-6,59.1c-1.9,19-3.7,39.6,0.9,58.4c1.6,6.6,3.9,12.8,6.8,18.7
	c7.3,8.8,14.3,17.9,21.5,26.8c11.4,13.9,27.1,24,37.3,38.8c5.1,7.5-1.4,16.8-10,15.6c-7.2-1-14.5,8-19.4,12.3
	c-3.7,3.2-8.4,2.3-11.7-0.4c-3,4.4-7.1,8.1-12.4,9.4c-5.6,1.3-11.3,1-15.9-1.9c-1.4,1.6-2.3,2.2-2.5-0.1c0-0.5,0-1.1,0-1.9
	c-0.4-0.4-0.7-0.7-1.1-1.1c-3.3-3.9-3.6-9.1-3.7-13.9c0-1.4,0-2.8-0.2-4.2c-0.1-0.6-0.1-0.9-0.1-1c-0.1-0.1-0.1-0.3-0.2-0.6
	c0.6,1.6-0.4-0.8-0.6-1.1c-0.1-0.1-2-2.4-0.7-1.1c-3.4-3.4-5.3-4.7-9.9-6.2c1.3,0.4-2.1-0.5-2.5-0.5c-0.2,0-2.9-0.2-1.6-0.2
	c-0.8,0-1.7,0-2.5,0.1c-0.3,0-0.4,0.1-0.6,0.1c-0.1,0-0.3,0.1-0.4,0.2c-0.4,0.1-2.6,1.5-1,0.4c-0.4,0.3-0.6,0.4-0.7,0.4
	c-0.1,0.1-0.1,0.1-0.2,0.2c-0.4,3.6-0.8,7.1-2,10.6c-2.6,7-10,12.9-17.7,12.6c-10.3-0.5-20.4-7.5-28.3-15.3
	c-6.5-0.7-11.8-1-15.3-1.2c-3.5,2-7.8,2-11.3-0.9C350.5,433.2,349.3,426.3,353.1,422.4z M608.1,601c-7.1,8.4-17.8,12.9-28.3,15.3
	c-11.7,2.7-23.4,3.9-35.3,4.6c-14.7,0.8-29.5,2.2-44.2,2.5c-32.8,0.7-65.5-2.2-98.1-6.2c-15.9-1.9-31.9-5-47.9-5.8
	c-15.5-0.7-31,0.5-46.5-0.4c-21.2-1.2-53.3-6.9-53.9-34.2c-0.4-19.4,10.6-36.6,16.9-54.3c0.7-2.1,2.4-3.7,4.4-4.6
	c0.2-0.5,0.4-0.9,0.6-1.4c11.2-20.4,25.6-40.2,43.1-55.7c8.5-7.5,18.9-14.6,30.5-15.8c7.6-0.8,14.5,1.2,20.3,5.1
	c2.1,0.4,4.4,1,6.6,1.8c17.3,6,27.5,12.7,36,12.7c8.5,0,14.5-2.5,19.8-11c5.3-8.5,5.7-13.8,5.7-13.8s4.9,1.8,3.5,9.2
	c-1.4,7.4-3.9,19.1,0,23.3c3.9,4.3,9.5,4.3,13.8,2.1c4.2-2.1,8.8-6,12-5c3.2,1.1,2.1,6,8.1,8.1c6,2.1,14.1-1.4,14.8-4.6
	c0.7-3.2,1.1-9.6,3.2-9.6c2.1,0,7.1,3.2,11.3-0.4c4.2-3.5,6.4-12.7,9.2-12.7c2.8,0-2.1,7.4,6,7.1c8.1-0.3,8.8-4.6,10.6-4.2
	c1.8,0.4,11.6,15.9,9.9,17.7c-1.8,1.8-19.4,24.4-17.3,27.3c2.1,2.8,6.4,4.3,9.5,1.4c3.2-2.8,13.8-20.5,16.2-19.1
	c2.5,1.4,4.2,6.4,3.5,7.4c-0.7,1.1-26.5,34-27.9,37.1c-1.4,3.2,4.2,5.3,7.4,3.9c3.2-1.4,26.1-32.6,30.4-30.4c4.2,2.1,7.8,8.1,6,9.6
	c-1.8,1.4-29,36.5-35,41.4c-6,5-9.9,11.3-3.9,11c6-0.4,20.8-16.3,25.1-20.5c4.2-4.3,18.7-24.1,21.9-22c3.2,2.1,8.5,6.7,4.2,9.2
	c-4.2,2.5-31.4,34.7-35.3,38.2c-3.9,3.5-9.5,5.3-8.5,7.8c1.1,2.5,6,3.9,12.4-1.1c6.4-5,35.7-38.9,38.1-37.2
	c2.5,1.8,10.2,11.3,6.7,13.8c-3.5,2.5-24.4,34-32.8,40c-8.5,6-15.9,10.6-18.7,12c-0.1,0-0.1,0.1-0.2,0.1c4.5-0.2,9-0.5,13.4-1
	c0.6-0.1,1.3-0.1,1.9-0.2c5-2.9,10.1-6.5,13.1-9.9c6-6.7,28.6-33.6,30.7-31.5c0.5,0.5,1.1,1.1,1.6,1.7c3.9-0.2,7.7,1.7,9.3,6.2
	C616.2,577.9,616.5,591.2,608.1,601z"/>
<path d="M485.7,463c0.8-1.2,1.7-2.4,2.7-3.4C487,460.5,486.1,461.6,485.7,463z"/>
<path d="M443.7,588.5c-3.5-7.1-19.4-10.3-29-8.1h0c-7.8,1.8-16.6,5.3-19.8,14.9c-4.8,14.3,12.7,15.9,28.3,13.8
	C438.8,606.9,447.3,595.5,443.7,588.5z M426.3,603c-0.2,0-0.4,0-0.6,0c-0.1,0-0.2,0-0.4,0c-0.4,0-0.8,0-1.1-0.1
	c-0.3,0-0.6,0.1-0.9,0.1c-1.6,0-3.1-0.3-4.5-0.8c-1.4,0.5-2.7,0.8-3.9,1c-1.1,0.5-2.3,0.9-3.5,0.9c-5.4,0-10.3-3.3-10.8-9.1
	c-0.4-5.1,3.6-10.8,9.1-10.8c0.5,0,1.1,0,1.6,0.1c1.5-1.3,3.4-2.1,5.4-2.1c1.8,0,3.4,0.3,5,1c0,0,0,0,0,0c0.4,0,0.8,0,1.2,0.1
	c0.3,0,0.6-0.1,0.8-0.1c0.2,0,0.4,0,0.6,0c0.1,0,0.2,0,0.4,0c5.4,0,10.3,3.3,10.8,9.1C435.9,597.2,431.8,603,426.3,603z"/>
<path d="M472,555.6L472,555.6c-11.3,5-17,15.2-9.6,24.1c7.4,8.8,22.2,13.8,31.8-2.8C503.8,560.1,480.4,551.9,472,555.6z M488.4,575
	c-0.6,4.5-4.3,8.9-9.1,8.9c-3.3,0-6.4-1.2-8.4-3.5c-3.9-1.1-7-4.1-7.4-8.6c-0.4-5.1,3.6-10.8,9.1-10.8c0.1,0,0.1,0,0.2,0
	c0.9-0.5,1.9-0.8,2.9-0.9c1.2-0.7,2.5-1.1,3.9-1.1c5.4,0,10.3,3.3,10.8,9.1C490.6,570.5,489.8,573,488.4,575z"/>
<path d="M432.4,522.3c-4.9-3.2-15.2-6-27.5,1.8c-12.4,7.8-5.2,22-3.2,24.4c6.7,7.8,18,1.8,27.5-4.6v0
	C438.8,537.5,437.4,525.5,432.4,522.3z M424.7,542.6c-1.6,2.5-4.3,4.4-7.4,4.4c-2.8,0-5.4-0.9-7.4-2.4c-4-1.1-7.1-4.1-7.5-8.6
	c-0.4-5.1,3.6-10.8,9.1-10.8c0.1,0,0.1,0,0.2,0c1.2-0.6,2.5-1,3.8-1c0.4,0,0.7,0,1.1,0c1.2-0.7,2.5-1,3.9-1c5.4,0,10.3,3.3,10.8,9.1
	C431.8,536.4,428.9,541.2,424.7,542.6z"/>
<path d="M428.6,277.2c0-0.3,0.1-0.6,0.2-0.9c-2,0.1-4.1,0.8-5.5,1.7c-3.2,2.1,1.8,29.4,3.9,37.9c2.1,8.5,5.3,11,8.8,11
	c1.1,0,1.6-3.9,1.8-9.4C430.4,305.8,426.6,290.3,428.6,277.2z"/>
<path d="M369.9,560.9c-6.4-6-14.8-7.9-20.8-5.7h0c-16.3,6-18,24.1-11.7,29c6.4,5,11.3,8.1,24.4,0.7
	C374.9,577.5,376.3,566.9,369.9,560.9z M357.3,579c-0.5,0-1.1,0-1.6-0.1c-1.5,1.3-3.3,2.1-5.4,2.1c-5.4,0-10.3-3.3-10.8-9.1
	c-0.3-3.8,1.9-8.1,5.4-9.9c1.6-2.8,4.4-4.9,7.7-4.9c3.1,0,6,1.1,8,3c3.1,1.4,5.5,4.2,5.8,8.1C366.9,573.2,362.8,579,357.3,579z"/>
<ellipse class="st0" cx="437.7" cy="372.9" rx="326.6" ry="328.1"/>
<line class="st0" x1="632.4" y1="110.6" x2="227.5" y2="624.4"/>
</svg>
