<?xml version="1.0" standalone="no"?>
<!DOCTYPE svg PUBLIC "-//W3C//DTD SVG 1.1//EN" "http://www.w3.org/Graphics/SVG/1.1/DTD/svg11.dtd" >
<svg xmlns="http://www.w3.org/2000/svg">
<metadata></metadata>
<defs>
<font id="cf_great_destinyregular" horiz-adv-x="2048" >
<font-face units-per-em="2048" ascent="1657" descent="-391" />
<missing-glyph horiz-adv-x="278" />
<glyph horiz-adv-x="0" />
<glyph unicode="&#xd;" horiz-adv-x="0" />
<glyph horiz-adv-x="0" />
<glyph horiz-adv-x="0" />
<glyph unicode=" "  horiz-adv-x="278" />
<glyph unicode="&#x09;" horiz-adv-x="278" />
<glyph unicode="&#xa0;" horiz-adv-x="278" />
<glyph unicode="!" horiz-adv-x="184" d="M51.5 792q-2.5 259 7.5 506q0 16 10.5 24.5t22.5 8.5t22.5 -8t10.5 -25q-10 -248 -8 -506.5t14 -506.5q0 -16 -9 -24.5t-21.5 -8.5t-23.5 8t-11 25q-12 248 -14.5 507zM53 25v44t2 44q0 16 10.5 24t22.5 8t22.5 -8t10.5 -24v-44.5t-2 -43.5q0 -16 -10.5 -24.5t-22.5 -8.5 t-22.5 8t-10.5 25z" />
<glyph unicode="$" horiz-adv-x="409" d="M45 956.5v135.5q0 45 6 91t35 81q14 20 33.5 32.5t42.5 20.5v98q0 16 10 24.5t22.5 8.5t22.5 -8t10 -25q0 -23 1 -45t1 -45q10 0 19.5 -2t19.5 -6q49 -16 79 -57t18 -95q-4 -16 -15.5 -20t-24 -1t-20.5 13t-4 27q8 33 -17.5 51t-54.5 22l7 -577q18 -10 35.5 -20.5 t33.5 -26.5q41 -41 49 -92.5t11 -104.5q0 -68 1 -135.5t3 -134.5q0 -53 -6.5 -103.5t-59.5 -76.5q-25 -10 -61 -15q2 -23 2 -44v-44q0 -16 -10.5 -23t-22.5 -7t-22.5 7t-10.5 23q-2 25 -2 48.5v48.5q-25 8 -51 24q-41 31 -56.5 77t-7.5 95q2 14 12.5 19.5t23 2.5t21.5 -14.5 t7 -25.5q-4 -31 9 -61.5t42 -47.5q-2 150 -3 297.5t-3 294.5l-31 18q-92 58 -92 164q-2 66 -2 133.5zM111 1081q2 -35 2 -66.5v-64.5q0 -35 -1 -68.5t1 -66.5q2 -27 10 -47t29 -37q4 -4 16 -12q-2 133 -2 263t-2 263q-35 -20 -45 -67q-6 -25 -7 -49.5t-1 -47.5zM236 604 q2 -141 3 -283.5t3 -283.5q16 2 29.5 7t21.5 17q14 25 12 57t-4 58v64.5t-2 66.5v70t-2 69q0 27 -1 52.5t-11 50.5q-16 33 -49 55z" />
<glyph unicode="'" horiz-adv-x="198" d="M61.5 1223.5q6.5 17.5 4.5 33.5q-2 14 0 33q0 8 -1.5 14.5t1.5 14.5q2 10 14 14t24.5 4t21.5 -5t7 -13q-4 -8 -3 -15.5t1 -15.5v-33q2 -16 -4 -32.5t2 -32.5q4 -8 -4 -13.5t-20.5 -5.5t-24.5 4.5t-17 14.5q-8 16 -1.5 33.5z" />
<glyph unicode="(" horiz-adv-x="284" d="M39 693.5q-2 189.5 35 376.5t112 364q6 14 19.5 18t25 1t18.5 -14.5t1 -25.5q-74 -168 -110 -349t-35 -363.5t40 -362.5t117 -348q6 -14 0 -26.5t-16 -18.5t-23.5 -3t-19.5 17q-80 172 -121 358.5t-43 376z" />
<glyph unicode=")" horiz-adv-x="329" d="M61 -10q76 168 116 348t41 362.5t-35 363.5t-109 349q-6 14 1 25.5t18 14.5t24.5 -1t19.5 -18q76 -176 113 -363.5t35 -377t-43 -376t-121 -358.5q-6 -14 -19.5 -17t-23.5 3t-16.5 18.5t-0.5 26.5z" />
<glyph unicode="," horiz-adv-x="215" d="M40 -81q1 13 13 24q12 10 13.5 28.5t-0.5 30.5q-2 23 -2.5 44.5t6.5 43.5q4 14 19 19.5t30.5 2.5t27 -14.5t7.5 -25.5q-6 -27 -2 -53.5t0 -55.5q-4 -25 -25 -44.5t-39 -33.5q-12 -10 -24.5 -6t-18.5 15.5t-5 24.5z" />
<glyph unicode="-" horiz-adv-x="432" d="M53 555q0 12 7.5 22.5t23.5 10.5h266q16 0 24.5 -10.5t8.5 -22.5t-8 -22.5t-25 -10.5h-266q-16 0 -23.5 10.5t-7.5 22.5z" />
<glyph unicode="." horiz-adv-x="223" d="M55 50q0 16 2 32q4 14 16.5 20.5t24.5 1.5q2 0 3 -1t3 -1q6 6 13 7q16 4 26.5 -3.5t14.5 -19.5q14 -33 6 -59q-6 -16 -19.5 -27.5t-29.5 -11.5t-30.5 8t-21.5 22q-8 16 -8 32z" />
<glyph unicode="0" horiz-adv-x="460" d="M74 334q0 121 2 238.5t2 238.5q2 106 0 212.5t14 211.5q12 96 105 108q41 4 78.5 -6t66.5 -43q16 -16 20.5 -38.5t8.5 -45.5q4 -29 4 -57t2 -57v-82t2 -82q2 -92 5 -182.5t3 -182.5q-2 -92 -2 -181t-4 -181q-2 -41 -6 -83t-27 -77q-29 -41 -82 -49t-96 10q-2 0 -2 1t-2 1 l-4 2q-4 4 -8 6t-9 7q-27 23 -39 57.5t-18 69.5q-8 45 -11 91t-3 93zM141 356q0 -47 1 -92t10 -90q4 -29 12 -61.5t35 -46.5q18 -10 38.5 -7.5t38.5 9.5q14 6 21.5 21t11.5 30q4 29 5 59.5t1 59.5q2 76 3 150.5t1 148.5q2 139 -3 276t-7 274v58t-4 57q-4 23 -8 38t-23 28 q-10 6 -27.5 9t-35.5 2t-32.5 -9t-18.5 -25q-10 -43 -11.5 -88t-3.5 -88v-225q-2 -123 -3 -244t-1 -244z" />
<glyph unicode="1" horiz-adv-x="460" d="M119 1149q-2 12 8 25q35 35 79 60.5t73 65.5q10 16 29.5 15.5t27.5 -15.5q10 -12 4 -26q-8 -317 -7 -629.5t9 -630.5q0 -16 -10 -24t-22.5 -8t-24 8t-11.5 24q-8 299 -8 595t6 595q-25 -18 -50 -36.5t-48 -41.5q-10 -12 -23.5 -10t-21.5 11.5t-10 21.5z" />
<glyph unicode="2" horiz-adv-x="460" d="M84 1030q-4 59 1 118.5t42 108.5q29 41 75 57.5t93 0.5q51 -18 67.5 -68.5t16.5 -99.5q-2 -63 -14.5 -124.5t-26.5 -125.5q-29 -133 -56.5 -254t-56.5 -252q-12 -63 -24.5 -125.5t-18.5 -128.5q-2 -16 -3 -31.5t-3 -31.5v-11h23h127q16 0 24 -10t8 -22.5t-8 -22.5 t-24 -10h-127q-25 0 -47.5 2t-36.5 25q-6 10 -5 23t1 26q0 16 1 31.5t3 31.5q4 29 8 57.5t8 57.5q23 121 48.5 229.5t51.5 229.5q12 61 25.5 123.5t26.5 123.5q12 55 23 112.5t3 117.5q-2 23 -12 43t-35 24q-45 6 -74 -24q-37 -41 -39 -95.5t3 -105.5q0 -16 -9.5 -24.5 t-21.5 -8.5t-23.5 8.5t-13.5 24.5z" />
<glyph unicode="3" horiz-adv-x="460" d="M84 993v77t6 80t21.5 76t46.5 62q29 25 60.5 29t60 -7.5t50 -36t31.5 -56.5q10 -41 10.5 -85.5t0.5 -84.5q2 -43 2 -85v-85q0 -35 1 -76t-22 -74q-4 -6 -9 -11t-9 -11q12 -12 16 -21q18 -35 20.5 -73t2.5 -76q4 -86 4 -173.5t-4 -175.5q-2 -33 -10.5 -67.5t-26 -65 t-44 -51t-65.5 -22.5q-37 -2 -66.5 14t-48 42.5t-24.5 60.5t2 69q4 14 16.5 19t24.5 2t20.5 -14t4.5 -26q-6 -23 -1 -50t27 -42q20 -10 41 -9t37 17q39 37 43 92.5t4 104.5q2 123 0 242q0 10 1 37.5t-2 56.5t-12 50.5t-28 21.5q-4 0 -9 -1t-11 -1q-14 -2 -22.5 6t-9.5 20.5 t5 23.5t19 15q6 2 11 3t11 1q20 6 31.5 22.5t13.5 37.5q4 31 3 62.5t-3 62.5q0 59 2 119.5t-4 119.5q-2 23 -11 49.5t-32 38.5q-23 10 -44 0t-34 -30q-29 -49 -30.5 -108.5t0.5 -115.5q0 -16 -10.5 -24t-23 -8t-23.5 8t-11 24z" />
<glyph unicode="4" horiz-adv-x="460" d="M43 424q-2 8 0 16q47 217 80 434.5t51 438.5q0 16 11.5 23t23.5 7t22.5 -8t8.5 -24q-16 -215 -48 -426t-77 -422l147 -6q0 35 -1 66.5t-3 66.5q0 16 10.5 23.5t22.5 7.5t23.5 -8.5t11.5 -24.5q2 -33 2 -66t2 -67h28.5t28.5 -2q16 0 23.5 -11.5t7.5 -23.5t-8.5 -21.5 t-24.5 -9.5h-27.5t-27.5 2q0 -92 -1 -184t3 -185q0 -16 -9.5 -23t-21.5 -7t-23.5 8t-11.5 25q-4 92 -3 184t1 184l-190 6q-27 2 -31 27z" />
<glyph unicode="5" horiz-adv-x="460" d="M70 668q2 117 3 233.5t5 233.5v58.5t2 57.5q0 23 3 51.5t32 32.5t60.5 4t60.5 -2h116q16 0 24.5 -10t8.5 -22.5t-8 -22.5t-25 -10h-116h-54h-32h-5q0 -47 -1 -94.5t-1 -94.5q-2 -82 -3 -163.5t-3 -165.5q18 16 39 29.5t43 19.5q39 12 80 0q43 -14 59 -58 q8 -16 13.5 -31.5t7.5 -31.5q2 -14 1 -27.5t-1 -27.5q8 -111 12 -226v-119.5t-2 -119.5q0 -20 -1 -44t-6 -44.5t-17.5 -37t-36.5 -22.5q-35 -10 -77 -11t-77 5q-29 6 -43 22.5t-20.5 38t-5.5 47t1 48.5q0 16 11.5 24.5t24 8.5t22.5 -8.5t10 -24.5q-2 -27 0 -53 q0 -4 -1 -18.5t3 -16.5q12 -4 27.5 -4h27.5q6 0 20.5 -1t29 0t25.5 5t13 12q4 43 4.5 86t2.5 86v87t-2 87t-3.5 87t-5.5 87q-2 20 -1 43t-5 39q-4 10 -8 26.5t-14 20.5t-25.5 5t-25.5 -3q-31 -10 -58.5 -35.5t-46.5 -52.5q-14 -18 -38.5 -14t-22.5 31z" />
<glyph unicode="6" horiz-adv-x="460" d="M51 451q-6 131 0 262t27 262q10 63 20.5 126.5t30.5 123.5q10 33 31.5 64.5t52.5 47.5q4 4 10 4q27 10 56 -2q33 -4 57 -18q45 -35 61 -94q4 -16 -4 -27.5t-20.5 -14.5t-24.5 2t-16 21t-12.5 32.5t-24.5 25.5q-10 6 -23 6q-6 0 -8 2h-26q-18 -6 -30.5 -33t-22 -58.5 t-14.5 -60t-7 -41.5q-12 -68 -22.5 -136t-16.5 -136q-2 -29 -4 -58.5t-2 -58.5q4 8 9 14.5t9 14.5q31 37 72 64.5t92 17.5q35 -6 56.5 -26.5t31.5 -47.5t14.5 -57.5t6.5 -61.5q8 -145 -11 -301q-8 -59 -20 -121.5t-43 -115.5q-12 -20 -31.5 -38t-41 -29t-46 -13t-49.5 10 q-27 12 -42 33.5t-24.5 47.5t-14.5 53t-9 52q-10 66 -16.5 131.5t-10.5 131.5zM117 514q2 -59 5 -116.5t11 -116.5l8 -66t13 -65q4 -20 11 -48t30 -39q23 -10 44 4.5t33 30.5q16 25 24.5 51.5t14.5 55.5q16 66 23.5 132t9.5 134q2 35 2 69.5t-4 69.5q-2 25 -3 58.5t-20 52.5 q-16 16 -34.5 16t-36 -8t-33 -22.5t-25.5 -28.5q-29 -35 -48 -77t-25 -87z" />
<glyph unicode="7" horiz-adv-x="460" d="M51 1296.5q0 12.5 8.5 21.5t24.5 9q141 -10 281 -6q12 0 16 -2q12 -4 21.5 -14.5t5.5 -26.5q-41 -152 -60.5 -307.5t-32 -311t-24.5 -312.5t-35 -310q-2 -16 -13.5 -21.5t-23.5 -2.5t-20.5 13.5t-5.5 26.5q23 150 34 301.5t23 302t29.5 300t54.5 296.5q-63 0 -126 2.5 t-124 6.5q-16 0 -24.5 11t-8.5 23.5z" />
<glyph unicode="8" horiz-adv-x="460" d="M57 152q-2 61 0 123.5t2 123.5q2 35 1 70t1 70q2 27 5.5 54.5t17.5 51.5q12 16 20 25q-27 23 -36 54.5t-11 66.5q-2 61 0 123.5t2 123.5q2 35 1 69t1 69q2 29 5.5 56.5t17.5 51.5q14 23 33.5 39t46.5 20q14 4 27.5 3.5t25.5 -0.5q35 0 71 -1.5t64 -29.5 q20 -23 30.5 -49.5t14.5 -55t4 -59.5v-59q0 -66 1 -133.5t1 -135.5q2 -41 -8 -83t-41 -66q20 -23 29.5 -49.5t13.5 -55t4 -58.5v-56q0 -68 1 -135.5t1 -135.5q0 -27 -3 -54.5t-13 -51t-28.5 -42t-49.5 -24.5q-41 -10 -86 -12t-84 12q-47 16 -63.5 54t-18.5 86zM122 205.5 q-1 -25.5 1 -53.5q2 -16 4 -37t14 -31t32 -12t36 -4q35 0 72 6q16 4 29.5 10t19.5 22q6 20 7 39t1 39q-2 61 -2 124t-2 124q0 31 1 62.5t-3 62.5q-2 23 -9.5 47.5t-29.5 34.5q-10 4 -24.5 3t-24.5 -1h-6q-23 -4 -45 0q-25 0 -38.5 -14.5t-19.5 -34t-7 -43t-1 -41.5 q0 -61 -1 -123.5t-1 -124.5q-2 -29 -3 -54.5zM122 844.5q-1 -25.5 1 -53.5q2 -16 4 -37t14 -33q12 -10 32 -12t36 -2q35 0 72 6q16 4 29.5 10t19.5 22q6 18 7 38t1 40q-2 61 -2 124t-2 124q0 31 1 62.5t-3 62.5q-2 23 -9.5 46.5t-29.5 33.5q-10 4 -24.5 3t-24.5 -1h-51 q-25 0 -38.5 -13.5t-19.5 -34t-7 -43t-1 -40.5q0 -63 -1 -125t-1 -123q-2 -29 -3 -54.5z" />
<glyph unicode="9" horiz-adv-x="460" d="M49 727q-8 150 10 305q10 59 21.5 123t44.5 115q27 41 73 68.5t95 2.5q27 -12 42 -33.5t24.5 -47t14.5 -54t9 -53.5q10 -66 17.5 -132.5t11.5 -131.5q6 -133 -0.5 -265.5t-26.5 -263.5q-10 -63 -21.5 -128.5t-31.5 -125.5q-10 -33 -31.5 -65.5t-52.5 -46.5q-4 -4 -10 -4 q-25 -10 -56 0q-35 6 -59 20q-45 31 -62 94q-4 16 4.5 27.5t20.5 15t24.5 -2t16.5 -21.5t12 -32.5t25 -24.5q12 -6 24 -7q4 0 9 -2h26q18 6 30.5 33t22 58.5t13.5 61.5t8 42q14 70 23.5 137.5t15.5 136.5q4 29 5 58.5t3 60.5q-4 -8 -10 -15t-10 -14q-31 -39 -72 -65.5 t-94 -15.5q-35 6 -56.5 25.5t-32 47t-14.5 58t-6 61.5zM115 797.5q0 -35.5 2 -70.5q2 -25 3 -58.5t21 -52.5q16 -16 35 -16t36 8t32.5 22.5t25.5 28.5q29 35 48.5 77t27.5 89q-4 117 -18 234q-4 35 -8.5 67.5t-12.5 65.5q-4 23 -11 50.5t-30 37.5t-45 -4t-33 -33 q-27 -45 -41 -104q-29 -131 -32 -271v-70.5z" />
<glyph unicode=":" horiz-adv-x="208" d="M55 70.5q0 15.5 2 31.5q4 14 16.5 20.5t24.5 2.5q2 0 3 -1t3 -1q6 6 13 6q16 4 26.5 -3t14.5 -20q14 -33 6 -59q-6 -16 -19.5 -27.5t-29.5 -11.5t-30.5 8.5t-21.5 22.5q-8 16 -8 31.5zM55 910.5q0 15.5 2 31.5q4 14 16.5 20.5t24.5 2.5q2 0 3 -1t3 -1q6 6 13 6 q16 4 26.5 -3.5t14.5 -19.5q14 -33 6 -59q-6 -16 -19.5 -27.5t-29.5 -11.5t-30.5 8t-21.5 23q-8 16 -8 31.5z" />
<glyph unicode=";" horiz-adv-x="186" d="M32 -83q1 13 13 24q14 10 14 28.5v32.5q-2 23 -2 43.5t4 42.5q4 14 19.5 19.5t32 2t27 -13.5t5.5 -24q-6 -29 -0.5 -55.5t0.5 -55.5q-4 -25 -24.5 -43.5t-40.5 -34.5q-12 -10 -24.5 -5t-18.5 15.5t-5 23.5zM47 908.5q0 15.5 4 31.5q2 14 15.5 21.5t25.5 3.5q2 -2 6 -2 q2 2 5 3t8 3q14 4 24 -3.5t17 -19.5q4 -14 7 -29.5t-3 -29.5q-6 -16 -20 -27.5t-30 -11.5q-35 0 -51 29q-8 16 -8 31.5z" />
<glyph unicode="?" horiz-adv-x="376" d="M61 1212q10 35 37 59.5t59.5 35t66.5 4.5t63 -33q33 -31 46 -69t13 -78.5t-8 -82.5t-19 -81q-25 -90 -52 -181.5t-46.5 -184.5t-28 -187.5t8.5 -188.5q2 -16 -6.5 -26.5t-20.5 -13.5t-23.5 1t-13.5 21q-14 82 -11 162t15.5 159.5t33 158.5t42.5 157q10 41 21.5 81 t21.5 81q10 37 18.5 77.5t-2.5 79.5q-6 27 -24.5 55.5t-50.5 28.5q-25 0 -46.5 -13t-29.5 -38q-4 -16 -16.5 -21.5t-24.5 -2t-19.5 13.5t-3.5 26zM127 31q6 27 2 61q-2 14 9.5 24.5t23.5 10.5q16 0 23.5 -10.5t9.5 -24.5q6 -37 -5 -80q-4 -14 -16 -20t-24 -2q-14 4 -20.5 15 t-2.5 26z" />
<glyph unicode="A" horiz-adv-x="483" d="M37 4q33 326 74 651q20 168 42.5 334t51.5 332q4 19 16 23q6 2 12 2q7 0 15 -3q12 0 22.5 -7t14.5 -23q23 -160 40 -322t34.5 -322.5t36.5 -321t48 -320.5q0 -3 1 -6q0 -11 -8 -21q-9 -12 -21.5 -15t-23.5 2t-13 21q-16 98 -30.5 197.5t-26.5 197.5h-86t-89 -2 q-10 -100 -21 -198.5t-22 -198.5q-2 -16 -14 -24.5t-24 -8.5q-13 1 -22 9q-7 7 -7 18v6zM156 469q41 2 78.5 2h78.5q-18 164 -34.5 325.5t-36.5 325.5q-18 -119 -33.5 -236.5t-32.5 -238.5q-4 -45 -9 -89t-11 -89z" />
<glyph unicode="B" horiz-adv-x="407" d="M25 1292q-1 4 -1 9q0 9 4 17q7 14 21 15q17 2 33 2q42 -1 82 -15q56 -20 96 -65q43 -49 60.5 -109.5t19.5 -123.5q2 -35 2 -71q0 -37 -2 -73q-4 -74 -31 -139q-16 -47 -49 -73q20 -16 31.5 -40t21.5 -51q25 -63 36 -129q9 -56 9 -114v-21q0 -35 -3 -68.5t-7 -68.5 q-4 -29 -8 -58.5t-21 -58.5q-31 -57 -89 -69q-41 -9 -82 -9q-16 0 -33 1q-12 0 -23 10q-16 -6 -31.5 0t-15.5 28q2 315 2 626.5t-4 627.5q-12 6 -18 20zM109 1268q2 -145 3 -288.5t1 -289.5q4 2 10 2q23 4 45 7t41 14q23 14 33 36.5t14 47.5q12 53 16 107q3 36 3 72 q0 18 -1 36q-4 49 -13 100t-42 90q-23 23 -50.5 41.5t-59.5 24.5zM113 45h2h49t45.5 6t38 20.5t22.5 43.5q12 49 16.5 101t4.5 103q0 53 -7.5 106.5t-23.5 104.5q-8 20 -18.5 50t-30.5 41q-18 9 -39 9h-4q-23 -1 -45 -3h-10q1 -98 1 -194v-97q-1 -144 -1 -291z" />
<glyph unicode="C" horiz-adv-x="382" d="M36 452q0 27 -1 55q0 108 2 216q2 68 2 135.5t4 134.5q2 35 4 69t6 68q4 29 8.5 60t14.5 59q10 25 25.5 45.5t43.5 30.5q31 10 65 10q21 0 44 -4q46 -10 76 -54q23 -33 22 -68q0 -11 -2 -23q-4 -16 -16 -20.5t-24.5 -1.5t-20.5 13.5t-4 26.5q4 14 -6.5 32.5t-24.5 25.5 q-16 8 -45 7t-45 -9q-18 -8 -23.5 -31t-9.5 -39q-4 -29 -8 -54.5t-6 -54.5q-10 -111 -10.5 -221t-2.5 -221q-1 -56 -1 -112.5t1 -112.5q2 -112 25 -224q4 -23 10 -45t17.5 -42.5t28 -36t40.5 -21.5q16 -4 37 -1t25 26q4 18 2 36.5t0 36.5q2 16 13 24.5t23.5 8.5t22.5 -7 q8 -6 8 -19v-5q-2 -29 -1 -55.5t-9 -50.5q-10 -27 -30 -41t-46 -20q-13 -3 -26.5 -2.5t-26.5 2.5q-27 6 -47 18q-53 29 -75.5 79t-33.5 107q-25 134 -25 270z" />
<glyph unicode="D" horiz-adv-x="403" d="M32 1314q6 16 22 16q3 0 7 -1q45 -4 88.5 -19.5t83.5 -35.5q43 -20 70 -51t37 -80q23 -127 30 -254q5 -99 6 -199q0 -29 -1 -57q-2 -66 -3 -129.5t-5 -128.5q-2 -33 -4.5 -64.5t-4.5 -64.5q-2 -29 -4 -58.5t-12 -56.5q-12 -41 -42 -61.5t-64.5 -33.5t-72.5 -23.5 t-69 -28.5q-10 -6 -18 -6q-12 0 -22 11q-17 19 -7 38q-4 4 -4 16q1 156 1 310q0 153 -1 307q-2 306 -8 618q-6 9 -6 20q0 8 3 16zM102 1255q4 -299 8 -596q2 -139 1 -278q0 -159 -2 -318q23 8 42 13.5t42 13.5q16 6 31.5 11t29.5 16q16 10 20.5 21.5t8.5 29.5 q12 55 13 112.5t5 114.5l4 114t2 114q1 33 1 67q0 84 -4 166q-5 116 -21 231q-4 23 -8.5 47.5t-16.5 43.5q-10 14 -26.5 23t-32.5 16q-23 10 -47.5 21t-49.5 17z" />
<glyph unicode="E" horiz-adv-x="335" d="M59 1292q0 8 9 21q7 16 24 16h4q45 -4 89 -5h29q30 0 60 1q16 0 24.5 -9t8.5 -21.5t-8.5 -23.5t-24.5 -11q-38 -2 -74 -2q-3 0 -6 -1q-33 0 -67 5v-570q25 -2 50.5 -2t51.5 -2q14 0 22.5 -10t8.5 -22.5t-8 -22.5t-23 -10q-27 0 -52 1t-50 1v-570q35 -2 70.5 -2h72.5 q14 0 22.5 -11t8.5 -23.5t-8 -22.5t-23 -10q-47 2 -91 2t-89 2q-20 0 -26.5 15t-2.5 30q0 317 -1 628.5t-1 628.5z" />
<glyph unicode="F" horiz-adv-x="299" d="M45 1294q0 6 4 15q4 22 25 22h6q45 -4 89 -5h29q30 0 60 1q16 0 24.5 -9t8.5 -21.5t-8.5 -23.5t-24.5 -11q-35 -2 -71.5 -2t-73.5 4v-570q27 -2 51 -2t51 -2q16 0 24.5 -10t8.5 -22.5t-8.5 -22.5t-24.5 -10q-27 0 -51.5 1t-50.5 1v-596q0 -16 -10.5 -24.5t-22.5 -8.5 t-22.5 8t-10.5 25v631.5t-2 631.5z" />
<glyph unicode="G" horiz-adv-x="368" d="M41 625v274q2 66 2 133.5t4 132.5q2 20 4 47t10.5 51.5t22.5 45t41 26.5q20 5 43 5h8q29 -1 54.5 -10t42 -28.5t14.5 -50.5q-2 -16 -13.5 -24t-23.5 -8t-21.5 8t-7.5 24q0 10 -6 15.5t-16.5 6.5t-21.5 1h-17q-16 -2 -24.5 -11.5t-12.5 -25.5q-14 -61 -14 -125.5v-126.5 q0 -68 -1.5 -136.5t-1.5 -135.5q2 -137 6.5 -273.5t20.5 -271.5q2 -25 4 -54.5t17 -52.5q8 -12 18 -11t18.5 9.5t14.5 19.5t8 21q16 63 24.5 130t14.5 132q9 115 9 229v23q-1 125 -5 254q-18 0 -37.5 -1t-40.5 -1q-16 0 -24.5 10.5t-8.5 23.5t8.5 23.5t24.5 10.5h111 q33 0 33 -33q4 -178 4 -354t-27 -352q-4 -27 -8 -59t-13.5 -60.5t-27 -52t-47.5 -33.5q-18 -7 -34 -7q-7 0 -15 2q-21 5 -37.5 20t-26.5 38t-14 47q-23 133 -28 267.5t-7 267.5z" />
<glyph unicode="H" horiz-adv-x="413" d="M47 29v1280q0 14 10.5 22t23.5 8t23.5 -8t10.5 -22v-703h168q-1 117 -1 233v116q1 173 3 348q0 16 10 24t23.5 8t23.5 -8t10 -24q-3 -259 -3 -516v-129q1 -320 11 -644q0 -16 -10 -23t-22.5 -7t-23.5 7t-11 23q-4 133 -5 263.5t-3 263.5h-170v-512q0 -16 -10.5 -23.5 t-23.5 -7.5t-23.5 7t-10.5 24z" />
<glyph unicode="I" horiz-adv-x="198" d="M62 1162v49q0 48 1 96q0 16 11.5 24t24 8t22.5 -8t10 -24q-3 -61 -3 -120v-30q1 -74 1 -149v-330q4 -166 7 -330t11 -330q0 -16 -9 -24t-21.5 -8t-23.5 8t-11 24q-16 334 -19 670q-2 83 -2 165.5t2 164.5q0 72 -1 144z" />
<glyph unicode="J" horiz-adv-x="399" d="M55 125q6 14 19.5 19.5t26 2t19.5 -14.5t1 -26q-8 -20 13.5 -30t35.5 -15q19 -3 38 -3q25 0 48 5q14 12 18.5 32t4.5 36q1 25 1 49v24q-1 36 -1 72v342v687q0 16 10 24t22.5 8t22.5 -8t10 -24v-368.5t2 -369.5v-366q0 -47 -4 -99.5t-41 -87.5q-4 -8 -14.5 -12t-20.5 -4 h-2q-32 -5 -62 -5h-10q-36 1 -71 17q-33 14 -57 45q-14 19 -14 42q0 13 5 28z" />
<glyph unicode="K" horiz-adv-x="440" d="M41 1313v5q0 12 8 18q10 7 22.5 7t23.5 -8t11 -22q10 -131 13.5 -261t3.5 -259q47 127 85 255t66 261q2 16 14.5 21t24 2t19.5 -14t6 -26q-66 -311 -184 -598q18 -84 52.5 -161.5t65.5 -155.5q35 -86 71 -171t71 -171q3 -7 3 -14t-4 -13q-7 -10 -19.5 -13t-26 2t-19.5 19 q-35 88 -71.5 176.5t-71.5 176.5q-23 51 -44.5 102t-41.5 104q-2 -139 -3 -277t-5 -278q0 -16 -10.5 -24t-22.5 -8t-22.5 8t-10.5 24l4 324t6 324q1 81 1 161.5t-1 160.5q-2 160 -14 323z" />
<glyph unicode="L" horiz-adv-x="348" d="M59 543q1 193 11 385q4 73 4 147q0 119 -11 238q-2 14 7.5 22t21.5 8t23.5 -8t13.5 -22q9 -102 9 -203q0 -58 -3 -116q-8 -160 -8 -322v-161t2 -163q2 -41 3 -82t5 -82q0 -18 1 -36.5t3 -38.5q2 -10 2 -21.5t2 -21.5v-13q16 0 34 1t34 3h86q16 0 24.5 -10t8.5 -22.5 t-8.5 -22.5t-24.5 -10q-25 0 -48.5 -1t-47.5 -1q-23 0 -47 -1h-9q-19 0 -36 3q-23 4 -26 25.5t-5 37.5q-2 25 -4 49.5t-4 47.5q-6 98 -8.5 195t-4.5 196z" />
<glyph unicode="M" horiz-adv-x="507" d="M37 671q-1 91 -1 183q0 229 7 461q0 6 2 8q2 14 12.5 21.5t21.5 7.5t21.5 -8.5t10.5 -22.5q41 -152 71.5 -303.5t53.5 -306.5q51 303 145 606q0 14 9 21.5t20.5 8.5t21.5 -6.5t14 -19.5v-12q2 -185 2 -369q0 -138 -1 -274q-3 -320 -11 -643q0 -16 -10 -24.5t-22.5 -8.5 t-22.5 8t-10 25q6 266 9 528q2 157 2 316q0 106 -1 212q-80 -309 -117 -630q2 -16 -9 -24.5t-26 -6.5q-12 -2 -22 6t-8 25q-25 307 -93 608v-187q0 -421 7 -843q0 -16 -10.5 -24.5t-22.5 -8.5t-22.5 8t-10.5 25q-6 324 -10 644z" />
<glyph unicode="N" horiz-adv-x="479" d="M52 992q-5 65 -5 129q0 96 12 192q5 23 25 29q7 2 13 2q12 0 20 -7q14 -2 20 -20q61 -229 113.5 -456.5t97.5 -459.5q-3 149 -3 298q0 75 1 149q2 224 6 446q0 16 11.5 24.5t23.5 8.5t22.5 -8.5t10.5 -24.5q-8 -319 -8 -635.5t10 -635.5q0 -10 -8 -23q-8 -20 -33 -23.5 t-29 25.5q-47 287 -105.5 569.5t-129.5 563.5q0 -37 1 -75t3 -77q4 -82 8 -163t8 -163q2 -94 3 -187q0 -70 -2 -140q-3 -162 -7 -326q0 -16 -10 -24.5t-22.5 -8.5t-22.5 8.5t-10 24.5q4 166 6 332q1 55 1 111q0 111 -3 223q-4 160 -18 322z" />
<glyph unicode="O" horiz-adv-x="411" d="M49 778v181.5t4 181.5q2 41 6 83t29 76q14 20 35.5 33t46.5 17q14 2 28 2q12 0 22 -1q24 -3 44 -12q2 -2 4 -2t4 -2q25 -15 37 -35q23 -33 32 -70.5t13 -76.5q4 -47 5 -92t1 -92q0 -127 -2 -251t-2 -249v-109.5t-2 -107.5q-2 -41 -3 -86t-13 -86q-12 -42 -49 -68 q-32 -23 -70 -23q-6 0 -12 1q-12 4 -22.5 7t-20.5 11l-8 8q-2 0 -2 2q-23 16 -39 39q-27 39 -38 83t-17 90q-5 39 -4 78v14v31q0 31 -1 61q-2 92 -4 182t-2 182zM115 791q0 -158 6 -312q2 -35 2 -66.5v-64.5q1 -23 1 -46v-22v-10q0 -29 5 -57q6 -41 19.5 -79t46.5 -64l6 -7 q2 -2 3 -2t3 -2q5 -4 11 -4q4 0 9 2q16 4 29.5 15.5t17.5 27.5q10 43 12.5 88t2.5 88q2 57 2 113v113q0 123 2 243.5t2 243.5q0 47 -1 92t-9 90q-4 29 -13.5 62t-35.5 47q-14 7 -35 7h-5q-24 -1 -40 -11q-14 -8 -20.5 -23.5t-10.5 -29.5q-4 -29 -4 -59.5t-2 -59.5 q0 -78 -1 -157t-3 -156z" />
<glyph unicode="P" horiz-adv-x="387" d="M28 1327q5 21 27 21h4q35 -2 71 -6.5t68.5 -16.5t60.5 -33.5t46 -56.5q20 -37 27.5 -77t11.5 -81q6 -49 8 -98t4 -96q1 -33 1 -66v-33q-1 -50 -1 -98q-2 -43 -2 -89t-18 -87q-28 -62 -92 -82q-49 -15 -98 -15q-15 0 -31 1l6 -387q0 -16 -10.5 -24.5t-22.5 -8.5t-22.5 8 t-10.5 25q-4 317 -9 631.5t-9 631.5q-10 10 -10 26q0 5 1 11zM102 1278q4 -201 6.5 -398.5t6.5 -398.5q17 -3 34 -2h19q28 2 52 10.5t41.5 25.5t23.5 48q5 33 5 67v11v26q0 26 1 52v164q-2 41 -3 81t-5 80q-4 35 -8.5 71t-18.5 71q-20 49 -62 67.5t-92 24.5z" />
<glyph unicode="Q" horiz-adv-x="399" d="M39 760v182t4 182q2 41 6 83t29 77q14 20 35.5 32.5t46.5 16.5q14 2 28 2l20 -1q25 -3 46 -13q4 0 4 -2q2 0 4 -2q21 -12 37 -35q23 -31 31 -69.5t12 -75.5q6 -47 7 -93.5t1 -93.5q-2 -125 -3 -248.5t-1 -250.5v-108.5t-2 -109.5q-2 -41 -3 -86t-13 -86q-14 -35 -37 -57 q6 -12 12 -24.5t14 -26.5t3 -26.5t-16 -18.5q-8 -4 -17 -4h-7q-12 2 -20 16t-14 27.5t-15 27.5q-14 -6 -34 -2q-25 2 -43 19q-2 2 -4.5 3t-4.5 3v2h-2q-12 10 -22 19.5t-17 21.5q-27 39 -38 82t-16 89q-4 38 -4 77v15v31q0 30 -1 60q-2 92 -4 182.5t-2 182.5zM104 772 q0 -156 7 -311q2 -33 2 -64.5v-66.5q1 -22 1 -44v-23v-10q0 -29 5 -58q6 -41 19.5 -78t45.5 -66h2l4 -4l7 -6l4 -2q-10 23 -18.5 43t-16.5 43q-6 14 1 25.5t19.5 14.5t24.5 -2.5t18 -19.5q8 -18 14.5 -36.5t16.5 -36.5q4 8 4 14q10 43 12.5 87t2.5 89q2 55 2 111.5v111.5 q0 123 2 245t2 245q0 45 -1 91t-10 91q-4 27 -13 60.5t-36 46.5q-13 8 -33 8h-8q-24 -2 -41 -13q-12 -8 -18 -22t-10 -31q-4 -29 -5 -59.5t-1 -59.5q0 -78 -1.5 -156.5t-3.5 -156.5z" />
<glyph unicode="R" horiz-adv-x="428" d="M20 1319q0 12 8.5 21.5t24.5 9.5q6 0 2 0t2 -2q12 2 23 -2q59 -6 114.5 -28t86.5 -81q18 -37 26 -77t12 -81q4 -49 7.5 -107.5t3.5 -107.5q1 -49 1 -98t-1 -98v-89.5t-19 -86.5q-14 -31 -37.5 -50.5t-52.5 -29.5q41 -47 53 -107q10 -39 14.5 -87t8.5 -87q2 -14 4 -31.5 t8 -34t18.5 -26.5t30.5 -10q16 2 24.5 -8.5t8.5 -22.5t-8 -23.5t-25 -11.5q-6 -1 -12 -1q-36 0 -56 22q-24 24 -37 60t-18.5 76t-9.5 70q-4 37 -9 77t-23 73q-10 18 -28 34.5t-38 20.5h-16l6 -387q0 -16 -10.5 -24.5t-22.5 -8.5t-22.5 8.5t-10.5 24.5q-4 315 -9 637t-9 639 h20q-16 0 -24.5 11.5t-8.5 23.5zM100 1278q2 -201 4 -408.5t7 -406.5q4 0 9 -1t9 -1q43 0 81 17.5t48 66.5q7 35 7 69v9q-1 39 -1 77q0 41 1 82v27q0 27 -1 55q-2 41 -3 91.5t-5 91.5q-4 35 -8.5 70.5t-18.5 70.5q-16 43 -52 62.5t-77 27.5z" />
<glyph unicode="S" horiz-adv-x="356" d="M16 186q2 16 12.5 24.5t22.5 8.5t22.5 -8t8.5 -25q0 -6 -1 -11q0 -25 8 -55q9 -36 42 -52q8 -4 24.5 -5t35 1t34 6t19.5 12q12 25 10 54.5t-2 56.5q-4 68 -5 136t-5 136q0 29 -1 58.5t-12 58.5q-10 23 -26.5 37t-34.5 26q-41 27 -79 57.5t-48 81.5q-6 33 -6 65t-2 66 q0 33 -1 65t-1 67q-2 49 -4 105v10q0 50 18 93q20 47 60 75q28 20 63 20q15 0 31 -4q53 -12 79 -56q19 -32 20 -68q0 -14 -3 -28q-2 -16 -13.5 -21.5t-23.5 -2t-21.5 13.5t-5.5 26q4 33 -19.5 57.5t-55.5 14.5q-23 -6 -35 -23.5t-18.5 -40t-7.5 -46t-1 -44.5q2 -66 3 -133 t3 -135q2 -29 5.5 -56.5t25.5 -49.5q16 -16 34.5 -27.5t35.5 -24.5q47 -29 72.5 -68.5t31.5 -94.5q6 -66 6 -129.5t4 -128.5q0 -35 1 -70t3 -70q0 -27 -3 -51t-19 -47q-12 -18 -39 -31q-28 -12 -58 -15q-13 -1 -25 -1q-17 0 -35 2q-30 4 -48 16q-44 29 -62 76q-14 38 -15 78 q0 9 1 18z" />
<glyph unicode="T" horiz-adv-x="421" d="M49 1296.5q0 12.5 8.5 23.5t24.5 11q74 8 146 9h30q58 0 117 -3q16 0 24.5 -11t8.5 -23.5t-8.5 -22.5t-24.5 -8q-29 0 -55.5 1t-53.5 1q-4 -236 -5 -470q0 -78 1 -156q2 -310 2 -625q0 -16 -10 -24.5t-22.5 -8.5t-22.5 8.5t-10 24.5q-2 315 -4 625q-1 78 -1 155 q0 233 5 469q-59 0 -117 -6q-16 -2 -24.5 8t-8.5 22.5z" />
<glyph unicode="U" horiz-adv-x="407" d="M41 1309q0 16 10 24t22.5 8t22.5 -8t10 -24q2 -129 5 -258t4 -260q2 -137 3 -274.5t5 -274.5q0 -23 1 -50.5t7 -53t20.5 -46t43.5 -29.5q20 -4 42.5 -0.5t30.5 27.5q8 29 7 56.5t1 56.5q6 279 8 553v109q0 219 -5 440q0 16 10 23t22.5 7t22.5 -8t10 -22q4 -199 6 -393 q1 -64 1 -129q0 -130 -3 -261q0 -70 -1 -137.5t-3 -136.5q-1 -23 -1 -46v-22v-13q0 -27 -3 -54q-4 -23 -11 -48.5t-28 -41.5q-35 -29 -78 -29h-6q-47 2 -88 29q-47 33 -59.5 84t-12.5 104q-4 274 -8 547.5t-8 550.5z" />
<glyph unicode="V" horiz-adv-x="415" d="M37 1310q0 11 8 17q10 8 22.5 8t23.5 -8t11 -22q20 -244 47 -483.5t54 -481.5q27 242 53.5 481.5t46.5 483.5q2 14 13.5 22t23.5 8t21.5 -8t9.5 -22q-27 -324 -66 -642.5t-69 -642.5q4 -16 -7.5 -24t-25.5 -8q-12 0 -23.5 8t-9.5 24q-31 324 -69 642q-64 540 -64 648z " />
<glyph unicode="W" horiz-adv-x="626" d="M35 1309v5q0 12 8 18q10 7 22.5 7t23.5 -8t11 -22q16 -236 41 -468.5t47 -467.5q25 236 48.5 468t42.5 468q0 16 12 24q10 6 19 6h5h6q11 0 21 -6q12 -8 12 -24q18 -236 42 -468.5t48 -467.5q23 236 47.5 468t40.5 468q0 14 11.5 22t24 8t22.5 -7q8 -6 8 -18v-5 q-23 -324 -57.5 -642.5t-63.5 -641.5q2 -16 -9 -24.5t-24 -8.5q-14 0 -24 8t-10 25q-20 242 -46 478t-49 478q-23 -242 -47.5 -478t-44.5 -478q0 -16 -10 -24.5t-25 -8.5q-12 0 -23 8t-9 25q-29 324 -64 642t-57 642z" />
<glyph unicode="X" horiz-adv-x="438" d="M57 31q33 160 67 316.5t69 314.5q-35 160 -68 316.5t-64 315.5q-4 14 5.5 25.5t21.5 14.5q4 1 9 1q7 0 15 -3q12 -5 13 -21q25 -123 49.5 -246t50.5 -246q27 123 52.5 246t48.5 246q2 16 14 21q8 3 15 3q5 0 9 -1q12 -3 19.5 -14t5.5 -26q-29 -160 -61.5 -316t-67.5 -316 q35 -158 68.5 -315t66.5 -316q0 -3 1 -6q0 -13 -7 -21q-9 -10 -21 -13q-5 -1 -10 -1q-7 0 -14 2q-12 4 -14 20q-25 125 -50.5 248t-54.5 246q-27 -123 -52.5 -246t-51.5 -248q-3 -16 -15 -20q-7 -2 -13 -2q-5 0 -10 1q-11 3 -21 13q-7 7 -6 18q0 4 1 9z" />
<glyph unicode="Y" horiz-adv-x="362" d="M41 1307q-1 4 -1 8q0 9 6 17q9 11 20 14q5 2 9 2q7 0 14 -4q11 -5 15 -21q49 -240 86 -489q16 123 37.5 244.5t46.5 244.5q2 16 14 21q8 4 15 4q5 0 9 -2q12 -3 20 -14q6 -9 6 -20v-5q-35 -180 -63.5 -358.5t-51.5 -358.5q0 -10 -2 -17q10 -141 13 -279v-92 q0 -93 -3 -188q0 -16 -11 -24t-23.5 -8t-22.5 8t-10 24q3 126 3 252v62q-1 157 -17 315q-16 168 -46 333t-63 331z" />
<glyph unicode="Z" horiz-adv-x="399" d="M48 32q0 12 7 21q59 307 117.5 610.5t118.5 608.5h-207q-16 0 -23.5 10t-7.5 22.5t7.5 22.5t23.5 10h227q25 0 31 -20q8 -3 14 -13q4 -6 4 -13q0 -4 -2 -9q-59 -305 -117.5 -608t-117.5 -608h188q16 0 24.5 -10.5t8.5 -23t-8 -22.5t-25 -10h-207q-8 -6 -18 -6h-5 q-13 2 -22 12q-11 11 -11 26z" />
<glyph unicode="`" horiz-adv-x="202" />
<glyph unicode="a" horiz-adv-x="438" d="M32 352q12 102 62 189q23 37 50.5 65.5t62.5 57.5q29 23 56.5 45t58.5 43v39v54t-11 52q-10 25 -35.5 37t-51 11t-44 -17.5t-18.5 -46.5q0 -16 -10.5 -23.5t-21.5 -7.5t-21.5 7t-10.5 24q0 37 18.5 65.5t48.5 45.5q31 16 65 18h6q31 0 61 -13q35 -16 53.5 -42.5 t26.5 -59.5t8 -67.5v-67.5q-4 -184 -5 -364.5t-5 -364.5q0 -16 -10.5 -23.5t-21.5 -7.5t-21.5 7t-10.5 24q0 10 1 21t1 22q-23 -36 -55 -58q-28 -19 -62 -19q-6 0 -12 1q-59 8 -92 54t-47 100q-17 67 -17 136q0 32 4 64zM92 268q2 -39 9.5 -78.5t25.5 -74.5q6 -10 11 -19.5 t16 -17.5q4 -4 12 -8t12 -7q6 -2 14 -3q6 0 12 2q14 4 29 16q27 25 43.5 58.5t25.5 72.5t11 77.5t2 73.5q0 8 2 11q0 66 1 131t1 131v41q-57 -41 -109 -90t-81 -115q-38 -84 -38 -175q0 -13 1 -26z" />
<glyph unicode="b" horiz-adv-x="407" d="M37 39q13 254 13 507q0 62 -1 126q-2 127 -2 254q0 190 4 381q0 16 10.5 24t22.5 8t22.5 -8t10.5 -24q-2 -86 -2 -169v-169q16 18 35.5 32.5t42.5 20.5q16 4 33 4q30 0 60 -14q46 -22 62 -70q10 -27 11 -53.5t1 -54.5q-2 -29 -2 -60v-59q0 -61 -1 -122t-1 -120 q-2 -63 -2 -125.5v-126.5q-2 -45 -2 -95t-30 -85q-29 -33 -69 -35h-11q-34 0 -68 10q-16 6 -34.5 13.5t-35.5 17.5v-8q-2 -16 -13 -24.5t-23.5 -8.5t-21.5 8.5t-9 24.5zM109 133l6 -6q12 -23 40.5 -34t51.5 -17q14 -3 27 -3q14 0 24 3q22 6 27 39q4 16 3 35.5t-1 35.5v51.5 t2 49.5v186q2 97 4 195q1 49 1 98t-1 98q0 18 -1 39t-16 35q-12 12 -30 19q-10 4 -20 4q-8 0 -17 -3q-33 -12 -55.5 -45.5t-38.5 -64.5q1 -120 2 -239q0 -59 -1 -119q-1 -178 -7 -357z" />
<glyph unicode="c" horiz-adv-x="397" d="M39 510q0 61 4 121.5t12 122.5q6 49 13.5 103t29.5 101q20 46 62 64q27 12 56 12q16 0 32 -4q47 -10 77.5 -42t53.5 -75q3 -8 3 -15q0 -6 -2 -12q-5 -12 -15.5 -18t-22.5 -4t-18 17q-16 35 -42 61.5t-67 26.5q-41 -2 -55.5 -32t-22.5 -67q-18 -92 -26.5 -184t-8.5 -186 v-97.5t4 -95.5q2 -41 3.5 -83t7.5 -83q7 -39 31 -59q19 -16 48 -17q7 0 15 1q35 4 59.5 25.5t40.5 53.5q6 14 18.5 15.5t22.5 -4.5t15.5 -18.5t-0.5 -26.5q-20 -43 -56.5 -72t-83.5 -37q-14 -3 -28 -3q-30 -1 -61 11q-46 16 -66 64q-20 47 -21.5 99t-5.5 103q-6 117 -6 234z " />
<glyph unicode="d" horiz-adv-x="425" d="M51 785.5v66.5q0 23 2 47.5t13 46.5q20 44 67 64q26 11 52 11l42 -7q20 -6 37 -20.5t33 -30.5q0 86 -1 168.5t-3 168.5q0 16 10 24.5t22.5 8.5t23.5 -8t11 -25q3 -173 3 -345q0 -143 -2 -287q-1 -72 -1 -144q0 -244 13 -489q2 -16 -8.5 -24.5t-22.5 -8.5t-23.5 8 t-11.5 25v8q-18 -12 -39 -20.5t-39 -12.5q-30 -8 -60 -8q-9 0 -19 1q-40 3 -66 40q-28 38 -28 86l1 96q0 61 -1 122t-1 120q-2 63 -2 125.5v126.5q-2 35 -2 66.5zM117 852q2 -98 3 -192.5t1 -192.5q0 -49 1 -98.5t1 -98.5v-49t2 -49v-35t4 -35q11 -32 33 -34q5 -1 10 0 q18 0 39 6q23 6 48.5 16t37.5 31q2 4 6 8q-8 180 -8 357.5v357.5q-6 14 -16.5 32.5t-23.5 35t-28.5 28.5t-33.5 16h-9q-18 0 -30 -7q-14 -9 -22.5 -24.5t-11.5 -35t-3 -37.5z" />
<glyph unicode="e" horiz-adv-x="430" d="M45 324q-2 68 -2 135.5t2 135.5q4 136 12 271q2 47 21.5 91t71.5 57q20 5 42 5q26 1 53 -7q50 -14 81 -51q35 -45 43 -99.5t8 -109.5q-2 -35 -5 -67t-10 -64q-6 -25 -15 -51.5t-30 -43.5q-25 -18 -58.5 -23t-61.5 -9q-20 -4 -42 -6.5t-44 -2.5q-2 -59 -2 -119.5t4 -119.5 q4 -55 20.5 -105.5t71.5 -74.5q23 -10 50.5 -13t49.5 10q12 8 22.5 20.5t0.5 29.5q-8 12 -4 24.5t15 18.5t24.5 4t21.5 -17q14 -22 14 -44q-1 -13 -5 -27q-14 -36 -46 -58q-35 -28 -79 -28h-3q-43 0 -82 16q-88 35 -118 121q-16 47 -18.5 99t-2.5 102zM111 553h8 q12 0 25.5 1t25.5 3q39 4 76 12q12 0 24 6q0 2 5.5 7.5t7.5 5.5q14 29 18 61.5t8 63.5q2 29 2 59.5t-4 58.5q-4 49 -35 88q-28 35 -76 35h-10q-31 -2 -44 -20.5t-18 -44t-4 -53t-1 -48.5q-2 -59 -4 -117.5t-4 -117.5z" />
<glyph unicode="f" horiz-adv-x="491" d="M33 866.5q0 12.5 8 23.5t25 11q18 0 25 1t13.5 2t14.5 2t26 1v68q2 43 2 92t9.5 96t32 87t65.5 65q33 18 70 25q16 3 33 3q20 0 39 -5q36 -7 69 -27.5t55 -50.5q5 -8 5 -16q0 -4 -1 -8q-4 -13 -14 -19.5t-24.5 -4.5t-22.5 15q-16 23 -45 36t-59.5 14t-59.5 -11.5 t-45 -36.5q-23 -35 -29 -75t-10 -81q-2 -41 -2 -82t-2 -82q20 0 32.5 1t24 3t22.5 3.5t34 1.5q16 0 24 -10.5t8 -23t-8 -22.5t-24 -10q-23 -2 -35.5 -3t-22.5 -2t-22.5 -2t-34.5 -1q-1 -82 -1 -163q0 -326 19 -652q0 -16 -9 -23.5t-21.5 -7.5t-23.5 7t-11 24 q-20 327 -20 654q0 79 1 157q-18 0 -25 -1t-13.5 -2t-13.5 -2t-25 -1q-16 0 -24.5 10t-8.5 22.5z" />
<glyph unicode="g" horiz-adv-x="423" d="M10 -162q0 14 11.5 22.5t23.5 8.5t22.5 -7t8.5 -24q0 -25 10 -45t26.5 -34.5t39 -18.5t47.5 2q47 14 67.5 51t20.5 84q0 43 1 86t1 88q-35 -41 -76 -53q-16 -4 -33 -4l-61 14q-47 23 -64 70q-10 27 -10 53.5v54.5v121q2 59 2 119.5t2 122.5v125.5t2 126.5q0 20 -1 44.5 t1 48.5t9.5 45.5t23.5 39.5q29 33 69 35h11q34 0 65 -10q16 -4 36 -12.5t36 -18.5v8q0 16 11.5 24.5t23.5 8.5t21.5 -8.5t9.5 -24.5q-2 -29 -3.5 -58.5t-1.5 -58.5q-6 -144 -6 -287v-71q1 -89 1 -178.5t-1 -180.5q0 -59 -1 -119.5t-1 -119.5q-2 -51 -10 -96t-45 -84 q-35 -37 -87 -50q-22 -6 -43 -6q-29 0 -58 11q-47 18 -76 61q-25 38 -25 82v12zM111 156q0 -18 2 -39t14 -35q14 -12 32 -20q10 -4 20 -4l16 3q33 12 56 47t40 66v125q-1 98 -1 196v97q1 147 7 295l-6 6q-12 23 -41 34t-51 17q-16 3 -29 3q-12 0 -22 -2q-21 -5 -27 -38 q-4 -18 -4 -36.5v-36.5v-99q0 -47 -1 -93t-1 -93q-2 -98 -3 -196.5t-1 -196.5z" />
<glyph unicode="h" horiz-adv-x="438" d="M41 27q13 261 13 519q0 65 -1 129q-2 129 -2 258q0 194 4 388q0 16 11.5 24.5t23.5 8.5t22.5 -8.5t10.5 -24.5q-4 -92 -4 -183v-184q16 23 35.5 43.5t42.5 30.5q28 12 58 12q9 0 19 -1q40 -5 72 -33q33 -33 37 -73t4 -83v-75t-2 -77q0 -166 -1 -332.5t-3 -334.5 q0 -16 -10.5 -23.5t-23.5 -7.5t-23.5 7t-10.5 24q2 147 3 291.5t3 289.5q1 70 3 138q1 38 1 77q0 31 -1 62q0 18 -3.5 37.5t-19.5 31.5q-12 10 -28.5 15.5t-32.5 -0.5q-35 -12 -57.5 -47t-39.5 -64q-8 -16 -22 -18q1 -137 2 -273q0 -68 -1 -136q-1 -204 -11 -408 q0 -16 -11.5 -24.5t-24 -8.5t-22.5 8t-10 25z" />
<glyph unicode="i" horiz-adv-x="206" d="M59 1157q0 27 1 51t1 49q0 16 11.5 23.5t24 7.5t21.5 -8t9 -25v-98q0 -16 -11.5 -24.5t-23.5 -8.5t-22.5 8.5t-10.5 24.5zM61 971q0 14 10.5 22t22.5 8t22.5 -8t10.5 -24q2 -238 2 -473.5v-472.5q0 -16 -10 -23.5t-22.5 -7.5t-23 8t-10.5 25q0 238 -1 473t-1 473z" />
<glyph unicode="j" horiz-adv-x="186" d="M-197 -94q4 14 16.5 19t25 2t19.5 -14t3 -26q-6 -20 5 -32.5t28.5 -17.5t37 -5t31.5 4q35 8 62.5 23.5t31.5 56.5q4 36 4 72q0 5 -1 9v81q-2 43 -2.5 87t-0.5 87q-2 176 -2 351t-2 351q0 16 10.5 24.5t22.5 8.5t22.5 -8t10.5 -25q2 -215 3 -427t3 -429q0 -49 3 -100 q1 -14 1 -28q0 -36 -6 -72q-16 -84 -96 -113q-41 -14 -87 -21q-10 -1 -20 -1q-35 0 -65 18q-33 20 -51 53q-11 21 -11 44q0 14 4 28zM47 1141v100q0 16 10.5 24.5t22.5 8.5t22.5 -8.5t10.5 -24.5v-100q0 -16 -10.5 -23.5t-22.5 -7.5t-22.5 7t-10.5 24z" />
<glyph unicode="k" horiz-adv-x="411" d="M43 1327q0 16 9 24.5t21.5 8.5t24 -8.5t11.5 -24.5q10 -188 15 -373.5t5 -373.5q23 53 47.5 107t44 108.5t31.5 112t12 116.5q0 16 10.5 24.5t22.5 8.5t22.5 -8.5t10.5 -24.5v-16q0 -57 -12 -111q-14 -61 -36 -120.5t-47.5 -118t-50.5 -117.5q18 -68 41 -133.5t54 -126.5 t59.5 -124t38.5 -132v-6q-1 -13 -7 -21q-8 -10 -20 -13q-4 -1 -9 -1q-7 0 -15 3q-12 5 -13 21q-10 70 -40.5 131.5t-59.5 124.5q-39 80 -68 170q0 -4 -2 -6q-2 -12 -14 -20q-2 -96 -4 -189.5t-6 -189.5q0 -16 -11.5 -24.5t-23.5 -8.5t-22.5 8.5t-10.5 24.5q12 285 12 568v81 q-2 323 -20 649z" />
<glyph unicode="l" horiz-adv-x="178" d="M43 37q8 332 8 660.5t-4 660.5q0 16 10.5 23.5t22.5 7.5t22.5 -8.5t10.5 -24.5q5 -285 5 -567v-93q-1 -328 -9 -661q0 -16 -10.5 -23.5t-23 -7.5t-22.5 8t-10 25z" />
<glyph unicode="m" horiz-adv-x="643" d="M29 4q4 250 6 498t4 497q0 16 10 24.5t23.5 8.5t23.5 -8t10 -25q0 -8 -1 -16t-1 -16q25 27 56 43q30 13 62 13q8 0 16 -1q41 -4 71 -35q14 -16 25 -37q29 41 65 60q31 13 64 13q8 0 16 -1q41 -4 72 -35t36 -72t5 -84q0 -37 -1 -74.5t-1 -74.5q-2 -168 -2 -335t-2 -333 q0 -16 -11.5 -24t-23.5 -8t-22.5 8t-10.5 24q2 145 3 290t3 292q0 68 2 138q1 35 1 68.5t-1 67.5q-2 18 -5 38t-17 32q-12 10 -28.5 15.5t-33.5 0.5q-31 -12 -53 -43.5t-39 -60.5v-21q0 -37 -1 -74.5t-1 -74.5q-2 -168 -2 -335t-2 -333q0 -16 -11 -24t-23.5 -8t-23 8 t-10.5 24q2 145 3.5 290t3.5 292q0 68 2 138q1 35 1 68.5t-1 67.5q-2 18 -5.5 38t-17.5 32q-12 10 -28.5 15.5t-32.5 0.5q-35 -12 -57.5 -48t-39.5 -64q-4 -211 -5 -420t-3 -420q0 -16 -10 -24.5t-23.5 -8.5t-23.5 8.5t-10 24.5z" />
<glyph unicode="n" horiz-adv-x="407" d="M33 25q2 250 4 497.5t6 497.5q0 16 10 24.5t22.5 8.5t23 -8.5t10.5 -24.5v-33q27 29 53 43q30 13 62 13q8 0 16 -1q41 -4 71 -34q33 -31 38 -72q4 -29 4 -60q0 -12 -1 -24v-150q-2 -168 -3 -334.5t-3 -332.5q0 -16 -10 -24.5t-22.5 -8.5t-22.5 8t-10 25q2 145 2 289.5 t2 291.5q0 68 2 138q1 35 1 69t-1 68q0 18 -3 37.5t-20 32.5q-12 10 -28.5 15t-32.5 1q-35 -12 -57.5 -48t-39.5 -65q-2 -211 -4 -419.5t-4 -419.5q0 -16 -10 -24.5t-22.5 -8.5t-22.5 8t-10 25z" />
<glyph unicode="o" horiz-adv-x="378" d="M29 300q2 62 2 122q2 80 3 160t3 161v70t4 70q4 23 6 50.5t16 45.5q29 35 72 42q23 4 46 4q19 0 38 -3q20 -4 41 -13.5t33 -25.5t17 -36.5t7 -41.5q4 -45 4.5 -88t0.5 -86l6 -184q1 -35 1 -70q0 -53 -2 -105q-3 -87 -5 -175q0 -33 -2.5 -72t-22.5 -68q-29 -41 -79 -52 q-20 -4 -40 -4q-29 0 -57 9q-14 6 -18.5 18.5t-1.5 23.5t13.5 18.5t24.5 1.5q20 -8 40 -7l46 9q14 4 20.5 18t8.5 29q4 35 4 71.5t2 71.5q2 70 4 138q1 34 1 69t-1 70q-2 47 -3 92t-3 90v87t-4 85q-2 23 -8 39t-29 24q-16 4 -34.5 5.5t-35.5 -2.5q-23 -4 -28.5 -15.5 t-9.5 -32.5q-6 -43 -7 -86q-6 -119 -6 -237.5t-2 -239.5q-2 -41 -3 -83v-17q0 -33 3 -66q2 -12 4 -29.5t6.5 -34t12.5 -29.5t22 -19t18.5 -18.5t1.5 -24t-13.5 -18.5t-24.5 -1q-49 20 -66.5 69.5t-21.5 96.5q-5 46 -5 92q0 16 1 32z" />
<glyph unicode="p" horiz-adv-x="413" d="M41 975q0 16 9 24.5t21.5 8.5t23.5 -8.5t11 -24.5q2 -2 3 -8q35 23 77 32q28 7 56 7l22 -1q39 -4 66 -38q28 -37 28 -85l-1 -47q0 -27 1 -53v-119.5t2 -119.5q0 -66 1 -128.5t1 -125.5q0 -33 1.5 -66t1.5 -65q0 -23 -2.5 -47.5t-12.5 -47.5q-23 -45 -68 -64 q-25 -10 -51 -10q-21 0 -43 7q-20 6 -36.5 19.5t-32.5 29.5v-169t2 -169q0 -16 -10.5 -23.5t-22.5 -7.5t-22.5 7.5t-10.5 23.5q-4 191 -4 382q0 126 2 253q1 63 1 126q0 253 -13 507zM113 881q6 -180 6 -357.5v-357.5q8 -14 18 -32.5t23.5 -35t29 -30t33.5 -15.5q7 -1 13 -1 q16 0 26 8q14 10 21.5 25t10.5 34.5t3 38.5q0 98 -1 192t-3 193v98t-2 98v99v34.5t-4 34.5q-10 31 -33 34q-6 1 -13 1q-18 0 -38 -6t-47 -17.5t-39 -29.5q0 -4 -4 -8z" />
<glyph unicode="q" horiz-adv-x="425" d="M43 201q2 29 2 59.5v61.5q0 59 1 119.5t1 119.5q2 66 2 128.5v125.5q2 43 2 93t31 85q29 33 68 35h12q34 0 67 -10q16 -6 35 -13.5t35 -17.5q0 2 1 4t1 4q0 16 11.5 24.5t23.5 8.5t21.5 -8t9.5 -25q-13 -260 -13 -520v-113q2 -117 2 -234q0 -200 -4 -400q0 -16 -10 -23.5 t-22.5 -7.5t-22.5 7t-10 24q2 86 2 169v169q-16 -18 -36 -33t-42 -21q-16 -4 -33 -4q-30 0 -60 14q-46 23 -63 70q-10 27 -11 53.5t-1 55.5zM111 170q0 -18 1 -38.5t15 -35.5q12 -12 31 -19q10 -4 20 -4q9 0 17 3q33 12 55 47t39 63v357.5t6 357.5q-4 4 -4 6q-14 23 -43 34 t-51 17q-16 3 -29 3q-11 0 -20 -2q-21 -5 -29 -37q-4 -18 -3 -37t1 -37v-98q-2 -47 -2 -94.5v-94.5q-2 -98 -4 -195q-1 -49 -1 -98t1 -98z" />
<glyph unicode="r" horiz-adv-x="362" d="M53 33q0 125 1 242.5t3 234.5t3 234.5t3 242.5q0 16 10.5 24.5t23 8.5t22.5 -8t10 -25v-33q31 34 68 50q22 8 44 8t43 -8q42 -16 66 -54q5 -8 5 -16q0 -4 -1 -8q-4 -12 -14 -18.5t-23.5 -4.5t-21.5 15q-18 27 -48 27.5t-52 -19.5q-41 -45 -68 -95q0 -104 -1 -203.5 t-3 -195.5t-3 -195.5t-1 -203.5q0 -16 -10.5 -24.5t-22.5 -8.5t-22.5 8t-10.5 25z" />
<glyph unicode="s" horiz-adv-x="370" d="M45 145q2 14 14.5 22.5t24.5 8.5t21.5 -7t7.5 -24q-4 -23 7 -42t29.5 -31.5t42 -16.5t46.5 4q25 10 23.5 37t-1.5 47q0 29 -1 59.5t-1 59.5q-2 31 -1 61.5t-3 61.5q0 25 -7 46.5t-30 35.5q-35 23 -74 41t-63 53q-16 23 -21.5 48.5t-5.5 52.5v126q-3 65 -3 97q0 47 22 86 q22 41 64 59q26 12 54 12q16 0 33 -4q47 -10 78 -46q22 -25 22 -56q0 -13 -4 -27q-4 -16 -15 -21t-23.5 -2t-20.5 13t-4 27q4 23 -17.5 35t-39.5 14q-23 0 -41.5 -8.5t-28.5 -30.5q-8 -16 -9 -35.5t-1 -38.5v-117q0 -29 -2 -59.5t6 -58.5q4 -23 17.5 -35t33.5 -23 q37 -23 76 -44t57 -64q10 -25 12.5 -50.5t2.5 -52.5q2 -29 2 -59v-59q2 -33 2 -65t2 -64q0 -23 -5.5 -46.5t-21.5 -41.5q-14 -16 -36.5 -24.5t-46.5 -10.5q-8 -1 -17 -1q-16 0 -32 3q-24 4 -42 12q-43 16 -65 57q-18 35 -18 72q0 7 1 14z" />
<glyph unicode="t" horiz-adv-x="356" d="M14 981q0 12 7.5 23.5t23.5 13.5q31 4 50.5 5t47.5 1q0 51 -1 82t-1 58.5v58t2 82.5q0 16 10.5 24t22.5 8t22.5 -8t10.5 -24q0 -49 -1 -81t-1 -58.5t1 -58.5t1 -81q29 0 45 -1t45 -3q14 0 22.5 -11.5t8.5 -23.5t-8.5 -21.5t-22.5 -9.5q-29 2 -45 3.5t-43 1.5 q2 -102 2 -223.5t-2 -246t-3 -245.5t-1 -223q0 -16 -10.5 -24.5t-22.5 -8.5t-22.5 8t-10.5 25q0 100 1 222t2 245.5t1 244.5t-2 223q-29 -2 -48 -3t-50 -3q-16 -2 -23.5 7.5t-7.5 21.5z" />
<glyph unicode="u" horiz-adv-x="421" d="M45 184v152q2 168 3 334t3 334q0 16 10.5 24t22.5 8t22.5 -8t10.5 -24q-2 -147 -2 -291t-2 -291q0 -70 -2 -138q-1 -34 -1 -69t1 -70q0 -18 3 -36.5t19 -32.5q12 -10 28.5 -15.5t33.5 0.5q33 12 56 47t40 66q2 211 3 420t5 420q0 14 10 22t22.5 8t23 -8t10.5 -22 q-4 -250 -5.5 -498t-5.5 -498q0 -16 -10 -24t-22.5 -8t-22.5 8t-10 24v33q-12 -14 -24.5 -25.5t-28.5 -17.5q-29 -14 -61 -14q-9 0 -18 1q-42 5 -71 34q-33 33 -38 73q-4 29 -4 59q0 11 1 23z" />
<glyph unicode="v" horiz-adv-x="409" d="M45 1018v6q0 12 7 18q9 8 21.5 8.5t24 -8t13.5 -24.5q20 -186 46.5 -370.5t53.5 -371.5q27 186 53.5 371t46.5 371q2 16 12.5 24.5t22.5 8.5q12 -1 22 -9q9 -7 9 -19q0 -75 -65 -500q-38 -247 -68 -494q4 -17 -8 -25q-9 -7 -20 -6h-5h-5q-10 0 -20 6q-12 8 -8 25 q-31 248 -68.5 494.5t-64.5 494.5z" />
<glyph unicode="w" horiz-adv-x="645" d="M45 1006v6q0 12 7 18q9 8 21.5 8t24 -8t13.5 -24q16 -180 40.5 -359.5t47.5 -361.5q25 182 48 361t42 360q2 16 13 24t26 8q12 0 23 -8t14 -24q18 -180 41.5 -359.5t48.5 -361.5q23 182 47.5 361.5t40.5 359.5q2 16 12 24t22.5 8t22.5 -8q8 -7 8 -19v-5 q-23 -248 -57.5 -495t-63.5 -495q2 -16 -9 -24q-9 -6 -18 -6h-5h-5q-10 0 -20 6q-12 8 -8 24q-23 186 -47.5 368.5t-46.5 369.5q-23 -186 -48.5 -368.5t-46.5 -369.5q2 -16 -9 -24q-9 -6 -20 -6h-5h-5q-10 0 -18 6q-12 8 -10 24q-29 248 -63.5 495t-57.5 495z" />
<glyph unicode="x" horiz-adv-x="430" d="M41 31q31 123 64.5 242.5t68.5 242.5q-35 123 -67.5 243t-61.5 242q-4 14 4 25q9 12 21 15q5 1 9 1q7 0 14 -3q11 -5 16 -19q23 -96 48 -190.5t52 -190.5q27 96 52.5 190.5t47.5 190.5q3 14 15 19q7 3 15 3q4 0 9 -1q12 -3 20.5 -14t4.5 -26q-29 -123 -61.5 -242.5 t-67.5 -242.5q35 -123 67.5 -242.5t65.5 -242.5l2 -10q0 -9 -6 -17q-9 -10 -21 -13q-5 -1 -9 -1q-9 0 -15 3q-12 5 -15 21q-25 96 -51 190.5t-53 190.5q-55 -190 -105 -381q-4 -16 -16 -21q-8 -3 -15 -3q-5 0 -9 1q-12 3 -20 13q-4 6 -4 16q0 5 1 11z" />
<glyph unicode="y" horiz-adv-x="356" d="M31 995q-1 5 -1 9q0 9 5 16q8 12 21 15q4 1 9 1q7 0 14 -3q11 -5 15 -21q25 -94 45.5 -187.5t38.5 -189.5q37 187 86 377q4 16 16 21q7 3 14 3q4 0 9 -1q12 -3 21 -14q5 -7 5 -17q0 -4 -1 -9q-72 -276 -117 -559v-4q10 -109 12 -215q1 -35 1 -71q0 -71 -3 -144 q0 -16 -11 -24.5t-23.5 -8.5t-22.5 8.5t-10 24.5q3 97 3 192v48q-1 118 -18 239q-16 131 -46 258t-62 256z" />
<glyph unicode="z" horiz-adv-x="385" d="M38 16q0 14 9 23q59 238 117.5 472t118.5 472h-207q-16 0 -24.5 10.5t-8.5 22.5t8 22.5t25 10.5h231q19 -1 27 -15q10 -4 17 -14q4 -6 4 -15q0 -5 -1 -10q-59 -238 -118.5 -473t-118.5 -475h190q16 0 24.5 -10t8.5 -22.5t-8 -22.5t-25 -10h-215q-10 -5 -18 -5 q-14 0 -25 13q-11 9 -11 26z" />
<glyph unicode="&#xad;" horiz-adv-x="432" d="M53 555q0 12 7.5 22.5t23.5 10.5h266q16 0 24.5 -10.5t8.5 -22.5t-8 -22.5t-25 -10.5h-266q-16 0 -23.5 10.5t-7.5 22.5z" />
<glyph unicode="&#xe0;" />
<glyph unicode="&#xe1;" />
<glyph unicode="&#xe2;" />
<glyph unicode="&#xe3;" />
<glyph unicode="&#xe4;" />
<glyph unicode="&#xe5;" />
<glyph unicode="&#xe8;" />
<glyph unicode="&#xe9;" />
<glyph unicode="&#xec;" />
<glyph unicode="&#xed;" />
<glyph unicode="&#xee;" />
<glyph unicode="&#xef;" />
<glyph unicode="&#xf2;" />
<glyph unicode="&#xf3;" />
<glyph unicode="&#xf4;" />
<glyph unicode="&#xf5;" />
<glyph unicode="&#xf6;" />
<glyph unicode="&#xf9;" />
<glyph unicode="&#xfa;" />
<glyph unicode="&#xfb;" />
<glyph unicode="&#xfc;" />
<glyph unicode="&#xff;" />
<glyph unicode="&#x2dc;" />
<glyph unicode="&#x2000;" horiz-adv-x="727" />
<glyph unicode="&#x2001;" horiz-adv-x="1454" />
<glyph unicode="&#x2002;" horiz-adv-x="727" />
<glyph unicode="&#x2003;" horiz-adv-x="1454" />
<glyph unicode="&#x2004;" horiz-adv-x="484" />
<glyph unicode="&#x2005;" horiz-adv-x="363" />
<glyph unicode="&#x2006;" horiz-adv-x="242" />
<glyph unicode="&#x2007;" horiz-adv-x="242" />
<glyph unicode="&#x2008;" horiz-adv-x="181" />
<glyph unicode="&#x2009;" horiz-adv-x="290" />
<glyph unicode="&#x200a;" horiz-adv-x="80" />
<glyph unicode="&#x2010;" horiz-adv-x="432" d="M53 555q0 12 7.5 22.5t23.5 10.5h266q16 0 24.5 -10.5t8.5 -22.5t-8 -22.5t-25 -10.5h-266q-16 0 -23.5 10.5t-7.5 22.5z" />
<glyph unicode="&#x2011;" horiz-adv-x="432" d="M53 555q0 12 7.5 22.5t23.5 10.5h266q16 0 24.5 -10.5t8.5 -22.5t-8 -22.5t-25 -10.5h-266q-16 0 -23.5 10.5t-7.5 22.5z" />
<glyph unicode="&#x2012;" horiz-adv-x="432" d="M53 555q0 12 7.5 22.5t23.5 10.5h266q16 0 24.5 -10.5t8.5 -22.5t-8 -22.5t-25 -10.5h-266q-16 0 -23.5 10.5t-7.5 22.5z" />
<glyph unicode="&#x2013;" horiz-adv-x="512" d="M53 555q0 12 7.5 22.5t23.5 10.5h307q16 0 24.5 -10.5t8.5 -22.5t-8 -22.5t-25 -10.5h-307q-16 0 -23.5 10.5t-7.5 22.5z" />
<glyph unicode="&#x2014;" horiz-adv-x="737" d="M53 555q0 12 7.5 22.5t23.5 10.5h553q16 0 24.5 -10.5t8.5 -22.5t-8.5 -22.5t-24.5 -10.5h-553q-16 0 -23.5 10.5t-7.5 22.5z" />
<glyph unicode="&#x2018;" horiz-adv-x="206" d="M55 1194q6 27 2 53.5t0 55.5q4 25 25 44t39 33q12 10 24.5 6t18.5 -15t5 -25.5t-13 -22.5q-12 -10 -13.5 -28.5t0.5 -30.5q2 -23 2 -44.5t-6 -43.5q-4 -16 -19.5 -20.5t-30.5 -1.5t-26.5 13.5t-7.5 26.5z" />
<glyph unicode="&#x2019;" horiz-adv-x="206" d="M40 1168.5q1 13.5 13 23.5t13.5 28.5t-0.5 30.5q-2 23 -2.5 44.5t6.5 43.5q4 14 19 19.5t30.5 2.5t27 -14.5t7.5 -25.5q-6 -27 -2 -53.5t0 -55.5q-4 -25 -25 -44t-39 -33q-12 -10 -24.5 -6t-18.5 15t-5 24.5z" />
<glyph unicode="&#x201c;" horiz-adv-x="401" d="M55 1194q6 27 2 53.5t0 55.5q4 25 25 44t39 33q12 10 24.5 6t18.5 -15t5 -25.5t-13 -22.5q-12 -10 -13.5 -28.5t0.5 -30.5q2 -23 2 -44.5t-6 -43.5q-4 -16 -19.5 -20.5t-30.5 -1.5t-26.5 13.5t-7.5 26.5zM219 1194q6 27 2 53.5t0 55.5q4 25 25 44t39 33q12 10 24.5 6 t18.5 -15t5 -25.5t-14 -22.5q-12 -10 -13 -28.5t1 -30.5q2 -23 2 -44.5t-6 -43.5q-4 -16 -19.5 -20.5t-30.5 -1.5t-26.5 13.5t-7.5 26.5z" />
<glyph unicode="&#x201d;" horiz-adv-x="376" d="M40 1168.5q1 13.5 13 23.5t13.5 28.5t-0.5 30.5q-2 23 -2.5 44.5t6.5 43.5q4 14 19 19.5t30.5 2.5t27 -14.5t7.5 -25.5q-6 -27 -2 -53.5t0 -55.5q-4 -25 -25 -44t-39 -33q-12 -10 -24.5 -6t-18.5 15t-5 24.5zM204 1168.5q1 13.5 13 23.5t13 28.5t-1 30.5q-2 23 -2 44.5 t6 43.5q4 14 19.5 19.5t31 2.5t27 -14.5t6.5 -25.5q-6 -27 -2 -53.5t0 -55.5q-4 -25 -24.5 -44t-38.5 -33q-12 -10 -24.5 -6t-18.5 15t-5 24.5z" />
<glyph unicode="&#x2026;" horiz-adv-x="698" d="M55 50q0 16 2 32q4 14 16.5 20.5t24.5 1.5q2 0 3 -1t3 -1q6 6 13 7q16 4 26.5 -3.5t14.5 -19.5q14 -33 6 -59q-6 -16 -19.5 -27.5t-29.5 -11.5t-30.5 8t-21.5 22q-8 16 -8 32zM281 50q0 16 2 32q4 14 16 20.5t25 1.5q2 0 3 -1t3 -1q6 6 12 7q16 4 26.5 -3.5t14.5 -19.5 q14 -33 6 -59q-6 -16 -19.5 -27.5t-29.5 -11.5t-30.5 8t-20.5 22q-8 16 -8 32zM506 50q0 16 2 32q4 14 16.5 20.5t24.5 1.5q2 0 3 -1t3 -1q6 6 12 7q16 4 26.5 -3.5t14.5 -19.5q14 -33 6 -59q-6 -16 -19.5 -27.5t-29.5 -11.5t-30.5 8t-20.5 22q-8 16 -8 32z" />
<glyph unicode="&#x202f;" horiz-adv-x="290" />
<glyph unicode="&#x205f;" horiz-adv-x="363" />
<glyph unicode="&#x25fc;" horiz-adv-x="1044" d="M0 0v1044h1044v-1044h-1044z" />
</font>
</defs>
</svg>
