<?xml version="1.0" encoding="utf-8"?>
<!-- Generator: Adobe Illustrator 15.0.2, SVG Export Plug-In . SVG Version: 6.00 Build 0)  -->
<!DOCTYPE svg PUBLIC "-//W3C//DTD SVG 1.1//EN" "http://www.w3.org/Graphics/SVG/1.1/DTD/svg11.dtd">
<svg version="1.1" id="Layer_1" xmlns="http://www.w3.org/2000/svg" xmlns:xlink="http://www.w3.org/1999/xlink" x="0px" y="0px"
	 width="548.565px" height="381.518px" viewBox="0 0.001 548.565 381.518" enable-background="new 0 0.001 548.565 381.518"
	 xml:space="preserve">
<g>
	<path d="M548.506,308.903c-1.172-12.563-9.848-18.918-21.244-23.814c11.142-10.551,10.241-23.271-2.229-29.362
		c10.375-3.755,19.381-11.086,19.059-21.772c-0.233-7.939-9.489-10.728-17.302-10.7c6.017-13.274,5.11-27.96-7.154-37.177
		c-9.329-6.987-24.041-5.224-33.407,2.062c-3.182-15.805-16.615-38.377-37.219-28.525c-32.597,15.582-23.406,52.152-27.352,80.301
		c-2.162-15.534-4.34-31.228-7.696-46.361c-2.797-12.583-6.981-25.075-15.704-35.058c-9.865-11.313-34.146-9.788-36.434,4.998
		c-9.799-6.537-23.076-8.772-35.325-4.052c-12.5,4.817-16.042,15.958-14.286,26.425c-9.811-1.915-20.836,5.325-24.886,14.112
		c-2.502,5.408-2.755,10.879-1.274,15.889c-13.796,1.775-23.444,18.412-16.055,28.795c-11.016,5.804-20.295,14.775-15.303,26.417
		c3.281,7.601,13.088,10.867,21.965,10.963c-3.206,8.643-3.503,16.213,2.736,23.682c4.129,4.939,10.715,9.061,17.883,9.258
		c-2.514,6.246-3.137,13.162-1.103,20.539c2.91,10.436,10.481,19.334,22.207,22.477c7.259,1.951,14.091,2.234,21.812,1.256
		c7.47-0.959,4.613-0.379,8.14,4.32c4.405,5.855,11.312,10.578,19.074,13.268c-0.185,0.338-0.354,0.709-0.468,1.135
		c-0.098,0.398-0.188,0.797-0.281,1.197c2.859,0.939,5.928,1.297,9.311,1.031c0.297-0.08,0.588-0.139,0.873-0.184
		c0.055-0.342,0.113-0.686,0.168-1.023c8.793,0.947,17.838-0.922,25.122-6.783c11.745,16.777,38.636,9.68,41.747-11.816
		c0.863-5.932,0.706-11.721-0.015-17.418c20.751,9.23,35.741,29.947,62.686,21.527c16.483-5.174,23.109-21.586,19.161-34.932
		C536.599,327.555,549.551,320.194,548.506,308.903z M431.5,189.253c3.925-13.155,20.983-36.808,37.324-22.254
		c8.005,7.128,12.023,16.405,12.543,26.811c0.137,2.702,4.055,2.876,5.229,0.955c0.015-0.034,0.038-0.042,0.081-0.072
		c7.22-8.139,23.589-11.546,31.313-3.064c8.911,9.769,8.669,21.655,1.995,33.317c-0.909,1.592,0.132,4,2.384,3.655
		c13.217-2.018,21.148,12.097,7.354,19.476c-4.543,2.428-8.063,3.807-12.951,4.822c-0.098,0.01-0.136,0.057-0.234,0.09
		c-12.245-2.384-25.135-2.217-37.842-0.865c-14.162,1.51-28.622,5.459-42.518,3.371c11.377-7.225,24.217-11.518,37.84-11.915
		c7.465-0.216,15.586-0.312,22.661-3.352c4.985-2.129,6.601-6.238,5.082-10.575c-2.298-6.489-9.34-8.664-16.337-8.615
		c3.44-11.968-12.708-16.002-24.321-10.904c0.411-7.391-3.883-14.335-14.081-11.111c-6.146,1.938-8.847,8.39-10.002,13.471
		c-3.316,14.592,2.507,26.634-11.042,39.077c-0.413,0.367-0.61,0.754-0.734,1.141c-0.31-0.068-0.627-0.113-0.944-0.176
		C431.784,231.737,425.295,210.065,431.5,189.253z M458.911,217.492c6.751-6.577,27.129-7.083,19.988,5.303
		c-1.354,2.34,1.336,4.209,3.368,3.447c5.659-0.443,21.257,6.638,11.559,9.84c-2.761,0.91-5.531,1.504-8.385,1.791
		c-4.809,0.477-9.548,0.57-14.35,0.743c-7.964,0.301-15.897,2.268-23.404,5.312c3.438-3.229,6.467-6.78,8.657-10.49
		c0.08-0.139,0.08-0.27,0.137-0.408c1.52-0.512,2.747-1.59,3.35-3.273c0.807-2.225-0.886-4.511-3.219-4.943
		c-1.378-0.256-2.687,0.101-3.754,0.802c-1.146,0.565-2.07,1.504-2.452,2.768c-0.367,1.214-0.073,2.504,0.69,3.475
		c-3.318,5.332-8.484,10.293-14.074,14.151c4.616-8.413,4.073-17.126,4.865-27.639c0.293-3.881,1.828-16.857,9.792-15.018
		c5.737,1.312,4.908,7.181,2.896,11.322C453.334,217.211,456.516,219.813,458.911,217.492z M468.601,287.956
		c-0.954-0.177-1.818-0.074-2.591,0.191c-0.16-0.139-0.283-0.289-0.519-0.386c-9.901-4.438-17.815-10.558-23.914-18.41
		c5.067,0.896,10.84,0.669,15.878,0.303c11.104-0.834,22.247-2.639,33.361-2.976c4.848-0.143,10.024-0.389,14.62,0.867
		c14.412,3.931,3.674,17.383-5.596,22.518c-2.199,1.217-1.646,4.098,0.615,4.573c6.67,1.411,15.328,3.647,19.744,8.597
		c11.622,13.055-9.61,15.574-14.977,15.348c-2.356-0.033-4.648-0.26-6.926-0.615c-0.32-0.123-0.641-0.168-0.979-0.133
		c-0.106-0.02-0.222-0.027-0.321-0.047c-3.228-0.5-4.713,3.682-2.114,4.729c9.43,21.215-12.945,19.137-20.62,14.486
		c-3.64-2.125-6.995-4.561-10.066-7.299c-6.561-6.068-12.539-12.707-16.992-20.275c-7.511-12.766-12.013-26.245-13.062-40.842
		c6.823,10.324,16.355,18.248,28.479,23.684c0.079,0.04,0.16,0.031,0.24,0.059c-0.099,1.738,0.847,3.428,3.245,3.871
		C471.89,297.267,474.381,289.022,468.601,287.956z M312.417,191.275c0.765,0.315,1.499,0.281,2.147,0.052
		c1.851,0.626,4.639-0.849,3.959-3.125c-2.748-9.144-0.744-19.162,8.66-23.695c0.803-1.35,2.33-2.41,4.646-2.632
		c1.262-0.122,2.339,0.049,3.23,0.414c2.238-0.304,4.447-0.372,6.611-0.246c1.114-0.258,2.186-0.113,3.121,0.319
		c6.715,1.025,12.826,4.047,17.609,8.507c0.13,0.115,0.261,0.21,0.395,0.29c0.811,0.086,1.624,0.164,2.438,0.237
		c1.371-0.388,2.589-1.571,2.236-3.162c-0.104-0.485-0.176-0.95-0.227-1.404c-0.256-0.437-0.518-0.873-0.756-1.317
		c-1.155-2.175,0.339-4.837,2.703-6.07c0.535-0.614,1.248-1.086,2.134-1.337c0.229-0.148,0.477-0.277,0.721-0.411
		c0.337-0.228,0.713-0.417,1.134-0.551c0.789-0.338,1.633-0.604,2.504-0.812c0.605-0.272,1.312-0.429,2.116-0.429
		c0.123,0,0.24,0.01,0.359,0.018c4.962-0.492,10.394,0.851,13.487,3.782c2.932,2.781,5.479,5.731,7.41,9.188
		c4.096,7.389,7.06,15.318,8.885,23.544c2.572,11.531,4.506,23.364,6.27,35.218c-3.393-12.325-6.324-24.854-13.555-35.717
		c-3.09-4.645-8.061-11.197-15.346-9.798c-5.822,1.114-8.676,5.362-9.033,9.915c-6.145-2.752-14.02-3.347-20.163,0.35
		c-6.851,4.131-6.229,9.862-3.005,14.638c-5.687-0.306-11.819,0.776-14,6.23c-2.467,6.214-1.146,10.762,5.095,13.66
		c7.616,3.521,19.146,2.05,27.577,1.39c14.154-1.08,26.517,3.146,35.648,11.387c0.133,0.405,0.278,0.813,0.4,1.215
		c-12.463-6.276-30.313-6.35-43.989-5.481c-14.597,0.916-30.45,2.745-44.524-0.641c-0.604-0.723-1.592-1.094-2.717-0.749
		c-2.377-0.71-4.709-1.559-6.951-2.632c-7.611-3.626-17.159-9.582-18.687-18.085C289.352,204.314,298.875,185.604,312.417,191.275z
		 M392.911,210.151c-5.776-1.069-8.271,7.17-2.491,8.236c0.523,0.098,1.004,0.103,1.473,0.061c4.537,2.679,8.021,6.454,10.688,10.75
		c-6.807-4.111-14.662-6.708-22.882-6.417c-6.257,0.226-12.535,1.069-18.791,1.097c-4.079,0.01-8.576,0.161-12.421-1.029
		c-14.858-4.589,3.053-11.369,9.729-9.961c0.864,0.178,1.595-0.006,2.171-0.364c1.854-0.566,3.223-2.775,1.43-4.207
		c-3.484-2.79-9.557-9.476-1.814-12.275c6.239-2.27,12.96-0.828,17.511,3c0.16,0.128,0.317,0.169,0.48,0.265
		c1.78,1.616,5.551-0.901,4.319-3.482c-2.744-5.821,3.717-11.442,8.685-6.899c2.38,2.169,4.253,4.693,5.784,7.423
		c3.861,6.87,6.693,14.229,9.137,21.672c1.275,3.874,2.361,7.865,3.449,11.861c-3.083-5.989-7.387-11.361-13.292-15.155
		C396.504,212.759,395.629,210.653,392.911,210.151z M280.105,296.245c-0.994-6.002,0.791-10.838,3.196-16.396
		c0.661-1.555-1.002-3.191-2.685-3.021c-7.769,0.785-20.063-1.49-21.588-9.895c-1.853-10.16,8.313-15.59,16.265-19.359
		c2.056-0.979,1.737-2.987,0.406-3.976c-0.066-0.428-0.222-0.854-0.573-1.251c-6.681-7.173,2.27-22.131,12.952-21.657
		c2.019,3.606,4.979,6.823,8.673,9.389c4.859,3.362,10.098,5.876,15.618,7.721c-0.022,0.042-0.039,0.086-0.062,0.129
		c1.07,0.093,1.937,0.482,2.608,1.049c0.281-0.044,0.571-0.074,0.882-0.074c0.891,0,1.653,0.195,2.299,0.523
		c8.541,2.049,17.666,2.666,27.053,2.186c18.524-0.935,52.896-6.484,66.373,8.124c-13.14,1.679-26.061,2.866-39.059,1.634
		c-0.078-0.211-0.188-0.432-0.313-0.623c-1.219-1.869-4.15-2.49-6.329-1.172c-1.411,0.866-2.238,1.816-2.769,3.301
		c-0.806,2.217,0.881,4.513,3.231,4.946c1.759,0.325,3.43-0.34,4.577-1.508c13.283,1.284,26.507,0.222,39.943-1.464
		c-3.942,1.818-7.846,4.379-11.597,7.064c-17.653,12.639-35.424,17.896-56.746,21.644c-6.532,1.146-13.116,3.271-19.209,6.22
		c-0.034-0.001-0.041-0.014-0.081-0.01c-0.525,0.016-1.017,0.005-1.475-0.027c-2.25,1.061-4.491,2.137-6.727,3.225
		c0.401,0.255,0.827,0.494,1.303,0.697c-6.817,4.353-12.608,9.832-16.437,16.168C291.716,310.631,281.311,303.37,280.105,296.245z
		 M434.909,369.053c-8.877,11.357-23.294,8.887-29.257-1.73c-0.5-0.904-1.354-1.178-2.209-1.117
		c-0.894-0.313-1.991-0.193-2.908,0.693c-6.873,6.729-16.686,8.455-25.842,6.766c-0.744-0.363-1.561-0.545-2.369-0.557
		c-10.502-2.668-19.657-9.793-21.684-19.035c-0.302-1.363-1.994-1.959-3.404-1.574c-18.307,5.045-42.543,0.906-45.659-18.613
		c-2.604-16.473,6.612-31.197,21.948-39.16c0.714-0.096,1.285-0.371,1.676-0.792c3.099-1.474,6.4-2.696,9.906-3.599
		c15.35-3.903,31.414-4.975,46.002-11.76c9.228-4.32,26.092-19.563,38.561-20.914c-6.875,3.332-13.083,7.366-18.736,12.506
		c-10.199,9.275-20.635,14.844-33.67,20.031c-14.326,5.695-32.453,7.639-40.725,21.43c-11.324,18.879,16.2,30.451,33.775,26.08
		c-1.248,18.234,25.438,21.432,39.178,8.844c10.063,9.639,27.563,7.381,27.84-9.877c0.407-24.527-15.066-45.383-3.318-69.057
		c-3.021,18.242,3.302,34.717,8.441,52.338c2.827,9.662,6.27,19.674,6.483,29.896C439.056,356.01,439.216,363.54,434.909,369.053z
		 M414.518,302.258c1.737,7.445,4.478,14.643,5.957,22.143c0.815,4.076,1.854,8.385,1.278,12.619
		c-1.599,11.877-13.047,12.939-19.653,4.26c-1.221-1.619-3.502-1.357-4.809,0.266c-9.545,11.873-35.787,10.703-30.855-7.186
		c0.616-2.26-1.888-3.682-4.058-2.59c-11.278,5.631-37.452-0.197-31.69-15.975c4.84-13.248,22.008-14.473,33.942-19.219
		c9.455-3.762,20.488-7.563,28.673-13.535c5.293-3.873,10.024-8.095,14.979-12.028c-9.104,11.165-16.362,23.293-20.462,36.558
		c-3.543,1.506-4.299,7.102,0.373,7.963c4.646,0.855,7.162-4.291,4.974-6.895c4.737-15.295,13.839-28.895,25.071-41.313
		C413.145,278.465,411.884,290.969,414.518,302.258z M522.004,325.038c-1.648,0.125-3.34,1.814-2.704,3.34
		c8.509,19.918-14.611,41.305-37.289,31.088c-14.191-6.395-24.178-17.207-39.146-22.545c-4.304-21.529-15.682-41.965-13.942-64.062
		c2.778,25.646,15.77,52.452,38.771,66.403c18.647,11.311,39.205,3.32,33.396-15.955c10.973,0.654,26.883-1.076,27.438-13.031
		c0.486-10.766-10.441-16.24-20.798-19.17c7.837-5.313,16.029-13.504,10.224-21.635c-4.076-5.706-10.752-7.232-18.146-7.783
		c-11.28-0.846-55.959,9.591-64.313-1.116c15.328,2.142,31.142-2.616,46.815-3.704c9.604-0.676,19.909-1.541,29.181,0.332
		c7.02,1.412,27.205,6.461,16.899,19.437c-2.179,2.94-4.824,5.479-7.938,7.608c-1.362,1.06-1,3.338,0.514,3.93
		c5.215,2.039,11.348,4.193,15.334,7.918C547.995,307.063,540.489,323.702,522.004,325.038z"/>
	<path d="M253.144,238.32c-2.239-23.667-26.636-26.465-42.683-38.276c5.459-1.785,10.791-4.03,15.879-7.099
		c18.448-11.109,15.024-34.193-4.587-36.164c1.837-5.429,1.63-10.708-0.022-15.502c-3.663-3.338-6.336-7.826-8.096-12.913
		c-0.16,0.15-0.306,0.303-0.44,0.456c-5.306-4.73-12.151-7.988-19.11-8.905c-5.58-0.731-5.059,1.65-6.933-4.347
		c-1.949-6.197-4.72-11.21-9.167-15.865c-7.179-7.519-18.074-9.573-28.657-7.499c-7.473,1.482-13.547,4.773-18.313,9.208
		c-2.818-5.3-8.995-8.564-15.017-9.647c-9.104-1.636-15.894,1.674-22.593,7.611c-3.353-6.625-9.937-12.657-18.07-12.017
		c-12.449,1.002-17.212,11.631-18.448,22.271c-12.183-1.312-23.795,12.721-20.337,23.805c-5.111,0.932-10.005,3.354-14.013,7.439
		c-6.519,6.627-9.061,17.859-3.706,24.443c-10.186,2.955-19.036,10.159-18.827,21.509c0.205,11.124,7.126,20.179,16.689,24.869
		c-12.634,7.751-5.092,26.602,8.848,29.393c12.308,2.475,25.232,0.518,37.729-2.519c15.029-3.654,30.133-8.425,45.086-13.141
		c-24.203,14.45-60.916,22.474-63.124,53.305c-1.4,19.487,24.115,20.363,39.691,16.301c-3.194,10.006,0.612,21.77,10.412,25.922
		c12.913,5.449,26.631,0.135,36.515-9.799c2.851,5.875,8.797,11.688,16.118,8.623c9.86-4.119,13.226-13.873,12.833-23.197
		c10.141,6.877,22.062,2.363,27.581-10.308c8.656,6.558,17.642,10.478,29.52,6.229c10.677-3.822,12.622-16.551,10.455-25.549
		C241.973,264.477,254.491,252.806,253.144,238.32z M149.825,96.929c18.937-5.628,31.625,10.879,33.763,26.682
		c0.167,1.215,1.333,2.244,2.686,1.914c9.169-2.251,19.033,1.714,25.328,8.511c0.308,0.602,0.774,1.141,1.378,1.552
		c4.91,6.184,6.944,14.255,3.342,22.161c-0.473,1.05-0.175,1.922,0.437,2.465c0.261,0.667,0.823,1.198,1.831,1.204
		c11.871,0.142,19.427,9.957,12.342,21.258c-3.438,5.482-10.359,8.436-16.018,10.859c-9.397,4.014-19.788,5.514-29.634,7.335
		c-17.951,3.332-35.292,5.308-50.808,15.021c17.254-18.482,41.954-15.375,64.161-25.691c15.626-7.252,11.244-21.313-1.242-24.932
		c6.418-15.451-6.312-34.183-22.472-25.805c-2.484-14.979-23.155-30.92-36.197-14.713c-9.526,11.837-4.629,26.239-4.548,39.319
		c0.065,11.904-1.169,22.011-5.869,33.454c-2.605,6.342-3.998,12.649-4.502,19.17c-3.357-9.914,4.328-28.794,4.873-37.485
		c0.818-13.72-4.121-26.218-6.207-39.337c-0.471-2.998-0.568-5.977-0.366-8.904c0.239-0.464,0.279-1.005,0.106-1.581
		C123.822,114.624,133.852,101.696,149.825,96.929z M207.049,250.215c0.054,0.066,0.103,0.147,0.161,0.223
		c0.092,0.268,0.25,0.491,0.48,0.682c1.163,1.563,2.213,3.191,3.109,4.948c2.181,3.935,7.696,20.904-8.477,17.503
		c-6.137-1.294-11.36-6.881-15.1-11.313c-1.264-1.506-4.095-0.742-4.395,1.402c-1.271,9.055-9.58,22.607-18.462,13.391
		c-2.838-2.936-4.516-6.924-6.171-10.622c-3.781-8.479-6.236-17.584-9.561-26.259c-1.52-3.932-3.438-8.358-6.117-11.797
		c9.4,1.372,17.887,4.817,25.578,10.439c0.173,0.137,0.356,0.168,0.542,0.232c0.041,0.688,0.265,1.378,0.777,2.024
		c3.1,3.905,9.694-1.332,6.595-5.236c-1.286-1.62-3.175-1.64-4.723-0.856c-0.054-0.049-0.074-0.113-0.141-0.158
		c-9.414-6.881-20.144-10.804-32.063-11.714c13.689-5.17,27.63-7.289,42.029-6.862c8.534,0.254,16.786,2.034,24.731,4.483
		c3.627,1.189,7.079,2.712,10.357,4.578c7.06,3.865,17.188,19.817-5.619,21.396C208.671,245.172,205.405,247.995,207.049,250.215z
		 M164.964,169.447c-2.504-3.156-7.325-0.305-7.395,2.968c-10.579,8.491-18.964,18.891-25.79,30.282
		c1.763-5.325,3.871-10.601,5.453-16.154c2.432-8.583,1.838-18.416,1.786-27.05c-0.064-10.898-5.264-24.287,5.029-33.329
		c12.26-10.762,27.203,6.51,26.219,17.275c-0.197,2.076,2.021,3.374,3.852,1.989c14.489-11.001,25.212,8.221,17.901,20.232
		c-0.998,1.644-0.397,3.464,1.527,3.719c10.343,1.417,13.584,10.447,3.349,16.493c-3.649,2.161-7.957,3.14-11.973,4.191
		c-7.379,1.95-14.947,2.832-22.371,4.565c-11.26,2.63-22.191,8.68-30.47,17.047c7.187-13.501,16.231-25.883,28.428-35.681
		C163.69,176.574,167.455,172.584,164.964,169.447z M97.465,260.443c-3.034,3.203-8.079,6.222-11.385,2.449
		c-4.607-5.229,6.654-11.679,10.085-13.481c9.29-4.886,17.43-8.032,23.399-14.932c-1.458,5.769-4.08,11.674-7.719,16.341
		c-1.166-0.177-2.449,0.127-3.42,0.897c-1.012,0.803-1.527,1.883-1.621,2.972c-0.247,1.09-0.088,2.216,0.649,3.146
		c1.252,1.578,3.959,1.914,5.69,0.399c1.312-1.138,1.844-2.502,1.75-3.851c0.107-0.098,0.225-0.15,0.322-0.268
		c2.575-3.16,4.696-6.885,6.374-10.783c-0.013,6.878,1.114,13.639,3.771,19.74c1.607,3.676,3.267,7.271,4.601,11.076
		c0.79,2.26,1.267,4.582,1.453,7.023c0.649,8.59-11.543-0.229-13.221-4.66c-0.053-1.838-2.746-3.096-4.381-1.125
		c-8.662,10.419-15.696-5.088-12.187-12.838C102.861,259.805,99.32,258.479,97.465,260.443z M55.281,209.22
		c-0.147-0.083-0.244-0.185-0.418-0.252c-5.162-1.855-8.949-6.313-9.176-11.922c-0.297-6.955,8.03-5.125,11.855-3.647
		c1.964,0.762,3.474-1.168,3.308-2.792c0.116-0.577,0.014-1.2-0.467-1.778c-3.739-4.438-4.149-20.653,5.5-11.369
		c2.499,2.4,4.014,5.837,5.508,8.905c2.276,4.708,3.817,9.766,5.913,14.554c2.759,6.29,8.016,11.128,14.267,14.561
		c-4.896-0.25-9.617-1.325-13.73-3.638c-0.133-0.368-0.315-0.727-0.596-1.081c-3.099-3.901-9.689,1.331-6.591,5.232
		c1.458,1.837,3.7,1.634,5.335,0.508c5.629,2.887,12.109,3.925,18.702,3.795c-4.042,0.814-8.081,1.626-12.079,2.251
		c-7.683,1.203-15.432,2.08-23.115,1.985c-3.051-0.036-6.04-0.413-8.893-1.313c-5.968-1.874-3.221-9.02,3.093-9.336
		C56.502,213.754,57.408,209.896,55.281,209.22z M102.933,214.833c-10.87-3.493-19.269-11.049-23.492-22.116
		c-2.499-6.6-5.401-15.856-11.412-20.137c-4.939-3.504-9.569-2.639-14.326,1.75c-4.167,3.863-2.898,8.908-0.526,13.054
		c-5.54-0.471-10.992,1.4-12.236,8.229c-1.11,6.123,2.33,11.793,7.1,15.281c-4.018,2.127-6.839,6.002-5.713,10.829
		c1.404,6.041,9.205,7.1,14.576,7.522c12.561,0.995,25.059-1.917,37.54-4.399c-11.453,3.513-22.948,6.891-34.403,9.665
		c-8.17,1.988-16.487,2.997-24.729,2.94c-3.861-0.039-7.487-0.749-11.1-1.813c-8.873-2.625-14.678-18.293-1.119-21.634
		c1.889-0.459,2.436-2.374,1.892-3.633c-0.006-0.006-0.012-0.031-0.023-0.045c-0.035-0.099-0.104-0.174-0.158-0.262
		c-0.232-0.404-0.583-0.749-1.172-0.938c-9.232-2.81-16.417-9.581-18.419-19.097c-2.461-11.683,7.163-18.974,18.074-20.921
		c2.322-0.42,2.641-3.115,1.39-4.249c-0.03-0.582-0.269-1.146-0.837-1.591c-10.15-7.853,3.398-22.639,12.21-25.108
		c8.312-2.324,17.253,2.413,23.358,6.646c1.804,1.248,3.436,2.651,4.957,4.147c0.099,0.983,0.801,1.574,1.682,1.733
		c8.263,9.183,12.43,21.833,16.966,33.165c4.239,10.624,10.874,23.994,21.18,30.791
		C103.777,214.712,103.353,214.769,102.933,214.833z M81.757,167.299c-2.834-6.809-6.477-13.043-11.062-18.399
		c-0.387-0.397-0.747-0.82-1.089-1.257c-0.019-0.021-0.036-0.042-0.054-0.063c0.001-0.001,0.002-0.002,0.003-0.004
		c-0.979-1.268-1.761-2.7-2.278-4.312c-0.376,0.297-0.735,0.616-1.055,0.981c-3.712-3.392-7.932-6.299-12.783-8.574
		c-3.698-1.728-7.719-2.638-11.748-2.68c-4.364-7.828,5.977-20.651,14.973-18.563c0.49,0.104,0.937,0.044,1.352-0.08
		c1.388,0.595,3.335,0.016,3.472-1.928c0.511-7.508,1.72-17.356,11.662-20.111c8.22-2.286,14.817,6.016,16.958,12.168
		c0.466,1.333,2.57,1.915,3.743,0.783c4.181-4.074,7.931-7.388,13.77-9.092c6.936-2.003,17.382,2.847,19.644,9.275
		c-4.37,5.458-7.233,12.042-8.691,18.937c-0.324-0.245-0.658-0.45-0.997-0.637c-0.114,0.771-0.394,1.509-0.822,2.149
		c0.929,1.376,1.127,3.233,0.593,4.815c0.072,0.145,0.146,0.286,0.216,0.441c0.011,0.033,0.025,0.032,0.038,0.056
		c-0.447,5.779,0.038,11.589,1.398,16.962c4.431,17.536,6.175,33.022,1.151,51.436c-1.069,3.911-1.965,7.886-2.171,11.587
		c-3.409-10.775-7.305-21.135-13.363-30.584c0.643-1.339,0.634-2.864-0.309-4.052c-1.261-1.588-3.971-1.917-5.698-0.408
		c-1.157,1.004-1.72,2.012-1.989,3.425c-0.401,2.176,1.244,4.123,3.396,4.276c0.222,0.013,0.46,0.007,0.684-0.022
		c5.905,9.257,9.575,19.442,12.879,29.991C95.308,209.657,87.721,181.589,81.757,167.299z M155.553,303.233
		c-1.648,13.367-17.431,13.172-20.455,2.426c-0.514-1.832-3.09-1.631-4.207-0.301c-8.174,9.77-18.919,14.805-31.099,12.102
		c-10.573-2.338-13.491-16.018-8.729-24.76c0.012-0.043,0.01-0.064,0.036-0.092c1.319-1.665-0.282-4.537-2.795-3.535
		c-9.675,3.856-19.608,4.627-29.05,1.523c-19.276-6.328-3.995-28.785,6.551-37.104c16.686-13.151,38.824-17.125,55.029-31.229
		c0.17,0.212,0.33,0.433,0.507,0.638c-0.309,0.25-0.589,0.558-0.77,1.017c-6.357,15.249-19.474,15.792-31.553,24.241
		c-4.207,2.939-9.095,7.598-8.599,13.004c0.814,8.973,8.723,9.361,15.308,6.037c-0.375,10.801,9.244,21.275,18.886,13.811
		c2.53,5.271,7.102,9.67,13.864,8.748c4.51-0.631,7.66-3.52,7.768-8.131c0.166-6.553-2.734-12.688-5.283-18.381
		c-4.651-10.391-5.462-21.782-3.063-33.271c7.015,9.581,8.736,22.045,12.569,33.297c3.445,10.089,8.034,19.835,14.713,28.055
		c0.004,0.088-0.022,0.139,0.004,0.213C156.057,295.625,156.096,298.831,155.553,303.233z M224.907,262.635
		c-1.622,0.146-2.542,2.104-2.048,3.393c5.582,14.422-6.822,26.848-21.122,22.543c-4.862-1.474-9.083-5.197-12.861-8.279
		c-1.094-0.896-3.304-0.238-3.77,1.217c-0.794,3.207-2.134,6.232-4.013,9.066c-8.036,13.033-20.063-0.063-23.934-4.756
		c-5.118-6.195-8.12-14.287-11.038-21.771c-4.773-12.213-6.256-26.025-13.847-36.659c12.834,1.904,19.758,39.704,24.677,47.827
		c3.223,5.328,7.071,9.717,13.772,10.447c9.544,1.041,13.999-8.451,15.956-16.504c6.479,6.577,15.492,12.551,25.123,7.791
		c10.691-5.295,6.415-17.947,1.783-25.918c19.706-3.505,19.425-22.2,2.255-31.583c-21.179-11.578-50.389-10.389-74.785-2.01
		c19.5-10.322,42.31-10.12,63.515-15.675c10.37,9.061,23.9,12.145,34.952,20.189C257.177,234.808,246.191,260.895,224.907,262.635z"
		/>
	<path d="M396.813,71.058c-3.595-5.635-10.608-7.072-16.408-6.105c0.432-7.224-0.828-13.253-6.324-18.437
		c-3.637-3.429-8.715-5.919-13.422-5.236c0.438-5.24-0.482-10.791-3.225-16.395c-3.896-7.924-10.537-14.083-18.773-15.2
		c-5.102-0.692-9.604-0.116-14.443,1.564c-4.682,1.633-2.933,0.839-6.13-2.47c-3.993-4.121-9.396-7.052-14.969-8.272
		c0.032-0.159,0.054-0.329,0.069-0.506c-4.053,1.275-8.178,1.665-12.069,0.857c-3.813,1.204-7.228,3.588-9.726,7.382
		c-10.868-11.911-27.018-3.138-24.918,14.25c0.576,4.798,1.789,9.363,3.35,13.793c-15.282-4.88-29.02-19.531-44.951-9.706
		c-9.741,6.03-10.908,19.802-5.777,29.91c-6.702,2.873-13.724,10.221-10.876,19.042c3.171,9.811,10.042,13.827,18.404,16.371
		c-5.231,9.662-2.204,19.628,7.086,22.991c-6.037,4.191-10.496,11.052-8.235,19.477c1.676,6.261,8.238,7.385,13.321,6.448
		c-1.372,11.217,2.036,22.742,11.792,28.604c7.416,4.44,16.657,1.321,21.359-5.546c5.104,12.145,18.185,28.446,29.709,18.231
		c18.24-16.16,5.238-44.046,2.404-66.8c4.391,12.047,8.818,24.222,13.908,35.814c1.987,4.521,4.194,8.972,6.738,13.154
		c0.67-0.531,1.531-0.898,2.604-1.001c0.43-0.042,0.83-0.033,1.209,0.014c-2.425-3.801-4.58-7.807-6.416-11.99
		c-3.89-8.828-7.42-17.972-10.84-27.153c4.572,9.363,8.885,18.942,15.678,26.697c2.904,3.317,7.398,7.924,11.873,5.962
		c3.582-1.564,4.621-5.263,3.981-8.91c4.528,1.46,9.771,1.008,13.063-2.64c3.668-4.074,2.162-8.539-0.854-11.944
		c3.764-0.424,7.549-2,7.923-6.574c0.413-5.21-1.317-8.658-5.94-10.222c-5.633-1.897-12.859,0.62-18.225,2.131
		c-9.011,2.514-17.871,0.615-25.398-4.842c-0.166-0.306-0.338-0.61-0.497-0.916c9.323,3.512,20.961,1.477,29.702-0.813
		c9.328-2.436,19.303-5.742,29.117-4.709c0.53,0.503,1.246,0.68,1.91,0.276c1.686,0.283,3.367,0.682,5.034,1.27
		c5.653,1.98,13.013,5.578,15.64,12.133c2.779,6.954,0.168,22.886-9.74,19.982c-0.559-0.16-1.028-0.047-1.407,0.212
		c-1.324-0.28-2.856,1.216-1.979,2.937c2.14,4.176,3.178,8.793,2.536,12.84c0.337-0.068,0.694-0.104,1.073-0.107
		c0.727-0.582,1.674-0.952,2.841-0.992c0.173-3.487-0.54-7.16-1.892-10.629c6.757,0.367,12.547-6.658,13.501-14.091
		c0.59-4.575-0.296-8.938-2.222-12.732c8.645-3.024,11.735-17.329,4.93-24.686C397.977,87.887,402.298,79.694,396.813,71.058z
		 M315.557,132.252c0.096,1.608,1.071,3.174,2.938,3.252c3.969,0.169,4.009-6.646,0.042-6.814c-0.36-0.016-0.673,0.035-0.97,0.125
		c-3.471-1.591-6.463-4.172-9.023-7.261c5.223,2.458,10.836,3.594,16.134,2.401c4.031-0.913,7.958-2.316,12.024-3.071
		c2.654-0.486,5.555-1.132,8.287-0.64c10.559,1.893,0.193,9.362-4.426,9.029c-0.598-0.04-1.035,0.191-1.343,0.542
		c-1.1,0.666-1.565,2.577-0.125,3.499c2.806,1.802,8.042,6.386,3.538,9.509c-3.628,2.528-8.281,2.174-11.979-0.323
		c-0.129-0.082-0.24-0.097-0.363-0.155c-1.471-1.071-3.441,1.365-2.145,3.265c2.9,4.288-0.229,9.497-4.334,6.481
		c-1.965-1.44-3.668-3.22-5.189-5.202c-3.834-4.989-7.092-10.484-10.109-16.092c-1.572-2.919-3.047-5.952-4.521-8.989
		C307.148,126.189,310.98,129.941,315.557,132.252z M217.511,98.726c0.854-2.585,2.091-4.905,3.711-6.957
		c0.683-0.999,0.01-2.761-1.089-3.051c-3.788-1.005-8.194-1.992-11.506-4.475c-9.722-7.318-8.026-21.374,3.754-24.598
		c1.049-0.292,1.826-1.829,1.12-2.96c-9.363-14.779,1.59-34.426,18.319-28.991c10.47,3.402,19.046,10.797,29.818,13.269
		c6.934,16.546,18.264,31.396,21.372,49.1c-6.73-19.986-20.333-39.691-37.99-48.046c-14.314-6.774-26.168,1.963-18.687,16.548
		c-7.27,0.768-17.301,4.004-15.368,13.536c1.749,8.583,9.917,11.638,17.222,12.744c-4.084,5.127-7.847,12.575-2.507,18.333
		c3.75,4.041,8.389,4.468,13.312,4.039c7.508-0.653,34.6-14.153,42.095-6.652c-10.391,0.1-19.777,5.721-29.775,8.42
		c-6.125,1.659-12.67,3.553-19.066,3.155C227.404,111.842,213.29,110.21,217.511,98.726z M274.104,137.425
		c-3.134,5.999-16.309,8.788-14.034-1.859c0.433-2.01-1.678-3.175-2.854-2.334c-3.601,1.014-15.117-2.766-9.415-6.439
		c1.622-1.043,3.313-1.838,5.116-2.398c3.04-0.942,6.109-1.572,9.203-2.271c5.129-1.171,9.918-3.658,14.223-6.949
		c-1.62,2.959-2.911,6.128-3.627,9.323c-0.024,0.119-0.001,0.221-0.009,0.338c-0.891,0.583-1.485,1.582-1.555,2.985
		c-0.098,1.855,1.442,3.468,3.046,3.537c0.945,0.041,1.728-0.394,2.289-1.075c0.64-0.581,1.063-1.434,1.066-2.479
		c0.008-1.005-0.433-1.992-1.115-2.67c1.137-4.612,3.549-9.147,6.449-12.856c-1.392,7.204,0.633,14.041,2.135,22.458
		c0.555,3.11,2.045,13.566-3.494,13.042c-3.988-0.367-4.576-5.113-4.059-8.629C277.79,136.994,275.218,135.305,274.104,137.425z
		 M254.274,82.755c0.656,0.028,1.198-0.155,1.65-0.456c0.131,0.09,0.24,0.197,0.412,0.246c7.301,2.355,13.629,6.272,19.105,11.778
		c-3.473-0.116-7.188,0.739-10.397,1.62c-7.071,1.962-13.982,4.696-21.153,6.266c-3.131,0.68-6.457,1.483-9.688,1.025
		c-10.141-1.422-5.729-13.333-0.676-18.488c1.198-1.22,0.285-3.438-1.28-3.55c-4.615-0.335-10.681-1.091-14.506-4.496
		c-10.075-8.977,3.271-13.46,6.806-13.907c1.542-0.25,3.078-0.339,4.629-0.324c0.232,0.06,0.45,0.057,0.663-0.012
		c0.075,0.005,0.151-0.004,0.218,0c2.2,0.018,2.365-3.468,0.471-3.993c-10.212-15.697,4.759-16.672,10.649-13.89
		c2.778,1.257,5.43,2.793,7.955,4.601c5.438,4.038,10.606,8.596,14.957,14.067c7.341,9.231,12.858,19.378,16.343,30.814
		c-6.425-7.375-14.153-12.534-23.09-15.42c-0.062-0.021-0.111-0.004-0.169-0.017c-0.268-1.387-1.208-2.616-2.855-2.687
		C250.348,75.768,250.304,82.588,254.274,82.755z M297.375,156.577c-0.034,10.879-6.604,31.608-20.037,21.997
		c-6.582-4.707-10.978-11.583-13.313-19.764c-0.607-2.124-3.193-1.803-3.588-0.143c-0.005,0.029-0.019,0.038-0.04,0.067
		c-3.14,7.292-13.147,11.908-19.805,6.095c-7.676-6.693-9.799-16.135-7.69-26.152c0.285-1.368-0.854-3.151-2.256-2.614
		c-8.219,3.145-16.093-7.102-8.525-14.562c2.493-2.455,4.52-3.958,7.508-5.338c0.061-0.019,0.08-0.06,0.136-0.099
		c8.432,0.455,16.795-1.188,24.81-3.747c8.935-2.855,17.591-7.676,27.041-7.651c-6.021,7.053-13.561,11.958-22.356,13.868
		c-4.818,1.045-10.089,2.074-14.113,5.31c-2.837,2.271-3.101,5.713-1.281,8.971c2.742,4.87,7.745,5.767,12.292,4.91
		c0.056,9.879,11.347,11.183,17.931,5.785c1.15,5.901,5.278,10.897,11.304,7.149c3.631-2.254,4.149-7.68,3.928-11.84
		c-0.641-11.945-6.742-20.799-0.307-32.241c0.197-0.338,0.254-0.669,0.258-0.99c0.215,0.019,0.433,0.017,0.649,0.027
		C289.037,122.964,297.422,139.368,297.375,156.577z M301.346,51.495c-3.188-0.135-3.841,4.237-1.916,6.043
		c-0.15,12.666-3.468,24.502-8.398,35.653c1.177-9.417-0.398-19.465-4.28-28.099c-2.562-5.693-5.726-11.071-8.127-16.837
		c-1.313-3.134-2.815-6.422-3.253-9.845c-1.239-9.593,6.01-11.777,11.979-5.675c1.105,1.139,2.541,0.663,3.082-0.776
		c3.937-10.521,21.25-12.667,21.471,2.076c0.031,1.861,1.935,2.696,3.141,1.577c6.264-5.782,24.428-4.233,23.703,8.937
		c-0.611,11.059-11.555,14.04-18.418,19.199c-5.438,4.085-11.891,8.388-16.075,14.078c-2.704,3.686-4.976,7.585-7.446,11.281
		c3.785-9.908,6.188-20.365,6.312-31.349C305.134,56.148,304.553,51.63,301.346,51.495z M291.952,101.013
		c3.838-3.442,7.106-7.365,9.805-12.098c4.863-8.541,10.589-14.171,18.082-19.81c8.236-6.188,19.667-9.851,22.409-21.741
		c3.751-16.279-16.395-22.218-27-16.698c-2.688-14.587-20.68-13.991-27.21-2.413c-8.402-6.453-19.366-2.616-16.236,11.085
		c4.442,19.472,18.521,34.176,15.413,54.301c-1.533-14.802-8.813-27.107-15.541-40.46c-3.693-7.323-7.857-14.846-9.956-22.918
		c-1.261-4.865-2.81-10.809-1.062-15.678c3.602-10.035,13.465-9.768,19.383-2.056c0.499,0.657,1.109,0.772,1.654,0.625
		c0.641,0.143,1.336-0.081,1.759-0.891c3.188-6.132,9.246-8.649,15.53-8.384c0.558,0.199,1.123,0.248,1.651,0.163
		c7.351,0.882,14.681,5.453,17.772,12.535c0.458,1.044,1.675,1.317,2.521,0.846c10.953-6.139,27.53-5.702,33.304,9.392
		c4.858,12.742,1.682,25.481-6.779,33.584c-0.445,0.161-0.764,0.446-0.938,0.826c-1.734,1.528-3.65,2.886-5.763,4.008
		c-9.245,4.892-19.504,7.621-27.701,14.703C307.873,84.437,299.813,98.483,291.952,101.013z M384.74,114.877
		c-2.006-2.621-4.553-4.821-7.449-6.419c-3.393-1.864-6.852-3.157-10.355-3.995c-0.607,0.279-1.319,0.439-2.135,0.439
		c-1.497,0-2.642-0.542-3.443-1.368c-5.877-0.582-11.856-0.002-17.797,1.46c-11.885,2.91-33.203,11.332-44.781,1.342
		c8.232-2.868,16.418-5.324,25.121-5.871c0.092,0.16,0.205,0.32,0.322,0.458c1.151,1.337,3.182,1.485,4.348,0.184
		c0.754-0.85,1.107-1.7,1.168-2.938c0.099-1.851-1.438-3.469-3.053-3.54c-1.207-0.05-2.17,0.672-2.692,1.732
		c-8.897,0.539-17.304,2.93-25.729,5.838c2.219-1.901,4.27-4.387,6.195-6.953c9.073-12.078,19.637-18.325,32.801-23.79
		c4.036-1.673,7.915-4.125,11.316-7.177c0.021-0.002,0.027,0.006,0.055-0.001c0.508-0.109,0.96-0.15,1.389-0.161
		c0.207-1.527,1.031-2.949,2.472-3.688c-0.039-0.013-0.074-0.031-0.114-0.043c3.605-4.246,6.324-9.263,7.6-14.731
		c5.14-1.587,13.311,2.946,15.463,8.445c1.801,4.639,1.563,8.678,1.063,13.361c-0.133,1.309,1.267,2.41,2.329,2.08
		c4.908-1.533,13.352-1.171,15.956,5.305c3.155,7.83-2.423,13.321-6.877,17.238c-1.15,1.017-0.558,2.57,0.495,3.195
		c0.128,0.333,0.313,0.653,0.615,0.924C394.746,101.107,391.789,114.001,384.74,114.877z"/>
</g>
</svg>
