<?xml version="1.0" encoding="utf-8"?>
<!-- Generator: Adobe Illustrator 19.0.0, SVG Export Plug-In . SVG Version: 6.00 Build 0)  -->
<svg version="1.1" id="Layer_1" xmlns="http://www.w3.org/2000/svg" xmlns:xlink="http://www.w3.org/1999/xlink" x="0px" y="0px"
	 viewBox="-143 76 385.9 574" style="enable-background:new -143 76 385.9 574;" xml:space="preserve">
<style type="text/css">
	.st0{fill:#010101;stroke:#000000;stroke-width:2;stroke-miterlimit:10;}
	.st1{fill:#010101;stroke:#000000;stroke-width:3;stroke-miterlimit:10;}
	.st2{fill:none;stroke:#000000;stroke-width:5;stroke-miterlimit:10;}
</style>
<g>
	<path class="st0" d="M59.6,622.9c0,0.7-0.4,1.6-1.2,1.6c-1.2,0-1.8-0.1-2.9-0.6c-2-0.9-4.5,0.1-6.3,0.9c-4,1.7-7.3,4.4-9.3,8.3
		c-2.4,4.8-0.3,10.4,5.1,11.4c4.6,0.9,8.5-7.8,10.6-10.7c1.6-2.3,5,0.4,3.4,2.8c-3.8,5.6-7.7,13.8-15.9,12.3
		c-6.5-1.2-9-7.4-8.7-13.2c0.3-6.9,6.5-12,12.1-14.8C49.9,619,59.3,616.5,59.6,622.9z"/>
	<path class="st0" d="M94,605.2c0.9,0.7,0.7,2.3-0.4,2.7c-5.3,1.9-11.1,1.1-16.5,3.3c-6.1,2.5-9.8,8.4-9.2,15c0.4,4.1,4,6.1,7.6,7
		c2.8,0.7,7-2.4,9.2-3.7c5.6-3.5,9.5-7.9,9.6-14.8c0-1.9,3.2-1.8,3.3,0c0.3,9.6-5.1,15.6-12.8,20.6c-7.2,4.6-15.8,4.3-20.9-3.2
		c-4.1-6.2-2-16.6,3.2-21.5C73.1,605.2,86.6,599.5,94,605.2z"/>
	<path class="st0" d="M81.1,580c1,0.9,0.8,3.2-0.9,3.1c-5.5,0-10.4-1.7-15.9-0.3c-6.2,1.6-9.1,7.6-10.4,13.3
		c-1.6,6.4,1.7,12.8,8.9,10.4c5.9-2.1,10.6-5.5,12.9-11.4c0.9-2.2,4.1-0.7,3.4,1.5c-2.6,8.1-9.4,13.2-17.4,15.7
		c-6.2,1.9-12.7-3.1-13.6-9.2c-1.1-7.1,1.4-18.1,7.8-22.4C63,575.8,74.2,573.7,81.1,580z"/>
	<path class="st0" d="M108,415.3c-12.6,9-14.1,31-3.4,41.8c-5.4,1.5-10.4,4.6-14.2,9.5c-8.3,11-8.5,32,4.1,39.4
		c-7.4,7.5-11.7,18.4-6.9,27.7c-12.4,4.1-24.9,16.9-23.4,28.1c1.9,13.8,15.6,8,26,0.8c-1.9,2.1-3.6,4.5-4.8,7.2
		c-3.8,8.2-5.5,19.1,4.5,23.3c4.7,2,10,0.2,14.6-2.7c-0.3,0.7-0.8,1.3-1,2c-2.9,9.1-6.6,21.4,4.7,26.6c10.3,4.7,21.5,0.3,27.7-8.9
		c5.5-8.3,11-21.1,5.5-30.5c-1-1.7-3.3-0.1-2.8,1.6c3.7,12.5-13.8,46-29.3,31.5c-7.7-7.2,1.5-21.7,7.9-25.7c6-3.7,12.7-5.2,19-8.1
		c0.1,0,0.1-0.1,0.1-0.1c3.7-0.5,7.3-1.8,10.4-3.7c9.5-5.9,14.2-15.7,15.7-26.4c0.7,1.9,1.5,3.7,2.4,5.4c4.6,8.6,9.2,11.4,18.8,10.8
		c3.1-0.2,6.1-1.6,8.7-3.6c0,0.3,0,0.7,0.3,1c9.4,12.4-4.2,32.5-17.7,33.6c-7.3,0.6-15.6-1.4-18.1-9.4c-1.6-4.9-0.3-9.9-0.7-14.9
		c-0.1-1.5-2.4-2.2-3.2-0.9c-11.1,17.6,7.6,36.1,26,30.2c15.2-4.9,29.5-27.1,15.9-40.7c-0.2-0.3-0.5-0.3-0.8-0.3
		c4.3-4,7.6-9.7,8.5-14.4c1.5-7.5,0.1-14.4-5.5-18.9c8.2-4.4,10.4-15.7,4.5-23c-1.3-1.6-3.5,0.1-2.5,1.8c8,13.4-11,24.3-19.7,12.2
		c-4-5.5-6.3-12.8-5.7-19.7c0.7-8.8,4.6-18,15.5-16c8.9,1.7,13.3,7.1,19.2,13.2c1.2,1.2,2.7-0.5,2.4-1.8
		c-3.8-14-21.2-22.4-34.2-15.4c-0.4,0.2-0.6,0.5-1,0.7c0.8-2.4,1-5,0.2-7.5c3.6-11.8-9.4-26.1-19.6-29.7c-2.4-0.9-4.7-1.1-6.9-1
		c-0.2-6.9-2.1-19.8,7.1-22.5c7.1-2.1,14.7-1.5,21.4,1.8c5.6,2.7,12.1,9.4,15.5,16.7c0,4.2,0.9,7.4,2.4,9.3
		c0.1,3.9-0.9,7.6-3.9,10.6c0,0,0,0,0,0c-4.8,1.8-8.5,5.6-10.2,11.9c-0.4,1.4,1.7,2.1,2.5,1.1c7.2-8.3,18.4-10.5,28.7-7.9
		c-0.3,0.8-0.2,1.7,0.5,2.3c2.3,1.6,5.1,1.8,7.9,1.2c2.9,1.6,5.6,3.5,7.9,5.8c5.1,5.2,10.4,15.4,6.8,23c-2.9,6-12.4,8.8-18.7,7.7
		c-0.7-0.1-1.2,0.3-1.4,0.7c-3-0.8-6.1-1.2-9.3-1c-1.4,0.1-1.7,2.2-0.4,2.7c15,6,29.1,12.2,29.1,31.2c0,8.5-2.6,15.6-10.2,19.9
		c-5.5,3.1-20.4,6.1-22.7-3.6c-0.1-0.6-1-0.7-1.1,0c-1.6,7.7,8.8,14.7,16,13c10-2.4,18.5-7.7,22.3-17.5c6.2-15.8-1.8-33.1-15.3-41.1
		c5.6-0.3,11.3-3,14.7-7.3c5.5-6.9,2.7-20.2-2.3-26.6c-2.4-3-6-6-10.4-8.7c5.1-2.7,9.8-7.4,11.7-11.4c0.2-0.5,0.2-1.3-0.2-1.7
		c-1.7-2-2.6-3.1-5.7-2.5c-2.5,0.5-4.6,0.8-6.9,1.8c-7.1,3.5-11.6,2-13.5-4.6c2.3-1.8-0.2-5-2.6-3.6c-6.2,3.6-10.5-5.1-10.1-10.8
		c0.1-1.4-0.7-2.8-2.2-3c-1.5-0.2-2.8-0.6-3.9-1.4c-1.2-1.7-2.6-3.2-4.1-4.7c-3.7-6.7-4.9-17.1-10.4-21.6c-4.5-3.6-7.5-1.8-9.7,2.5
		c-2.1,4.1-9.7-4.1-12.2,2c-0.7,1.8-0.4,8.3-4,5.5c-3-2.3-5.2-3.9-9-4.2c-1.8-0.2-3.5,1.3-3.3,3.2c0.7,5.5,3.4,7.7,8.9,6.7
		c0,0,0.1,0,0.1,0c-0.9,0.8-1.8,1.6-2.6,2.6c-1.6,1.9-2.7,4.3-3.4,6.8c-3.3-3.9-7.6-7.2-10.9-9.3C125.2,410.5,115,410.3,108,415.3z
		 M200.4,448c1.3,0.1,2.7-0.1,4.3-0.5c-0.1,0.4-0.2,0.7-0.4,1.1c-0.2,0.9,0.4,1.9,1.2,2.2c6.2,2.8,11.5,2.7,18.3,2.5
		c6.1-0.2,1,4.3-4.1,6.1c-0.9-0.4-1.8-0.7-2.7-1.1c1-0.6,1.4-2.1,0.3-3.1c-4.2-3.6-11.3-2.6-16.7-0.5c-0.7,0-1.5-0.1-2.2,0
		C199.8,452.8,200.3,450.5,200.4,448z M161.4,410.4c0-0.5,0-1.1,0-1.7c0-0.5,6.2,1.4,7,1.6c0.9,0.2,2-0.3,2.5-1
		c6.1-7.5,8.1-0.9,10.2,5.8c-2.1-1.2-4.2-2.2-6.6-3.1C170.2,410.7,165.7,410.1,161.4,410.4z M154.3,486.8c0.3-0.2,0.7-0.3,1-0.5
		c1.7-1,0.3-3.4-1.3-3.3c-2.2,0.1-4.6,0.5-6.9,1c-2.1-1.3-4-2.9-5.6-4.7c0.1-4.5-2.5-9.4-6-13.2c-0.1-1.6-0.1-3.2,0.2-4.9
		c2.4-13.2,13.9-19,24.8-10.1c8,6.6,8.7,13.2,10.8,22.6c0.1,0.3,0.3,0.6,0.5,0.9C170.1,482.1,161.9,487.7,154.3,486.8z M150.9,529.7
		c-3.7,1.6-8.1,2-11.9,1.1c2.2-1.1,4.5-2.3,6.7-3.5c1.2-0.6,1.4-2.9-0.3-3c-4.6-0.2-9,0.9-13.1,2.8c-1-1-1.8-2.2-2.3-3.7
		c0.3-0.3,0.6-0.6,0.9-0.8c1.7-1.3,0.2-4.3-1.8-3.5c0-0.2-0.1-0.4-0.1-0.6c0.1-8.9,3.2-19,11.1-23.9c2.2-1.3,4.5-2.5,6.8-3.7
		c2.9,1.2,5.9,2,9.2,1.9c4.6-0.1,9.5-2.2,13.5-5.5c-2,5.7-2.1,12.5-1.1,18c-0.3,0.3-0.6,0.8-0.7,1.4
		C166.2,516.2,160,525.7,150.9,529.7z M167.9,521.2c0-0.2-0.1-0.3-0.1-0.4c1.3-2.2,2.4-4.4,3.2-6.7c4.1,9,11.9,16.3,22.8,13.6
		c0.4-0.1,0.8-0.3,1.2-0.5c4.8,5.8,5.1,14.3,1.4,21c-3.1,5.5-12.6,14.7-19.9,10.5C163.7,551.3,167.1,532.8,167.9,521.2z M98.8,563.1
		c4.3-2.6,9.1-4.2,13.5-6.5c0.1,3.7,1,7.5,2.9,11c-0.4,0.9,0.2,1.8,1.2,1.9c0.1,0.2,0.2,0.4,0.4,0.6c-0.8,1.4-3.3,5.7-4,6.5
		c-1.7,1.8-3.4,3.5-5.3,5.1c-2.3,1.8-4.6,3.7-7.3,4.8c-3.5,1.5-12,4-11.9-4.1C88.2,575.4,92.7,566.7,98.8,563.1z M124.8,540.3
		c1.9-2,4.1-3.6,6.4-5.1c9.2,7,20.7,3,29.2-5.2c-0.7,4.9-0.4,9.9,0.9,14.7c-1.3-0.6-3-0.1-3.3,1.7c-1.1,7.4-3.6,14.6-9.1,20
		c-7,6.9-21.1,10-27-0.1C117.4,558.8,118.5,546.7,124.8,540.3z M81.7,543.3c3.5-2.1,7.1-3.2,10.7-3.6c5.1,4.2,12.5,5.8,18.7,2.4
		c4-2.2,7.8-4.8,10.7-8.4c1.2-1.5,2.4-3.3,3.6-5.1c0.3,0.6,0.6,1.1,1,1.7c0,0,0,0,0,0c-7.2,5.2-12.4,13-13.8,21.4
		c-5,0.4-9.9,1.9-14.3,4.3c1.1-1,2-1.8,2.6-2.5c0.5-0.6,0.5-1.6,0.1-2.2c-0.3-0.3-0.6-0.6-0.8-1c-0.9-1-3.1-0.6-2.7,1.1
		c0,0.1,0,0.1,0,0.1c-0.9,0.6-1.7,1.2-2.6,1.8c-2.2,1.5-4.3,3.1-6.5,4.6c-2.1,1.4-14.9,10.2-17.4,6C66.3,556,75.6,547,81.7,543.3z
		 M101.4,508.5c8.8,1.7,18.2-1.5,24.1-7.9c-3.3,7.6-4.8,16.1-2.1,23.7c-2.4,3.1-4.6,6.4-7.8,8.7c-2.6,1.9-5.9,3.7-9.3,4.5
		c-3-3.9-7.3-5.4-12-5.2c-3.3-6.3-2-14.2,2.6-19.7C98.3,511.1,99.8,509.8,101.4,508.5z M127,467.2c1,0.8,2,1.7,2.9,2.6
		c0.9,3.8,2.5,7.5,4.8,10.8c-0.2,1.4-0.7,2.8-1.8,4.3c-1.1,1.6,0.4,4.5,2.5,3.4c1.5-0.8,2.6-1.7,3.6-2.6c0.3,0.3,0.5,0.5,0.8,0.8
		c-3.9,1.8-7.5,4.2-10.2,7.3c0.5-1.4,1-2.7,1.2-4.2c0.3-2.4-3.3-2.9-3.7-0.6c-1.6,7.5-8.1,13.4-16,14c-0.9,0.1-2,0.1-3.1,0.2
		c1-0.9,2.1-1.7,3-2.7c1.1-1.1-0.1-3.3-1.7-3c-3.5,0.7-7,2.3-10.2,4.5c-1.4-0.5-2.7-1.2-3.7-2.2c-6.9-7-5.3-24.3,1.4-31.2
		C104.8,460.7,118.5,460.2,127,467.2z M112.9,419.4c8.9-3.6,13.9,0.1,21.1,5c4.7,3.2,6.5,8,9.3,12.5c0.4,1.4,0.9,2.7,1.5,4
		c-8.3,2.4-14.2,10.6-15.2,20.1c-5.8-3.7-12.7-5.4-19.3-4.9C100.6,446.9,99.4,425,112.9,419.4z"/>
</g>
<path class="st1" d="M79.8,419.2c-0.2-29.2-1.7-58.5-1.7-87.8c0-8,1.4-31.7-4.8-38.7c0.3-0.2,0.6-0.5,0.8-0.8c1.3-0.6,2.3-2,1.9-3.5
	c-3-11.6-20.4-29-31-35.1c-22.3-12.9-1.7-74.1-2.1-94.1c0-0.1-0.1-0.1-0.1-0.1c9.3-12.5,10.6-41.8-5.2-48.4
	c-0.5-0.2-0.9-0.3-1.4-0.3c0.6-6.7,1-13.5-5.4-16.8c-0.4-2.7-2.1-5.5-5.3-8.3c-10.3-9.1-28.7-8.7-41.8-7.8
	c-12.3,0.9-19.1,13.5-22.3,23.3c-0.2,0.6-0.2,1.2-0.4,1.7c-0.4-0.2-0.9-0.3-1.4-0.1c-16.5,4-26.9,34.4-23.6,49.1
	c1.3,5.6,5,9.8,10,12.9c-0.1,11.5,0.1,22.8,1.4,34.2c1,8.9-2.4,39.8-6.4,45.6c-6.3,9.4-21.4,16.1-31.1,22
	c-6.5,3.9-11.1,11.1-15.8,16.9c-1.1-0.8-3.1-0.1-3.2,1.6c-0.2,7.5-6.8,18.9-7.9,27c-1.9,13.4-5,26.7-6.8,40.2
	c-3.1,24-6.6,46.8-12.3,70.3c-5.1,20.9-3.5,44.6-3.6,65.9c0,13.2,1.4,26.3-1.2,39.4c-1.2,6.2-2.4,15.5-0.3,21.8
	c6.3,18.4,3,30,19.3,43.2c6.8,5.5,14.6,9.3,23,11.9c1.9,29.7,42.3,23,64.4,23.3c10.9,0.1,24.5,1.2,34.7-3.2C8,621,3.6,611,4.4,605.1
	c0-0.2,0-0.4-0.1-0.6c0.5-0.6,0.9-1.1,1.3-1.7c4.6-1.2,7.9-3.8,11.9-7.4c7.6-6.9,18.4-14.2,27.2-19.7c0.2-0.1,0.5-0.3,0.7-0.5
	c0.2,6.1-0.1,11.5-4.7,17c-4.8,5.7-11.5,7.1-17.5,11.1c-8.3,5.6-14.2,13.8-21.2,20.7c-0.5,0.5,0.2,1.3,0.8,1.1
	c5-2.1,8.5-5.4,12.2-9.2c6.6-6.8,13.7-9.9,21.7-14.6c5.7-3.4,10.2-8.4,13.2-14.2c1.4-2.8-0.4-12.6,0.9-13.8c0.5-0.5,0.3-1.2-0.1-1.7
	c7.3-5.6,16-13.9,18.7-21.8c1.5,0.4,3.3,0,3.9-1.9C87.1,508.4,80,459.9,79.8,419.2z M44.1,261.1c7.7,8.5,17,15.9,23.6,25.2
	c-17.1-0.2-32.3,7.7-41.6,21.2c0.5-14.2,0.8-33.6-4.6-40.8c-1.2-1.7-2.3-3.5-3.2-5.5c5.7-1.8,11.3-6.1,13.4-11.3
	C34.8,254.5,40.5,257.2,44.1,261.1z M29.5,100.2c0.4,0.6,0.8,1.3,0.9,2.1c0.6,3.5-0.3,7.4-0.5,11c-0.3,4.2-4.3,8.2-9,11.2
	c1.6-5.3,1.5-11.4,0.6-16.7c0.3-0.2,0.6-0.3,0.9-0.5C25.7,105,28,102.6,29.5,100.2z M-23.5,90.7c1.8-2,3.9-3.7,6.4-4.7
	c6.2-2.6,17.2-0.6,23.5-0.1c5.5,0.4,10,1.9,14.7,4.8c9.2,5.9-5.1,12-8.5,13.3c-8,3.3-18.1,1.1-26.4,0c-4.3-0.6-12.4,1.7-12-7.4
	c0.1-2.9,0-2.9-0.1-2.9C-24.1,93.3-23.4,92-23.5,90.7z M-29.9,104.8c1.8,2.7,4.9,4.8,9.7,5.6c9.8,1.6,23.1,3.5,33.9,0.7
	c-0.1,4.3,0.1,8.7-1.3,12.9c-3.5,10.1-22.7,6.4-30,3.9C-27.6,124.4-31.2,114.3-29.9,104.8z M-55.3,152.5
	c-11.5-12.8,2.7-23.2,6.6-32.8c1.3-3.2,5.5-16.2,8.9-13.7c0.1,0.1,0.3,0.1,0.5,0c-0.6,9.5,4.8,19.3,11.6,25.5
	c9,8.3,25.2,8.3,36.2,5.3c3.3-0.9,5.8-2.4,7.8-4.4c3.6-1.3,6.9-3.3,10.2-5.6c2.7-1.9,7.5-5.7,8.8-9.4c6,6.6,8,14.3,6,23.1
	c-0.9,15.6-10.8,22.9-25,25.8c-11,2.3-24.1,1.4-35.2,0.5C-32.3,165.9-45.9,163-55.3,152.5z M-24.7,621c-20.7,0.1-63.2,8.8-69.5-15.5
	c12.3,3.2,25.4,4.2,37.7,4.7c16,0.6,38.3,3.3,53.8-1.7c0,0,0,0,0,0c-0.1,2.7,0.1,5.2,0.4,8C-2,620.3-22.7,621-24.7,621z M-0.7,506.8
	c-5.1,29.2-2.4,58.1-1.9,87.5c-4.6,7.9-12.8,8.4-25.1,8.4c-22.6,0-45.6,1.1-67.5-5.4c-48.5-14.5-35.1-64.6-36.5-101.7
	c-0.6-16.9,1.5-33.6,1.6-50.4c0.1-21,7.3-40.2,9.9-60.9c2.4-18.9,3.5-38,6.2-56.9c1.7-12.1,7.8-26.2,8.9-38.4c1.4,0.9,3.2,1,4.4-0.7
	c0.7-0.9,1.6-1.7,2.3-2.6c17.6-4.3,39.6-9,55.8-4.2c16.5,4.9,31.5,23.3,43.2,34.7c23.2,22.5,7.8,72.6,4.6,99.7
	C1.6,446,4.5,476.8-0.7,506.8z M73.2,486.5c-0.1,18.1-0.5,37.4-5.7,55c-0.3,0.2-0.7,0.4-0.9,0.8c-7.1,12.1-16.6,23.2-28.7,31
	c-5.9,3.8-11.1,9.1-16.6,13.5c-4.2,3.4-9.3,8-14.6,10.7c0-2.8-0.7-6.1-1.7-9.9c-0.2-0.6-0.5-1-1-1.3c-0.5-19.3-2.5-38.3-0.4-57.8
	c2.1-19.4,4.4-38.7,5.4-58.1c0.9-17.8,1.2-35.7,2.3-53.5c1.1-17.8,6.4-34.7,6.7-52.8c0.1-10.7,2.6-31.5-2.9-40.7
	c-7.2-12-20.7-21.9-31.2-31.2c-22.8-20.4-48.9-21-76.2-12.9c15.5-13.6,37.6-23,43.6-42.4c6.5-21.3,0.8-47.5-0.2-69.9
	c11,4.9,25.3,6.3,33.9,7.1c18.7,1.6,39.7,1.4,54.1-11.3c-3.1,26.9-9.5,53.7-9.5,81c0,0.4,0.1,0.7,0.1,1.1
	c-5.1,3.5-8.2,8.7-13.6,11.3c-0.7-2.1-1.2-4.3-1.6-6.6c0.2-0.1,0.5-0.1,0.8-0.1c2.9-0.9,6.2-3.9,3.3-6.6c-0.5-0.5-1.3-0.3-1.8,0
	c-0.9,0.5-1.3,1.6-2.3,2.1c-0.2,0.1-0.6,0.1-0.8,0.2c-0.3-2-0.5-4-0.7-6.1c1.6-0.6,3-1.4,3.8-2.5c0.4-0.6,0.2-1.6-0.7-1.7
	c-1.1-0.1-2.3,0.1-3.4,0.3c-0.1-2.1-0.2-4.2-0.2-6.3c1.2-0.4,2.2-1.1,2.9-2.3c0.4-0.8-0.4-1.8-1.3-1.7c-0.6,0.1-1.1,0.1-1.7,0.2
	c0-17.4,2-35.5,1.7-48c-0.1-2-3-1.6-3.1,0.3c-0.5,16-0.1,31.9,0.2,47.8c-1.8,0.3-3.7,0.6-5.6,0.7c-2,0.1-2.1,3.3-0.1,3.4
	c1.9,0.1,3.9,0.2,5.7-0.2c0,2.1,0.1,4.1,0.1,6.2c-2.2,0.5-4.3,0.9-6.2-0.9c-1.3-1-3.3,0.4-2.6,1.8c1.3,2.9,5.4,3.7,8.9,3
	c0,2.1,0.1,4.1,0.1,6.2c-0.9,0.1-1.7,0.1-2.5,0.2c-3.3,0.4-5.9,2.2-8.8,3.4c-1.5,0.6-0.9,2.7,0.6,2.6c2.6-0.1,5-1.3,7.7-1.5
	c1-0.1,2-0.1,3-0.2c0,2.5,0.1,5,0.1,7.5c-0.7,0.1-1.4,0.3-2.2,0.3c-13.3,0.8-26.2-0.2-38.2-6c-2.4-1.1-4,2.5-1.7,3.6
	c13.3,6.7,27.8,7.4,42.6,6.8c1.2,6.1,4.8,12.8,5.6,18.8c1.6,13.1,1.9,26.3,1.9,39.5c0,2.9,4.8,3.5,5.8,0.9
	c2.9-8.4,8.1-15.2,15.6-20.5c7.3-7.1,16.6-10,27.9-9c0.2,1,0.9,1.3,1.6,1.5c1.8,2.3,0.6,16.5,0.6,19.7c0.1,9.9,1.7,19.3,1.2,29.5
	c-1.2,22.7-0.4,45.9,1,68.6C74.9,436.2,73.3,461.5,73.2,486.5z"/>
<line class="st2" x1="232.4" y1="415" x2="208.7" y2="444.4"/>
</svg>
