<?xml version="1.0" encoding="utf-8"?>
<!-- Generator: Adobe Illustrator 15.0.2, SVG Export Plug-In . SVG Version: 6.00 Build 0)  -->
<!DOCTYPE svg PUBLIC "-//W3C//DTD SVG 1.1//EN" "http://www.w3.org/Graphics/SVG/1.1/DTD/svg11.dtd">
<svg version="1.1" id="Layer_1" xmlns="http://www.w3.org/2000/svg" xmlns:xlink="http://www.w3.org/1999/xlink" x="0px" y="0px"
	 width="391.404px" height="261.762px" viewBox="0 0 391.404 261.762" enable-background="new 0 0 391.404 261.762"
	 xml:space="preserve">
<g>
	<g>
		<path fill="#010101" d="M269.911,163.509c-11.621-7.209-21.853-9.835-30.035-22.408c-4.229-6.513-8.906-12.431-14.013-18.169
			c-12.144-13.626-29.793-22.065-45.783-28.846c-24.95-10.64-54.88-18.075-81.842-13.004C73.386,85.767,38.425,110.32,26.4,136.293
			c-0.449-0.219-0.912-0.378-1.378-0.375c-10.967-0.11-32.42,17.661-22.448,31.34c5.336,7.292,12.533,12.163,17.882,19.478
			c4.921,6.722,5.116,16,10.312,22.577c13.5,17.104,25.256,29.215,43.79,39.838c28.874,16.564,59.789,15.568,89.782,4.213
			c18.697-7.063,33.777-18.672,50.742-28.982c13.423-8.156,23.972-19.359,40.47-20.793c7.709-0.689,14.615-1.566,22.002-4.481
			C294.314,192.474,278.336,168.749,269.911,163.509z M271.26,192.287c-2.914,1.147-5.888,1.81-8.888,2.267
			c-1.415,0.484-2.96,0.73-4.55,0.73c-0.321,0-0.635-0.025-0.944-0.067c-5.94,0.579-11.92,0.95-17.71,3.101
			c-1.192,0.681-2.425,1.288-3.681,1.816c-1.692,1.377-3.558,2.592-5.51,3.636c-1.652,1.437-3.492,2.722-5.432,3.833
			c-1.25,1.141-2.618,2.193-4.062,3.151c-0.695,0.889-1.467,1.746-2.295,2.57c-2.445,3.642-6.118,6.896-10.295,9.291
			c-2.582,2.505-5.712,4.663-9.067,6.253c-0.831,0.565-1.687,1.101-2.567,1.594c-3.715,3.222-8.329,5.752-13.037,7.034
			c-2.91,1.542-6.025,2.666-9.114,3.215c-2.947,1.51-6.084,2.6-9.187,3.085c-2.188,0.987-4.453,1.728-6.714,2.168
			c-5.211,2.262-10.572,4.338-16.168,6.167c-28.783,9.443-70.219-7.727-90.611-29.172c-10.941-11.547-18.408-25.386-25.17-40.099
			c-11.193-24.394-8.331,8.71-4.529-41.603c-0.217,2.784,2.197,3.715,4.134,2.95c1.663,1.754,4.502,2.031,5.662-0.9
			c5.292-13.493,15.248-23.305,26.595-31.217c0.087-0.144,0.157-0.286,0.251-0.431c1.021-1.568,2.274-3.066,3.698-4.458
			c3.436-4.506,8.727-8.296,14.373-10.421c3.154-2.527,6.865-4.552,10.684-5.795c1.648-0.758,3.508-1.298,5.383-1.681
			c1.89-0.683,3.813-1.178,5.719-1.449c4.104-1.171,8.688-1.425,11.516-1.425c1.166,0,2.633,0.114,4.228,0.347
			c0.391-0.009,0.762-0.013,1.105-0.013c1.184,0,2.679,0.116,4.303,0.357c2.496,0.108,5.908,0.623,9.137,1.683
			c11.57,1.174,23.138,4.261,34.33,7.917c4.757,1.555,9.375,3.238,13.878,5.055c3.147,0.974,6.236,2.309,9.078,3.891
			c3.136,1.243,6.144,2.8,8.809,4.588c11.783,6.62,22.388,14.979,31.604,26.078c2.222,1.967,4.306,4.409,6.102,7.018
			c1.48,1.476,2.878,3.146,4.148,4.906c1.155,1.015,2.27,2.166,3.334,3.395c1.451,1.055,2.878,2.336,4.233,3.766
			c0.063,0.048,0.126,0.09,0.189,0.139c1.498,0.825,2.999,1.92,4.449,3.218c1.864,1.241,3.705,2.87,5.419,4.732
			c3.239,1.338,6.025,3.301,7.113,6.045c0.506,0.364,0.959,0.763,1.383,1.18c0.909,0.814,1.639,1.738,2.123,2.778
			C274.311,180.173,282.06,188.028,271.26,192.287z"/>
		<path fill="#010101" d="M51.464,154.876c0.04-0.12,0.106-0.237,0.122-0.364l-0.052-0.005c0.057-0.258,0.12-0.471,0.143-0.759
			c0.275-3.387-4.692-3.759-5.4-0.585c-0.598,2.744-2.311,4.808-2.279,7.772c0.035,1.733,1.868,3.829,2.913,5.011
			c0.803,0.849,2.155,0.491,2.699-0.52c0.924-1.764,0.958-2.994,0.075-4.849c-0.457-0.973,0.695-2.804,1.427-4.632
			C51.263,155.602,51.391,155.223,51.464,154.876z"/>
		<path fill="#010101" d="M63.955,197.458c-0.741-2.433-4.228-1.357-3.604,1.17c1.029,4.03,3.441,9.753,6.953,11.948
			c0.704,0.457,1.839-0.035,1.958-0.963C69.921,205.223,65.167,201.526,63.955,197.458z"/>
		<path fill="#010101" d="M101.709,169.073c-0.146,2.6-0.323,3.992,0.813,6.264c0.5,1.009,2.1,1.258,2.781,0.283
			c1.594-2.258,1.589-3.848,1.866-6.728C107.531,165.137,101.925,165.251,101.709,169.073z"/>
		<path fill="#010101" d="M186.375,212.302c-0.232,2.593-0.307,3.993-1.142,6.11c-0.368,0.94-1.197,1-1.423-0.046
			c-0.532-2.424-0.343-3.998-0.144-6.886C183.926,207.719,186.715,208.489,186.375,212.302z"/>
		<path fill="#010101" d="M124.254,222.82c-2.299-1.742-5.203-1.857-7.705-3.326c-2.969-1.727-5.419,3.215-2.504,4.971
			c3.333,2.014,6.648,3.41,10.275,1.484C125.594,225.27,125.162,223.518,124.254,222.82z"/>
	</g>
	<g>
		<path fill="#010101" d="M239.789,151.645c1.448,1.051,2.873,2.329,4.226,3.754c0.018,0.014,0.036,0.025,0.054,0.04
			c0.561-0.63,0.713-1.637-0.123-2.338c-3.189-2.681-6.468-5.249-9.785-7.771c0.799,0.92,1.548,1.899,2.271,2.898
			C237.595,149.246,238.718,150.406,239.789,151.645z"/>
		<path fill="#010101" d="M381.208,103.235c-3.48-1.177-6.625-2.932-10.159-3.991c-4.665-1.39-8.3-4.387-13.285-4.044
			c-1.242,0.088-1.721,0.952-1.746,1.892c-3.773-6.666-6.677-14.036-11.343-20.181c-7.442-9.786-16.634-17.515-25.087-26.461
			c-17.438-18.429-35.301-30.664-57.449-43.096c-21.851-12.294-50.932-5.065-74.564-6.735c-16.309-1.137-32.806,3.353-43.03,16.884
			c-0.183,0.242-0.224,0.533-0.239,0.781c-19.554,13.338-31.469,42.487-36.043,68.171c0.531-0.016,1.031-0.023,1.482-0.023
			c1.17,0,2.639,0.109,4.242,0.343c5.242-30.704,22.424-63.497,49.61-69.839c38.731-9.02,99.436,40.531,91.897,83.119
			c-0.029,0.176,0.032,0.306,0.033,0.446c-0.55-0.224-1.08-0.433-1.649-0.663c-0.368-0.143-0.717,0.374-0.385,0.634
			c0,0-26.558,1.658-32.239,1.729c-6.536,0.087-13.193,0.088-19.831,0.086c6.983-8.324,13.446-17.125,21.558-24.824
			c6.279-5.959,11.298-10.606,15.673-18.27c1.004-1.76-1.831-2.938-2.834-1.262c-6.562,10.85-17.103,18.016-25.977,26.88
			c-5.489,5.502-10.304,11.574-15.214,17.528c-0.25-0.003-0.487,0.001-0.718-0.004c-0.733-1.062-1.994-1.835-3.581-1.608
			c-2.787-1.105-5.588-0.892-7.838,1.22c-2.696-22.648-4.779-49.241,0.708-70.546c0.25-0.959-1.139-1.252-1.559-0.454
			c-10.642,20.597-5.056,46.978-3.169,70.004c-15.813-16.232-30.446-34.787-48.574-47.628c-2.12-1.516-4.642,1.578-2.55,3.191
			c15.702,12.078,30.23,28.471,44.606,43.547c1.033,0.341,2.035,0.754,3.014,1.209c3.73,0.988,7.433,2.506,10.791,4.371
			c3.091,1.222,6.06,2.755,8.699,4.509c1.216-1.298,2.367-2.648,3.538-3.973c20.078,0.095,41.24,2.186,60.375-2.314
			c-0.102,17.14-4.914,35.996-13.577,52.017c1.311,0.782,2.618,1.767,3.887,2.902c0.271,0.18,0.541,0.355,0.811,0.552
			c13.313-23.408,18.298-52.629,10.913-75.293c-0.262-0.811-0.947-1.062-1.661-1.133c-3.737-14.476-13.6-28.701-22.4-38.893
			c-18.358-21.388-39.967-32.181-67.429-33.177c-3.755-0.119-7.259,0.408-10.677,1.227c11.493-5.209,23.341-5.777,36.333-5.684
			c19.881,3.843,39.018,23.331,49.933,36.547c12.452,15.092,19.997,32.763,23.217,51.918c2.078,12.206,0.662,38.763-6.055,50.366
			c-2.652,4.581-4.76,11.355-7.06,18.514c2.103,0.927,3.979,2.129,5.274,3.651c5.346-11.699,8.604-24.516,9.217-37.16
			c0.882-18.249,4.142-32.05-0.527-50.612c-4.892-19.334-17.891-36.161-30.999-50.629c-4.587-5.043-18.198-16.182-31.462-22.432
			c25.614,0.341,45.403,0.91,68.966,14.146c20.242,11.406,33.445,26.528,49.646,42.542c12.841,12.718,19.109,27.614,30.497,40.79
			c1.766,2.029,4.975-0.268,3.428-2.56c-0.544-0.76-0.973-1.616-1.468-2.42c0.336,0.178,0.607,0.387,1.037,0.384
			c3.438-0.101,6.715,2.529,9.758,3.722c2.518,0.974,5.069,1.567,7.516,2.789c5.519,2.727,14.197,2.985,10.659,12.201
			c-2.316,6.036-12.135,11.563-17.683,14.411c-4.574,2.354-9.072,2.674-13.947,3.04c0.601-1.075,1.226-2.144,1.828-3.226
			c1.245-2.212-2.335-3.757-3.591-1.582c-12.384,21.362-27.356,47.947-47.681,62.015c-18.625,12.865-39.393,17.184-60.45,25.179
			c-11.713,4.454-23.862,5.553-35.818,4.097c-0.3,0.185-0.601,0.365-0.906,0.541c-1.271,1.23-2.667,2.38-4.165,3.418
			c11.636,3.211,23.521,4.282,36.589-0.013c23.046-7.56,48.116-13.922,67.515-29.484c19.671-15.736,32.813-36.602,45.169-58.299
			c4.753,4.161,13.685,0.169,18.452-2.241c6.341-3.235,18.766-10.458,19.784-18.608C392.259,109.404,388.451,105.66,381.208,103.235
			z"/>
		<path fill="#010101" d="M226.249,206.581c2.741-1.608,5.389-3.427,7.928-5.438c-1.342,0.986-2.771,1.882-4.25,2.671
			C228.777,204.808,227.546,205.735,226.249,206.581z"/>
		<path fill="#010101" d="M267.62,43.16c0.475-2.126,0.051-3.739-0.547-5.795c-0.3-0.971-1.403-1.466-2.343-1.413
			c-0.158-0.132-0.339-0.208-0.534-0.229c-1.859-0.669-3.417,1.635-1.845,2.981c1.321,1.087,1.452,3.568,2.842,5.059
			C266.003,44.617,267.335,44.374,267.62,43.16z"/>
		<path fill="#010101" d="M286.402,90.837c3.197-3.316,1.454-8.458,1.098-12.498c-0.132-1.412-2.34-1.493-2.524-0.06
			c-0.438,3.911-0.245,7.821-0.4,11.74C284.519,91.076,285.629,91.606,286.402,90.837z"/>
		<path fill="#010101" d="M282.156,158.229c0.501-2.367,1.63-4.25,2.057-6.629c0.458-2.653,0.887-5.296,1.265-7.968
			c0.349-2.685-3.395-3.162-4.04-0.637c-0.69,2.614-1.337,5.21-1.781,7.871c-0.423,2.561,0.19,4.759,0.306,7.307
			C280.042,159.475,281.915,159.401,282.156,158.229z"/>
		<path fill="#010101" d="M257.822,195.284c-0.498,0-0.976-0.068-1.445-0.166c-1.103,1.214-2.053,2.505-2.433,4.342
			c-0.219,1.243,1.213,1.908,2.161,1.306c2.604-1.675,4.891-3.747,6.582-6.316C261.189,195.009,259.529,195.284,257.822,195.284z"/>
		<path fill="#010101" d="M308.015,75.086c2.061-2.994,0.258-9.924-2.337-12.295c-2.258-2.104-4.948,1.523-2.933,3.624
			c2.332,2.406,0.004,7.132,3.485,9.119C306.767,75.839,307.666,75.61,308.015,75.086z"/>
		<path fill="#010101" d="M304.094,123.431c3.249-2.333,3.346-9.785-0.213-12.014c-1.081-0.698-2.375,0.417-1.644,1.571
			c1.652,2.509-0.306,6.847-0.033,9.638C302.293,123.537,303.379,123.958,304.094,123.431z"/>
		<path fill="#010101" d="M297.167,177.851c3.712-3.584,4.693-8.448,6.431-13.201c0.678-1.907-1.892-3.801-3.195-1.959
			c-2.881,4.14-4.361,9.102-5.123,14.01C295.144,177.631,296.363,178.615,297.167,177.851z"/>
		<path fill="#010101" d="M334.612,107.469c0.991,0.053,1.66-0.757,1.372-1.727c-0.967-3.183-0.954-6.104-1.498-9.32
			c-0.505-2.906-5.126-2.391-4.563,0.507C330.62,100.413,329.514,107.172,334.612,107.469z"/>
		<path fill="#010101" d="M126.764,145.326c0.991,0.053,1.66-0.757,1.372-1.727c-0.967-3.183-0.954-6.104-1.498-9.319
			c-0.505-2.907-5.126-2.392-4.563,0.507C122.771,138.271,121.666,145.029,126.764,145.326z"/>
		<path fill="#010101" d="M202.659,179.836c-0.484-0.868-1.525-1.001-2.193-0.242c-2.178,2.514-4.657,4.061-7.087,6.233
			c-2.19,1.977,0.708,5.613,2.86,3.591C198.816,186.974,205.124,184.307,202.659,179.836z"/>
		<path fill="#010101" d="M324.677,149.849c-0.482-1.03,1.051-3.237,1.497-3.971c1.324-2.123-1.775-3.996-2.907-1.777
			c-1.153,2.239-2.685,5.12-0.12,6.885C323.903,151.512,325.138,150.822,324.677,149.849z"/>
		<path fill="#010101" d="M342.667,124.544c0.422-0.146,0.84-0.344,1.236-0.581c7.317-3.964-5.044-10.768-4.748-2.854
			c0.01,0.501,0.042,0.95,0.151,1.418C339.67,124.151,341.01,125.051,342.667,124.544z"/>
		<path fill="#010101" d="M204.333,153.709c0.422-0.146,0.84-0.344,1.236-0.58c7.317-3.965-5.044-10.769-4.748-2.855
			c0.01,0.502,0.042,0.951,0.151,1.418C201.337,153.316,202.677,154.217,204.333,153.709z"/>
		<path fill="#010101" d="M234.157,164.815c0.422-0.146,0.84-0.344,1.236-0.58c7.317-3.965-5.044-10.769-4.748-2.855
			c0.01,0.502,0.042,0.951,0.151,1.418C231.161,164.423,232.501,165.323,234.157,164.815z"/>
		<path fill="#010101" d="M162,233.962c0.422-0.146,0.84-0.344,1.236-0.58c7.317-3.965-5.044-10.769-4.748-2.855
			c0.01,0.502,0.042,0.951,0.151,1.418C159.004,233.569,160.344,234.47,162,233.962z"/>
		<path fill="#010101" d="M151.427,177.187c3.249-2.333,3.346-9.784-0.213-12.014c-1.081-0.698-2.375,0.417-1.644,1.571
			c1.652,2.509-0.306,6.847-0.033,9.638C149.626,177.292,150.712,177.714,151.427,177.187z"/>
	</g>
	<path fill="#010101" d="M167.955,117.7c-0.741-2.433-4.228-1.357-3.604,1.17c1.029,4.03,3.441,9.753,6.953,11.948
		c0.703,0.457,1.839-0.035,1.957-0.963C173.921,125.465,169.167,121.769,167.955,117.7z"/>
</g>
</svg>
