<?xml version="1.0" encoding="utf-8"?>
<!-- Generator: Adobe Illustrator 15.0.2, SVG Export Plug-In . SVG Version: 6.00 Build 0)  -->
<!DOCTYPE svg PUBLIC "-//W3C//DTD SVG 1.1//EN" "http://www.w3.org/Graphics/SVG/1.1/DTD/svg11.dtd">
<svg version="1.1" id="Layer_1" xmlns="http://www.w3.org/2000/svg" xmlns:xlink="http://www.w3.org/1999/xlink" x="0px" y="0px"
	 width="520.595px" height="430.488px" viewBox="29.05 53.964 520.595 430.488"
	 enable-background="new 29.05 53.964 520.595 430.488" xml:space="preserve">
<g>
	<path fill="#010101" d="M318.734,152.93"/>
	<path d="M339.713,177.003c-3.224,0-3.224,5,0,5C342.937,182.003,342.938,177.003,339.713,177.003z"/>
	<path d="M315.238,195.287c-1.29,0-1.29,2,0,2C316.528,197.287,316.527,195.287,315.238,195.287z"/>
	<g>
		<path fill="#010101" d="M336.512,259.763c-0.579-2.58-0.848-5.31-0.953-7.585c-2.767-15.646-10.398-30.992-23.925-44.938
			c-42.953-44.243-143.341-35.325-185.801,5.735c-0.824,0.792-0.65,1.697-0.23,2.523c-15.375,13.123-26.082,32.788-32.521,48.773
			c-13.587,33.427-11.666,63.795,6.623,94.447c2.521,4.182,5.67,7.684,9.122,10.91c-14.663-9.316-23.796-21.918-32.918-36.182
			c-9.352-24.143,1.317-57.234,10.018-77.42c9.946-23.039,26.593-42.32,48.166-57.799c13.728-9.891,47.817-24.923,67.048-24.819
			c21.572,0.113,62.027-15.636,81.996-2.862c6.32,4.009,13.906,5.612,20.777,9.173c17.614,9.121,28.041,32.438,32.616,51.821
			c0.302-1.433,0.694-2.873,1.184-4.23c-0.13-2.002-0.133-3.749-0.094-4.872c0.033-0.933,0.114-2.181,0.264-3.585
			c-0.295-2.832-0.315-5.414-0.264-6.905c0.026-0.768,0.085-1.746,0.188-2.849c-22.442-51.096-104.261-59.614-160.632-34.457
			c-23.36,10.427-42.87,15.479-62.672,32.173c-20.609,17.417-32.325,42.138-41.026,65.502c-3.02,8.165-7.217,30.004-5.569,48.408
			c-17.791-28.223-31.154-50.219-31.423-84.246c-0.185-29.256,9.262-53.136,17.689-80.848c6.712-21.981,20.81-38.134,29.125-58.812
			c1.272-3.197-3.872-5.273-5.625-2.15c-0.56,1.067-1.323,2.071-1.973,3.114c-0.004-0.133-0.004-0.261-0.005-0.388
			c-0.697,1.009-1.462,2.054-2.29,3.116c0.234-0.061,0.466-0.14,0.688-0.244c-5.62,8.288-12.736,16.064-17.073,25.001
			c-6.897,14.249-9.99,29.123-15.123,43.952c-10.556,30.575-13.094,57.745-12.831,89.727c0.224,31.567,29.909,58.854,44.635,85.741
			c10.181,18.545,27.506,33.781,51.634,36.518c0.431,0.049,0.823-0.09,1.143-0.229c43.643,18.672,116.518,0.109,148.86-19.635
			c15.441-9.414,28.576-21.248,38.773-34.449c7.328-3.77,12.617-10.191,14.949-17.256c0.561-1.691-0.785-2.637-2.354-2.764
			C334.15,291.803,337.75,275.717,336.512,259.763z M278.453,348.763c-36.555,29.57-128.419,48.822-167.373,11.963
			c-38.78-36.723-20.222-134.038,38.191-152.379c0.241-0.079,0.358-0.227,0.532-0.315c0.111,0.743,0.229,1.451,0.347,2.218
			c0.084,0.492,0.975,0.551,1.064,0.025c0,0,20.951,28.007,25.08,34.174c4.757,7.094,9.492,14.372,14.21,21.633
			c-15.336-2.44-30.896-4.014-46.255-8.076c-11.89-3.148-21.247-5.735-33.904-5.735c-2.908,0-2.359,3.836,0.442,3.886
			c18.182,0.403,34.605,7.456,51.958,11.627c10.758,2.567,21.746,4.043,32.655,5.696c0.174,0.275,0.348,0.531,0.504,0.787
			c-0.801,1.465-0.867,3.325,0.543,4.919c0.605,3.737,2.865,6.669,7.094,7.81c-26.294,17.089-57.941,35.966-88.383,43.265
			c-1.373,0.324-0.751,2.027,0.543,1.986c33.227-1.219,62.117-23.795,89.461-40.232c-8.977,27.426-21.685,55.01-24.789,82.85
			c-0.382,3.266,5.267,4.092,5.788,0.797c4.208-26.797,15.721-55.256,24.659-82.309c17.896,19.635,41.902,33.996,64.369,49.824
			c1.221,0.836,2.734-0.561,1.916-1.652c-16.295-22.182-44.691-33.711-64.1-54.075c0.471-0.255,0.93-0.561,1.424-0.826
			c3.754-2.046,7.607-4.26,11.553-6.571c26.379,7.732,62.195,19.626,88.363,8.784c1.602-0.679,1.793-3.256-0.404-3.354
			c-28.186-1.072-53.422-5.115-79.744-10.496c23.018-14.432,46.799-33.123,59.35-52.832c1.701-2.7-3.195-4.49-4.943-1.923
			c-14.467,21.406-40.051,37.824-63.494,52.826c-2.611-0.541-5.223-1.132-7.867-1.701c6.432-27.211,5.715-55.571,10.959-82.826
			c0.516-2.651-4.102-3.281-4.639-0.669c-5.648,27.186-6.455,55.044-12.473,82.175c-1.613-0.384-3.115-0.668-4.746-1.032
			c-2.836-0.64-5.709-1.082-8.557-1.604c-14.159-22.015-26.603-46.461-45.816-64.576c43.373-21.435,109.277-26.325,145.463,1.776
			c24.846,19.301,29.082,41.041,30.078,67.72C328.712,304.722,304.181,327.998,278.453,348.763z"/>
		<polyline fill="none" stroke="#000000" stroke-width="8.8919" stroke-miterlimit="10" points="78.879,98.675 92.743,83.505 
			100.206,78.648 118.863,68.934 138.266,62.458 155.431,58.41 175.582,58.41 188.268,58.41 199.462,58.41 211.403,58.41 
			227.075,64.077 236.031,68.934 252.449,78.542 271.852,90.791 289.763,105.362 298.718,114.268 310.661,131.268 316.63,143.41 
			320.362,153.934 327.078,168.505 333.048,176.601 333.048,187.934 333.048,196.839 334.276,205.46 334.276,215.804 
			334.276,232.458 334.276,240.554 334.276,246.221 		"/>
		<path d="M137.324,81.885c-1.29,0-1.29,2,0,2C138.614,83.885,138.614,81.885,137.324,81.885z"/>
		<path d="M126.834,85.382c-1.29,0-1.29,2,0,2S128.124,85.382,126.834,85.382z"/>
		<path d="M120.541,83.284c-1.29,0-1.29,2,0,2S121.831,83.284,120.541,83.284z"/>
		<path d="M107.254,89.578c-1.29,0-1.29,2,0,2S108.543,89.578,107.254,89.578z"/>
		<path d="M102.359,101.466c-1.29,0-1.29,2,0,2S103.648,101.466,102.359,101.466z"/>
		<path d="M85.576,104.861c-0.265,0-0.5,0.044-0.721,0.106c-0.324,0.006-0.563,0.14-0.72,0.336c-1.673,1.219-1.195,4.558,1.44,4.558
			C88.8,109.861,88.8,104.861,85.576,104.861z"/>
		<path d="M95.366,97.969c-1.29,0-1.29,2,0,2C96.656,99.969,96.655,97.969,95.366,97.969z"/>
		<path d="M86.275,122.343c-3.224,0-3.224,5,0,5S89.499,122.343,86.275,122.343z"/>
		<path d="M73.688,139.228c-1.29,0-1.29,2,0,2S74.977,139.228,73.688,139.228z"/>
		<path d="M65.995,158.809c-1.29,0-1.29,2,0,2S67.285,158.809,65.995,158.809z"/>
		<path d="M70.891,172.095c-1.29,0-1.29,2,0,2S72.18,172.095,70.891,172.095z"/>
		<path d="M75.786,152.515c-1.29,0-1.29,2,0,2S77.075,152.515,75.786,152.515z"/>
		<path d="M82.778,144.123c-1.29,0-1.29,2,0,2S84.068,144.123,82.778,144.123z"/>
		<path d="M78.583,123.043c-3.224,0-3.224,5,0,5S81.807,123.043,78.583,123.043z"/>
		<path d="M67.394,137.83c-1.29,0-1.29,2,0,2S68.684,137.83,67.394,137.83z"/>
		<path d="M67.394,148.319c-1.29,0-1.29,2,0,2S68.684,148.319,67.394,148.319z"/>
		<path d="M59.002,173.494c-1.29,0-1.29,2,0,2S60.292,173.494,59.002,173.494z"/>
		<path d="M49.912,185.98c-3.224,0-3.224,5,0,5S53.136,185.98,49.912,185.98z"/>
		<path d="M45.016,202.063c-3.224,0-3.224,5,0,5S48.24,202.063,45.016,202.063z"/>
	</g>
	<g>
		<g>
			<g>
				<line x1="258.923" y1="385.835" x2="506.574" y2="213.222"/>
				<path d="M258.72,385.544c4.759-4.172,9.652-8.15,14.597-12.053c2.467-1.961,4.945-3.904,7.455-5.803
					c2.501-1.91,4.989-3.84,7.528-5.697c5.046-3.758,10.108-7.492,15.245-11.123c5.111-3.666,10.299-7.221,15.591-10.625
					c10.583-6.813,21.557-13.064,31.999-20.082c10.45-7.002,20.563-14.49,30.498-22.234c4.988-3.842,9.925-7.758,14.958-11.534
					c5.018-3.798,10.105-7.499,15.188-11.206c10.168-7.407,20.323-14.835,30.706-21.936c5.195-3.545,10.411-7.06,15.68-10.5
					l7.896-5.168l7.952-5.089c10.641-6.731,21.344-13.371,32.357-19.566l0.408,0.585c-9.624,8.19-19.558,15.934-29.555,23.587
					l-7.526,5.7l-7.582,5.62c-5.05,3.753-10.153,7.43-15.276,11.078c-10.255,7.284-20.738,14.24-31.207,21.218
					c-5.236,3.486-10.468,6.977-15.769,10.371c-5.285,3.416-10.667,6.692-15.998,10.042c-10.703,6.641-21.228,13.537-31.415,20.918
					c-10.196,7.369-19.859,15.502-29.914,23.074c-5.026,3.787-10.157,7.424-15.365,10.949c-5.183,3.563-10.439,7.02-15.712,10.453
					c-2.621,1.74-5.292,3.408-7.95,5.092c-2.65,1.699-5.331,3.352-8.023,4.988c-5.374,3.287-10.8,6.502-16.359,9.523L258.72,385.544
					z"/>
			</g>
		</g>
		<g>
			<path d="M513.385,211.132c58.12,130.391-147.477,316.559-255.894,184.768c-5.547-6.754,5.193-14.412,10.74-7.674
				c97.935,119.078,284.427-56.309,232.666-172.398C497.382,207.923,509.862,203.244,513.385,211.132L513.385,211.132z"/>
		</g>
		<g>
		</g>
		<g>
			<path d="M417.29,284.393c-1.837,5.868,38.93-9.814,44.012-11.775c13.491-5.214,28.792-11.044,40.803-17.515
				c7.508-4.04,16.449-0.747,8.872,3.337c-14.706,7.916-115.035,51.537-107.694,28.312
				C404.742,282.127,418.769,279.742,417.29,284.393L417.29,284.393z"/>
		</g>
		<g>
			<path d="M367.24,322.566c0.569,0.41,1.136,0.82,1.71,1.223c1.064,0.787,1.383,2.594,0.499,5.078
				c-10.55,29.521-29.345,58.52-47.012,83.635c-4.153,5.9-7.667,0.613-3.515-5.285c16.559-23.533,34.331-50.627,44.228-78.311
				c0.165,1.693,0.336,3.381,0.495,5.076c-0.566-0.408-1.132-0.822-1.703-1.234C358.917,330.558,364.209,320.363,367.24,322.566
				L367.24,322.566z"/>
		</g>
		<g>
		</g>
		<g>
			<path d="M396.597,289.089c0.664,0.239,1.325,0.486,1.993,0.712c1.247,0.478,2.033,2.603,1.815,6.162
				c-2.604,42.322-13.408,87.982-24.127,128.195c-2.519,9.451-7.337,4.49-4.818-4.957c10.046-37.688,20.349-80.447,22.793-120.139
				c0.605,2.053,1.212,4.1,1.813,6.158c-0.663-0.24-1.323-0.486-1.989-0.73C390.547,303.195,393.057,287.782,396.597,289.089
				L396.597,289.089z"/>
		</g>
		<g>
			<path d="M381.316,318.523c0.276-0.641,0.555-1.285,0.82-1.93c0.537-1.211,2.182-1.922,4.7-1.613
				c29.931,3.701,60.975,15.531,88.13,27.129c6.382,2.725,2.075,7.316-4.306,4.59c-25.448-10.871-54.492-22.129-82.561-25.604
				c1.565-0.539,3.127-1.078,4.697-1.609c-0.276,0.643-0.555,1.283-0.834,1.928C390.483,324.841,379.826,321.96,381.316,318.523
				L381.316,318.523z"/>
		</g>
		<polyline fill="none" stroke="#000000" stroke-width="6.8129" stroke-miterlimit="10" points="266.378,404.013 313.574,447.837 
			332.444,462.503 356.685,473.519 363.254,474.537 373.579,476.138 383.902,477.736 397.979,479.917 404.549,480.935 
			416.909,475.591 432.813,472.193 456.289,455.806 495.512,421.384 512.24,406.152 528.323,373.443 540.358,343.537 
			545.675,319.103 546.233,298.746 543.796,279.254 538.45,259.522 530.06,239.235 523.967,227.588 513.168,210.238 		"/>
	</g>
	<path d="M409.445,461.64c-3.224,0-3.224,5,0,5S412.669,461.64,409.445,461.64z"/>
	<path d="M425.445,461.64c-3.225,0-3.225,5,0,5S428.669,461.64,425.445,461.64z"/>
	<path d="M437.445,455.64c-3.225,0-3.225,5,0,5S440.669,455.64,437.445,455.64z"/>
	<path d="M426.445,429.64c-3.225,0-3.225,5,0,5S429.669,429.64,426.445,429.64z"/>
	<path d="M508.445,341.64c-3.225,0-3.225,5,0,5S511.669,341.64,508.445,341.64z"/>
	<path d="M522.445,307.64c-3.225,0-3.225,5,0,5S525.669,307.64,522.445,307.64z"/>
	<path d="M518.445,325.64c-3.225,0-3.225,5,0,5S521.669,325.64,518.445,325.64z"/>
	<path d="M439.445,451.14c-1.29,0-1.29,2,0,2S440.735,451.14,439.445,451.14z"/>
	<path d="M424.445,454.14c-1.29,0-1.29,2,0,2S425.735,454.14,424.445,454.14z"/>
	<path d="M415.445,456.14c-1.29,0-1.29,2,0,2S416.734,456.14,415.445,456.14z"/>
	<path d="M506.445,395.14c-1.29,0-1.29,2,0,2S507.735,395.14,506.445,395.14z"/>
	<path d="M518.445,376.14c-1.29,0-1.29,2,0,2S519.735,376.14,518.445,376.14z"/>
	<path d="M526.445,361.14c-1.29,0-1.29,2,0,2S527.735,361.14,526.445,361.14z"/>
	<path d="M515.445,375.14c-1.29,0-1.29,2,0,2S516.735,375.14,515.445,375.14z"/>
	<path d="M510.445,385.14c-1.29,0-1.29,2,0,2S511.735,385.14,510.445,385.14z"/>
	<path d="M515.445,335.14c-1.29,0-1.29,2,0,2S516.735,335.14,515.445,335.14z"/>
	<path d="M521.445,315.14c-1.29,0-1.29,2,0,2S522.735,315.14,521.445,315.14z"/>
	<path d="M526.445,319.14c-1.29,0-1.29,2,0,2S527.735,319.14,526.445,319.14z"/>
	<path d="M532.445,334.14c-1.29,0-1.29,2,0,2S533.735,334.14,532.445,334.14z"/>
</g>
</svg>
