<?xml version="1.0" encoding="utf-8"?>
<!-- Generator: Adobe Illustrator 19.0.0, SVG Export Plug-In . SVG Version: 6.00 Build 0)  -->
<svg version="1.1" id="Layer_1" xmlns="http://www.w3.org/2000/svg" xmlns:xlink="http://www.w3.org/1999/xlink" x="0px" y="0px"
	 viewBox="-211 170.2 188.9 453.8" style="enable-background:new -211 170.2 188.9 453.8;" xml:space="preserve">
<style type="text/css">
	.st0{stroke:#000000;stroke-width:4;stroke-miterlimit:10;}
</style>
<g>
	<g>
		<path class="st0" d="M-60,199.8c-0.4-5.7-1.6-11.3-4.6-16.5c-0.4-0.8-0.7-1.6-0.8-2.4c-2.6-1.9-5.1-3.8-7.7-5.6
			c-1.9,0-4.1,0.5-6.5,1.6c-16.2,7.4-18.3,29-20.7,44.2c-1.1,6.8-2.1,13.6-3.1,20.4c-0.3,3.1-0.7,6.3-1.1,9.4
			c-0.7,5.9-0.3,12-1.2,17.8c-0.3,2-0.8,3.9-1.3,5.8c-0.1,1.6-0.3,3.1-0.6,4.6c0,4.7-0.2,9.3-1.2,13.8c-2.4,10.2-8,16.3-18.3,18.9
			c-9.4,2.4-18.5-0.9-23.4-9.1c-1.4-2.1-2.4-4.6-3.2-7.2c-1.7-5.3-2.6-11-3.7-16.4c-4.7-21.9-7.5-44-10.3-66.1
			c-1-8.3-2.7-15.4-5.3-23c-1.3-3.7-2.7-7.4-4.6-10.9c-0.7-1-1.4-1.9-2.1-2.8c-8.1-9.4-19.8-4.4-24.8,5.4
			c-7.3,14.5-5.4,33.8-3.8,49.3c1.2,12.4,3.5,24.8,5.4,37.1c3.8,24.8,7.6,49.6,11.4,74.4c3.2,20.9,4.2,62,33.7,61.6c1,0,1-1.5,0-1.5
			c-17.5-0.9-23.7-16.5-26.7-31.6c-2.1-5.5-3.5-11.3-4.6-16.9c-2.9-15.4-6.6-31.6-5.5-47.3c0-0.3,0.1-0.5,0.1-0.8
			c-1.5-9.6-2.9-19.2-4.4-28.8c-2.8-18.6-6.4-37.2-7.6-55.9c-0.6-9.1-0.6-18.4,0.9-27.5c1.2-7.1,3.6-15.1,10.1-19
			c24.1-14.4,29.8,59.3,30.7,70.8c1.4,16.2,3.8,32.3,7.9,48c1.9,7.3,4.2,13.5,11.5,16.9c8,3.7,18,2.5,25.9-0.9
			c5.8-2.5,8.1-6.2,9.7-12c2.3-8,3.5-16.4,4.8-24.6c3.4-21.3,6-42.7,10-63.9c1.8-9.4,4.5-18.1,11.3-25.1c5.1-5.2,13-8.2,17.5-0.7
			c2.8,4.7,2.9,10.7,3.1,16c0.2,7.9-0.3,15.8-1.1,23.7c-1.6,15.8-5.1,31.4-8.5,46.9c-3.2,14.4-6.4,28.7-10.2,42.9
			c-3.1,11.6-5.2,23-4.8,35c0.8,21.2,2.3,51.8-25.7,54.4c-1.7,0.1-1.7,2.8,0,2.6c8.8-0.8,16.4-4.1,21.8-11.3
			c5.4-7.2,6.7-17.1,7.3-25.8c0.8-11.9-1.1-23.8,0.5-35.7c0.9-6.9,2.7-13.6,4.6-20.3c3.7-16,7.5-31.9,10.7-48
			c2.8-14.6,5.6-29.3,7.6-44.1c0.6-4.5,1.2-9.2,1.3-13.8C-59.9,203.9-59.9,201.9-60,199.8z"/>
	</g>
	<g>
		<path class="st0" d="M-107.8,381.3c-3.2,1.8-6.9,2.6-10.4,1c-0.1-0.1-0.2-0.1-0.4-0.2c-1.8-0.7-3.4-2.2-4.6-4.5
			c-2.2-4.1-2.4-9.2-2.5-13.7c0-0.7-0.9-0.8-1.2-0.2c-2.2,5.3-5.8,9.7-10.6,12.9c-4.9,3.4-9.4,2.9-14.2-0.1c0,0,0,0,0,0
			c2.6,4.6,8.3,4,12.5,2.2c5.3-2.3,9.6-7.2,12.3-12.3c0.2,5,1,10.2,4,14.3c3.6,4.9,9.8,4,14.8,1.9
			C-107.4,382.5-107.4,381.7-107.8,381.3z"/>
	</g>
	<g>
		<path class="st0" d="M-126.8,363.7c-2-2-4.4-3.6-6.6-5.3c-1.2-1-2.3-2-3.4-3.1c-0.7-0.7,3-1.3,3.2-1.4c5.6-1,13.9-1,18.6,2.7
			c0-0.5,0-0.9,0-1.4c-3.7,3.3-8.3,5.4-13.3,5.6c-1.5,0.1-1.5,2.4,0,2.3c5.5-0.4,10.7-2.7,14.7-6.4c0.5-0.5,0.3-1.2-0.2-1.6
			c-6.3-4.6-18-4.2-24.8-1c-0.4,0.2-0.4,0.8-0.1,1c3.3,3.7,7.4,6.6,11.7,9.1C-126.8,364.4-126.5,364-126.8,363.7L-126.8,363.7z"/>
	</g>
	<g>
		<path class="st0" d="M-169.1,338c0.1,0.4,0.3,1.2,0.8,1.3c0.3,0.1,0.7-0.1,0.8-0.3c0.3-0.4,0.3-1,0.3-1.5c0,0.1-0.1,0.2-0.1,0.4
			c0,0,0.1-0.1,0.1-0.1c0.3-0.3,0.2-1-0.3-1.1c-0.3-0.1-0.5-0.1-0.8-0.2c-0.5,0-0.7,0.4-0.8,0.8c-0.1,0.5-0.4,1-0.4,1.5
			c0,0.4,0.3,0.7,0.7,0.8c0.4,0.2,0.8-0.1,1.1-0.4c0.2-0.2,0.3-0.5,0.2-0.8c-0.1-0.2-0.1-0.4-0.2-0.5c0-0.1-0.4-0.8-0.2-0.3
			c-0.3-0.6-1.1-0.5-1.5-0.1c-0.5,0.4-0.3,0.9-0.3,1.5c0,0.2,0,0.3,0.1,0.5c0,0.1,0.1,0.3,0.2,0.4c0.1,0.2,0.2,0.3,0.4,0.4
			c0.3,0.2,0.3,0.1,0-0.1c0.2,0.2,0.5,0.5,0.8,0.4c0.2,0,0.3-0.2,0.4-0.3c0,0,0-0.1,0.1-0.1c0.1-0.2-0.1,0.1,0,0
			c0.5-0.4,0.3-1.1,0.2-1.6c0-0.1,0-0.3,0,0c0-0.1,0-0.3-0.1-0.4c0-0.2-0.2-0.4-0.3-0.5c-0.2-0.1,0-0.1,0.1,0.3c0,0.2,0,0.3,0,0.5
			c0,0,0,0,0,0c-0.2,0.2-0.4,0.4-0.6,0.6c0,0,0,0,0,0c-0.3-0.1-0.6-0.1-0.8-0.2c-0.2-0.2-0.1-0.1,0,0c-0.1-0.2,0.1,0.2,0.1,0.3
			c0.1-0.3,0.1-0.5,0.2-0.8c-0.1,0.1-0.1,0.1,0.1,0c0.1,0,0.3,0,0.4,0c0,0,0,0,0,0c0.2,0.1,0.3,0.3,0.5,0.4c0,0,0,0,0,0
			c0,0.1,0.1,0.3,0.1,0.4c0-0.2-0.1,0.2,0,0c0-0.1,0.1-0.3,0.1-0.4c0.1-0.3,0.1-0.7,0.1-1c-0.3,0.3-0.5,0.5-0.8,0.8
			c0.3,0,0.6-0.1,0.8-0.2c-0.2-0.1-0.4-0.1-0.6-0.2c0,0,0.1,0.1,0.1,0.1c0-0.1-0.1-0.2-0.1-0.4c0,0.4,0.1,0.7,0.1,1.1
			c0,0.1,0,0.1,0,0c0,0.1-0.1,0.1-0.1,0.2c-0.1,0.2,0,0.1-0.1,0.1c-0.3-0.1-0.5-0.6-0.7-0.9C-168.9,337.8-169.1,337.9-169.1,338
			L-169.1,338z"/>
	</g>
	<g>
		<path class="st0" d="M-92.9,346.6c-0.2-0.6-0.5-1.3-1.2-1.4c-0.2,0-0.3,0-0.4,0.2c-0.2,0.3-0.3,0.8-0.3,1.2c0.3,0.1,0.7,0.2,1,0.3
			c0.1-0.4,0-0.7-0.1-1.1c-0.1-0.3-0.9-1.2-0.9-1.5c-0.5,0.1-1,0.1-1.5,0.2c0.5,0.8-0.2,2.7-0.2,3.6c0,0.9,1.1,1.2,1.6,0.7
			c0.5-0.4,0.9-0.9,1.4-1.3c0.8-0.7,0-1.7-0.8-1.8c-0.1,0-0.6-0.1-0.4,0c-0.6-0.1-1.3,0.2-1.4,0.8c-0.1,0.5-0.2,1.1-0.2,1.6
			c-0.1,1.7,2.6,1.7,2.7,0c0-0.4,0.1-0.9,0.1-1.3c0.1-0.9-0.7-1.4-1.5-1.5c-0.3,0-0.1,0.1,0.6,0.3c-0.3-0.2-0.5-0.4-0.8-0.4
			c-1.2-0.2-2,0.5-2.1,1.6c-0.1,0.6,0.2,1.4,0.4,1.9c0.3,0.6,0.2,1.2,0.6,1.8c0.2,0.3,0.6,0.5,0.9,0.4c1.8-0.5,1.8-3.1,1.4-4.5
			c-0.4,0.7-0.8,1.4-1.2,2.1c0.2,0,0.3-0.1,0.5-0.2c1.1-0.7-0.7,0.1-0.2,0c-0.5-0.5-1-1-1.5-1.5c0,0.4,0.1,0.9,0.1,1.3
			c0.1,1.7,2.8,1.7,2.7,0c0-0.6-0.1-1.1-0.2-1.6c-0.3,0.5-0.5,1-0.8,1.4c-0.2,0,0.3,0,0.4,0c-0.3-0.6-0.5-1.2-0.8-1.8
			c-0.4,0.5-0.8,1-1.3,1.4c0.5,0.2,1.1,0.5,1.6,0.7c0-1.5,0.7-3.3-0.4-4.6c-0.7-0.8-1.7,0.2-1.3,1c0.4,0.9,1,1.7,1.6,2.5
			c0.4,0.5,1.1,0.2,1-0.4c-0.1-0.3-0.1-0.5,0-0.8c0-0.2,0-0.2,0,0c0.3,0.2,0.5,0.7,0.7,1C-93,346.8-92.8,346.7-92.9,346.6
			L-92.9,346.6z"/>
	</g>
	<g>
		<path class="st0" d="M-169.7,338.7c1.1,0.6,1.9-0.4,2.4-1.2c0.1-0.2,0-0.5-0.2-0.6c-0.2,0-0.4-0.1-0.6-0.2c-0.2-0.1-0.4,0-0.5,0.1
			c-0.5,0.6-0.5,1.6-0.5,2.4c0,0.9,0,1.8-0.1,2.7c0,1.2,1.7,1.2,1.9,0c0-0.5,0.6-1.1,0.8-1.6c0.3-0.6,0.6-1.1,0.7-1.8
			c0.1-0.7-0.8-1.2-1.4-1c-1,0.3-1.8,0.8-1.7,2c0,0.5,0.2,0.8,0.4,1.2c0.1,0.3,0.1,0.6,0.2,0.9c0.2,0.4,0.5,0.9,1,1
			c1.6,0.3,1.9-1.2,2.2-2.4c0.3-1,0.9-2.8,0.2-3.7c-1.3-1.8-3.1,0-4.1,1.2c-0.7,1-0.7,2.5-0.9,3.7c-0.2,1,0.5,2.1,1.6,2.1
			c0.4,0,0.9,0,1.3,0c0.5,0,1.2-0.3,1.4-0.8c0.7-1.5,0.8-3.2,1-4.8c0.2-1.8-2.5-2.3-3.3-0.9c-0.5,0.9-0.6,2-0.4,2.9
			c0.1,0.4,0.1,0.8,0.3,1.1c0.1,0.1,0.2,0.6,0.2,0.6c-0.1,0.7,0.5,1.2,1.2,0.9c1.4-0.6,1.6-2.9,2-4.2c-1.2-0.2-2.3-0.3-3.5-0.5
			c0.1,1,0.2,2.2-0.3,3.2c0.5-0.3,0.9-0.5,1.4-0.8c-0.4,0-0.9,0-1.3,0c0.5,0.7,1.1,1.4,1.6,2.1c0.2-1.1,0.3-2,0.4-2.7
			c0-0.1,0.2-0.4,0,0c0.1-0.1,0.2-0.2,0.2-0.4c0.1-0.1,0.1-0.1,0,0c0.1-0.1,0.1-0.2,0.2-0.3c0.2-0.2,0.4-0.5,0.6-0.7
			c-0.4,0.1-0.7,0.3-1.1,0.4c0,0,0,0,0,0c-0.3-0.1-0.5-0.1-0.8-0.2c-0.2-0.2-0.4-0.5-0.6-0.7c0-0.2,0-0.3,0-0.1c0,0.2,0,0.4,0,0.5
			c0-0.3,0,0.3,0,0.2c0,0.2-0.1,0.4-0.1,0.7c-0.1,0.4-0.2,0.7-0.3,1.1c0,0.1-0.1,0.2-0.1,0.3c-0.1,0.4,0.1-0.2,0.2-0.3
			c0.5-0.1,0.9-0.2,1.4-0.4c0,0,0,0,0,0c0.3,0.3,0.7,0.7,1,1c0.3,0.7,0-0.1,0-0.3c-0.1-0.4-0.2-0.7-0.3-1c-0.1-0.2-0.2-0.5-0.3-0.7
			c0.1,0.2,0.1,0.3,0,0.5c0.2-0.4,0.2-0.4,0-0.1c-0.6-0.3-1.2-0.5-1.8-0.8c0,1-1.1,2.2-1.2,3.3c0.6,0,1.2,0,1.9,0
			c0-0.8,0-1.7-0.1-2.5c0-0.8,0.1-1.9-0.5-2.5c-0.1,0.3-0.2,0.6-0.2,0.9c0.2-0.1,0.4-0.1,0.6-0.2c-0.2-0.2-0.3-0.3-0.5-0.5
			c-0.1,0.8-0.7,1.7-1.6,1.4C-169.7,338.5-169.8,338.6-169.7,338.7L-169.7,338.7z"/>
	</g>
	<g>
		<path class="st0" d="M-146.6,417.4c-5.8-7-15.1-8-22.5-2.7c-5.1,3.6-8.1,9.5-13.2,13.1c-0.2,0.2,0,0.5,0.2,0.4
			c5.4-2.9,9.1-8.2,13.8-11.7c3.1-4.4,7.6-4.8,11.8-3.2c6,0.9,9.6,5.7,11.2,11.3c2.1,5,1.9,10.3,0,15.2c-3.3,10.8-13.7,18.3-24.4,21
			c-0.7,0.2-1.5,0.3-2.2,0.5c-6.7,2-13.7,2.3-19.4-1.4c-10.2-6.5-12-21.6-6.1-31.5c0,0,0.1-0.1,0.1-0.1c4.6-11.7,16-21.2,26.4-27.8
			c1.4-0.9,0.1-3.2-1.3-2.3c-17.3,10.8-33.5,26.8-28.7,49c2.8,12.9,15.7,18.6,27.9,16.9c13.3-1.8,25.6-10.5,29.8-23.5
			C-140.7,433.1-141.6,423.6-146.6,417.4z"/>
	</g>
	<g>
		<path class="st0" d="M-69.3,420.3c-7.6-10.5-20.9-16.3-31.4-23.3c-0.1-0.1-0.3,0.1-0.2,0.2c8.7,8.3,20.3,12.8,28.4,21.9
			c5.6,6.3,9.6,16.2,8.9,24.7c-1,12.2-16,11.5-24.6,9.2c-5.2-1.4-10.9-3.7-15.8-7.1c-7.4-3.4-13-9.3-12.9-17.7
			c0.2-9.7,8.8-14.7,17.8-12.6c2.1,0.5,4,1.3,5.6,2.2c4.4,2.1,8.3,5.3,10.5,8.7c0.7,1.1,1.2,2.3,1.6,3.6c0.6,0.7,1.1,1.4,1.7,2.1
			c0.6-0.2,1-0.7,0.9-1.4c-2.6-13.8-25.5-23.9-35.6-12.2c-7,8.1-2.6,18.5,4.1,25c7.8,7.4,18.9,12.1,29.6,12.9
			c8.4,0.7,17.9-2.6,19-12.1C-60.8,436.1-64.6,426.9-69.3,420.3z"/>
	</g>
	<g>
		<path class="st0" d="M-109.6,601.9c8.3,10,26.6,31.5,39.7,15.2c9-11.2-1.4-30.4-6.9-40.8c-1-1.8-3.7-0.2-2.7,1.6
			c5.1,9.6,13.2,24.6,8.2,35.6c-3.2,7-11.7,7.2-17.7,4.1c-7.4-3.9-13.2-11.4-18.6-17.8C-108.8,598.4-110.8,600.5-109.6,601.9
			L-109.6,601.9z"/>
	</g>
	<g>
		<path class="st0" d="M-135.3,577.2c0.2,0.1,0.3,0.2,0.5,0.3c0.5-0.7,1-1.5,1.6-2.2c0,0,0-0.1-0.1-0.1c-16.8-13.8-27-32.7-30.7-54
			c-1.9-10.9-2-22.2-1.3-33.2c0.6-8.9,1.7-18.1-0.6-26.9c-0.1-0.2-0.4-0.2-0.4,0.1c1.3,20.7-3.1,41.4,0.1,62
			C-162.9,544.4-152,563.5-135.3,577.2z"/>
	</g>
	<g>
		<path class="st0" d="M-60.8,485.6c2.1,4.6,3.6,9.6,4.5,14.6c0-2.6,0.2-5.2,0.8-7.5c-5-15-15.3-26.8-27.1-37.8
			c-0.4-0.4-0.9,0.2-0.6,0.6C-74.6,464.8-66.1,474-60.8,485.6z"/>
		<path class="st0" d="M-52.1,513.1c-0.1-0.1-0.1-0.1-0.2-0.2c-1.4-1.4-2.4-3.4-3-5.7c0.7,7.3,0.4,14.6-0.7,21.7
			c-3.5,23.2-16,41.7-34,56.1c-7.4,6-15.4,12.2-23.9,17.3c-3.4,3-7.1,5.5-11.2,7.3c-5.9,2.5-15.4,5.1-20-1.2
			c-5.4-7.5,0.6-20.2,7.7-27.1c3.9-6.6,8.8-12.5,14.9-17.5c0.6-0.5,1.3-1,1.9-1.5c0.9-1.1,1.8-2.2,2.6-3.2
			c3.5-4.1,7.1-8.7,11.5-11.9c2.2-1.6,5.4-3.3,8.5-5.3c2.1-2,5.3-4.3,6-7.2c0.4-1.5,1.2-2.6,2.3-3.2c-0.6-1-2-1.6-2.9-0.4
			c-15,18.9-35.6,32.6-49.9,52c-4.8,6.6-8.1,14.2-7,22.4c0.7,5.1,4.1,9,9.3,9.7c6.2,0.8,12.5-1.9,17.9-4.5
			c7.7-3.6,14.8-8.4,21.7-13.2c14.3-10.2,27.9-21.3,36.8-36.7C-55.3,546.5-51.5,529.7-52.1,513.1z"/>
	</g>
	<g>
		<path class="st0" d="M-23.7,491.8c-1.8-8.2-8.3-14.8-16.9-15c-7.6-0.2-16.8,6-17.7,14c0,0.4,0.5,0.5,0.7,0.2
			c0.2-0.3,0.3-0.9,0.4-1.3c0.1-0.2,0.3-0.4,0.4-0.7c0.6-1.3,1.5-2.4,2.4-3.5c3-5.8,11.4-8.5,18.1-6c8.8,3.3,14.3,18.8,9.4,26.9
			c-0.8,1.3-2.1,2.7-3.7,3.9c-1,1.1-2.3,2-3.6,2.8c-3.3,1.8-7.1,2.6-10.9,2.7c-0.7,0-1.3-0.1-2-0.2c-2.1-0.3-3.9-1.1-5.3-2.6
			c-0.4-0.4-0.7-0.8-1-1.3c0,0,0,0,0,0c-0.3-0.1-0.7,0-0.9,0.3c-0.1,0.2-0.2,0.3-0.3,0.5c-0.3,0.5-0.3,1.1,0,1.6
			c4.9,7.6,16.2,4.6,22.7,1.1C-23.7,510.7-21.9,500.1-23.7,491.8z"/>
	</g>
</g>
</svg>
