<?xml version="1.0" encoding="utf-8"?>
<!-- Generator: Adobe Illustrator 15.0.2, SVG Export Plug-In . SVG Version: 6.00 Build 0)  -->
<!DOCTYPE svg PUBLIC "-//W3C//DTD SVG 1.1//EN" "http://www.w3.org/Graphics/SVG/1.1/DTD/svg11.dtd">
<svg version="1.1" id="Layer_1" xmlns="http://www.w3.org/2000/svg" xmlns:xlink="http://www.w3.org/1999/xlink" x="0px" y="0px"
	 width="1989.962px" height="1674.261px" viewBox="0 0 1989.962 1674.261" enable-background="new 0 0 1989.962 1674.261"
	 xml:space="preserve">
<g>
	<path stroke="#000000" stroke-width="8" stroke-miterlimit="10" d="M1574.942,1093.801c-3.773-7.75-8.234-14.617-12.453-21.797
		c-1.219-2.125-3.367-3.156-4.594-1.922c-31.141,30.461-75.211,30.156-113.266,37.117c-48.305,8.82-99.766,4.82-150.32-1.195
		c-49.234-5.797-99.031-17.305-148.289-22.867c-13.32-1.508-27.02-3.016-40.758-3.914c-1.289,0.18-2.75,0.289-4.445,0.289
		c-1.641,0-3.391-0.313-5.16-0.797c-26.766-1.125-53.375,0.609-77.301,9.789c-36.953-49.781-62.629-116.078-92.527-175.988
		c-30.578-61.395-65.969-110.715-107.156-150.406c-40.492-38.973-83.742-65.391-126.145-92
		c-49.617-31.125-97.629-59.047-147.949-75.637c-49.816-16.406-99.328-25.695-149.199-43.781
		c-19.789-7.188-39.566-15.016-59.293-22.004c-1.043-1.242-2.352-1.598-3.473-1.223c-28.641-10.023-57.152-17.992-85.422-19.094
		c-44.188-1.77-81.941,20.379-116.52,51.727c-38.531,34.977-73.715,75.266-121.289,84.406c-0.531-0.09-0.996,0.004-1.355,0.289
		c-0.551,0.094-1.078,0.246-1.621,0.336c-2.664,0.418-3.285,6.336-1.008,9.852c58.598,90.355,96.125,211.406,157.16,295.027
		c0.223,0.348,0.441,0.695,0.699,0.98c12.129,16.512,25.176,31.578,39.531,44.602c40.746,36.977,85.324,47.055,127.266,58.266
		c52.887,14.109,100.969,42.867,152.902,77.914c31.668,21.383,63.527,42.594,95.613,60.266c0.445,0.406,0.914,0.656,1.406,0.75
		c15.043,8.266,30.133,15.766,45.27,22.016c54.805,22.594,110.176,33.672,164.133,40.109c47.711,5.656,93.477,6.703,132.359-25.828
		c38.035-31.859,66.508-83.922,102.746-119.727c1.484,0.719,2.66-0.367,3.227-2.242c42.867-8.781,88.496,1.625,133.715,10.391
		c46.648,9.063,92.617,10.719,138.836,15.398c96.109,9.742,186.695,10.398,272.977-30.664
		C1575.168,1101.363,1576.825,1097.668,1574.942,1093.801z M684.899,677.391c29.055,18.266,58.141,36.387,86.707,57.832
		c-0.297,0.773-0.469,1.754-0.391,3.043c0.309,4.172,0.832,8.215,1.449,12.18c0.699,4.91,1.691,9.883,3.016,14.844
		c9.785,38.609,32.082,70.691,43.004,110.391c14.793,53.758,9.961,107.699,27.086,160.684c-8.477-3.797-16.961-7.672-25.43-11.625
		c-38.773-19.992-77.398-42.578-115.383-65.129c-35.844-31.66-38.141-98.191-49.641-149.836
		c-6.168-27.715-15.84-54.789-25.164-81.031c-4.93-13.895-10.867-28.531-16.105-43.461c-5.645-17.824-10.371-36.102-12.84-55.492
		C629.09,643.383,656.79,659.703,684.899,677.391z M705.489,989.574c-4.535,8.219-9.07,16.352-13.527,24.586
		C696.18,1005.379,700.598,996.848,705.489,989.574z M538.407,604.445c18.539,5.645,36.797,12.969,54.953,21.449
		c0.629,13.082,3.234,25.621,6.723,37.926c3.402,14.508,7.648,28.781,12.652,43.348c15.262,44.488,28.285,82.945,34.945,130.34
		c4.133,29.414,7.082,60.406,17.766,88.258c1.266,3.332,3.844,8.879,6.914,14.457c-0.645-0.391-1.305-0.758-1.949-1.133
		c-25.52-15.156-51.066-30.445-76.672-44.887c-10.082-25.008-20.051-45.668-27.477-72.883c-5.68-20.793-12.004-40.961-19.473-60.797
		c-8.992-23.914-21.242-44.527-30.57-68.156c-3.566-10.172-6.781-20.492-9.496-30.91c-5.25-22.668-7.594-46.234-9.109-68.602
		C511.208,596.523,524.801,600.301,538.407,604.445z M489.907,590.766c-0.156,53.98,17.445,104.719,38.809,153.309
		c13.223,30.102,23.75,56.004,31.391,89.523c4.219,18.52,8.793,35.316,15.992,50.816c-7.422-4.074-14.848-7.992-22.27-11.848
		c-8.203-4.988-16.41-9.914-24.625-14.824c-0.125-0.691-0.313-1.391-0.641-2.188c-9.75-22.621-17.297-44.305-20.449-69.805
		c-1.105-8.855-2.422-17.57-4.117-26.191c-1.414-10.914-3.324-21.613-6.543-31.773c-7.215-22.871-16.23-43.895-25.383-65.406
		C460.5,635.121,454.508,607.93,446.915,579C461.258,583.09,475.575,586.914,489.907,590.766z M388.934,560.18
		c16.711,6.316,33.383,11.621,50.047,16.504c0.016,0.203-0.02,0.359,0.012,0.582c7.82,53.164,30.375,98.859,48.02,147.617
		c7.434,20.516,10.574,40.633,13.695,61.355c2.008,21.129,3.727,41.922,11.414,61.375c-27.484-16.195-54.934-31.367-82.367-45.469
		c-18.262-48.836-37.063-93.18-51.68-144.832c-5.395-19.078-11.008-37.977-17.164-56.742c-4.883-14.914-14.191-32.508-19.398-49.41
		c-0.816-3.348-1.578-6.742-2.266-10.141C355.907,547.211,372.551,553.996,388.934,560.18z M242.051,520.566
		c28.852-1.461,58.938,6.73,89.035,17.473c0.66,4.215,1.59,8.223,2.738,12.137c10.453,45.961,32.141,88.477,42.652,134.863
		c8.383,36.93,14.746,72.965,29.695,105.309c-16.148-7.918-32.32-15.539-48.516-22.707
		c-36.605-33.109-62.523-105.629-82.898-161.992c-10.082-27.898-22.836-67.324-41.547-84.336
		C236.122,520.965,239.067,520.719,242.051,520.566z M220.5,523.523c0.348,0.723,0.785,1.445,1.395,2.086
		c34.707,36.445,55.438,111.297,76.188,165.641c7.676,20.113,15.484,41.391,25.766,58.043
		c-20.52-12.336-40.875-26.652-61.621-35.012c-10.031-4.059-20.105-6.34-30.176-8.027c-24.234-52.395-50.398-102.523-79.398-148.758
		C173.708,541.305,195.809,529.004,220.5,523.523z M289.715,740c-6.758-2.512-13.551-5.094-20.344-7.469
		c-12.992-4.539-25.992-8.91-38.98-13.207c6.004,0.965,12.043,1.973,18.098,3.082C262.262,724.957,276.004,731.828,289.715,740z
		 M115.184,590.473c9.609-9.324,19.262-18.191,29.078-26.301c22.504,47.184,47.633,89.727,67.871,139.254
		c-10.465-1.434-20.926-2.965-31.336-5.906c-13.508-3.813-27.043-8.43-40.586-13.129c-18.422-16.563-29.715-50.129-42.91-77.051
		C103.286,601.867,109.243,596.223,115.184,590.473z M91.286,612.676c9.863,21.02,18.34,43.234,27.957,64.465
		c-7.688-2.617-15.387-5.18-23.059-7.492c-15.797-4.797-31.453-7.473-47.113-10.238c-6.566-2.387-13.117-4.887-19.684-7.402
		C51.817,644.023,71.942,629.656,91.286,612.676z M106.391,839.508c-28.168-58.309-54.051-121.184-84.871-173.5
		c9.461,2.145,18.867,3.914,28.273,5.598c43.555,15.938,87.082,29.781,130.609,43.648c-10.809,9.391-18.012,24.918-25.703,41.074
		c-1.23,2.602-2.523,5.234-3.82,7.852c-13.875,21.82-27.133,44.738-39.504,68.398C109.723,834.934,108.063,837.246,106.391,839.508z
		 M161.215,936.176c-17.777-25.055-33.711-53.941-48.832-84.43c1.73-3.43,3.512-6.789,5.277-10.188
		c10.824-16.094,20.434-34.371,30.223-52.113c1.395-2.531,2.777-5.223,4.148-8.02c13.422-21.523,27.434-42.074,41.793-61.238
		c0.105-0.18,0.16-0.379,0.242-0.578c25.352,8.113,50.699,16.305,76.047,25.059c0.305,0.117,0.582,0.223,0.867,0.34
		c-15.613,35.746-31.477,68.375-51.398,98.094c-7.133,10.727-13.91,22.191-20.629,33.754
		c-10.492,14.523-20.426,29.984-29.082,47.512C167.047,928.445,164.2,932.426,161.215,936.176z M304.098,1034.504
		c-31.164-9.016-62.191-20.203-93.047-44.258c-15.031-11.727-28.703-26.234-41.41-42.688c1.797-4.359,3.668-8.621,5.625-12.707
		c11.141-16.039,21.199-34.082,31.48-51.719c29.48-40.578,62.801-74.844,82.332-131.105c0.043-0.129,0.035-0.258,0.074-0.402
		c14.68,5.43,29.332,11.094,43.949,17.234c38.949,24.551,77.445,48.164,116.469,67.465c-15.215,11.066-28.188,35.238-37.277,49.816
		c-31.445,50.293-62.109,122.973-106.781,146.223C304.711,1032.793,304.313,1033.598,304.098,1034.504z M523.719,1144.027
		c-0.699,0.352-1.164,1-1.508,1.789c-15.105-9.859-30.168-20.016-45.168-30.172c-43.379-29.281-84.512-55.5-128.699-68.672
		c-9.563-2.859-19.117-5.469-28.676-8.078c27.266-20.219,51.266-46.328,72.172-80.172c12.477-20.223,25.086-40.23,38.285-59.254
		c14.109-20.266,30.645-33.805,46.188-50.75c4.711,2.063,9.406,4.145,14.141,6.035c20.664,8.328,41.285,18.176,61.891,28.883
		c25.918,15.602,51.809,31.453,77.723,47.18c-3.531,3.566-6.367,8.926-9.48,14.652c-9.406,17.441-20.457,31.566-29.145,50.277
		c-8.672,18.695-15.379,40.086-22.34,60.867c-6.613,19.797-13.625,44.742-23.613,63.281c-3.953,6.406-8.223,12.344-12.836,17.773
		C529.868,1140.348,526.915,1142.535,523.719,1144.027z M578.5,1180.129c-15.094-8.375-30.156-17.484-45.156-27.086
		c2.207-2.32,4.406-4.633,6.461-7.188c3.441-3.797,6.598-8.242,9.52-13.227c14.688-22.523,25.773-50.43,36.516-79.375
		c9-24.234,18.117-48.078,29.59-69.078c8.855-16.234,21.75-25.496,28.008-45.254c20.035,12.098,40.09,24.02,60.16,35.707
		c-7.629,10.578-13.004,24.359-19.672,36.797c-9.152,16.969-18.746,33.172-27.078,51.328c-9.008,19.594-17.891,38.82-28.074,56.75
		c-5.688,10.063-12.113,22.156-19.277,32.984C599.833,1162.363,589.516,1171.426,578.5,1180.129z M737.129,1235.129
		c-34.973-6.438-70.352-15.859-105.348-29.484c-13.125-5.094-26.215-11.172-39.277-17.922c8.574-5.625,16.387-14.578,23.566-25.109
		c17.84-17.719,33.789-38.453,47.344-66.367c12.098-24.883,22.328-52.242,34.43-77.18c6.477-13.266,14.961-22.75,21.898-35.094
		c20.023,11.469,40.086,22.563,60.188,33.109c14.574,7.633,29.168,14.617,43.746,21.328c8.246,4.203,16.52,8.266,24.789,12.234
		c-7.844,14.844-16.008,29.313-24.383,43.516c-8.223,10.797-15.406,23.594-22.348,36.594
		c-21.266,33.906-43.117,66.969-63.875,101.188C737.286,1232.879,737.122,1234.02,737.129,1235.129z M871.543,1240.816
		c-28.32,7.234-58.949,4.734-90.426,1.016c-9.738-1.141-19.543-2.563-29.379-4.172c15.945-33.969,36.844-61.531,54.043-93.719
		c0.801-1.484,1.625-2.938,2.414-4.438c7.043-11.203,14.02-22.5,20.863-34.016c2.242-3.195,4.527-6.406,6.914-9.406
		c9.871-12.656,20.125-20.594,27.457-37.578c0.109-0.234,0.098-0.484,0.184-0.75c18.25,8.289,36.488,15.641,54.637,22.055
		c8.648,3.711,17.305,7.32,25.988,10.773c-23.277,50.352-58.953,85.453-72.52,147.922
		C871.551,1239.27,871.524,1240.051,871.543,1240.816z M927.415,1208.207c-13.582,14.047-28.211,23.094-43.574,28.797
		c20.758-52.641,54.047-86.984,74.508-140.219c0.082-0.203,0.066-0.438,0.113-0.672c16.391,6.125,32.758,11.359,49.078,15.031
		C979.973,1141.754,955.723,1178.988,927.415,1208.207z M916.247,1067.16c-5.16-2.242-10.313-4.469-15.445-6.672
		c-14.137-6.141-28.262-12.242-42.367-18.5c-18.934-50.984-12.141-103.098-25.238-155.555c-1.961-7.902-4.566-15.563-7.383-23.109
		c-1.25-1.93-2.277-4.199-3.078-6.633c-4.613-4.117-7.398-12.285-7.887-19.938c-1.414-3.152-2.836-6.32-4.246-9.414
		c-0.188-0.414-0.418-0.875-0.613-1.293c-2.82-2.91-4.859-7.391-6.043-12.234c-0.238-0.535-0.445-1.102-0.66-1.66
		c-8.598-17.422-18.602-37.59-22.469-56.875c-0.25-1.391-0.523-2.805-0.738-4.16c-0.516-3.371-0.848-6.746-0.914-9.98
		c14.301,11.098,28.488,23.023,42.43,36.445c14.73,14.188,28.387,30.16,41.316,47.414c3.75,1.887,6.621,6.227,8.375,11.445
		c0.09,0.129,0.176,0.273,0.266,0.402c1.938,1.801,3.543,4.289,4.781,7.191c17.422,25.637,33.426,53.891,48.508,84.18
		c3.527,2.832,5.969,8.023,7.301,13.652c1.77,2.668,3.105,5.996,3.98,9.531c22.707,48.258,44.719,97.676,72.852,138.035
		C978.504,1086.16,947.489,1078.277,916.247,1067.16z M1070.18,1091.754c-3.422-0.125-6.848-0.258-10.273-0.234
		c3.488-0.383,6.957-0.688,10.469-0.906C1070.282,1090.973,1070.208,1091.332,1070.18,1091.754z M1537.598,1104.207
		c9.258-3.93,18.5-8.117,27.813-12.523c0.102,0.195,0.211,0.398,0.32,0.602C1556.418,1096.598,1547.043,1100.598,1537.598,1104.207z
		"/>
	<path d="M622.875,956.852c1.949-3.203,3.945-6.215,5.961-8.855C626.946,951.055,624.958,954,622.875,956.852z"/>
	<path d="M198.075,653.613c-0.039,0.039-0.066,0.043-0.113,0.055c-0.605-1.242-1.199-2.516-1.824-3.77
		C196.782,651.152,197.434,652.383,198.075,653.613z"/>
	<path d="M259.879,791.992c0.023,0.047,0.055,0.102,0.09,0.164c-0.359,0.586-0.703,1.238-1.074,1.836
		C259.219,793.297,259.543,792.664,259.879,791.992z"/>
	<path d="M416.633,788.875c0.035-0.086,0.102-0.133,0.145-0.227c0.133,0.379,0.297,0.789,0.434,1.188
		C417.024,789.52,416.829,789.18,416.633,788.875z"/>
	<path stroke="#000000" stroke-width="6" stroke-miterlimit="10" d="M1571.801,1304.887
		c-66.578-40.258-134.035-84.938-204.836-117.063c6.938,0.352,13.922,0.289,21.102,0.148c26.102-0.523,48.66,4.445,73.688,12.758
		c32.289,10.742,65.852,27.547,99.711,30.898c21.305,2.117,89.367,6.555,78.602-35.484c-13.719-53.547-96.898-67.109-137.938-67.445
		c-48.406-0.383-99.211,7.727-143.273,30.883c0.645-0.789,1.227-1.641,1.859-2.438c-0.816,0.273-1.656,0.539-2.672,0.539
		c-4.918,0-7.422-3.641-7.656-7.445c-0.891,1.492-1.754,3.008-2.668,4.484c7.047-58.297-1.352-127.578-30.078-176.41
		c-2.734-4.66-8.059-13.012-14.742-21.82c-2.5,2.711-5.273,5.07-8.047,6.73c6.941,8.738,13.48,18.082,18.09,28.324
		c22.113,49.02,30.977,107.113,24.633,161.613c-9.047-25.75-25.039-48.539-40.316-70.313c-11.828-16.859-27.43-36.539-38.781-57.734
		c-2.484,1.969-5.02,3.836-7.645,5.57c1.309,2.5,2.629,4.977,3.977,7.266c21.91,37.102,55.945,72.211,71.629,114.141
		c-21.871-28-47.91-50.68-75.742-72.367c-10.199-7.945-19.957-16.305-29.57-24.813c-2.906,2.617-5.883,5.156-8.941,7.594
		c38.313,33.336,79.641,61.031,110.914,102.656c-35.934-9.188-67.996-25.773-100.676-45.156
		c-31.637-18.813-64.371-35.516-95.688-54.922c-10.766-6.664-24.902-15.852-38.117-26.852c-0.699-0.219-1.402-0.406-2.074-0.734
		c-8.09-3.922-16.691-7.273-24.734-11.172c12.328,14.82,27.336,27.445,38.055,34.5c40.805,26.867,84.102,49.172,126.004,73.961
		c15.395,9.102,30.941,17.266,46.879,24.297c-21.949-6.398-43.496-15.023-65.102-22.422c-34.453-11.734-69.063-23.977-104.5-31.828
		c-25.813-5.719-103.523-21.891-94.344,32.453c3.055,18.07,25.051,30.141,38.789,36.578c29.93,14.086,62.852,18.5,95.309,18.422
		c37.281-0.078,74.535-5.219,111.77-3.477c0.074,0,0.16-0.008,0.23,0c-23.945,5.547-47.871,11.086-72.16,14.516
		c-38.73,5.383-78.523,8.531-116.18,20.297c-22.07,6.875-122.262,40.992-109.008,83.703c7.426,23.992,34.055,21.844,53.211,18.68
		c36.629-6.102,71.906-16.953,106.344-31.773c39.895-17.18,82.387-33.992,122.887-54.461
		c-18.707,14.352-37.441,28.648-56.492,42.391c-37.629,27.07-78.688,47.766-116.574,74.32
		c-26.852,18.781-125.277,93.352-90.012,140.938c33.207,44.836,135.84-85.984,151.797-103.813
		c48.207-53.875,106.902-97.023,157.434-148.602c-16.047,25.234-31.746,50.773-48.652,75.406
		c-27.531,40.188-59.891,74.602-91.246,111.125c-29.789,34.727-62.336,74.555-73.102,121.984c-3.52,15.477-9.57,47.539,9.453,55.719
		c55.797,23.953,111.863-89.055,132.176-128.063c24.324-46.695,47.277-95.211,68.277-144.672c-2.621,9.313-5.25,18.586-7.883,27.922
		c-15.555,54.625-37.07,107.617-50.313,162.938c-4.84,20.219-35.848,154.867,16.168,143.18
		c19.297-4.367,30.336-38.602,36.215-55.516c13.832-39.656,23.531-79.75,29.066-121.75c7.281-55.078,13.145-110.125,21.801-165
		c4.387-27.727,8.676-55.875,10.77-84.117c3.371,40.406,5.848,80.859,7.383,121.398c2,52.828,0.094,106.805,6.852,159.297
		c4.43,34.438,10.5,71.281,31.293,99.063c10.141,13.578,26.473,32.813,44.559,30.867c57.066-6.195,25.355-134.383,15.898-166.125
		c-13.59-45.625-29.988-90.969-48.305-134.617c-13.395-31.836-27.801-63.703-36.816-97.313
		c26.852,62.93,60.238,123.07,89.676,184.172c15.598,32.359,62.066,140.32,109.801,117.219
		c45.719-22.07-23.672-129.852-38.695-150.25c-47.75-64.742-111.645-118.984-156.227-186.781
		c48.305,52.258,107.242,92.242,158.992,140.602c14.492,13.531,107.898,111.344,131.742,63.711
		C1679.184,1377.129,1601.278,1322.73,1571.801,1304.887z M1247.461,1177.395c-27.809-0.664-55.449,2.992-83.227,3.594
		c-32.031,0.695-68.309,1.438-98.707-11.164c-6.676-2.758-13.48-5.547-19.828-9.18c-7.43-4.242-52.57-34.633-16.039-47.883
		c47.582-17.25,110.98,12.773,156.059,28.086c38.309,13.008,77.43,30.852,117.668,36.68
		C1284.993,1179.707,1266.137,1177.855,1247.461,1177.395z M1149.79,1267.59c-32.984,15.273-66.629,30.641-101.676,39.422
		c-12.906,3.234-25.941,6.227-39.094,8.023c-11.863,1.641-58.258-0.977-36.051-26.602c38.355-44.32,104.484-59.141,157.289-66.766
		c58.051-8.336,114.957-22.383,172.625-32.211C1255.805,1222.738,1201.094,1243.902,1149.79,1267.59z M1150.473,1353.98
		c-28.531,30.703-55.328,63.656-85.676,92.344c-10.34,9.797-20.836,19.773-32.09,28.375c-6.973,5.313-14.094,11-22.039,14.531
		c-16.07,7.039-35.391-5.484-27.242-25.344c28.793-70.047,100.617-105.906,158.527-141.469
		c60.488-37.156,115.305-83.781,172.875-125.859C1266.512,1256.762,1202.473,1297.973,1150.473,1353.98z M1231.184,1424.34
		c-18.406,39.578-38.262,78.523-63.094,113.797c-15.094,21.383-38.383,60.797-65.832,63.234
		c-39.648,3.555-16.004-58.703-9.738-72.375c9.777-21.219,21.766-40.938,35.871-59.07c23.234-29.852,49.234-56.742,73.602-85.43
		c44.57-52.414,77.91-113.891,117.152-170.695C1293.997,1285.746,1263.094,1355.723,1231.184,1424.34z M1301.516,1448.012
		c-4.945,43.594-9.801,88.211-22.828,130.008c-7.086,22.773-14.188,51.266-28.246,70.281c-9.633,13.055-26.406,5.367-27.594-11.055
		c-0.609-8.563-0.758-16.969-0.23-25.523c0.73-12.516,1.434-25.164,3.324-37.539c6.906-44.797,21.148-86.875,35.273-129.406
		c24.75-74.266,41.871-151.383,68.848-224.734C1329.29,1296.059,1309.997,1373.176,1301.516,1448.012z M1493.364,1139.707
		c43.18,0.352,105.648,7.133,132.18,50.531c20.133,32.938-36.086,32.398-52.656,31.203c-23.156-1.641-44.258-9.531-66.289-17.117
		c-26.344-9.047-54.578-22.578-82.145-26.023c-23.676-2.969-48.164,1.367-71.605-3.055
		C1394.567,1149.965,1446.321,1139.332,1493.364,1139.707z M1414.036,1429.137c14.023,38.555,28.574,78.258,33.785,119.555
		c2.145,16.68,9.699,112.453-28.762,92.945c-62.059-31.461-59.254-139.5-60.516-200.656c-1.234-59.219-3.609-118.367-7.953-177.398
		C1365.661,1320.59,1394.297,1374.699,1414.036,1429.137z M1462.809,1353.551c23.352,27.141,47.563,54.5,66.172,85.82
		c13.875,23.383,36.617,62.578,33.039,92.398c-4.156,34.703-31.688,12.82-39.469,4.844c-5.727-5.859-11.117-12-16.07-18.641
		c-10.688-14.383-20.688-29.227-29.25-45.203c-16.141-30.047-29.605-61.461-44.438-92.211
		c-23.059-47.813-48.305-93.711-68.969-142.352C1393.559,1279.457,1430.188,1315.605,1462.809,1353.551z M1632.903,1425.473
		c-26.953-3.742-51.688-26.18-72.031-44.078c-24.07-21.133-46.781-43.977-70.805-65.141
		c-46.199-40.688-94.859-73.844-134.512-121.438c58.598,26.32,111.824,63.609,168.168,94.945
		c30.852,17.172,64.086,33.953,89.539,60.141c8.727,8.977,17.852,18.086,24.727,28.938
		C1645.145,1390.199,1660.997,1429.355,1632.903,1425.473z"/>
	<path d="M1155.5,1010.066c-4.352-8.031-8.738-16.008-12.242-24.387c-3.805-2.957-7.625-5.91-11.613-8.652
		c0.102,1.441-0.117,2.789-0.773,3.977c2.828,3.973,4.277,7.938,3.273,11.098C1141.516,997.785,1148.555,1003.863,1155.5,1010.066z"
		/>
	<path stroke="#000000" stroke-width="8" stroke-miterlimit="10" d="M1539.317,875.305c11.453,61.582,20.711,126.078,39.336,185.785
		c-3.516-4.32-7.297-8.469-11.234-12.688c-14.305-15.344-23.43-31.508-31.836-50.969c-10.852-25.133-18.727-54.293-34.883-76.355
		c-10.148-13.883-43.977-56.992-63.547-27.844c-24.91,37.152,11.547,94.238,33.359,118.965
		c25.734,29.172,57.883,55.18,95.469,69.016c-3.953,0.195-7.938,0.602-11.883,1.008c2.359,3.297,2.617,8.008,0.25,11.227
		c4.883-0.984,9.766-2.047,14.68-2.945c-38.914,27.289-76.164,69.766-90.164,113.336c-4.531,13.992-19.594,68.508,8.023,68.797
		c32.656,0.344,53.07-36.773,61.617-63.438c10.602-33.164,13.508-72.492,30.359-104.539c-5.148,28.219-4.836,56.055-2.984,84.43
		c2.008,30.344,0.219,60.336,0.164,90.852c-0.047,25.867,0.359,57.977,16.781,78.391c5.633,7.031,18.102,21.953,30.07,15.234
		c24.242-13.609,25.742-61.914,22.523-84.039c-5.695-38.93-15.492-76.883-23.039-115.352c-2.758-14.125-6.18-27.844-10.5-41.18
		c7.922,16.594,14.281,34.141,21.422,51.07c11.406,26.945,22.594,54.258,36.867,79.711c10.414,18.531,42.352,73.766,70.164,38.906
		c9.266-11.602,4.75-31.273,1.25-42.984c-7.578-25.516-22.57-47.586-40.023-66.969c-20.055-22.258-43.141-41.766-62.063-64.977
		c-0.031-0.047-0.102-0.094-0.117-0.148c16.18,11.336,32.359,22.656,47.453,35.328c24.023,20.266,47.266,42.352,74.555,58.539
		c15.984,9.469,90.297,50.969,108.93,19.969c10.469-17.414-5.102-32.18-17.281-41.93c-23.344-18.617-48.805-33.844-76.211-46.445
		c-31.75-14.578-64.688-30.914-98.75-44.078c18.688,3.43,37.359,6.914,55.867,10.891c36.484,7.875,70.984,21.258,107.32,29.555
		c25.727,5.914,123.461,24.492,133.227-22.328c9.203-44.102-124.703-34.781-144-34.688c-58.328,0.273-115.813-11.508-174.008-13.875
		c23.813-4.039,47.617-8.453,71.531-11.656c38.992-5.242,77.094-4.477,115.938-5.461c36.891-0.969,78.352-3.016,112.719-22.195
		c11.219-6.258,33.781-19.969,28.508-35.773c-15.492-46.324-113.68-18.789-148.094-9.859
		c-41.18,10.695-82.727,23.172-123.805,37.359c7.016-3.477,14.023-6.93,21.047-10.391c41.273-20.211,84.742-35.973,125.188-57.961
		c14.789-8.031,112.563-62.266,77.617-87.055c-12.984-9.184-39.531,2.719-52.891,8.352c-31.305,13.148-60.68,29.023-88.961,48.402
		c-37.086,25.418-73.422,51.66-111.141,76.137c-19.055,12.359-38.32,25.008-56.469,39.016
		c22.555-23.844,45.602-47.191,69.188-70.027c30.781-29.738,64.336-57.773,92.336-90.188c18.391-21.262,37.32-44.801,42.922-72.266
		c2.734-13.402,5.563-33.563-5.313-43.324c-34.352-30.801-94.586,57.445-108.641,80.258c-20.211,32.793-38.742,67.109-55.211,101.66
		c-11.992,25.215-23.469,51.059-38.898,74.613c23.516-50.07,41.852-102.547,62.891-153.176
		c11.125-26.82,51.258-112.965,11.734-129.035c-37.82-15.426-65.563,84.34-69.789,104.352
		c-13.398,63.547-11.805,131.094-28.75,194.398c5.57-57.137-1.953-113.996-0.57-171.09c0.391-15.996,9.219-124.738-32.273-113.25
		C1525.231,772.027,1534.247,848.02,1539.317,875.305z M1615.333,1184.223c5.633,29.094,13.125,57.711,18.227,86.938
		c4.258,24.289,10.359,68.398-8.813,90.531c-20.883,24.094-38.313-44.016-39.102-54.797c-1.727-23.266-0.188-46.633,0.453-70.086
		c1.234-46.445-6.922-90.867,2.43-137.219C1602.27,1126.059,1609.481,1154.199,1615.333,1184.223z M1636.473,1138.223
		c14.539,17.008,31.555,31.563,46.82,47.852c17.609,18.797,37.516,40.102,46.227,65.086c1.922,5.484,3.883,11.055,5.117,16.813
		c1.43,6.742,7.32,50.18-20.266,35.484c-35.922-19.141-51.828-73.297-66.797-108.539c-12.695-29.945-22.945-63-41.031-90.227
		C1617.739,1114.535,1626.739,1126.801,1636.473,1138.223z M1743.231,1147.91c26.906,11.477,54.211,23.289,78.32,39.516
		c8.867,5.961,17.656,12.148,25.797,19.063c7.352,6.195,30.664,35.367,3.305,35.938c-47.281,1-91.688-30.547-124.617-58.008
		c-36.156-30.219-75.148-56.672-112.016-85.867C1659.333,1108.738,1701.442,1130.027,1743.231,1147.91z M1794.934,1100.816
		c33.813,0.461,68.047-1.305,101.609,1.344c11.445,0.883,23.086,1.773,34.32,3.867c6.945,1.281,14.18,2.469,20.578,5.336
		c12.875,5.781,15.68,24.117-0.648,29.977c-57.664,20.641-117.813-2.945-170.313-18.359
		c-54.852-16.109-112.352-23.703-168.586-35.406C1674.098,1083.934,1733.286,1099.973,1794.934,1100.816z M1794.043,1014.496
		c33.711-10.367,67.836-19.543,102.422-23.762c20.984-2.52,57.234-9.883,73.43,5.211c23.414,21.793-26.805,41.293-38.391,44.949
		c-18.047,5.617-36.344,9.094-54.859,10.461c-30.453,2.227-60.602,1.227-90.953,2.148c-55.5,1.664-110.438,14.953-165.727,22.164
		C1676.809,1051.832,1735.567,1032.504,1794.043,1014.496z M1770.559,959.641c28.93-20.602,58.438-41.824,90.602-56.613
		c17.523-8.063,38.508-19.223,57.5-21.09c13.039-1.293,17.414,12.891,8.156,22.484c-4.844,4.996-9.82,9.621-15.25,13.934
		c-7.953,6.324-15.945,12.746-24.414,18.301c-30.711,20.082-63.711,34.305-96.906,48.832
		c-58.039,25.344-113.695,56.781-172.383,80.273C1664.098,1025.145,1720.911,995.004,1770.559,959.641z M1573.536,1097.426
		c-10.664,19.328-15.828,41.211-20.742,62.125c-6.93,29.391-12.469,71.539-38.617,92.703c-7.688,6.211-28.367,20.984-32.75,4.852
		c-1.922-7.078-2.031-14.594-0.992-22.094c1.625-11.781,3.914-24.297,8.922-35.508
		C1507.028,1159.777,1537.293,1123.074,1573.536,1097.426z M1481.84,1011.504c-22.945-26.027-52.359-67.063-40.457-106.391
		c9.051-29.84,38.879,4.074,47.043,14.637c11.453,14.742,18.016,31.637,25.266,48.91c8.68,20.652,15.664,44.844,28.375,63.211
		c10.922,15.766,26.664,28.063,36.578,44.477C1541.02,1065.059,1506.856,1039.84,1481.84,1011.504z M1698.833,902.527
		c15.711-29.215,31.828-59.391,53.914-84.824c8.898-10.297,62.563-66.582,71.445-33.031c14.328,54.129-52.281,110.84-88.453,144.641
		c-35.031,32.754-69.391,66.145-102.633,100.645C1659.356,990.129,1676.614,943.75,1698.833,902.527z M1627.106,914.207
		c3.828-28.641,7.32-57.906,16.227-85.973c6.648-20.945,18.07-55.719,37.953-69.699c23.148-16.273,24.719,12.031,24.094,20.988
		c-0.461,6.59-1.273,13.141-2.602,19.68c-2.93,14.168-6.531,28.188-11.555,41.934c-9.445,25.906-21.156,50.93-31.734,76.422
		c-16.445,39.641-30.57,79.539-48.797,118.195C1619.606,995.676,1621.739,954.219,1627.106,914.207z M1579.2,773.582
		c12.203,18.148,11.953,45.063,12.086,66.91c0.164,25.824-1.398,51.758-1.273,77.563c0.258,49.625,6.383,96.66-1.023,146.113
		c-15.578-49.281-21.664-101.285-33-151.926c-6.211-27.734-13.914-56.691-11.805-86.066c0.734-10.074,1.328-20.457,4.188-30.438
		C1551.372,785.32,1566.465,754.68,1579.2,773.582z"/>
	<path stroke="#000000" stroke-width="6" stroke-miterlimit="10" d="M1322.918,866.344c-8.785-57.082-22.473-115.914-48.152-174.82
		c-7.109-16.266-15.508-32.559-24.707-48.848c-0.121-0.52-0.395-1.027-0.84-1.516c-19.672-34.75-43.023-69.453-66.547-103.973
		c-38.559-56.613-70.418-108.805-87.168-165.207c-13.309-44.727-25.535-92.152-65.68-137.117
		c-14.137-15.84-30.359-30.422-48.055-44.125c-0.305-0.289-0.676-0.543-1.047-0.793c-89.59-68.984-217.324-115.441-313.848-182.25
		c-3.758-2.594-9.906-2.281-10.242,0.492c-0.074,0.563-0.211,1.109-0.289,1.68c-0.285,0.367-0.363,0.844-0.246,1.414
		c-7.711,49.465-48.398,84.113-83.41,122.574c-31.375,34.531-53.035,72.922-49.484,119.457
		c2.234,29.773,11.645,60.199,23.203,90.883c-0.352,1.156,0.07,2.551,1.406,3.715c8.051,21.141,16.973,42.379,25.238,63.59
		c20.777,53.457,32.379,106.031,51.406,159.336c12.086,33.816,28.902,66.957,48.207,100.281c3.613,1.863,6.965,4.32,9.465,6.914
		c3.793,1.594,7.5,3.879,10.418,6.492c-10.43-17.434-20.273-34.789-29.066-52.137c20.328,3.723,39.578,9.746,58.391,16.711
		c15.777,6.363,31.277,13.457,45.969,19.441c27.73,11.316,56.352,23.051,85.5,31.141c54.328,15.078,123.828,21.34,158.23,60.844
		c24.996,41.223,50.047,83.121,72.391,125.031c4.453,9.121,8.82,18.266,13.109,27.395c-55.941-21.066-112.035-19.113-168.688-37.77
		c-16.309-5.371-31.477-12.461-46.336-19.855c0.891,1.949,1.574,4.086,2.102,6.293c2.641,1.809,4.73,4.949,6.27,8.637
		c15.895,7.887,32.41,15.551,49.742,20.801c55.227,16.801,109.34,12.68,163.266,35.527c7.07,15.184,13.977,30.383,20.93,45.598
		c2.492,5.52,5.02,11.066,7.555,16.617c10.68,27.949,18.813,55.559,23.941,82.668c0.363,0.961,0.555,1.883,0.488,2.734
		c0.805,4.453,1.742,8.922,2.371,13.344c-3.773-2.789-7.715-5.469-11.621-8.172c-0.75,0.047-1.414,0.141-2.273,0.141
		c-10.164,0-24.152-10.336-24.938-17.344c-4.984-1.719-10.008-4.906-13.508-8.383c-32.227-18.805-66.613-36.211-100.48-53.914
		c-23.59-12.336-45.781-25.238-66.941-38.617c0.293,0.516,0.473,1.156,0.738,1.711c3.004,2.867,5.199,7.445,6.445,12.469
		c8.035,4.91,16.195,9.773,24.793,14.477c62.18,34.086,130.512,64.32,183.387,104.57c10.664,0.391,21.109,2.25,31.215,5.297
		c35.723-33.438,85.309-59.563,115.531-95.828C1333.504,964.965,1330.653,916.809,1322.918,866.344z M1089.024,390.805
		c15.445,47.203,44.375,91.945,76.594,139.234c11.176,16.352,22.352,32.762,33.215,49.207c-0.805,0.32-1.465,0.77-1.805,1.484
		c-1.441,3.273-3.605,6.25-6.289,9.02c-5.496,4.535-11.52,8.676-18.055,12.461c-18.965,9.43-44.719,15.348-65.117,21.148
		c-21.418,6.117-43.469,11.93-62.645,19.953c-19.191,8.055-33.5,18.844-51.34,27.723c-5.852,2.938-11.336,5.609-14.914,9.117
		c-17.41-28.145-34.938-56.277-52.215-84.414c-11.965-22.273-23.035-44.512-32.512-66.715c-2.16-5.09-4.508-10.141-6.84-15.211
		c17.082-15.352,30.57-31.945,51.164-45.602c19.352-12.77,39.738-24.867,60.359-36.805c34.508-20.008,60.824-43.715,80.871-71.199
		C1082.59,370.398,1085.676,380.594,1089.024,390.805z M1024.571,243.234c26.281,33.824,39.141,67.078,49.746,100.348
		c-0.934,0.176-1.762,0.547-2.176,1.363c-22.539,45.598-97.188,73.621-148.457,103.754c-14.863,8.707-39.586,20.941-50.547,36.293
		c-21.637-42.133-47.746-83.957-74.855-126.313c-6.973-15.711-13.445-31.441-19.672-47.184c0.145-0.031,0.281-0.012,0.41-0.055
		c57.953-17.27,92.422-50.297,133.629-78.93c18.008-9.789,36.438-19.313,52.75-30.09c4.184-1.82,8.563-3.539,13.043-5.176
		C996.094,211.547,1011.754,226.758,1024.571,243.234z M876.27,131.527c32.395,17.652,63.145,36.074,89.973,56.203
		c-3.797,2.918-7.84,5.688-11.992,8.418c-17.953,8.074-33.703,17.621-48.453,27.809c-11.805,6.391-23.504,12.852-34.422,19.727
		c-30.238,19.211-63.676,33.996-100.367,48.336c-0.137-0.309-0.258-0.602-0.387-0.934c-10.105-27.145-19.629-54.258-29.074-81.363
		c0.207-0.086,0.414-0.129,0.598-0.227c19.441-13.98,40.344-27.52,62.285-40.375c2.867-1.281,5.625-2.578,8.211-3.891
		c18.133-9.266,36.836-18.309,53.211-28.754C869.329,134.82,872.766,133.145,876.27,131.527z M766.504,311.414
		c-9.063-14.879-16.754-29.723-19.945-44.344c-1.387-6.43-2.672-12.832-3.906-19.199c4.98,13.898,10.039,27.813,15.277,41.734
		C760.668,296.879,763.614,304.168,766.504,311.414z M863.278,124.52c-2.297,1.625-4.648,3.234-7.039,4.836
		c-24.211,11.629-47.613,24.234-69.844,37.555c-2.684,1.211-5.379,2.418-8.047,3.563c-16.559,7.145-32.484,13.813-41.863,24.633
		c-16.141-46.551-32.258-93.098-50.559-139.789c-2.121-9.98-4.332-19.969-6.926-30.039C734.766,60.699,801.36,91.539,863.278,124.52
		z M664.692,32.734c2.883,7.047,5.742,14.078,8.48,21.117c3.488,16.613,6.879,33.223,12.492,50.102
		c2.711,8.203,5.68,16.434,8.699,24.668c-22.52-11.332-46.02-21.531-68.328-33.117C643.008,76.16,657.227,55.848,664.692,32.734z
		 M603.786,119.34c5.773-5.91,11.438-11.844,16.914-17.813c28.59,15.418,64.047,29.234,82.039,49.555
		c5.418,14.5,10.754,28.988,15.254,43.406c3.473,11.113,5.469,22.191,7.371,33.281c-52.453-24.141-97.809-53.012-147.898-79.395
		C585.551,138.523,594.426,128.898,603.786,119.34z M570.817,156.801c49.355,33.16,102.664,63.559,158.262,92.063
		c2.148,10.68,4.914,21.398,9.531,32.18c9.516,22.285,25.238,44.5,38.898,66.777c-17.77-11.762-40.27-21.203-61.551-30.43
		c-57.496-24.953-136.383-51.074-175.742-89.66c-0.695-0.684-1.461-1.18-2.234-1.586
		C542.758,200.504,554.739,177.992,570.817,156.801z M535.727,248.621c0.051-3.129,0.184-6.211,0.441-9.254
		c18.461,20.656,60.09,36.34,89.578,48.555C685.34,312.594,762,344.031,797.946,384.418c8.102,17.438,16.676,34.871,25.559,52.301
		c-34.32-17.586-72.164-26.352-111.012-37.309c-48.801-13.727-93.992-38.984-142.344-52.633c-4.133-1.43-8.348-2.637-12.777-3.578
		C545.012,310.949,535.309,278.852,535.727,248.621z M601.836,458.832c-5.727-17.801-11.906-35.633-19.137-53.555
		c-7.082-17.57-14.797-35.465-21.902-53.332c3.574,0.918,7.145,1.922,10.668,2.969c17.836,6.453,36.555,17.254,52.297,23.246
		c19.82,7.566,39.746,14.551,59.859,21.328c54.453,18.348,101.441,40.684,153.098,62.695c15.766,29.645,32.648,59.375,50.602,89.195
		c-20.59-9.199-42.355-12.215-64.469-15.551c-21.746-4.473-42.852-8.941-64.543-17.945
		c-51.551-21.363-100.094-47.715-155.863-59.012C602.219,458.828,602.055,458.855,601.836,458.832z M604.563,467.297
		c30.477,9.656,59.078,17.531,87.957,31.27c22.797,10.867,45.078,21.555,69.215,30.461c10.73,3.973,21.961,6.598,33.402,8.719
		c9.059,2.277,18.207,4.164,27.488,5.844c26.723,4.781,49.641,13.973,73.613,25.527c0.844,0.395,1.582,0.629,2.309,0.805
		c5.438,8.914,10.891,17.824,16.41,26.73c4.309,8.023,8.68,16.059,13.223,24.094C911.731,612.285,894.032,606.5,874.54,601
		c-35.266-9.973-62.691-22.539-94.602-38.176c-51.52-25.266-105.133-46.703-161.449-49.668
		C613.922,497.879,609.379,482.609,604.563,467.297z M974.743,717.035c-29.453-12.84-61.906-17.734-92.754-23.781
		c-49.707-9.738-90.332-25.656-137.332-44.27c-15.391-6.098-30.445-11.395-45.707-15.809c-12.977-4.371-26.164-7.84-39.836-9.258
		c-9.539-19.57-17.887-39.188-24.484-58.996c-4.848-14.535-9.316-29.039-13.664-43.539c23.395,2.891,48.07,6.715,71.93,13.543
		c10.965,3.461,21.863,7.438,32.609,11.777c25.016,11.16,46.992,25.23,72.289,36.063c20.977,9,42.262,16.816,64.18,23.992
		c28.676,9.379,50.613,21.051,77.09,33.09c16.055,27.75,32.992,55.484,49.781,83.18c0.418,0.699,0.824,1.414,1.258,2.109
		C984.161,721.59,978.274,718.563,974.743,717.035z M987.625,694.668c20.383-5.43,29.551-18.445,46.148-26.813
		c21.469-10.836,45.988-19.043,70.93-27.09c29.789-9.617,58.48-19.652,81.418-33.785c5.082-2.781,9.598-5.84,13.43-9.234
		c2.586-2.016,4.914-4.191,7.25-6.379c10.594,16.32,20.676,32.676,29.996,49.027c-8.66,11.07-17.715,21.387-27.652,30.973
		c-11.02,6.902-23.391,12.953-33.672,18.352c-18.313,9.66-38.035,17.883-58.133,26.215c-18.621,7.703-35.152,16.848-52.504,25.484
		c-12.719,6.289-26.898,11.141-37.637,18.543C1014.231,738.195,1001.024,716.426,987.625,694.668z M1068,750.023
		c-8.426,4.203-16.738,8.5-25.141,12.793C1050.266,758.094,1058.993,753.945,1068,750.023z M1098.352,889.852
		c-7.555-15.715-15.402-31.453-23.93-47.215c-11.773-21.73-24.117-43.461-36.855-65.168c12.613-6.578,22.184-14.941,35.773-20.98
		c25.551-11.27,53.707-20.441,79.199-31.715c28.605-12.629,49.621-28.188,67.426-45.914c10.715-6.934,19.75-14.629,25.289-23.305
		c7.547,14.117,14.391,28.223,20.211,42.316c15.559,37.563,26.754,75.293,34.809,112.414c-1.156-0.07-2.34,0.039-3.301,0.578
		c-34.902,19.832-68.555,40.891-103.117,61.27c-13.297,6.543-26.367,13.355-37.324,21.367
		c-14.488,7.988-29.273,15.723-44.461,23.109C1107.618,907.688,1103.055,898.758,1098.352,889.852z M1279.497,1008.707
		c-9.555,9.117-20.016,17.727-30.84,26.133c-2.488,2.391-5.383,4.625-8.355,6.398c-0.652,0.5-1.293,1-1.945,1.492
		c-4.105,5.367-11.313,10.93-17.637,13.25c-2.805,2.102-5.539,4.242-8.328,6.352c-0.965,0.773-1.895,1.586-2.879,2.336
		c-0.453,0.344-1.031,0.727-1.629,1.109c-9.148,7.016-18.16,14.102-26.578,21.516c-4.465-17.375-10.543-34.859-17.57-52.453
		c0.246-0.031,0.496,0,0.699-0.078c16.918-5.695,31.902-12.781,46.137-20.406c1.387-1.367,2.77-2.617,4.004-3.656
		c12.906-10.863,28.105-23.703,45.305-24.258c14.84-8.129,30.371-15.754,47.988-21.859
		C1302.508,980.387,1293.629,995.242,1279.497,1008.707z M1311.368,951.871c-0.797-0.063-1.609-0.07-2.398,0.047
		c-0.945,0.156-1.809,0.383-2.73,0.559c-5.102,6.965-12.758,13.203-18.625,13.203c-1.434,0-2.559-0.234-3.539-0.574
		c-1.555,0.508-3.063,0.73-4.461,0.574c-0.129-0.016-0.258,0-0.387-0.016c-4.395,4.453-9.449,7.801-13.613,8.016
		c-13.984,0.719-27.289,6.816-40.105,14.32c-4.613,4.688-11.035,8.969-16.453,10.473c-2.781,2.742-6.152,5.25-9.539,7.164
		c-6.324,5.414-12.355,10.625-18.004,15.031c-4.117,3.211-15.227,8.516-18.582,1.586c-0.973-0.711-1.848-1.625-2.516-2.93
		c-0.152-0.297-0.313-0.594-0.469-0.891c-0.84,0.383-1.664,0.781-2.531,1.141c-3.93-9.328-8.031-18.633-12.227-27.941
		c-7.395-19.441-15.766-39.035-25.113-58.691c0.273-0.07,0.531-0.047,0.77-0.145c17.445-6.727,25.332-17.047,38.16-26.684
		c3.031-2.34,6.297-4.551,9.543-6.723c11.75-6.527,23.27-13.199,34.684-19.957c1.539-0.742,3.023-1.523,4.543-2.273
		c32.918-16.223,60.879-36.586,95.695-51.375c2.066,10.43,3.93,20.816,5.488,31.113
		C1314.043,890.195,1317.833,922.535,1311.368,951.871z"/>
	<path d="M822.708,856.602c-4.777-4.289-7.613-12.902-7.926-20.781c-6.25-7.418-12.336-14.852-18.113-22.316
		c2.418,0.184,4.957,0.656,7.477,1.102c-0.043-0.164-0.039-0.336-0.082-0.5c-1.078-2.352-1.883-4.98-2.441-7.68
		c-2.719-0.531-5.434-1.078-8.254-1.441c-1.352-0.164-2.363-0.031-3.156,0.23c-0.473-0.633-0.906-1.266-1.371-1.898
		c1.48,3.926,2.336,8.359,2.465,12.566c0.789,1.523,1.469,3.188,2.031,4.934c2.078,2.715,3.656,6.281,4.664,10.156
		c6.988,8.48,14.215,16.926,22.074,25.266c1.344,1.43,2.758,2.816,4.152,4.215C823.649,859.238,823.145,857.945,822.708,856.602z"/>
	<path d="M648.708,0c-0.137,0.691-0.332,1.402-0.469,2.078c-0.066,0.02-0.129,0.039-0.176,0.059
		C648.274,1.414,648.469,0.73,648.708,0z"/>
	<path d="M761.633,111.039c-0.371,0.195-0.773,0.383-1.129,0.57c0.035-0.098,0.016-0.176,0.051-0.266
		C760.907,111.258,761.278,111.141,761.633,111.039z"/>
</g>
</svg>
